<?xml version="1.0" encoding="iso-8859-1"?>
<!-- Generator: Adobe Illustrator 19.0.0, SVG Export Plug-In . SVG Version: 6.00 Build 0)  -->
<svg version="1.1" id="Capa_1" xmlns="http://www.w3.org/2000/svg" xmlns:xlink="http://www.w3.org/1999/xlink" x="0px" y="0px"
	 viewBox="0 0 512 512" style="enable-background:new 0 0 512 512;" xml:space="preserve">
<path style="fill:#FFAE33;" d="M222.258,486.974c-8.968,0.001-17.932-3.408-24.759-10.228L34.766,314.188
	c-6.618-6.611-10.263-15.402-10.263-24.755c0-9.352,3.645-18.143,10.263-24.754l254.72-254.446c13.652-13.64,35.865-13.637,49.518,0
	l162.732,162.559c6.619,6.611,10.264,15.402,10.264,24.755c0,9.352-3.645,18.143-10.264,24.754L247.018,476.747
	C240.192,483.564,231.224,486.974,222.258,486.974z"/>
<path style="fill:#FF9800;" d="M501.736,172.792L339.004,10.233c-13.652-13.637-35.865-13.64-49.518,0L256,43.683v424.091
	L501.736,222.3c6.619-6.611,10.264-15.402,10.264-24.754S508.355,179.403,501.736,172.792z"/>
<rect x="219.566" y="-8.096" transform="matrix(-0.7067 -0.7075 0.7075 -0.7067 259.2892 506.2015)" style="fill:#FF6A00;" width="30" height="414.906"/>
<path style="fill:#0078EB;" d="M395,511.996H35c-19.299,0-35-15.701-35-35v-230c0-19.299,15.701-35,35-35h360
	c19.299,0,35,15.701,35,35v230C430,496.294,414.299,511.996,395,511.996z"/>
<rect x="290" y="292" width="80" height="30"/>
<rect x="69" y="292" style="fill:#00E0FF;" width="178" height="30"/>
<path style="fill:#003D6B;" d="M395,211.996H256v300h139c19.299,0,35-15.701,35-35v-230C430,227.697,414.299,211.996,395,211.996z"
	/>
<path style="fill:#FF3A00;" d="M258,459.972c-12.804,0-25.608-4.874-35.355-14.621c-19.495-19.495-19.495-51.216,0-70.711
	c19.495-19.494,51.215-19.495,70.711-0.001l0.001,0.001c19.493,19.495,19.493,51.216,0,70.711
	C283.607,455.098,270.804,459.972,258,459.972z"/>
<path style="fill:#FFAB00;" d="M328,459.971c-12.805,0-25.607-4.873-35.355-14.619c-19.494-19.496-19.494-51.217-0.001-70.712
	c19.497-19.495,51.217-19.492,70.712-0.001l0.001,0.001c19.493,19.495,19.493,51.216,0,70.711
	C353.608,455.098,340.804,459.971,328,459.971z"/>
<path style="fill:#E20004;" d="M293.356,374.64L293.356,374.64C283.1,364.385,269.462,359.533,256,360.067v99.858
	c0.666,0.026,1.333,0.048,2,0.048c12.804,0,25.607-4.874,35.356-14.621C312.85,425.856,312.85,394.135,293.356,374.64z"/>
<polygon style="fill:#FF3A00;" points="256,199.173 391.952,63.361 370.751,42.136 256,156.769 "/>
<g>
</g>
<g>
</g>
<g>
</g>
<g>
</g>
<g>
</g>
<g>
</g>
<g>
</g>
<g>
</g>
<g>
</g>
<g>
</g>
<g>
</g>
<g>
</g>
<g>
</g>
<g>
</g>
<g>
</g>
</svg>
