<?xml version="1.0" encoding="utf-8"?>
<!-- Generator: Adobe Illustrator 21.0.0, SVG Export Plug-In . SVG Version: 6.00 Build 0)  -->
<svg version="1.1" id="Camada_1" xmlns="http://www.w3.org/2000/svg" xmlns:xlink="http://www.w3.org/1999/xlink" x="0px" y="0px"
	 viewBox="0 0 130 70" style="enable-background:new 0 0 130 70;" xml:space="preserve">
<style type="text/css">
	.st0{fill-rule:evenodd;clip-rule:evenodd;}
	.st1{fill-rule:evenodd;clip-rule:evenodd;fill:#FFFFFF;}
</style>
<g>
	<polygon class="st0" points="15.9,10 21.3,10 21.3,61 15.9,61 15.9,10 	"/>
	<polygon class="st0" points="23,10 24.7,10 24.7,61 23,61 23,10 	"/>
	<polygon class="st0" points="26.2,10 29.2,10 29.2,61 26.2,61 26.2,10 	"/>
	<polygon class="st0" points="32.1,10 33.8,10 33.8,61 32.1,61 32.1,10 	"/>
	<polygon class="st0" points="34.5,10 35.8,10 35.8,61 34.5,61 34.5,10 	"/>
	<polygon class="st0" points="11.7,10 13.4,10 13.4,61 11.7,61 11.7,10 	"/>
	<polygon class="st0" points="8,10 11,10 11,61 8,61 8,10 	"/>
	<polygon class="st0" points="44.8,10 50.3,10 50.3,61 44.8,61 44.8,10 	"/>
	<polygon class="st0" points="52,10 53.7,10 53.7,61 52,61 52,10 	"/>
	<polygon class="st0" points="55.1,10 58.2,10 58.2,61 55.1,61 55.1,10 	"/>
	<polygon class="st0" points="61.1,10 62.8,10 62.8,61 61.1,61 61.1,10 	"/>
	<polygon class="st0" points="63.5,10 64.8,10 64.8,61 63.5,61 63.5,10 	"/>
	<polygon class="st0" points="40.7,10 42.4,10 42.4,61 40.7,61 40.7,10 	"/>
	<polygon class="st0" points="37,10 40,10 40,61 37,61 37,10 	"/>
	<polygon class="st0" points="66.9,10 70,10 70,61 66.9,61 66.9,10 	"/>
	<polygon class="st0" points="72.9,10 74.6,10 74.6,61 72.9,61 72.9,10 	"/>
	<polygon class="st0" points="75.3,10 76.6,10 76.6,61 75.3,61 75.3,10 	"/>
	<polygon class="st0" points="81.5,10 83.1,10 83.1,61 81.5,61 81.5,10 	"/>
	<polygon class="st0" points="77.7,10 80.8,10 80.8,61 77.7,61 77.7,10 	"/>
	<polygon class="st0" points="85.4,10 87.1,10 87.1,61 85.4,61 85.4,10 	"/>
	<polygon class="st0" points="87.8,10 89.1,10 89.1,61 87.8,61 87.8,10 	"/>
	<polygon class="st0" points="94,10 95.7,10 95.7,61 94,61 94,10 	"/>
	<polygon class="st0" points="90.3,10 93.3,10 93.3,61 90.3,61 90.3,10 	"/>
	<polygon class="st0" points="97.1,10 102.6,10 102.6,61 97.1,61 97.1,10 	"/>
	<polygon class="st0" points="104.3,10 106,10 106,61 104.3,61 104.3,10 	"/>
	<polygon class="st0" points="107.5,10 110.5,10 110.5,61 107.5,61 107.5,10 	"/>
	<polygon class="st0" points="113.4,10 115.1,10 115.1,61 113.4,61 113.4,10 	"/>
	<polygon class="st0" points="115.8,10 117.1,10 117.1,61 115.8,61 115.8,10 	"/>
	<polygon class="st0" points="119.2,10 122.3,10 122.3,61 119.2,61 119.2,10 	"/>
	<polygon class="st1" points="14.2,61.1 118.5,61.1 118.5,32.5 14.2,32.5 14.2,61.1 	"/>
	<path d="M16.1,60V34.1h9.7c2,0,3.6,0.3,4.8,0.8c1.2,0.5,2.1,1.3,2.8,2.4c0.7,1.1,1,2.2,1,3.4c0,1.1-0.3,2.1-0.9,3.1
		c-0.6,1-1.5,1.8-2.7,2.4c1.6,0.5,2.8,1.2,3.6,2.3c0.8,1.1,1.3,2.4,1.3,3.9c0,1.2-0.3,2.3-0.8,3.4c-0.5,1-1.1,1.8-1.9,2.4
		c-0.8,0.6-1.7,1-2.8,1.3C29,59.8,27.6,60,26,60H16.1L16.1,60z M19.6,45h5.6c1.5,0,2.6-0.1,3.3-0.3c0.9-0.3,1.5-0.7,2-1.3
		c0.4-0.6,0.7-1.4,0.7-2.3c0-0.9-0.2-1.6-0.6-2.3c-0.4-0.7-1-1.1-1.8-1.3c-0.8-0.2-2.1-0.4-3.9-0.4h-5.2V45L19.6,45z M19.6,56.9H26
		c1.1,0,1.9,0,2.3-0.1c0.8-0.1,1.4-0.4,2-0.7s1-0.8,1.3-1.4c0.3-0.6,0.5-1.4,0.5-2.2c0-1-0.2-1.8-0.7-2.5c-0.5-0.7-1.2-1.2-2.1-1.5
		c-0.9-0.3-2.1-0.4-3.8-0.4h-6V56.9L19.6,56.9z"/>
	<path d="M38.8,50.6c0-3.5,1-6,2.9-7.7c1.6-1.4,3.6-2.1,5.9-2.1c2.6,0,4.7,0.8,6.3,2.5c1.6,1.7,2.4,4,2.4,7c0,2.4-0.4,4.3-1.1,5.7
		c-0.7,1.4-1.8,2.4-3.2,3.2c-1.4,0.8-2.9,1.1-4.5,1.1c-2.6,0-4.7-0.8-6.4-2.5C39.6,56.2,38.8,53.8,38.8,50.6L38.8,50.6z M42,50.6
		c0,2.4,0.5,4.2,1.6,5.4c1.1,1.2,2.4,1.8,4,1.8c1.6,0,2.9-0.6,3.9-1.8c1-1.2,1.6-3,1.6-5.5c0-2.3-0.5-4.1-1.6-5.2
		c-1.1-1.2-2.4-1.8-3.9-1.8c-1.6,0-2.9,0.6-4,1.8C42.5,46.4,42,48.2,42,50.6L42,50.6z"/>
	<polygon points="59.9,60 59.9,34.1 63.1,34.1 63.1,60 59.9,60 	"/>
	<path d="M80.8,53.9l3.3,0.4c-0.5,1.9-1.5,3.4-2.9,4.4c-1.4,1.1-3.2,1.6-5.3,1.6c-2.7,0-4.9-0.8-6.5-2.5c-1.6-1.7-2.4-4-2.4-7.1
		c0-3.1,0.8-5.6,2.4-7.3c1.6-1.7,3.7-2.6,6.3-2.6c2.5,0,4.5,0.8,6.1,2.6c1.6,1.7,2.4,4.1,2.4,7.2c0,0.2,0,0.5,0,0.8H70.2
		c0.1,2.1,0.7,3.6,1.7,4.7c1,1.1,2.3,1.6,3.9,1.6c1.2,0,2.2-0.3,3-0.9C79.7,56.2,80.3,55.3,80.8,53.9L80.8,53.9z M70.4,48.8h10.4
		c-0.1-1.6-0.5-2.8-1.2-3.5c-1-1.2-2.3-1.8-3.9-1.8c-1.5,0-2.7,0.5-3.7,1.5C71.1,45.9,70.5,47.2,70.4,48.8L70.4,48.8z"/>
	<path d="M95,57.1l0.4,2.8c-0.9,0.2-1.7,0.3-2.4,0.3c-1.1,0-2-0.2-2.7-0.5c-0.6-0.4-1.1-0.8-1.3-1.4c-0.3-0.6-0.4-1.8-0.4-3.8V43.7
		h-2.3v-2.5h2.3v-4.6l3.2-1.9v6.5H95v2.5h-3.2v11c0,0.9,0.1,1.5,0.2,1.8c0.1,0.3,0.3,0.5,0.5,0.6c0.3,0.2,0.6,0.2,1.1,0.2
		C94,57.3,94.4,57.2,95,57.1L95,57.1z"/>
	<path d="M96.9,50.6c0-3.5,1-6,2.9-7.7c1.6-1.4,3.6-2.1,5.9-2.1c2.6,0,4.7,0.8,6.3,2.5c1.6,1.7,2.4,4,2.4,7c0,2.4-0.4,4.3-1.1,5.7
		c-0.7,1.4-1.8,2.4-3.2,3.2c-1.4,0.8-2.9,1.1-4.5,1.1c-2.6,0-4.7-0.8-6.4-2.5C97.7,56.2,96.9,53.8,96.9,50.6L96.9,50.6z M100.2,50.6
		c0,2.4,0.5,4.2,1.6,5.4c1.1,1.2,2.4,1.8,4,1.8c1.6,0,2.9-0.6,3.9-1.8c1-1.2,1.6-3,1.6-5.5c0-2.3-0.5-4.1-1.6-5.2
		c-1.1-1.2-2.4-1.8-3.9-1.8c-1.6,0-2.9,0.6-4,1.8C100.7,46.4,100.2,48.2,100.2,50.6L100.2,50.6z"/>
</g>
</svg>
