<?xml version="1.0" encoding="utf-8"?>
<!-- Generator: Adobe Illustrator 21.0.0, SVG Export Plug-In . SVG Version: 6.00 Build 0)  -->
<svg version="1.1" id="Camada_1" xmlns="http://www.w3.org/2000/svg" xmlns:xlink="http://www.w3.org/1999/xlink" x="0px" y="0px"
	 viewBox="0 0 370.5 372" style="enable-background:new 0 0 370.5 372;" xml:space="preserve">
<style type="text/css">
	.st0{fill-rule:evenodd;clip-rule:evenodd;fill:#050013;stroke:#231F20;stroke-width:0.5669;stroke-miterlimit:22.9256;}
	.st1{fill-rule:evenodd;clip-rule:evenodd;fill:#FFFFFF;}
	.st2{fill-rule:evenodd;clip-rule:evenodd;fill:#009DD7;}
	.st3{fill-rule:evenodd;clip-rule:evenodd;fill:#FFF200;}
	.st4{fill-rule:evenodd;clip-rule:evenodd;fill:#E33206;}
</style>
<g>
	<g>
		<path class="st0" d="M182.7,13.8C279,13.8,357,91.9,357,188.2c0,96.3-78.1,174.4-174.4,174.4S8.3,284.5,8.3,188.2
			C8.3,91.9,86.4,13.8,182.7,13.8L182.7,13.8z"/>
		<path class="st1" d="M107.8,141.4c25.3,0,46.4,17.5,52.1,41l-21.6,9.4l0,0l-22.1,9.7l-53,23.2c-5.7-8.5-9-18.7-9-29.7
			C54.2,165.4,78.2,141.4,107.8,141.4L107.8,141.4z M130.8,174.7l-53.5,23.1c-0.1-0.9-0.1-1.9-0.1-2.8c0-16.9,13.7-30.7,30.7-30.7
			C116.9,164.4,125.1,168.4,130.8,174.7L130.8,174.7z"/>
		<path class="st1" d="M145.2,233.3c-19.2,18.2-44.6,20-66.9,6.5l12.6-19.2c12.7,7.6,25.4,6.4,38.2-3.7L145.2,233.3L145.2,233.3z"/>
		<path class="st1" d="M167,220.1l-0.1-101.3h19.2v98.6c0,0.9,0.1,1.8,1.4,2.3l16.7,6.5l-7.5,19.6l-19.6-8.3
			C169.6,234.2,167,229.7,167,220.1L167,220.1z"/>
	</g>
	<g>
		<path class="st2" d="M239.3,218.4c-7.2-5.6-11.8-14.3-11.8-24.1c0-8.7,3.7-16.6,9.5-22.2L224.6,152c-12.5,9.9-20.5,25.1-20.5,42.3
			c0,18.5,9.3,34.8,23.5,44.5L239.3,218.4z"/>
		<path class="st3" d="M247.7,165.4c3.2-1.2,6.7-1.8,10.3-1.8c13.1,0,24.3,8.2,28.6,19.8l23.8-2c-5.7-23.6-27-41.1-52.4-41.1
			c-7.2,0-14,1.4-20.3,4L247.7,165.4z"/>
		<path class="st4" d="M288.6,195.7c-0.8,16.2-14.2,29.1-30.5,29.1c-2.6,0-5.1-0.3-7.4-0.9l-9.3,21.6c5.3,1.7,10.9,2.7,16.8,2.7
			c29,0,52.7-23,53.9-51.7L288.6,195.7z"/>
	</g>
</g>
</svg>
