<?xml version="1.0" encoding="iso-8859-1"?>
<!-- Generator: Adobe Illustrator 19.0.0, SVG Export Plug-In . SVG Version: 6.00 Build 0)  -->
<svg version="1.1" id="Capa_1" xmlns="http://www.w3.org/2000/svg" xmlns:xlink="http://www.w3.org/1999/xlink" x="0px" y="0px"
	 viewBox="0 0 512.001 512.001" style="enable-background:new 0 0 512.001 512.001;" xml:space="preserve">
<linearGradient id="SVGID_1_" gradientUnits="userSpaceOnUse" x1="256.0535" y1="513.9758" x2="256.0535" y2="1.8858" gradientTransform="matrix(0.9998 0 0 -0.9998 -0.0085 513.8865)">
	<stop  offset="0" style="stop-color:#2AF598"/>
	<stop  offset="1" style="stop-color:#009EFD"/>
</linearGradient>
<path style="fill:url(#SVGID_1_);" d="M440.91,178.777c-20.111-20.365-47.204-32.317-76.966-34.128v-38.897
	C363.945,47.44,315.504,0,255.964,0S147.982,47.44,147.982,105.752v38.901c-29.733,1.826-56.797,13.776-76.892,34.124
	C48.16,202,36.039,233.73,36.039,270.541c0,44.051,27.758,92.297,82.505,143.397c49.292,46.01,103.313,78.299,113.641,84.305
	c4.287,2.494,13.827,7.995,13.827,7.995l9.993,5.763l9.991-5.766c0,0,9.53-5.5,13.814-7.991
	c10.329-6.006,64.353-38.297,113.645-84.305c54.749-51.1,82.508-99.347,82.508-143.397
	C475.962,233.73,463.841,201.999,440.91,178.777z M255.964,39.993c37.488,0,67.988,29.499,67.988,65.759v41.992
	c-25.898,5.603-44.709,17.29-57.012,27.549c-3.611,3.011-7.291,6.463-10.79,10.167c-3.605-3.841-7.409-7.408-11.141-10.498
	c-12.274-10.163-31.075-21.741-57.032-27.276v-41.934C187.975,69.492,218.475,39.993,255.964,39.993z M366.165,384.702
	c-46.159,43.084-96.78,73.341-106.46,78.968c-1.009,0.586-2.311,1.341-3.708,2.151c-1.399-0.81-2.701-1.564-3.709-2.151
	c-9.678-5.628-60.298-35.884-106.456-78.968c-45.664-42.624-69.801-82.1-69.801-114.161c0-51.529,32.143-86.149,79.986-86.149
	c11.209,0,21.113,1.524,29.823,3.975c36.786,14.287,70.72,68.845,70.72,68.845s31.72-51.918,66.285-67.725
	c9.504-3.105,20.508-5.095,33.137-5.095c47.843,0,79.986,34.62,79.986,86.149C435.969,302.602,411.831,342.079,366.165,384.702z
	 M292.994,314.945L292.994,314.945c0,13.078-6.792,24.561-17.034,31.14v33.849c0,11.043-8.953,19.997-19.997,19.997
	c-11.044,0-19.997-8.953-19.997-19.997v-33.896c-10.201-6.587-16.96-18.047-16.96-31.093l0,0c0-20.431,16.562-36.994,36.994-36.994
	l0,0C276.431,277.952,292.994,294.514,292.994,314.945z"/>
<g>
</g>
<g>
</g>
<g>
</g>
<g>
</g>
<g>
</g>
<g>
</g>
<g>
</g>
<g>
</g>
<g>
</g>
<g>
</g>
<g>
</g>
<g>
</g>
<g>
</g>
<g>
</g>
<g>
</g>
</svg>
