<?xml version="1.0" encoding="utf-8"?>
<!-- Generator: Adobe Illustrator 21.0.0, SVG Export Plug-In . SVG Version: 6.00 Build 0)  -->
<svg version="1.1" xmlns="http://www.w3.org/2000/svg" xmlns:xlink="http://www.w3.org/1999/xlink" x="0px" y="0px"
	 viewBox="0 0 531.1 228.8" style="enable-background:new 0 0 531.1 228.8;" xml:space="preserve">
<style type="text/css">
	.st0{display:none;}
	.st1{display:inline;}
	.st2{fill:#001D7E;}
	.st3{fill:#6DAD95;}
	.st4{fill:#FFFFFF;}
</style>
<g id="Layer_1" class="st0">
	<g id="fundo_branco" class="st1">
		<g>
			<path d="M94.6,186.1c-3.1,0-5.7-1-7.9-3.1c-2.2-2.1-3.3-4.7-3.3-7.7c0-3.1,1-5.6,2.9-7.7s4.4-3.1,7.4-3.1c2.4,0,4.7,0.4,7.1,1.2
				l-0.4,1.2c-2.4-0.7-4.6-1.1-6.8-1.1c-2.6,0-4.7,0.9-6.3,2.8c-1.6,1.8-2.4,4.1-2.4,6.8s0.9,4.9,2.8,6.8c1.9,1.9,4.2,2.8,6.8,2.8
				c2.3,0,4.3-0.4,6-1.1l0.4,1c-0.7,0.4-1.7,0.8-2.9,1S95.8,186.1,94.6,186.1z"/>
			<path d="M106.6,185.7v-21h1.4v19.7h9.7v1.3H106.6z"/>
			<path d="M126.7,161.9l-4.3,1.6l-1-0.3l5.1-2.8L126.7,161.9z M122.2,185.7v-21h1.4v21H122.2z"/>
			<path d="M132.7,168l0.1,2.5v15.2h-1.4v-21.2h0.6l13.8,16c0.9,1.1,1.7,2,2.2,2.7c-0.1-0.9-0.1-2-0.1-3.2v-15.2h1.4V186h-0.6
				l-14.1-16.3c-1-1.1-1.6-1.9-1.9-2.2V168z"/>
			<path d="M157.1,185.7v-21h1.4v21H157.1z"/>
			<path d="M176.2,186.1c-3.1,0-5.7-1-7.9-3.1s-3.3-4.7-3.3-7.7c0-3.1,1-5.6,2.9-7.7s4.4-3.1,7.4-3.1c2.4,0,4.7,0.4,7.1,1.2
				l-0.4,1.2c-2.4-0.7-4.6-1.1-6.8-1.1c-2.6,0-4.7,0.9-6.3,2.8c-1.6,1.8-2.4,4.1-2.4,6.8s0.9,4.9,2.8,6.8c1.9,1.9,4.2,2.8,6.8,2.8
				c2.3,0,4.3-0.4,6-1.1l0.4,1c-0.7,0.4-1.7,0.8-2.9,1S177.3,186.1,176.2,186.1z"/>
			<path d="M189.3,178.4l-3,7.3h-1.5l8.8-21.2h0.8l8.9,21.2h-1.6l-3-7.3H189.3z M193.9,166.9c0,0-0.1,0.1-0.1,0.4
				c-0.3,0.8-0.5,1.6-0.8,2.1l-3.2,7.8h8.4l-3.2-7.8C194.3,167.9,193.9,167.1,193.9,166.9z"/>
			<path d="M218.2,185.7v-21h1.4v21H218.2z"/>
			<path d="M228.8,168l0.1,2.5v15.2h-1.4v-21.2h0.6l13.8,16c0.9,1.1,1.7,2,2.2,2.7c-0.1-0.9-0.1-2-0.1-3.2v-15.2h1.4V186h-0.6
				l-14.1-16.3c-1-1.1-1.6-1.9-1.9-2.2V168z"/>
			<path d="M257,165.9h-7.1v-1.2h15.6v1.2h-7.1v19.8H257V165.9z"/>
			<path d="M270.1,185.7v-21h9.8v1.2h-8.3v7.7h7.6v1.2h-7.6v9.6h8.7v1.2h-10.2V185.7z"/>
			<path d="M288.5,168.4c-1.6,1.8-2.4,4.1-2.4,6.8s0.9,4.9,2.8,6.8s4.1,2.8,6.7,2.8c2.3,0,4.2-0.3,5.7-0.9v-8.6h1.4v9.3
				c-1.7,1.1-4.1,1.6-7.2,1.6s-5.7-1.1-7.8-3.2s-3.2-4.7-3.2-7.7s1-5.6,2.9-7.7s4.4-3.1,7.4-3.1c2.4,0,4.7,0.4,7.1,1.2l-0.4,1.2
				c-2.4-0.7-4.6-1.1-6.8-1.1C292.2,165.6,290.1,166.6,288.5,168.4z"/>
			<path d="M309.9,185.7v-20.9c1.9-0.1,3.4-0.2,4.7-0.2c2,0,3.6,0.5,4.9,1.5s1.9,2.5,1.9,4.4c0,1.3-0.4,2.5-1.1,3.6s-1.6,2-2.5,2.6
				c0.7,1,1.6,2.2,2.7,3.6c1.1,1.4,1.8,2.2,2.1,2.6c1.2,1.3,2.5,2,4.1,2.2v0.9c-1.2,0-2.2-0.2-2.9-0.5s-1.5-0.9-2.1-1.6
				c-0.7-0.7-2.4-2.9-5-6.6c-1.9,0-3.7-0.1-5.2-0.2v8.6L309.9,185.7L309.9,185.7z M315.7,176.1c0.9,0,1.8-0.6,2.8-1.7
				c1-1.1,1.5-2.5,1.5-4s-0.5-2.6-1.5-3.4c-1-0.8-2.3-1.2-4-1.2c-0.9,0-1.9,0-3.1,0.1v10C312.9,176,314.4,176.1,315.7,176.1z"/>
			<path d="M330.4,178.4l-3,7.3h-1.5l8.8-21.2h0.8l8.9,21.2h-1.6l-3-7.3H330.4z M335,166.9c0,0-0.1,0.1-0.1,0.4
				c-0.3,0.8-0.5,1.6-0.8,2.1l-3.2,7.8h8.4l-3.2-7.8C335.4,167.9,335,167.1,335,166.9z"/>
			<path d="M354.8,164.5c3.2,0,5.9,1,8.1,3s3.3,4.7,3.3,8.2c0,1.7-0.3,3.3-0.8,4.6c-0.6,1.3-1.3,2.4-2.3,3.2c-2,1.6-4.5,2.4-7.6,2.4
				c-2,0-4.2-0.1-6.7-0.3v-21C350.8,164.6,352.8,164.5,354.8,164.5z M355.5,184.7c2.8,0,5-0.8,6.7-2.2c1.7-1.5,2.5-3.8,2.5-6.8
				s-0.9-5.4-2.8-7.2s-4.2-2.7-7-2.7c-1.8,0-3.3,0-4.6,0.1v18.5C351.4,184.6,353.2,184.7,355.5,184.7z"/>
			<path d="M373.5,178.4l-3,7.3H369l8.8-21.2h0.8l8.9,21.2H386l-3-7.3H373.5z M378.2,166.9c0,0-0.1,0.1-0.1,0.4
				c-0.3,0.8-0.5,1.6-0.8,2.1l-3.2,7.8h8.4l-3.2-7.8C378.5,167.9,378.2,167.1,378.2,166.9z"/>
			<path d="M408.5,164.5c3.2,0,5.9,1,8.1,3s3.3,4.7,3.3,8.2c0,1.7-0.3,3.3-0.8,4.6c-0.6,1.3-1.3,2.4-2.3,3.2c-2,1.6-4.5,2.4-7.6,2.4
				c-2,0-4.2-0.1-6.7-0.3v-21C404.5,164.6,406.5,164.5,408.5,164.5z M409.2,184.7c2.8,0,5-0.8,6.7-2.2c1.7-1.5,2.5-3.8,2.5-6.8
				s-0.9-5.4-2.8-7.2s-4.2-2.7-7-2.7c-1.8,0-3.3,0-4.6,0.1v18.5C405.2,184.6,406.9,184.7,409.2,184.7z"/>
			<path d="M426.4,185.7v-21h9.8v1.2h-8.3v7.7h7.6v1.2h-7.6v9.6h8.7v1.2h-10.2V185.7z"/>
			<path d="M10.6,221v-20.9c1.6-0.2,3.2-0.2,4.7-0.2c2.1,0,3.7,0.5,5,1.4c1.2,1,1.9,2.4,1.9,4.3c0,1.9-0.8,3.5-2.5,4.8
				c-1.7,1.2-3.7,1.9-6.1,1.9c-0.1,0-0.2,0-0.3,0v-1c0.1,0,0.1,0,0.2,0c1.9,0,3.6-0.5,5.1-1.5c1.4-1,2.1-2.3,2.1-4s-0.5-2.8-1.5-3.6
				c-1-0.7-2.3-1.1-4-1.1c-0.9,0-1.9,0-3.1,0.1V221H10.6z"/>
			<path d="M27.7,221v-20.9c1.9-0.1,3.4-0.2,4.7-0.2c2,0,3.6,0.5,4.9,1.5c1.3,1,1.9,2.5,1.9,4.4c0,1.3-0.4,2.5-1.1,3.6
				s-1.6,2-2.5,2.6c0.7,1,1.6,2.2,2.7,3.6s1.8,2.2,2.1,2.6c1.2,1.3,2.5,2,4.1,2.2v0.9c-1.2,0-2.2-0.2-2.9-0.5s-1.5-0.9-2.1-1.6
				c-0.7-0.7-2.4-2.9-5-6.6c-1.9,0-3.7-0.1-5.2-0.2v8.6L27.7,221L27.7,221z M33.5,211.3c0.9,0,1.8-0.6,2.8-1.7c1-1.1,1.5-2.5,1.5-4
				s-0.5-2.6-1.5-3.4c-1-0.8-2.3-1.2-4-1.2c-0.9,0-1.9,0-3.1,0.1v10C30.6,211.3,32.1,211.3,33.5,211.3z"/>
			<path d="M47,221v-21h9.8v1.2h-8.3v7.7H56v1.2h-7.6v9.6h8.7v1.2H47V221z"/>
			<path d="M69.7,216.7l7.1-16.8h1.5l-9.1,21.2h-0.8L59.3,200h1.6l7.1,16.7c0.5,1.2,0.8,2,0.9,2.5C69,218.5,69.3,217.7,69.7,216.7z"
				/>
			<path d="M82.6,221v-21h9.8v1.2H84v7.7h7.6v1.2H84v9.6h8.7v1.2H82.6V221z"/>
			<path d="M99.7,203.3l0.1,2.5V221h-1.4v-21.2H99l13.8,16c0.9,1.1,1.7,2,2.2,2.7c-0.1-0.9-0.1-2-0.1-3.2V200h1.4v21.2h-0.6
				l-14.1-16.3c-1-1.1-1.6-1.9-1.9-2.2L99.7,203.3z"/>
			<path d="M133.4,225.4c0.4,0.5,0.8,0.7,1.4,0.7c0.5,0,0.9-0.1,1.2-0.4c0.3-0.3,0.4-0.6,0.4-1.1s-0.1-0.8-0.4-1.1
				c-0.3-0.3-0.6-0.4-0.9-0.4c-0.3,0-0.6,0-0.9,0.1l-0.9-0.4l0.6-1.6c-3,0-5.6-1.1-7.8-3.2c-2.2-2.1-3.2-4.6-3.2-7.7s1-5.6,2.9-7.7
				s4.4-3.1,7.4-3.1c2.4,0,4.7,0.4,7.1,1.2l-0.4,1.2c-2.4-0.7-4.6-1.1-6.8-1.1c-2.6,0-4.7,0.9-6.3,2.8c-1.6,1.8-2.4,4.1-2.4,6.8
				s0.9,4.9,2.8,6.8c1.9,1.9,4.2,2.8,6.8,2.8c2.3,0,4.3-0.4,6-1.1l0.4,1c-1.3,0.7-3.1,1.2-5.4,1.3l-0.3,0.9c0.1,0,0.3,0,0.4,0
				c0.6,0,1.2,0.2,1.6,0.7c0.5,0.4,0.7,1,0.7,1.7s-0.3,1.3-0.7,1.8c-0.5,0.5-1.2,0.7-2,0.7s-1.5-0.4-2-1.1L133.4,225.4z"/>
			<path d="M147.1,213.7l-3,7.3h-1.5l8.8-21.2h0.8l8.9,21.2h-1.6l-3-7.3H147.1z M149.3,196.9c-0.7,0-1.5,0.6-2.2,1.8l-0.8-0.5
				c0.3-0.4,0.5-0.8,0.7-1.1s0.5-0.6,1-0.9s0.8-0.5,1.1-0.5s0.6,0,0.7,0c0.2,0,0.4,0.1,0.6,0.2c0.2,0.1,0.4,0.2,0.4,0.2
				c0.1,0,0.3,0.1,0.5,0.3c0.3,0.1,0.4,0.2,0.5,0.2c0.9,0.5,1.6,0.8,2,0.8c0.7,0,1.5-0.6,2.2-1.8l0.8,0.5c-0.3,0.4-0.5,0.8-0.7,1.1
				s-0.5,0.6-1,0.9c-0.4,0.3-0.8,0.5-1.1,0.5s-0.6,0-0.7,0s-0.4-0.1-0.6-0.2c-0.2-0.1-0.4-0.2-0.4-0.2c-0.1,0-0.3-0.1-0.5-0.3
				c-0.3-0.1-0.4-0.2-0.5-0.2C150.4,197.2,149.7,196.9,149.3,196.9z M151.7,202.2c0,0-0.1,0.1-0.1,0.4c-0.3,0.8-0.5,1.6-0.8,2.1
				l-3.2,7.8h8.4l-3.2-7.8C152.1,203.2,151.7,202.4,151.7,202.2z"/>
			<path d="M166.8,218.2c-2-2.1-2.9-4.7-2.9-7.7s1-5.6,2.9-7.7c1.9-2.1,4.4-3.1,7.4-3.1s5.4,1,7.4,3.1s2.9,4.7,2.9,7.7
				s-1,5.6-2.9,7.7c-2,2.1-4.4,3.1-7.4,3.1S168.8,220.3,166.8,218.2z M167.9,203.7c-1.6,1.8-2.4,4.1-2.4,6.8s0.8,5,2.5,6.8
				c1.6,1.8,3.8,2.8,6.3,2.8s4.7-0.9,6.3-2.8c1.6-1.8,2.5-4.1,2.5-6.8s-0.8-5-2.5-6.8c-1.6-1.8-3.8-2.7-6.4-2.7
				S169.5,201.8,167.9,203.7z"/>
			<path d="M201.7,221v-21h9.8v1.2h-8.3v7.7h7.6v1.2h-7.6v9.6h8.7v1.2h-10.2V221z"/>
			<path d="M228,221v-20.9c1.9-0.1,3.4-0.2,4.7-0.2c2,0,3.6,0.5,4.9,1.5c1.3,1,1.9,2.5,1.9,4.4c0,1.3-0.4,2.5-1.1,3.6
				s-1.6,2-2.5,2.6c0.7,1,1.6,2.2,2.7,3.6s1.8,2.2,2.1,2.6c1.2,1.3,2.5,2,4.1,2.2v0.9c-1.2,0-2.2-0.2-2.9-0.5s-1.5-0.9-2.1-1.6
				c-0.7-0.7-2.4-2.9-5-6.6c-1.9,0-3.7-0.1-5.2-0.2v8.6L228,221L228,221z M233.8,211.3c0.9,0,1.8-0.6,2.8-1.7c1-1.1,1.5-2.5,1.5-4
				s-0.5-2.6-1.5-3.4c-1-0.8-2.3-1.2-4-1.2c-0.9,0-1.9,0-3.1,0.1v10C231,211.3,232.4,211.3,233.8,211.3z"/>
			<path d="M247.3,221v-21h9.8v1.2h-8.3v7.7h7.6v1.2h-7.6v9.6h8.7v1.2h-10.2V221z"/>
			<path d="M264.2,213.7l-3,7.3h-1.5l8.8-21.2h0.8l8.9,21.2h-1.6l-3-7.3H264.2z M268.8,202.2c0,0-0.1,0.1-0.1,0.4
				c-0.3,0.8-0.5,1.6-0.8,2.1l-3.2,7.8h8.4l-3.2-7.8C269.2,203.2,268.8,202.4,268.8,202.2z"/>
			<path d="M282.5,200c1.5-0.1,3.1-0.2,4.7-0.2s3,0.4,4.1,1.2c1.2,0.8,1.7,1.9,1.7,3.4c0,1.1-0.3,2.2-0.9,3.1s-1.4,1.7-2.2,2.2
				c1.4,0.4,2.6,1.2,3.5,2.2c0.9,1.1,1.4,2.2,1.4,3.6c0,1.8-0.6,3.2-1.7,4.2c-1.2,1-2.8,1.4-4.8,1.4s-4-0.1-5.8-0.2L282.5,200
				L282.5,200z M291.7,204.4c0-1.1-0.4-1.9-1.3-2.5s-1.9-0.9-3-0.9s-2.2,0-3.4,0.1v8c0.3,0,0.7,0,1.4,0s1.7,0.1,3.1,0.2
				c0.9-0.5,1.6-1.1,2.3-2C291.4,206.4,291.7,205.5,291.7,204.4z M292,218.7c0.9-0.8,1.4-1.8,1.4-3s-0.4-2.3-1.3-3.2
				s-2.1-1.5-3.7-1.9c-0.7-0.2-1.6-0.2-2.5-0.2c-1,0-1.6,0-2,0v9.4c0.9,0.1,2.4,0.1,4.6,0.1C289.9,219.9,291.1,219.5,292,218.7z"/>
			<path d="M301,221v-21h1.4v21H301z"/>
			<path d="M310.2,221v-21h1.4v19.7h9.7v1.3H310.2z"/>
			<path d="M325.8,221v-21h1.4v21H325.8z"/>
			<path d="M338.9,201.2h-7.1V200h15.6v1.2h-7.1V221h-1.4V201.2z"/>
			<path d="M350.8,213.7l-3,7.3h-1.5l8.8-21.2h0.8l8.9,21.2h-1.6l-3-7.3H350.8z M355.4,202.2c0,0-0.1,0.1-0.1,0.4
				c-0.3,0.8-0.5,1.6-0.8,2.1l-3.2,7.8h8.4l-3.2-7.8C355.8,203.2,355.4,202.4,355.4,202.2z"/>
			<path d="M378.1,225.4c0.4,0.5,0.8,0.7,1.4,0.7c0.5,0,0.9-0.1,1.2-0.4c0.3-0.3,0.4-0.6,0.4-1.1s-0.1-0.8-0.4-1.1s-0.6-0.4-0.9-0.4
				s-0.6,0-0.9,0.1l-0.9-0.4l0.6-1.6c-3,0-5.6-1.1-7.8-3.2s-3.2-4.6-3.2-7.7s1-5.6,2.9-7.7s4.4-3.1,7.4-3.1c2.4,0,4.7,0.4,7.1,1.2
				l-0.4,1.2c-2.4-0.7-4.6-1.1-6.8-1.1c-2.6,0-4.7,0.9-6.3,2.8c-1.6,1.8-2.4,4.1-2.4,6.8s0.9,4.9,2.8,6.8s4.2,2.8,6.8,2.8
				c2.3,0,4.3-0.4,6-1.1l0.4,1c-1.3,0.7-3.1,1.2-5.4,1.3l-0.3,0.9c0.1,0,0.3,0,0.4,0c0.6,0,1.2,0.2,1.6,0.7c0.5,0.4,0.7,1,0.7,1.7
				s-0.3,1.3-0.8,1.8s-1.2,0.7-2,0.7s-1.5-0.4-2-1.1L378.1,225.4z"/>
			<path d="M391.9,213.7l-3,7.3h-1.5l8.8-21.2h0.8l8.9,21.2h-1.6l-3-7.3H391.9z M394.1,196.9c-0.7,0-1.5,0.6-2.2,1.8l-0.8-0.5
				c0.3-0.4,0.5-0.8,0.7-1.1s0.5-0.6,1-0.9c0.4-0.3,0.8-0.5,1.1-0.5s0.6,0,0.8,0c0.2,0,0.4,0.1,0.6,0.2c0.2,0.1,0.4,0.2,0.4,0.2
				s0.3,0.1,0.5,0.3c0.3,0.1,0.4,0.2,0.5,0.2c0.9,0.5,1.6,0.8,2,0.8c0.7,0,1.5-0.6,2.2-1.8l0.8,0.5c-0.3,0.4-0.5,0.8-0.7,1.1
				s-0.5,0.6-1,0.9c-0.4,0.3-0.8,0.5-1.1,0.5c-0.3,0-0.6,0-0.8,0s-0.4-0.1-0.6-0.2c-0.2-0.1-0.4-0.2-0.4-0.2c-0.1,0-0.3-0.1-0.5-0.3
				c-0.3-0.1-0.4-0.2-0.5-0.2C395.2,197.2,394.5,196.9,394.1,196.9z M396.5,202.2c0,0-0.1,0.1-0.1,0.4c-0.3,0.8-0.5,1.6-0.8,2.1
				l-3.2,7.8h8.4l-3.2-7.8C396.9,203.2,396.5,202.4,396.5,202.2z"/>
			<path d="M411.6,218.2c-1.9-2.1-2.9-4.7-2.9-7.7s1-5.6,2.9-7.7c2-2.1,4.4-3.1,7.4-3.1s5.4,1,7.4,3.1s2.9,4.7,2.9,7.7
				s-1,5.6-2.9,7.7c-2,2.1-4.4,3.1-7.4,3.1C416.1,221.3,413.6,220.3,411.6,218.2z M412.7,203.7c-1.6,1.8-2.4,4.1-2.4,6.8
				s0.8,5,2.5,6.8c1.6,1.8,3.8,2.8,6.3,2.8c2.6,0,4.7-0.9,6.3-2.8c1.6-1.8,2.5-4.1,2.5-6.8s-0.8-5-2.5-6.8c-1.6-1.8-3.8-2.7-6.4-2.7
				C416.4,200.9,414.3,201.8,412.7,203.7z"/>
			<path d="M448.2,218.2c-1.9-2.1-2.9-4.7-2.9-7.7s1-5.6,2.9-7.7c2-2.1,4.4-3.1,7.4-3.1s5.4,1,7.4,3.1s2.9,4.7,2.9,7.7
				s-1,5.6-2.9,7.7c-2,2.1-4.4,3.1-7.4,3.1S450.1,220.3,448.2,218.2z M449.2,203.7c-1.6,1.8-2.4,4.1-2.4,6.8s0.8,5,2.5,6.8
				c1.6,1.8,3.8,2.8,6.3,2.8c2.6,0,4.7-0.9,6.3-2.8c1.6-1.8,2.5-4.1,2.5-6.8s-0.8-5-2.5-6.8c-1.6-1.8-3.8-2.7-6.4-2.7
				C453,200.9,450.8,201.8,449.2,203.7z"/>
			<path d="M472.4,221v-20.9c1.9-0.1,3.4-0.2,4.7-0.2c2,0,3.6,0.5,4.9,1.5s1.9,2.5,1.9,4.4c0,1.3-0.4,2.5-1.1,3.6s-1.6,2-2.5,2.6
				c0.7,1,1.6,2.2,2.7,3.6c1.1,1.4,1.8,2.2,2.1,2.6c1.2,1.3,2.5,2,4.1,2.2v0.9c-1.2,0-2.2-0.2-2.9-0.5s-1.5-0.9-2.1-1.6
				c-0.7-0.7-2.4-2.9-5-6.6c-1.9,0-3.7-0.1-5.2-0.2v8.6L472.4,221L472.4,221z M478.2,211.3c0.9,0,1.8-0.6,2.8-1.7
				c1-1.1,1.5-2.5,1.5-4s-0.5-2.6-1.5-3.4c-1-0.8-2.3-1.2-4-1.2c-0.9,0-1.9,0-3.1,0.1v10C475.4,211.3,476.9,211.3,478.2,211.3z"/>
			<path d="M492.9,213.7l-3,7.3h-1.5l8.8-21.2h0.8l8.9,21.2h-1.6l-3-7.3H492.9z M497.5,202.2c0,0-0.1,0.1-0.1,0.4
				c-0.3,0.8-0.5,1.6-0.8,2.1l-3.2,7.8h8.4l-3.2-7.8C497.9,203.2,497.5,202.4,497.5,202.2z"/>
			<path d="M511.3,221v-21h1.4v19.7h9.7v1.3H511.3z"/>
		</g>
		<g>
			<g>
				<path class="st2" d="M121.1,23.1c-2.4,0-4.9,1.8-4.9,5.2v87.6v3.1h3.1h3.6h3.1v-3.1V28.2C126.1,25.2,124,23.1,121.1,23.1z"/>
			</g>
			<g>
				<path class="st2" d="M210.9,48.4c-0.8-3.8-2.2-7.3-4.2-10.5c-2.9-4.7-6.8-8.4-11.5-11.1c-4.8-2.7-9.9-4-15.4-4
					c-5.6,0-11,1.4-15.9,4.1c-2.6,1.5-5,3.2-7,5.2v-3.9c0-3.4-2.5-5.2-4.9-5.2c-2.9,0-5,2.2-5,5.2v87.6v3.1h3.1h3.6h3.1v-3.1V65.6
					c0-5.7,0.1-9.9,0.4-12.2c0.3-2.2,0.8-4.5,1.6-6.7c1.6-4.2,4.4-7.6,8.1-10.1c3.8-2.5,8-3.8,12.7-3.8c4.3,0,8.3,1.2,12,3.5
					c3.6,2.3,6.3,5.5,8.1,9.3c0.9,2.1,1.5,4.4,1.8,6.9c0.3,2.7,0.5,7.2,0.5,13.2v50.2v3.1h3.1h3.6h3.1v-3.1V63.1
					C212,56.9,211.6,52,210.9,48.4z"/>
			</g>
			<g>
				<g>
					<path class="st2" d="M478,70.1c0-5.3-1-10.7-3.1-16.1c-3.6-9.4-9.6-17-17.7-22.6c-8.2-5.6-17.4-8.5-27.3-8.5
						c-12.2,0-23.1,4.2-32.2,12.4c-5.7,5.2-10,11.4-12.8,18.7c-2.1,5.4-3.1,10.8-3.1,16.1c0,0.3,0,0.6,0,0.9s0,0.7,0,1.1
						c0,6.3,1.4,12.6,4.3,18.9c3.9,8.5,9.9,15.4,17.8,20.5s16.7,7.7,26.1,7.7c8.6,0,16.7-2.2,24.1-6.4c7.4-4.3,13.3-10.2,17.6-17.6
						c2.6-4.6,4.5-9.5,5.5-14.6c0.6-3.1,0.9-6,0.9-8.5c0-0.4,0-0.7,0-1C478,70.8,478,70.5,478,70.1z M463.1,51.9
						c3.2,5.4,4.9,11.4,5,17.8c0,0.5,0,1,0,1.4c0,0.3,0,0.7,0,1.2c0,4.7-1.1,9.6-3.4,14.5c-3.1,6.7-7.8,12.2-14,16.3
						s-13,6.2-20.1,6.2c-8.7,0-16.5-2.5-23.1-7.3l0,0l0,0c-5.1-3.6-9.1-8.3-11.8-14c-2.6-5.1-3.9-10.4-3.9-15.7c0-0.5,0-1,0-1.5
						c0-0.3,0-0.7,0-1.1c0.1-5,1.3-10,3.5-14.7c2.2-4.8,5.3-8.9,9.2-12.4c7.3-6.6,15.6-9.9,24.9-9.9c7.3,0,14,1.7,19.8,5.1
						C454.8,41.2,459.5,45.9,463.1,51.9z"/>
				</g>
				<g>
					<path class="st3" d="M519.9,61.5l-6.3-6.2l-2.5-2.5l-2.2,2.8c-0.2,0.2-17.5,21.8-38.1,21.8h-0.4C449.9,77,433,55.8,432.8,55.6
						l-2.2-2.8l-2.5,2.5l-6.3,6.2l-2.4,2.4l2.6,2.2c1.1,0.9,26.6,22.1,48.8,22.1h1.6v-0.1c21.8-1.1,46-21.1,47-22l2.6-2.2
						L519.9,61.5z"/>
				</g>
			</g>
			<g>
				<circle class="st2" cx="121.1" cy="9.6" r="7.4"/>
			</g>
			<g>
				<path class="st2" d="M90.4,84.1l-1.6,3.6c-8.7,19.1-26,20.9-29.5,21c-0.1,0-0.2,0-0.3,0s-0.1,0-0.2,0c-5.3,0-10.3-1.1-15.1-3.1
					c-1.3-0.6-2.6-1.2-3.9-1.9c-5.7-3.3-10.3-8-13.6-13.7s-5-12.1-5-18.8c0-11.2,4.2-20.7,12.5-28.2c7.1-6.4,15.5-9.6,24.9-9.6
					c5.1,0,10.2,1.1,15.3,3.3c5,2.2,9,4.9,11.9,8.2c1.1,1.4,2.7,2.2,4.3,2.2c3.1,0,5.3-2.2,5.3-5.3c0-2.5-1.6-4.7-6.3-8.3
					c-3.3-2.6-6.6-4.6-9.8-6c-6.7-3.1-13.7-4.7-20.9-4.7c-8.2,0-16.1,2.2-23.5,6.4c-7.5,4.3-13.4,10.3-17.7,17.7
					c-4.3,7.5-6.5,15.7-6.5,24.2c0,14.1,5.3,26.2,15.9,35.8c6.4,5.8,13.8,9.6,22.1,11.3c3.3,0.7,6.7,1.1,10.3,1.1l0,0l0,0
					c8.1,0,15.5-1.8,22.1-5.2c13.4-6.7,20.4-17.2,20.7-17.7l0.4-0.6L90.4,84.1z"/>
			</g>
			<g>
				<path class="st2" d="M373.2,17c-0.8,0.2-14,4.1-26.2,20.9l-0.1,0.1c-0.1,0.1-0.1,0.2-0.2,0.3V27.9c0-3.4-2.5-5.2-4.9-5.2
					c-2.9,0-5,2.2-5,5.2v87.3c0,0.4,0,3.7,0,3.7h10c0,0,0-3.3,0-3.7v-41c0-2.7,0.1-5.1,0.2-7.4c0.3-4.7,0.9-8.6,1.8-11.5
					c0.4-1.2,0.8-2.4,1.4-3.7c1.7-3.5,13.6-22.2,34.7-23L373.2,17z"/>
			</g>
			<g>
				<path class="st2" d="M309.7,46.9c-4.3-7.4-10.2-13.3-17.6-17.6s-15.5-6.4-24.1-6.4s-16.7,2.2-24.1,6.4c-2.7,1.5-5.2,3.3-7.5,5.3
					c-0.8,0.7-1.5,1.4-2.3,2.1l-0.2,0.2l-0.9,0.9v1.3v3.1v2.2v42c-0.4-0.8-0.7-1.6-1.1-2.4c-1.2-2.8-1.5-5.5-1.8-6.9l-11.6,11.6
					c4.3,6.2,8.9,11.6,14.4,16.4v14.4v4.8v21.2c0,0.2,0,0.3,0,0.4v2.9h3.1h3.6h3.1v-2.9c0-0.1,0-0.2,0-0.4v-20.8v-3.1V112
					c8.2,4.8,15.8,7.1,25.5,7.1c1,0,5.8-0.4,5.8-0.4l0,0l0,0l0,0c6.3-0.8,12.2-2.8,17.8-6c7.4-4.3,13.3-10.2,17.6-17.6
					c4.3-7.4,6.4-15.5,6.4-24.1C316.1,62.4,314,54.3,309.7,46.9z M301.1,90c-3.4,5.9-8.1,10.6-14,14c-5.2,3-10.7,4.7-16.6,5
					c0,0-11.5,1-20.6-4.5c-2.3-1.4-4.6-2.9-6.9-4.9V44.3v-1.7V42c1.8-1.6,3.8-3,5.9-4.2c5.9-3.4,12.3-5.1,19.1-5.1
					c9.8,0,18.3,3.3,25.5,9.8C302,50,306.3,59.6,306.3,71C306.3,77.8,304.5,84.2,301.1,90z"/>
			</g>
		</g>
	</g>
</g>
<g id="Camada_2">
	<g>
		<g>
			<path class="st4" d="M143.8,187.5c-0.9,0.4-2.6,0.9-4.7,0.9c-5.1,0-8.9-3.2-8.9-9.1c0-5.6,3.8-9.4,9.4-9.4c2.2,0,3.7,0.5,4.3,0.8
				l-0.6,1.9c-0.9-0.4-2.1-0.7-3.6-0.7c-4.2,0-7,2.7-7,7.4c0,4.4,2.5,7.2,6.9,7.2c1.4,0,2.9-0.3,3.8-0.7L143.8,187.5z"/>
			<path class="st4" d="M146.7,170.1h2.3v16h7.7v1.9h-10V170.1z"/>
			<path class="st4" d="M164.3,166l-3.4,3.1H159l2.5-3.1H164.3z M161.6,170.1v18h-2.3v-18H161.6z"/>
			<path class="st4" d="M165.6,188.1v-18h2.5l5.8,9.1c1.3,2.1,2.4,4,3.2,5.8l0.1,0c-0.2-2.4-0.3-4.6-0.3-7.4v-7.5h2.2v18h-2.3
				l-5.7-9.1c-1.3-2-2.5-4.1-3.4-6l-0.1,0c0.1,2.3,0.2,4.4,0.2,7.4v7.7H165.6z"/>
			<path class="st4" d="M185.5,170.1v18h-2.3v-18H185.5z"/>
			<path class="st4" d="M202.1,187.5c-0.9,0.4-2.6,0.9-4.7,0.9c-5.1,0-8.9-3.2-8.9-9.1c0-5.6,3.8-9.4,9.4-9.4c2.2,0,3.7,0.5,4.3,0.8
				l-0.6,1.9c-0.9-0.4-2.1-0.7-3.6-0.7c-4.2,0-7,2.7-7,7.4c0,4.4,2.5,7.2,6.9,7.2c1.4,0,2.9-0.3,3.8-0.7L202.1,187.5z"/>
			<path class="st4" d="M208,182.4l-1.9,5.7h-2.4l6.1-18h2.8l6.1,18h-2.5l-1.9-5.7H208z M213.9,180.6l-1.8-5.2
				c-0.4-1.2-0.7-2.2-0.9-3.3h-0.1c-0.3,1.1-0.6,2.2-0.9,3.3l-1.8,5.2H213.9z"/>
			<path class="st4" d="M229.4,170.1v18h-2.3v-18H229.4z"/>
			<path class="st4" d="M233.5,188.1v-18h2.5l5.8,9.1c1.3,2.1,2.4,4,3.2,5.8l0.1,0c-0.2-2.4-0.3-4.6-0.3-7.4v-7.5h2.2v18h-2.3
				l-5.7-9.1c-1.3-2-2.5-4.1-3.4-6l-0.1,0c0.1,2.3,0.2,4.4,0.2,7.4v7.7H233.5z"/>
			<path class="st4" d="M254.4,172.1H249v-2h13.3v2h-5.5v16h-2.3V172.1z"/>
			<path class="st4" d="M273.6,179.7h-7v6.5h7.8v1.9h-10.1v-18h9.7v1.9h-7.4v5.7h7V179.7z"/>
			<path class="st4" d="M291.1,187.3c-1,0.4-3.1,1-5.5,1c-2.7,0-5-0.7-6.7-2.4c-1.5-1.5-2.5-3.9-2.5-6.7c0-5.4,3.7-9.3,9.7-9.3
				c2.1,0,3.7,0.5,4.5,0.8l-0.6,1.9c-1-0.4-2.2-0.8-4-0.8c-4.4,0-7.2,2.7-7.2,7.2c0,4.6,2.7,7.3,6.9,7.3c1.5,0,2.6-0.2,3.1-0.5v-5.4
				h-3.7v-1.9h5.9V187.3z"/>
			<path class="st4" d="M294.6,170.4c1.2-0.2,2.9-0.4,4.5-0.4c2.5,0,4.1,0.5,5.2,1.5c0.9,0.8,1.4,2,1.4,3.4c0,2.4-1.5,3.9-3.4,4.6
				v0.1c1.4,0.5,2.2,1.8,2.6,3.6c0.6,2.5,1,4.2,1.4,4.9h-2.4c-0.3-0.5-0.7-2.1-1.2-4.3c-0.5-2.5-1.5-3.4-3.6-3.5h-2.2v7.8h-2.3
				V170.4z M296.9,178.6h2.4c2.5,0,4.1-1.4,4.1-3.4c0-2.3-1.7-3.3-4.1-3.4c-1.1,0-1.9,0.1-2.3,0.2V178.6z"/>
			<path class="st4" d="M312,182.4l-1.9,5.7h-2.4l6.1-18h2.8l6.1,18h-2.5l-1.9-5.7H312z M317.9,180.6l-1.8-5.2
				c-0.4-1.2-0.7-2.2-0.9-3.3h-0.1c-0.3,1.1-0.6,2.2-0.9,3.3l-1.8,5.2H317.9z"/>
			<path class="st4" d="M325.4,170.4c1.4-0.2,3.1-0.4,4.9-0.4c3.3,0,5.7,0.8,7.3,2.2c1.6,1.5,2.5,3.5,2.5,6.5c0,2.9-0.9,5.3-2.6,7
				c-1.7,1.7-4.5,2.6-7.9,2.6c-1.7,0-3-0.1-4.2-0.2V170.4z M327.7,186.3c0.6,0.1,1.4,0.1,2.3,0.1c5,0,7.7-2.8,7.7-7.6
				c0-4.2-2.4-6.9-7.3-6.9c-1.2,0-2.1,0.1-2.7,0.2V186.3z"/>
			<path class="st4" d="M345.7,182.4l-1.9,5.7h-2.4l6.1-18h2.8l6.1,18H354l-1.9-5.7H345.7z M351.6,180.6l-1.8-5.2
				c-0.4-1.2-0.7-2.2-0.9-3.3h-0.1c-0.3,1.1-0.6,2.2-0.9,3.3l-1.8,5.2H351.6z"/>
			<path class="st4" d="M364.8,170.4c1.4-0.2,3.1-0.4,4.9-0.4c3.3,0,5.7,0.8,7.3,2.2c1.6,1.5,2.5,3.5,2.5,6.5c0,2.9-0.9,5.3-2.6,7
				c-1.7,1.7-4.5,2.6-7.9,2.6c-1.7,0-3-0.1-4.2-0.2V170.4z M367.1,186.3c0.6,0.1,1.4,0.1,2.3,0.1c5,0,7.7-2.8,7.7-7.6
				c0-4.2-2.4-6.9-7.3-6.9c-1.2,0-2.1,0.1-2.7,0.2V186.3z"/>
			<path class="st4" d="M391.8,179.7h-7v6.5h7.8v1.9h-10.1v-18h9.7v1.9h-7.4v5.7h7V179.7z"/>
			<path class="st4" d="M71.4,202.3c1.1-0.2,2.6-0.3,4.5-0.3c2.3,0,4,0.5,5,1.5c1,0.9,1.6,2.2,1.6,3.8c0,1.6-0.5,2.9-1.4,3.8
				c-1.2,1.3-3.2,2-5.5,2c-0.7,0-1.3,0-1.9-0.2v7.2h-2.3V202.3z M73.7,211c0.5,0.1,1.1,0.2,1.9,0.2c2.8,0,4.5-1.4,4.5-3.8
				c0-2.4-1.7-3.5-4.2-3.5c-1,0-1.8,0.1-2.2,0.2V211z"/>
			<path class="st4" d="M85.6,202.4c1.2-0.2,2.9-0.4,4.5-0.4c2.5,0,4.1,0.5,5.2,1.5c0.9,0.8,1.4,2,1.4,3.4c0,2.4-1.5,3.9-3.4,4.6
				v0.1c1.4,0.5,2.2,1.8,2.6,3.6c0.6,2.5,1,4.2,1.4,4.9h-2.4c-0.3-0.5-0.7-2.1-1.2-4.3c-0.5-2.5-1.5-3.4-3.6-3.5h-2.2v7.8h-2.3
				V202.4z M87.9,210.6h2.4c2.5,0,4.1-1.4,4.1-3.4c0-2.3-1.7-3.3-4.1-3.4c-1.1,0-1.9,0.1-2.3,0.2V210.6z"/>
			<path class="st4" d="M109.2,211.7h-7v6.5h7.8v1.9H99.9v-18h9.7v1.9h-7.4v5.7h7V211.7z"/>
			<path class="st4" d="M117.2,220.1l-5.9-18h2.5l2.8,8.9c0.8,2.4,1.4,4.6,1.9,6.7h0.1c0.5-2.1,1.3-4.3,2.1-6.7l3-8.9h2.5l-6.4,18
				H117.2z"/>
			<path class="st4" d="M137.5,211.7h-7v6.5h7.8v1.9h-10.1v-18h9.7v1.9h-7.4v5.7h7V211.7z"/>
			<path class="st4" d="M141.3,220.1v-18h2.5l5.8,9.1c1.3,2.1,2.4,4,3.2,5.8l0.1,0c-0.2-2.4-0.3-4.6-0.3-7.4v-7.5h2.2v18h-2.3
				l-5.7-9.1c-1.3-2-2.5-4.1-3.4-6l-0.1,0c0.1,2.3,0.2,4.4,0.2,7.4v7.7H141.3z"/>
			<path class="st4" d="M171.4,219.5c-0.9,0.4-2.5,0.9-4.7,0.9l-0.6,1.1c1,0.2,1.9,0.9,1.9,2c0,1.5-1.4,2.2-2.7,2.2
				c-0.7,0-1.4-0.2-1.9-0.5l0.4-1.2c0.4,0.2,0.9,0.3,1.5,0.3c0.6,0,1.1-0.2,1.1-0.8c0-0.7-0.8-1-2.1-1.1l1.1-2.1
				c-4.4-0.5-7.5-3.7-7.5-9c0-5.6,3.8-9.4,9.4-9.4c2.2,0,3.7,0.5,4.3,0.8l-0.6,1.9c-0.9-0.4-2.1-0.7-3.6-0.7c-4.2,0-7,2.7-7,7.4
				c0,4.4,2.5,7.2,6.9,7.2c1.4,0,2.9-0.3,3.8-0.7L171.4,219.5z"/>
			<path class="st4" d="M177.3,214.4l-1.9,5.7H173l6.1-18h2.8l6.1,18h-2.5l-1.9-5.7H177.3z M177.3,201c0-1.6,0.7-2.7,1.8-2.7
				c0.6,0,1,0.2,1.6,0.5c0.4,0.2,0.9,0.5,1.3,0.5c0.4,0,0.7-0.2,0.7-1h1.3c0,1.7-0.6,2.6-1.8,2.6c-0.6,0-1-0.2-1.6-0.5
				c-0.5-0.3-0.9-0.5-1.3-0.5c-0.4,0-0.6,0.5-0.7,1.2H177.3z M183.2,212.6l-1.8-5.2c-0.4-1.2-0.7-2.2-0.9-3.3h-0.1
				c-0.3,1.1-0.6,2.2-0.9,3.3l-1.8,5.2H183.2z"/>
			<path class="st4" d="M205.7,210.9c0,6.2-3.8,9.5-8.3,9.5c-4.7,0-8.1-3.7-8.1-9.1c0-5.7,3.5-9.4,8.3-9.4
				C202.5,201.8,205.7,205.6,205.7,210.9z M191.7,211.2c0,3.8,2.1,7.3,5.7,7.3c3.7,0,5.8-3.4,5.8-7.5c0-3.6-1.9-7.3-5.7-7.3
				C193.6,203.7,191.7,207.3,191.7,211.2z"/>
			<path class="st4" d="M223.6,211.7h-7v6.5h7.8v1.9h-10.1v-18h9.7v1.9h-7.4v5.7h7V211.7z"/>
			<path class="st4" d="M233.1,202.4c1.2-0.2,2.9-0.4,4.5-0.4c2.5,0,4.1,0.5,5.2,1.5c0.9,0.8,1.4,2,1.4,3.4c0,2.4-1.5,3.9-3.4,4.6
				v0.1c1.4,0.5,2.2,1.8,2.6,3.6c0.6,2.5,1,4.2,1.4,4.9h-2.4c-0.3-0.5-0.7-2.1-1.2-4.3c-0.5-2.5-1.5-3.4-3.6-3.5h-2.2v7.8h-2.3
				V202.4z M235.4,210.6h2.4c2.5,0,4.1-1.4,4.1-3.4c0-2.3-1.7-3.3-4.1-3.4c-1.1,0-1.9,0.1-2.3,0.2V210.6z"/>
			<path class="st4" d="M256.8,211.7h-7v6.5h7.8v1.9h-10.1v-18h9.7v1.9h-7.4v5.7h7V211.7z"/>
			<path class="st4" d="M263.5,214.4l-1.9,5.7h-2.4l6.1-18h2.8l6.1,18h-2.5l-1.9-5.7H263.5z M269.4,212.6l-1.8-5.2
				c-0.4-1.2-0.7-2.2-0.9-3.3h-0.1c-0.3,1.1-0.6,2.2-0.9,3.3l-1.8,5.2H269.4z"/>
			<path class="st4" d="M276.9,202.4c1-0.2,2.6-0.4,4.2-0.4c2.3,0,3.8,0.4,4.9,1.3c0.9,0.7,1.5,1.8,1.5,3.2c0,1.7-1.1,3.3-3,3.9v0.1
				c1.7,0.4,3.7,1.8,3.7,4.5c0,1.5-0.6,2.7-1.5,3.6c-1.3,1.1-3.3,1.7-6.2,1.7c-1.6,0-2.8-0.1-3.6-0.2V202.4z M279.2,209.7h2.1
				c2.5,0,3.9-1.3,3.9-3c0-2.1-1.6-2.9-3.9-2.9c-1.1,0-1.7,0.1-2.1,0.2V209.7z M279.2,218.3c0.5,0.1,1.1,0.1,1.9,0.1
				c2.4,0,4.6-0.9,4.6-3.5c0-2.5-2.1-3.5-4.6-3.5h-1.9V218.3z"/>
			<path class="st4" d="M293.7,202.1v18h-2.3v-18H293.7z"/>
			<path class="st4" d="M297.7,202.1h2.3v16h7.7v1.9h-10V202.1z"/>
			<path class="st4" d="M312.6,202.1v18h-2.3v-18H312.6z"/>
			<path class="st4" d="M320.1,204.1h-5.5v-2h13.3v2h-5.5v16h-2.3V204.1z"/>
			<path class="st4" d="M330.8,214.4l-1.9,5.7h-2.4l6.1-18h2.8l6.1,18h-2.5l-1.9-5.7H330.8z M336.7,212.6l-1.8-5.2
				c-0.4-1.2-0.7-2.2-0.9-3.3H334c-0.3,1.1-0.6,2.2-0.9,3.3l-1.8,5.2H336.7z"/>
			<path class="st4" d="M356.4,219.5c-0.9,0.4-2.5,0.9-4.7,0.9l-0.6,1.1c1,0.2,1.9,0.9,1.9,2c0,1.5-1.4,2.2-2.7,2.2
				c-0.7,0-1.4-0.2-1.9-0.5l0.4-1.2c0.4,0.2,0.9,0.3,1.5,0.3c0.6,0,1.1-0.2,1.1-0.8c0-0.7-0.8-1-2.1-1.1l1.1-2.1
				c-4.4-0.5-7.5-3.7-7.5-9c0-5.6,3.8-9.4,9.4-9.4c2.2,0,3.7,0.5,4.3,0.8l-0.6,1.9c-0.9-0.4-2.1-0.7-3.6-0.7c-4.2,0-7,2.7-7,7.4
				c0,4.4,2.5,7.2,6.9,7.2c1.4,0,2.9-0.3,3.8-0.7L356.4,219.5z"/>
			<path class="st4" d="M362.3,214.4l-1.9,5.7h-2.4l6.1-18h2.8l6.1,18h-2.5l-1.9-5.7H362.3z M362.3,201c0-1.6,0.7-2.7,1.8-2.7
				c0.6,0,1,0.2,1.6,0.5c0.4,0.2,0.9,0.5,1.3,0.5c0.4,0,0.7-0.2,0.7-1h1.3c0,1.7-0.6,2.6-1.8,2.6c-0.6,0-1-0.2-1.6-0.5
				c-0.5-0.3-0.9-0.5-1.3-0.5c-0.4,0-0.6,0.5-0.7,1.2H362.3z M368.2,212.6l-1.8-5.2c-0.4-1.2-0.7-2.2-0.9-3.3h-0.1
				c-0.3,1.1-0.6,2.2-0.9,3.3l-1.8,5.2H368.2z"/>
			<path class="st4" d="M390.7,210.9c0,6.2-3.8,9.5-8.3,9.5c-4.7,0-8.1-3.7-8.1-9.1c0-5.7,3.5-9.4,8.3-9.4
				C387.5,201.8,390.7,205.6,390.7,210.9z M376.8,211.2c0,3.8,2.1,7.3,5.7,7.3c3.7,0,5.8-3.4,5.8-7.5c0-3.6-1.9-7.3-5.7-7.3
				C378.7,203.7,376.8,207.3,376.8,211.2z"/>
			<path class="st4" d="M414.7,210.9c0,6.2-3.8,9.5-8.3,9.5c-4.7,0-8.1-3.7-8.1-9.1c0-5.7,3.5-9.4,8.3-9.4
				C411.6,201.8,414.7,205.6,414.7,210.9z M400.8,211.2c0,3.8,2.1,7.3,5.7,7.3c3.7,0,5.8-3.4,5.8-7.5c0-3.6-1.9-7.3-5.7-7.3
				C402.7,203.7,400.8,207.3,400.8,211.2z"/>
			<path class="st4" d="M417.7,202.4c1.2-0.2,2.9-0.4,4.5-0.4c2.5,0,4.1,0.5,5.2,1.5c0.9,0.8,1.4,2,1.4,3.4c0,2.4-1.5,3.9-3.4,4.6
				v0.1c1.4,0.5,2.2,1.8,2.6,3.6c0.6,2.5,1,4.2,1.4,4.9h-2.4c-0.3-0.5-0.7-2.1-1.2-4.3c-0.5-2.5-1.5-3.4-3.6-3.5h-2.2v7.8h-2.3
				V202.4z M420.1,210.6h2.4c2.5,0,4.1-1.4,4.1-3.4c0-2.3-1.7-3.3-4.1-3.4c-1.1,0-1.9,0.1-2.3,0.2V210.6z"/>
			<path class="st4" d="M435.1,214.4l-1.9,5.7h-2.4l6.1-18h2.8l6.1,18h-2.5l-1.9-5.7H435.1z M441,212.6l-1.8-5.2
				c-0.4-1.2-0.7-2.2-0.9-3.3h-0.1c-0.3,1.1-0.6,2.2-0.9,3.3l-1.8,5.2H441z"/>
			<path class="st4" d="M448.5,202.1h2.3v16h7.7v1.9h-10V202.1z"/>
		</g>
		<g>
			<g>
				<path class="st3" d="M120.3,23.5c-2.4,0-4.9,1.8-4.9,5.1v87.2v3.1h3.1h3.6h3.1v-3.1V28.6C125.2,25.6,123.1,23.5,120.3,23.5z"/>
			</g>
			<g>
				<path class="st3" d="M209.6,48.7c-0.8-3.8-2.1-7.3-4.2-10.4c-2.9-4.7-6.7-8.4-11.4-11c-4.7-2.7-9.9-4-15.3-4
					c-5.6,0-10.9,1.4-15.9,4.1c-2.6,1.5-4.9,3.2-7,5.2v-3.9c0-3.4-2.5-5.1-4.9-5.1c-2.9,0-5,2.2-5,5.1v87.2v3.1h3.1h3.6h3.1v-3.1
					v-50c0-5.7,0.1-9.8,0.4-12.2c0.3-2.2,0.8-4.5,1.6-6.7c1.6-4.2,4.3-7.6,8.1-10.1c3.7-2.5,8-3.8,12.6-3.8c4.3,0,8.3,1.2,11.9,3.5
					c3.6,2.3,6.3,5.5,8,9.3c0.9,2,1.5,4.4,1.8,6.8c0.3,2.7,0.5,7.1,0.5,13.2v50v3.1h3.1h3.6h3.1v-3.1V63.3
					C210.7,57.2,210.4,52.3,209.6,48.7z"/>
			</g>
			<g>
				<g>
					<path class="st3" d="M475.6,70.3c0-5.2-1-10.6-3.1-16c-3.6-9.3-9.5-16.9-17.6-22.5c-8.1-5.6-17.3-8.5-27.2-8.5
						c-12.2,0-23,4.1-32,12.3c-5.7,5.1-10,11.4-12.8,18.6c-2,5.4-3.1,10.8-3.1,16c0,0.3,0,0.6,0,0.9c0,0.3,0,0.7,0,1.1
						c0,6.3,1.4,12.6,4.2,18.8c3.9,8.5,9.8,15.4,17.7,20.4c7.9,5.1,16.6,7.7,26,7.7c8.5,0,16.6-2.2,23.9-6.4
						c7.3-4.3,13.2-10.2,17.5-17.5c2.6-4.5,4.5-9.4,5.5-14.5c0.6-3.1,0.9-6,0.9-8.4c0-0.4,0-0.7,0-1C475.6,71,475.6,70.7,475.6,70.3
						z M460.7,52.2c3.2,5.4,4.9,11.3,5,17.8c0,0.5,0,1,0,1.4c0,0.3,0,0.7,0,1.2c0,4.7-1.1,9.6-3.4,14.4c-3,6.7-7.7,12.1-14,16.2
						c-6.2,4.1-13,6.1-20,6.1c-8.7,0-16.4-2.4-23-7.3l0,0l0,0c-5.1-3.6-9-8.3-11.8-13.9c-2.5-5.1-3.9-10.4-3.9-15.7c0-0.5,0-1,0-1.4
						c0-0.3,0-0.7,0-1.1c0.1-5,1.3-9.9,3.4-14.6c2.2-4.7,5.3-8.9,9.2-12.4c7.2-6.5,15.6-9.8,24.8-9.8c7.3,0,13.9,1.7,19.7,5.1
						C452.4,41.5,457.1,46.2,460.7,52.2z"/>
				</g>
				<g>
					<g>
						<path class="st3" d="M517.2,61.8l-6.2-6.2l-2.5-2.5l-2.2,2.7c-0.2,0.2-17.4,21.7-37.9,21.7H468c-20.4-0.4-37.3-21.5-37.4-21.7
							l-2.2-2.7l-2.5,2.5l-6.2,6.2l-2.4,2.4l2.6,2.2c1.1,0.9,26.5,22,48.6,22h1.6l0-0.1c21.7-1.1,45.8-21,46.8-21.9l2.6-2.2
							L517.2,61.8z"/>
					</g>
				</g>
			</g>
			<g>
				<circle class="st3" cx="120.3" cy="10.1" r="7.4"/>
			</g>
			<g>
				<path class="st3" d="M89.7,84.3l-1.6,3.5c-8.7,19-25.9,20.8-29.3,20.9c-0.1,0-0.2,0-0.3,0c-0.1,0-0.1,0-0.2,0
					c-5.3,0-10.3-1-15-3.1c-1.3-0.6-2.6-1.2-3.9-1.9c-5.7-3.3-10.2-7.9-13.6-13.7c-3.3-5.7-4.9-12-4.9-18.7c0-11.1,4.2-20.6,12.4-28
					c7.1-6.4,15.4-9.6,24.8-9.6c5,0,10.2,1.1,15.3,3.3c5,2.2,9,4.9,11.8,8.1c1.1,1.4,2.6,2.2,4.3,2.2c3,0,5.2-2.2,5.2-5.3
					c0-2.5-1.6-4.7-6.3-8.2c-3.3-2.5-6.6-4.6-9.8-6c-6.6-3.1-13.6-4.7-20.8-4.7c-8.1,0-16,2.2-23.4,6.4C27,33.9,21,39.8,16.8,47.2
					c-4.3,7.5-6.5,15.6-6.5,24.1c0,14.1,5.3,26.1,15.8,35.6c6.3,5.8,13.7,9.5,22,11.3c3.3,0.7,6.7,1.1,10.2,1.1l0,0h0
					c8,0,15.4-1.8,22-5.2c13.3-6.6,20.3-17.2,20.6-17.6l0.4-0.6L89.7,84.3z"/>
			</g>
			<g>
				<path class="st3" d="M371.3,17.5c-0.8,0.2-13.9,4.1-26.1,20.8c0,0-0.1,0.1-0.1,0.1c-0.1,0.1-0.1,0.2-0.2,0.3V28.3
					c0-3.4-2.5-5.2-4.9-5.2c-2.9,0-5,2.2-5,5.2v86.9c0,0.4,0,3.7,0,3.7h9.9c0,0,0-3.3,0-3.7V74.5c0-2.6,0.1-5.1,0.2-7.3
					c0.3-4.7,0.9-8.5,1.8-11.5c0.4-1.2,0.8-2.4,1.4-3.7c1.7-3.5,13.5-22.1,34.5-22.9L371.3,17.5z"/>
			</g>
			<g>
				<path class="st3" d="M308,47.2c-4.3-7.4-10.2-13.3-17.5-17.5c-7.4-4.3-15.4-6.4-24-6.4c-8.5,0-16.6,2.2-23.9,6.4
					c-2.7,1.5-5.2,3.3-7.5,5.3c-0.8,0.7-1.5,1.3-2.3,2.1l-0.2,0.2l-0.9,0.9v1.3v3.1v2.1v41.8c-0.4-0.8-0.7-1.6-1.1-2.4
					c-1.2-2.8-1.5-5.5-1.7-6.9l-11.5,11.5c4.2,6.1,8.8,11.6,14.4,16.3v14.3v4.8v21.1c0,0.2,0,0.3,0,0.4l0,2.9l3.1,0h3.6l3.1,0l0-2.9
					c0-0.1,0-0.2,0-0.4v-20.7v-3.1V112c8.2,4.8,15.8,7.1,25.4,7.1c1,0,5.8-0.4,5.8-0.4l0,0l0,0v0c6.2-0.8,12.2-2.8,17.7-6
					c7.4-4.2,13.3-10.1,17.6-17.5c4.2-7.4,6.4-15.5,6.4-23.9C314.4,62.6,312.3,54.6,308,47.2z M299.5,90.1c-3.4,5.9-8.1,10.6-14,14
					c-5.1,3-10.7,4.6-16.5,5c0,0-11.4,1-20.6-4.4c-2.3-1.4-4.6-2.9-6.9-4.8V44.6v-1.7v-0.5c1.8-1.6,3.8-3,5.9-4.2
					c5.9-3.4,12.3-5.1,19.1-5.1c9.7,0,18.3,3.3,25.4,9.7c8.4,7.5,12.6,17.1,12.6,28.4C304.6,77.9,302.9,84.3,299.5,90.1z"/>
			</g>
		</g>
	</g>
</g>
</svg>
