<?xml version="1.0" encoding="utf-8"?>
<!-- Generator: Adobe Illustrator 21.0.0, SVG Export Plug-In . SVG Version: 6.00 Build 0)  -->
<svg version="1.1" xmlns="http://www.w3.org/2000/svg" xmlns:xlink="http://www.w3.org/1999/xlink" x="0px" y="0px"
	 viewBox="0 0 493.3 426.9" style="enable-background:new 0 0 493.3 426.9;" xml:space="preserve">
<style type="text/css">
	.st0{display:none;}
	.st1{display:inline;}
	.st2{fill:#68A767;}
	.st3{fill:#4F874D;}
	.st4{fill:#FFFFFF;}
	.st5{font-family:'Verdana-Bold';}
	.st6{font-size:56.3438px;}
	.st7{fill:#B94726;}
	.st8{fill:#90321D;}
	.st9{font-size:56.2196px;}
	.st10{fill:#E3AF35;}
	.st11{fill:#B18829;}
	.st12{fill:#698DB7;}
	.st13{fill:#476B91;}
</style>
<g id="Camada_1" class="st0">
	<g class="st1">
		<g>
			<g>
				<path class="st2" d="M337.3,183.8c-12.2-49.6-62.3-79.8-111.9-67.6c-49.6,12.2-79.8,62.3-67.6,111.9s62.3,79.8,111.9,67.6
					S349.5,233.4,337.3,183.8z M322.5,187.5c10.2,41.4-15.1,83.2-56.4,93.4c-41.4,10.2-83.2-15.1-93.4-56.4
					c-10.2-41.4,15.1-83.2,56.4-93.4C270.5,120.8,312.3,146.1,322.5,187.5z"/>
				
					<ellipse transform="matrix(0.9709 -0.2395 0.2395 0.9709 -23.9939 25.8368)" class="st2" cx="94.3" cy="111.7" rx="22.9" ry="22.9"/>
				<ellipse transform="matrix(0.9709 -0.2395 0.2395 0.9709 0.277 60.9643)" class="st2" cx="251" cy="29.3" rx="22.9" ry="22.9"/>
				
					<ellipse transform="matrix(0.9709 -0.2395 0.2395 0.9709 -16.5675 99.5905)" class="st2" cx="401.5" cy="118" rx="22.9" ry="22.9"/>
				
					<ellipse transform="matrix(0.9709 -0.2395 0.2395 0.9709 -60.3603 104.1059)" class="st2" cx="398.2" cy="300.4" rx="22.9" ry="22.9"/>
				
					<ellipse transform="matrix(0.9709 -0.2395 0.2395 0.9709 -84.5959 69.8397)" class="st2" cx="245.1" cy="383" rx="22.9" ry="22.9"/>
				
					<ellipse transform="matrix(0.9709 -0.2395 0.2395 0.9709 -67.8174 30.6548)" class="st2" cx="92.2" cy="294.4" rx="22.9" ry="22.9"/>
				<path class="st2" d="M398.2,148c-12.2-1.4-22.9-10.2-26-22.8c-1.7-6.7-0.9-13.4,1.6-19.3c-3.5-3-8-4.5-12.7-4.1l-23.6,2.2
					c-4.5-0.1-8.8-1.3-12.7-3.5l-10.3-6.2L302.1,87c-3.1-1.9-5.6-4.7-7-8l-9.4-22.2c-1.9-4.6-5.7-8-10.3-9.5
					c-4,5.5-10,9.7-17.2,11.5c-12.7,3.1-25.5-2.3-32.4-12.6c-5,1.2-9.2,4.6-11.4,9.4l-4.2,9c-3.1,5.4-4.9,10.1-4.9,10.1
					c-2.4,5.1-6.3,9.3-11.2,12.1l-9.8,5.5l-12.5,7c-3.2,1.8-6.8,2.5-10.4,2l-23.9-3c-5.3-0.7-10.4,1.2-14.1,4.8
					c0.1,0.4,0.3,0.9,0.4,1.3c4,16.2-5.9,32.6-22.1,36.6c-0.6,0.2-1.2,0.3-1.8,0.4c-0.3,0.6-0.6,1.1-0.8,1.7
					c-2.3,5.4-1.7,11.7,1.8,16.6l13.9,19.7c2.1,3,3.2,6.5,3.1,10.1l-0.2,14.4l-0.2,14.3c-0.1,3.6-1.3,7.1-3.5,10l-14.5,19.2
					c-3.6,4.8-4.4,11-2.3,16.5c0.1,0.2,0.1,0.3,0.2,0.5c11.5,1.9,21.4,10.5,24.4,22.6c1.5,6.2,1,12.5-1.1,18
					c3.5,3.5,8.5,5.3,13.6,4.9l24-2.2c3.6-0.3,7.2,0.5,10.4,2.4l12.3,7.4l12.3,7.4c3.1,1.9,5.6,4.7,7,8l9.4,22.2
					c2.1,4.9,6.3,8.5,11.4,9.9c4-5.5,9.9-9.6,17-11.3c12.5-3.1,25,2.1,32,12c4.8-1.3,9-4.7,11.1-9.4l10.1-21.9c1.5-3.3,4-6,7.2-7.8
					l12.5-7l12.6-7c3.2-1.8,6.8-2.5,10.4-2l23.9,3c4.3,0.5,8.6-0.6,12-3c-0.3-0.9-0.6-1.9-0.9-2.8c-4-16.2,5.9-32.6,22.1-36.6
					c1.5-0.4,3-0.6,4.5-0.8c0.3-0.5,0.5-1,0.7-1.5c2.3-5.4,1.7-11.7-1.8-16.6l-13.9-19.7c-2.1-3-3.2-6.5-3.1-10.1l0.2-14.3l0.2-14.4
					c0.1-3.6,1.3-7.1,3.5-10l10.8-14.3c0.7-0.9,1.2-1.8,1.8-2.7l1.9-2.5C399.3,159.5,400.1,153.4,398.2,148z M348,181.2
					c13.7,55.5-20.2,111.5-75.7,125.2c-55.5,13.7-111.5-20.2-125.2-75.7c-13.7-55.5,20.2-111.5,75.7-125.2
					C278.3,91.8,334.3,125.7,348,181.2z"/>
			</g>
		</g>
		<path class="st3" d="M480.5,412H13.3c-4.9,0-9-4-9-9v-85.3c0-4.9,4.1-9,9-9h467.2c4.9,0,9,4.1,9,9V403
			C489.5,408,485.4,412,480.5,412z"/>
		<path class="st2" d="M480.5,421.4H13.3c-4.9,0-9-4-9-9v-85.3c0-4.9,4.1-9,9-9h467.2c4.9,0,9,4.1,9,9v85.3
			C489.5,417.4,485.4,421.4,480.5,421.4z"/>
		<text transform="matrix(1 0 0 1 46.7861 389.7178)" class="st4 st5 st6">Investidores</text>
	</g>
</g>
<g id="Camada_2" class="st0">
	<g class="st1">
		<g>
			<g>
				<path class="st7" d="M336.9,184.6c-12.2-49.4-62.2-79.6-111.6-67.5c-49.4,12.2-79.6,62.2-67.5,111.6s62.2,79.6,111.6,67.5
					S349.1,234,336.9,184.6z M322.1,188.2c10.2,41.3-15,83-56.3,93.2c-41.3,10.2-83-15-93.2-56.3c-10.2-41.3,15-83,56.3-93.2
					C270.2,121.7,311.9,146.9,322.1,188.2z"/>
				
					<ellipse transform="matrix(0.9709 -0.2395 0.2395 0.9709 -24.2055 25.9005)" class="st7" cx="94.5" cy="112.6" rx="22.8" ry="22.8"/>
				
					<ellipse transform="matrix(0.9709 -0.2395 0.2395 0.9709 1.184934e-02 60.9505)" class="st7" cx="250.8" cy="30.4" rx="22.8" ry="22.8"/>
				
					<ellipse transform="matrix(0.9709 -0.2395 0.2395 0.9709 -16.7954 99.4916)" class="st7" cx="401" cy="118.9" rx="22.8" ry="22.8"/>
				
					<ellipse transform="matrix(0.9709 -0.2395 0.2395 0.9709 -60.4917 103.997)" class="st7" cx="397.7" cy="300.9" rx="22.8" ry="22.8"/>
				
					<ellipse transform="matrix(0.9709 -0.2395 0.2395 0.9709 -84.6739 69.8063)" class="st7" cx="244.9" cy="383.3" rx="22.8" ry="22.8"/>
				
					<ellipse transform="matrix(0.9709 -0.2395 0.2395 0.9709 -67.9324 30.7079)" class="st7" cx="92.4" cy="294.9" rx="22.8" ry="22.8"/>
				<path class="st7" d="M397.7,148.9c-12.2-1.4-22.9-10.1-26-22.8c-1.6-6.7-0.9-13.4,1.6-19.2c-3.5-3-8-4.5-12.7-4.1l-23.6,2.2
					c-4.4-0.1-8.8-1.3-12.7-3.5l-10.3-6.1l-12.3-7.4c-3.1-1.9-5.5-4.7-7-8l-9.4-22.2c-1.9-4.6-5.7-8-10.3-9.5
					c-4,5.5-10,9.7-17.1,11.5c-12.7,3.1-25.5-2.3-32.3-12.5c-4.9,1.2-9.2,4.6-11.4,9.4l-4.2,9c-3.1,5.4-4.9,10.1-4.9,10.1
					c-2.4,5.1-6.3,9.3-11.2,12.1l-9.8,5.5l-12.5,7c-3.2,1.8-6.8,2.5-10.4,2l-23.9-3c-5.2-0.6-10.4,1.2-14.1,4.8
					c0.1,0.4,0.3,0.9,0.4,1.3c4,16.2-5.9,32.5-22.1,36.5c-0.6,0.2-1.2,0.3-1.8,0.4c-0.3,0.6-0.6,1.1-0.8,1.7
					c-2.3,5.4-1.7,11.7,1.8,16.6l13.9,19.6c2.1,3,3.2,6.5,3.1,10.1l-0.2,14.3l-0.2,14.3c-0.1,3.6-1.3,7.1-3.5,10l-14.5,19.2
					c-3.6,4.8-4.4,11-2.3,16.5c0.1,0.2,0.1,0.3,0.2,0.5c11.5,1.9,21.4,10.5,24.3,22.5c1.5,6.2,1,12.4-1.1,18
					c3.5,3.5,8.5,5.3,13.5,4.8l24-2.2c3.6-0.3,7.2,0.5,10.3,2.3l12.3,7.4l12.3,7.4c3.1,1.9,5.5,4.7,7,8l9.4,22.2
					c2.1,4.9,6.3,8.5,11.4,9.9c4-5.4,9.9-9.6,17-11.3c12.4-3.1,25,2.1,31.9,11.9c4.8-1.3,8.9-4.7,11.1-9.3l10.1-21.8
					c1.5-3.3,4-6,7.2-7.8l12.5-7l12.5-7c3.2-1.8,6.8-2.5,10.4-2l23.9,3c4.3,0.5,8.6-0.6,12-3c-0.3-0.9-0.6-1.9-0.9-2.8
					c-4-16.2,5.9-32.5,22.1-36.5c1.5-0.4,3-0.6,4.5-0.8c0.3-0.5,0.5-1,0.7-1.5c2.3-5.4,1.7-11.7-1.8-16.6l-13.9-19.6
					c-2.1-3-3.2-6.5-3.1-10.1l0.2-14.3l0.2-14.3c0.1-3.6,1.3-7.1,3.5-10l10.8-14.3c0.7-0.9,1.2-1.8,1.8-2.7l1.9-2.5
					C398.8,160.2,399.6,154.2,397.7,148.9z M347.6,181.9c13.7,55.4-20.2,111.3-75.5,125c-55.4,13.7-111.3-20.2-125-75.5
					c-13.7-55.4,20.2-111.3,75.5-125C278,92.8,334,126.6,347.6,181.9z"/>
			</g>
		</g>
		<path class="st8" d="M479.8,412.3H13.7c-4.9,0-9-4.1-9-9v-85.1c0-5,4-9,9-9h466.1c5,0,9,4,9,9v85.1
			C488.8,408.2,484.7,412.3,479.8,412.3z"/>
		<path class="st7" d="M479.8,421.6H13.7c-4.9,0-9-4-9-9v-85.1c0-4.9,4-9,9-9h466.1c5,0,9,4.1,9,9v85.1
			C488.8,417.6,484.7,421.6,479.8,421.6z"/>
		<text transform="matrix(1 0 0 1 41.9821 390.0068)" class="st4 st5 st9">Beneficiários</text>
	</g>
</g>
<g id="Camada_3">
	<g>
		<g>
			<g>
				<path class="st10" d="M336.8,184.7c-12.2-49.4-62.1-79.6-111.6-67.4c-49.4,12.2-79.6,62.1-67.4,111.6s62.1,79.6,111.6,67.4
					S349,234.1,336.8,184.7z M322.1,188.3c10.2,41.3-15,83-56.3,93.1c-41.3,10.2-83-15-93.1-56.3c-10.2-41.3,15-83,56.3-93.1
					C270.2,121.9,311.9,147.1,322.1,188.3z"/>
			</g>
			<g>
				
					<ellipse transform="matrix(0.9709 -0.2395 0.2395 0.9709 -24.2403 25.918)" class="st10" cx="94.5" cy="112.7" rx="22.8" ry="22.8"/>
			</g>
			<g>
				
					<ellipse transform="matrix(0.9709 -0.2395 0.2395 0.9709 -3.486387e-02 60.9508)" class="st10" cx="250.8" cy="30.6" rx="22.8" ry="22.8"/>
			</g>
			<g>
				
					<ellipse transform="matrix(0.9709 -0.2395 0.2395 0.9709 -16.8339 99.4729)" class="st10" cx="400.9" cy="119" rx="22.8" ry="22.8"/>
			</g>
			<g>
				
					<ellipse transform="matrix(0.9709 -0.2395 0.2395 0.9709 -60.5086 103.9762)" class="st10" cx="397.6" cy="301" rx="22.8" ry="22.8"/>
			</g>
			<g>
				
					<ellipse transform="matrix(0.9709 -0.2395 0.2395 0.9709 -84.6789 69.8023)" class="st10" cx="244.9" cy="383.4" rx="22.8" ry="22.8"/>
			</g>
			<g>
				
					<ellipse transform="matrix(0.9709 -0.2395 0.2395 0.9709 -67.9457 30.7231)" class="st10" cx="92.5" cy="295" rx="22.8" ry="22.8"/>
			</g>
			<g>
				<path class="st10" d="M397.6,149c-12.2-1.4-22.8-10.1-26-22.8c-1.6-6.7-0.9-13.4,1.6-19.2c-3.5-3-8-4.5-12.7-4.1l-23.6,2.2
					c-4.4-0.1-8.8-1.3-12.7-3.5L314,95.5l-12.3-7.4c-3.1-1.9-5.5-4.7-7-8l-9.4-22.1c-1.9-4.6-5.7-8-10.3-9.5
					c-4,5.5-10,9.7-17.1,11.5c-12.7,3.1-25.5-2.3-32.3-12.5c-4.9,1.2-9.2,4.6-11.4,9.4l-4.2,9c-3.1,5.3-4.9,10.1-4.9,10.1
					c-2.4,5.1-6.3,9.3-11.2,12.1l-9.8,5.5l-12.5,6.9c-3.2,1.8-6.8,2.5-10.4,2l-23.9-3c-5.2-0.6-10.4,1.2-14.1,4.8
					c0.1,0.4,0.3,0.9,0.4,1.3c4,16.2-5.9,32.5-22.1,36.5c-0.6,0.2-1.2,0.3-1.8,0.4c-0.3,0.6-0.6,1.1-0.8,1.7
					c-2.3,5.4-1.7,11.7,1.8,16.5l13.9,19.6c2.1,3,3.2,6.5,3.1,10.1l-0.2,14.3l-0.2,14.3c-0.1,3.6-1.3,7.1-3.5,10l-14.5,19.2
					c-3.6,4.8-4.4,11-2.3,16.5c0.1,0.2,0.1,0.3,0.2,0.5c11.5,1.9,21.4,10.5,24.3,22.5c1.5,6.2,1,12.4-1.1,18
					c3.5,3.5,8.5,5.3,13.5,4.8l23.9-2.2c3.6-0.3,7.2,0.5,10.3,2.3l12.3,7.4l12.3,7.4c3.1,1.9,5.5,4.7,7,8l9.4,22.1
					c2.1,4.9,6.3,8.5,11.4,9.8c4-5.4,9.9-9.6,17-11.3c12.4-3.1,24.9,2.1,31.9,11.9c4.8-1.3,8.9-4.7,11.1-9.3l10.1-21.8
					c1.5-3.3,4-6,7.2-7.8l12.5-7l12.5-7c3.2-1.8,6.8-2.5,10.4-2l23.9,3c4.3,0.5,8.6-0.6,12-3c-0.3-0.9-0.6-1.9-0.9-2.8
					c-4-16.2,5.9-32.5,22.1-36.5c1.5-0.4,3-0.6,4.5-0.8c0.3-0.5,0.5-1,0.7-1.5c2.3-5.4,1.7-11.7-1.8-16.5L380,233.2
					c-2.1-3-3.2-6.5-3.1-10.1l0.2-14.3l0.2-14.3c0.1-3.6,1.3-7.1,3.5-10l10.8-14.3c0.7-0.9,1.2-1.8,1.8-2.7l1.9-2.5
					C398.7,160.4,399.5,154.3,397.6,149z M347.5,182c13.6,55.3-20.1,111.2-75.5,124.9c-55.3,13.6-111.2-20.1-124.9-75.5
					c-13.6-55.3,20.1-111.2,75.5-124.9C278,92.9,333.9,126.7,347.5,182z"/>
			</g>
		</g>
		<g>
			<path class="st11" d="M479.6,412.3H13.8c-5,0-9-4.1-9-9v-85c0-4.9,4-9,9-9h465.9c5,0,9,4.1,9,9v85
				C488.6,408.2,484.6,412.3,479.6,412.3z"/>
		</g>
		<g>
			<path class="st10" d="M479.6,421.6H13.8c-5,0-9-4-9-9v-85c0-5,4-9,9-9h465.9c5,0,9,4,9,9v85C488.6,417.6,484.6,421.6,479.6,421.6
				z"/>
		</g>
		<g>
			<path class="st4" d="M119.5,390.8c-3,0-5.8-0.4-8.4-1.3c-2.6-0.9-4.8-2.2-6.6-4s-3.3-4-4.3-6.6c-1-2.7-1.5-5.7-1.5-9.2
				c0-3.2,0.5-6.2,1.5-8.8c1-2.6,2.4-4.9,4.2-6.8c1.8-1.8,4-3.2,6.6-4.2c2.6-1,5.5-1.5,8.6-1.5c1.7,0,3.3,0.1,4.7,0.3
				c1.4,0.2,2.7,0.4,3.8,0.8c1.2,0.3,2.3,0.7,3.3,1.2s1.9,0.8,2.6,1.2v9.9h-1.2c-0.5-0.4-1.2-1-1.9-1.6c-0.8-0.6-1.7-1.2-2.6-1.8
				c-1-0.6-2.1-1.1-3.3-1.5s-2.4-0.6-3.8-0.6c-1.5,0-2.9,0.2-4.2,0.7c-1.3,0.5-2.6,1.2-3.7,2.3c-1.1,1-2,2.4-2.6,4.1
				c-0.7,1.7-1,3.8-1,6.2c0,2.6,0.4,4.7,1.1,6.4c0.7,1.7,1.6,3.1,2.7,4.1c1.1,1,2.4,1.7,3.7,2.1c1.4,0.4,2.7,0.6,4.1,0.6
				c1.3,0,2.5-0.2,3.8-0.6c1.3-0.4,2.4-0.9,3.5-1.6c0.9-0.5,1.7-1.1,2.5-1.7s1.4-1.1,1.9-1.6h1.1v9.8c-1,0.5-2,0.9-2.9,1.3
				c-0.9,0.4-1.9,0.8-2.9,1c-1.3,0.4-2.6,0.7-3.8,0.9C123.1,390.7,121.5,390.8,119.5,390.8z"/>
			<path class="st4" d="M163.5,368.6h-0.9c-0.4-0.1-1.1-0.3-2-0.3c-0.9-0.1-1.7-0.1-2.3-0.1c-1.4,0-2.6,0.1-3.7,0.3
				c-1.1,0.2-2.2,0.5-3.5,0.9V390h-9.9v-30.8h9.9v4.5c2.2-1.9,4.1-3.1,5.7-3.7c1.6-0.6,3.1-0.9,4.4-0.9c0.3,0,0.7,0,1.2,0
				s0.8,0,1.1,0.1V368.6z"/>
			<path class="st4" d="M179.2,354.8h-10.5v-7.5h10.5V354.8z M179,390h-9.9v-30.8h9.9V390z"/>
			<path class="st4" d="M206.9,386.8c-0.5,0.4-1.2,0.9-2,1.5c-0.8,0.6-1.5,1-2.2,1.3c-1,0.4-2,0.8-3,1c-1,0.2-2.2,0.3-3.4,0.3
				c-2.9,0-5.4-0.9-7.4-2.7c-2-1.8-3-4.1-3-6.9c0-2.2,0.5-4.1,1.5-5.5c1-1.4,2.4-2.6,4.3-3.4c1.8-0.8,4.1-1.4,6.8-1.8
				c2.7-0.3,5.5-0.6,8.4-0.8v-0.2c0-1.7-0.7-2.9-2.1-3.5c-1.4-0.6-3.4-1-6.1-1c-1.6,0-3.4,0.3-5.2,0.9s-3.2,1-4,1.3h-0.9v-7.4
				c1-0.3,2.7-0.6,5.1-1c2.4-0.4,4.7-0.6,7.1-0.6c5.6,0,9.7,0.9,12.2,2.6c2.5,1.7,3.7,4.4,3.7,8.1v21h-9.8V386.8z M206.9,382v-6.4
				c-1.3,0.1-2.8,0.3-4.3,0.5c-1.6,0.2-2.7,0.4-3.5,0.7c-1,0.3-1.7,0.8-2.3,1.4c-0.5,0.6-0.8,1.4-0.8,2.3c0,0.6,0.1,1.2,0.2,1.6
				s0.4,0.8,0.8,1.1c0.4,0.4,0.9,0.6,1.5,0.8c0.6,0.2,1.5,0.3,2.7,0.3c1,0,2-0.2,3-0.6C205.3,383.1,206.2,382.6,206.9,382z"/>
			<path class="st4" d="M255.8,390h-9.9v-3.2c-1.7,1.4-3.3,2.4-4.8,3.1c-1.5,0.7-3.2,1-5.1,1c-3.7,0-6.7-1.4-9-4.3
				c-2.2-2.9-3.4-6.8-3.4-11.7c0-2.6,0.4-4.9,1.1-7c0.8-2,1.8-3.8,3.1-5.2c1.2-1.4,2.7-2.4,4.5-3.2c1.8-0.8,3.5-1.1,5.3-1.1
				c1.8,0,3.4,0.2,4.5,0.6c1.2,0.4,2.4,0.9,3.6,1.5v-13.1h9.9V390z M245.9,381.5v-15.1c-0.7-0.3-1.4-0.5-2.2-0.6
				c-0.8-0.1-1.5-0.2-2.1-0.2c-2.6,0-4.5,0.8-5.8,2.4c-1.3,1.6-1.9,3.9-1.9,6.7c0,3,0.5,5.2,1.6,6.6c1,1.4,2.7,2,5,2
				c0.9,0,1.8-0.2,2.8-0.5C244.2,382.5,245.1,382.1,245.9,381.5z"/>
			<path class="st4" d="M296.6,374.6c0,5.1-1.5,9.1-4.4,12c-3,2.9-7.1,4.4-12.4,4.4c-5.3,0-9.5-1.5-12.4-4.4c-3-2.9-4.4-6.9-4.4-12
				c0-5.1,1.5-9.1,4.5-12s7.1-4.4,12.4-4.4c5.4,0,9.5,1.5,12.5,4.4C295.1,365.6,296.6,369.6,296.6,374.6z M284.4,382.1
				c0.6-0.8,1.1-1.7,1.4-2.8c0.3-1.1,0.5-2.6,0.5-4.6c0-1.8-0.2-3.3-0.5-4.6c-0.3-1.2-0.8-2.2-1.4-2.9c-0.6-0.8-1.3-1.3-2.1-1.6
				c-0.8-0.3-1.7-0.5-2.7-0.5s-1.8,0.1-2.5,0.4c-0.7,0.3-1.5,0.8-2.1,1.5c-0.6,0.7-1.1,1.7-1.4,2.9s-0.5,2.8-0.5,4.7
				c0,1.7,0.2,3.1,0.5,4.4c0.3,1.2,0.8,2.2,1.4,3c0.6,0.7,1.3,1.2,2.1,1.6c0.8,0.3,1.7,0.5,2.8,0.5c0.9,0,1.8-0.2,2.6-0.5
				C283.2,383.3,283.9,382.8,284.4,382.1z"/>
			<path class="st4" d="M326,368.6h-0.9c-0.4-0.1-1.1-0.3-2-0.3c-0.9-0.1-1.7-0.1-2.3-0.1c-1.4,0-2.6,0.1-3.7,0.3s-2.2,0.5-3.5,0.9
				V390h-9.9v-30.8h9.9v4.5c2.2-1.9,4.1-3.1,5.7-3.7c1.6-0.6,3.1-0.9,4.4-0.9c0.3,0,0.7,0,1.2,0s0.8,0,1.1,0.1V368.6z"/>
			<path class="st4" d="M361.9,376.4h-22.6c0.1,2.4,1.1,4.3,2.8,5.5c1.7,1.3,4.2,1.9,7.5,1.9c2.1,0,4.1-0.4,6.1-1.1s3.5-1.6,4.6-2.4
				h1.1v7.9c-2.2,0.9-4.3,1.5-6.3,1.9s-4.2,0.6-6.6,0.6c-6.2,0-10.9-1.4-14.2-4.2c-3.3-2.8-4.9-6.7-4.9-11.9c0-5.1,1.6-9.1,4.7-12.1
				c3.1-3,7.4-4.5,12.8-4.5c5,0,8.8,1.3,11.3,3.8c2.5,2.5,3.8,6.2,3.8,10.9V376.4z M352.1,370.7c-0.1-2.1-0.6-3.6-1.5-4.7
				c-1-1-2.5-1.6-4.5-1.6c-1.9,0-3.5,0.5-4.7,1.5c-1.2,1-1.9,2.6-2.1,4.7H352.1z"/>
			<path class="st4" d="M395.7,380.3c0,3.2-1.4,5.7-4.3,7.7s-6.8,2.9-11.7,2.9c-2.7,0-5.2-0.3-7.5-0.8c-2.2-0.5-4-1.1-5.4-1.7v-8.1
				h0.9c0.5,0.3,1.1,0.7,1.7,1.1c0.6,0.4,1.6,0.9,2.8,1.3c1,0.4,2.2,0.8,3.5,1.1s2.7,0.5,4.2,0.5c1.9,0,3.4-0.2,4.3-0.6
				s1.4-1.1,1.4-1.9c0-0.8-0.3-1.3-0.8-1.6c-0.5-0.3-1.6-0.7-3.1-1c-0.7-0.2-1.7-0.3-3-0.5s-2.4-0.4-3.4-0.7
				c-2.8-0.7-4.9-1.9-6.2-3.4c-1.4-1.5-2-3.5-2-5.8c0-3,1.4-5.4,4.2-7.4c2.8-2,6.6-3,11.5-3c2.3,0,4.5,0.2,6.6,0.7
				c2.1,0.5,3.8,1,5,1.5v7.8h-0.9c-1.5-1-3.1-1.8-5-2.5c-1.9-0.6-3.8-0.9-5.7-0.9c-1.6,0-2.9,0.2-4,0.7c-1.1,0.4-1.6,1.1-1.6,1.9
				c0,0.7,0.2,1.3,0.7,1.7c0.5,0.4,1.7,0.8,3.5,1.2c1,0.2,2.1,0.4,3.3,0.6c1.2,0.2,2.3,0.4,3.5,0.7c2.6,0.7,4.5,1.7,5.8,3.2
				S395.7,378.1,395.7,380.3z"/>
		</g>
	</g>
</g>
<g id="Camada_4" class="st0">
	<g class="st1">
		<g>
			<g>
				<path class="st12" d="M337.2,184.6c-12.2-49.6-62.4-79.9-112-67.7c-49.6,12.2-79.9,62.4-67.7,112c12.2,49.6,62.4,79.9,112,67.7
					S349.4,234.2,337.2,184.6z M322.3,188.2c10.2,41.4-15.1,83.3-56.5,93.5c-41.4,10.2-83.3-15.1-93.5-56.5
					c-10.2-41.4,15.1-83.3,56.5-93.5C270.3,121.5,312.1,146.8,322.3,188.2z"/>
			</g>
			<g>
				
					<ellipse transform="matrix(0.9709 -0.2395 0.2395 0.9709 -24.1624 25.7557)" class="st12" cx="93.9" cy="112.3" rx="22.9" ry="22.9"/>
			</g>
			<g>
				
					<ellipse transform="matrix(0.9709 -0.2395 0.2395 0.9709 0.1384 60.9265)" class="st12" cx="250.8" cy="29.9" rx="22.9" ry="22.9"/>
			</g>
			<g>
				
					<ellipse transform="matrix(0.9709 -0.2395 0.2395 0.9709 -16.7268 99.6003)" class="st12" cx="401.5" cy="118.6" rx="22.9" ry="22.9"/>
			</g>
			<g>
				
					<ellipse transform="matrix(0.9709 -0.2395 0.2395 0.9709 -60.5736 104.1212)" class="st12" cx="398.2" cy="301.3" rx="22.9" ry="22.9"/>
			</g>
			<g>
				
					<ellipse transform="matrix(0.9709 -0.2395 0.2395 0.9709 -84.8391 69.8128)" class="st12" cx="244.9" cy="384" rx="22.9" ry="22.9"/>
			</g>
			<g>
				
					<ellipse transform="matrix(0.9709 -0.2395 0.2395 0.9709 -68.0399 30.5797)" class="st12" cx="91.8" cy="295.3" rx="22.9" ry="22.9"/>
			</g>
			<g>
				<path class="st12" d="M398.2,148.7c-12.3-1.4-22.9-10.2-26.1-22.9c-1.7-6.7-0.9-13.4,1.6-19.3c-3.5-3-8-4.5-12.8-4.1l-23.7,2.2
					c-4.5-0.1-8.8-1.3-12.7-3.5L314.2,95l-12.3-7.4c-3.1-1.9-5.6-4.7-7-8l-9.4-22.2c-1.9-4.6-5.7-8-10.3-9.6
					c-4.1,5.5-10,9.7-17.2,11.5c-12.7,3.1-25.6-2.3-32.4-12.6c-5,1.2-9.2,4.6-11.4,9.4l-4.2,9c-3.1,5.4-4.9,10.1-4.9,10.1
					c-2.4,5.1-6.3,9.4-11.2,12.1l-9.9,5.5l-12.6,7c-3.2,1.8-6.8,2.5-10.4,2l-24-3c-5.3-0.7-10.4,1.2-14.1,4.8
					c0.1,0.4,0.3,0.9,0.4,1.3c4,16.2-5.9,32.6-22.1,36.7c-0.6,0.2-1.2,0.3-1.9,0.4c-0.3,0.6-0.6,1.1-0.8,1.7
					c-2.3,5.4-1.7,11.7,1.8,16.6l13.9,19.7c2.1,3,3.2,6.5,3.1,10.2l-0.2,14.4l-0.2,14.3c-0.1,3.6-1.3,7.2-3.5,10.1l-14.5,19.3
					c-3.6,4.8-4.4,11.1-2.3,16.5c0.1,0.2,0.1,0.3,0.2,0.5c11.6,1.9,21.4,10.5,24.4,22.6c1.5,6.2,1,12.5-1.1,18
					c3.5,3.5,8.5,5.3,13.6,4.9l24-2.2c3.6-0.3,7.3,0.5,10.4,2.4l12.4,7.4l12.3,7.4c3.1,1.9,5.6,4.7,7,8l9.4,22.2
					c2.1,4.9,6.3,8.5,11.4,9.9c4-5.5,9.9-9.6,17.1-11.3c12.5-3.1,25,2.1,32,12c4.8-1.3,9-4.7,11.1-9.4l10.1-21.9
					c1.5-3.3,4.1-6,7.2-7.8l12.5-7l12.6-7c3.2-1.8,6.8-2.5,10.4-2l24,3c4.3,0.5,8.6-0.6,12-3c-0.3-0.9-0.6-1.9-0.9-2.9
					c-4-16.2,5.9-32.6,22.1-36.7c1.5-0.4,3-0.6,4.5-0.8c0.3-0.5,0.5-1,0.7-1.5c2.3-5.4,1.7-11.7-1.8-16.6l-13.9-19.7
					c-2.1-3-3.2-6.5-3.1-10.2l0.2-14.3l0.2-14.4c0.1-3.6,1.3-7.2,3.5-10.1l10.8-14.4c0.7-0.9,1.2-1.8,1.8-2.7l1.9-2.5
					C399.2,160.2,400.1,154.1,398.2,148.7z M347.9,181.9c13.7,55.5-20.2,111.7-75.8,125.4c-55.5,13.7-111.7-20.2-125.4-75.8
					C133,176,167,119.8,222.5,106.1C278.1,92.4,334.2,126.4,347.9,181.9z"/>
			</g>
		</g>
		<g>
			<path class="st13" d="M480.6,413.1H12.8c-4.9,0-9-4-9-9v-85.4c0-5,4.1-9,9-9h467.8c4.9,0,9,4,9,9v85.4
				C489.6,409,485.5,413.1,480.6,413.1z"/>
		</g>
		<g>
			<path class="st12" d="M480.6,422.5H12.8c-4.9,0-9-4-9-9V328c0-4.9,4.1-9,9-9h467.8c4.9,0,9,4.1,9,9v85.4
				C489.6,418.4,485.5,422.5,480.6,422.5z"/>
		</g>
		<g>
			<path class="st4" d="M106.3,390.7H76.6v-41h29.7v7.9H87.2v7.1h17.8v7.9H87.2v10.1h19.1V390.7z"/>
			<path class="st4" d="M147,390.7h-11.6l-6.6-9.3l-6.8,9.3h-11.3l12.2-15.5l-12-15.4h11.6l6.5,9.1l6.5-9.1h11.4l-12,15.2L147,390.7
				z"/>
			<path class="st4" d="M182.8,377.1h-22.7c0.1,2.4,1.1,4.3,2.8,5.6c1.7,1.3,4.2,1.9,7.5,1.9c2.1,0,4.1-0.4,6.1-1.1
				c2-0.8,3.5-1.6,4.7-2.4h1.1v8c-2.2,0.9-4.4,1.6-6.3,2c-2,0.4-4.2,0.6-6.6,0.6c-6.2,0-11-1.4-14.3-4.2c-3.3-2.8-5-6.8-5-11.9
				c0-5.1,1.6-9.1,4.7-12.1c3.1-3,7.4-4.5,12.9-4.5c5,0,8.8,1.3,11.3,3.8c2.5,2.5,3.8,6.2,3.8,11V377.1z M173,371.3
				c-0.1-2.1-0.6-3.6-1.5-4.7c-1-1-2.5-1.6-4.5-1.6c-1.9,0-3.5,0.5-4.7,1.5c-1.2,1-1.9,2.6-2.1,4.8H173z"/>
			<path class="st4" d="M205.9,391.5c-2.7,0-5.2-0.3-7.4-1c-2.2-0.6-4.2-1.6-5.8-3c-1.6-1.3-2.9-3-3.8-5.1c-0.9-2-1.4-4.4-1.4-7.2
				c0-2.9,0.5-5.4,1.4-7.5c1-2.1,2.3-3.8,4-5.2c1.7-1.3,3.6-2.3,5.8-2.9c2.2-0.6,4.5-0.9,6.8-0.9c2.1,0,4.1,0.2,5.8,0.7
				s3.4,1.1,5,1.8v8.5h-1.4c-0.4-0.3-0.8-0.7-1.4-1.2s-1.2-0.9-2-1.3c-0.8-0.4-1.6-0.7-2.5-1c-0.9-0.3-1.9-0.4-3.1-0.4
				c-2.6,0-4.7,0.8-6.1,2.5c-1.4,1.7-2.1,4-2.1,6.8c0,3,0.7,5.2,2.2,6.8c1.5,1.5,3.5,2.3,6.2,2.3c1.2,0,2.4-0.1,3.4-0.4
				c1-0.3,1.8-0.6,2.5-1c0.6-0.4,1.2-0.8,1.7-1.2s0.9-0.8,1.3-1.2h1.4v8.5c-1.6,0.7-3.2,1.3-4.9,1.7
				C209.9,391.3,208,391.5,205.9,391.5z"/>
			<path class="st4" d="M253.8,390.7h-9.9v-3.4c-1.8,1.4-3.5,2.5-5,3.2c-1.5,0.7-3.3,1.1-5.4,1.1c-3.4,0-6-1-7.9-2.9
				c-1.8-2-2.8-4.9-2.8-8.7v-20.1h9.9v15.3c0,1.6,0.1,2.9,0.2,3.9c0.1,1,0.3,1.9,0.7,2.6c0.3,0.7,0.9,1.2,1.6,1.5s1.7,0.5,3,0.5
				c0.8,0,1.8-0.2,2.8-0.5c1-0.3,2-0.8,3-1.4v-21.9h9.9V390.7z"/>
			<path class="st4" d="M283,390.4c-1.1,0.3-2.2,0.5-3.4,0.6c-1.2,0.2-2.7,0.2-4.4,0.2c-3.9,0-6.7-0.8-8.6-2.3
				c-1.9-1.6-2.8-4.2-2.8-8v-14.5h-4.1v-6.7h4.1v-8.8h9.9v8.8h9.3v6.7h-9.3v11c0,1.1,0,2,0,2.8c0,0.8,0.2,1.5,0.4,2.2
				c0.3,0.6,0.7,1.2,1.4,1.5c0.7,0.4,1.6,0.6,2.8,0.6c0.5,0,1.2-0.1,2-0.3c0.8-0.2,1.4-0.4,1.7-0.6h0.8V390.4z"/>
			<path class="st4" d="M320.5,375.3c0,5.1-1.5,9.1-4.4,12c-3,2.9-7.1,4.4-12.5,4.4s-9.5-1.5-12.5-4.4c-3-2.9-4.4-6.9-4.4-12
				c0-5.1,1.5-9.1,4.5-12.1c3-2.9,7.1-4.4,12.5-4.4c5.4,0,9.6,1.5,12.5,4.4S320.5,370.2,320.5,375.3z M308.3,382.8
				c0.6-0.8,1.1-1.7,1.4-2.9c0.3-1.1,0.5-2.6,0.5-4.6c0-1.8-0.2-3.3-0.5-4.6c-0.3-1.2-0.8-2.2-1.4-2.9c-0.6-0.8-1.3-1.3-2.1-1.6
				c-0.8-0.3-1.7-0.5-2.7-0.5s-1.8,0.1-2.5,0.4c-0.7,0.3-1.5,0.8-2.1,1.5c-0.6,0.7-1.1,1.7-1.4,2.9c-0.4,1.2-0.5,2.8-0.5,4.7
				c0,1.7,0.2,3.2,0.5,4.4c0.3,1.2,0.8,2.2,1.4,3c0.6,0.7,1.3,1.2,2.1,1.6c0.8,0.3,1.7,0.5,2.8,0.5c0.9,0,1.8-0.2,2.6-0.5
				S307.8,383.5,308.3,382.8z"/>
			<path class="st4" d="M350.1,369.2h-0.9c-0.4-0.1-1.1-0.3-2-0.3c-0.9-0.1-1.7-0.1-2.3-0.1c-1.4,0-2.7,0.1-3.7,0.3
				s-2.2,0.5-3.5,0.9v20.7h-9.9v-30.9h9.9v4.5c2.2-1.9,4.1-3.1,5.7-3.7s3.1-0.9,4.5-0.9c0.3,0,0.7,0,1.2,0c0.4,0,0.8,0,1.2,0.1
				V369.2z"/>
			<path class="st4" d="M386.1,377.1h-22.7c0.1,2.4,1.1,4.3,2.8,5.6c1.7,1.3,4.2,1.9,7.5,1.9c2.1,0,4.1-0.4,6.1-1.1
				c2-0.8,3.5-1.6,4.7-2.4h1.1v8c-2.2,0.9-4.4,1.6-6.3,2c-2,0.4-4.2,0.6-6.6,0.6c-6.2,0-11-1.4-14.3-4.2c-3.3-2.8-5-6.8-5-11.9
				c0-5.1,1.6-9.1,4.7-12.1c3.1-3,7.4-4.5,12.9-4.5c5,0,8.8,1.3,11.3,3.8c2.5,2.5,3.8,6.2,3.8,11V377.1z M376.3,371.3
				c-0.1-2.1-0.6-3.6-1.5-4.7s-2.5-1.6-4.5-1.6c-1.9,0-3.5,0.5-4.7,1.5c-1.2,1-1.9,2.6-2.1,4.8H376.3z"/>
			<path class="st4" d="M420,380.9c0,3.2-1.4,5.8-4.3,7.7c-2.9,2-6.8,2.9-11.8,2.9c-2.8,0-5.3-0.3-7.5-0.8c-2.2-0.5-4-1.1-5.4-1.7
				v-8.2h0.9c0.5,0.3,1.1,0.7,1.7,1.1c0.7,0.4,1.6,0.9,2.8,1.3c1,0.4,2.2,0.8,3.5,1.1c1.3,0.3,2.7,0.5,4.2,0.5
				c1.9,0,3.4-0.2,4.3-0.6s1.4-1.1,1.4-1.9c0-0.8-0.3-1.3-0.8-1.6c-0.6-0.3-1.6-0.7-3.1-1c-0.7-0.2-1.7-0.3-3-0.5
				c-1.3-0.2-2.4-0.4-3.4-0.7c-2.8-0.7-4.9-1.9-6.3-3.4c-1.4-1.6-2-3.5-2-5.8c0-3,1.4-5.4,4.2-7.4c2.8-2,6.7-3,11.6-3
				c2.3,0,4.5,0.2,6.7,0.7c2.1,0.5,3.8,1,5,1.5v7.8h-0.9c-1.5-1-3.1-1.8-5-2.5c-1.9-0.6-3.8-1-5.7-1c-1.6,0-2.9,0.2-4,0.7
				s-1.6,1.1-1.6,1.9c0,0.7,0.2,1.3,0.7,1.7c0.5,0.4,1.7,0.8,3.5,1.2c1,0.2,2.1,0.4,3.3,0.6c1.2,0.2,2.3,0.4,3.5,0.7
				c2.6,0.7,4.5,1.7,5.8,3.2C419.4,376.9,420,378.7,420,380.9z"/>
		</g>
	</g>
</g>
</svg>
