<?xml version="1.0" encoding="utf-8"?>
<!-- Generator: Adobe Illustrator 20.1.0, SVG Export Plug-In . SVG Version: 6.00 Build 0)  -->
<svg version="1.1" id="Layer_1" xmlns="http://www.w3.org/2000/svg" xmlns:xlink="http://www.w3.org/1999/xlink" x="0px" y="0px"
	 viewBox="0 0 400 2543" style="enable-background:new 0 0 400 2543;" xml:space="preserve">
<style type="text/css">
	.st0{fill:#FFFFFF;stroke:#FBB04F;stroke-width:2;stroke-miterlimit:10;}
	.st1{fill:#FFFFFF;stroke:#F47E60;stroke-width:2;stroke-miterlimit:10;}
	.st2{fill:#FFFFFF;stroke:#B77775;stroke-width:2;stroke-miterlimit:10;}
	.st3{fill:#FFFFFF;stroke:#9CBD4C;stroke-width:2;stroke-miterlimit:10;}
	.st4{fill:#FFFFFF;stroke:#62C2A0;stroke-width:2;stroke-miterlimit:10;}
	.st5{fill:none;stroke:#FBB04F;stroke-width:16;stroke-linecap:round;stroke-linejoin:round;stroke-miterlimit:10;}
	.st6{fill:none;stroke:#F47E60;stroke-width:16;stroke-linecap:round;stroke-linejoin:round;stroke-miterlimit:10;}
	.st7{fill:none;stroke:#B77775;stroke-width:16;stroke-linecap:round;stroke-linejoin:round;stroke-miterlimit:10;}
	.st8{fill:none;stroke:#9CBD4C;stroke-width:16;stroke-linecap:round;stroke-linejoin:round;stroke-miterlimit:10;}
	.st9{fill:none;stroke:#62C2A0;stroke-width:16;stroke-linecap:round;stroke-linejoin:round;stroke-miterlimit:10;}
	.st10{fill:none;stroke:#F47D5D;stroke-width:16;stroke-linejoin:round;stroke-miterlimit:10;}
	.st11{fill:none;stroke:#62B7C4;stroke-width:16;stroke-linecap:round;stroke-linejoin:round;stroke-miterlimit:10;}
	.st12{fill:none;stroke:#F47D5D;stroke-width:16;stroke-linecap:round;stroke-linejoin:round;stroke-miterlimit:10;}
	.st13{fill:none;stroke:#62B7C4;stroke-width:6;stroke-miterlimit:10;}
	.st14{fill:#474843;}
	.st15{fill:#4A4B46;}
	.st16{fill:#FFFFFF;stroke:#62B7C4;stroke-width:2;stroke-miterlimit:10;}
	.st17{fill:#FFFFFF;stroke:#3D7ABC;stroke-width:2;stroke-miterlimit:10;}
	.st18{fill:#FFFFFF;stroke:#E43327;stroke-width:2;stroke-miterlimit:10;}
	.st19{opacity:0.6;}
	.st20{fill:#62B7C4;}
	.st21{fill:#F47D5D;}
	.st22{fill:#62C2A0;}
	.st23{fill:#9CBD4C;}
	.st24{fill:#B77775;}
	.st25{fill:#F47E60;}
	.st26{fill:#FFFFFF;}
	.st27{fill:none;stroke:#E43327;stroke-width:16;stroke-linecap:round;stroke-linejoin:round;stroke-miterlimit:10;}
	.st28{fill:none;stroke:#3D7ABC;stroke-width:16;stroke-linecap:round;stroke-linejoin:round;stroke-miterlimit:10;}
	.st29{fill:#3D7ABC;}
	.st30{fill:#E1E2E1;}
	.st31{fill:#2569B3;}
	.st32{fill:#153851;}
	.st33{fill:#D5AB29;}
	.st34{fill:#C49B2D;}
	.st35{fill:#F7911E;}
	.st36{fill:#E24B37;}
	.st37{fill:#A2ACB8;}
	.st38{fill:#DC4E2B;}
	.st39{fill:#EAEAEA;}
	.st40{fill:#CCD4D8;}
	.st41{fill:#8DBB70;}
	.st42{fill:#799EBD;}
	.st43{fill:url(#SVGID_1_);}
	.st44{fill:url(#SVGID_2_);}
	.st45{fill:url(#SVGID_3_);}
	.st46{fill:#FAB7A0;}
	.st47{fill:#43769A;}
	.st48{fill:#878787;}
	.st49{fill:#5577B4;}
	.st50{fill:#FFFFFF;stroke:#474843;stroke-width:2;stroke-miterlimit:10;}
	.st51{fill:#CF804C;}
</style>
<circle class="st0" cx="197.6" cy="94.6" r="47"/>
<circle class="st1" cx="197.6" cy="244.5" r="47"/>
<circle class="st2" cx="197.6" cy="394.2" r="47"/>
<circle class="st3" cx="197.6" cy="544.5" r="47"/>
<circle class="st4" cx="197.6" cy="694.5" r="47"/>
<path class="st5" d="M197.6,19.6c41.4,0,75,33.6,75,75s-33.6,75-75,75"/>
<path class="st6" d="M197.6,319.5c-41.4,0-75-33.6-75-75s33.6-75,75-75"/>
<path class="st7" d="M197.6,319.2c41.4,0,75,33.6,75,75s-33.6,75-75,75"/>
<path class="st8" d="M196.9,619.5c-41.4,0-75-33.6-75-75s33.6-75,75-75"/>
<path class="st9" d="M196.9,619.5c41.4,0,75,33.6,75,75s-33.6,75-75,75"/>
<path class="st10" d="M196.9,769.9c41.4,0,75,33.6,75,75s-33.6,75-75,75"/>
<path class="st11" d="M95.5,1398.2c-41.4,0-75-33.6-75-75s33.6-75,75-75"/>
<path class="st12" d="M302.4,1249.2c41.4,0,75,33.6,75,75s-33.6,75-75,75"/>
<polyline class="st13" points="301.7,1250 197.5,919.6 95.7,1247 "/>
<line class="st13" x1="198.6" y1="1768" x2="198" y2="914.5"/>
<line class="st13" x1="199.6" y1="2530.2" x2="199" y2="2208.5"/>
<line class="st13" x1="199.6" y1="2023.6" x2="199" y2="1917.6"/>
<g>
	<path class="st14" d="M219.4,383.6c-0.5-0.5-1-0.9-1.5-1.4c-0.2-0.2-0.4-0.4-0.6-0.5c-0.3-0.3-0.7-0.7-1-1
		c-1.3-1.3-2.6-2.5-3.9-3.8c-0.2-0.2-0.3-0.2-0.5,0c-5,4.9-9.9,9.7-14.9,14.6c-0.3,0.3-0.7,0.6-0.8,1.1c-0.4,1.6-0.8,3.1-1.2,4.7
		c-0.4,1.5-0.8,3-1.2,4.5c-0.1,0.2,0,0.2,0.2,0.2c0.6-0.2,1.2-0.3,1.8-0.5c1.5-0.4,2.9-0.7,4.4-1.1c0.9-0.2,1.8-0.5,2.8-0.7
		c0.4-0.1,0.8-0.1,1.1-0.4c0.4-0.4,0.8-0.8,1.2-1.2c4.7-4.6,9.5-9.3,14.2-13.9C219.6,383.8,219.6,383.8,219.4,383.6z M195.4,400.3
		c0.4-1.5,0.8-3,1.3-4.6c1.2,1.1,2.3,2.2,3.5,3.4C198.5,399.4,197,399.8,195.4,400.3z M199.8,394.1c-0.1,0.1-0.2,0.2-0.3,0.3
		c-0.3,0.2-0.7,0.1-0.9-0.1c-0.2-0.3-0.2-0.6,0.1-0.9c0.9-0.9,1.7-1.7,2.6-2.5c2.3-2.3,4.7-4.6,7-6.9c1.2-1.1,2.3-2.3,3.5-3.4
		c0.2-0.2,0.5-0.4,0.8-0.2c0.3,0.1,0.4,0.3,0.5,0.6c0,0.2-0.1,0.4-0.2,0.5c-2.3,2.3-4.6,4.5-7,6.8
		C203.9,390.2,201.9,392.1,199.8,394.1z M215.7,384.2c-0.5,0.5-1,0.9-1.4,1.4c-0.1,0.3-0.4,0.5-0.7,0.7c-0.4,0.3-0.7,0.6-1,0.9
		c-2.9,2.8-5.8,5.6-8.6,8.4l-0.1,0.1c-0.4,0.4-0.9,0.9-1.3,1.3c-0.3,0.3-0.7,0.2-1,0c-0.3-0.3-0.2-0.7,0-0.9c0.7-0.7,1.3-1.4,2.1-2
		c0.5-0.6,1.1-1.1,1.7-1.7c2.4-2.3,4.7-4.6,7.1-6.9c0.8-0.7,1.5-1.5,2.3-2.2c0.3-0.3,0.7-0.3,0.9-0.2
		C216,383.4,216.1,383.8,215.7,384.2z"/>
	<path class="st15" d="M224.9,377.1c0-0.3-0.1-0.5-0.3-0.7c0-0.2-0.2-0.4-0.3-0.6l0,0c-0.1-0.3-0.3-0.5-0.6-0.6
		c-0.9-0.9-1.9-1.9-2.8-2.8c-1.2-1.2-3.1-1.3-4.4,0c-0.8,0.9-1.7,1.7-2.5,2.5c-0.1,0.1-0.2,0.2,0,0.4c1.1,1,2.1,2.1,3.2,3.1
		c0.3,0.3,0.6,0.6,0.9,0.8c0,0.1,0.1,0.2,0.2,0.2c0,0,0,0,0,0.1c0.9,0.9,1.8,1.8,2.7,2.7c0.1,0.1,0.2,0.1,0.3,0c1-1,2-1.9,2.9-2.9
		C224.9,378.6,225.1,377.9,224.9,377.1z"/>
	<path class="st14" d="M216.6,390.8c0-0.1,0-0.2,0-0.3c-0.1,0-0.1,0-0.1,0.1c-0.8,0.8-1.6,1.6-2.4,2.3c-0.1,0.1-0.1,0.2-0.1,0.4
		c0,3.3-0.1,17-0.1,19.6c0,0.2,0,0.4-0.1,0.7c-0.2,0.5-0.7,0.7-1.2,0.7c-3.7,0-7.4,0-11.1,0c-6,0-12.1,0-18.1,0
		c-1,0-1.3-0.2-1.6-1.2c0-0.4,0-0.7,0-1.1l0,0c0-0.1,0-0.2,0-0.2c0-5.7,0-25.1,0-28.2c0-0.3,0-0.6,0.2-0.9c0.3-0.4,0.7-0.5,1.2-0.5
		c6.1,0,12.1,0,18.2,0c0.5,0,1,0.1,1.5,0c0.5-0.2,0.8-0.6,1.1-1c0.5-0.5,1-1.1,1.5-1.6c0,0,0,0-0.1,0c-7.9,0-15.8,0-23.6,0
		c-0.2,0-0.4,0-0.6,0.1c-1.3,0.4-2.1,1.5-2.1,2.7c0,4.3,0,8.7,0,13c0,0.3,0,0.6,0,0.9c0,0.1,0,0.2,0,0.3l0,0c0,0.4,0,0.8,0,1.2
		c0,5.5,0,11,0,16.5c0,0.2,0,0.4,0.1,0.6c0.1,0.3,0.1,0.6,0.3,0.9c0,0,0,0.1,0.1,0.1c0.2,0.2,0.3,0.5,0.5,0.6
		c0.6,0.4,1.2,0.6,1.9,0.6c7.5,0,15.1,0,22.6,0c3.1,0,6.2,0,9.3,0c0.5,0,0.9-0.1,1.3-0.3c0.9-0.5,1.4-1.4,1.4-2.5
		C216.6,406.4,216.6,398.6,216.6,390.8z"/>
</g>
<g>
	<path class="st15" d="M200.3,228.6c1.6,0.4,3.2,0.8,4.8,1.1c0.1,0.2,0.2,0.3,0.4,0.5c-0.9,0.7-1.7,1.5-2.7,2.1
		c-0.3,0.2-0.8,0.2-1.2,0.1c-8.7-1.8-15.7,4.3-17.1,11.4c-1.6,8.1,5,16.4,13.2,16.8c7.3,0.4,13.6-4.9,14.9-11.7
		c0.1-0.8,0.2-1.6,0.3-2.6c1.1,0,2.3,0,3.5,0c0,0.6,0,1.3,0,1.9c-0.1,0.2-0.2,0.4-0.2,0.6c-1.2,6.9-5.1,11.6-11.5,14.1
		c-1.3,0.5-2.7,0.8-4.1,1.1c-1.3,0-2.6,0-3.9,0c-0.2-0.1-0.4-0.2-0.6-0.2c-6.9-1.2-11.6-5-14.1-11.5c-0.5-1.3-0.8-2.7-1.1-4.1
		c0-1.3,0-2.6,0-3.9c0.1-0.2,0.2-0.4,0.2-0.6c1.2-6.9,5.1-11.6,11.5-14.1c1.3-0.5,2.7-0.8,4.1-1.1
		C197.9,228.6,199.1,228.6,200.3,228.6z"/>
	<path class="st15" d="M211.9,233.1c1.1,1,1.9,1.8,2.6,2.5c-5.9,5.9-11.8,11.7-17.5,17.5c-2.5-2.5-5.2-5.1-7.8-7.8
		c0.6-0.6,1.4-1.4,2.2-2.2c1.8,1.8,3.5,3.7,5.2,5.5C201.8,243.3,206.9,238.2,211.9,233.1z"/>
</g>
<circle class="st16" cx="197.6" cy="844.5" r="47"/>
<path class="st11" d="M196.9,919.5c-41.4,0-75-33.6-75-75s33.6-75,75-75"/>
<circle class="st17" cx="95.5" cy="1323.2" r="47"/>
<circle class="st18" cx="302.4" cy="1324.2" r="47"/>
<g class="st19">
	<path class="st20" d="M197.5,761.7c4.4,0,7.9,3.5,7.9,7.9s-3.5,7.9-7.9,7.9s-7.9-3.5-7.9-7.9C189.6,765.3,193.2,761.7,197.5,761.7
		 M197.5,751.7c-9.9,0-17.9,8-17.9,17.9s8,17.9,17.9,17.9s17.9-8,17.9-17.9C215.5,759.7,207.4,751.7,197.5,751.7L197.5,751.7z"/>
</g>
<g class="st19">
	<path class="st20" d="M197.5,911.7c4.4,0,7.9,3.5,7.9,7.9s-3.5,7.9-7.9,7.9s-7.9-3.5-7.9-7.9C189.6,915.3,193.2,911.7,197.5,911.7
		 M197.5,901.7c-9.9,0-17.9,8-17.9,17.9s8,17.9,17.9,17.9s17.9-8,17.9-17.9C215.5,909.7,207.4,901.7,197.5,901.7L197.5,901.7z"/>
</g>
<g class="st19">
	<path class="st20" d="M94.4,1239.6c4.4,0,7.9,3.5,7.9,7.9s-3.5,7.9-7.9,7.9s-7.9-3.5-7.9-7.9S90.1,1239.6,94.4,1239.6 M94.4,1229.6
		c-9.9,0-17.9,8-17.9,17.9s8,17.9,17.9,17.9s17.9-8,17.9-17.9S104.3,1229.6,94.4,1229.6L94.4,1229.6z"/>
</g>
<g class="st19">
	<path class="st21" d="M301.4,1240.6c4.4,0,7.9,3.5,7.9,7.9s-3.5,7.9-7.9,7.9s-7.9-3.5-7.9-7.9S297,1240.6,301.4,1240.6
		 M301.4,1230.6c-9.9,0-17.9,8-17.9,17.9s8,17.9,17.9,17.9s17.9-8,17.9-17.9S311.3,1230.6,301.4,1230.6L301.4,1230.6z"/>
</g>
<g class="st19">
	<path class="st22" d="M197.5,611.7c4.4,0,7.9,3.5,7.9,7.9s-3.5,7.9-7.9,7.9s-7.9-3.5-7.9-7.9C189.6,615.3,193.2,611.7,197.5,611.7
		 M197.5,601.7c-9.9,0-17.9,8-17.9,17.9s8,17.9,17.9,17.9s17.9-8,17.9-17.9C215.5,609.7,207.4,601.7,197.5,601.7L197.5,601.7z"/>
</g>
<g class="st19">
	<path class="st23" d="M197.5,461.7c4.4,0,7.9,3.5,7.9,7.9s-3.5,7.9-7.9,7.9s-7.9-3.5-7.9-7.9S193.2,461.7,197.5,461.7 M197.5,451.7
		c-9.9,0-17.9,8-17.9,17.9s8,17.9,17.9,17.9s17.9-8,17.9-17.9S207.4,451.7,197.5,451.7L197.5,451.7z"/>
</g>
<g class="st19">
	<path class="st24" d="M197.5,311c4.4,0,7.9,3.5,7.9,7.9s-3.5,7.9-7.9,7.9s-7.9-3.5-7.9-7.9C189.6,314.6,193.2,311,197.5,311
		 M197.5,301c-9.9,0-17.9,8-17.9,17.9s8,17.9,17.9,17.9s17.9-8,17.9-17.9S207.4,301,197.5,301L197.5,301z"/>
</g>
<g class="st19">
	<path class="st25" d="M197.5,161.7c4.4,0,7.9,3.5,7.9,7.9s-3.5,7.9-7.9,7.9s-7.9-3.5-7.9-7.9C189.6,165.3,193.2,161.7,197.5,161.7
		 M197.5,151.7c-9.9,0-17.9,8-17.9,17.9s8,17.9,17.9,17.9s17.9-8,17.9-17.9S207.4,151.7,197.5,151.7L197.5,151.7z"/>
</g>
<g>
	<circle class="st26" cx="197.5" cy="769.6" r="7.9"/>
</g>
<g>
	<circle class="st26" cx="197.5" cy="919.6" r="7.9"/>
</g>
<g>
	<circle class="st26" cx="94.4" cy="1247.5" r="7.9"/>
</g>
<g>
	<circle class="st26" cx="301.4" cy="1248.5" r="7.9"/>
</g>
<g>
	<circle class="st26" cx="197.5" cy="619.6" r="7.9"/>
</g>
<g>
	<circle class="st26" cx="197.5" cy="469.6" r="7.9"/>
</g>
<g>
	<circle class="st26" cx="197.5" cy="319" r="7.9"/>
</g>
<g>
	<circle class="st26" cx="197.5" cy="169.6" r="7.9"/>
</g>
<path class="st27" d="M199.3,2207.9c-50.3,0-91-40.7-91-91s40.7-91,91-91"/>
<path class="st28" d="M202.3,2025.9c50.3,0,91,40.7,91,91c0,50.3-40.7,91-91,91"/>
<g class="st19">
	<path class="st29" d="M199.3,2199.6c4.4,0,7.9,3.5,7.9,7.9s-3.5,7.9-7.9,7.9s-7.9-3.5-7.9-7.9S194.9,2199.6,199.3,2199.6
		 M199.3,2189.6c-9.9,0-17.9,8-17.9,17.9s8,17.9,17.9,17.9s17.9-8,17.9-17.9S209.2,2189.6,199.3,2189.6L199.3,2189.6z"/>
</g>
<g>
	<circle class="st26" cx="199.3" cy="2207.5" r="7.9"/>
</g>
<g class="st19">
	<path class="st29" d="M199.3,2018.2c4.4,0,7.9,3.5,7.9,7.9s-3.5,7.9-7.9,7.9s-7.9-3.5-7.9-7.9S194.9,2018.2,199.3,2018.2
		 M199.3,2008.2c-9.9,0-17.9,8-17.9,17.9s8,17.9,17.9,17.9s17.9-8,17.9-17.9C217.2,2016.3,209.2,2008.2,199.3,2008.2L199.3,2008.2z"
		/>
</g>
<g>
	<circle class="st26" cx="199.3" cy="2026.2" r="7.9"/>
</g>
<g>
	<path class="st30" d="M204,2113.1c0,0,5.1-3.2,6.6-4.4c1.5-1.3,1.5-3,1.5-3v-6.5l-12.7-0.8l0,0h-0.2H199l0,0l-12.7,0.8v6.5
		c0,0,0,1.8,1.5,3.1s6.6,4.4,6.6,4.4s1.5,0.9,1.6,3.6c-0.1,2.7-1.6,3.6-1.6,3.6s-5.1,3.2-6.6,4.4c-1.5,1.3-1.5,3-1.5,3v6.5l12.7,0.8
		l0,0h0.2h0.2l0,0l12.7-0.8v-6.5c0,0,0-1.8-1.5-3c-1.5-1.3-6.6-4.4-6.6-4.4s-1.5-0.9-1.6-3.6C202.5,2114,204,2113.1,204,2113.1z"/>
	<path class="st31" d="M185.5,2095.7c-0.4,0-0.8,0.3-0.8,0.6v2.8c0,0.4,0.3,0.6,0.8,0.6h13.8v-4.1L185.5,2095.7L185.5,2095.7z"/>
	<path class="st32" d="M213.9,2099.2v-2.8c0-0.4-0.3-0.6-0.8-0.6h-13.8v4.1h13.8C213.5,2099.9,213.9,2099.6,213.9,2099.2z"/>
	<path class="st32" d="M213.1,2137.6c0.4,0,0.8-0.3,0.8-0.6v-2.8c0-0.4-0.3-0.6-0.8-0.6h-13.8v4.1L213.1,2137.6L213.1,2137.6z"/>
	<path class="st31" d="M184.8,2134.2v2.8c0,0.4,0.3,0.6,0.8,0.6h13.8v-4.1h-13.8C185.1,2133.5,184.8,2133.8,184.8,2134.2z"/>
	<g>
		<g>
			<path class="st33" d="M188.8,2106.4c0,0.4,0.3,1.4,2.9,3c2.9,1.7,7.6,4,7.6,4v-7H188.8z"/>
		</g>
		<g>
			<path class="st34" d="M209.8,2106.4c0,0.4-0.3,1.4-2.9,3c-2.9,1.7-7.6,4-7.6,4v-7H209.8z"/>
		</g>
	</g>
	<g>
		<g>
			<path class="st33" d="M189,2132.8c0-0.4,0.3-1.4,2.9-3c2.9-1.7,7.6-4,7.6-4v7H189z"/>
		</g>
		<g>
			<path class="st34" d="M210,2132.8c0-0.4-0.3-1.4-2.9-3c-2.9-1.7-7.6-4-7.6-4v7H210z"/>
		</g>
	</g>
	<g>
		<path class="st34" d="M199.8,2116.2c0-0.2-0.1-0.3-0.3-0.3v0.6C199.7,2116.4,199.8,2116.3,199.8,2116.2z"/>
		<path class="st33" d="M199.2,2116.2c0,0.2,0.1,0.3,0.3,0.3v-0.6C199.3,2115.9,199.2,2116,199.2,2116.2z"/>
		<path class="st33" d="M199.2,2118.6c0,0.2,0.1,0.3,0.3,0.3v-0.6C199.3,2118.3,199.2,2118.5,199.2,2118.6z"/>
		<path class="st34" d="M199.8,2118.6c0-0.2-0.1-0.3-0.3-0.3v0.6C199.7,2118.9,199.8,2118.8,199.8,2118.6z"/>
		<path class="st34" d="M199.8,2121.1c0-0.2-0.1-0.3-0.3-0.3v0.6C199.7,2121.3,199.8,2121.2,199.8,2121.1z"/>
		<path class="st33" d="M199.2,2121.1c0,0.2,0.1,0.3,0.3,0.3v-0.6C199.3,2120.8,199.2,2120.9,199.2,2121.1z"/>
		<path class="st34" d="M199.8,2123.4c0-0.2-0.1-0.3-0.3-0.3v0.6C199.7,2123.6,199.8,2123.5,199.8,2123.4z"/>
		<path class="st33" d="M199.2,2123.4c0,0.2,0.1,0.3,0.3,0.3v-0.6C199.3,2123.1,199.2,2123.2,199.2,2123.4z"/>
	</g>
</g>
<g>
	<path class="st21" d="M196.9,2147.6c-15.8-1.3-28.3-14.5-28.3-30.7s12.5-29.4,28.3-30.7v-39.4c-37.6,1.3-67.6,32.2-67.6,70.1
		s30.1,68.8,67.6,70.1V2147.6z"/>
	<path class="st20" d="M201.9,2046.8v39.4c15.8,1.3,28.3,14.5,28.3,30.7s-12.5,29.4-28.3,30.7v39.4c37.6-1.3,67.6-32.2,67.6-70.1
		C269.5,2079,239.5,2048.1,201.9,2046.8z"/>
</g>
<g>
	<circle class="st17" cx="198.7" cy="1844" r="47"/>
	<path class="st28" d="M198.9,1919c-41.4,0-75-33.6-75-75s33.6-75,75-75"/>
	<g class="st19">
		<g>
			<path class="st29" d="M198.8,1761c4.4,0,7.9,3.5,7.9,7.9s-3.5,7.9-7.9,7.9s-7.9-3.5-7.9-7.9C190.9,1764.5,194.4,1761,198.8,1761
				 M198.8,1751c-9.9,0-17.9,8-17.9,17.9s8,17.9,17.9,17.9s17.9-8,17.9-17.9S208.7,1751,198.8,1751L198.8,1751z"/>
		</g>
	</g>
	<g>
		<circle class="st26" cx="198.8" cy="1768.9" r="7.9"/>
	</g>
	<g class="st19">
		<g>
			<path class="st29" d="M198.1,1911.4c4.4,0,7.9,3.5,7.9,7.9s-3.5,7.9-7.9,7.9s-7.9-3.5-7.9-7.9
				C190.1,1914.9,193.7,1911.4,198.1,1911.4 M198.1,1901.4c-9.9,0-17.9,8-17.9,17.9s8,17.9,17.9,17.9s17.9-8,17.9-17.9
				S207.9,1901.4,198.1,1901.4L198.1,1901.4z"/>
		</g>
	</g>
	<g>
		<circle class="st26" cx="198.1" cy="1919.3" r="7.9"/>
	</g>
	<g>
		<path class="st14" d="M216.4,1816.1c0.5,0.6,1.2,1.1,1.3,1.8c1.9,7,3.8,14.1,5.7,21.1c0.1,0.3,0,0.6,0.1,1.2
			c-1.2,0.1-2.4-0.1-3.4,0.3c-3.8,1.3-7.7,2.6-11.4,4.2c-4.2,1.9-8,4.6-12.8,5c-3.5,0.3-4.1,0-5-3.5c-1.6-6.1-3.2-12.2-4.9-18.2
			c-0.6-2-0.1-2.7,2-2.6c3.6,0.2,6.7-1.2,9.9-2.7c4.8-2.3,9.6-4.4,14.3-6.6C213.7,1816.1,215.1,1816.1,216.4,1816.1z M197,1832.6
			c2.3-0.9,4.5-1.8,6.9-2.7c0.6,2,1.2,4,1.8,6.2c2.2-1.1,4.2-2.1,6.3-3.2c0.7,2.2,1.2,4,1.8,5.8c2.3-0.5,4.3-0.9,6.4-1.3
			c-0.6-2-1.1-3.9-1.7-6.1c-2.2,0.4-4.3,0.9-6.4,1.3c-0.6-2.2-1.2-4.3-1.9-6.6c-2.1,1.1-4.1,2.1-6.2,3.2c-0.6-1.9-1.1-3.7-1.7-5.7
			c-1.9,1-3.7,1.8-5.4,2.8c-0.4,0.3-0.6,1.2-0.6,1.8C196.5,1829.7,196.8,1831.2,197,1832.6c-1.9,0.7-3.9,1.4-6.2,2.2
			c0.5,1.9,1.1,4.1,1.7,6.5c2.3-0.5,4.4-0.9,6.7-1.4c0.6,1.9,1.1,3.7,1.8,5.8c2-1,3.7-1.9,5.3-2.9c0.4-0.2,0.8-0.9,0.7-1.2
			c-0.4-1.7-0.9-3.4-1.4-5.3c-2.2,1.2-4.2,2.1-6,3.1C198.7,1836.9,197.9,1834.8,197,1832.6z M216.5,1824.7c-0.5-6-2-6.9-7.4-4.7
			c-0.1,0.1-0.2,0.2-0.4,0.5c0.5,1.8,1,3.6,1.5,5.5C212.4,1825.5,214.3,1825.1,216.5,1824.7z"/>
		<path class="st14" d="M193.3,1875.4c-1.1-3.5-2.2-7-3.2-10.5c-3.1-12-6.1-24.1-9.2-36.2c-0.1-0.2-0.1-0.4-0.2-0.7
			c-0.1-1.2-0.8-2.6,0.9-3.1c1.8-0.5,2.2,0.8,2.5,2.2c3.8,14.9,7.6,29.9,11.3,44.9c0.3,1-0.3,2.3-0.4,3.4
			C194.5,1875.4,193.9,1875.4,193.3,1875.4z"/>
	</g>
</g>
<g>
	<g>
		<path class="st14" d="M200.6,95.8c0.7-0.9,1.3-2,1.2-3.3c0-0.3,0-0.5,0-0.8c-0.2-1.9-1.7-3.5-3.3-3.6c-1.5-0.1-2.9,1.2-3.4,3.1
			c-0.4,1.6-0.2,3.1,0.9,4.5C197.2,97.3,199.4,97.4,200.6,95.8z"/>
		<path class="st14" d="M205.8,101.1c-1.5-1.7-3.3-2.7-3.5-2.8c-0.6-0.4-1.8-1.4-2.5-0.7c-0.4,0.4-0.7,1-1,1.4
			c-0.2,0.3-0.3,0.7-0.7,0.5c-0.2-0.1-1-1.5-1.1-1.7c-0.2-0.3-0.4-0.5-0.7-0.4c-0.6,0.1-1.2,0.5-1.7,0.8c-0.4,0.2-3,1.9-4.2,3.8
			c-0.2,0.3-0.3,0.8-0.3,1.1c0,0.7,0.2,1.6,0.8,2c0.3,0.2,0.7,0.3,1,0.3c0.5,0.1,3.2,0.3,4.1,0.4c1,0,1.9,0.1,2.9,0
			c0.5,0,1-0.1,1.6-0.1c0.5,0,3.7-0.2,4.1-0.3c0.2-0.1,0.9-0.2,1-0.3c0.3-0.2,0.5-0.6,0.6-0.9c0.1-0.4,0.1-0.8,0.2-1.2
			C206.5,102.7,206.4,101.7,205.8,101.1z"/>
	</g>
	<path class="st14" d="M216.8,120c0-0.2,0.1-0.4,0.1-0.6l0,0l0,0c0-7.8,0-20.2,0-28c0-0.1,0-0.2,0-0.3l0,0c0-5.7,0-14.6,0-19.6
		c0-0.2,0-0.4-0.1-0.6c-0.1-0.3-0.1-0.6-0.3-0.9c0,0,0-0.1-0.1-0.1c-0.2-0.2-0.3-0.5-0.5-0.6c-0.6-0.4-1.2-0.6-1.9-0.6
		c-2.8,0-5.5,0-8.3,0l0,0c-7.8,0-15.5,0-23.3,0c-0.1,0-0.2,0-0.3,0l0,0c0,0,0,0-0.1,0c-0.2,0-0.4,0-0.6,0.1
		c-0.2,0.1-0.4,0.2-0.6,0.3c0,0,0,0-0.1,0l0,0c-0.2,0.1-0.4,0.2-0.5,0.4c-0.1,0.1-0.2,0.2-0.2,0.3l-0.1,0.1
		c-0.2,0.3-0.4,0.7-0.5,1.1c0,0.2-0.1,0.4-0.1,0.6l0,0l0,0c0,7.8,0,20.2,0,28c0,0.1,0,0.2,0,0.3l0,0c0,5.7,0,14.6,0,19.6
		c0,0.2,0,0.4,0.1,0.6c0.1,0.3,0.1,0.6,0.3,0.9c0,0,0,0.1,0.1,0.1c0.2,0.2,0.3,0.5,0.5,0.6c0.6,0.4,1.2,0.6,1.9,0.6
		c2.8,0,5.5,0,8.3,0l0,0c7.8,0,15.6,0,23.4,0c0.1,0,0.1,0,0.2,0l0,0c0,0,0,0,0.1,0c0.2,0,0.4,0,0.6-0.1c0.2-0.1,0.4-0.2,0.6-0.3
		c0,0,0,0,0.1,0l0,0c0.2-0.1,0.4-0.2,0.5-0.4c0.1-0.1,0.2-0.2,0.2-0.3l0.1-0.1C216.6,120.7,216.7,120.4,216.8,120z M182,118.3
		c0-0.4,0-0.7,0-1.1c0-0.1,0-0.2,0-0.2c0-3.3,0-17,0-28.3c0-6.4,0.1-14.3,0.1-16c0-0.2,0-0.4,0.1-0.6c0-0.1,0-0.1,0.1-0.2l0.1-0.1
		c0.1-0.1,0.1-0.1,0.2-0.2c0,0,0,0,0.1-0.1c0.1,0,0.1-0.1,0.2-0.1c0.1,0,0.1,0,0.2-0.1h0.1c0.1,0,0.2,0,0.4,0c3.7,0,7.4,0,11.1,0
		c2.5,0,5,0,7.5,0c0.3,0,0.6,0,0.9,0c3.3,0,6.5,0,9.8,0c1,0,1.3,0.2,1.6,1.2c0,0.4,0,0.7,0,1.1l0,0c0,0.1,0,0.2,0,0.2
		c0,3.3,0,17,0,28.3c0,6.4-0.1,14.3-0.1,16c0,0.2,0,0.4-0.1,0.6c0,0.1,0,0.1-0.1,0.2l-0.1,0.1c-0.1,0.1-0.1,0.1-0.2,0.2
		c0,0,0,0-0.1,0.1c-0.1,0-0.1,0.1-0.2,0.1c-0.1,0-0.1,0-0.2,0.1h-0.1c-0.1,0-0.2,0-0.4,0c-3.7,0-7.4,0-11.1,0c-2.5,0-5,0-7.5,0
		c-0.3,0-0.6,0-0.9,0c-3.3,0-6.5,0-9.8,0C182.6,119.5,182.3,119.3,182,118.3z"/>
	<path class="st14" d="M209.5,78.5h-22.7c-0.5,0-0.9-0.4-0.9-0.9l0,0c0-0.5,0.4-0.9,0.9-0.9h22.7c0.5,0,0.9,0.4,0.9,0.9l0,0
		C210.4,78.1,210,78.5,209.5,78.5z"/>
	<path class="st14" d="M209.5,82.3h-22.7c-0.5,0-0.9-0.4-0.9-0.9l0,0c0-0.5,0.4-0.9,0.9-0.9h22.7c0.5,0,0.9,0.4,0.9,0.9l0,0
		C210.4,81.8,210,82.3,209.5,82.3z"/>
	<path class="st14" d="M209.5,86h-22.7c-0.5,0-0.9-0.4-0.9-0.9l0,0c0-0.5,0.4-0.9,0.9-0.9h22.7c0.5,0,0.9,0.4,0.9,0.9l0,0
		C210.4,85.6,210,86,209.5,86z"/>
	<g>
		<path class="st14" d="M201.9,119.9l-2-0.1c0-0.1,0.7-13.8,14.8-14.5l0.1,2C202.5,108,202,119.4,201.9,119.9z"/>
	</g>
</g>
<g>
	<g>
		<path class="st14" d="M208.2,537.4c0,1.1-0.1,1.9-0.1,3c-1.2-0.9-2.1-1.7-3.1-2.3c-0.5-0.3-1.2-0.6-1.8-0.6c-1-0.1-2,0-3,0
			c-3.5,0-5.9-2.5-5.9-6c0-1.4-0.1-2.7,0-4.1c0.3-3.1,2.6-5.3,5.8-5.3c3.6-0.1,7.3-0.1,10.9,0c3.6,0.1,6,2.5,6,6c0,1.5,0,3-0.1,4.5
			c-0.3,2.7-2.6,4.7-5.3,4.8C210.4,537.4,209.3,537.4,208.2,537.4z"/>
		<path class="st14" d="M171.6,569.2c0-5.2-0.1-10.2,0-15.3c0.1-2.5,2.1-3.7,5.3-4.2c3.3-0.5,5.9,0.7,8,3.2c0.7,0.8,1.4,1.6,2,2.3
			c2.2,2.4,4.9,3.8,8.1,4.2c0.4,0,0.7,0.1,1,0.2c1.4,0.4,2.1,1.4,1.9,2.8c-0.2,1.2-1.1,1.9-2.5,1.9c-3.4-0.1-6.4-1.3-9.2-3.2
			c-0.4-0.3-0.8-0.6-1.4-1c0,0.5-0.1,0.8-0.1,1.2c0,2.3,0,4.7,0,7c0,0.6-0.1,1-0.9,1C179.9,569.2,175.8,569.2,171.6,569.2z"/>
		<path class="st14" d="M226.7,569.1c-0.6,0-1.1,0.1-1.6,0.1c-3.5,0-7.1,0-10.6,0c-1,0-1.2-0.3-1.2-1.2c0.1-2.6,0-5.1,0-7.9
			c-0.5,0.3-0.9,0.6-1.2,0.8c-2.7,2-5.8,3.1-9.1,3.4c-1.6,0.1-2.6-0.6-2.8-1.8c-0.2-1.5,0.5-2.5,2.2-2.9c1.3-0.3,2.6-0.5,3.8-0.9
			c2.3-0.8,4.1-2.4,5.7-4.2c1.4-1.6,2.7-3.3,4.8-4.2c2.8-1.1,5.6-0.8,8.1,0.7c1.2,0.7,1.8,2,1.8,3.4
			C226.8,559.2,226.7,564.1,226.7,569.1z"/>
		<path class="st14" d="M199.7,520.5c-0.8,0.1-1.7,0.1-2.5,0.2c-2.8,0.4-5,2.8-5,5.7c0,1.3,0,2.6,0,3.8c-0.1,0.1-0.2,0.2-0.2,0.2
			c-1.9-0.3-3.2,0.8-4.5,1.9c-0.8,0.7-1.6,1.3-2.6,1.8c0.4-1.2,0.9-2.3,1.4-3.7c-1,0-1.8,0-2.6,0c-4.2,0-6.5-2.3-6.5-6.5
			c0-1.5,0-3.1,0.2-4.6c0.3-2.2,2.7-4.2,4.9-4.2c4.2-0.1,8.4-0.1,12.6,0C197.5,515.2,199.8,517.8,199.7,520.5z"/>
		<circle class="st14" cx="178.1" cy="542.9" r="5.6"/>
		<circle class="st14" cx="220.1" cy="542.9" r="5.6"/>
	</g>
</g>
<g>
	<g>
		<path class="st14" d="M214.1,703.6c-0.1,0.1-0.2,0.2-0.3,0.3c-0.1,0-0.2,0.1-0.3,0.1c-0.2,0-0.4,0-0.7,0c-0.1,0-0.1,0-0.2-0.1
			C213.1,703.6,213.6,703.7,214.1,703.6z"/>
		<path class="st14" d="M185.4,703.8c0.1,0,0.2,0.1,0.3,0.1C185.6,704,185.4,704,185.4,703.8z"/>
		<path class="st14" d="M198.2,718.5c0.6,0.1,0.7,0.5,0.7,1.1c0,0.5-0.4,0.7-0.9,0.8c-0.2,0-0.5,0-0.7,0c-3.3,0-6.6,0-9.9,0
			c-0.2,0-0.3,0-0.5,0c-0.5,0-0.9-0.2-1-0.7s0.1-1,0.6-1.1c0.2,0.2,0.5,0.1,0.7,0.1c3.4,0,6.9,0,10.3,0
			C197.8,718.6,198,718.6,198.2,718.5z"/>
		<path class="st14" d="M198.2,718.5c-0.2,0.2-0.5,0.1-0.7,0.1c-3.4,0-6.9,0-10.3,0c-0.2,0-0.5,0-0.7-0.1c1.6,0,3.1-0.1,4.7-0.1
			C193.5,718.4,195.9,718.4,198.2,718.5z"/>
		<path class="st14" d="M199.7,679.8h-13.1c-0.6,0-1.1-0.5-1.1-1.1l0,0c0-0.6,0.5-1.1,1.1-1.1h13.1c0.6,0,1.1,0.5,1.1,1.1l0,0
			C200.8,679.3,200.3,679.8,199.7,679.8z"/>
		<path class="st14" d="M213.5,689h-27.6c-0.6,0-1.1-0.5-1.1-1.1l0,0c0-0.6,0.5-1.1,1.1-1.1h27.6c0.6,0,1.1,0.5,1.1,1.1l0,0
			C214.6,688.5,214.1,689,213.5,689z"/>
		<path class="st14" d="M213.5,696.4h-27.6c-0.6,0-1.1-0.5-1.1-1.1l0,0c0-0.6,0.5-1.1,1.1-1.1h27.6c0.6,0,1.1,0.5,1.1,1.1l0,0
			C214.6,695.9,214.1,696.4,213.5,696.4z"/>
		<path class="st14" d="M213.5,703.9h-27.6c-0.6,0-1.1-0.5-1.1-1.1l0,0c0-0.6,0.5-1.1,1.1-1.1h27.6c0.6,0,1.1,0.5,1.1,1.1l0,0
			C214.6,703.5,214.1,703.9,213.5,703.9z"/>
		<path class="st14" d="M197.9,720.5H187c-0.6,0-1.1-0.5-1.1-1.1l0,0c0-0.6,0.5-1.1,1.1-1.1h10.9c0.6,0,1.1,0.5,1.1,1.1l0,0
			C199,720,198.5,720.5,197.9,720.5z"/>
		<path class="st14" d="M208.1,665h-26.3c-1.7,0-3.1,1.4-3.1,3.1v54.3c0,1.7,1.4,3.1,3.1,3.1h35.5c1.7,0,3.1-1.4,3.1-3.1v-44.9
			L208.1,665z M208.2,668.1l9,9.3h-9V668.1z M218.6,722.4c0,0.7-0.6,1.3-1.3,1.3h-35.5c-0.7,0-1.3-0.6-1.3-1.3v-54.3
			c0-0.7,0.6-1.3,1.3-1.3h24.6v10.6c0,1,0.8,1.8,1.8,1.8h10.3L218.6,722.4L218.6,722.4z"/>
		<g>
			<path class="st14" d="M203.8,724.8c0.2-0.8,0.4-1.7,0.6-2.5c0.7,0,1.2,0.8,1.9,0.7c0.2,0,0.4,0.1,0.5,0.3c0.7,1,1.5,1.9,2.3,2.8
				c-0.2,1.1-0.4,2.1-0.5,3.2c-0.1,0.4-0.2,0.4-0.5,0.2c-0.5-0.5-1.1-0.9-1.6-1.4c-0.3-0.3-0.6-0.4-1-0.2c-0.7,0.3-1.5,0.5-2.4,0.8
				C203.4,727.3,203.6,726.1,203.8,724.8z"/>
			<path class="st14" d="M214.6,724.4c0.1,0.1,0.1,0.2,0.2,0.4c0.1,0.6,0.1,1.2,0.3,1.8c0.1,0.5-0.1,0.5-0.5,0.4
				c-0.3-0.1-0.6-0.2-0.9-0.3c-1-0.6-1.7-0.3-2.4,0.5c-0.3,0.3-0.7,0.5-1.1,0.9c-0.2-1.1-0.4-2.2-0.6-3.2c0-0.4-0.1-0.8-0.1-1.1
				C211.2,723.5,212.9,723.9,214.6,724.4z"/>
			<path class="st14" d="M209.4,723.6c0,0.4,0.1,0.8,0.1,1.1c-0.4,0.4-0.2,0.9-0.4,1.3c-0.8-0.9-1.7-1.8-2.3-2.8
				c0.8,0.2,1.6,0.1,2.5-0.1C209.3,723.3,209.3,723.5,209.4,723.6z"/>
			<path class="st14" d="M209.3,723.2c-0.8,0.2-1.6,0.2-2.5,0.1c-0.1-0.2-0.3-0.3-0.5-0.3c-0.7-0.4-1-1.3-1.9-1.5
				c-0.3-0.4-0.8-0.5-1.2-0.7c-0.9-0.5-1.4-1.3-1.5-2.3c-0.1-0.9-0.3-1.6-0.9-2.4c-0.6-0.8-0.5-1.8-0.1-2.7c0.5-1,0.9-2,1-3.1
				c0.1-0.7,0.3-1.3,0.9-1.6c1.5-0.7,2.6-1.9,3.9-2.8c0.2-0.1,0.4-0.1,0.6-0.2c0.2,0,0.3,0.1,0.4-0.1l0,0c0.2,0.2,0.4,0.2,0.7,0.1
				c0.6,0.2,1.3,0.4,2,0.2c0.3,0,0.6-0.1,0.9-0.1c0.4,0,0.7,0,1.1,0l0,0l0,0c0.1,0.1,0.3,0.1,0.4,0.2c1.2,1,2.4,2.1,3.9,2.8
				c0.3,0.2,0.5,0.5,0.7,0.8c0.3,1.4,0.5,2.8,1.3,4.1c0.4,0.8,0.3,1.6-0.2,2.4c-0.5,0.8-0.7,1.7-0.8,2.6c-0.1,1.1-0.8,1.9-1.8,2.3
				c-0.7,0.3-1.4,0.5-1.7,1.3c-0.1,0.1-0.3,0.1-0.4,0.3c-0.7,0.8-1.5,1-2.5,0.9C210.6,723.2,209.9,723.1,209.3,723.2z M211.7,722.4
				c0.6,0,1.1-0.3,1.4-0.7c0.7-0.8,1.5-1.4,2.4-1.7c0.7-0.3,1.1-0.9,1.2-1.7c0.1-0.9,0.3-1.8,0.8-2.6s0.5-1.6,0-2.4
				c-0.5-0.8-0.8-1.7-0.8-2.6c-0.1-0.8-0.4-1.3-1.1-1.6c-1-0.4-1.8-1-2.5-1.8c-0.5-0.5-1.1-0.8-1.8-0.6c-1,0.3-2,0.3-3,0
				c-0.8-0.2-1.4,0-1.9,0.6c-0.7,0.8-1.6,1.4-2.5,1.8c-0.6,0.3-1,0.8-1.1,1.5c-0.1,1-0.4,2-0.9,2.9c-0.4,0.7-0.4,1.3,0,2
				c0.5,0.9,0.8,1.8,0.9,2.8c0.1,0.8,0.5,1.4,1.2,1.7c0.9,0.4,1.7,1,2.4,1.8c0.4,0.4,0.8,0.7,1.4,0.6
				C209.1,722.2,210.4,722.1,211.7,722.4z"/>
			<path class="st14" d="M204.5,721.5c0.8,0.2,1.2,1.1,1.9,1.5c-0.8,0.1-1.2-0.6-1.9-0.7C204.4,722,204.4,721.8,204.5,721.5z"/>
			<path class="st14" d="M209.3,723.2c0.7-0.1,1.3,0,2,0.1c1,0.1,1.9-0.1,2.5-0.9c0.1-0.1,0.3-0.2,0.4-0.3c0.1,0.8,0.3,1.5,0.4,2.3
				c-1.7-0.5-3.4-1-5.2-0.8C209.3,723.5,209.3,723.3,209.3,723.2z"/>
			<path class="st14" d="M205.2,718.9c-1.8-1.7-2.3-4.6-1.3-7s3.5-4,6.1-3.8c2.6,0.1,5,1.8,5.6,4c0,0.2,0,0.4,0.2,0.6l0,0
				c0,0.8,0,1.6,0,2.4c0,0.2,0,0.5-0.2,0.5c-0.2,0.1-0.3-0.2-0.4-0.3c-0.7-0.6-1.1-1.5-1.9-2c-0.4,0-0.8,0-1.1,0
				c-0.3-0.9-1.1-1.2-1.7-1.8c0,0-0.2,0.1-0.3,0.1c-0.2-0.1-0.1-0.5-0.4-0.6c-0.2,0.6-0.4,1.2-0.6,1.8c-0.1,0.4-0.3,0.6-0.8,0.6
				c-0.6,0-1.3,0-2,0c0.4,0.3,0.7,0.6,0.9,0.8c0.1,0.6,0.8,0.8,1,1.3c0,0.7-0.5,1.3-0.5,2c0,0.4,0.3,0.5,0.5,0.8
				c0.7,0.8,1.6,1.3,2.2,2.1c-1.8,0.1-2.5,0-3.7-0.5c-0.3-0.1-0.6-0.5-1-0.4l0,0c-0.1-0.1-0.1-0.1-0.2-0.2l0,0
				c-0.1-0.1-0.1-0.1-0.2-0.2l0,0C205.3,719,205.2,719,205.2,718.9z"/>
			<path class="st14" d="M205.7,719.4c0.4-0.1,0.7,0.3,1,0.4c1.2,0.5,1.9,0.6,3.7,0.5c-0.6-0.8-1.5-1.4-2.2-2.1
				c-0.2-0.2-0.5-0.4-0.5-0.8c0.5-0.4,1.1-0.8,1.6-1.2c0.3-0.3,0.6-0.2,0.9,0c0.5,0.4,0.9,0.8,1.5,1c0.1-0.4-0.1-0.7-0.2-1.1
				c-0.4-1.3-0.4-1.2,0.7-2c0.3-0.2,0.7-0.4,1-0.8c0.8,0.5,1.2,1.4,1.9,2c0.1,0.1,0.2,0.4,0.4,0.3c0.2-0.1,0.2-0.3,0.2-0.5
				c0-0.8,0-1.6,0-2.4c1.1,3-0.7,7.1-4.4,8C209.3,721.2,207.4,720.9,205.7,719.4z"/>
			<path class="st14" d="M215.8,712.7c-0.2-0.1-0.2-0.4-0.2-0.6C215.8,712.3,215.8,712.5,215.8,712.7z"/>
			<path class="st14" d="M205.2,718.9c0.1,0.1,0.1,0.1,0.2,0.2C205.3,719,205.2,719,205.2,718.9z"/>
			<path class="st14" d="M205.5,719.2c0.1,0.1,0.1,0.1,0.2,0.2C205.6,719.4,205.6,719.3,205.5,719.2z"/>
			<path class="st14" d="M205.4,719.1c0.1,0.1,0.1,0.1,0.2,0.2C205.4,719.3,205.4,719.2,205.4,719.1z"/>
			<path class="st14" d="M212,713.4c-1.6,0.1-1.6,0.1-2-1.7c0.1,0,0.2-0.1,0.3-0.1C210.9,712.1,211.8,712.5,212,713.4z"/>
			<path class="st14" d="M207.2,714.2c0.3,0.2,0.6,0.4,0.9,0.6c0.3,0.2,0.4,0.5,0.1,0.8C208,714.9,207.2,714.8,207.2,714.2z"/>
		</g>
	</g>
</g>
<g>
	<path class="st14" d="M208.7,871c0,0.2-0.5,0.6-0.7,0.6h-19.3c-0.2,0-0.2-0.4-0.2-0.6v-1.7c0-0.2,0-0.3,0.2-0.3H208
		c0.2,0,0.7,0,0.7,0.3V871z"/>
	<path class="st14" d="M223.3,821.7h-50c-1,0-1.9,0-1.9,1v31v3.8c0,1,1,1.5,1.9,1.5h18.6c-0.3,9.3-3,10.4-3,10.4h18.9
		c0,0-2.5-0.9-2.9-10.4h18.4c1,0,2-0.5,2-1.5v-3.8v-31C225.3,821.7,224.3,821.7,223.3,821.7z M198.3,858.1c-0.7,0-1.3-0.6-1.3-1.3
		s0.6-1.3,1.3-1.3s1.3,0.6,1.3,1.3S199,858.1,198.3,858.1z M223.1,854.6h-49.5V824h49.5V854.6z"/>
	<g>
		<path class="st14" d="M197.5,838.7c0.3-0.8,0.6-1.6,1-2.4c0.9-2.1,1.9-4.1,3.3-5.9c0.7-0.9,2.3-0.7,2.7,0.3c0.1,0.2,0,0.5-0.1,0.6
			c-0.7,1.3-1.6,2.5-2.2,3.8c-1.1,2.2-2,4.4-3,6.6c-0.1,0.2-0.3,0.5-0.6,0.6c-0.6,0.2-1.2,0.3-1.9,0.4c-0.3,0-0.5-0.1-0.6-0.4
			c-1.2-2.1-2.3-4.3-3.5-6.4c-0.2-0.4-0.2-0.7,0.2-1c0.6-0.5,1.2-0.7,2-0.5c0.2,0,0.4,0.2,0.5,0.4c0.6,1.1,1.2,2.1,1.8,3.2
			c0.1,0.2,0.2,0.4,0.2,0.6C197.4,838.7,197.5,838.7,197.5,838.7z"/>
		<path class="st14" d="M204.2,833.5c2,3.4,1.7,7.8-1.6,10.6s-8.1,2.7-11.1-0.3c-3.1-3-3.3-7.7-0.6-11.1c2.8-3.4,7.1-3.5,9.5-2.2
			c-0.2,0.3-0.3,0.6-0.6,0.8c-0.1,0.1-0.3,0.1-0.5,0c-2.7-0.9-5.6-0.2-7.5,1.9c-2.4,2.7-2.3,6.7,0.1,9.4c2.2,2.3,4.8,3,7.8,2
			c2.4-0.9,3.9-2.7,4.3-5.2c0.3-1.5,0.1-3-0.6-4.4c-0.1-0.1-0.1-0.3,0-0.4C203.8,834.3,204,833.9,204.2,833.5z"/>
	</g>
</g>
<g>
	<path class="st15" d="M95.2,1320.9c0.1-2.3-0.7-4.2-1.9-5.9c-0.2,0-0.3,0.1-0.5,0.1c0.1,0.4,0.2,0.8,0.3,1.2
		c0.4,1.3,1.1,2.6,1.1,3.9c0,1-0.5,2.4-1.2,3.1c-2.3,2.4-5.2,3.5-8.6,2.9c-1.2-0.2-2.2-1-3.4-1.6c0.4-0.7,0.5-1,0.9-1.7
		c-0.6,0.1-0.9,0.1-1.2,0.2c-3.1,1.4-6.7-2.7-6.8-5.1c-0.1-2,1.7-3.4,3.4-2.5c1.2,0.6,2.2,1.8,3.3,2.8c0.3,0.3,0.5,0.6,0.9,1
		c0.4-1.6-1.4-3.6-4-4.9c-0.3-2.2,1.1-3.9,3.4-4.2c4.5-0.5,8.2,3,8.4,7.9c0,0.4,0,0.9,0,1.3c0.2,0,0.3,0.1,0.5,0.1
		c0.1-0.4,0.4-0.7,0.4-1.1c0.1-1.9-0.4-3.7-1.4-5.2c-0.6-0.9-0.3-1.5,0.4-1.8c0.7-0.3,1.6-0.6,2.3-0.5c2.9,0.6,4.7,2.5,5.6,5.3
		c0.3,0.9,0,1.9,0,2.8c1.7-0.5,1.4-2.8-0.8-6.3c1.1-2,4.5-2.4,6.1-1.4c1.1,0.7,1.6,1.6,1.6,3c0,1.2,0.2,2.5,0.5,3.7
		c0.2,1,0.6,2-0.4,2.7s-1.9,0.2-2.4-0.8c-0.6,0.2-1.1,0.3-1.9,0.6c2.4-3.2,2.4-5.7,0.1-7.7c0.1,0.6,0.1,1.1,0.2,1.3
		c1.6,2.4,0,5.9-2.8,6.1C96.6,1320.4,96,1320.7,95.2,1320.9z M77.1,1318.4c0,0.1-0.1,0.2-0.1,0.3c0.7,0.7,1.4,1.4,2.1,2.2
		c1.4,1.7,3.2,2.2,5.3,1.8c2.1-0.4,3.3-2.2,2.8-4.4c-0.5-2.2-2.1-3.6-3.7-4.9c-0.1-0.1-0.4,0-0.6,0c0,0.2-0.1,0.6,0,0.7
		c0.5,0.5,1.1,0.9,1.5,1.5c0.7,0.9,1.4,1.9,1.7,2.9c0.5,1.6-0.4,3-2,3.3c-1.8,0.3-3.5,0-4.7-1.7c-0.4-0.6-0.9-1.1-1.5-1.5
		C77.9,1318.3,77.5,1318.4,77.1,1318.4z"/>
	<path class="st15" d="M103,1329.1c0.2-1.4-1-2.6-2.3-2.1c-1,0.3-2,0.9-2.8,1.6c-1.2,1-2.2,2.2-3.3,3.4c-1.8,1.9-4.6,2.1-6.5-0.3
		c-0.1-0.2-0.1-0.6-0.1-0.9c0.1-0.4,0.3-0.9,0.2-1.3c0-0.3-0.3-0.7-0.4-1c-0.2,0.3-0.5,0.6-0.5,0.9c-0.2,1.5-0.9,2.2-2.4,2.5
		c-1.1,0.2-2.3-0.5-2.9-1.7c-0.2-0.5-0.4-1.1-0.7-1.6c-0.2-0.3-0.6-0.5-1-1c0,1.1,0.4,2,0,2.4c-0.9,1-2,2.1-3.2,2.6
		c-2.1,1-3.9,0.2-5.1-1.7c-1.7-2.6-2.5-5.4-0.9-8.3c0.5-1,1.4-1.8,2.1-2.6c1.2,1.4,2.3,2.6,3.3,3.7c-1.8,2-2.4,4.8-1,6.7
		c0.1-0.6,0.2-1,0.2-1.3c0-0.7-0.1-1.5,0.1-2.1c0.4-0.9,0.9-2.2,1.7-2.5c1.1-0.4,2.4-0.5,3.5,0.8c2.1,2.4,4.9,2.4,7.7,1.5
		c1.2-0.4,2.4-1,3.8-1.6c-0.4,0.9-0.8,1.7-1.1,2.5c-0.1,0.2,0,0.5-0.1,0.8c0.3-0.1,0.6-0.1,0.8-0.3c0.4-0.6,0.6-1.2,0.9-1.8
		c0.3-0.7,0.5-1.5,0.8-2.3c1.3-3,4.4-4.1,7.3-2.7c1.6,0.8,2.1,2.3,2.3,4c0.1,1,0.2,2.1,0.6,3c0.3,0.6,1.1,0.9,1.8,1.2
		c0.1,0,0.3-0.3,0.5-0.5c-0.1-0.2-0.3-0.4-0.4-0.4c-1.3,0-1.2-1-1.4-1.9c-0.3-1.6-0.7-3.3-1-5.1c0.3,0.1,0.8,0.1,1.2,0.3
		c1,0.6,1.9,1.2,2.9,1.9c2,1.4,2.9,3.9,1.9,5.8c-1,2.1-3.6,3.1-5.9,2.2c-2.2-0.8-3.1-2.1-3.1-4.1
		C101.7,1327.2,102.1,1328.8,103,1329.1z"/>
	<path class="st15" d="M94,1305.8c1.2,0.1,1.2-0.7,1.3-1.3c0.3-1.6-0.6-3.5-1.9-4.1c-1.7-0.8-2.8-0.3-4.7,2.1
		c-1.3-1.6-1.3-2.1,0.5-3c3.9-2.1,7.8-1.9,11.4,0.6c0.9,0.6,1.6,1.7,2.6,2.7c-2,0.6-3.5,1.5-4.2,3.2c-0.4,0.9-0.4,1.9-0.6,2.9
		c0.2,0.1,0.4,0.1,0.6,0.2c0.1-0.4,0.3-0.8,0.4-1.2c0.3-2.6,2.4-4.3,4.9-4.1c2.4,0.3,3.3,2.4,1.9,4.4c-0.3,0.4-0.5,0.7-0.8,1.1
		c0.1,0.1,0.2,0.2,0.2,0.3c0.4-0.1,0.7-0.3,1.1-0.4c0.9-0.3,1.9-0.7,2.8-0.8c2.4-0.2,3.6,1.6,2.6,3.9c-3.5-0.7-4.4-0.4-7.3,1.9
		c0-2.1-1.2-3.3-3-4.1c0.6-1.1,1.2-2,1.7-3c-0.2-0.1-0.4-0.2-0.6-0.4c-0.7,1-1.5,2.1-2.3,3.2c-1.9-0.2-3.7,0.5-5.2,2
		c-0.8-0.5-1.5-1-2.2-1.4c-1.2-0.7-1.7-1.8-1.4-3.2c0.2-0.8,0.2-1.6,0.3-2.4c0-0.2-0.4-0.4-0.7-0.6c-0.1,0.3-0.1,0.5-0.2,0.8
		c-0.1,0.4-0.1,0.9-0.1,1.3c-0.1,1.1-0.2,2.2-0.3,3.3c-1,0.5-2.3,1-3.9,1.8c-0.6-0.7-1.7-1.6-2.3-2.8c-0.5-1.2-0.4-2.6-0.7-4
		c-1.1,1.5-0.6,3.1-0.1,4.8c-1.1-0.1-2.2-0.2-3.2-0.3c-1.4-2.8-1.2-5.4,0.6-7.4c2.4-2.6,5-1.5,6.5,1.4c0.1,0.3,0.2,0.6,0.3,0.9
		c0.2,0.3,0.5,0.6,0.7,0.8c0.2-0.3,0.4-0.6,0.5-1c0.1-0.3,0.2-0.7,0.3-1c0.6-1.6,1.8-2.3,3.1-1.8c1.2,0.5,1.9,2.2,1.5,3.6
		C94.2,1305.1,94.1,1305.4,94,1305.8z"/>
	<path class="st15" d="M109.1,1316.6c-0.9,2-1.7,3.9-2.6,5.9c-0.6-0.4-1-0.8-1.5-1.2c0.8-1.4,0.7-2.8,0-4.2c-0.1-0.3-0.1-0.8,0-1.1
		c1-2.8,4.9-4,7.3-2.3c1.6,1.1,2.1,2.8,1.3,4.7c-0.1,0.4-0.2,0.8-0.3,1.1c0.1,0.1,0.2,0.1,0.3,0.2c0.3-0.2,0.5-0.4,0.8-0.6
		c0.5-0.5,0.9-1.1,1.5-1.5c1.9-1.7,3.7-1.8,5.6-0.3c1.5,1.2,2,4.1,1.1,5.9c-1.1,2.1-2.7,3.3-5,3.5c-0.2,0-0.5,0.3-0.7,0.4
		c0.2,0.2,0.5,0.5,0.7,0.5c1.7,0.2,3-0.7,4.3-1.7c0.3-0.2,0.6-0.5,1-0.9c0.5,1.9-0.5,3.1-1.4,4.3c-2.2,2.8-6.5,3.2-9.3,2.4
		c-1.1-0.3-1.8-1-1.5-2.4c0.1-0.7,0-1.4,0-2.2c3.1,0.3,5.2-1.4,7-3.7c0.6-0.8,1.6-1.3,2.5-2.3c-0.5,0.1-1.2-0.1-1.6,0.2
		c-0.8,0.6-1.4,1.3-2,2.1c-1.3,1.5-2.6,2.8-4.7,2.7c-0.6,0-1.3-0.5-1.8-0.9c-0.6-0.4-0.9-1.1-1.5-1.5c-1-0.6-1-1.4-0.4-2.2
		c0.5-0.8,1-1.6,1.4-2.4C109.6,1318.2,109.9,1317.2,109.1,1316.6z"/>
	<path class="st35" d="M85.7,1356.5c1.7-3.7,3.4-7.3,5.1-11.2c-2.8,0-5,0-7.5,0c1.3-2.7,2.5-5.3,3.8-8.1c4,0.7,6.1-1.8,8.6-3.9
		c0.7-0.6,1.5-1.1,2.1-1.6c0.8,1,1.4,2,2.2,2.8c0.7,0.7,0.2,1.1-0.2,1.6c-1,1.3-2,2.6-3.2,4.3c2.4,0.1,4.3,0.2,6.5,0.3
		c-5.8,5.4-11.5,10.6-17.2,15.9C85.8,1356.6,85.7,1356.6,85.7,1356.5z"/>
	<path class="st15" d="M111,1307.4c-1.2,0.1-2.2,0.2-3.3,0.3c0-0.3,0-0.6,0.1-1c0.1-1.8-0.5-3-2.1-3.4s-2.3-1.4-2.9-2.8
		c0.9-1.4,2.4-1.3,3.7-1.1c2.1,0.4,3.9,1.4,4.6,3.8c0.1,0.3,0.7,0.6,1.1,0.7c4.3,0.3,6.8,3.6,6.1,8c-0.1,0.3,0,0.7,0,1.2
		c1.5-0.8,0.9-2.1,1.3-3.2c1.3,0,2,0.9,2.4,1.9c0.3,0.7,0.4,1.6,0.4,2.4c0,1.6-0.4,1.9-1.9,1.4c-1.4-0.5-2.7-0.3-3.9,0.5
		c-0.4,0.3-0.9,0.6-1,0.7c-0.7-1.2-1.3-2.3-1.9-3.4c-0.2-0.3-0.1-0.8-0.2-1.2c-0.2-1.1,0-2.5-0.5-3.3c-1-1.2-0.9-1.9,0.3-2.7
		C112.1,1305.5,111.8,1305.7,111,1307.4z"/>
	<path class="st15" d="M79.6,1309.7c-1.8,0.9-3.1,2.2-3.1,4.5c-2.5,0.9-3.6-0.1-3.7-3.2c-0.1-2.5,1.8-5.2,4.1-6
		c0.6-0.2,1.2-0.2,1.9-0.3C79,1306.5,79.3,1308.1,79.6,1309.7z"/>
	<path class="st15" d="M71.9,1312.3c0.2,1.8,1.7,2.9,1.4,5c-0.3,2.1-1.7,2.8-2.6,4.1C68.3,1319.3,68.9,1314.3,71.9,1312.3z"/>
</g>
<g>
	<path class="st14" d="M323,1323.9c0,7.5,0,14.9,0,22.4c0,2.6-1.5,4.2-4.2,4.2c-11.2,0-22.3,0-33.5,0c-2.5,0-4.1-1.6-4.1-4.1
		c0-11.9,0-23.8,0-35.7c0-1.3,0.4-2.4,1.4-3.3c2.9-2.9,5.8-5.8,8.7-8.7c0.9-0.9,2-1.4,3.3-1.4c8.1,0,16.2,0,24.3,0
		c2.5,0,4.1,1.6,4.1,4.1C323,1308.9,323,1316.4,323,1323.9z M285,1310.5c0,0.4,0,0.7,0,1c0,4.2,0,8.3,0,12.5c0,7,0,14,0,21.1
		c0,1.5,0.2,1.6,1.6,1.6c10.4,0,20.7,0,31.1,0c1.3,0,1.5-0.2,1.5-1.5c0-8,0-16,0-24c0-6.2,0-12.5,0-18.7c0-1.2-0.3-1.5-1.5-1.5
		c-7.5,0-14.9,0-22.4,0c-0.3,0-0.6,0-0.8,0c-0.1,0.2-0.1,0.2-0.1,0.3c0,1.7,0,3.5,0,5.2c0,2.4-1.6,4-4,4
		C288.7,1310.5,286.9,1310.5,285,1310.5z"/>
	<path class="st14" d="M302.2,1319.7c4.5,0,9,0,13.5,0c1.2,0,1.7,0.4,1.7,1.7c0,6.5,0,10.5,0,17c0,1-0.4,1.5-1.4,1.5
		c-9.2,0-18.3,0-27.5,0c-1,0-1.4-0.4-1.4-1.5c0-5,0-10.1,0-15.1c0-1.5,0-0.4,0-1.9c0-1.1,0.4-1.6,1.6-1.6
		C293.1,1319.7,297.6,1319.7,302.2,1319.7z M298.3,1338c2.6,0,5.1,0,7.6,0c0-1.3,0-2.5,0-3.7c-2.6,0-5.1,0-7.6,0
		C298.3,1335.5,298.3,1336.7,298.3,1338z M315.4,1334.2c-2.6,0-5.1,0-7.6,0c0,1.3,0,2.5,0,3.7c2.6,0,5.1,0,7.6,0
		C315.4,1336.7,315.4,1335.5,315.4,1334.2z M296.4,1322.8c-2.6,0-5.1,0-7.6,0c0,1.3,0,2.5,0,3.8c2.6,0,5.1,0,7.6,0
		C296.4,1325.3,296.4,1324.1,296.4,1322.8z M305.9,1322.8c-2.6,0-5.1,0-7.6,0c0,1.3,0,2.6,0,3.8c2.6,0,5,0,7.6,0
		C305.9,1325.3,305.9,1324.1,305.9,1322.8z M307.9,1322.8c0,1.3,0,2.5,0,3.8c2.6,0,5.1,0,7.6,0c0-1.3,0-2.5,0-3.8
		C312.9,1322.8,310.4,1322.8,307.9,1322.8z M288.8,1332.3c2.6,0,5.1,0,7.6,0c0-1.3,0-2.5,0-3.8c-2.6,0-5.1,0-7.6,0
		C288.8,1329.8,288.8,1331,288.8,1332.3z M298.4,1328.5c0,1.3,0,2.6,0,3.8c2.6,0,5,0,7.6,0c0-1.3,0-2.5,0-3.8
		C303.4,1328.5,300.9,1328.5,298.4,1328.5z M315.4,1328.5c-2.6,0-5.1,0-7.6,0c0,1.3,0,2.5,0,3.8c2.6,0,5,0,7.6,0
		C315.4,1331,315.4,1329.8,315.4,1328.5z M296.4,1334.2c-2.6,0-5.1,0-7.6,0c0,1.3,0,2.5,0,3.7c2.6,0,5.1,0,7.6,0
		C296.4,1336.7,296.4,1335.5,296.4,1334.2z"/>
	<g>
		<path class="st14" d="M307.8,1315.2c-2.8,0-5.1-2.3-5.1-5.1c0-1.6,0.8-3.2,2.1-4.1c0.1-0.1,0.3-0.1,0.4-0.1s0.3,0.1,0.3,0.2l2.5,4
			l4.3,1.2c0.1,0,0.2,0.1,0.3,0.3c0.1,0.1,0.1,0.3,0,0.4C311.9,1313.9,309.9,1315.2,307.8,1315.2z M304.9,1307.1
			c-0.8,0.8-1.3,1.9-1.3,3c0,2.3,1.9,4.1,4.1,4.1c1.5,0,3-0.9,3.7-2.2l-3.9-1.1c-0.1,0-0.2-0.1-0.3-0.2L304.9,1307.1z"/>
	</g>
	<path class="st14" d="M308.6,1309.2h-0.1c-0.1,0-0.2-0.1-0.3-0.2l-2.6-4.1c-0.1-0.2-0.1-0.5,0.1-0.7c0.9-0.6,1.9-1,3-1
		c1.8,0,3.6,1,4.5,2.6c0.1,0.2,0.1,0.5-0.2,0.7l-4.2,2.6C308.7,1309.1,308.7,1309.2,308.6,1309.2z M306.7,1304.7l2,3.3l3.3-2.1
		c-0.8-1.1-2-1.7-3.3-1.7C308,1304.2,307.3,1304.4,306.7,1304.7z"/>
	<path class="st14" d="M315.1,1311.1H315l-4.5-1.2c-0.2-0.1-0.3-0.2-0.4-0.4c0-0.2,0.1-0.4,0.2-0.5l4.2-2.7c0.1-0.1,0.3-0.1,0.4-0.1
		s0.2,0.1,0.3,0.2c0.4,0.8,0.7,1.6,0.7,2.5c0,0.6-0.1,1.2-0.3,1.8C315.5,1311,315.3,1311.1,315.1,1311.1z M311.8,1309.2l2.9,0.8
		c0.1-0.3,0.1-0.7,0.1-1c0-0.5-0.1-1.1-0.3-1.6L311.8,1309.2z"/>
</g>
<g>
	<circle class="st17" cx="243.7" cy="1054.7" r="35.9"/>
	<g>
		<path class="st36" d="M243.7,1026.3c2.5,0,4.7,3.2,6.3,8.4c0.3,0.9,0.5,1.8,0.8,2.8c0.9-0.6,1.7-1,2.5-1.5
			c4.8-2.5,8.7-3.2,10.4-1.5c1.8,1.8,1.1,5.6-1.5,10.4c-1.6,2.9-3.8,6.2-6.6,9.6c2.8,3.4,5,6.7,6.6,9.6c2.5,4.8,3.2,8.7,1.5,10.4
			c-1.8,1.8-5.6,1.1-10.4-1.5c-0.8-0.4-1.7-0.9-2.5-1.5c-0.3,1-0.5,2-0.8,2.8c-1.6,5.2-3.8,8.4-6.3,8.4s-4.7-3.2-6.3-8.4
			c-0.3-0.9-0.5-1.8-0.8-2.8c-0.9,0.6-1.7,1-2.5,1.5c-4.8,2.5-8.7,3.2-10.4,1.5c-1.8-1.8-1.1-5.6,1.5-10.4c1.6-2.9,3.8-6.2,6.6-9.6
			c-2.8-3.4-5.1-6.7-6.6-9.6c-2.5-4.8-3.2-8.7-1.5-10.4c1.8-1.8,5.6-1.1,10.4,1.5c0.8,0.4,1.7,0.9,2.5,1.5c0.2-1,0.5-2,0.8-2.8
			C239,1029.5,241.2,1026.3,243.7,1026.3L243.7,1026.3z M250.9,1038.1c0.8,3.7,1.4,8.1,1.6,12.9c1,1.1,2,2.2,2.8,3.3
			c2.8-3.4,5-6.6,6.5-9.5c2.4-4.6,3.1-8.2,1.6-9.8c-1.6-1.6-5.2-0.9-9.8,1.6C252.7,1037,251.8,1037.5,250.9,1038.1L250.9,1038.1z
			 M236.5,1071.2c-0.8-3.7-1.4-8.1-1.6-12.9c-1-1.1-2-2.2-2.8-3.2c-2.8,3.4-5,6.6-6.5,9.5c-2.4,4.6-3.1,8.2-1.6,9.8
			c1.6,1.6,5.2,0.9,9.8-1.6C234.7,1072.3,235.6,1071.8,236.5,1071.2L236.5,1071.2z M255.3,1055c-0.9,1.1-1.9,2.2-2.8,3.2
			c-0.2,4.8-0.8,9.2-1.6,12.9c0.9,0.6,1.8,1.1,2.7,1.6c4.6,2.4,8.2,3.1,9.8,1.6c1.6-1.6,0.9-5.2-1.6-9.8
			C260.3,1061.6,258.1,1058.4,255.3,1055L255.3,1055z M252,1058.9c-0.7,0.7-1.3,1.4-2,2.1l0,0l0,0c-2,2-3.9,3.7-5.9,5.4
			c2.2,1.8,4.3,3.4,6.4,4.7C251.2,1067.4,251.8,1063.3,252,1058.9L252,1058.9z M243.7,1066.6c-2.3,1.9-4.5,3.5-6.6,4.9
			c0.2,1.1,0.5,2,0.8,3c1.5,5,3.6,8.1,5.9,8.1c2.2,0,4.3-3.1,5.8-8.1c0.3-0.9,0.6-1.9,0.8-3C248.2,1070.1,246,1068.5,243.7,1066.6
			L243.7,1066.6z M232.1,1054.3c0.9-1.1,1.8-2.2,2.8-3.3c0.2-4.8,0.8-9.2,1.6-12.9c-0.9-0.6-1.8-1.1-2.7-1.5
			c-4.6-2.4-8.2-3.1-9.8-1.6c-1.6,1.6-0.9,5.2,1.6,9.8C227.1,1047.7,229.3,1050.9,232.1,1054.3L232.1,1054.3z M235.4,1050.5
			c0.6-0.7,1.3-1.4,2-2.1l0,0l0,0c2-2,3.9-3.7,5.9-5.4c-2.2-1.8-4.3-3.4-6.4-4.7C236.2,1041.9,235.6,1046,235.4,1050.5L235.4,1050.5
			z M243.7,1042.7c2.3-1.9,4.5-3.5,6.6-4.9c-0.3-1.1-0.5-2-0.8-3c-1.5-5-3.6-8.1-5.8-8.1c-2.3,0-4.3,3.1-5.9,8.1
			c-0.3,0.9-0.6,1.9-0.8,3C239.2,1039.2,241.4,1040.8,243.7,1042.7L243.7,1042.7z M250.4,1038.4c-2,1.3-4.2,2.9-6.4,4.7
			c2,1.6,3.9,3.4,5.9,5.4l0,0l0,0c0.7,0.7,1.3,1.4,2,2.1C251.8,1046,251.2,1041.9,250.4,1038.4L250.4,1038.4z M243.7,1043.3
			c-2,1.6-3.9,3.4-5.9,5.4l0,0l0,0c-0.8,0.8-1.6,1.6-2.4,2.5c0,1.1-0.1,2.3-0.1,3.4s0,2.3,0.1,3.4c0.8,0.8,1.6,1.7,2.4,2.5l0,0l0,0
			c2,2,3.9,3.8,5.9,5.4c2-1.6,3.9-3.4,5.9-5.4l0,0l0,0c0.8-0.8,1.6-1.7,2.4-2.5c0-1.1,0.1-2.2,0.1-3.4s0-2.3-0.1-3.4
			c-0.8-0.8-1.6-1.7-2.4-2.5l0,0l0,0C247.6,1046.8,245.7,1045,243.7,1043.3L243.7,1043.3z M234.9,1051.8c-0.9,1-1.7,1.9-2.5,2.9
			c0.8,0.9,1.6,1.9,2.5,2.9c0-0.9,0-1.9,0-2.9C234.8,1053.7,234.9,1052.7,234.9,1051.8L234.9,1051.8z M237,1071
			c2-1.3,4.2-2.9,6.4-4.7c-2-1.6-3.9-3.4-5.9-5.4l0,0l0,0c-0.7-0.7-1.4-1.4-2-2.1C235.6,1063.3,236.2,1067.4,237,1071L237,1071z
			 M252.5,1057.5c0.9-1,1.7-1.9,2.5-2.9c-0.8-0.9-1.6-1.9-2.5-2.9c0,0.9,0,1.9,0,2.9C252.6,1055.6,252.5,1056.6,252.5,1057.5
			L252.5,1057.5z"/>
		<path class="st37" d="M243.7,1025.7c1.4,0,2.8,0.9,3.9,2.4c1.1,1.5,2.1,3.7,3,6.4c0.1,0.5,0.3,0.9,0.4,1.4
			c0.1,0.2,0.1,0.5,0.2,0.7c0.2-0.1,0.4-0.2,0.6-0.3l0,0c0.5-0.3,0.9-0.5,1.3-0.7c2.5-1.3,4.8-2.2,6.6-2.4c1.9-0.3,3.5,0.1,4.5,1.1
			l0,0c1,1,1.3,2.5,1.1,4.5c-0.3,1.9-1.1,4.2-2.4,6.7c-0.8,1.5-1.8,3.1-2.9,4.7c-1,1.5-2.2,3-3.5,4.6c1.3,1.6,2.4,3.1,3.5,4.6
			c1.1,1.7,2.1,3.2,2.9,4.7c1.3,2.5,2.2,4.8,2.4,6.6c0.3,1.9,0,3.5-1.1,4.5c-1,1-2.6,1.3-4.5,1.1c-1.9-0.3-4.1-1.1-6.6-2.4
			c-0.4-0.2-0.8-0.4-1.3-0.7c-0.2-0.1-0.4-0.3-0.6-0.4c-0.1,0.2-0.1,0.5-0.2,0.7c-0.1,0.5-0.3,0.9-0.4,1.4c-0.8,2.7-1.9,4.9-3,6.4
			c-1.2,1.6-2.5,2.4-3.9,2.4s-2.8-0.8-3.9-2.4c-1.1-1.5-2.2-3.7-3-6.4l0,0c-0.1-0.5-0.3-0.9-0.4-1.4c-0.1-0.2-0.1-0.4-0.2-0.7
			c-0.2,0.1-0.4,0.3-0.6,0.4c-0.5,0.3-0.9,0.5-1.3,0.7c-2.5,1.3-4.8,2.2-6.7,2.4c-1.9,0.3-3.5,0-4.5-1.1c-1-1-1.3-2.6-1.1-4.5
			c0.3-1.9,1.1-4.1,2.4-6.6c0.8-1.5,1.8-3.1,2.9-4.7c1-1.5,2.2-3.1,3.4-4.6c-1.3-1.6-2.4-3.1-3.4-4.6c-1.1-1.7-2.1-3.2-2.9-4.7
			c-1.3-2.5-2.2-4.8-2.4-6.7c-0.3-1.9,0.1-3.5,1.1-4.5l0,0c1-1,2.5-1.3,4.5-1.1c1.9,0.3,4.2,1.1,6.7,2.4c0.4,0.2,0.8,0.5,1.3,0.7
			c0.2,0.1,0.4,0.2,0.6,0.3c0.1-0.2,0.1-0.4,0.2-0.7c0.1-0.5,0.3-0.9,0.4-1.4l0,0c0.8-2.7,1.8-4.9,3-6.4
			C240.9,1026.6,242.3,1025.7,243.7,1025.7L243.7,1025.7z M251.6,1038.4c0.4,1.8,0.7,3.7,1,5.8c0.3,2.1,0.4,4.3,0.6,6.6
			c0.5,0.5,0.9,1,1.3,1.4c0.3,0.4,0.6,0.7,0.9,1.1c1.1-1.4,2.2-2.9,3.2-4.3c1.1-1.6,2-3.1,2.8-4.5c1.2-2.3,2-4.3,2.3-5.9
			c0.2-1.4,0-2.5-0.6-3.2l0,0c-0.6-0.6-1.7-0.8-3.2-0.6c-1.6,0.3-3.7,1-5.9,2.2c-0.4,0.2-0.9,0.5-1.3,0.7
			C252.2,1038,251.9,1038.2,251.6,1038.4L251.6,1038.4z M235.8,1071c-0.4-1.8-0.7-3.7-1-5.8c-0.3-2.1-0.4-4.3-0.5-6.6
			c-0.5-0.5-0.9-1-1.3-1.4c-0.3-0.4-0.6-0.7-0.9-1.1c-1.2,1.4-2.2,2.9-3.2,4.2c-1.1,1.6-2,3.1-2.8,4.5c-1.2,2.3-2,4.3-2.2,5.9
			c-0.2,1.4-0.1,2.5,0.6,3.2c0.6,0.6,1.7,0.8,3.2,0.6c1.6-0.3,3.6-1,5.9-2.3c0.4-0.2,0.9-0.5,1.3-0.7
			C235.2,1071.3,235.5,1071.2,235.8,1071L235.8,1071z M255.3,1056c-0.3,0.3-0.6,0.7-0.9,1.1c-0.4,0.4-0.8,0.9-1.3,1.4
			c-0.1,2.3-0.3,4.5-0.6,6.6c-0.2,2.1-0.6,4-1,5.8c0.3,0.2,0.7,0.4,1,0.6c0.4,0.3,0.9,0.5,1.3,0.7l0,0c2.3,1.2,4.3,2,5.9,2.3
			c1.4,0.2,2.5,0,3.2-0.6c0.6-0.6,0.8-1.7,0.6-3.2c-0.3-1.6-1-3.6-2.3-5.9c-0.8-1.4-1.7-3-2.8-4.5
			C257.6,1058.9,256.5,1057.5,255.3,1056L255.3,1056z M251.3,1060.5c-0.3,0.3-0.6,0.6-0.9,0.9l0,0l0,0c-0.9,0.9-1.9,1.9-2.9,2.8
			c-0.8,0.8-1.6,1.5-2.4,2.2c0.9,0.7,1.8,1.4,2.6,2s1.6,1.1,2.4,1.7c0.3-1.5,0.6-3.1,0.8-4.8C251,1063.6,251.2,1062.1,251.3,1060.5
			L251.3,1060.5z M243.7,1067.4c-1,0.8-2,1.6-3,2.3c-1,0.8-2,1.4-2.9,2c0.1,0.4,0.2,0.7,0.3,1.1c0.1,0.5,0.3,1,0.4,1.4l0,0
			c0.7,2.5,1.6,4.5,2.6,5.8c0.8,1.2,1.7,1.8,2.6,1.8c0.9,0,1.8-0.6,2.6-1.8c1-1.4,1.9-3.3,2.6-5.8c0.1-0.4,0.3-0.9,0.4-1.4
			c0.1-0.4,0.2-0.7,0.3-1.1c-1-0.6-2-1.3-2.9-2C245.7,1069,244.7,1068.2,243.7,1067.4L243.7,1067.4z M232.1,1053.3
			c0.3-0.4,0.6-0.7,0.9-1.1c0.4-0.4,0.8-0.9,1.3-1.4c0.1-2.3,0.3-4.5,0.5-6.6c0.3-2,0.6-4,1-5.8c-0.3-0.2-0.6-0.4-1-0.6
			c-0.4-0.3-0.9-0.5-1.3-0.7l0,0c-2.3-1.2-4.3-2-5.9-2.2c-1.4-0.2-2.5-0.1-3.2,0.6l0,0c-0.6,0.6-0.8,1.7-0.6,3.2
			c0.3,1.6,1,3.6,2.2,5.9c0.8,1.4,1.7,3,2.8,4.5C229.8,1050.4,230.9,1051.9,232.1,1053.3L232.1,1053.3z M236.1,1048.9
			c0.3-0.3,0.6-0.6,0.8-0.9l0,0l0,0c0.9-0.9,1.9-1.9,2.9-2.8c0.8-0.7,1.6-1.4,2.4-2.1c-0.9-0.7-1.7-1.4-2.6-2
			c-0.8-0.6-1.6-1.1-2.4-1.7c-0.3,1.5-0.6,3.1-0.8,4.8C236.4,1045.7,236.2,1047.2,236.1,1048.9L236.1,1048.9z M243.7,1041.9
			c1-0.8,2-1.6,3-2.3c1-0.7,2-1.4,2.9-2c-0.1-0.4-0.2-0.7-0.3-1.1c-0.1-0.5-0.3-1-0.4-1.4l0,0c-0.8-2.5-1.6-4.4-2.6-5.8
			c-0.8-1.2-1.7-1.8-2.6-1.8c-0.9,0-1.8,0.6-2.6,1.8c-1,1.4-1.9,3.3-2.6,5.8c-0.1,0.4-0.3,0.9-0.4,1.4c-0.1,0.4-0.2,0.7-0.3,1.1
			c0.9,0.6,1.9,1.3,2.9,2C241.7,1040.3,242.7,1041.1,243.7,1041.9L243.7,1041.9z M250,1039.3c-0.8,0.5-1.6,1.1-2.4,1.7
			c-0.9,0.6-1.7,1.3-2.6,2c0.8,0.7,1.6,1.4,2.4,2.1c1,0.9,2,1.8,2.9,2.8l0,0l0,0l0,0l0,0c0.3,0.3,0.6,0.6,0.9,0.9
			c-0.1-1.6-0.3-3.2-0.4-4.7C250.6,1042.5,250.3,1040.9,250,1039.3L250,1039.3z M243.7,1044.1c-0.8,0.7-1.7,1.5-2.6,2.3
			c-1,0.9-1.9,1.8-2.9,2.8l0,0l0,0l0,0c-0.4,0.4-0.8,0.8-1.2,1.2c-0.3,0.4-0.7,0.7-1,1.1c0,0.5,0,1,0,1.5s0,1.1,0,1.7s0,1.2,0,1.7
			s0,1,0,1.5c0.3,0.4,0.7,0.7,1,1.1c0.4,0.4,0.8,0.8,1.2,1.2l0,0l0,0l0,0c1,1,2,1.9,2.9,2.8c0.8,0.8,1.7,1.5,2.6,2.2
			c0.8-0.7,1.7-1.5,2.6-2.2c0.9-0.9,1.9-1.8,2.9-2.8l0,0c0.4-0.4,0.8-0.8,1.2-1.2c0.3-0.3,0.7-0.7,1-1.1c0-0.5,0-1,0-1.5
			s0-1.1,0-1.7s0-1.2,0-1.7s0-1,0-1.5c-0.3-0.4-0.7-0.7-1-1.1c-0.4-0.4-0.8-0.8-1.2-1.2l0,0l0,0c-1-1-2-1.9-2.9-2.8
			C245.4,1045.6,244.6,1044.9,243.7,1044.1L243.7,1044.1z M234.2,1053.4l-0.2,0.2c-0.3,0.3-0.6,0.7-0.9,1c0.3,0.3,0.6,0.7,0.9,1
			l0.2,0.2c0-0.5,0-0.9,0-1.2S234.2,1053.9,234.2,1053.4L234.2,1053.4z M237.4,1070c0.8-0.5,1.6-1.1,2.4-1.7c0.9-0.6,1.7-1.3,2.6-2
			c-0.8-0.7-1.6-1.4-2.4-2.2c-1-0.9-2-1.8-2.9-2.8l0,0l0,0l0,0l0,0c-0.3-0.3-0.6-0.6-0.8-0.9c0.1,1.6,0.3,3.2,0.4,4.7
			C236.8,1066.8,237,1068.5,237.4,1070L237.4,1070z M253.2,1055.9l0.2-0.2c0.3-0.3,0.6-0.7,0.9-1c-0.3-0.3-0.6-0.7-0.9-1l-0.2-0.2
			c0,0.5,0,0.9,0,1.2C253.2,1055.1,253.2,1055.5,253.2,1055.9L253.2,1055.9z"/>
		<path class="st38" d="M243.7,1050.6c2.2,0,4,1.8,4,4s-1.8,4-4,4s-4-1.8-4-4S241.5,1050.6,243.7,1050.6L243.7,1050.6z"/>
		<path class="st39" d="M242.4,1052.4c-0.3-0.2-0.8,0.1-1.2,0.6c-0.4,0.6-0.5,1.1-0.2,1.3c0.3,0.2,0.8-0.1,1.2-0.6
			C242.6,1053.1,242.7,1052.5,242.4,1052.4L242.4,1052.4z"/>
		<g>
			<path class="st37" d="M243.7,1045.2c14.1,0,29,3.3,29,9.5c0,6.1-14.9,9.5-29,9.5s-29-3.3-29-9.5
				C214.7,1048.5,229.7,1045.2,243.7,1045.2z M243.7,1062.1c15.9,0,27-4,27-7.5c0-3.6-11.1-7.5-27-7.5s-27,4-27,7.5
				C216.7,1058.2,227.8,1062.1,243.7,1062.1z"/>
		</g>
	</g>
</g>
<g>
	<circle class="st17" cx="131.7" cy="1113.7" r="35.9"/>
	<g>
		<path class="st40" d="M147.5,1104.8c0-9-7.6-16.3-16.7-15.7c-7.7,0.5-14,6.7-14.6,14.4c-0.4,5.2,1.7,9.9,5.2,13
			c2.4,2.2,3.8,5.2,3.8,8.5v6.9h13.6v-7.2c0-3.1,1.2-6.1,3.5-8.2C145.5,1113.6,147.5,1109.5,147.5,1104.8"/>
		<path class="st41" d="M131.3,1106.2c0-0.2,0-0.3,0-0.5c-0.4,0-0.7-0.1-1.1-0.1c-1.8,0-3.7,0.6-5.1,1.5l0.4,0.4
			c1.3-0.9,3-1.4,4.7-1.4C130.5,1106.2,130.9,1106.2,131.3,1106.2C131.3,1106.3,131.3,1106.2,131.3,1106.2z"/>
		<path class="st42" d="M131.3,1119.9l-6.7-14.3c-0.2-0.4-0.6-0.6-1-0.4s-0.6,0.6-0.4,1l6.4,13.7v17.4h1.9L131.3,1119.9z"/>
		
			<radialGradient id="SVGID_1_" cx="-2983.564" cy="1431.8389" r="0.1287" gradientTransform="matrix(-1 0 0 -1 -2848.8728 2544)" gradientUnits="userSpaceOnUse">
			<stop  offset="0" style="stop-color:#EE2A48"/>
			<stop  offset="0.361" style="stop-color:#F04F6A"/>
			<stop  offset="0.7561" style="stop-color:#EE2A48"/>
			<stop  offset="1" style="stop-color:#F04F6A"/>
		</radialGradient>
		<path class="st43" d="M134.7,1112.2C134.7,1112.2,134.6,1112.1,134.7,1112.2C134.7,1112.1,134.7,1112.2,134.7,1112.2z"/>
		
			<radialGradient id="SVGID_2_" cx="-2983.5139" cy="1438.2029" r="0.3165" gradientTransform="matrix(-1 0 0 -1 -2848.8728 2544)" gradientUnits="userSpaceOnUse">
			<stop  offset="0" style="stop-color:#EE2A48"/>
			<stop  offset="0.361" style="stop-color:#F04F6A"/>
			<stop  offset="0.7561" style="stop-color:#EE2A48"/>
			<stop  offset="1" style="stop-color:#F04F6A"/>
		</radialGradient>
		<path class="st44" d="M134.6,1105.8C134.6,1105.7,134.6,1105.7,134.6,1105.8C134.5,1105.8,134.4,1105.8,134.6,1105.8z"/>
		
			<radialGradient id="SVGID_3_" cx="-2983.6729" cy="1438.3" r="0" gradientTransform="matrix(-1 0 0 -1 -2848.8728 2544)" gradientUnits="userSpaceOnUse">
			<stop  offset="0" style="stop-color:#EE2A48"/>
			<stop  offset="0.361" style="stop-color:#F04F6A"/>
			<stop  offset="0.7561" style="stop-color:#EE2A48"/>
			<stop  offset="1" style="stop-color:#F04F6A"/>
		</radialGradient>
		<path class="st45" d="M134.8,1105.7L134.8,1105.7L134.8,1105.7z"/>
		<g>
			<path class="st46" d="M133.3,1104.6c0,0.1-0.1,0.2-0.1,0.2c-0.1,0.6,0,1.3-0.1,1.9c-0.1,0.7-0.2,1.3-0.2,2c0,0.6,0,1.2,0,1.8
				c0,0.5,0,1.2,0.3,1.7c0.2,0.5,0.7,0.7,1.1,0.6c-0.3,0.3-0.4,0.7-0.6,1c0,0,0,0,0,0.1c-0.2,0.1-0.3,0.3-0.3,0.5
				c-0.1,0.2-0.1,0.4,0,0.7c0,0.2,0,0.4,0,0.6s0.1,0.5,0.1,0.7v0.1l0,0v0.1c0.1,0.6,0.2,1.4,0.9,1.7c0.1,0.1,0.3,0.1,0.5,0.1h0.1
				c0,0,0.2,0.2,0.1,0.1c0.6,0.5,1.5,0.2,1.6-0.5c0.1-0.2,0.1-0.4,0-0.6c0-0.1-0.1-0.5-0.1-0.2c0,0,0-0.1-0.1-0.1
				c-0.1-0.3-0.2-0.6-0.4-0.8l0,0c0.1,0.2,0.3,0.4,0.5,0.5l0,0c0.2,0.4,0.6,0.6,1.1,0.6c0,0,0,0,0.1,0c0.6,0.2,1.1-0.1,1.5-0.6
				c0.1-0.1,0.1-0.2,0.2-0.3c0.1,0,0.3-0.1,0.4-0.2c0.4-0.3,0.6-0.6,0.7-1.1c0-0.1,0.1-0.2,0.1-0.4c0.9-0.3,0.9-1.3,0.9-2.2
				c0.2,0.2,0.5,0.3,0.8,0.3c0.6-0.1,0.9-0.4,1.2-0.9c0.5-0.9,0.4-1.9,0.3-2.8c0-0.3,0-0.6,0-0.9c0.2-0.1,0.4-0.3,0.5-0.6
				c0-0.1,0.1-0.2,0.1-0.3c0-0.1,0-0.2,0-0.3c0-0.1,0.1-0.4,0-0.1c0.1-0.6,0.1-1-0.4-1.4c-0.3-0.2-0.6-0.2-1-0.1c-0.1,0-0.1,0-0.2,0
				c0-0.2-0.1-0.5-0.1-0.7c0.2,0.1,0.3,0.1,0.5,0.1s0.3,0,0.5,0c0.4,0,0.8-0.3,0.9-0.7c0-0.2,0.1-0.4,0.1-0.5
				c0.1-0.2,0.2-0.5,0.2-0.7c0-0.4,0-1-0.3-1.4c-0.1-0.3-0.2-0.6-0.4-0.8c-0.3-0.2-0.6-0.3-0.9-0.2c0,0,0,0,0-0.1
				c0.2,0,0.3-0.1,0.4-0.3c0.3-0.4,0.4-1,0-1.3c0,0,0,0-0.1,0c-0.1-0.3-0.3-0.6-0.6-0.8c-0.1-0.1-0.3-0.2-0.5-0.2
				c0-0.1-0.1-0.2-0.2-0.3c0.3-0.3,0.4-0.8,0.1-1.1c-0.1-0.1-0.2-0.2-0.3-0.3c0-0.3-0.1-0.6-0.5-0.8c-0.1,0-0.2-0.1-0.2-0.1l0,0
				c-0.2-0.1-0.3-0.2-0.5-0.3c-0.1-0.1-0.3-0.1-0.4-0.1c-0.1,0-0.2-0.1-0.2-0.1c-0.1,0-0.2-0.1-0.3-0.2c-0.1,0-0.1-0.1-0.2-0.1
				c0,0,0,0-0.1,0c-0.1-0.1-0.1-0.1-0.2-0.2l-0.1-0.1c0-0.1-0.1-0.1-0.1-0.1s0,0,0-0.1c-0.3-0.4-0.7-0.5-1.1-0.4
				c-0.1,0-0.2-0.1-0.3-0.1c-0.2-0.1-0.4,0-0.6,0l0,0c0,0,0,0-0.1,0c-0.1-0.1-0.3-0.1-0.4-0.1c-0.1-0.5-0.4-0.9-0.8-1.2
				c-0.6-0.4-1.2-0.4-1.9-0.3c-0.3,0.1-0.7,0.2-0.9,0.5c0,0,0,0,0,0.1c-0.1,0.1-0.1,0.1-0.2,0.2c-0.1,0.1-0.3,0.2-0.3,0.4
				c-0.2,0.4-0.2,0.8-0.2,1.2c0,0.2,0.1,0.5,0.1,0.7l0,0c0,0.1,0,0.2,0,0.3c0,0,0,0.2,0,0.1l0,0c0.1,0.3,0.2,0.7,0.5,0.8
				c0,0,0,0.1,0.1,0.1l0,0l0,0c0,0.1,0,0.2,0,0.2c0,0.3,0,0.6,0,0.9s0,0.6,0,0.8c-0.3,0.1-0.6,0.5-0.6,0.9v0.1c0,0.2,0,0.3,0,0.5
				c0,0.3,0,0.6,0.1,0.9v0.1c0,0,0,0,0,0.1c0,0.2,0,0.3,0.1,0.5v0.1c0-0.1,0-0.1,0,0.2c0,0,0,0.3,0,0.2c0,0.2,0.1,0.4,0.2,0.5
				c0,0.1-0.3,0.2-0.3,0.4l0.3,1.8C133.3,1104.5,133.3,1104.6,133.3,1104.6z M137.7,1113.5L137.7,1113.5h-0.1
				C137.6,1113.5,137.7,1113.5,137.7,1113.5z M137.4,1113.4h-0.1c0,0,0,0,0-0.1C137.3,1113.4,137.4,1113.4,137.4,1113.4z"/>
			<path class="st38" d="M132.3,1116.9c0,0.2,0,0.3,0.1,0.5c0.3,0.5,0.8,0.9,0.9,1.5c0.7,0.7,1.9,1.2,2.9,1c0.5-0.1,0.9-0.5,1.2-0.9
				c0.2-0.3,0.1-0.6,0.4-0.7c1.3,0.3,2.2-1,3-1.8s1.6-1.4,1.3-2.7c1,0.2,1.6-0.2,1.9-1c0.4-0.9,0.4-1.5,0.5-2.5
				c0.1-1.4,1.9-3.9,0.4-5c1-0.7,0.6-2.2,0.6-3.2c0-0.5-0.1-1-0.6-1.3c-0.4-0.2,0-0.8,0-1.3c0-1-0.9-1.7-1.7-2.1
				c-0.3-0.2-0.4-0.1-0.4-0.5c0-0.2,0-0.4,0-0.6c-0.1-0.5-0.2-1-0.5-1.4c-0.6-0.8-1.6-1-2.4-1.5c-0.8-0.4-1.4-0.9-2.3-0.8
				c-0.5,0.1-0.3-0.1-0.5-0.5c-0.1-0.1-0.2-0.3-0.3-0.4c-0.3-0.3-0.7-0.4-1.1-0.5c-0.8-0.2-1.7-0.4-2.5,0c-0.1,0.1-0.2,0.2-0.4,0.3
				c-2,3.7-0.3,5.8-0.6,6.1c-0.3,0.3-0.4,1.4,0,2c0.3,0.6-0.3,2.6-0.4,3.1c-0.2,0.5,0.5,1,0.2,2.8s0.4,2.7,0.2,3.1s-0.3,1.7,0,3.2
				c0.2,0.6,0.2,1.3,0.2,1.9c0,0.4,0,0.9-0.1,1.2C132.5,1115.6,132.3,1116.4,132.3,1116.9z M137.7,1094.9c-0.6-0.1-0.7,0.6-1,0.9
				c-0.7,0.8-1.4,1.3-2.6,1.1c-1.5-0.3-1.6-4.8,0.2-4.7c0.9,0.1,2.8,0.5,1.6,1.7c-0.5,0.5-1.2-0.3-1.5,0.4c-0.3,0.6,0.6,1,1.1,1
				s1.1-0.3,1.4-0.7c0.4-0.4,0.5-0.9,1.2-0.8c0.4,0,0.6,0.3,0.9,0.5c1.1,0.6,2.1,0.8,2.7,1.9c0.3,0.6,0,0.7-0.5,0.7
				c-0.4,0-1,0.2-1.3,0c-0.4-0.2-0.6-0.5-1-0.1c-0.3,0.3-0.1,0.6-0.1,0.9s-0.2,0.7,0.1,1s0.9,0.2,1-0.3s1.2-0.3,1.6-0.3
				c0.5,0,1,0.2,1.4,0.5s1,0.7,0.9,1.3c-0.1,0.5-0.6,0.6-0.8,1c-0.3,0.5,0.1,1,0.7,1c0.4,0,0.7-0.2,0.7,0.3c0,0.8,0.4,3.2-1.3,2.2
				c-0.4-0.2-0.4-0.9-1-0.6c-0.4,0.2-0.3,0.6-0.3,0.9c0,0.6-0.5,2.3,0.6,2.2c0.7-0.1,0.6-0.9,1.5-0.7c0.5,0.1,0.7,0.3,0.6,0.8
				c-0.2,1-0.8,2-1,3c-0.1,0.7,0.2,3.2-1.2,2.7c-1.1-0.4-0.9-1.8-0.7-2.7c0.1-0.6,0.3-1.3,1.1-1.3c0.5,0,1-0.3,0.8-0.9
				c-0.1-0.3-0.8-0.7-1.2-0.8c-0.7-0.2-1.1,0.2-1.3,0.8c-0.5,1.3-1.5,0.8-2.6,0.8c-1,0-1.5-1.6-2.8-1c-0.6,0.3-0.3,1,0.3,1.1
				s0.6,0.5,0.4,0.9c-0.2,0.4-0.5,0.8-0.3,1.2c0.2,0.3,0.7,0.4,1,0.1c0.4-0.4,0.4-1,1.1-1.2c0.5,0.1,1.2,0.2,1.7,0.2
				c0.6,0,0.5,0.3,0.4,0.7c0,0.5,0.1,1.1,0.1,1.6c0,1.4,1.5,1.8,0.1,3c-0.5,0.4-0.9,0.9-1.4,1.3c-0.2,0.2-0.7,0.6-0.7,0.6
				c-0.4-0.2-0.5,0-0.8-0.5c-0.2-0.3-0.1-0.8-0.2-1.1c-0.3-0.8-1.5-1-1.8-0.1s0.8,1.2,1,1.9c0.1,0.4,0.1,1.1-0.4,1.2
				c-0.7,0.1-1.9-0.4-2.1-1.2c-0.2-0.6-0.3-2,0.1-2.6c0.8-1.2,2.6-1.9,3.5-0.6c0.4,0.5,1.2,0.1,1.1-0.5c0-0.4-0.3-0.8-0.2-1.3
				c0.1-0.3,0.4-0.6,0.3-1c-0.3-1.2-1.3,0.1-1.4,0.6c-0.8-0.1-1.7,0.1-2.5,0.4c-0.6,0.2-1.3-0.5-1.1-1.1c0.2-0.7,1.1-1.3,0.1-1.9
				c-0.6-0.4-0.5-1-0.5-1.7c0-0.6,0.1-1,0.3-1.5c0.1-0.3,0.4-0.2,0.7-0.3c0.2-0.1,0.1,0,0,0h0.1c0.9,0,1.5-0.1,2.3,0.3
				c0.7,0.8,1.3-1.2,2-0.5c0.3,0.3,0.4,1.1,1,0.8c0.5-0.2,0.3-0.9,0.2-1.3c-0.1-0.5,0.1-1.3-0.5-1.5c-0.4-0.1-0.7,0.1-0.9,0.4
				c-0.8,0.3-1.7,0.9-2.5,0.7c-1.2-0.3-2.1-0.1-2.7-1.3c-0.3-0.7-0.2-1.6-0.2-2.4c0-0.6-0.2-1.4,0-2c0.2-0.4,0.5-0.6,0.7-1
				s0-0.2,0.4-0.2c0.6,0.1,1.2,0,1.7-0.2c-0.1,0.7-0.1,1.3-0.5,1.9c-0.3,0.6-0.6,1.1-0.7,1.8c-0.1,0.6,0.1,2.4,1,2.5
				c0.8,0.1,0.6-0.8,0.5-1.2c0.3-0.6,0.9-0.8,1.6-0.9c0.6,0,1.2,0,1.8-0.1c0.7,0.1,0.6,0.4,0.8,1c0.1,0.3,0.4,0.4,0.6,0.4
				c0.9-0.1,0.3-1.9,0.3-2.5c0-0.9-1.1-1.2-1.2-0.3c0,0.4-1,0.3-1.3,0.3c0.4-0.5,0.1-2.1-0.7-1.4c-0.3,0.2-0.5,0.7-0.7,1
				c-0.3,0.4-0.7,0.2-1.1,0.3c0.3-0.7,0.7-1.2,0.8-2c0.1-0.9,0.4-1.7,0.8-2.5C138.1,1095.7,138.3,1095,137.7,1094.9z"/>
		</g>
		<g>
			<path class="st47" d="M125.5,1127.1l14-1.6c0.9-0.1,1.7,0.6,1.7,1.5l0,0c0,1-0.8,1.8-1.7,1.9l-14,1.6c-0.9,0.1-1.7-0.6-1.7-1.5
				l0,0C123.8,1128,124.6,1127.2,125.5,1127.1z"/>
			<path class="st47" d="M125.5,1130.5l14-1.6c0.9-0.1,1.7,0.6,1.7,1.5l0,0c0,0.9-0.8,1.8-1.7,1.9l-14,1.6c-0.9,0.1-1.7-0.6-1.7-1.5
				l0,0C123.8,1131.5,124.6,1130.6,125.5,1130.5z"/>
			<path class="st47" d="M125.5,1133.9l14-1.6c0.9-0.1,1.7,0.6,1.7,1.5l0,0c0,0.9-0.8,1.8-1.7,1.9l-14,1.6c-0.9,0.1-1.7-0.6-1.7-1.5
				l0,0C123.8,1134.9,124.6,1134.1,125.5,1133.9z"/>
			<path class="st47" d="M132.5,1133.7c3.1-0.1,5.6,0.9,5.6,2.2c0,1.3-2.5,2.4-5.6,2.5s-5.6-0.9-5.6-2.2S129.4,1133.8,132.5,1133.7z
				"/>
		</g>
		<path class="st26" d="M120.4,1102.4c0.8-4.3,3.9-7.7,8-9.1c1.8-0.4,2,1.4,0.6,1.8c-3.4,1.1-6,4.1-6.8,7.7
			C121.9,1104.2,120.2,1103.9,120.4,1102.4z"/>
	</g>
</g>
<g>
	<circle class="st17" cx="276.6" cy="1159" r="35.9"/>
	<g>
		<path class="st48" d="M305.3,1159.3c-1.4,5.5-7.3,8.7-12.6,6.7c-2-0.8-3.4-0.5-5.1,0.6c-7.5,4.7-15,9.2-22.6,13.8
			c-3,1.8-6.4,0.1-6.6-3.2c-0.1-2,1-3.2,2.6-4.2c7.6-4.6,15.2-9.2,22.8-13.8c1.3-0.8,2.1-1.7,2.3-3.4c0.7-7.3,8.1-10.2,12.8-8.5
			c0.5,0.2,1.1,0.6,1.3,1.1c0.1,0.2-0.5,0.9-0.9,1.2c-1.3,0.9-2.8,1.7-4.1,2.6c-2.4,1.5-3.1,3.9-1.8,6c1.3,2.1,3.8,2.6,6.2,1.2
			c1.3-0.8,2.6-1.6,3.9-2.3c0.5-0.3,1.2-0.3,1.8-0.5c0.1,0.7,0.2,1.3,0.2,2C305.5,1158.9,305.4,1159.1,305.3,1159.3z"/>
		<path class="st47" d="M288,1142.8l0.2-4.1l-6.1-2.4l-2.6,3.2l-4-0.1l-2.4-3.3l-6.2,2.1l0.1,4.1l-3.1,2.5l-4-0.9l-3.4,5.6l2.7,3.1
			l-0.8,3.9l-3.6,1.8l1,6.5l4,0.6l1.2,2.2l4.2-3.4l-0.2-0.5c-1-2.2-1.4-4.6-1.1-7c0.4-3.6,2.2-6.8,5-9.1c2.8-2.3,6.3-3.3,9.9-2.9
			c2.4,0.3,4.7,1.2,6.6,2.6l0.4,0.3l4.2-3.4L288,1142.8z"/>
	</g>
</g>
<g>
	<circle class="st17" cx="199.4" cy="1496.6" r="29.9"/>
	<g>
		<g>
			<g>
				<g>
					<g>
						<rect x="184.5" y="1494.6" class="st49" width="13.1" height="15.8"/>
					</g>
					<g>
						<rect x="201.2" y="1494.6" class="st49" width="13.1" height="15.8"/>
					</g>
				</g>
				<g>
					<g>
						<rect x="182.7" y="1486.6" class="st49" width="14.8" height="6"/>
					</g>
					<g>
						<rect x="201.2" y="1486.6" class="st49" width="14.8" height="6"/>
					</g>
				</g>
				<g>
					<path class="st49" d="M199.1,1485.4c-0.4,0-0.9-0.3-1-0.7c-0.7-1.6-3.4-6-5.9-6l0,0c-1.8,0-3.2,2.4-4.1,4.4
						c-0.3,0.6-0.9,0.8-1.5,0.6c-0.6-0.3-0.8-0.9-0.6-1.5c1.7-3.8,3.8-5.8,6.2-5.8c2.9,0,5.4,2.9,6.8,5.1c1.7-3.8,3.6-5.7,6-5.9
						c4.4-0.4,7.7,5.7,8.1,6.4c0.3,0.6,0.1,1.3-0.5,1.6c-0.6,0.3-1.3,0.1-1.6-0.5c-0.7-1.4-3.3-5.1-5.7-5.1c-0.1,0-0.1,0-0.2,0
						c-1.8,0.1-3.5,2.5-4.9,6.7C200,1485.1,199.6,1485.4,199.1,1485.4L199.1,1485.4z"/>
				</g>
			</g>
		</g>
		<circle class="st50" cx="199.7" cy="1507.1" r="10.4"/>
		<path class="st14" d="M203.5,1507.9c-0.5-0.5-1.4-0.9-2.6-1.4v-3.2c0.8,0.1,1.5,0.3,2,0.5c0.1,0.1,0.3,0.1,0.4,0
			c0.1-0.1,0.2-0.2,0.2-0.4v-1.3c0-0.2-0.1-0.3-0.2-0.4c-0.5-0.2-1.3-0.4-2.4-0.4v-0.9c0-0.2-0.2-0.4-0.4-0.4h-1
			c-0.2,0-0.4,0.2-0.4,0.4v1c-0.9,0.1-1.7,0.5-2.3,1c-0.7,0.6-1.1,1.3-1.1,2.2c0,0.7,0.2,1.3,0.7,1.8c0.4,0.5,1.3,0.9,2.6,1.4v3.1
			c-0.4,0-0.8-0.1-1.3-0.2c-0.6-0.2-1.1-0.3-1.4-0.6c-0.1-0.1-0.3-0.1-0.4,0c-0.1,0.1-0.2,0.2-0.2,0.4v1.3c0,0.2,0.1,0.3,0.2,0.4
			c0.8,0.4,1.9,0.6,3.1,0.7v1.1c0,0.2,0.2,0.4,0.4,0.4h1c0.2,0,0.4-0.2,0.4-0.4v-1.2c1-0.2,1.8-0.5,2.4-0.9c0.7-0.6,1.1-1.3,1.1-2.1
			C204.3,1509.1,204,1508.5,203.5,1507.9z M201.9,1509.9c0,0.2,0,0.7-1,1v-2.1C201.4,1509,201.9,1509.4,201.9,1509.9z M198.1,1504.5
			c0-0.3,0.1-0.5,0.3-0.7c0.1-0.1,0.3-0.2,0.6-0.3v2.2c-0.3-0.2-0.5-0.3-0.6-0.4C198.2,1505.1,198.1,1504.9,198.1,1504.5z"/>
	</g>
</g>
<g>
	<circle class="st17" cx="197.7" cy="1625.5" r="29.9"/>
	<g>
		<g>
			<g>
				<g>
					<g>
						<rect x="182.8" y="1623.2" class="st51" width="13.1" height="15.8"/>
					</g>
					<g>
						<rect x="199.5" y="1623.2" class="st51" width="13.1" height="15.8"/>
					</g>
				</g>
				<g>
					<g>
						<rect x="181.1" y="1615.1" class="st51" width="14.8" height="6"/>
					</g>
					<g>
						<rect x="199.5" y="1615.1" class="st51" width="14.8" height="6"/>
					</g>
				</g>
				<g>
					<path class="st51" d="M197.4,1613.9c-0.4,0-0.9-0.3-1-0.7c-0.7-1.6-3.4-6-5.9-6l0,0c-1.8,0-3.2,2.4-4.1,4.4
						c-0.3,0.6-0.9,0.8-1.5,0.6c-0.6-0.3-0.8-0.9-0.6-1.5c1.7-3.8,3.8-5.8,6.2-5.8l0,0c2.9,0,5.3,2.9,6.7,5.1c1.7-3.8,3.6-5.7,6-5.9
						c4.4-0.4,7.7,5.7,8.1,6.4c0.3,0.6,0.1,1.3-0.5,1.6c-0.6,0.3-1.3,0.1-1.6-0.5c-0.7-1.4-3.4-5.4-5.9-5.1
						c-1.8,0.1-3.5,2.5-4.9,6.7C198.4,1613.6,197.9,1613.9,197.4,1613.9C197.5,1613.9,197.4,1613.9,197.4,1613.9z"/>
				</g>
			</g>
		</g>
		<path class="st50" d="M192.7,1626.2c1.5,0,3,0.5,4.3,1.4c0.6,0.4,1,0.4,1.7,0c3.6-2.3,7.7-1.8,10.1,1.3c1.6,2.1,1.8,4.4,0.8,6.9
			c-1.1,2.7-3,4.7-5.1,6.6c-1.8,1.7-3.8,3-5.9,4.2c-0.5,0.3-0.9,0.4-1.4,0.1c-4-2.3-7.5-5.1-10-8.9c-1.2-1.8-2.1-3.8-1.5-6.1
			C186.3,1628.3,189.1,1626.2,192.7,1626.2z"/>
	</g>
</g>
</svg>
