<?xml version="1.0" encoding="utf-8"?>
<!-- Generator: Adobe Illustrator 20.1.0, SVG Export Plug-In . SVG Version: 6.00 Build 0)  -->
<svg version="1.1" xmlns="http://www.w3.org/2000/svg" xmlns:xlink="http://www.w3.org/1999/xlink" x="0px" y="0px"
	 viewBox="0 0 512 512" style="enable-background:new 0 0 512 512;" xml:space="preserve">
<style type="text/css">
	.st0{display:none;}
	.st1{display:inline;fill:#3A72D4;}
	.st2{display:inline;fill:#1A65D3;}
	.st3{display:inline;fill:#FFDB57;}
	.st4{display:inline;fill:#F5BA3D;}
	.st5{display:inline;fill:#EF9325;}
	.st6{fill:#F7434C;}
	.st7{fill:#DB2E37;}
	.st8{fill:#FFDB57;}
	.st9{fill:#F5BA3D;}
	.st10{fill:#EF9325;}
</style>
<g id="Layer_1" class="st0">
	<path class="st1" d="M469.2,227.7H42.8c-4.5,0-8.1,3.6-8.1,8.1v250.8c0,4.5,3.6,8.1,8.1,8.1h426.3c4.5,0,8.1-3.6,8.1-8.1V235.8
		C477.2,231.3,473.6,227.7,469.2,227.7z"/>
	<path class="st2" d="M469.2,227.7H42.8c-4.5,0-8.1,3.6-8.1,8.1v32.3h442.5v-32.3C477.2,231.3,473.6,227.7,469.2,227.7z"/>
	<path class="st3" d="M297.3,227.7h-82.6c-4.5,0-8.1,3.6-8.1,8.1v250.8c0,4.5,3.6,8.1,8.1,8.1h82.6c4.5,0,8.1-3.6,8.1-8.1V235.8
		C305.4,231.3,301.8,227.7,297.3,227.7z"/>
	<path class="st4" d="M297.3,227.7h-82.6c-4.5,0-8.1,3.6-8.1,8.1V268h98.8v-32.2C305.4,231.3,301.8,227.7,297.3,227.7z"/>
	<path class="st3" d="M453.4,78.4c-7.9-20.7-20.4-40.8-33.5-54c-4.8-4.8-11.2-7.3-18.5-7.1c-24.3,0.6-63.8,31-117.6,90.5
		c-1.3,1.5-2.1,3.4-2.1,5.4V156c0,4.5,3.6,8.1,8.1,8.1h124.4c27.7,0,39.1-13.5,43.9-24.8C464.4,124.2,462.7,102.6,453.4,78.4z"/>
	<path class="st5" d="M458,92.5c-0.2-0.8-0.6-1.6-1.1-2.3c-12.2-18.5-38.6-11.6-58.6-2.5c-58,26.3-82,62.5-83,64
		c-1.6,2.5-1.7,5.7-0.3,8.3c1.4,2.6,4.1,4.2,7.1,4.2h92c17.6,0,30.7-5.4,38.9-16.1C462.8,135.3,464.5,116.1,458,92.5z"/>
	<path class="st3" d="M228.1,107.8c-53.7-59.5-93.3-90-117.6-90.5c-7.3-0.2-13.8,2.3-18.5,7.1c-13,13.1-25.5,33.3-33.5,54
		c-9.3,24.2-10.9,45.9-4.7,60.9c4.7,11.3,16.1,24.8,43.9,24.8h124.4c4.5,0,8.1-3.6,8.1-8.1v-42.8
		C230.2,111.2,229.5,109.3,228.1,107.8z"/>
	<path class="st5" d="M196.6,151.6c-1-1.5-25-37.7-83-64c-20-9-46.4-15.9-58.6,2.5c-0.5,0.7-0.8,1.5-1.1,2.3
		c-6.4,23.7-4.7,42.9,5,55.5c8.2,10.7,21.2,16.1,38.9,16.1h92c3,0,5.7-1.6,7.1-4.2C198.3,157.3,198.2,154.1,196.6,151.6z"/>
	<path class="st4" d="M289.9,97.2h-67.7c-4.5,0-8.1,3.6-8.1,8.1V156c0,4.5,3.6,8.1,8.1,8.1h67.7c4.5,0,8.1-3.6,8.1-8.1v-50.8
		C297.9,100.8,294.3,97.2,289.9,97.2z"/>
	<path class="st1" d="M503.9,147.9H8.1c-4.5,0-8.1,3.6-8.1,8.1v79.8c0,4.5,3.6,8.1,8.1,8.1h495.8c4.5,0,8.1-3.6,8.1-8.1V156
		C512,151.6,508.4,147.9,503.9,147.9z"/>
	<rect x="193.9" y="147.9" class="st3" width="124.2" height="95.9"/>
</g>
<g id="Layer_2">
	<path class="st6" d="M470.2,227.7H43.8c-4.5,0-8.1,3.6-8.1,8.1v250.8c0,4.5,3.6,8.1,8.1,8.1h426.3c4.5,0,8.1-3.6,8.1-8.1V235.8
		C478.2,231.3,474.6,227.7,470.2,227.7z"/>
	<path class="st7" d="M470.2,227.7H43.8c-4.5,0-8.1,3.6-8.1,8.1v32.3h442.5v-32.3C478.2,231.3,474.6,227.7,470.2,227.7z"/>
	<path class="st8" d="M298.3,227.7h-82.6c-4.5,0-8.1,3.6-8.1,8.1v250.8c0,4.5,3.6,8.1,8.1,8.1h82.6c4.5,0,8.1-3.6,8.1-8.1V235.8
		C306.4,231.3,302.8,227.7,298.3,227.7z"/>
	<path class="st9" d="M298.3,227.7h-82.6c-4.5,0-8.1,3.6-8.1,8.1v32.2h98.8v-32.2C306.4,231.3,302.8,227.7,298.3,227.7z"/>
	<path class="st8" d="M454.4,78.3c-7.9-20.7-20.4-40.8-33.5-54c-4.8-4.8-11.2-7.3-18.5-7.1c-24.3,0.6-63.8,31-117.6,90.5
		c-1.3,1.5-2.1,3.4-2.1,5.4V156c0,4.5,3.6,8.1,8.1,8.1h124.4c27.7,0,39.1-13.5,43.9-24.8C465.4,124.2,463.7,102.6,454.4,78.3z"/>
	<path class="st10" d="M459,92.4c-0.2-0.8-0.6-1.6-1.1-2.3c-12.2-18.5-38.6-11.6-58.6-2.5c-58,26.3-82,62.5-83,64
		c-1.6,2.5-1.7,5.7-0.3,8.3c1.4,2.6,4.1,4.2,7.1,4.2h92c17.6,0,30.7-5.4,38.9-16.1C463.8,135.3,465.5,116.1,459,92.4z"/>
	<path class="st8" d="M229.1,107.8c-53.7-59.5-93.3-90-117.6-90.5c-7.3-0.2-13.8,2.3-18.5,7.1c-13,13.1-25.5,33.3-33.5,54
		c-9.3,24.2-10.9,45.9-4.7,60.9c4.7,11.3,16.1,24.8,43.9,24.8h124.4c4.5,0,8.1-3.6,8.1-8.1v-42.8
		C231.2,111.2,230.5,109.3,229.1,107.8z"/>
	<path class="st10" d="M197.6,151.6c-1-1.5-25-37.7-83-64c-20-9-46.4-15.9-58.6,2.5c-0.5,0.7-0.8,1.5-1.1,2.3
		c-6.4,23.7-4.7,42.9,5,55.5c8.2,10.7,21.2,16.1,38.9,16.1h92c3,0,5.7-1.6,7.1-4.2C199.3,157.2,199.2,154.1,197.6,151.6z"/>
	<path class="st9" d="M290.9,97.1h-67.7c-4.5,0-8.1,3.6-8.1,8.1V156c0,4.5,3.6,8.1,8.1,8.1h67.7c4.5,0,8.1-3.6,8.1-8.1v-50.8
		C298.9,100.8,295.3,97.1,290.9,97.1z"/>
	<path class="st6" d="M504.9,147.9H9.1c-4.5,0-8.1,3.6-8.1,8.1v79.8c0,4.5,3.6,8.1,8.1,8.1h495.8c4.5,0,8.1-3.6,8.1-8.1V156
		C513,151.5,509.4,147.9,504.9,147.9z"/>
	<rect x="194.9" y="147.9" class="st8" width="124.2" height="95.9"/>
</g>
</svg>
