<?xml version="1.0" encoding="utf-8"?>
<!-- Generator: Adobe Illustrator 21.0.0, SVG Export Plug-In . SVG Version: 6.00 Build 0)  -->
<svg version="1.1" id="Layer_1" xmlns="http://www.w3.org/2000/svg" xmlns:xlink="http://www.w3.org/1999/xlink" x="0px" y="0px"
	 viewBox="0 0 512 512" style="enable-background:new 0 0 512 512;" xml:space="preserve">
<style type="text/css">
	.st0{fill:#3A72D4;}
	.st1{fill:#1A65D3;}
	.st2{fill:#FFDB57;}
	.st3{fill:#F5BA3D;}
	.st4{fill:#EF9325;}
</style>
<path class="st0" d="M469.2,227.7H42.8c-4.5,0-8.1,3.6-8.1,8.1v250.8c0,4.5,3.6,8.1,8.1,8.1h426.3c4.5,0,8.1-3.6,8.1-8.1V235.8
	C477.2,231.3,473.6,227.7,469.2,227.7z"/>
<path class="st1" d="M469.2,227.7H42.8c-4.5,0-8.1,3.6-8.1,8.1v32.3h442.5v-32.3C477.2,231.3,473.6,227.7,469.2,227.7z"/>
<path class="st2" d="M297.3,227.7h-82.6c-4.5,0-8.1,3.6-8.1,8.1v250.8c0,4.5,3.6,8.1,8.1,8.1h82.6c4.5,0,8.1-3.6,8.1-8.1V235.8
	C305.4,231.3,301.8,227.7,297.3,227.7z"/>
<path class="st3" d="M297.3,227.7h-82.6c-4.5,0-8.1,3.6-8.1,8.1V268h98.8v-32.2C305.4,231.3,301.8,227.7,297.3,227.7z"/>
<path class="st2" d="M453.4,78.4c-7.9-20.7-20.4-40.8-33.5-54c-4.8-4.8-11.2-7.3-18.5-7.1c-24.3,0.6-63.8,31-117.6,90.5
	c-1.3,1.5-2.1,3.4-2.1,5.4V156c0,4.5,3.6,8.1,8.1,8.1h124.4c27.7,0,39.1-13.5,43.9-24.8C464.4,124.2,462.7,102.6,453.4,78.4z"/>
<path class="st4" d="M458,92.5c-0.2-0.8-0.6-1.6-1.1-2.3c-12.2-18.5-38.6-11.6-58.6-2.5c-58,26.3-82,62.5-83,64
	c-1.6,2.5-1.7,5.7-0.3,8.3c1.4,2.6,4.1,4.2,7.1,4.2h92c17.6,0,30.7-5.4,38.9-16.1C462.8,135.3,464.5,116.1,458,92.5z"/>
<path class="st2" d="M228.1,107.8c-53.7-59.5-93.3-90-117.6-90.5c-7.3-0.2-13.8,2.3-18.5,7.1c-13,13.1-25.5,33.3-33.5,54
	c-9.3,24.2-10.9,45.9-4.7,60.9c4.7,11.3,16.1,24.8,43.9,24.8h124.4c4.5,0,8.1-3.6,8.1-8.1v-42.8
	C230.2,111.2,229.5,109.3,228.1,107.8z"/>
<path class="st4" d="M196.6,151.6c-1-1.5-25-37.7-83-64c-20-9-46.4-15.9-58.6,2.5c-0.5,0.7-0.8,1.5-1.1,2.3
	c-6.4,23.7-4.7,42.9,5,55.5c8.2,10.7,21.2,16.1,38.9,16.1h92c3,0,5.7-1.6,7.1-4.2C198.3,157.3,198.2,154.1,196.6,151.6z"/>
<path class="st3" d="M289.9,97.2h-67.7c-4.5,0-8.1,3.6-8.1,8.1V156c0,4.5,3.6,8.1,8.1,8.1h67.7c4.5,0,8.1-3.6,8.1-8.1v-50.8
	C297.9,100.8,294.3,97.2,289.9,97.2z"/>
<path class="st0" d="M503.9,147.9H8.1c-4.5,0-8.1,3.6-8.1,8.1v79.8c0,4.5,3.6,8.1,8.1,8.1h495.8c4.5,0,8.1-3.6,8.1-8.1V156
	C512,151.6,508.4,147.9,503.9,147.9z"/>
<rect x="193.9" y="147.9" class="st2" width="124.2" height="95.9"/>
</svg>
