<?xml version="1.0" encoding="utf-8"?>
<!-- Generator: Adobe Illustrator 21.0.0, SVG Export Plug-In . SVG Version: 6.00 Build 0)  -->
<svg version="1.1" id="Camada_1" xmlns="http://www.w3.org/2000/svg" xmlns:xlink="http://www.w3.org/1999/xlink" x="0px" y="0px"
	 viewBox="0 0 2000 2000" style="enable-background:new 0 0 2000 2000;" xml:space="preserve">
<style type="text/css">
	.st0{fill:#C03610;}
	.st1{fill:#5C78B5;}
</style>
<path class="st0" d="M1166.6,1940.6c-6.6-31.1-13.2-62.1-2.5-93.7c0.6-1.8-0.6-4.4-1-6.6c-1,0-2,0-3,0c1,0,2,0,3,0
	c2.3-8-3-8.7-8.3-9.4c-2.5-5.1-5-10.1-7.5-15.1c-1.7-5.2-3.3-10.4-5-15.6c0-8.4-12-10.8-9.6-20.5c3.6,0.2,6.4-0.7,7.4-4.8
	c5.3-2.4,5.3-4.8,0-7.3c-3-3.2-5.9-6.4-8.9-9.6c-0.2-6.2-2.5-11.3-7.5-14.9c-0.6-2.6-1.2-5.1-1.8-7.7c0.2-0.9-0.2-1.5-1-1.8
	c-0.6-1.2-1.1-2.3-1.7-3.5c0.4-2.2-0.5-3.3-2.5-3.7l0,0c-8.5-6.3-21.5-5.5-26.2-17.9c-0.6-1.5-1.3-2.9-1.9-4.4
	c0-0.7-0.2-1.2-0.9-1.5c-0.6-1.2-1.1-2.5-1.7-3.7c-2.6-5.8-1.7-14-3.8-20.1c9,6.3,15.1,10.6,16.6,10.3c2-0.3,4.5-0.3,7.4,0.2
	c-15.7-24.4-29-50.6-42.6-76.5c-13.1-12.9-25.6-28.4-40.1-40.3c-5.5-3.8-11.1-7.5-16.7-11.2c-3.4-1.7-6.9-3.2-10.5-4.3
	c-11.7-3.7-22.8-7.1-33-14c-9.3-6.3-16.2-15.4-25.3-21.8c-12.6-8.9-28.4-11.9-42.1-18.5c-11-5.4-21-12.8-30.7-20.3
	c-57.3-27.9-114.3-52.5-168.5-77.2c-17.5-8.1-34.7-15.9-51.2-24.1c-16.5-8.2-32.6-16.4-47.6-24.9c-3.8-2.1-7.5-4.2-11-6.4
	c-3.7-2.1-7.2-4.3-10.6-6.5c-7-4.3-13.5-8.6-19.6-13l-8.8-6.5c-2.6-2.2-5.6-4.3-7.9-6.5c-6.1-5.4-12.2-10.7-18.3-16.1
	c-4.8-3.4-11.2-8.3-18.8-14.5c-3.7-3.2-7.8-6.8-12.2-10.6c-4.4-3.9-8.8-8.2-13.7-12.7c-9.6-9.2-19.8-19.9-30.5-31.8
	c-5.2-6-10.6-12.3-16.1-18.9c-5.1-6.8-10.9-13.6-15.9-21c-21.3-29.1-40.9-63.4-54.9-100.7c-7.1-18.7-12.3-38.1-16-58.1
	c-3.6-20-5.8-40.5-5.3-61.4c0.5-20.9,1.9-42.2,6.6-63.7c0.5-2.7,0.9-5.4,1.5-8l2-8c1.4-5.4,2.4-10.8,4-16.1
	c3.5-10.7,6.2-21.5,10.6-32c2.1-5.3,3.8-10.6,5.9-15.9c2.3-5.3,4.5-10.5,6.8-15.7l3.3-7.8c1.2-2.6,2.6-5.1,3.8-7.7
	c2.6-5.1,5.1-10.2,7.6-15.3c2.3-5.1,5.4-10.1,8.1-15c2.8-5,5.5-9.9,8.2-14.8c5.7-9.7,11.9-19.1,17.6-28.5c6-9.3,12.3-18.2,18.3-27
	c1.5-2.1,3-4.5,4.4-6.4c1.4-1.9,2.8-3.8,4.2-5.7c2.8-3.8,5.5-7.6,8.4-11c5.5-7.2,11.3-13.8,16.8-20.2c5.7-6.1,11.3-12.1,16.9-17.5
	c11.1-10.9,21.9-20.3,32.1-28c10-8,19.5-14.1,27.6-19.3c3.9-2.7,7.8-5.1,11.8-7.8c36.3-21.6,81.4-40.1,129.2-52
	c47.7-12.2,97.4-18.3,139.4-21c33.7-3,68.9-3.8,104.2-1.6c23.6,7,47.1,14.6,70.4,22.3c15,5,30.1,10,45.1,15.1
	c4.5,1.5,9.5,0.8,6.9-4.6c-3.1-6.6-7.5-16-12.2-20c1.6,0,1.5-0.4,0-1.4c-5-3.1-24.4-11.1-39.9-18.7c-11.4-4.7-8.9-5.6-8-7
	c0.8-1.4,0.1-3.4-17.9-10.7c26.4,8.9,39.6,13.6,65.6,24c1.8-0.2-18.2-8.2-36.7-14.6c-18.4-6.5-35-11.8-25.2-10.9
	c25.3,9.4,53.9,19,79.5,30.5c-4.1-2.9-26.2-13.1-47.2-21.5c-20.9-8.5-40.6-15.6-38.1-16.6c7.3,2.2,25.6,10.1,42.6,17.7
	c17,7.5,32.8,14.6,35.7,14.5c1.2-0.1-24.4-11.9-37.5-17.2c40.3,16,70.4,31.1,81.9,36.8c5.8,2.8,7,3.2,2.5,0.2
	c-4.5-3-14.6-9.5-31.9-19.7c21.2,11.8,49.4,28.8,72,44.6c0.1,0.1,0.2,0.2,0.3,0.2c3.2,2.2,6.2,4.4,9.2,6.6l-0.2-0.1
	c-1.4-1.1-3-2.2-4.7-3.5c0.6,0.5,1.3,0.9,1.9,1.4c-2.1-1.6-4.5-3.3-7-5.2c-10.1-7.4-20.5-14.4-31.4-21.5
	c9.3,6.1,18.5,12.1,27.6,18.6c-6.8-5-14.5-10.7-23-16.9c-32.6-22.9-64.9-45-83.9-55.9c-76.7-43.4-160.8-77.5-252.4-94.5
	c-45.8-8.2-93.5-12.2-142.3-9.2c-48.8,2.8-98.7,12.4-147.2,30.3c1.3,3.9,13,3.8-2,11.5c-2.7,1.3-5.3,2.6-8,3.8
	c-7.8-11.6-22.1-7.6-28.1-4.6c-28.3,14-57.5,25-87.1,35.4c-4.8,1.7-10,2.5-9.2,9.7c-1.6,1.7-3.3,3.4-4.9,5.1
	c-38.8,14.5-79.1,25.7-110.2,56.3v0c-6.7,5.5-5.3,14.2-8,21.3c-1.8,2-3.7,4-5.5,6c-7.7,5.2-18,8.7-22.5,16
	c-10.3,16.9-10.8,41.9-38.6,42.3c-3.8,0.1-8.3,6.8-9.9,12.9c-1.5,6.1-4.3,11.8-5.7,17.9c-3.6,15.2-11.7,24.2-27.7,24
	c-7.4-0.1-12.4,2.2-7.7,11.3c-0.4,3.9-0.2,8.2-5.9,7.9c-2.3-5.7-6.9-7.1-8.3-1c-1.6,6.7-4.7,15.4,3.3,21.2c1.1,1.1,2.1,2.3,3.2,3.4
	c1.2,1.2,2.3,2.5,3.5,3.7c0.4,1.2,1.1,2,2.1,2.5c12.8,14.3,7.7,30,3.3,45.7c-1.7,1.3-3.4,2.6-5.1,3.8c-8.5,12.7-17.2,25.1-14.9,42.2
	c0.8,6,1.2,14-1.8,18.4c-17.8,26-7.3,53.7-6.2,81c0.8,20.6-1.1,41.3,1.3,61.9c0.8,6.5-3.6,11.5-9.3,12.3c-6.4,0.9-7.2-5.3-8.2-10.4
	c-0.9-4.5-2.3-8.8-3.3-13.2c-0.6-2.9-0.9-6.3-4.3-6.3c-4.9,0-4.4,4.5-4.2,7.6c0.6,9,1.8,18,2.7,27c-2.9,3.2-5.9,6.4-8.8,9.6
	c-5.8,3.1-7.2,8.8-8.1,14.8c-0.7,0.1-1,0.5-1,1.2c-6.8,2-9.7-7-16.1-6.4c-11.5,58.6,39.8,169,74.7,199c1.2-5.7,2.3-11.2,3.4-16.7
	l9,4.7c0,7.2,0.1,14.3,0.1,21.5c-0.8,0.9-1.5,1.8-2.3,2.6c-8.9,4.3-9.4,8.4-0.3,13.7c10.3,6,20.9,6.6,31.7,4c1,3.6,1.9,7.3,2.6,10.8
	c8.8,41.7,37.3,92.1,55.9,99.8c10.2,4.2,19.2,16.7,25.1,27.1c4.1,10.4,2.3,22.9,9.3,33.5c-3.2,0.3-4.7,0.7-6.2,0.6
	c-6.2-0.6-13.7-1.3-15.9,5.5c-2,6.2,6,8.4,9.6,12.3c6.9,7.3,18.9,11.3,12.8,25.8c-1,2.4,1.8,5.3,4.7,6c14.5,3.8,25.9,15,40.8,18
	c0.9,0.8,1.7,1.5,2.6,2.3c9.8,9.8,20.3,18.6,34,22c0.8,0.7,1.7,1.5,2.5,2.2c7.4,10,18.8,13.6,28.8,19.3c6.5,3.8,20,2.6,11,17.6
	c-2.6,4.4,2.6,5,5.9,5.1c12.6,0.4,23.9,5.8,33.9,12.6c37.3,25.1,77.9,29.7,120.6,22.6c1.6,1.7,3.3,3.4,4.9,5.1
	c3.7,8.2-11,21.4,7.6,26c28.7,7,56.1,18.3,83.2,30c3,8.4,7.4,8.3,13.7,3.2c10.2-8.2,23.2-8.2,34.7-7.6c28.6,1.5,56.2,8.3,83.3,18.8
	c64.6,24.9,131.7,42.3,195.9,68.5c26.6,10.8,52.5,23.6,78.7,35.5l2.6,2.2c4.5,6,9.8,10.6,17.4,11.5c0.8,0.8,1.6,1.5,2.4,2.3
	c1.6,5.6,5.3,8.2,10.9,8.1l2.5,2.3c1.7,5.2,5,8.7,10,10.5c4.8,8.9,11.5,15.8,20,20.8c0.4,1.1,1.1,2,2.1,2.5
	c1.3,9.8,8.8,15,14.6,21.5l2.2,2.6c-0.1,10.4,7.2,17.7,11.4,25.8c10.6,19.9,13.3,43.1,25.9,61.8c0.2,2,0.4,4,0.6,5.9
	c1,2.4,1.9,4.7,2.9,7.1c0.1,9.8,5.4,18.1,8.1,27.1C1167.1,1956.3,1169.1,1952.4,1166.6,1940.6 M90.2,991.8c-0.3-1.8-0.5-3.6-0.7-5.4
	c6.1-13.1,7.9-26.5,7.9-40c0,13.5-1.8,26.8-7.9,40C89.7,988.2,89.9,990,90.2,991.8 M1053.7,1660.2c-0.2-0.6-0.5-1.1-0.8-1.7
	c1.5,1,2.9,1.9,4.3,2.9C1056.1,1660.9,1054.9,1660.5,1053.7,1660.2 M1066.9,1670.8c-1.5-2.3-3.1-4.4-5-6.1c0.9,0.6,1.8,1.3,2.7,1.9
	c2.1,1.4,4.2,2.9,6.1,4.2C1069.7,1670.7,1068.4,1670.7,1066.9,1670.8"/>
<path class="st1" d="M1951.5,903.8c-0.8-6.9,0.3-14.4,1.3-21.6c0.4-3.1,0.9-6.1,1.2-9l0.1-1.2c1.9-18.2,3.8-36.9,0.6-55.6
	c-0.9-5.3-0.8-9.4,2.5-12.1c20.5-16.1,15-39.9,11.4-55.6l-2-9c-6.6-29-13.3-58.9-25.9-86.6c-1.1-2.3-2.5-5.8-2.6-9
	c-1.8-54.7-27-100.2-51.5-144.2c-2.4-4.3-4.7-8.5-7.1-12.8l-0.5-0.8c-4.4-8.1-9-16.4-10.8-25.1c-6-29.9-22.2-53.8-37.9-76.9
	c-7.3-10.7-14.8-21.8-21.1-33.3c-8.7-15.8-20.8-28.1-32.6-40c-10-10.2-19.5-19.8-27.1-31.6c-14.5-22.3-32.2-40.3-50.5-58.4
	c-23.3-22.9-49.9-40.7-81.3-54.2c-10.3-4.5-19.6-11.2-28.6-17.8c-7.2-5.3-14.7-10.7-22.8-15c-15.4-8.2-36.1-18.1-59.1-21.2
	c-7.9-1-15.3-4.3-22.5-7.5c-3.8-1.7-7.7-3.4-11.6-4.8c-20.1-7-41.1-9.4-61.4-11.7c-21-2.4-42.6-4.9-62.9-12.5c-2.6-1-5.1-2.4-7.8-4
	c-6.7-3.9-14.3-8.3-24-4.2c-0.2,0.1-0.6,0.2-1.2-0.1c-1.3-0.6-2.5-2.4-2.9-4.2c-0.1-0.3-0.1-0.6-0.1-1l-0.1-2.1l-2.1,0.1
	c-3.7,0.2-7.5,0-11.5-0.5l-0.4-0.1l-0.4,0.1c-1.8,0.5-3.5,0.7-5.3,0.7v0.5c-0.1,0-0.3,0-0.4,0l-0.1-0.5l-0.6,0l-1.2,0.7
	c0,0-0.1,0.1-0.1,0.1c-1.4-0.7-2.9-1.3-4.4-2c-0.4-0.2-0.9-0.3-1.4-0.6c-14.8-5.8-28.2-5.5-40.9,0.8c-0.6,0.3-1.2,0.6-1.9,0.9
	c-3.7,1.7-8.4,3.8-9,10.8c-0.1,1.1-0.1,2,0.1,2.8c-0.4,0.3-0.9,0.5-1.3,0.8l-1.8,0.6c-6.2-7.5-13.5-5.3-20-3.4
	c-1.1,0.3-2.2,0.6-3.3,0.9c-10.5,2.7-21.3,5.3-31.8,7.7c-3.1,0.7-6.2,1.5-9.3,2.2c4.4-12,8-24.1,0-32.9c-8.3-9.1-18-3.7-25.9,0.7
	c-2.2,1.2-4.3,2.4-6.3,3.3c-6.7,2.9-13.7,6.2-22.5,10.6c-7-3-14.2,1-20.6,4.6c-2.2,1.2-4.3,2.4-6.3,3.3
	c-12.5,5.4-24.9,11.7-36.9,17.8c-17.9,9.1-36.5,18.5-55.3,25c-40.3,13.9-76.1,36.1-108.6,57.9c-30,15.6-58.3,35-85.7,53.8
	c-6.7,4.6-13.5,9.3-20.3,13.8c-9.9,6.7-13.4,16.8-9.7,27.7c3.4,10.1,11.5,10.8,18.7,11.4c1.7,0.1,3.4,0.3,5,0.5
	c4.5,0.7,8.7-2,12.4-4.4c2.6-1.7,5.2-3.4,6.7-3c0.7,0.2,1.3,0.9,2,2.2c1.9,3.9-2.1,7.7-8.5,13.1c-2.5,2.1-5,4.2-6.9,6.4
	c-5.5,6.5-6.8,14.2-3.8,22.9c2.6,7.6,8.9,7.5,14.1,7.5c1.1,0,2.3,0,3.3,0.1c1.5,0.1,3.1,0.1,4.6,0.1c4.8-0.1,9.1-0.1,12.3,3.8
	c8.5,10.1,16.8,5.5,24.2,1.4c2.9-1.6,5.8-3.9,8.5-6.1c8.6-6.9,16.1-12.9,27.3-2.3c3,2.8,7.4,0.9,10.9-0.7c1.2-0.5,2.4-1.1,3.5-1.4
	c7.2-2.1,14.4-4.5,21.4-6.8c17.4-5.7,35.3-11.6,53.7-14.4c0.7-0.1,1.4-0.2,2-0.4c4-0.7,6-1,7.8,1.6c1.9,2.7,1,4.9-0.9,8.8l-0.8,1.6
	c-4.4,9.6-5,18.3-1.6,24.5c2.5,4.6,7.1,7.4,13.2,8.1c3,0.4,6.1,0.8,9.1,1.2c14.9,2.1,30.4,4.4,45.9-0.9c4.4-1.5,8.8-3.1,13.3-4.7
	c22-7.9,44.6-16,69-11.7c3.3,0.6,6.7,0.4,10,0.2c2.3-0.2,4.4-0.3,6.5-0.2l5.6,0.3c34,1.6,66.1,3.2,85.7,38.6c2,3.6,5.1,5.3,8.2,7
	c1,0.5,1.9,1,2.8,1.6c9,5.7,19.1,7.9,28.9,10c10.6,2.3,20.6,4.4,29.3,10.7c8,5.7,16.7,10.1,25.2,14.3c10.3,5.1,20.9,10.4,29.9,18.2
	c5.2,4.4,11.3,7,17.3,9.5c4.9,2.1,10.1,4.2,14.6,7.4c35,24.5,61,58.3,82.6,88c2.6,3.6,4.8,7.6,7,11.5c4.4,8,9,16.2,17.5,22.3
	c22.6,16.1,37.3,36.5,46.4,64.1c2.2,6.7,5,13.3,7.7,19.6c5.2,12.1,10.5,24.7,11.8,38.4c0.2,2.5,1.4,4.7,2.5,6.8
	c0.3,0.6,0.6,1.1,0.9,1.7c12.5,26.1,23.7,54.8,21.5,87.4c0,0.7-0.1,1.3-0.2,2c-0.5,4.7-1.1,11.1,5.6,14.2l0.2,1
	c0.2,1.5,0.5,2.9,0.5,4.3c0.5,45-3.9,88.6-13.5,133.3c-1.6,7.5-3.2,15.1-4.8,22.6c-4.5,21.6-9.2,43.9-15,65.5
	c-8.7,31.9-26.3,59.4-43.3,86.1l-4.6,7.2l0.3,1c0.5,1.5,0.5,2.7,0.1,3.5c-0.5,0.9-1.7,1.7-3.6,2.2l-1.4,0.4l-0.1,1.5
	c-0.4,4.8-3.6,7.5-7,10.4c-2.9,2.4-5.8,5-7.2,8.8c-11.3,31-34.9,51.2-57.8,70.7c-3.1,2.7-6.3,5.3-9.3,8c-5,4.3-10.4,8.6-17.1,13.5
	c-1.4-0.1-2.9-0.1-4.3-0.1l-0.9,0l-0.6,0.6c-65.5,65.9-171.5,67-265.1,68l-9.7,0.1l-0.6,0.1c-38.2,11.9-84.9,6.6-125.6-0.2
	c-32.6-5.4-67.8-13.9-107.6-26l-0.9-0.3l-0.8,0.5c-3.7,2.3-6.5,4.9-8.2,7.8c-10.5-1.6-20.8,2.2-31.6,6.2
	c-11.4,4.2-17.8,9.6-19.6,16.4c-1.7,6.6,1,14,8.3,22.6c0.6,0.7,1.3,1.5,1.9,2.2c-1.2-0.2-2.6-0.6-3.9-1.7
	c-16.8-13.7-32.3-7.9-48.7-1.9c-5.4,2-9.8,4.3-13,6.9l-1.4,1.1l0.8,1.6c14.2,26.7,45.8,42,73.6,55.6c7,3.4,13.6,6.6,19.6,9.9
	c9.7,5.3,19.7,12,30.6,20.5l0.7,0.4c83.7,23.4,161.3,66.1,232.6,108.7l0.8,0.3c20.8,3,48.3,6.8,76,8.6c9.3,0.6,18.4,0.9,27.4,0.9
	c30.2,0,58.4-3.6,87.1-10.9l8.5-2.2c31.5-8.2,64.1-16.6,97.2-14.2c2.1,0.1,4.1,0.6,5.9,1.4l1.3,0.5l1-1c3.2-3.3,7.3-5,12.4-4.8
	c0.9,0,1.8,0.1,2.7,0.3l2.2,0.3l0.3-3.2c0.1-0.7,0.2-1.4,0.2-2.1c0.4-5.4,2.2-9.6,5.4-12.2c3.1-2.6,7.5-3.6,12.7-3
	c12.2,1.5,18.9-2.6,25.8-9.7l1.3-1.3c2.4-2.6,5.7-6.2,8.9-6.3h0.1c1.4,0,2.8,0.7,4.3,2.1c5.3,5.1,11,9.7,18.4,4.1
	c2-1.5,4.5-2.8,7.1-4.2c7-3.7,15.8-8.4,13.6-17.9c-1.7-7.3,0.8-8.9,5.4-11.8c0.7-0.4,1.3-0.8,2.2-1.4l6.5-5.3
	c18.3-12.4,35.6-25.4,51.6-38.8c1-0.8,2.1-1.6,3.1-2.4c2.6-1.9,5.2-3.9,7.3-6.7c7.5-10.3,13.6-16.5,29.3-9.8
	c5.6,2.4,11.9,3.6,18.4,4.8c5.3,1,10.7,2,15.8,3.7c11,3.7,21.6-1.6,29-14.6c6.2-10.8,14.1-20.8,21.8-30.5
	c9.4-11.8,19-23.9,25.8-37.8c4.1-8.4,9.9-17.4,21.7-20l3.8-0.8l-2.8-2.8c-2.5-2.5-3.9-5.2-3.6-7.3c0.2-1.3,1.1-2.4,2.7-3.3
	c12.4-6.7,16.1-17.7,19.7-28.4c2.1-6.2,4-12,7.5-17c0.6-0.8,1-1.6,1.5-2.5c4-4.5,6.5-9.9,8-13.8c5.1-13.4,12.2-26.2,19-38.5
	c2.3-4.2,4.7-8.5,6.9-12.7c3.1-1.9,4.8-5.9,6.3-9.2c1.2-2.8,2.4-5.6,3.7-8.7c1-0.9,2-1.9,3-2.8l1.8-1.5l-1.7-1.6
	c-0.2-0.2-0.3-0.3-0.5-0.5c3.9-9.4,7.6-18.8,11.1-28.1c3.3-4.2,7-7,11.6-8.8l3.2-1.3l-2.6-2.3c-3.4-3.1-5.1-6.6-4.4-9.2l0.3-1
	c0.4-1,1.1-1.8,2.1-2.6c11.9-9.5,14.4-22.7,16.8-35.5c1.4-7.5,2.8-14.5,5.9-21c2.5-5.2,2.8-11.1,3-16.7c0.3-7.8,0.6-15.3,6.6-21
	c1.5-1.4,1-3.8-1.9-10l-0.3-0.6c-2-4-2.7-6.1-0.7-7.7c0.9-0.7,1.9-1.3,3-1.7l0.9-0.3l0.4-0.9c0.9-2,2.1-3.9,3.4-5.6
	c6.3-7.8,15-13,22.7-17.6l0.7-0.4l0.8-2.3c0.3-0.8,0.6-1.6,0.8-2.3l0.3-1l-0.6-0.9C1953.7,934.3,1950.3,919.3,1951.5,903.8
	 M1395,113.3c-1.7,6.4-11.5,6.7-20.2,7.4c-9.3-2.1-16.3-4.9-14.1-9.6c3.1-6.4,15.6-4.1,24.3-4.6C1393.3,106,1396.1,109.5,1395,113.3
	 M1261.3,145.8c2.9-2.4,5.2-5.1,6.7-8.1c-8-3.2-11.5,5.5-19.2,0c-6-4.2-1.8-7.1,0.9-10.5c9.4-12.1,28.3-18.3,51.7-21.5
	c1.3,0.8,2.5,1.6,3.8,2.4c-5.9,2.7,6.8,13.7-15.7,9.3c-4.9-1-7.8,2.4-7.1,5.2c0.7,2.9,0.1,6.1,5.9,8.2c4.7,1.7,11.4,1.9,13.3-0.2
	c8.3-9,26.9-7.6,41-10.4c0.4-0.1,0.9-0.2,1.3-0.3c-1.8,3.4-4.5,6.4-9.2,8.5c-11.3,5.2-30.1,5.5-43.5,9c-2.4,0.6-23.9,9.5-26.3,9
	C1263.7,146.1,1262.5,146,1261.3,145.8 M1185,97.4c17.5-1.2,35.4,4.2,52.7,0.4c4.5-1,10.3-0.5,10.3,3.3c-0.1,4.7-1,9.4-12.9,9.9
	c-17.6,0.7-35.3,1.2-55.4-2.4c-5.9-2.3-23.7,0.8-22.9-6C1157.6,95.9,1174.2,98.1,1185,97.4 M1101.2,113.9c1.1-5,9.6-4.3,17.6-3.5
	c9.9,1.8,17.3,5.3,15,11.2c-2,5.1-10.9,3.6-17.9,2.6C1106,122.7,1100.1,118.9,1101.2,113.9 M1692.6,1201.1
	c0.3,11.7-7.5,14.2-13.4,18.5c-3.3,2.4-7.3,6.5-10.7,1.8c-3.5-4.9,0.4-9.3,1.7-12.8c4.6-8.8,10.1-14.2,17.7-14.5
	C1690.9,1193.9,1692.5,1197.4,1692.6,1201.1 M1694.6,1141.9c12.2-14.1,22-31.6,36.5-42.8c4.9-3.8,8.8-8.2,14.3-3.2
	c5.5,5,0.5,10.3-0.1,15.4c-4.9,20.3-31.7,42.9-48.1,40.5c-1.6-0.2-3.6-1.2-4.5-2.8C1690.8,1146,1692.9,1143.8,1694.6,1141.9
	 M1694.9,1267.7c2.1-1.4,3.2,0.1,4.1,2.2c1.1,2.7,1.6,4.8-0.5,7.7c-13.5,18-31.5,24.8-49,32.5c-1.4,0.6-2.4,1.6-3.5,2.8
	c-12.9,14.1-28.6,4.5-42.6,9.3c-4.7-10.3-15.3-3.7-20-13.1c-1.4-2.9-5.5-4.4-4-8.7c1.2-3.4,4.6-4.2,7.4-4.4c5.7-0.3,11.4-1,17-0.3
	c18.4,2.4,35.7-3.6,52.8-10.7C1669.6,1279.7,1682.8,1275.8,1694.9,1267.7 M1561,1328.3c1.5-0.7,3.1-1.5,4.6-2.2
	c2.7,6.2,9.1,3.2,13.1,9c-3.5,6.8-8.5,6.5-13.5,4.8C1560.7,1338.3,1558.6,1334.4,1561,1328.3 M1536.1,1313.4
	c2-6.2,5.8-10.3,10.9-9.9c2.3,0.2,2.1,4.8,0.9,7.2c-2.4,4.6-4.9,9.5-9.7,9.9C1535.5,1318.9,1535.2,1316.1,1536.1,1313.4
	 M1745.7,280.9c-24.5,0.5-63.6-5.5-74,19.1c-13.7,32.2-63.4,18-49,42.1c14.3,24.1,5.4,32.2,5.4,32.2c-8.6-0.9-17-19.6-20.9-28.2
	c-4-8.6-2.8-9.5-68.2-7.3c-65.5,2.2-38.2,61.1-21.5,64.4c16.6,3.3,18.4-4.2,30.4-11.8c12-7.6,27.6,2.4,27.6,2.4
	c-13.6,3.8-4.8,27.2-4.8,27.2c20.5-0.1,32.3,5.1,35.1,11.1c2,4.5-2.3,8.6-2.7,14.3l49.6,20.4v21l15.3,24.1v9.9l10.2,12.8l24.1,19.8
	l34.5,7.8c0.1-0.5,0.2-0.9,0.2-1.4c4.6,7.2,5.7,16.9,5.7,16.9c40.4,8.6,3.4,21.7,38.7,31.1c35.3,9.4,28.6,33.2,56.3,46.7
	c27.8,13.6,35.6,60.7,35.6,60.7c-6.7,1.8-13.4,26.1-13.4,26.1c13.4,15.9,25.4-4.5,25.4-4.5c40.8,19.7,63.2,70.1,63.2,70.1
	c-0.8,23.9-18,33.4-26.6,38.2c-8.6,4.8-17,65.6-29.1,81.8c-12.1,16.2-33.7,9.2-45,25.4c-11.3,16.2-23,42.2-47.9,59.2
	c-24.9,17-54.4,2.2-69.8,43.8c-15.4,41.7-53.5,24.5-53.5,24.5c-0.4-32.9,23.9-116.5,36.2-129.9c12.2-13.4,12.1-82.8,12.1-82.8
	s-29.3-20.5-37.6-57.8c-8.3-37.3-32.6-103-9.4-129.7c23.2-26.8,18.1-60,18.9-72c0.6-8.3,15.1-18.9,24-24.6c3.1-0.7,5.8-2.3,8.1-4.5
	c-6.2-2-17.3-5.3-25.1-6.5c-11.3-1.7-42.5,1-46.8-6.7c-4.3-7.7-9.9-33.3-19.9-36.1c-9.9-2.8-19.8-14.8-24.1-20.2
	c-4.3-5.3-18.4-23.8-18.4-23.8l-21.3-19.6v-20.4l2.1-1.6c-2.9-2.9-5-5.2-6.1-6.6c-5.6-7.3-30.9-16.9-62.6-21.7
	c-31.8-4.8-72.3-22.9-69.2-36c3.1-13.1-41.5-65.5-49-50.8s15.2,38.8,15.2,38.8c-36.2-23.5-48.5-61-48.5-61c-37.8-25.7-7.3-64-4-67.8
	c3.3-3.8-23.3-14.4-29.6-31s88.6-49.3,154.2-61.2c50.7-9.3,107.8,4.4,121,11.8c0.7,0.5,1.4,1,2.1,1.4c1.5,1.4,0.8,2.4-3,2.6
	c-21.6,1.4-72.2,28.1-52,30.3c20.2,2.2,67.5,14.7,67.5,14.7c-1.6,4.8,2.7,26.2,26.7,17.7c18-6.4,9.8-30.7,4.7-42.4
	c19.8,11.1,37.5,24.4,53.6,40.2C1714.3,241.6,1731.6,259.3,1745.7,280.9 M1220.8,1544.9c-10-0.7-20-1.6-29.6-2.6
	c-19.3-4.6-33.4-10.2-32.4-15.2c1.8-9.3-59-45-66-34.5c-4.8,7.1,8,17.1,16.6,22.6c-16.3-9.3-32.9-18.5-49.8-27.3
	c-6.8-5.9-10-10.1-10-10.1c-49-17.1-17.7-44.8-14.3-47.5c3.4-2.7-30-9.6-39.8-21.1c-9.9-11.5,99.4-36.7,176.4-46.7
	c77-10,172.2,6.7,146.5,8.2c-25.8,1.5-82.7,21.5-58.1,22.5c24.6,1.1,83,8.7,83,8.7c-1.2,3.4,6.9,18.4,34.5,11.8
	c27.5-6.6-5-34.3-5-34.3s16.8-3.2,35.2-0.4c1.3,0.6,2.9,1.2,4.8,1.8c5.9,1.9,12,3.8,18.3,5.7c2.2,1.2,4.4,2.6,6.4,4.2
	c14.4,11.4,27.9,10.9,36.4,8.7c25.6,8,49.4,16.6,64.3,26.3c-25,0.1-54.5,2.8-54.5,2.8c5.6,7.9,51.4,18.1,51.4,18.1
	c-15.8,8-94.6-4.9-106.5,18.1c-11.9,23-73.5,14.2-52.9,30.8c20.6,16.6,11,22.5,11,22.5c-10.4-0.4-23.1-13.4-29.1-19.3
	c-6-6-4.6-6.6-82.9-3.4c-78.3,3.2-37.2,43.8-16.8,45.7c20.4,1.9,21.4-3.4,34.8-9c13.3-5.6,33.5,1,33.5,1c-4.7,0.9-6.7,3-7.3,5.4
	C1287.3,1545.2,1255.7,1547.2,1220.8,1544.9"/>
</svg>
