<?xml version="1.0" encoding="utf-8"?>
<!-- Generator: Adobe Illustrator 21.0.0, SVG Export Plug-In . SVG Version: 6.00 Build 0)  -->
<svg version="1.1" id="Camada_1" xmlns="http://www.w3.org/2000/svg" xmlns:xlink="http://www.w3.org/1999/xlink" x="0px" y="0px"
	 viewBox="0 0 2000 2000" style="enable-background:new 0 0 2000 2000;" xml:space="preserve">
<style type="text/css">
	.st0{fill:#5C78B5;}
	.st1{fill:#C23133;}
	.st2{fill:#C03610;}
	.st3{fill:#316FB2;}
</style>
<g>
	<path class="st0" d="M1170.3,1012.2c-6.9-10.1-20.5-2.4-27.3-11.7c-2.1-2.8-7.6-4-5.9-8.6c1.4-3.6,5.8-4.7,9.6-5.1
		c7.5-0.8,15.1-2,22.5-1.7c24.5,0.9,47-6.8,69.2-15.5c16.7-6.6,34-11.7,49.5-21.1c2.7-1.6,4.2-0.1,5.5,1.9c1.7,2.7,2.5,4.8-0.2,8
		c-16.7,19.6-40,28.1-62.8,37.5c-1.9,0.8-3.1,1.9-4.4,3.2C1210,1014.6,1188.5,1006.1,1170.3,1012.2"/>
	<path class="st0" d="M1554.7,1154.9c-2.8-11.3,10.3-18,8-28.7c-0.7-3.3,1.7-8.4-2.3-9.6c-3.2-0.9-6.5,2-9,4.9
		c-4.9,5.6-10.1,11.1-14.3,17.4c-13.6,20.4-31.8,34.4-50.7,47.6c-14.1,9.9-27.6,21.2-42.9,28.5c-2.7,1.3-2.5,3.4-1.9,5.6
		c0.8,2.9,1.8,4.7,5.5,4.3c22.9-2.6,42.2-16.9,61.7-30.1c1.6-1.1,3-1.4,4.7-1.8C1533.3,1188.5,1540,1166.3,1554.7,1154.9"/>
	<path class="st0" d="M1421.8,803.5c-2.3,6.4-4,13.1-7.1,19c-2.2,4.3-6.4,8.2-12.1,5.5c-5.6-2.7-2.3-7.3-0.9-10.8
		c6.1-15.4,10.3-31.5,16.6-46.9c5.9-14.3,6.8-30.6,10.1-46c0.9-4-0.2-10.5,6.4-10.1c7.4,0.4,7.2,6.3,6.3,11.9
		C1436.8,752.4,1430.4,778.3,1421.8,803.5"/>
	<path class="st0" d="M1370.2,917.7c-2,13.8-22,32.1-35.9,32.8c-1.4,0.1-3.2-0.3-4.1-1.2c-1.8-1.7-0.3-3.4,0.9-4.9
		c8.8-10.8,15.1-23.4,26-32.7c3.7-3.1,6.5-6.5,11.6-4C1373.8,910.2,1370.2,914.3,1370.2,917.7"/>
	<path class="st0" d="M1202.5,948.8c-5,14.1-18.6,13.7-29.7,17.7c-1.7,0.6-3,0.3-3.5-1.4c-0.6-2.1,0.7-3.8,2.2-4.8
		c7.6-5.3,15-11.2,25.2-10.3c2,0.2,4.3,2.1,5.8-0.9L1202.5,948.8z"/>
	<path class="st0" d="M1407.5,1248.6c-3.1,0.6-6.2,1.4-9.4,1.7c-2.4,0.2-4.6-0.7-5.5-3.1c-0.8-2.5,0.6-4.5,2.6-5.8
		c4.6-2.8,9.2-6.1,14.3-7.8c5-1.7,12.2-8.1,15.2-0.5c2.6,6.4-5.1,10.6-10.8,13.5c-2,1-4.4,1.2-6.6,1.8L1407.5,1248.6z"/>
	<path class="st0" d="M1382.3,881c0.9-6.9,3.5-12.1,9.2-15.2c2.3-1.2,4.5,0.2,5.6,2.3c3.6,6.8-1.5,11.1-4.7,15.9
		c-1.8,2.7-3.6,6.6-7.6,5.1C1380.6,887.7,1382.3,883.6,1382.3,881"/>
	<path class="st0" d="M1202.6,948.9c4-4.9,10.4-5,15.3-8c2.4-1.4,4.4-0.8,5.6,1.1c1.3,2.2,0.1,4.3-1.7,5.9
		c-6.2,5.7-12.7,6.6-19.4,0.8C1202.5,948.8,1202.6,948.9,1202.6,948.9"/>
	<path class="st0" d="M1374.9,792.8c-0.7,5.8-2.3,10.9-6.5,10.7c-4.3-0.3-2.5-5.5-1.8-8.4c0.9-3.6-0.8-9.8,4.6-9.7
		C1375.8,785.4,1375,790.7,1374.9,792.8"/>
	<path class="st0" d="M1332.3,879.5c-2.4-0.7-3-2.5-2.5-4.4c1-4.3,3.8-7.4,8.1-7.9c1.9-0.2,2.3,2.8,1.5,4.5
		C1337.9,875,1336.4,878.6,1332.3,879.5"/>
	<path class="st0" d="M1313.4,893c4.7,0.6,6.3-4.9,11.4-5.4c1.8,5-0.9,8.3-4.3,11.1c-3.1,2.5-6.2,2.3-8.3-1.7
		C1312.7,895.7,1313,894.3,1313.4,893"/>
	<path class="st0" d="M1459.9,1077.2l2.7-3.2L1459.9,1077.2z"/>
	<path class="st1" d="M1143.5,1549.1c-5.3-25.1-10.6-50.1-2-75.6c0.5-1.5-0.5-3.5-0.8-5.3c-0.8,0-1.6,0-2.5,0c0.8,0,1.6,0,2.5,0
		c1.9-6.4-2.4-7-6.7-7.6c-2-4.1-4-8.1-6.1-12.2c-1.4-4.2-2.7-8.4-4.1-12.6c0-6.8-9.7-8.7-7.7-16.5c2.9,0.2,5.2-0.5,5.9-3.9
		c4.3-1.9,4.3-3.9,0-5.9c-2.4-2.6-4.8-5.2-7.1-7.8c-0.1-5-2-9.1-6.1-12c-0.5-2.1-1-4.1-1.5-6.2c0.1-0.7-0.1-1.2-0.8-1.4
		c-0.4-0.9-0.9-1.9-1.3-2.8c0.4-1.7-0.4-2.7-2-3l0,0c-6.9-5-17.4-4.4-21.2-14.4c-0.5-1.2-1-2.4-1.5-3.5c0-0.6-0.2-0.9-0.7-1.2
		c-0.5-1-0.9-2-1.4-3c-2.1-4.7-1.4-11.3-3.1-16.3c7.2,5.1,12.1,8.5,13.4,8.3c1.6-0.2,3.6-0.3,6,0.1c-12.7-19.7-23.4-40.8-34.4-61.7
		c-10.6-10.4-20.7-22.9-32.4-32.5c-4.5-3.1-9-6.1-13.5-9c-2.7-1.4-5.5-2.6-8.5-3.5c-9.5-2.9-18.4-5.7-26.6-11.3
		c-7.5-5.1-13.1-12.4-20.4-17.6c-10.1-7.2-22.9-9.6-34-15c-8.9-4.3-16.9-10.3-24.7-16.4c-46.2-22.5-92.2-42.3-135.9-62.2
		c-14.1-6.5-28-12.9-41.3-19.4c-13.3-6.6-26.3-13.2-38.4-20.1c-3-1.7-6-3.4-8.9-5.2c-3-1.7-5.8-3.5-8.5-5.2
		c-5.6-3.4-10.9-7-15.8-10.5l-7.1-5.3c-2.1-1.8-4.5-3.5-6.4-5.2c-4.9-4.3-9.8-8.7-14.8-13c-3.9-2.7-9-6.7-15.2-11.7
		c-3-2.6-6.3-5.5-9.8-8.6c-3.5-3.1-7.1-6.6-11-10.3c-7.7-7.4-16-16-24.6-25.7c-4.2-4.9-8.6-9.9-13-15.3c-4.1-5.5-8.8-10.9-12.8-16.9
		c-17.2-23.5-33-51.2-44.3-81.3c-5.7-15.1-10-30.7-12.9-46.8c-2.9-16.1-4.6-32.6-4.2-49.5c0.4-16.8,1.5-34.1,5.3-51.4
		c0.4-2.2,0.7-4.3,1.2-6.5l1.6-6.5c1.1-4.3,1.9-8.7,3.2-13c2.8-8.6,5-17.3,8.5-25.8c1.7-4.3,3.1-8.6,4.8-12.8
		c1.8-4.2,3.7-8.5,5.5-12.7l2.7-6.3c1-2.1,2.1-4.1,3.1-6.2c2.1-4.1,4.1-8.2,6.1-12.3c1.9-4.2,4.3-8.1,6.5-12.1c2.2-4,4.4-8,6.6-11.9
		c4.6-7.8,9.6-15.4,14.2-23c4.8-7.5,10-14.7,14.7-21.8c1.2-1.7,2.4-3.7,3.6-5.2c1.1-1.5,2.3-3.1,3.4-4.6c2.2-3,4.4-6.1,6.7-8.9
		c4.4-5.8,9.1-11.1,13.5-16.3c4.6-4.9,9.1-9.8,13.6-14.1c8.9-8.8,17.6-16.4,25.9-22.5c8.1-6.4,15.7-11.4,22.3-15.6
		c3.1-2.2,6.3-4.1,9.5-6.3c29.3-17.4,65.6-32.4,104.2-42c38.5-9.8,78.6-14.8,112.4-16.9c27.2-2.4,55.6-3,84-1.3
		c19,5.6,38,11.7,56.8,18c12.1,4,24.3,8,36.4,12.2c3.6,1.2,7.6,0.6,5.6-3.7c-2.5-5.3-6-12.9-9.8-16.1c1.3,0,1.2-0.3,0-1.2
		c-4-2.5-19.7-8.9-32.2-15c-9.2-3.8-7.2-4.5-6.5-5.7c0.7-1.1,0.1-2.7-14.5-8.6c21.3,7.1,32,10.9,52.9,19.3
		c1.4-0.2-14.7-6.6-29.6-11.8c-14.8-5.2-28.3-9.6-20.4-8.8c20.4,7.6,43.5,15.4,64.1,24.6c-3.3-2.3-21.1-10.5-38-17.4
		c-16.9-6.9-32.7-12.6-30.7-13.4c5.9,1.8,20.6,8.2,34.3,14.2c13.7,6,26.4,11.8,28.8,11.7c1-0.1-19.7-9.6-30.3-13.8
		c32.5,12.9,56.8,25.1,66,29.7c4.7,2.3,5.6,2.6,2,0.2c-3.6-2.4-11.8-7.7-25.7-15.9c17.1,9.5,39.9,23.3,58,35.9
		c0.1,0.1,0.2,0.1,0.3,0.2c2.6,1.8,5,3.6,7.4,5.3l-0.1-0.1c-1.2-0.9-2.4-1.8-3.8-2.8c0.5,0.4,1,0.7,1.6,1.1
		c-1.7-1.3-3.6-2.7-5.7-4.2c-8.1-5.9-16.5-11.6-25.3-17.3c7.5,4.9,15,9.8,22.3,15c-5.5-4-11.7-8.6-18.6-13.7
		c-26.3-18.5-52.3-36.3-67.7-45.1c-61.9-35-129.7-62.6-203.6-76.2c-36.9-6.6-75.4-9.8-114.8-7.4c-39.3,2.2-79.6,10-118.7,24.4
		c1.1,3.2,10.5,3.1-1.6,9.3c-2.2,1-4.3,2.1-6.4,3c-6.3-9.4-17.8-6.2-22.7-3.7c-22.8,11.3-46.4,20.1-70.2,28.6
		c-3.8,1.4-8.1,2-7.4,7.8c-1.3,1.4-2.6,2.8-4,4.1c-31.3,11.7-63.8,20.7-88.9,45.4v0c-5.4,4.4-4.3,11.4-6.4,17.2
		c-1.5,1.6-3,3.2-4.4,4.9c-6.2,4.2-14.5,7-18.1,12.9c-8.3,13.6-8.7,33.8-31.1,34.1c-3.1,0-6.7,5.5-8,10.4c-1.2,4.9-3.5,9.5-4.6,14.4
		c-2.9,12.3-9.4,19.6-22.3,19.4c-6-0.1-10,1.8-6.2,9.1c-0.3,3.1-0.2,6.6-4.7,6.4c-1.9-4.6-5.6-5.7-6.7-0.8
		c-1.3,5.4-3.8,12.4,2.7,17.1c0.9,0.9,1.7,1.8,2.6,2.8c0.9,1,1.9,2,2.8,3c0.3,0.9,0.8,1.6,1.7,2c10.3,11.6,6.2,24.2,2.7,36.9
		c-1.4,1-2.7,2.1-4.1,3.1c-6.8,10.3-13.9,20.3-12,34c0.7,4.9,1,11.3-1.4,14.8c-14.4,21-5.9,43.3-5,65.3c0.7,16.6-0.9,33.3,1.1,49.9
		c0.6,5.3-2.9,9.3-7.5,9.9c-5.2,0.8-5.8-4.3-6.6-8.4c-0.7-3.6-1.9-7.1-2.6-10.7c-0.5-2.3-0.7-5.1-3.4-5.1c-3.9,0-3.5,3.6-3.4,6.2
		c0.5,7.3,1.4,14.5,2.2,21.8c-2.4,2.6-4.7,5.2-7.1,7.7c-4.7,2.5-5.8,7.1-6.6,11.9c-0.6,0.1-0.8,0.4-0.8,1c-5.5,1.6-7.9-5.7-13-5.2
		c-9.3,47.3,32.1,136.3,60.3,160.6c1-4.6,1.9-9,2.8-13.4l7.3,3.8c0,5.8,0.1,11.5,0.1,17.3c-0.6,0.7-1.2,1.4-1.8,2.1
		c-7.2,3.5-7.6,6.8-0.3,11c8.3,4.9,16.8,5.3,25.6,3.3c0.8,2.9,1.5,5.9,2.1,8.7c7.1,33.6,30.1,74.3,45.1,80.5
		c8.3,3.4,15.4,13.5,20.3,21.9c3.3,8.4,1.9,18.5,7.5,27c-2.6,0.3-3.8,0.6-5,0.5c-5-0.5-11-1-12.8,4.4c-1.6,5,4.8,6.8,7.8,9.9
		c5.5,5.9,15.3,9.2,10.4,20.8c-0.8,1.9,1.4,4.3,3.8,4.9c11.7,3,20.9,12.1,32.9,14.5c0.7,0.6,1.4,1.2,2.1,1.8
		c7.9,7.9,16.4,15,27.4,17.7c0.7,0.6,1.3,1.2,2,1.8c5.9,8.1,15.1,10.9,23.2,15.6c5.3,3,16.1,2.1,8.9,14.2c-2.1,3.5,2.1,4,4.7,4.1
		c10.2,0.3,19.3,4.7,27.4,10.2c30.1,20.2,62.8,24,97.3,18.2c1.3,1.4,2.6,2.7,3.9,4.1c3,6.6-8.9,17.3,6.1,20.9
		c23.1,5.6,45.2,14.7,67.1,24.2c2.4,6.8,5.9,6.7,11.1,2.6c8.3-6.6,18.7-6.6,28-6.1c23,1.2,45.3,6.7,67.2,15.2
		c52.1,20.1,106.2,34.1,158,55.2c21.5,8.7,42.4,19.1,63.5,28.6l2.1,1.8c3.6,4.8,7.9,8.6,14.1,9.3c0.7,0.6,1.3,1.2,2,1.8
		c1.3,4.5,4.2,6.6,8.8,6.5l2,1.8c1.4,4.2,4,7,8.1,8.5c3.9,7.2,9.3,12.7,16.2,16.8c0.3,0.9,0.9,1.6,1.7,2c1,7.9,7.1,12.1,11.8,17.4
		l1.7,2.1c-0.1,8.4,5.8,14.3,9.2,20.8c8.5,16,10.7,34.8,20.9,49.9c0.2,1.6,0.3,3.2,0.5,4.8c0.8,1.9,1.6,3.8,2.3,5.7
		c0.1,7.9,4.4,14.6,6.5,21.9C1143.9,1561.8,1145.5,1558.6,1143.5,1549.1 M275.2,783.7c-0.2-1.5-0.4-2.9-0.6-4.4
		c4.9-10.6,6.4-21.4,6.4-32.3c0,10.9-1.5,21.7-6.4,32.3C274.8,780.8,275,782.3,275.2,783.7 M1052.4,1322.9c-0.2-0.5-0.4-0.9-0.7-1.3
		c1.2,0.8,2.4,1.6,3.5,2.3C1054.3,1323.4,1053.4,1323.1,1052.4,1322.9 M1063.1,1331.5c-1.2-1.9-2.5-3.5-4-4.9c0.7,0.5,1.5,1,2.2,1.5
		c1.7,1.2,3.4,2.3,5,3.4C1065.3,1331.4,1064.3,1331.4,1063.1,1331.5"/>
	<path class="st2" d="M603.3,1314c-7.3-0.5-8.8,4.8-10.1,10.2c-0.7,3-0.9,7.1,4.2,6c5.4-1.2,11.7-1.3,13-7.6
		C610.9,1315.9,608.1,1314.3,603.3,1314"/>
	<path class="st2" d="M1084.4,421.2c-1.2,0.3-2.6,1-3.3,2c-2.6,3.6-0.5,6.1,2.5,7.5c6.4,3.1,10.5,11,18.9,9.8
		c0.4-0.1,0.6-1.5,0.9-2.3C1103.5,434.1,1088.1,420.3,1084.4,421.2"/>
	<path class="st2" d="M650.1,1323.3c-1.4,1.7,1.2,4.4,3.2,5.2c7.1,2.8,12.8,1,18-8.3C662.7,1320.8,655.6,1316.6,650.1,1323.3"/>
	<path class="st3" d="M679.7,1640.5c0,17.2-7.6,31.5-22.7,43c-12.5,9.4-27.4,14.2-44.5,14.2c-8.5,0-18.2-1.6-29.2-4.7
		c-1.2,6.4-4.5,9.6-9.8,9.6c-4,0-6.8-1.7-8.4-5c-1.5-3.2-2.3-8.4-2.3-15.8c0-15.4,2.1-50,6.2-103.6l0.8-11.2
		c1-12.1,2.1-19.9,3.3-23.4c1.7-4.9,4.9-7.4,9.7-7.4c6,0,9,4,9,12c0-2.3-1.2,9.5-3.5,35.6c-2.5,27.9-4.1,57.6-4.9,89.2
		c11.3,3.5,21.5,5.2,30.4,5.2c13.3,0,24.1-3.7,32.6-11c8.1-7.1,12.2-16,12.2-26.6c0-20.7-14.3-31-42.8-31c-1,0-2.5,0-4.5,0.1
		c-2,0.1-3.5,0.1-4.6,0.1c-6.1,0-9.1-2.8-9.1-8.3c0-4,1.7-6.7,5-8.1c2-0.9,4.9-1.5,8.7-1.8c4.6-0.5,7.8-0.9,9.6-1.3
		c5.6-1.4,10.1-4.6,13.6-9.7c3.5-5,5.2-11.1,5.2-18.2c0-9.8-4-17.3-12-22.7c-8-5.4-19.4-8.1-34.2-8.1c-10.2,0-21.1,2.4-32.9,7.3
		c-2.8,1.3-5.7,2.6-8.6,4c-3.4,1.4-6.3,2.1-8.8,2.1c-2.6,0-4.7-0.8-6.4-2.5c-1.7-1.7-2.5-3.6-2.5-5.8c0-3.6,3.2-7.3,9.7-11.1
		c15-8.8,33-13.2,53.9-13.2c19.4,0,34.8,4.4,46.1,13.2c11.1,8.7,16.7,20.3,16.7,34.8c0,13.5-5,24.8-15,34.1
		c10.6,3.3,18.9,9,24.9,17.2C676.7,1619.9,679.7,1629.5,679.7,1640.5"/>
	<path class="st3" d="M813.8,1607c0,19.4-5.7,34.9-17,46.4c-11.4,11.5-26.5,17.3-45.4,17.3c-15.7,0-28-5.4-36.9-16.1
		c-8.9-10.7-13.4-25.6-13.4-44.7c0-20.1,5.4-35.6,16.1-46.7c10.6-10.9,25.2-16.3,43.9-16.3c15.7,0,28.4,5.5,38.1,16.5
		C808.9,1574.4,813.8,1588.9,813.8,1607 M794.1,1607.2c0-13.3-3.2-23.6-9.7-31.1c-6.4-7.5-15.2-11.2-26.4-11.2
		c-24.9,0-37.3,14.9-37.3,44.8c0,13.8,2.7,24.4,8.1,31.8c5.4,7.4,13.2,11.1,23.3,11.1c13.1,0,23.3-4,30.8-12
		C790.3,1632.7,794.1,1621.5,794.1,1607.2"/>
	<path class="st3" d="M935.4,1611.7c0,15.7-2.6,31.3-7.7,46.8c-3.2,9.6-7.1,14.5-11.7,14.5c-2.5,0-4.6-0.8-6.4-2.3
		c-1.8-1.5-2.7-3.4-2.7-5.6c0-0.6,1.6-6.6,4.8-18.1c3.2-11.4,4.8-22.8,4.8-34.1c0-25.7-8-38.5-24.1-38.5c-9.2,0-16.7,3.4-22.5,10.2
		c-6,7-9,16.2-9,27.7c0,6.4,0.9,15.3,2.7,26.8c1.8,11.5,2.7,19.6,2.7,24.5c0,11.3-3.2,17-9.7,17c-3.3,0-5.6-0.7-6.8-2.2
		c-1-1.1-1.8-3.4-2.5-6.9c-0.1-4.1-0.9-15.9-2.5-35.4c-2.7-27.3-4.1-46.7-4.1-58.2c0-20,3.9-30,11.6-30c2.5,0,4.7,0.8,6.4,2.3
		c1.8,1.6,2.7,3.3,2.7,5.4c0,1.4-0.4,4.2-1.2,8.2c-0.8,4-1.2,7.4-1.2,10.2v2.3c9.8-13.3,21.7-19.9,35.6-19.9
		c12.9,0,22.9,4.8,30,14.3C931.8,1580.2,935.4,1593.9,935.4,1611.7"/>
	<path class="st3" d="M1041.8,1571.8c0,6.6-3.3,9.9-10,9.9c-2.3,0-4.1-0.8-5.4-2.5c-0.9-1.5-1.9-3.1-2.9-4.7
		c-4.1-5.3-9.5-7.9-16.3-7.9c-11.7,0-17.5,6.6-17.5,19.9c0,4.6,1.1,8.6,3.2,11.9c1.8,2.8,5,6,9.6,9.6c10.4,8,16.9,13.5,19.5,16.5
		c5.4,6.2,8.1,13.3,8.1,21.4c0,10.6-3.4,19.2-10.3,25.8c-6.9,6.6-15.8,9.9-26.8,9.9c-10.5,0-19.1-2.7-25.8-8.2
		c-6.5-5.3-9.8-11.9-9.8-20c0-8.1,3.5-12.2,10.5-12.2c5.9,0,9,4.5,9.2,13.6c4.7,5.7,10.1,8.5,16,8.5c4.9,0,9-1.5,12.1-4.5
		c3.1-3,4.7-6.7,4.7-11.2c0-4.1-1.9-7.9-5.7-11.6c-0.1-0.1-4.9-4-14.6-11.6c-13.3-10.6-20-22.9-20-37.1c0-11.5,3.5-20.9,10.6-28
		c7.1-7.1,16.4-10.7,27.9-10.7c9.4,0,17.5,2.5,24.2,7.4C1038.6,1560.7,1041.8,1566,1041.8,1571.8"/>
	<path class="st3" d="M708.7,1907c0,6.4-4.5,13.2-13.6,20.5c-15.1,12.2-34.4,18.3-58,18.3c-25.3,0-45-7.6-58.8-22.9
		c-13.9-15.2-20.8-36.8-20.8-64.5c0-26.7,7-48.5,21.1-65.3c15.2-18.1,35.4-27.1,60.7-27.1c21.5,0,39.1,5.6,52.9,16.8
		c5.1,4.2,7.7,8,7.7,11.6c0,2.6-1,5-3.1,7c-2,2-4.4,3.1-7,3.1c-1.7,0-4.2-1.2-7.3-3.5c-14.3-10.2-28.8-15.3-43.6-15.3
		c-18.4,0-33.1,6.5-44,19.5c-11,13-16.4,30.7-16.4,53.1c0,45,19.6,67.5,58.8,67.5c22.4,0,38.3-5.4,47.9-16.2
		c2.2-2.8,4.4-5.7,6.5-8.6c2.1-2.5,4.5-3.8,7.2-3.8c2.8,0,5.2,0.9,7.1,2.8C707.8,1901.8,708.7,1904.2,708.7,1907"/>
	<path class="st3" d="M842.9,1850.3c0,19.4-5.7,34.9-17,46.4c-11.4,11.5-26.5,17.3-45.4,17.3c-15.7,0-28-5.4-36.9-16.1
		c-8.9-10.7-13.4-25.6-13.4-44.7c0-20.1,5.4-35.6,16.1-46.7c10.6-10.9,25.2-16.3,43.9-16.3c15.7,0,28.4,5.5,38.1,16.5
		C838,1817.6,842.9,1832.2,842.9,1850.3 M823.2,1850.5c0-13.3-3.2-23.6-9.7-31.1c-6.4-7.5-15.2-11.2-26.4-11.2
		c-24.9,0-37.3,14.9-37.3,44.8c0,13.8,2.7,24.4,8.1,31.8c5.4,7.4,13.2,11.1,23.3,11.1c13.1,0,23.3-4,30.8-12
		C819.4,1875.9,823.2,1864.8,823.2,1850.5"/>
	<path class="st3" d="M942.8,1823.5c0,2.5-0.8,4.6-2.3,6.3c-1.5,1.7-3.3,2.6-5.4,2.6c-1.6,0-3.9-1.2-7-3.5c-3.1-2.3-5.9-3.5-8.4-3.5
		c-6.3,0-11.3,2.8-15.2,8.3c-3.9,5.5-5.8,13-5.8,22.3v13c0,14.5-1.5,25.9-4.5,34.4c-2.8,8-6.5,12-11,12c-6,0-9-3-9-8.9
		c0-1.2,0.9-5.6,2.8-13.1c1.8-7.6,2.8-14.7,2.8-21.3c0-18.5-2.6-33.3-7.9-44.3c-0.1-0.3-1.9-3.7-5.4-10c-1.8-3.2-2.7-5.8-2.7-7.7
		c0-2.1,1-4.1,3.1-5.9c2.1-1.8,4.3-2.8,6.6-2.8c7,0,12.8,8.6,17.4,25.7c6.9-13.2,16.9-19.8,30-19.8c6.6,0,11.9,1.5,16,4.6
		C940.8,1815,942.8,1818.9,942.8,1823.5"/>
	<path class="st3" d="M1050.4,1862.3c0,18.1-2.6,37-7.9,56.7c-2.6,9.9-6.6,14.8-11.8,14.8c-5.3,0-8-3-8-9.1c0-1.4,0.1-2.4,0.2-3.1
		c-6.7,3.6-13.7,5.4-20.9,5.4c-12.7,0-22.7-3.6-29.8-10.8c-7.2-7.2-10.7-17.3-10.7-30.2c0-13.1,3.9-23.5,11.6-31.2
		c7.7-7.7,18-11.5,30.8-11.5c11.2,0,20.6,3.7,28.2,11.2c-1.3-26.1-10.9-39.1-29-39.1c-4,0-8.3,1.2-12.9,3.6c-4.6,2.4-7.6,3.6-9,3.6
		c-2.2,0-4.3-0.9-6-2.8c-1.8-1.8-2.7-4-2.7-6.3c0-4,2.9-7.6,8.6-11c6.1-3.6,13.5-5.4,22-5.4
		C1034.6,1797.1,1050.4,1818.8,1050.4,1862.3 M1030.3,1885.5c0-16.8-7.9-25.1-23.7-25.1c-17.3,0-25.9,8.3-25.9,24.9
		c0,16.8,8.6,25.1,25.7,25.1c7.5,0,13.3-2.2,17.5-6.6C1028.2,1899.5,1030.3,1893.4,1030.3,1885.5"/>
	<path class="st3" d="M1200.6,1880.7c0,5.8-5.7,12.8-17,21.1c-10.1,7.3-23,11.6-38.7,12.8c-0.3,1.9-0.5,3.3-0.5,4.1
		c0,1.3,0.1,2.1,0.2,2.7c13.7,0.6,20.5,6.7,20.5,18.2c0,11.9-9.6,17.8-28.7,17.8c-8.6,0-12.9-2.2-12.9-6.6c0-3.4,2-5,6.1-5
		c0.2,0,1.2,0.1,3.1,0.3c1.9,0.2,3.7,0.3,5.6,0.3c8.5,0,12.8-2.3,12.8-6.9c0-4.9-2.9-7.7-8.7-8.3c-4.3-0.4-6.6-0.7-7-0.9
		c-1.4-0.6-2.1-2.2-2.1-4.7c0-2.9,1-6.7,3.1-11.4c-18.1-1.8-32.2-8.2-42.4-19.2c-10.2-11-15.2-25.2-15.2-42.7
		c0-22.2,6.2-39.9,18.5-52.9c12.3-13,28.9-19.5,49.6-19.5c14.7,0,27.9,3.9,39.7,11.8c4,2.6,5.9,6.1,5.9,10.3c0,6-3.2,9-9.5,9
		c-2.4,0-7.2-1.9-14.3-5.7c-6.8-3.6-13.9-5.4-21.3-5.4c-15.2,0-27,4.4-35.5,13.3c-8.5,8.9-12.7,21.3-12.7,37.4
		c0,13.5,4,24.1,12.1,31.8c8,7.7,19.1,11.5,33.3,11.5c13.1,0,24.4-4.5,33.9-13.4c2-2,4.1-3.9,6.2-5.8c2.1-1.9,4.3-2.9,6.7-2.9
		C1197.5,1871.6,1200.6,1874.6,1200.6,1880.7"/>
	<path class="st3" d="M1329.9,1850.3c0,19.4-5.7,34.9-17,46.4s-26.5,17.3-45.4,17.3c-15.7,0-28-5.4-36.9-16.1
		c-8.9-10.7-13.4-25.6-13.4-44.7c0-20.1,5.4-35.6,16.1-46.7c10.6-10.9,25.2-16.3,44-16.3c15.7,0,28.4,5.5,38.1,16.5
		C1325.1,1817.6,1329.9,1832.2,1329.9,1850.3 M1310.2,1850.5c0-13.3-3.2-23.6-9.7-31.1c-6.4-7.5-15.2-11.2-26.4-11.2
		c-24.9,0-37.3,14.9-37.3,44.8c0,13.8,2.7,24.4,8.1,31.8c5.4,7.4,13.2,11.1,23.3,11.1c13.1,0,23.3-4,30.8-12
		C1306.5,1875.9,1310.2,1864.8,1310.2,1850.5 M1308.6,1756.4c0,5.1-2.6,10.1-7.7,15.1c-5.1,5-10.3,7.5-15.5,7.5
		c-5.7,0-14.6-6.3-26.5-18.8c-5.2,10.2-9.9,15.3-14,15.3c-2.8,0-4.3-1.8-4.3-5.4c0-2.5,1.5-5.9,4.5-10.1c5.6-8,11-12,16.2-12
		c2.3,0,5.6,2.2,10,6.6c5.3,5.5,11,9.5,16.9,12c6.6-10.1,12.1-15.1,16.4-15.1C1307.3,1751.6,1308.6,1753.2,1308.6,1756.4"/>
	<path class="st3" d="M1451.3,1837.7c0,6.9-2.4,11.9-7.1,15.2c-2.1,1.4-8.8,3.3-20.1,5.6c-15,3.1-27.8,4.7-38.3,4.7
		c-4.8,0-10.6-0.3-17.4-1c0,24.9,9.5,37.3,28.4,37.3c5.2,0,9.9-1.5,14.2-4.5c2.1-1.5,5.9-5,11.4-10.6c2-2,4.1-3.1,6.2-3.1
		c2.8,0,5.2,1,7.2,3.1c2,2.1,3,4.6,3,7.7c0,2.5-1,4.8-2.9,6.9c-11.3,12.4-24.6,18.6-39.9,18.6c-31.5,0-47.3-18.2-47.3-54.7
		c0-18.8,5-35,15-48.7c11.4-15.5,25.5-23.3,42.4-23.3c13.1,0,24,4.4,32.5,13.2C1447.1,1813,1451.3,1824.2,1451.3,1837.7
		 M1431.6,1838.9c-0.4-9.2-2.8-16.4-7.2-21.8c-4.4-5.3-9.9-8-16.5-8c-8.6,0-16.1,3.1-22.7,9.2c-6.7,6.2-11.8,15-15,26.3
		c4.7,0.5,9.7,0.8,14.9,0.8C1398,1845.4,1413.5,1843.2,1431.6,1838.9"/>
	<path class="st3" d="M1550.3,1815c0,6.6-3.3,9.9-10,9.9c-2.3,0-4.1-0.8-5.4-2.5c-0.9-1.5-1.9-3.1-2.9-4.7
		c-4.1-5.3-9.5-7.9-16.3-7.9c-11.7,0-17.5,6.6-17.5,19.9c0,4.6,1.1,8.6,3.2,11.9c1.8,2.8,5,6,9.6,9.6c10.4,8,16.9,13.5,19.5,16.5
		c5.4,6.2,8.1,13.3,8.1,21.4c0,10.6-3.4,19.2-10.3,25.8c-6.9,6.6-15.8,9.9-26.8,9.9c-10.5,0-19.1-2.7-25.8-8.2
		c-6.5-5.3-9.8-11.9-9.8-20c0-8.1,3.5-12.2,10.5-12.2c5.9,0,9,4.5,9.1,13.6c4.7,5.7,10.1,8.5,16,8.5c4.9,0,9-1.5,12.1-4.5
		c3.1-3,4.7-6.7,4.7-11.2c0-4.1-1.9-7.9-5.7-11.6c-0.1-0.1-4.9-4-14.6-11.6c-13.3-10.6-20-22.9-20-37.1c0-11.5,3.5-20.9,10.6-28
		c7.1-7.1,16.4-10.7,27.9-10.7c9.4,0,17.5,2.5,24.2,7.4C1547.1,1804,1550.3,1809.2,1550.3,1815"/>
	<path class="st3" d="M1776.7,712.7c-0.7-5.6,0.2-11.6,1.1-17.4c0.4-2.5,0.7-4.9,1-7.3l0.1-1c1.5-14.7,3.1-29.8,0.5-44.9
		c-0.7-4.3-0.7-7.6,2.1-9.8c16.5-13,12.1-32.2,9.2-44.9l-1.6-7.2c-5.3-23.4-10.8-47.5-20.9-69.8c-0.8-1.9-2-4.7-2.1-7.3
		c-1.4-44.1-21.8-80.8-41.5-116.4c-1.9-3.4-3.8-6.9-5.7-10.3l-0.4-0.7c-3.6-6.5-7.3-13.3-8.7-20.2c-4.8-24.1-17.9-43.4-30.5-62
		c-5.9-8.6-11.9-17.6-17-26.8c-7.1-12.7-16.8-22.7-26.3-32.3c-8.1-8.2-15.7-16-21.9-25.5c-11.7-18-25.9-32.5-40.7-47.1
		c-18.8-18.5-40.2-32.8-65.6-43.7c-8.3-3.6-15.8-9.1-23.1-14.3c-5.8-4.3-11.9-8.6-18.4-12.1c-12.4-6.6-29.1-14.6-47.7-17.1
		c-6.3-0.8-12.3-3.5-18.2-6c-3.1-1.3-6.2-2.7-9.4-3.8c-16.2-5.7-33.1-7.6-49.5-9.5c-16.9-1.9-34.4-3.9-50.8-10.1
		c-2.1-0.8-4.1-2-6.3-3.2c-5.4-3.1-11.6-6.7-19.4-3.4c-0.2,0.1-0.5,0.1-0.9-0.1c-1-0.5-2-1.9-2.4-3.4c-0.1-0.2-0.1-0.5-0.1-0.8
		l-0.1-1.7l-1.7,0.1c-3,0.1-6.1,0-9.3-0.4l-0.3,0l-0.3,0.1c-1.4,0.4-2.8,0.6-4.3,0.6v0.4c-0.1,0-0.2,0-0.3,0l-0.1-0.4l-0.5,0l-1,0.6
		c0,0-0.1,0-0.1,0.1c-1.2-0.6-2.3-1.1-3.6-1.6c-0.4-0.1-0.7-0.3-1.1-0.4c-12-4.7-22.8-4.5-33,0.6c-0.5,0.2-1,0.5-1.5,0.7
		c-3,1.4-6.8,3-7.3,8.7c-0.1,0.9-0.1,1.6,0.1,2.3c-0.4,0.2-0.7,0.4-1.1,0.6l-1.4,0.5c-5-6.1-10.9-4.3-16.2-2.7
		c-0.9,0.3-1.7,0.5-2.6,0.7c-8.5,2.2-17.2,4.3-25.6,6.2c-2.5,0.6-5,1.2-7.5,1.8c3.6-9.7,6.5-19.4,0-26.5c-6.7-7.4-14.6-3-20.9,0.6
		c-1.8,1-3.5,1.9-5.1,2.6c-5.4,2.3-11,5-18.2,8.5c-5.6-2.4-11.4,0.8-16.6,3.7c-1.8,1-3.4,1.9-5.1,2.6c-10.1,4.4-20.1,9.4-29.7,14.4
		c-14.5,7.3-29.4,14.9-44.6,20.1c-32.5,11.2-61.4,29.1-87.6,46.7c-24.2,12.6-47,28.2-69.1,43.4c-5.4,3.7-10.9,7.5-16.4,11.2
		c-8,5.4-10.8,13.5-7.8,22.4c2.8,8.2,9.3,8.7,15.1,9.2c1.4,0.1,2.7,0.2,4,0.4c3.6,0.6,7-1.6,10-3.5c2.1-1.3,4.2-2.7,5.4-2.4
		c0.6,0.2,1.1,0.7,1.6,1.8c1.5,3.2-1.7,6.2-6.8,10.6c-2,1.7-4,3.4-5.6,5.2c-4.4,5.2-5.5,11.4-3.1,18.5c2.1,6.1,7.2,6.1,11.4,6.1
		c0.9,0,1.8,0,2.7,0.1c1.2,0.1,2.5,0.1,3.7,0.1c3.9,0,7.3-0.1,9.9,3.1c6.8,8.1,13.6,4.4,19.5,1.2c2.4-1.3,4.7-3.1,6.9-4.9
		c7-5.6,13-10.4,22-1.9c2.4,2.3,6,0.7,8.8-0.5c1-0.4,1.9-0.9,2.8-1.1c5.8-1.7,11.6-3.6,17.2-5.5c14-4.6,28.5-9.4,43.3-11.6
		c0.6-0.1,1.1-0.2,1.6-0.3c3.2-0.6,4.8-0.8,6.3,1.3c1.5,2.2,0.8,4-0.7,7.1l-0.6,1.3c-3.6,7.8-4,14.8-1.3,19.7
		c2.1,3.7,5.7,5.9,10.7,6.5c2.4,0.3,4.9,0.7,7.4,1c12.1,1.7,24.5,3.5,37.1-0.7c3.6-1.2,7.1-2.5,10.7-3.8c17.7-6.3,36-12.9,55.6-9.4
		c2.7,0.5,5.4,0.3,8.1,0.1c1.8-0.1,3.6-0.2,5.3-0.1l4.5,0.2c27.4,1.3,53.3,2.5,69.2,31.1c1.6,2.9,4.2,4.3,6.6,5.6
		c0.8,0.4,1.5,0.8,2.3,1.3c7.3,4.6,15.4,6.4,23.3,8.1c8.5,1.8,16.6,3.6,23.6,8.7c6.4,4.6,13.5,8.2,20.3,11.6
		c8.3,4.1,16.8,8.4,24.1,14.7c4.2,3.6,9.1,5.6,13.9,7.6c4,1.7,8.1,3.4,11.8,5.9c28.3,19.8,49.2,47,66.6,71c2.1,2.9,3.9,6.1,5.6,9.3
		c3.6,6.4,7.3,13.1,14.1,18c18.2,13,30.1,29.4,37.4,51.7c1.8,5.4,4,10.7,6.2,15.8c4.2,9.8,8.5,19.9,9.5,31c0.2,2,1.1,3.8,2,5.5
		c0.2,0.5,0.5,0.9,0.7,1.4c10.1,21.1,19.1,44.2,17.3,70.5c0,0.5-0.1,1.1-0.1,1.6c-0.4,3.8-0.9,8.9,4.5,11.4l0.1,0.8
		c0.2,1.2,0.4,2.3,0.4,3.5c0.4,36.3-3.2,71.5-10.9,107.5c-1.3,6.1-2.6,12.2-3.8,18.2c-3.6,17.4-7.4,35.4-12.1,52.9
		c-7,25.7-21.2,47.9-34.9,69.4l-3.7,5.8l0.3,0.8c0.4,1.2,0.4,2.2,0.1,2.8c-0.4,0.7-1.4,1.4-2.9,1.8l-1.1,0.3l-0.1,1.2
		c-0.3,3.9-2.9,6.1-5.7,8.4c-2.3,2-4.7,4-5.8,7.1c-9.1,25-28.2,41.3-46.6,57c-2.5,2.2-5,4.3-7.5,6.5c-4,3.5-8.4,7-13.8,10.9
		c-1.2,0-2.3-0.1-3.5-0.1l-0.7,0l-0.5,0.5c-52.8,53.2-138.4,54.1-213.9,54.8l-7.8,0.1l-0.5,0.1c-30.8,9.6-68.5,5.3-101.3-0.1
		c-26.3-4.4-54.7-11.2-86.8-21l-0.7-0.2l-0.7,0.4c-3,1.9-5.2,4-6.6,6.3c-8.5-1.3-16.7,1.7-25.5,5c-9.2,3.4-14.4,7.7-15.8,13.2
		c-1.4,5.3,0.8,11.3,6.7,18.2c0.5,0.6,1,1.2,1.5,1.8c-1-0.1-2.1-0.5-3.1-1.4c-13.6-11-26.1-6.4-39.3-1.5c-4.4,1.6-7.9,3.5-10.5,5.6
		l-1.1,0.9l0.7,1.3c11.5,21.5,36.9,33.9,59.4,44.8c5.7,2.8,11,5.4,15.8,8c7.9,4.3,15.9,9.7,24.7,16.5l0.6,0.3
		c67.5,18.9,130.1,53.3,187.6,87.7l0.6,0.2c16.8,2.5,38.9,5.5,61.3,6.9c7.5,0.5,14.9,0.7,22.1,0.7c24.4,0,47.1-2.9,70.3-8.8l6.9-1.8
		c25.4-6.6,51.7-13.4,78.4-11.4c1.7,0.1,3.3,0.5,4.8,1.1l1.1,0.4l0.8-0.8c2.6-2.6,5.9-4,10-3.9c0.8,0,1.5,0.1,2.2,0.2l1.8,0.3
		l0.3-2.6c0.1-0.6,0.1-1.1,0.2-1.7c0.3-4.3,1.8-7.7,4.4-9.9c2.5-2.1,6.1-2.9,10.2-2.4c9.9,1.2,15.3-2.1,20.8-7.9l1-1.1
		c2-2.1,4.6-5,7.2-5.1h0.1c1.1,0,2.3,0.6,3.4,1.7c4.2,4.1,8.9,7.8,14.9,3.3c1.6-1.2,3.6-2.3,5.8-3.4c5.7-3,12.7-6.8,10.9-14.4
		c-1.4-5.9,0.7-7.2,4.4-9.5c0.5-0.3,1.1-0.7,1.8-1.2l5.2-4.2c14.7-10,28.7-20.5,41.6-31.3c0.8-0.7,1.7-1.3,2.5-1.9
		c2.1-1.5,4.2-3.1,5.9-5.4c6-8.3,11-13.3,23.7-7.9c4.5,1.9,9.6,2.9,14.9,3.9c4.2,0.8,8.6,1.6,12.7,3c8.9,3,17.4-1.3,23.4-11.8
		c5-8.7,11.4-16.8,17.6-24.6c7.5-9.5,15.3-19.3,20.8-30.5c3.3-6.8,8-14.1,17.5-16.1l3.1-0.7l-2.2-2.2c-2-2-3.1-4.2-2.9-5.9
		c0.2-1.1,0.9-1.9,2.2-2.6c10-5.4,13-14.3,15.9-22.9c1.7-5,3.2-9.7,6.1-13.7c0.5-0.7,0.8-1.3,1.2-2c3.2-3.6,5.3-8,6.4-11.1
		c4.1-10.8,9.8-21.1,15.3-31.1c1.9-3.4,3.8-6.8,5.6-10.3c2.5-1.6,3.9-4.7,5-7.4c1-2.3,1.9-4.5,3-7c0.8-0.7,1.6-1.5,2.5-2.2l1.4-1.2
		l-1.3-1.3c-0.1-0.1-0.2-0.3-0.4-0.4c3.2-7.6,6.2-15.2,9-22.6c2.6-3.4,5.7-5.7,9.3-7.1l2.6-1l-2.1-1.9c-2.8-2.5-4.1-5.3-3.6-7.4
		l0.3-0.8c0.4-0.8,0.9-1.5,1.7-2.1c9.6-7.6,11.6-18.3,13.6-28.6c1.2-6,2.2-11.7,4.7-16.9c2-4.2,2.2-8.9,2.4-13.5
		c0.3-6.3,0.5-12.3,5.3-17c1.2-1.2,0.8-3-1.6-8.1l-0.2-0.5c-1.6-3.3-2.1-4.9-0.6-6.2c0.7-0.6,1.5-1,2.4-1.3l0.7-0.2l0.3-0.7
		c0.7-1.6,1.7-3.1,2.8-4.5c5.1-6.3,12.1-10.5,18.3-14.2l0.5-0.3l0.7-1.9c0.2-0.6,0.5-1.3,0.7-1.9l0.3-0.8l-0.5-0.7
		C1778.5,737.3,1775.7,725.2,1776.7,712.7 M1327.8,75.1c-1.4,5.1-9.3,5.4-16.3,6c-7.5-1.7-13.2-4-11.4-7.8
		c2.5-5.2,12.6-3.3,19.6-3.7C1326.4,69.2,1328.6,72,1327.8,75.1 M1219.9,101.2c2.3-2,4.2-4.1,5.4-6.5c-6.5-2.5-9.3,4.4-15.5,0
		c-4.8-3.4-1.4-5.8,0.7-8.5c7.6-9.8,22.8-14.7,41.7-17.4c1,0.6,2.1,1.3,3.1,1.9c-4.8,2.1,5.5,11.1-12.6,7.5c-3.9-0.8-6.3,2-5.7,4.2
		c0.6,2.3,0.1,4.9,4.8,6.6c3.8,1.4,9.2,1.5,10.7-0.1c6.7-7.2,21.7-6.2,33.1-8.4c0.4-0.1,0.7-0.2,1-0.2c-1.5,2.7-3.7,5.1-7.4,6.8
		c-9.1,4.2-24.3,4.4-35.1,7.2c-1.9,0.5-19.3,7.7-21.3,7.3C1221.8,101.5,1220.9,101.4,1219.9,101.2 M1158.4,62.2
		c14.1-0.9,28.6,3.4,42.5,0.3c3.6-0.8,8.3-0.4,8.3,2.6c-0.1,3.8-0.8,7.6-10.4,8c-14.2,0.6-28.5,0.9-44.7-1.9
		c-4.7-1.8-19.1,0.7-18.5-4.8C1136.2,61,1149.7,62.8,1158.4,62.2 M1090.8,75.5c0.9-4.1,7.8-3.5,14.2-2.8c8,1.5,13.9,4.3,12.1,9
		c-1.6,4.1-8.8,2.9-14.4,2.1C1094.6,82.6,1089.9,79.5,1090.8,75.5 M1567.8,952.5c0.2,9.4-6,11.4-10.8,14.9c-2.7,2-5.9,5.2-8.6,1.4
		c-2.9-3.9,0.3-7.5,1.4-10.3c3.7-7.1,8.1-11.4,14.3-11.7C1566.5,946.7,1567.7,949.6,1567.8,952.5 M1569.4,904.8
		c9.9-11.4,17.8-25.5,29.4-34.5c4-3.1,7.1-6.6,11.5-2.6c4.4,4,0.4,8.3-0.1,12.4c-4,16.4-25.6,34.6-38.8,32.7c-1.3-0.2-2.9-1-3.7-2.2
		C1566.4,908.1,1568.1,906.3,1569.4,904.8 M1569.7,1006.2c1.7-1.2,2.6,0.1,3.3,1.8c0.9,2.2,1.3,3.9-0.4,6.2
		c-10.9,14.5-25.4,20-39.6,26.2c-1.2,0.5-1.9,1.3-2.8,2.3c-10.4,11.4-23.1,3.6-34.4,7.5c-3.8-8.3-12.3-2.9-16.1-10.5
		c-1.2-2.3-4.4-3.5-3.2-7c1-2.8,3.7-3.4,6-3.5c4.6-0.3,9.2-0.8,13.7-0.2c14.8,1.9,28.8-2.9,42.6-8.7
		C1549.2,1015.9,1559.9,1012.8,1569.7,1006.2 M1461.6,1055.1c1.2-0.6,2.5-1.2,3.7-1.8c2.2,5,7.3,2.6,10.6,7.3
		c-2.8,5.5-6.9,5.3-10.9,3.9C1461.4,1063.2,1459.8,1060,1461.6,1055.1 M1441.5,1043.1c1.6-5,4.7-8.3,8.8-8c1.9,0.2,1.7,3.9,0.7,5.8
		c-1.9,3.7-3.9,7.6-7.8,8C1441.1,1047.6,1440.8,1045.3,1441.5,1043.1 M1610.7,210.2c-19.7,0.4-51.3-4.4-59.7,15.4
		c-11,26-51.1,14.5-39.5,34c11.6,19.4,4.4,26,4.4,26c-6.9-0.7-13.7-15.8-16.9-22.8c-3.2-7-2.2-7.7-55-5.9
		c-52.8,1.8-30.8,49.3-17.4,51.9c13.4,2.7,14.8-3.4,24.5-9.5c9.7-6.1,22.3,1.9,22.3,1.9c-11,3.1-3.9,22-3.9,22
		c16.6-0.1,26.1,4.1,28.3,9c1.6,3.6-1.9,6.9-2.2,11.5l40,16.5v16.9l12.4,19.4v8l8.2,10.3l19.4,15.9l27.8,6.3
		c0.1-0.4,0.1-0.7,0.2-1.1c3.7,5.8,4.6,13.6,4.6,13.6c32.6,6.9,2.8,17.5,31.2,25.1c28.5,7.6,23,26.7,45.5,37.7
		c22.4,11,28.7,49,28.7,49c-5.4,1.5-10.8,21.1-10.8,21.1c10.8,12.9,20.5-3.6,20.5-3.6c32.9,15.9,51,56.6,51,56.6
		c-0.6,19.3-14.5,26.9-21.5,30.8c-6.9,3.9-13.7,52.9-23.5,66c-9.8,13.1-27.2,7.4-36.3,20.5c-9.1,13-18.6,34-38.6,47.8
		c-20.1,13.8-43.9,1.8-56.3,35.4c-12.4,33.6-43.2,19.8-43.2,19.8c-0.4-26.5,19.3-94,29.2-104.8c9.9-10.8,9.7-66.8,9.7-66.8
		s-23.7-16.5-30.3-46.6c-6.7-30.1-26.3-83.1-7.6-104.6c18.7-21.6,14.6-48.4,15.2-58.1c0.5-6.7,12.2-15.2,19.4-19.8
		c2.5-0.5,4.7-1.9,6.5-3.6c-5-1.6-14-4.3-20.2-5.2c-9.1-1.4-34.3,0.8-37.7-5.4c-3.4-6.2-8-26.8-16-29.1c-8-2.3-16-12-19.4-16.3
		c-3.4-4.3-14.9-19.2-14.9-19.2l-17.2-15.8v-16.5l1.7-1.3c-2.4-2.3-4-4.2-4.9-5.3c-4.5-5.9-24.9-13.7-50.5-17.5
		c-25.6-3.9-58.3-18.5-55.8-29c2.5-10.6-33.5-52.8-39.5-41c-6.1,11.8,12.2,31.3,12.2,31.3c-29.2-19-39.1-49.2-39.1-49.2
		c-30.5-20.7-5.9-51.6-3.2-54.7c2.7-3-18.8-11.6-23.8-25c-5.1-13.4,71.5-39.7,124.4-49.4c40.9-7.5,87,3.6,97.6,9.5
		c0.6,0.4,1.1,0.8,1.7,1.2c1.2,1.1,0.6,1.9-2.4,2.1c-17.5,1.1-58.2,22.7-41.9,24.5c16.3,1.8,54.4,11.9,54.4,11.9
		c-1.3,3.9,2.2,21.2,21.5,14.2c14.5-5.2,7.9-24.8,3.8-34.2c16,9,30.3,19.7,43.2,32.4C1585.3,178.5,1599.2,192.8,1610.7,210.2
		 M1187.2,1229.9c-8.1-0.5-16.1-1.3-23.9-2.1c-15.5-3.7-26.9-8.2-26.1-12.2c1.5-7.5-47.6-36.3-53.2-27.8
		c-3.8,5.8,6.5,13.8,13.4,18.3c-13.1-7.5-26.5-14.9-40.1-22c-5.4-4.8-8-8.1-8-8.1c-39.5-13.8-14.3-36.1-11.5-38.3
		c2.8-2.2-24.2-7.7-32.1-17c-8-9.3,80.2-29.6,142.3-37.7c62.1-8.1,138.9,5.4,118.1,6.6s-66.7,17.3-46.9,18.2c19.8,0.9,67,7,67,7
		c-1,2.7,5.6,14.8,27.8,9.5c22.2-5.3-4-27.6-4-27.6s13.5-2.6,28.4-0.3c1.1,0.5,2.3,1,3.9,1.5c4.7,1.5,9.7,3,14.7,4.6
		c1.8,1,3.5,2.1,5.2,3.4c11.6,9.2,22.5,8.8,29.4,7c20.6,6.5,39.8,13.4,51.9,21.2c-20.1,0-44,2.2-44,2.2c4.5,6.4,41.5,14.6,41.5,14.6
		c-12.8,6.5-76.3-3.9-85.9,14.6c-9.6,18.5-59.3,11.4-42.7,24.8c16.6,13.4,8.9,18.2,8.9,18.2c-8.4-0.3-18.6-10.8-23.5-15.6
		c-4.8-4.8-3.7-5.3-66.9-2.8c-63.1,2.5-30,35.3-13.5,36.9c16.5,1.6,17.3-2.8,28.1-7.3c10.8-4.5,27,0.8,27,0.8
		c-3.8,0.7-5.4,2.4-5.9,4.4C1240.9,1230.1,1215.4,1231.7,1187.2,1229.9"/>
</g>
</svg>
