<?xml version="1.0" encoding="utf-8"?>
<!-- Generator: Adobe Illustrator 20.1.0, SVG Export Plug-In . SVG Version: 6.00 Build 0)  -->
<svg version="1.1" id="Layer_1" xmlns="http://www.w3.org/2000/svg" xmlns:xlink="http://www.w3.org/1999/xlink" x="0px" y="0px"
	 viewBox="0 0 922.7 1295.5" style="enable-background:new 0 0 922.7 1295.5;" xml:space="preserve">
<style type="text/css">
	.st0{fill:#7BADB8;}
	.st1{fill:#5172AB;}
	.st2{fill:#BA382D;}
	.st3{opacity:0.6;}
	.st4{fill:#FFFFFF;}
	.st5{fill:#B94726;}
	.st6{fill:#5587C2;}
	.st7{fill:#A8C46B;}
	.st8{opacity:0.31;}
	.st9{fill:#8398A8;}
	.st10{opacity:0.21;}
	.st11{fill:#466F33;}
	.st12{fill:#87A953;}
	.st13{fill:#8CAC5B;}
	.st14{fill:#466D33;}
	.st15{fill:#476E33;}
	.st16{fill:#88AA53;}
	.st17{fill:#89AA53;}
	.st18{fill:#8BAB57;}
	.st19{fill:#89AA56;}
	.st20{fill:#8BAB55;}
	.st21{fill:#8BAB58;}
	.st22{fill:#577645;}
	.st23{fill:#CCDDB4;}
	.st24{fill:#CADCB0;}
	.st25{fill:#4A7134;}
	.st26{fill:#CADDB9;}
	.st27{fill:#E7EAD4;}
	.st28{fill:#456D33;}
	.st29{fill:#E5E8D3;}
	.st30{fill:#89AB50;}
	.st31{fill:#C1D6A4;}
	.st32{fill:#87AD73;}
	.st33{fill:#88AA51;}
	.st34{fill:#E9E9D6;}
	.st35{fill:#89AA51;}
	.st36{fill:#DAE6C2;}
	.st37{fill:#AFC982;}
	.st38{fill:#EBEADA;}
	.st39{fill:#84A851;}
	.st40{fill:#84A850;}
</style>
<g>
	<g>
		
			<rect x="451.2" y="-3.4" transform="matrix(1 -7.200855e-03 7.200855e-03 1 -1.3609 3.2758)" class="st0" width="6" height="388.1"/>
	</g>
	<g>
		<path class="st1" d="M469.9,1257.5c-4.4,0-8-3.6-8-8s3.6-8,8-8c234.2,0,424.7-190.5,424.7-424.7c0-234.2-190.5-424.7-424.7-424.7
			c-4.4,0-8-3.6-8-8s3.6-8,8-8c59.5,0,117.2,11.7,171.5,34.6c52.5,22.2,99.6,54,140.1,94.4c40.5,40.5,72.2,87.6,94.4,140.1
			c23,54.3,34.6,112,34.6,171.5S898.9,934,875.9,988.3c-22.2,52.5-54,99.6-94.4,140.1c-40.5,40.5-87.6,72.2-140.1,94.4
			C587.1,1245.8,529.4,1257.5,469.9,1257.5z"/>
	</g>
	<g>
		<path class="st2" d="M455.7,1257.5c-59.5,0-117.2-11.7-171.5-34.6c-52.5-22.2-99.6-54-140.1-94.4c-40.5-40.5-72.2-87.6-94.4-140.1
			C26.6,934,15,876.3,15,816.8s11.7-117.2,34.6-171.5c22.2-52.5,54-99.6,94.4-140.1c40.5-40.5,87.6-72.2,140.1-94.4
			c54.3-23,112-34.6,171.5-34.6c4.4,0,8,3.6,8,8s-3.6,8-8,8C221.5,392.1,31,582.6,31,816.8c0,234.2,190.5,424.7,424.7,424.7
			c4.4,0,8,3.6,8,8S460.1,1257.5,455.7,1257.5z"/>
	</g>
	<g class="st3">
		<g>
			<path class="st1" d="M456.4,352.8c18.7,0,33.9,15.2,33.9,33.9c0,18.7-15.2,33.9-33.9,33.9c-18.7,0-33.9-15.2-33.9-33.9
				C422.4,368,437.6,352.8,456.4,352.8 M456.4,342.8c-24.2,0-43.9,19.7-43.9,43.9c0,24.2,19.7,43.9,43.9,43.9
				c24.2,0,43.9-19.7,43.9-43.9C500.3,362.5,480.6,342.8,456.4,342.8L456.4,342.8z"/>
		</g>
	</g>
	<g class="st3">
		<g>
			<path class="st1" d="M467.1,1211.7c18.7,0,33.9,15.2,33.9,33.9c0,18.7-15.2,33.9-33.9,33.9c-18.7,0-33.9-15.2-33.9-33.9
				C433.1,1226.9,448.3,1211.7,467.1,1211.7 M467.1,1201.7c-24.2,0-43.9,19.7-43.9,43.9c0,24.2,19.7,43.9,43.9,43.9
				c24.2,0,43.9-19.7,43.9-43.9C511,1221.4,491.3,1201.7,467.1,1201.7L467.1,1201.7z"/>
		</g>
	</g>
	<g>
		<circle class="st4" cx="456.4" cy="386.8" r="33.9"/>
	</g>
	<g>
		<circle class="st4" cx="467.1" cy="1245.6" r="33.9"/>
	</g>
	<g>
		<g>
			<circle class="st4" cx="462.6" cy="815" r="295.4"/>
			<path class="st5" d="M462.6,1111.4c-79.2,0-153.6-30.8-209.6-86.8c-56-56-86.8-130.4-86.8-209.6S197,661.4,253,605.4
				c56-56,130.4-86.8,209.6-86.8s153.6,30.8,209.6,86.8c56,56,86.8,130.4,86.8,209.6s-30.8,153.6-86.8,209.6
				C616.2,1080.6,541.7,1111.4,462.6,1111.4z M462.6,520.6c-162.4,0-294.4,132.1-294.4,294.4s132.1,294.4,294.4,294.4
				S757,977.4,757,815S624.9,520.6,462.6,520.6z"/>
		</g>
		<g>
			<g>
				
					<ellipse transform="matrix(0.9999 -1.647127e-02 1.647127e-02 0.9999 -13.3915 7.7561)" class="st6" cx="464.2" cy="816.8" rx="234.5" ry="234.5"/>
			</g>
			<g>
				<g>
					<path class="st7" d="M485.4,1028.4c-4.9,0-6.1,1-7.1,0.9c-1.8-0.4-3.1-1.5-2.9,0c0.2,1.6,0.8,2-0.4,2.1c-1.2,0.1-2.2,0-0.8,0.9
						c1.4,0.9,2.7,0.2,4.1-0.6c1.4-0.7,3.8-3.3,2-1.1c-1.8,2.1-3.9,3-0.7,2.1c3.2-0.9,1.5-1.4,4.4-1.5c2.8-0.1,3.5,0.4,3.8-0.1
						c0.3-0.5-1-1-1.2-1.9C486.4,1028.2,490.3,1028.5,485.4,1028.4z"/>
				</g>
				<g>
					<path class="st7" d="M400.2,744.8c1,0.3,3.7-0.2,12.3-0.2c8.6,0,4.8-0.4,3.9-1.6c-0.9-1.2-2.8-0.9-4.4-2.4
						c-1.7-1.5-0.5-1.6-1.9-1.5c-1.5,0-3.3-1.4-5.6-2.2c-2.3-0.8-1.7,0.1-4.1-2.2c-2.4-2.3-0.4-0.9-5.6-1.5
						c-5.1-0.6-3.6-1.5-3.6-1.5l-6.3-1.2l-6.1,0.9c0,0-5.8,0.9-6.7,2.1c-0.9,1.2-1.1,1.6-3.1,2.2c-1.1,0.3-0.3,0.9,1.1,1
						c1.3,0.2,1.5,0.3,3.4-1.8c2-2,1.3-0.6,4.4-1.3s1.3-1,3.1-1.3c1.8-0.2,3.2,0.9,1.9,1.3c-1.3,0.4-1.4,0.5,1.2,1.2
						c2.6,0.7,1.3,0.6,3.3,0.4c2.1-0.2,1.6,0.6,3.4,1c1.8,0.4,1.8,1.1,4.8,0.8c3-0.3,1.5,0,2,1.5c0.5,1.6,1,1.9,4.4,2.8
						C405.3,742.2,399.2,744.5,400.2,744.8z"/>
				</g>
				<g>
					<path class="st7" d="M454.1,752.6c-2.2-0.4-1.1,0-2.7-0.1c-2.7-0.1-2.4,2.7-0.4,2.5c2-0.1,1-0.1,3.1,1.3
						c2.1,1.4,0.8-0.5,1.9-0.8c1.1-0.3,3.5-1,3.4-1.1c-0.1-0.1-1.4-0.5-2.9-1.2C455,752.5,456.3,752.9,454.1,752.6z"/>
				</g>
				<g>
					<path class="st7" d="M402.5,727c1.1,0.1,1.9-0.5,1.7-2.2c-0.2-1.7-1.8-4.8-2.9-4.6c-2.5,0.5-5-1.2-1.9,2.8
						C402.5,727,401.5,726.9,402.5,727z"/>
				</g>
				<g>
					<path class="st7" d="M423.9,601c-0.1-1.3-1.3-0.2-1.3-0.2l-0.7,0C423.2,601.5,424,601.9,423.9,601z"/>
				</g>
				<g>
					<path class="st7" d="M420,599.9c-1.9-0.7-2,1-3.1,1l1.3,0l3.7-0.1C421.4,600.5,420.8,600.2,420,599.9z"/>
				</g>
				<g>
					<path class="st7" d="M413.4,601.5c0,0-1.6,0.5-0.4,0.7c1.1,0.2,0.6,0.3,2.8-0.4c0.5-0.1,0.8-0.4,1.1-0.4l-0.4,0
						C413.8,601.4,413.4,601.5,413.4,601.5z"/>
				</g>
				<g>
					<path class="st7" d="M419,601.6c0,0-1.6,1.3-2.8,1.1c0,0,0.4,2.1,0.8,2c0.4,0,2.8,0,2.8,0s0.3-1.5,0.3-2
						C420,602.1,419,601.6,419,601.6z"/>
				</g>
				<g>
					<path class="st7" d="M424.4,604c0.5-0.6,0-1.7,0-1.7c-1.4,0.4-1.4,0.4-1.4,0.4l-0.5,1.3C422.4,604,423.9,604.6,424.4,604z"/>
				</g>
				<g>
					<path class="st7" d="M488.8,640.1c1.1,0.8,1,1.3,2.5,0.4c0.8-0.5,1.4-1.3,1.7-1.9c0.6,0.4,1.3,0.2,1.7-0.3
						c0.4-0.5-0.1-0.6,0.7-0.9c0.8-0.3,1.4-0.7,1.4-0.9s1-0.4,0-1.2c-1-0.8-2.9-0.1-1.8-1.5c1.1-1.3,4.3-0.7,0.8-1.9
						c-3.5-1.2-3.3-1.2-4.9-1.1c-1.6,0.1,0.4,1.2-2.5,0.3c-3-1-4-0.8-2.9-2c1.1-1.2,2.9-2.9,2.6-3.4c-0.3-0.6-0.8-0.9-2-0.7
						c-1.2,0.2-2.6,1.2-2.6,1.2c-0.3,1.3-0.9,2.6-0.9,2.6l-1.8,2.8l-1,2.1c0,0,0.4,0.1-0.5,0.6c-0.9,0.5-3.3,0.3-1.6,0.6
						c1.7,0.3,3.1,0.1,1.3,1c-1.8,1-4.2,1.5-1.9,1.6c2.4,0.1,7.5-0.1,7.5-0.1l1.8-0.2l1.9,1.3c0,0,2.1-0.6,2.9-0.6
						c0.1,0,0.2,0,0.3,0c0,0.4-0.1,0.7-0.5,1.1C489.8,639.9,487.6,639.2,488.8,640.1z"/>
				</g>
				<g>
					<path class="st7" d="M473.9,643.1c0,0,0.6,0.9,1,1.2c0.4,0.3,0,0,1.5-0.3c1.5-0.3,1.2-0.6,1.4-1c0.2-0.4-1.4-0.1-2.1-0.7
						c-0.8-0.6-0.3-0.4-0.7-2.9c-0.4-2.5-0.8-0.5-0.8-0.5l-2.4,2.4c0,0-0.3,0.7-0.4,2.2c-0.1,1,1.1,1.2,1.8,1c0.7-0.1,0,0,0.1-0.6
						C473.3,643.3,473.9,643.1,473.9,643.1z"/>
				</g>
				<g>
					<path class="st7" d="M496,640.1c0,0.4,1.3-1.2,1.5,0c0.2,1.2,0.4,1.4,0.4,1.4l2-0.6l1.2-1.6l0.3-1.2c0,0,0-1.6-0.9-1.3
						c-0.9,0.3-0.7,0.5-1.5,0.9c-0.7,0.4-0.6,1-0.7,0.4c-0.2-0.5-0.2-2.3-0.2-2.3c-1.4,0.7-1.5,1.5-1.5,1.5s-1.1,0.3-0.8,1.3
						C496,639.5,496,639.7,496,640.1z"/>
				</g>
				<g>
					<path class="st7" d="M461.1,586.1c6.2,0.5,7.7,0,7.7,0s0,0,5.1,1.7c5.1,1.7,0.9,0.5,3.3,1.2c2.4,0.7,1.1,0,3-0.1
						c1.9,0,0.9,0.7-0.3,0.7c-1.2,0-1.2,0.3-3,0.7s0.2,0.6,2.5,1.2c2.3,0.6,2.8-0.8,2.8-0.8s0.4,0.7,0,1.3c-0.4,0.6-0.4,0.3-1.3,1.4
						c-0.9,1.1,0,0,1.4,1.4c1.4,1.4,3.3,2.3,4.7,3.5c1.4,1.1,8.9,4.3,8.9,4.3l5.7,0.4c0,0,2.6,0,5,1c2.5,1,1.4,1.3,2,1.2
						c0.6,0,4.6,0.7,4.8,0.4c0.2-0.3-1.4-2.6-2.2-4.1c-0.8-1.5-0.1-1.8-0.1-1.8l-0.4-1.1c0,0-1.1-2.2-0.3-2.9
						c0.8-0.6,1.3-0.1,5.3-0.1c4,0,1.5-0.2,0.4-1.6c-1.1-1.5-0.2-0.8,0.6-0.9c0.7,0,1.4,0.4,1.9,0c0.5-0.4,1-0.4,2.8-0.5
						c1.8,0,3.3,0.1,1.5-1.6c-1.7-1.7-7.4-1.4-25.4-5c-18-3.5-28.1-2.3-29.1-2.3c-1,0-5,0.4-6,0.5c-1,0.1-2.8,0.4-6.4,0.6
						c-3.6,0.1-2.5,0.2-4.5,0c-2-0.1-1.9,0.2-3.8,0.4c-0.5,0.1-1,0.2-1.5,0.4c1.3,0,3,0.2,5,0.5
						C459.8,587.5,454.9,585.6,461.1,586.1z"/>
				</g>
				<g>
					<path class="st7" d="M543.6,600.3c3.4,0.2,4.1,1.5,5.6,0.8c0,0-7.2-3.9-9-4.1c-1.8-0.2-4.9,0.1-4.9,0.1l1.1,2.7
						C536.4,599.8,540.3,600.1,543.6,600.3z"/>
				</g>
				<g>
					<path class="st7" d="M594.4,631.1c0,0,3-0.2,3.2-0.6c0.2-0.4,0.9-2.1-0.1-3.3c-1-1.2-9.3-5.7-9.3-5.7c-1.3,0-1.4,1.2-1.4,1.2
						l2.2,5.3L594.4,631.1z"/>
				</g>
				<g>
					<path class="st7" d="M625.6,663c0,3.3,2.1,6.3,2.1,6.3s1.3,2.1,2.3,3.1c1,1,6.6,6.2,8.5,6.1c1.9-0.1,2.4,3.4,2.7,0
						c0.3-3.4,1.2-2.5-0.1-4.5c-1.3-2-2.1-3.5-3.2-4.9c-1.1-1.5-2.7-1.9-2.7-4.4c0-2.5,0-2.5,0.1-4.3c0.2-1.7-21.3-20.7-21.3-20.7
						c-4,0.1-8.2-3.6-4,0.1c4.2,3.7,4.7,4.4,4.7,4.4l3.9,3.4c0,0,7,5.3,6.7,7.1s-8.2-1.8-7.4,0.1C618.8,656.7,625.7,659.7,625.6,663
						z"/>
				</g>
				<g>
					<path class="st7" d="M625.4,753.6c-0.6-0.5-1.5,0-1.5,0c-0.5,1-0.5,1.3,0.3,1.6s1.2,0,1.2,0S625.9,754.1,625.4,753.6z"/>
				</g>
				<g>
					<path class="st7" d="M627.4,755.2c-0.9,0.6-1.1,0.9-0.7,1.2c0.4,0.3,1.2,0.7,1.2,0.7l0.8-1L627.4,755.2z"/>
				</g>
				<g>
					<path class="st7" d="M629.5,754.3l1,0.6l0.8-0.3l-0.9-1.3C629.3,753.9,629.5,754.3,629.5,754.3z"/>
				</g>
				<g>
					<path class="st7" d="M630.4,757.3l1.2,0.9l0.9-0.4l-1.2-1.6C630.4,756.5,630.4,757.3,630.4,757.3z"/>
				</g>
				<g>
					<path class="st7" d="M630.7,760.3c0.6,0.5,0.6,1.4,1.1,0.8c0.6-0.6,0.6-0.6,0.6-0.6l-1.7-1.2
						C630.4,759.7,630.1,759.9,630.7,760.3z"/>
				</g>
				<g>
					<path class="st7" d="M628.4,761.1c0.1,0.4,0.3,1,0.8,1.2c0.5,0.2,0.9,0,0.9,0s-0.5-1.3-0.6-1.5
						C629.5,760.5,628.4,761.1,628.4,761.1z"/>
				</g>
				<g>
					<polygon class="st7" points="625.4,761.1 626.6,762.1 627.2,761 626.2,760 					"/>
				</g>
				<g>
					<path class="st7" d="M542.2,1030.9c-1.7-0.1-3.7-0.3-3.7-0.3c-1.3,0.4-0.8,1.7-0.8,1.7l1.8,1.2c0,0,2.6,1.3,3.4,0.8
						c0.8-0.5,2.8,0.7,1.2-1.3C542.5,1031.1,543.9,1031,542.2,1030.9z"/>
				</g>
				<g>
					<path class="st7" d="M429.9,1028.3c0-0.3-0.7-0.4-0.7-0.4s-0.5,0.5,0,0.3c0.2-0.1,0.3,0,0.5,0.2
						C429.8,1028.4,429.9,1028.3,429.9,1028.3z"/>
				</g>
				<g>
					<path class="st7" d="M430.8,1029.4L430.8,1029.4C430.8,1029.3,430.7,1029.3,430.8,1029.4L430.8,1029.4z"/>
				</g>
				<g>
					<path class="st7" d="M429.7,1028.7c-0.4,0.1-1.6-0.2-1.9,0c-0.3,0.3-2,0.6-2,0.6l0,0.8l2.1,0.4l1.6,0.1c0,0,0.9-0.5,1.3-0.6
						l-0.5,0C430.3,1029.9,430,1029,429.7,1028.7z"/>
				</g>
				<g>
					<path class="st7" d="M429.5,756.6c1.2-0.5,1.9-2.3,3.3-3.5s1.4,0.8,4.1-0.3c2.7-1.1,0.5-1,3.9,0.6c3.4,1.6,2.9,1.2,4-0.9
						c1.1-2.1-3.9-2.8-6.6-4.5c-2.7-1.7-2.3-1.9-7.4-2.5c-5.1-0.6-2.1,1.1-4.5-0.3c-2.4-1.4-2.8-0.8-5.7,0.1c-1.9,0.6-0.3,1.6,2,1.6
						c2.3,0,1.6,0.8,1.6,2.1c0,1.3-0.9,1.1-2.2,1.6c-1.3,0.5-2.5,1.2-6.6,1.5c-4,0.3,0,1.7,0,1.7s2.4,0.7,6.2,0.5
						c3.8-0.3,2.5-1.2,6-0.2c0.1,0,0.1,0,0.2,0C431,755.1,428.3,757.1,429.5,756.6z"/>
				</g>
				<g>
					<path class="st7" d="M693.6,772c-4-20.4-10.6-39.7-19.4-57.8c-5.2-10.6-11.2-20.8-17.9-30.4l-3.4-3.5c-3.7-1.4-4.7-2.2-5.7-1.4
						c-0.9,0.8-2.3,2.1-2.3,2.7c0,0.6,3.2,0.4,0,0.6c-3.2,0.3-3.7,0.9-4.4,0.1s-2.2-4.5-2-2.8c0.2,1.7,2.4,5.1,2,6.7
						c-0.4,1.6-0.4,3-0.5,4.9c-0.1,1.9,2.1,8.2,2.1,8.2s2.8,0.8,2.1,4c-0.7,3.2-0.7,3.6-1.1,5c-0.3,1.1-1.3,0.6-1.7,2.1
						c3.7-0.1,8,0.9,8,0.9s1.3,1.2,3.5,3.1c0,0,0,0,0-0.1c-0.3,0.6-0.8,1.8-0.7,2.8c0.2,1.6-0.5,2.8-1.9,2.2
						c-1.4-0.7-5.1-4.2-3.8-1.1c1.3,3.1,3.8,4.6,2.1,6.3c-1.7,1.7-3-2.1-1.7,1.7c1.3,3.8,4.7,8.3,2.3,8.5c-1.7,0.1-5.8-0.9-8.9-0.7
						c1.2,3,1.5,3.5,2.6,5.1c1.1,1.6-1,2.2,1.2,5s1.9,6.1,1.8,7.3c0,1,0,2.1,0.5,3.6c0.1,0.4,0.3,0.7,0.4,1.2
						c0.9,2.1-0.6,3.5-0.8,4.6c-0.2,1.1-0.1,0.5,1.5,3.4c1.7,2.9,3,1.7,2,4.4c-1,2.7,0.1,4.1,1.7,5.7c1.6,1.6,2.1,0.1,2.2,2.6
						c0.1,1.2,0.7,2.1,1.4,2.6c0.7,0.6,1.4,0.9,1.5,1c0.2,0.3,3.5,3.3,3.4,5.7c-0.1,2.3,1.5,6.2,5.7,11.5c0.1,0.2,0.2,0.3,0.4,0.5
						c4.4,5.5,5.1,11.8,7.9,8.9c2.8-3,5.8-3.7,6.4-4.1c0.6-0.4,0.5-1.5,2-1.7c1.6-0.2,2.3-0.2,2.1-1.7c-0.2-1.5,0.9-3.1,1.4-3.6
						c0,0-0.7-14.4-0.2-15.5c0.5-1.1-0.3-6.1-1.2-7.3c-0.2-0.3-0.4-0.5-0.6-0.5c0.2,0,0.5,0.2,0.7,0.5c0.9,1.3,1.6,6.2,1.1,7.4
						c-0.5,1.1,0.2,15.5,0.2,15.5c0.6-0.5,2.2-1.7,2.5,2.4c0.4,4.1-0.1,4.3,1,4.2c1.1-0.1,2.7-1,3.1,2.4c0.1,1.4,1.1-11.9,2.1-28
						C694.2,775.4,693.9,773.7,693.6,772z M658.8,761.6L658.8,761.6c0.1,0.1,0.1,0.2,0.2,0.3C658.9,761.8,658.9,761.7,658.8,761.6z
						 M659.4,720.8L659.4,720.8c-0.1,0-0.1,0.1-0.2,0.1C659.3,720.8,659.4,720.8,659.4,720.8z M660.1,772.8c0.3,0.2,0.6,0.4,0.8,0.5
						C660.7,773.2,660.4,773,660.1,772.8z M681.1,758.4c0.1,0.8,0.1,1.4,0.1,1.8C681.2,759.8,681.2,759.3,681.1,758.4
						c-0.5-4.7-4.3-13.4-4.3-13.4S680.6,753.7,681.1,758.4z M666.8,789.2L666.8,789.2L666.8,789.2L666.8,789.2z M674.1,781.7
						L674.1,781.7C674,781.7,674,781.7,674.1,781.7c0-0.1,0-0.2,0-0.4C674.1,781.4,674.1,781.6,674.1,781.7z M677.3,783L677.3,783
						c0.1,0,0.1,0.1,0.2,0.1C677.5,783.1,677.4,783,677.3,783z M676.4,779.1c0.1,0.7,1,1.6,1,2.8
						C677.4,780.7,676.5,779.8,676.4,779.1z M673.9,770c-0.5,2.2-0.6,4.1-0.5,5.7c-0.1-1.8,0-3.8,0.5-6.2c1-4.7,0-6,3.3-8
						c1-0.6,1.8-0.7,2.4-0.6c-0.3,0.6-0.2,1.3,0,2c-0.6,0-1.4-0.9-2.3-0.4C673.9,764.5,674.9,765.3,673.9,770z M683.2,772.8
						c-0.4,0.3-0.6,1.2-0.6,2.2c0,1.6-0.1,2.2-2.3,2.7c1.8-0.5,0.5-1.1,0.4-2.6c0-0.7-1.6-1.3-1.6-1.8v0c1.6-3.7-1.7-7.3-0.3-10.2
						c0.6,2,2.8,4.6,3.6,7C682.9,771,683.4,771.9,683.2,772.8z"/>
				</g>
				<g>
					<path class="st7" d="M603.9,859.2c-0.3-2.8-2.1-3-5-2.9c-3,0.2-3.1,0.3-7.9-3.9c-4.8-4.2-7.6-4.3-9.4-4.2
						c-1.8,0.1-5.4,0.6-5.7-0.1c-0.3-0.7-1.1-0.8-1.8,0.1c-0.7,0.9-1.4,0.1-4.3-1.3c-2.9-1.4-2.7-0.2-4.2,1.1
						c-1.5,1.3-3.3,3.1-3.3,2.9c0-0.2,0.1-0.9,0.1-1.4c0-0.5,0.2-1.2,0.9-2.7c0.7-1.5-0.1-2.3-0.7-3c-0.6-0.8-2.1-0.9-3.6-0.6
						c-1.4,0.2-0.1-1.1-0.8-1.9c-0.7-0.8-4-0.9-7.1-2.2c-3.1-1.3-3.8-0.7-5.4,0.3c-0.9,0.6-1.3,1.6-1.7,2.5l-0.8-0.4
						c1.5-1.3,0.7-1.6,1.3-3.5c0.6-1.9-0.1-0.7-2.1-1c-2.1-0.2-4.1-1.8-6.1-3.1c-2-1.2-1.8,1.9-1.8,1.9s-0.2,0-0.4,0.1l-1.2-0.7
						c0.1,0,0.3,0,0.5-0.1c1.3-0.8,0.9-0.4,1.1-1.4c0.2-1,2.7-3.7,2.7-4.9c0-1.1-1.1,0-1.8-0.2c-0.8-0.2-2-2-3.2-4.8
						c-1.2-2.8-1.1-5.9-3.5-6.3c-1.2-0.2-3.4-0.4-3.4-0.7c0-0.4,1.4-0.9,0.5-1.5c-1.9-1.3-0.9-0.3-2.1-2.1c-1.2-1.8-1.3-1.5-2.7-1.8
						c-1-0.2-1.9-0.6-3.4-1.3l0-0.1c-0.5-0.2-1.2-0.5-1.8-0.8c-2.7-1.2-3.1,0.1-3.1,0.1s-3.2-0.6-4.6,0.8c-1.4,1.4-1.5-0.3-4.8-0.2
						c-1.9,0-2.3-0.1-2.6-0.4c-0.2-0.3-0.2-0.7-0.6-1.2c-0.9-1.3-4.1-2.1-6.3-2.1c-2.1,0-0.3-0.6-0.1-2c0.2-1.3-0.2-0.7-1.4-2.1
						c-0.9-1.1-2.2-1.5-3.8-2.2c-0.4-0.2-0.7-0.4-1.1-0.6c-2.1-1.2-2.1-0.5-2.8-1c-0.6-0.5-0.5-1-1.1-2.6c-0.1-0.2-0.1-0.3-0.2-0.5
						c-0.5-1.3-2-1.7-3.1-1.9c-0.6-0.1-1.1-0.2-1.4-0.2c-0.9-0.3-4.2-1-4.8-1.5c-0.6-0.4-0.6-1.7-1.3-3.1c-0.7-1.3-0.9,0-4.9-0.1
						c-4-0.1-3.1-0.1-3.1,1c0,1.1,0,1-2.1,2.1c-2.1,1.1-1.8,0.9-4,0.4c-2.1-0.5-3.9-2.5-5-3.4c-1.1-0.8-1.4,0-3,0.9
						c-1.6,0.9-2.5,0.9-4.6,0.6c-2.1-0.3-1.2-0.9-1.2-3c0.1-2.1-1.8-2-6.8-2.5c-4.9-0.5-3.9,1.6-6.7,2c-2.9,0.5-2,0-1.9,1.5
						c0,1.5,1.7,4.4,1.8,6.1c0.1,1.7-0.3,1.6-1.7,2c-1.4,0.4-1.7,1.3-1.7,0.3c0-0.9-0.8-1.3-1.5-2.6s0.4-1.1,0.7-2
						c0.3-1,0.8-0.6,1.4-1.6c0.6-1-0.2-1.9-0.4-2.8c-0.2-1-0.7-1-1.6-2.5c-0.9-1.5,0.1-0.9,1.7-1.4c1.5-0.6,1.2-0.8,1.8-2.5
						c0.6-1.7-1.3-1.4-3.8-0.6c-2.5,0.8-1.2,2.9-2.3,2.3c-1.1-0.6-1.8-1-2.1,1c-0.3,2-2,1.8-2.7,1.6c-0.6-0.3-2.2-0.9-2.6-0.4
						c-0.3,0.5-0.4,1.8-1.8,1.4c-1.4-0.5-1,0-3,1c-2,1-2,3.8-1.9,6.5c0,2.7-1.7-0.4-2.9,2c-1.2,2.4-3.2,0.4-3.1,3.5
						c0.1,3.1-0.7,1.2-0.9,0.8c-0.1-0.2-0.2-0.5-0.5-0.8c-0.3-0.4-0.7-0.8-1.3-1.5c-1.2-1.2-1.6-0.6-3.4-2.9
						c-1.8-2.3-6.3-0.2-9.2,0.2c-2.9,0.4-4.2,1.5-6.4,2.3c-2.3,0.7-2.7-0.7-3.3-2c-0.6-1.3-0.7-0.3-0.8,0.7c-0.1,1-0.5,0-1-0.1
						c-0.5-0.1-0.8-0.5-0.5-1.6c0.2-0.9-0.2-0.8-0.9-0.9c-0.2,0-0.4-0.1-0.6-0.2c-1.1-0.4-1.4-1.1-1.8-2c-0.4-0.8-0.6-1.1-1.1-2.5
						c-0.4-1.4-0.8-2-0.8-2s-0.5-1.1-1-2.2c-0.5-1.2-0.4-1.1,0.6-1.8c1-0.7,0-0.4-0.2-1.9c-0.2-1.5,0.4-1,1.6-1.9
						c1.3-0.9-0.1-2.1-0.2-3.4c-0.1-1.3,0.1-0.9,0.7-2.2c0.6-1.4,0.9-1.5,1.6-2.8c0.7-1.3-0.6-2-1-1.9c-0.4,0.1-1.7,0.4-2.7,0.5
						c-1,0.1,0.9-0.4,1.6-1.1c0.7-0.7,1.3-0.3,2-0.9c0.6-0.6,0.4-0.8-0.4-0.8c-0.7-0.1-1.3-0.6-2.7-1.6c-1.3-0.9-2.8-0.4-3.6-1.3
						c-0.8-0.9-2.5,0.8-3.5,0.1c-1-0.7-1.3,0.1-3,0.7c-1.7,0.6-3.5,0.1-5.3-0.6c-1.8-0.6-1.9,0.7-2.5,0.1c-0.6-0.6-0.3-0.3-1.6,0
						c-1.3,0.3-1.1-0.5-1.9-0.5c-0.3,0-0.2-0.1,0-0.3c0.4-0.4,1.7-1.2,2.9-2.2c1.7-1.4,1.2-3,1.4-4.8c0.2-1.8,0.8-1.6,1.9-2.1
						c0.6-0.2,0.3-0.3,0.4-0.9c0-0.5,0.2-1.4,1.4-3.1c2.4-3.6,1.3-2,1.4-3.3c0.1-1.3,0.1-2.1,0.7-2.9c0.6-0.9,2.7-2.8,3.6-4.1
						c0.9-1.3,1-2.2-1.1-2c-2.1,0.2-2.5,1.2-3.4,0.1c-0.9-1-4.6-0.1-7.2,0.3c-2.6,0.4-2.8,1.5-3.4,4.1c-0.6,2.6-1.8,5.1-2.7,6.4
						c-0.9,1.3-1.9,1.7-5.6,2c-3.7,0.3-0.8,0.6-2.8,0.9c-2,0.3-1.6,0.2-4.3,1.7c-2.7,1.5-2.7-0.7-3.5-2.1c-0.8-1.4-2.5,0.4-3.7-0.9
						c-1.2-1.3-0.4-2.6-0.4-4.1c0-1.5-1.6-1.6-1.8-4.1c-0.2-2.5-0.9-3.3-0.9-7c-0.1-3.7,0-2.3,1.8-6.4c1.8-4.1,0.6-3.5,1.8-5
						c0.4-0.5,0.7-1.1,0.9-1.7c0.3-1.1,0.3-2.2,0.3-3.3c0.1-1.6,0-1.1,0.8-2.1s0.9-1.2,0.9-2.6c0-1.3,0.5-1.5,1.7-2.7
						c1.3-1.2,1.6-0.9,2.1-1.9c0.5-1,0.4-0.3,2.1-0.4c1.7,0,0.8-0.2,1.6-0.9c0.7-0.7,0.4-0.1,1.6-0.2c1.2-0.2,0.8-0.3,1-1.1
						c0.2-0.8-0.3-1.1,0.5-2.2c0.8-1.1,0.4,0.8,3.6-0.3c3.1-1.1,1.3-0.8,3.4,0.1c2.1,0.9,1.6,0.3,3.4-0.3c1.8-0.6,0.8,0.8,1.7,0.9
						c0.9,0.1,1.1,0.1,2.4,0.7c1.3,0.5,1.8,0.1,2.4-0.7c0.6-0.8,0.8,0,1.6,0.7c0.8,0.6,0.5-0.7-0.4-2c-0.9-1.3,0.1-1.1,0.2-2.3
						c0.1-1.3-0.5,0-1.6,0c-1.2,0-1-0.4-0.3-1.2c0.7-0.8,1.6,0.2,4.3,0.4s2.4-0.6,2.9-1.1c0.4-0.5,0.3,0.2,0.3,1.2
						c0.1,1.1,0.7-0.1,3-0.5c2.3-0.5,1.1-1,4.5,0.2s-0.2,2.1,3,2.8c3.2,0.7,2.7-1.2,4.6-1.2c1.9,0,1.9,0.5,2.8,1.9
						c0.9,1.5,2.4,0.6,2.8,2.5c0.4,1.9-0.9,2.1-1.1,3.8c-0.1,1.7,0.3,4.1,1.2,4.1c0.9,0,0.2,1,0.7,1.7c0.5,0.7,2.5,4.3,3.2,4.4
						c0.6,0.1,1.8,1,3.6-1.1c1.8-2,1.9-5.8,0.7-7.3c-1.2-1.5-0.3-2,0-3.4c0.3-1.4-0.4-1.3-1.2-3.2c-0.8-1.9-1-3-1.3-4.5
						c-0.3-1.5-1-1.4,0-2.9c1-1.5,1.8-3.7,3-4.8c1.2-1,1.5-0.9,4.5-2.9c3-2,3.3-2.5,4.9-3.8c1.7-1.3,3.9-0.9,4.3-1.8
						c0.4-0.9,0.9-0.7,3.2-1.6c2.4-0.9,1.6-0.6,3.5-1.6c1.9-1,3-2.6,1.3-3.7c-1.8-1.1,0-0.7,2.9-1.2c2.9-0.5-0.4-0.9-1.3-1.6
						c-0.9-0.7-0.8-1.6-0.5-2.7c0.2-1.1,0.7-1.3,0.4-3s0.4-2.2,1.7-3.5c1.3-1.3,0,0.5-0.2,2c-0.2,1.5,0.1,1.1,1.1,1.7
						c1.1,0.7,1,0.7,1.2-0.4c0.2-1.1,0.2-1.9,0.6-2.9c0.4-1,0.3-0.1,1.6,0.7c1.3,0.8,0.6-0.3,1.9-1.6c1.3-1.3,0.9-1,1.4-2.5
						c0,0-1.5-0.9,0.6-1.2c2.1-0.3,0.3-0.7,1.4-1.6c1-0.9,0.6-0.2,3.5-0.1c2.9,0.1,2.9,0.1,3.6-1.2c0.7-1.3,0.4,0,2,0.7
						s2.3-1.6,1.9-1.9c-0.4-0.4-1.6-0.6-1.4-2c0.1-1.4,0-1.7,3-3.7c2.9-2,1.9-0.5,3.4-1.5c1.5-1,1-0.9,2.4-0.7
						c1.3,0.1,1.6-0.3,2.5-0.4c1-0.1,1-0.7,2.9-0.8c1.8-0.1,1.1-0.5,1-1.6c-0.1-1.1,0.2-0.5,2.4-0.6c2.2-0.1,3.6-0.8,5.6-1.5
						c2-0.6,0,0.7,0.1,0.8c0.1,0.2,0.8,0,2.8,0.2c2.1,0.2,0,0.5-0.2,0.9c-0.2,0.4-1,0.4-1.8,0.2c-0.9-0.2-0.9-0.4-1.7-0.1
						c-0.8,0.3-3.2,1.1-3.2,1.1s-0.2,0.5-0.8,1.6c-0.6,1.1-0.6,1-0.8,1.7c-0.1,0.7,0.9,1.5,1.5,1.5c0.6,0,2-0.5,3-0.9
						c1-0.4,1.7-1.2,2.4-1.7c0.7-0.5,0-0.5,0.5-1.2c0.4-0.7,1,0.5,1,0.5s0.6,0,1.4-0.6c0.8-0.5,0.5-0.2,1.7-0.3
						c1.2-0.1,1.5,0,2.2-0.7c0.7-0.7,0.4-0.3,2.7-0.7c2.3-0.4,1-0.8,0.4-1.7c-0.6-0.8-0.5,0-1.4-0.7c-0.9-0.7,0-0.4-0.7,0.1
						c-0.7,0.5-0.8-0.1-3-0.1c-2.2,0-3.2-0.5-3.3-1.1c-0.1-0.6,0.1-0.7-1.9-1.1c-2.1-0.4-0.9-0.6-0.9-2.1c0-1.5,0-0.3-1.3-0.3
						s-0.3-0.2,0.4-1.4c0.7-1.2,0.8-0.9,1.1-1.5c0.3-0.6-1.2-0.2-2.1,0.4c-0.9,0.6-1.6,0.4-2.1-0.4c-0.5-0.8-0.7-0.6-1.9-0.7
						c-1.2-0.1-0.3-0.2,0-0.3c0.3-0.1,0.5-0.2,1.5-0.2c1,0,1.5,0.3,1.5,0.3l2-0.3c0,0,1-0.1,2.7-0.6c1.7-0.5,1.6-0.7,0.4-1.3
						c-1.2-0.6-1.5-1.1-4-1.2c-2.5,0-7.1,1.1-7.1,1.1s-2.6,0.8-3.9,1.2c-1.3,0.4-2.4,1.1-3.6,2.1c-1.3,1-1.7-0.1-0.9-1
						c0.8-0.9,2.1-1.5,3.8-3c1.7-1.5,1.8-0.1,3.7,0c1.9,0.1,1.5-0.3,2.8-2.3c1.3-1.9,1.3-0.7,2.9-1.1c1.6-0.5,4.9-0.1,4.9-0.1
						s3.8,0.3,9.6,0.5c5.7,0.2,2.8-0.7,6.2-2.5c3.5-1.9,1.8-1.9,5.2-2.1c3.4-0.2,2.4-0.4,2.4-0.4s0.9-0.1,2.3-1.3
						c1.4-1.3-0.8-0.4-0.5-1.7c0.2-1.3-0.3-1.3-1.6-2c-1.3-0.8-1.7,0.1-1.9-0.8c-0.2-0.9,0.3-0.4-2.7-0.4c-3,0-3.8,0.9-4.8,1.3
						c-1,0.4-1.4,0.4-2.2,0.3s0.8-0.9,0.8-0.9s2.1,0,3-0.4c0.9-0.4,0.8-0.4,2.4-0.9c1.6-0.6,1.7-0.5,0.8-1c-0.9-0.5,0.5-0.9-1.7-0.4
						c-2.2,0.5-2.4,0-2.8-0.9c-0.4-0.9-0.3,0-2,0.2c-1.7,0.2-1.8,0-2-1.2c-0.2-1.3-2.2-0.3-3.6-0.3c-1.4,0-0.8-0.8-0.1-2.1
						c0.7-1.3-0.2-0.4-0.3-1.5c-0.1-1.1-0.4-0.6-3-1.7c-2.6-1-3.4-1.9-5.3-3.6c-1.9-1.8-0.8,0.1-1.1,0.4c-0.2,0.3-1.5,2-2,2.7
						c-0.5,0.6-1.2,0-3.5,1.3c-2.3,1.3-2,0.4-2,0.4s-1.3-1.2-2.8-2c-1.5-0.8,0,0-1.3-1.1c-1.3-1.1,0-0.8,0.2-3c0.2-2.2,0,0-2.2,0.4
						c-2.2,0.4-1.3,0.1-1.6-0.9c-0.3-1-1.5-0.7-3.3-1.8c-1.8-1.1-1.1,0-3.2-0.2c-2.1-0.2-3.1,0.1-6.4,0.2c-3.3,0.2-0.7,1-1.5,1.8
						c-0.7,0.9-2.4,0.6-1.4,2.4c1,1.8-1.1,2-3.9,2.4c-2.8,0.4-0.7,0.4,3.1,2.7c3.9,2.3,0.4,2.2-0.5,3.9c-0.8,1.7-3.4,2.1-6.6,2.4
						c-3.2,0.4-4.1,0.4-2.4,1.2c1.7,0.8-0.1,4.3-0.1,4.3l-0.9,5.8c0,0-1.5,3.7-2.9,3.7c-0.3,0-0.5,0-0.6,0c0,0,0,0-0.1,0
						c-0.1,0-0.1,0-0.3,0c-1,0-1.9-4-1.9-4s-1.4-2.6-1.9-4.3c-0.5-1.7-0.3-2.5-0.1-3.3c0.2-0.7,0.7-1.8,1.7-3.5
						c1-1.7-1.5-0.2-2.9,0.1c-1.4,0.2-2.3,0.2-4,0.2c-1.7,0-1.4-0.4-4.2-1.9s-2.3-0.4-4.7-2.1c-2.4-1.7-5.2,0-7.4,0.6
						c-2.1,0.6,0-0.9,0.1-2.6c0.1-1.7-0.1-1.7-1-2.3c-0.8-0.6,0.8-1.4,5-3.8c4.1-2.4,3.8-2.6,7.2-2.8c3.4-0.2,2.4-1.4,5.1-2.4
						c2.7-1,6.1,1.1,7-0.2c0.9-1.2,1.8-1.2,3.7-2.4c1.9-1.2,1.8-1.2,2.3-1.7c0.6-0.5,2.9,0.2,4.2-0.2c1.3-0.4,3.5-1,6-1.9
						c2.5-0.9,0.4-1.4,0.1-3c-0.3-1.7,5.8,0.9,7.2,0.8c1.2-0.1,1.5-2.4,1.7-2.4l0.5,0c-0.4,0-0.3,0.7-0.3,2.1c0,2,0-0.1,1.2-0.1
						c1.2,0,1.2,0.2,2.6,0.9c1.4,0.7-0.1,0.3-0.4,0.8c-0.3,0.4-3,1-3,1s-2.4,0.7-1.1,0.8s1.8,0.1,3.3-0.1c1.5-0.2,1-0.7,2.1-1.8
						c1.1-1.1,0.6,0.1,2.2-0.3c1.6-0.5,1.5,0.4,1.5,0.8c0,0.4-0.8,0.7-2.2,1.3c-1.4,0.5-1.5,0.6-2.1,1.1c-0.6,0.5-3.8,1-3.8,1
						s-4.9,0.8-5.6,1.2c-0.6,0.4,1.3,1.3,3.5,1.1c2.2-0.2,2.8-0.5,5.3-0.6c2.5-0.1,1.6,0.8,3.4,1.9c1.8,1,1.2,1,2.1,0.8
						c0.8-0.3,2.1-0.2,2.1-0.2l6.5,0.5c0,0,2.8,0,4-0.5c1.1-0.5-3.5-0.1-3.5-0.1s-2.8-0.9-3.9-1.7c-1.1-0.8,4.3,0.3,4.3,0.3l3.9,0.6
						c0,0,1.4-0.6,1.9-1.3c0.5-0.7-0.2-1-1.9-1.6c-1.7-0.6-3,0.2-4.1-0.5c-1.1-0.7-0.6-1.3-0.5-1.5c0.1-0.2,5.6,1.9,5.6,1.9
						s1.4,0.4,2.8-0.5c1.4-0.9,2.5-1.7,3-2.1c0.6-0.4-5.7-0.9-5.7-0.9l-4.2-0.3l-3.7-1.2c0,0,0.6-0.2,2.3-1c1.6-0.9-1.5-0.5-1.5-0.5
						l-3.3-0.4l-3.9-0.2l-3.9-1.8l2.7-1c0,0,1.5-0.8,3-1.3c-4.2-0.1-5.5,1-6.7,1.3c-0.9,0.2-2.6,0.8-4.4,1.2c-0.1-0.4-1,0-2.9-0.1
						c-2.4,0-2.9-0.2-5,0.1c-2.1,0.2-1.7,2.6-1.9,1.5c-0.2-1.2-0.8-0.6-3.1-0.2c-2.3,0.4-2.9,2.1-1.5,2.2c1.4,0.1,2.1,0.1,1.7,1.3
						c-0.4,1.2-2.5,1-3.6,1.3c-1.2,0.3-1.6,0.4-1.6,0.9c0,0.5-0.7,0.9-1.4,0.7c-0.6-0.2,0,0-0.2-0.8c-0.2-0.8,0.6-0.6,1.6-1.1
						c1-0.5,0-1.1-1.6-1c-1.6,0-3.3,1.6-5.7,1.6c-2.3,0,0.9-1.5,2.3-3c1.5-1.5-2.1-0.6-3.7,0.1c-1.6,0.7-3.5,2.1-3.8,3.5
						c-0.3,1.4-2.1,1.3-3.9,1.3c-1.8,0-3.2,0.2-6.8,1.3c-3.5,1.2-3.9,0.3-4.8-0.2c-0.9-0.5,0.5-0.9,1.7-0.9c1.3,0,2.4,0,3.4-0.7
						c1-0.7,1.9-0.8,2.6-1.3c0.7-0.4-1.2-0.4-3.8-0.6c-2.6-0.2-6.2,1.6-8.4,2.4c-2.2,0.8,0.1,1-0.4,2.4c-0.5,1.4-1.6,1.2-3.7,0.8
						c-2.1-0.4-1.2,0-3.5,0.8c-2.2,0.7-1.7,0.3-2-0.7c-7.2,2.9-14.3,6.2-21.1,9.8c-7.4,4-15.4,8.8-21.3,12.7c-2.4,1.6-4.8,3.3-7.1,5
						c-6.5,4.9-11.4,9.6-13.3,11.2c-2.1,1.7-0.7,2-2,3.2c-1.3,1.2,0,2.4-1.3,3.3c-0.4,0.3-0.7,0.7-1.1,1.1c-0.8,1.2-1.7,2.8-2.8,3.9
						c-1.6,1.7-2.3,4.1-5.7,6.8c-3.4,2.7-5.1,4.9-7.7,10.1c-2.6,5.2-3.9,5.9-5.7,7.6c-1.8,1.7-1.8,2.2-1.8,4.4
						c0,2.1-0.4,3.8-1.4,4.6c-1,0.7,0.2,1-0.9,3.8c-1.2,2.9-1.1,3.1,1,4.4c2.1,1.2,1.5,0.7,1,3.1c-0.4,1.6,0,2.6,0,4
						c0,0.6-0.1,1.3-0.4,2.2c-0.9,2.7-0.7,5.8-1.5,7.7c-0.8,1.9,1.3,1.6,1.1,4.4c-0.2,2.8-1.2,3.4-3,3.4c-1.8,0-0.2,2.1,1.5,3.9
						c1.7,1.9,2.6,1.5,1.8,4c-0.8,2.5-0.3,5,1.3,7.1c1.6,2.2,0.8,3.9,1.4,2.7c0.5-1.1,1.3-1.2,1.2-3.1c0-2-0.2-1.6-1.2-1.8
						c-1-0.1,0-1.6,0-3.3c0-1.8-0.6-1.5-0.2-3.1c0.4-1.6,0.4-3.4-1-5.6c-1.4-2.2-0.3-0.9-0.1-4.1c0.3-3.2,0.8-3.6,0.1-5.7
						c-0.7-2-0.1-3.8,2-6.3c2-2.4,0.7-0.9,1-0.8c0.3,0.1,1.2,1.4,1.5,2.6c0.2,1.2-0.4,1.5-0.8,2.8c-0.4,1.3-0.2,2.6-0.9,3.4
						c-0.6,0.8,0.7,1.5,0.8,2.9c0.1,1.4,0.4,1.3,1.2,2.1c0.9,0.8,0.5,0.8,0.4,2.2c-0.1,1.4,1.1,1.3,0.4,2.6
						c-0.8,1.4,0.1,4.1,1.1,5.1c1.1,1,1.3,2.2,1.3,4.1c0,1.8,1.9,1.7,1.9,5.8c0.1,4,1.5,4,1.9,5c0.4,1,0.1,2.2-0.7,3.7
						c-0.8,1.5-1.6,2.8-1.3,4.6c0.3,1.8,3.5,3.7,3.7,4.6c0.2,1,1.4,2.8,4.4,3.1c2.9,0.3,1,0.2,2.1,1.5c1.1,1.3,2.6,2.5,3.7,3.2
						c1.1,0.7,2.5,0.7,5.6,2c3.1,1.3,1,1.5,2.2,1.6c1.2,0.1,1.1,0.2,3.7,1.1c2.7,0.9,1.7,0.4,3.2-0.5c1.5-0.9,2.3-3,5.2-2.7
						s0.1,0.6,2.8,1c2.8,0.3,0.3,0,1.2,1c0.7,0.8,2.6,3.1,4.4,5.5c0.4,0.6,0.9,1.2,1.3,1.7c2,2.8,3.4,1.5,5.9,1.3
						c0.6-0.1,1-0.1,1.3-0.1c0.8,0,0.3,0.4,0.3,1.7c0,1.8,0.7,1.2,2.8,2.1c2.1,1,2.6,0.3,4.8-1.1c2.2-1.4,0.8,0.6,0.3,1.8
						c-0.6,1.2,0,1.2,1.9,2.8c1.9,1.6,2,4.5,4.9,4.6c2.9,0.2-0.1-1.5,0.6-3c0.7-1.5,3.3,2.8,4.2,3.9c0.9,1.1-0.4,0.4-2.1,0.5
						c-1.7,0-0.7,0-2.1,0.8c-1.3,0.8,0,1.7,0.1,3.1c0,1.4,0.4,2.6,3,2.3c2.5-0.3,2.8,1.4,2.8,1.4l1.4,1.6c0,0,0.8,1.5,0.8,2.4
						c0,0.9-0.1,0.9,1.7,2.4c1.9,1.5,3.1,0,3.1,0s4.3,1.4,5.4,1.4c1.1,0,0.6,0.1,2.3,1.2c1.7,1.1,0.7,1.5,1.1,3.2
						c0.4,1.6,0.6-0.1,2.1-0.6c1.5-0.6,1.8-1.4,1.8-1.4l-0.4-1.5l-1.6-2c0,0,2.1-0.4,3.1-0.7c1-0.3,1.4-1.9,2.6-2.5
						c1.2-0.6,5,0.8,5.2,2.3c0.2,1.5,0.1,2.5,0.5,3.6c0.3,1.1,1.9,1.8,2.2,2.8c0.3,1,1.6,2.7,1.1,3.4c-0.5,0.7,1.2,1.6,0.3,2.7
						c-1,1,0.5,4.3-0.5,6c-1,1.7,0.6,2.6,0.7,4.4c0,1.8-2,4-2.6,4.2c-0.6,0.2-3.7,0.3-4,2.1c-0.3,1.8-1.6,1.8-1.6,1.8
						s-0.3,0.6-0.1,1.3c0.2,0.6,0.1,0.8-0.8,1.9c-0.9,1.1-1.1,0.4-4.2,0.7c-3.2,0.3-0.9,0.2,0.5,2.3c1.4,2.1-0.5,0.8-1.1,1.3
						c-0.7,0.5-0.7,1.7-1.4,3c-0.7,1.3-1.1,0.2-0.9,1.6c0.2,1.4,0.6,2.7-0.5,4.5c-1.1,1.8-0.3,1.4,0.6,2.4c0.9,1,1.1-0.1,3.3,1.4
						c2.3,1.5,0.5,2.7-1,2.7c-1.4,0,0,0-1.5,1.1c-1.5,1.1-0.6,0.7-3,3.7c-2.4,3-0.4,1.3,1.4,3.8c1.8,2.5,0.5,2.9-0.5,3.3
						c-1.1,0.4,1.9,1.3,5.6,3.8c3.7,2.5,1.3,0.7,2,2.5c0.7,1.8,0.4,0.9,2.6,2.8c2.2,1.9,4.1,8.2,5.5,9.6c1.4,1.4,2.1,3,2.1,4.5
						c0.1,1.4-0.1,1.6,1.3,1.6c1.4,0,2.5,2.7,4.3,4.6c1.8,1.9,2.1,2.4,2.2,3.7c0.1,1.3-0.4,1.9,0.1,3.1c0.4,1.2,2.3,2.1,5.6,4.5
						c3.3,2.4,4.6,3.7,11.9,6.2c7.3,2.5,1.5,1.1,4.4,2.5c2.9,1.3,0.2,1.1,0.9,1.8c0.7,0.7,2.6,0.4,4.2,1.5c0.7,0.4,1.1,0.7,1.3,0.9
						c0.3,0.3,0.3,0.5,0.4,1.1c0.2,1.1,0.5,1.6,1.1,4.8c0.6,3.2,0.3,1.8,0.6,4.8c0.3,3-0.2,1.6-0.7,5c-0.4,3.4-0.1,4.7-1.3,5.7
						c-1.2,1-0.9,1.2-0.1,1.9c0.8,0.7,0.3,1.4,0.9,4c0.6,2.5,0.6,3.6,0.2,4.6c-0.5,1.1,0.6,1.7-0.3,3.2c-0.9,1.4-0.6,1.7-0.4,3.2
						c0.2,1.5-0.2,2.4-1.6,4.7c-1.3,2.3,0.3,2.3,0.3,5c0.1,2.7-1.6,2.4-1,4.3c0.5,1.9,0.9,2.7,1.2,4.7c0.4,2,0,2-0.4,3.7
						c-0.4,1.8-1.1,5-1.5,6.2c-0.4,1.2-0.4,1.9-1.3,4c-0.9,2.1-1.3,0.7-1.3,2.1c0,1.4-0.1,0.7-1,1.4c-0.9,0.7-0.7,0.5-0.2,1.9
						c0.5,1.4,0.8,2.3,1.3,3.4c0.6,1.2,0.7,1.6,0.7,1.6s-0.3,0.6-0.8,1.4c-0.5,0.9-0.4,0.7-1.1,1.6c-0.7,0.9-0.3,1.7,0,2.8
						c0.3,1.1,0,0.4,0.1,1.9c0.1,1.5-0.1,1.3-0.4,2.1c-0.3,0.8-0.5,1.1-1.3,2c-0.8,0.9-0.2,0.5,0,1c0.2,0.5,0.9,0,2,0
						c1.1,0,0.4-0.2,0.6-0.4c0.2-0.2,0.8-2,0.8-2s0.2-1.4,1.2-2.9c0.9-1.5,1.9,0,1.9,0l-0.1,2.2c0,0-0.4,0.9-0.9,2.2
						c-0.5,1.3-0.4,0.9-0.2,2.3c0.1,1.4-0.1,2.2-0.1,3.9c0,1.7-0.5,1.8-0.9,1.8c-0.4,0-0.7-0.4-1.2-1.2c-0.5-0.8-0.3-1.1-0.8-2
						c-0.4-0.9-0.1,0.4-0.7,1.1c-0.6,0.7-0.8,0.7-1.1,1.6c-0.2,0.9-0.8,1-2.1,1.1c-1.3,0.1-2.3,0-4.9,0.1c-2.6,0,1,0.3,2.7,0.7
						s3,0.3,4.1-0.2c1.1-0.6,0.6,0,1,0.1c0.4,0.1,1,0.1,2.1,0.1c1,0,0.3,0.8-0.3,1c-0.7,0.2-0.7,0.4-1,0.9c-0.2,0.5,0.7,0.9,0.7,0.9
						s-0.2,0.9-0.7,0.8c-0.4-0.1-0.7-0.2-1.2-0.3c-0.5-0.1-1.4,0.4-1.7,0.6c-0.3,0.2,0.7,1.1,0.7,1.1s0.5-0.3,1.2-0.5
						c0.7-0.2,0.5,1.9,1,2.1c0.4,0.2,0.4,2,0.4,2.1l0.1-0.1c0.2-0.3,0.4-0.5,0.6-0.6c0.1-0.1,1.3,0.3,1.3,0.3l0,0.6
						c0,0-0.5,0.3-1.2,0.6c-0.7,0.3-0.1,0.4,0,0.6c0.1,0.2,1.3,0,1.3,0s1.2,0.2,1.7,0.6c0.5,0.4,1.9,1.2,1.9,1.2s-0.1,1.3-0.7,1.1
						c-0.6-0.1-0.6-0.4-0.9-0.5c-0.3-0.1,0,0.6-0.3,1c-0.3,0.4,0,0.9,0,0.9l2.5,0.8l2.4,1.2l2-0.2l1.4-0.7l0.7,0.6
						c0,0-0.3,0.9-0.3,1.1c0,0.3,2.6,1.1,2.6,1.1s1.6,0.2,2.3,0.4c0.6,0.2,2.1-0.4,3.3-0.2l0,0c1.2,0.3,3.3-0.1,3.3-0.1l3.9-0.4
						c0,0,0.7-0.2,1.1-0.4c0.4-0.3-1.4-0.5-2-0.8c-0.6-0.3-2.1-1-2.6-1.2c-0.6-0.2-1.2,0.6-1.6,0c-0.4-0.6-1.2-1.2-1.4-1.6
						c-0.2-0.4-1.1-1.9-2-2.6c-0.9-0.8-1.3-1.7-0.5-2.5c0.5-0.5,0.6-0.6,2.7-0.7c2.1-0.1,1.4-0.4,1.6-1.7c0.1-1.2,0.1-1.2,2.1-2.1
						c2-0.9,2.3-0.7,4.2-3.7c1.9-3-0.2-1.1-0.5-0.8c-0.3,0.2-1.8,0.8-4.4-0.6c-2.6-1.4-0.8-1.6,0.1-2.8c0.8-1.2,2.7-1.4,4.9-1.5
						c2.1-0.1,0.4-0.8,1.5-1.5c1.1-0.8,0.6-0.3,0.9-1.6c0.3-1.3-0.1-1.5,1.9-2.3c2-0.8-1.1-1.4-0.8-2.2c0.3-0.9-1-0.2-0.6-2.1
						c0.4-1.9-1.3-0.3-0.5-2.5c0.8-2.2,2.5,0.8,7.6,0.8c5.1,0,3.7-1.4,3.7-1.4s-2.3-2-0.8-3.1c1.5-1.1,0-1.6,0-3.5
						c0.1-1.9,1.1,0.1,3.4,0.5c2.3,0.4,5.1,0.6,12.8-2.2c7.7-2.8,7.4-6.2,6.2-6.4c-1.3-0.2-2,0-1-1c1-1.1,0.1-1.7-0.5-2.4
						c-0.5-0.7-3.9-2.3-4-2.7c-0.1-0.4,0-1.2,0.8-1.1c0.9,0.1,5.6,1.8,5.6,1.8s4.2,0.6,6.8,0.6c2.7,0.1,3-0.4,5.1-2.3
						c0.8-0.8,1.7-1.7,2.7-2.8c1.5-1.6,3.2-3.4,5.3-5c1.7-1.3,2-1.6,2.4-1.7c0.1-0.4,0.2-1,0.2-1.3c0-0.6,0.9-1.4,0.9-1.4l1.6-2.6
						c0,0,0.7-0.2,1.2,0c0.4,0.2,1,0.8,0.6,1.3c-0.5,0.5-1.9,1.6-2.5,2.4c-0.3,0.5-0.6,0.9-0.5,1.2c0.4-0.1,0.9-0.3,1.5-0.7
						c4-1.9,3-3.5,5-5.8c2.1-2.4,2.7-3,5.8-4.2c3.1-1.2,1.5-2.4,2-5.2c0.5-2.8,0.3-2.9,1.7-5.8c1.5-2.8,1.8-1.6,4.4-3.5
						c2.6-1.9,3.2-3.3,6.2-4.7c3-1.4,2.5-2.6,4.7-2.5c2.2,0.1,1.3-0.1,3-2c1.8-1.8,3.9-1.1,8.2-0.9c4.3,0.2,1.3-1.4,3-2.3
						c1.8-0.9,2.1-1.3,2.6-3.2c0.5-1.9,1.3-2.8,3.1-4c1.8-1.2,1.9-1.5,2.6-3c0.7-1.5,1.8-1.9,2.7-3.9c0.9-1.9,1.3-4.5,1.9-3.6
						c0.5,0.8,0.3-1.6,2.2-4.3c1.9-2.7,1.7-5.2,2.4-8.1c0.7-2.9,1.1-6.7,1.8-9.3c0.7-2.6,1.7-1.9,2.1-0.4c0.5,1.6,1-1.9,3.5-5.1
						c2.5-3.1,3.6-5,4.5-6.1c0.8-1.2,1.9-1.8,3.5-4.3c1.7-2.5,2.3-4.8,4.5-8.3C605.7,866.6,604.1,862,603.9,859.2z M439.5,631.5
						c0.1-0.7,0.3-0.6,1.7-0.8c0,0,1.4,0.7,1.2,1.5c-0.3,0.8,0,0-2,0.3C438.4,632.8,439.5,632.2,439.5,631.5z M430.7,627.6
						c0,0,0.4-0.5,2.1-1.2c0,0,0.2,1.1-0.4,2.9c-0.6,1.8-1.2,2.4-1.7,2c-0.4-0.4-2.2-2.3-2.2-2.3L430.7,627.6z M426.9,633.9
						c1-0.4,1.1,0.2,1.1,1.5l-1.3,0.4c0,0-1.4-0.3-1.3-0.9C425.5,634.3,425.9,634.4,426.9,633.9z M422.5,619.5
						c1.6-0.7,0.9-0.3,3-0.8c0,0-0.5,1.9-1.8,2.9c-1.3,1-0.9,0.7-1.1,0c-0.2-0.6-0.4-0.8-1.7-1.5
						C419.5,619.5,420.9,620.1,422.5,619.5z M445.1,598.1c0,0-1.3,0.3-1.5,0c-0.2-0.3,0.2-1,0.2-1l1.1-0.3c0.4,0,0.8,0.3,0.8,0.3
						L445.1,598.1z M445.3,594.2c0.4-0.1,1.1,0,1.1,0c0.4,0,2,1,1.6,1c-0.4,0.1-1.6,0-1.6,0s-0.7-0.1-0.6,0.7c0.1,0.8-1.1,0.1-1.1,0
						C444.7,595.9,444.9,594.3,445.3,594.2z M409.1,650.1l3.7,0.4l2.5-1.4l1.6-0.9l1.3,0.5l0.6,0.2c0,0-0.7,1.6-1.4,2.7
						c-0.8,1.1-3.8,0.5-3.8,0.5s-2,0.1-4.2,0.1c-2.2,0-1.4,1.4-1.4,1.4l-3.2,1.3c0,0-3.9,0.8-6.9,3.2c-3,2.4-3.8,0.1-3.8,0.1
						s-1.3-2-0.1-3.2c1.3-1.2,1.4-1.2,1.8-1.1c0.4,0.1,0,1.4,0.8,1c0,0,1.6-0.3,3.3-0.5c1.8-0.2,1.5-0.3,2.7-0.6
						c1.2-0.3,0.9-0.3,2.5-0.9c1.6-0.6,1-1,1-1l0.4-1.4L409.1,650.1z M384.2,630.7c0.9-1.9,0,0,1.4-0.4c0,0,1.1,1.8,1.2,3
						c0.1,1.2-0.7,0.4-3.4,0.7C380.7,634.2,383.3,632.6,384.2,630.7z M376.1,630.1l2.9,1.3l-1.3,1.2c0,0-3.4-0.5-3.2-2.4
						C374.8,628.2,374.5,630.1,376.1,630.1z M371.9,640.4l7.1-2.6l7-2.2c0,0,3.8-2.1,4.7-0.1c1,2,0.9,1.4,1.8,3
						c0.9,1.6,1.1,2.8,1.1,2.8s-2.7,2,2.4,1.9c5.1-0.1,5.4-2,7.7-0.1s2.4,0.5,2.4,2.4c0,2,0.8,3.1-0.9,2.4c-1.7-0.8-3-1.3-3.7-0.6
						c-0.7,0.7-1.9,2.9-1.9,2.9s-1,2.4-1.7,2.7c-0.8,0.2-2.1,0.5-2.1,0.5s0.2-2.8-0.5-3.3c-0.6-0.5-1.8,1.2-2.8,1
						c-1-0.2,1.9-1.6,2.4-3.3c0.5-1.7-0.9-2.8-2.2-2.8c-1.3,0-0.6-1.1-2.2,0.2c-1.6,1.2-3.6,3-3.6,3s-3.2,0.8-3.6,2.8
						c-0.4,2,0.5,2.4-0.4,4c-1,1.6-2,3.2-2,3.2s-1.7,1.2-2.3,0.5c-0.6-0.8,0.5-7.2,0.5-7.2l1.6-4.5l4.1-2.2c0,0,2.4-0.6,3.5-0.8
						c1.1-0.2,2-0.4,2.6-0.2c0.6,0.2,1.4-0.2,0.2-1.4c-1.2-1.3-4.4,0.1-4.4,0.1c-0.8,0.2,0.1,0.7-1.9,0c-2-0.7,0.3-1.1-2.7-0.8
						c-3,0.3-5.4,1.1-5.4,1.1l-2.8-0.4c0,0-1.4,0.2-2.2,0C371.2,641.9,371.9,640.4,371.9,640.4z M367.9,636.3c-0.8,0.3,0,0-1.5-1
						c-1.5-1,0-0.6,1.8-1.9c0,0,0.9,1.3,1,1.9C369.4,635.9,368.7,636,367.9,636.3z M365.6,615.8c0.7-2.7-0.4-1,1.7-2.8l1.6,2.3
						c0,0-1.6,1.9-3.3,3.4C363.9,620.2,364.9,618.5,365.6,615.8z M364.8,625c0.1-1.9,0.7-1.1,2.5-2c0,0,0,0,0.4,1.2
						c0.4,1.2-0.6,4-0.6,4s-1.8,3.7-2.1,3.8c-0.3,0.1,0.1-0.6,0.5-2.7C365.9,627.3,364.7,627,364.8,625z M358.9,615.3
						c0,0-2.1,0.5-3.1,0.1c-1-0.5-1.2-1,3.1-1.7L358.9,615.3z M361.5,629c0.6,1.4-0.3,3-0.4,4.4c0,1.5-1.4,0.4-1.4,0.4
						s0.4-1.4,0.9-2.6c0.5-1.3-1-2.3-1-2.3s0.7-1.2,0.9-2.6c0.2-1.4,0-1.4,1.3-2.4C361.9,623.8,360.9,627.7,361.5,629z M355.5,611.9
						c2.3-0.7,2-1.3,4.6-2.8l1.6,1.2c0,0-1.5,1.3-3.6,2.6c-2.2,1.3-2.7,0.7-4.7,0.5C351.3,613.2,353.2,612.5,355.5,611.9z
						 M348.4,754.9C348.5,754.9,348.5,754.9,348.4,754.9c0.2,0.1,0.2,0.2,0.2,0.2C348.6,755,348.5,754.9,348.4,754.9z M532.5,835
						l-0.4-0.2C532.3,834.7,532.4,834.9,532.5,835z M520,827c0.6,0,0.9,0,1.1,0.1c-0.3,0.2-0.5,0-1.4-0.1
						C519.8,827,519.9,827,520,827z"/>
				</g>
			</g>
			<g class="st8">
				<path class="st9" d="M607.7,632c33.2,39.7,53.5,90.6,54.4,146.4c2.1,129.5-101.1,236.2-230.6,238.3
					c-55.8,0.9-107.3-17.7-148.1-49.6c43.9,52.5,110.2,85.4,183.9,84.2C596.8,1049.2,700,942.5,697.9,813
					C696.7,739.3,661.6,674.1,607.7,632z"/>
			</g>
			<g class="st10">
				<path class="st4" d="M253.6,843.8c-2.1-129.5,101.1-236.2,230.6-238.3c58.8-1,112.8,19.8,154.6,54.8
					C595,611.5,531,581.2,460.3,582.4c-129.5,2.1-232.7,108.8-230.6,238.3c1.2,70.7,33.5,133.6,83.8,175.8
					C277.1,956,254.6,902.6,253.6,843.8z"/>
			</g>
		</g>
		<g>
			<g>
				<path class="st11" d="M566.3,1085.2c-5.9-10.3-6.6-20.4,1.5-30.1c3.2-7,4.9-8,12.1-7.3c11.9-2.3,20.5,1.4,27.1,11.6
					c2,3.1,3.8,6.2,5.7,9.4c-0.7,3.6-3.7,5.1-6.4,6.8c-8,5-16,10-24.1,14.9C572.4,1096.4,571.2,1096,566.3,1085.2z"/>
			</g>
			<g>
				<path class="st12" d="M566.3,1085.2c6.5,8.3,6.5,8.3,15.6,2.7c10.3-6.4,20.6-12.7,30.8-19.1c3.6-1.8,7.4-3.8,10,1
					c2.6,4.8-1.1,6.9-4.5,9c-1.3,0.8-2.4,1.8-3.6,2.6c-1.6,3.7-0.8,7,1.3,10.3c2.5,4,5,7.9,7.3,12c1.3,2.4,3.1,4.7,1.9,7.7
					c-6.1-6.2-9.6-14.1-14-21.3c-2.5-4.1-4.6-4.8-8.5-1.9c-4.7,3.4-9.7,6.3-14.5,9.5c-1.8,3.7-0.9,7,1.2,10.2c2.5,4,5,7.9,7.3,12
					c1.3,2.4,3.1,4.7,2,7.7c-5.9-6.1-9.3-13.9-13.8-20.9c-2.4-3.7-4.3-5.7-8.4-2.4c-2.7,2.2-5.9,2.2-8.2-0.3c-2.5-2.6-1.8-5.6,0.8-8
					c1.7-1.5,1.2-2.9,0.4-4.6C568.3,1089.5,566.3,1087.8,566.3,1085.2z"/>
			</g>
			<g>
				<path class="st13" d="M579.9,1047.9c-4.9,0.9-8.8,3.6-12.1,7.3c-0.1-5.8-4.7-9.5-7.1-14.2c-1.6-3-2.7-5.3,1.1-7.5
					c3.3-1.9,5.3-2.3,8,1.3C573.1,1039.2,574.6,1045,579.9,1047.9z"/>
			</g>
			<g>
				<path class="st14" d="M598.5,1127.8c-4.3-7.2-8.3-14.5-12.9-21.4c-2.9-4.3-2.6-6.9,2.4-8.6c5,8.1,9.9,16.1,14.9,24.2
					c1,1.7,2.1,3.4,0.7,5.3C602.2,1129.2,600.4,1129.2,598.5,1127.8z"/>
			</g>
			<g>
				<path class="st15" d="M625.1,1111.5c-4.3-7.2-8.4-14.5-13-21.4c-2.9-4.3-2.5-6.9,2.4-8.6c4.9,8,9.9,16.1,14.8,24.1
					c1,1.7,2.2,3.4,0.8,5.3C628.8,1112.8,627,1113,625.1,1111.5z"/>
			</g>
		</g>
		<g>
			<g>
				<path class="st14" d="M703.8,998.9c4.9,1.5,9.2,4.5,14.5,4.9c1.1,0,1.8,0.5,1.9,1.6c0.1,0.9-0.5,1.3-1.3,1.5
					c-5.7,0.3-11.1-2.2-16.9-2.4c2.4,4.7,4.6,9.2,6.8,13.6c1.8,1.8,3,3.9,2.7,6.6c0.7,5.4,2,10.8,1.2,16.4c-0.7,2.2-1.7,3-3.2,0.5
					c-1.4-3.6-2.9-7.3-4.3-10.9c-0.1-1-1.4-1.3-1.3-2.4c-3.4-6.4-7-12.5-12.5-17.4c-1.4-1.7-4.1-1.8-5.2-3.9c-1.6-2.4-4.3-3.9-5-6.8
					c-8.1-6.6-16.7-12.7-26-17.5c-2.8-1.5-3.1-2.7-1.2-5.4c8.1-11.6,8-11.6,18-1.8c1,1,2,1.9,3.1,2.9c6.5,7.7,16.1,11.2,23.7,17.4
					C700.5,996.7,701.6,998.5,703.8,998.9z"/>
			</g>
			<g>
				<path class="st16" d="M699,996.9c-9-4.9-17.2-10.7-23.9-18.6c3.3,2.6,6.8,5.1,9.9,7.9c2.8,2.5,4.5,2.7,7.2-0.7
					c7.5-9.9,21.2-11.7,31.4-4.6c2.2,1.5,0.8,2.7,0.1,4c-5.3,8.9-13,12-23.1,9.8c-1.9,0.5-3.5-0.1-4.8-1.5
					C696.5,994.7,699.3,994.4,699,996.9z"/>
			</g>
			<g>
				<path class="st17" d="M681.3,1000.1c2.4,1.6,5.1,2.9,6.2,5.9c0.2,2.5,2.3,4.2,2.5,6.7c2.2,7.9,0.7,14.8-5.4,20.5
					c-2,1.8-3.2,2.1-5-0.7c-7.9-12.3-8-16.6,0.6-29C680.9,1002.4,681.3,1001.3,681.3,1000.1z"/>
			</g>
			<g>
				<path class="st18" d="M711.6,1024.7c-2.3-1.6-2.2-4.2-2.7-6.6c12.6-3,16-1.7,22.1,7.3c2.3,3.4,0.7,4-1.8,4.9
					c-5,1.7-9.4,0.8-13.6-2.5C714.3,1026.8,713.9,1024.5,711.6,1024.7z"/>
			</g>
			<g>
				<path class="st19" d="M704,1028.2c1,0.5,1.6,1.3,1.3,2.4c-2.1,1.9-0.3,4.1-0.2,6.1c0.1,6-2.1,10.6-7.6,13.3
					c-1.1,0.5-2.8,2.2-3.5,0.1c-1.7-5-3.3-10.1-0.4-15.2C695.8,1030.7,698.8,1027.8,704,1028.2z"/>
			</g>
			<g>
				<path class="st20" d="M725,1002.6c4.8-9.1,10.7-11.9,19.5-9.8c3.5,0.8,3.6,2.4,2.5,5.1c-2.3,5.4-7.8,8.2-15,7.7
					c-2.2-0.2-4.4-0.4-6.5-0.7C724.7,1004.3,724.7,1003.5,725,1002.6z"/>
			</g>
			<g>
				<path class="st21" d="M709.6,1041.5c1.2,0.9,2.2,0.1,3.2-0.5c1.1,3.4,4.2,5.9,4.8,9.6c0.6,4.1-0.4,7.6-3.5,10.4
					c-0.9,0.8-2.1,1.8-3,0.5c-2.2-2.9-4.3-5.8-4.3-9.7C706.7,1048.1,708.9,1045.1,709.6,1041.5z"/>
			</g>
			<g>
				<path class="st22" d="M725,1002.6c0.1,0.8,0.2,1.6,0.4,2.4c-1.9,1.5-4.1,2.3-6.5,1.8c0.8-1.2,0.3-2.2-0.6-3.1
					C720.5,1003.4,722.8,1003,725,1002.6z"/>
			</g>
			<g>
				<path class="st23" d="M699,996.9c-1.5-1.3-2.9-2.6-5.5-4.9c3.2,1.2,5.1,1.9,7.1,2.7c0,2.2,2.2,2.8,3.2,4.2
					C701.8,999.1,700.6,997.4,699,996.9z"/>
			</g>
			<g>
				<path class="st24" d="M690,1012.6c-1.3-2-2.9-3.9-3.9-6c-0.7-1.6,0.9-0.4,1.3-0.6c1.5,1.5,3.5,2.6,4.1,4.8
					C690.2,1010.7,690.2,1011.8,690,1012.6z"/>
			</g>
		</g>
		<g>
			<g>
				<path class="st14" d="M423.2,500.1c1.7,20,3.5,40,5.3,59.9c0.3,3.6-1.5,5.1-4.6,5.7c-15.8,3.2-31.6,6.3-47.4,9.6
					c-4.7,1-6.3-1.7-7.5-5.5c-5-15.5-10.1-31-15.2-46.4c-3.5-9.5-2.8-10.9,6.8-12.9c18.3-3.7,36.5-7.4,54.8-11
					C418,499,420.7,497.8,423.2,500.1z"/>
			</g>
			<g>
				<path class="st25" d="M347,513.6c-2.5-1.5-3.5-3.9-3-6.6c0.5-3,3.3-3.1,5.6-3.5c23.7-4.8,47.4-9.5,71.1-14.3
					c3-0.6,6-1.4,7.1,2.8c1.2,4.2-1.1,5.8-4.7,6.6c-2.2,1.5-4.9,1.5-7.4,2c-21.2,4.5-42.5,8.2-63.6,13.1
					C350.5,514,348.7,514.6,347,513.6z"/>
			</g>
			<g>
				<path class="st15" d="M371.7,497.1c3.3-7.7,15.9-12.3,22.4-8.9c1.1,0.6,2,1.3,2,2.7c0,1.3-1.1,1.5-2,1.7
					C386.8,494.1,379.5,495.5,371.7,497.1z"/>
			</g>
			<g>
				<path class="st26" d="M347,513.6c25.4-5,50.8-10,76.2-15c0,0.5,0,1,0,1.6c-20.6,4.2-41.3,8.3-61.9,12.5
					c-9.3,1.9-9.3,1.9-7.6,10.8C350.5,520.8,352.7,514.5,347,513.6z"/>
			</g>
			<g>
				<path class="st27" d="M400.7,530.6c-2.6-0.8-6.7,2.7-7.6-3.2c-0.3-2-2.8-2.1-3.9,0.2c-0.7,1.4-1.4,2.9-1.7,4.4
					c-1.2,6.2-5.2,3.8-8.7,2.9c-4.2-1-2.9-3.9-2-6.6c3.4-10.1,19.6-14.6,27.7-7.4c2.2,1.9-0.2,4.4-0.2,6.6
					C404.4,529.8,402.8,530.7,400.7,530.6z"/>
			</g>
			<g>
				<path class="st27" d="M390.7,561.3c-7.4,1.5-15.2-5.1-17.6-13.8c-0.3-1-0.2-2-0.6-2.9c-2.2-5.1,1-5.6,4.8-6.5
					c5.1-1.2,5.7,3.2,8,5.6c0.1,0.1-0.3,1.1-0.7,1.4c-1.5,1.1-3.2,2.2-1.9,4.3c1.3,1.9,3.4,0.8,4.9,0.3c4.8-1.6,7-0.3,8.1,5
					C397,560.6,393.7,560.9,390.7,561.3z"/>
			</g>
			<g>
				<path class="st27" d="M409.8,545.7c-1.7-1.9-3.1-3.9-5-5.3c-4-3.2-3.4-5.6,0.2-8.9c3.9-3.5,5.8-1.1,8,1.7
					c5.9,7.5,2.8,19.1-4.9,24.9c-4.6,3.4-5.4,0.6-7.6-1.6c-3.3-3.3-1.2-6.8,0.8-9C403,545.6,406.8,548.1,409.8,545.7z"/>
			</g>
		</g>
		<g>
			<g>
				<path class="st28" d="M561.4,487.9c5.4,18.3,11,35.7,11.3,54.1c0.2,12.2-7.9,22.7-19.4,26.2c-12,3.7-24.8-0.6-32.1-10.6
					c-7.1-9.9-7.3-22.8,0.1-32.7C532.2,510.3,546.7,499.6,561.4,487.9z"/>
			</g>
			<g>
				<path class="st29" d="M535,542.5c1,0.3,2.1,0.6,3.1,1c2.1,0.7,3.7,1.7,0.7,3.4c-4.3,2.5-1,3.6,0.8,4.6c5.2,2.8,11.6,1,15.3-4.5
					c1.4-2.1,2.5-3.8,5-2.1c2.9,1.9,0.6,3.9-0.4,5.5c-5.8,9-17.8,10.7-26.3,3.7c-1.3-1.1-2.1-3.2-4.5-2c-5,2.6-4.2-0.3-3.3-3.4
					c0.2-0.5,0.3-1,0.5-1.6C528.2,540.3,528.2,540.3,535,542.5z"/>
			</g>
			<g>
				<path class="st27" d="M563.7,536.1c-1.2,1.4,0,5.3-3.3,5c-3.5-0.4-7-1.8-10.3-3.4c-1.2-0.6,0.3-1.9,1.1-2.3
					c3.6-1.8,1.8-3.1-0.4-4.3c-5.7-3.1-12.1-1.5-15.7,4.1c-1.4,2.1-2.4,3.6-5,2.2c-3.3-1.9-0.6-3.9,0.3-5.4
					c5.5-8.9,17.4-10.7,25.7-4.2c1.2,1,2,2.7,3.9,2.8C565.4,530.8,565.4,530.8,563.7,536.1z"/>
			</g>
		</g>
		<g>
			<g>
				<path class="st28" d="M318.2,1086.8c-14.4,6.7-28.9,8.7-43.6,0.9c-4.4-2.3-7.8-5.6-10.9-9.5c-2.3-2.8-1.8-4.5,1.1-6.8
					c20.2-15.8,42.1-23.2,67.5-14.6c1.2,0.4,3-0.9,3.5,1.4c0.4,2.2-1.6,2.3-2.8,3.1c-1.2,0.7-2.4,1.3-3.7,1.9
					c-2.8,2.3-5.8,4.3-9.3,5.5c-3.5,1.5-7,3-10.8,3.6c3.6-0.6,6.9-1.9,10.2-3.3c3.2-0.8,5.7-4,9.4-2.9c2.1-0.9,4.2-2,6.4-2.7
					c2.7-0.9,1.7,0.9,1.3,2.1C334.4,1076,327.8,1082.7,318.2,1086.8z"/>
			</g>
			<g>
				<path class="st30" d="M339.4,1066.2c22,14.7,25.1,49,6.1,65.9c-4.1,3.7-6.8,3.6-10.1-1.1c-8.6-12.5-16.5-25.1-16.9-40.9
					c1.8-6,8.4-7.7,11.5-12.7c0.9-1.5,3-0.7,4,0.8c1,1.4,1.2,3.4,2.9,4.7c0.3,0.5,0.4-0.9,0-0.2
					C332.5,1076.4,331.6,1070.7,339.4,1066.2z"/>
			</g>
			<g>
				<path class="st31" d="M339.4,1066.2c-2,3-4.5,5.7-4.2,9.7c0.2,3.5,3,6.5,2.1,10.5c-5-8.6-5-8.6-12.5-2c-2.1,1.9-4.1,3.8-6.2,5.7
					c-0.1-1.1-0.2-2.2-0.3-3.3c7.4-6,14-12.7,18.3-21.3C337.5,1065.8,338.4,1066,339.4,1066.2z"/>
			</g>
			<g>
				<path class="st31" d="M328.9,1066.1c-3,1.3-6,2.6-9,3.9c-1.1-0.5-1.3-1.2-0.4-2.1c3.3-1.6,6.5-3.1,9.8-4.7
					C329.1,1064.2,329,1065.1,328.9,1066.1z"/>
			</g>
			<g>
				<path class="st32" d="M319.5,1067.9c0.1,0.7,0.3,1.4,0.4,2.1c-5.2,2.5-10.7,3.8-16.5,3.4
					C308.7,1071.6,314.1,1069.7,319.5,1067.9z"/>
			</g>
		</g>
		<g>
			<g>
				<path class="st14" d="M457.8,1075.4c-0.2-4-0.4-8.1-0.7-12.1c-0.2-2.3,0.7-3.3,3-3.5c2.4-0.2,4,0.3,4,3.1c0,1.4,0.2,2.8,0.3,4.2
					c0.4,4.1-1.4,9,7,6.3c7.4-2.4,14.6,1.7,19.7,8c6.1,7.5,8.1,16.6,9.1,25.9c0.2,2,0.1,3.8-2.8,3.2c-12-2.3-23.2-6-29.8-17.5
					c-3.3,0.2-1.4,2.6-1.5,3.9c-0.2,5.2-1,5.8-6.4,4c-0.2-2.4-0.3-4.8-0.6-9.3c-5.9,12.1-14.7,18.3-25.4,22.2
					c-6.2,2.2-6.4,2.1-6.5-4.4c-0.1-6.9,0.6-13.8,3.4-20.2c3.4-7.7,8.8-13,17.4-14.5c1.3-0.9,2.7-0.6,4.1-0.7c2.4-0.2,2.8,1,1.9,3
					c-1.2,2.6-3.6,4.4-4.4,6.7C451.4,1080.4,453.9,1077.2,457.8,1075.4z"/>
			</g>
			<g>
				<path class="st33" d="M459.8,1101c6,0.7,6.3-2.9,5.6-7.3c-0.2-1.1-0.7-3,1.7-2.8c0.3,0,0.4,1.4,0.6,2.1c-1.7,3.9-1.5,7.4,2,10.1
					c3.6,2.8,1.1,8.7,3.8,10.2c2.9,1.7,6.2-3.9,10.4-3.1c3.4,0.6,6.3,2,7.3,5.5c1.2,4,0.6,7.9-3.2,10.2c-4.6,2.8-4.9,4.4,0.4,6.8
					c4.7,2.2,6.5,7.9,4.1,11.8c-2.7,4.4-6.9,6-11.5,3.6c-5.1-2.7-6-1.2-5.7,4c0.3,5.1-2.7,8.4-7.8,9.1c-4.8,0.6-8.8-2.9-9.1-8.4
					c-0.2-5.7-2-5.4-6-2.8c-4.5,3-9,2.3-12.3-2.2c-2.9-3.8-2-8.8,2.8-12.1c4.3-3,3.5-4.2-0.6-6.4c-5-2.7-6.5-7.5-4.3-11.7
					c2.2-4.2,7.1-6,12-3.6c4.6,2.3,6.2,1.6,5.4-3.7C454.6,1106.2,456.7,1103.3,459.8,1101z"/>
			</g>
			<g>
				<path class="st34" d="M466.2,1140.3c-4.8,0.5-9.8-3.6-10.2-8.4c-0.5-5.1,3.2-9.7,8.2-10.3c4.9-0.6,9.5,3.3,10.1,8.4
					C474.8,1135.1,471.1,1139.8,466.2,1140.3z"/>
			</g>
		</g>
		<g>
			<g>
				<path class="st33" d="M682.1,608.9c-5.1,6.1-10.4,12-15.3,18.3c-2.5,3.1-4.6,3.4-7.2,0.5c-0.3-0.3-0.6-0.5-0.9-0.8
					c-9.4-7.8-9.6-7.9-2.2-17.5c3.2-4.1,0.6-5.8-2-8.2c-2.8-2.6-4.7-2.5-7.3,0.5c-7.9,8.9-8,8.8-17.1,1.1c-1.7-1.4-3.3-2.9-4.9-4.3
					c4.9-7.7,11.7-13.9,16.7-21.5c1.3-2,3.4-2.6,5.7-2.6c8.3,0,16.7-0.4,25,0c3.1,0.2,5.7,0.7,6.4,4.1c2,9.3,3.9,18.6,4,28.2
					C683.1,607.5,682.6,608.2,682.1,608.9z"/>
			</g>
			<g>
				<path class="st14" d="M689.5,597.9c0.4,3.3,1,6.6,1.2,9.9c0.2,2,2,4.8-0.5,5.8c-2.8,1.2-3.5-2.3-5-3.9
					c-3.8-6.2-3.1-13.4-4.1-20.2c-2.3-15.1-1.9-15.1-16.8-15.2c-5.6,0-11.1,0.3-16.7,0.2c-3,0-5.9-0.6-8.6-1.9
					c-3.3-3.5-1.7-4.5,2.2-4.6c12.7-0.3,25.4-0.7,38.1-0.9c3.3,0,5.3-0.7,7-3.9c2.9-5.6,7.7-9.6,14.2-10.9c2-0.4,3.9-0.8,4.2,2.4
					c0.8,8.3,1.8,16.7-2.2,24.6c-1.4,3.5-4.6,4.4-7.7,4.2c-4.9-0.2-5.5,2.4-5.2,6.2c0.2,0.5,0.3,1.1,0.4,1.6
					C690.6,593.6,690.9,595.9,689.5,597.9z"/>
			</g>
			<g>
				<path class="st35" d="M688.4,590.5c-2.4-4,0.8-6.8,2.4-9.6c1.3-2.3,1,1.8,2.4,1.4c3.3-0.8,6.7-1,9.5-3c-0.7,3.6,2.1,2.9,4,3.4
					c8.9,2,15.7,6.4,18.7,15.6c1.3,3.9,0.5,5.7-4.1,6.2c-10,1.1-19.5,0.3-28.1-5.4c-1.1-0.8-2.2-1.8-3.8-1.1
					c-0.8-2.1-0.7-4.3-0.5-6.5c1.2-2.6,3.4-0.7,4.9-1.1C692.2,590.1,690.3,589.9,688.4,590.5z"/>
			</g>
			<g>
				<path class="st36" d="M639.1,572.6c12.3,0.1,24.5,0.3,36.8,0.2c3.5,0,4.8,1,5.2,4.5c1.2,10.8,2.8,21.6,4.2,32.3
					c-1.1-0.3-2.1-0.5-3.2-0.8c-1.4-9.4-3-18.8-4.1-28.3c-0.4-3.5-1.7-4.7-5.3-4.6c-8.3,0.3-16.7,0.2-25,0c-2.9-0.1-4.8,1-6.6,3.2
					c-5.3,6.5-10.6,12.9-16,19.3c1.3-4.4,4.2-7.9,7.5-10.8c3.3-3,4.9-7.1,7.5-10.5C641.7,575.1,640.4,573.9,639.1,572.6z"/>
			</g>
			<g>
				<path class="st37" d="M688.4,590.5c3.7-2.9,7.2-1,10.7,0.8c-3.3,0-6.7,0.1-10,0.1C688.8,591.2,688.5,590.8,688.4,590.5z"/>
			</g>
		</g>
		<g>
			<polygon class="st5" points="812.1,856.9 124.8,856.9 146.2,782.1 124.8,710.6 812.1,710.6 787.8,782.1 			"/>
		</g>
		<g>
			<path class="st4" d="M372.5,727.2v48.1H357v-34.4l-10,34.4h-10.6L326,740.9v34.4h-12.5v-48.1h21.7l7.9,25.5l7.5-25.5H372.5z"/>
			<path class="st4" d="M432.9,739.5v35.8h-14.7v-5.9c-2.1,4.4-6.3,6.6-12.5,6.6c-3.8,0-6.8-0.9-8.9-2.8c-2.1-1.9-3.2-4.6-3.2-8.1
				v-25.6h15.8V762c0,1.4,0.2,2.4,0.7,3c0.4,0.6,1.3,0.9,2.6,0.9c1.4,0,2.4-0.4,3.3-1.3c0.8-0.9,1.3-2.1,1.3-3.6v-21.5H432.9z"/>
			<path class="st4" d="M492.8,775.3H477v-22.6c0-1.9-0.3-3-1-3.6c-0.6-0.5-1.5-0.8-2.4-0.8c-2.9,0-4.3,1.8-4.3,5.4v21.5h-15.8
				v-35.8h14.7v5.1c2.2-3.9,6-5.8,11.6-5.8c2.9,0,5.4,0.5,7.4,1.5c2,1,3.5,2.3,4.3,3.9c0.9,1.6,1.3,4.3,1.3,8.3V775.3z"/>
			<path class="st4" d="M552.8,775.3H538v-4.8c-2.2,3.7-5.8,5.5-10.9,5.5c-4.7,0-8.4-1.6-11.3-4.8c-2.9-3.2-4.3-7.9-4.3-14.1
				c0-5.8,1.5-10.3,4.4-13.7c2.9-3.4,6.8-5.1,11.6-5.1c4,0,7.3,1.4,9.9,4.1v-15.2h15.6V775.3z M537.2,752.3c0-3.2-1.5-4.8-4.5-4.8
				c-2.1,0-3.5,1-4.1,3.1s-1,4.5-1,7.5c0,5.8,1.7,8.7,5,8.7c1.3,0,2.3-0.5,3.2-1.4c0.9-0.9,1.3-2.3,1.3-4.2V752.3z"/>
			<path class="st4" d="M593.1,776.1c-6.7,0-12-1.9-16-5.5c-3.9-3.7-5.9-8-5.9-13c0-5.4,2.1-9.8,6.2-13.4c4.1-3.6,9.5-5.4,16.1-5.4
				c6.6,0,12,1.8,16,5.3c4,3.5,6.1,7.9,6.1,13.2c0,5.4-2,9.8-6.1,13.4C605.3,774.3,599.9,776.1,593.1,776.1z M593.3,767.5
				c2.5,0,4-1.1,4.5-3.4c0.5-2.3,0.8-4.6,0.8-7.1c0-3.4-0.4-5.8-1.2-7.3c-0.8-1.5-2.1-2.2-4.1-2.2c-1.8,0-3.2,0.8-4,2.3
				s-1.3,4-1.3,7.5c0,4.1,0.4,6.8,1.3,8.2S591.6,767.5,593.3,767.5z"/>
			<path class="st4" d="M362.6,791.1v48.1h-15.4v-34.4l-10,34.4h-10.6l-10.4-34.4v34.4h-12.5v-48.1h21.7l7.9,25.5l7.5-25.5H362.6z"
				/>
			<path class="st4" d="M410.4,826.3l14.8,0.9c-0.9,3.5-3.1,6.5-6.7,9c-3.6,2.5-8.4,3.7-14.6,3.7c-6.8,0-12.2-1.7-16.3-5.2
				c-4.1-3.5-6.1-7.8-6.1-13c0-5.4,2-9.9,6-13.6c4-3.7,9.3-5.5,16-5.5c6.5,0,11.7,1.7,15.7,5.2c4,3.5,6,8.2,6,14.2c0,0.5,0,1.2,0,2
				h-27c0.1,2.3,0.5,3.9,1.4,5c0.8,1.1,2.5,1.6,4.8,1.6C407.8,830.7,409.8,829.2,410.4,826.3z M409.3,817c0-2.4-0.6-4-1.6-4.9
				c-1.1-0.8-2.4-1.3-4-1.3c-3.7,0-5.6,2-5.6,6.1H409.3z"/>
			<path class="st4" d="M459.2,791.1v48.1h-15.6v-48.1H459.2z"/>
			<path class="st4" d="M519.4,839.2h-15.8v-21.6c0-2-0.2-3.3-0.7-4.1c-0.5-0.7-1.4-1.1-2.8-1.1c-1.1,0-2,0.3-2.8,0.9
				c-0.8,0.6-1.3,1.2-1.4,1.8c-0.1,0.6-0.2,1.9-0.2,3.8v20.3h-15.8v-48.1h15.8v16.5c2.9-3.3,6.6-5,11.2-5c2.3,0,4.4,0.4,6.1,1.1
				c1.8,0.7,3.1,1.6,4.1,2.8s1.6,2.2,1.9,3.3c0.3,1.1,0.5,3.1,0.5,6.1V839.2z"/>
			<path class="st4" d="M559.7,839.9c-6.7,0-12-1.9-16-5.5c-3.9-3.7-5.9-8-5.9-13c0-5.4,2.1-9.8,6.2-13.4c4.1-3.6,9.5-5.4,16.1-5.4
				c6.6,0,12,1.8,16,5.3c4,3.5,6.1,7.9,6.1,13.2c0,5.4-2,9.8-6.1,13.4C572,838.1,566.5,839.9,559.7,839.9z M560,831.4
				c2.5,0,4-1.1,4.5-3.4c0.5-2.3,0.8-4.6,0.8-7.1c0-3.4-0.4-5.8-1.2-7.3c-0.8-1.5-2.1-2.2-4.1-2.2c-1.8,0-3.2,0.8-4,2.3
				s-1.3,4-1.3,7.5c0,4.1,0.4,6.8,1.3,8.2S558.2,831.4,560,831.4z"/>
			<path class="st4" d="M615.7,839.2h-15.2v-35.8h13.2v7.4c1.5-5.4,5-8.1,10.5-8.1c0.6,0,1.3,0,2.3,0.1v12.5c-1.1-0.2-2.1-0.4-3-0.4
				c-5.2,0-7.9,2.6-7.9,7.8V839.2z"/>
		</g>
		<g>
			<g>
				<path class="st28" d="M259.3,974c5.9,8.1,11.7,16.3,17.8,24.3c2.1,2.8,2.5,4.6-0.5,7.3c-13,11.7-25.9,23.5-38.6,35.6
					c-4.4,4.2-7.2,4-9.9-1.3c-0.5-0.9-1.4-1.7-1.8-2.6c-2.5-5.2-5.3-4.9-9.8-1.6c-12,8.9-27.8,6.4-36.4-5.1
					c-8.5-11.3-6.1-27.7,5.8-36.3c4.7-3.4,5.9-6,1.5-10.2c-0.9-0.9-1.4-2.1-2.3-3.1c-2.8-3-2.8-5,1.3-7.2
					c16.1-8.8,32.1-17.8,48-26.9c2.9-1.7,4.3-1.2,6.2,1.3C246.6,956.8,253,965.4,259.3,974z"/>
			</g>
			<g>
				<path class="st38" d="M207.1,1011.1c2.9,4,5.8,7.9,8.6,11.9c1,1.4,2,2.5,0.2,4.3c-5.1,5.4-14.3,7.9-21.2,5.4
					c-7.3-2.6-12.2-9.2-12.6-16.9c-0.4-7.4,4.5-15.2,11.3-18.7c2.5-1.3,3.5-0.1,4.7,1.5C201.1,1002.9,204.1,1007,207.1,1011.1z"/>
			</g>
			<g>
				<path class="st39" d="M251.6,987.9c4.5,3.9,1.7,7.9,0.1,12c-2.1,5.2-5.7,9.2-10.9,10.6c-2.2,0.6-4.4-3.2-4.8-5.8
					c-0.4-2.6,0.7-6.5,3.8-6.2c8.4,0.8,3.6-3.6,2.4-5.7c-1.7-2.9-2.8-4.7,0.5-7.4C247.3,981.7,249.5,983.9,251.6,987.9z"/>
			</g>
			<g>
				<path class="st40" d="M215.9,1004.3c-2.7-3.4-4.3-6.5-3.5-11.4c0.5-3.1,1.9-3,3.5-3.6c2.7-1,5.1-0.8,6.5,2.1
					c0.8,1.7,3.5,3.2,1,5.4c-1.2,1.1-2.5,2.1-1.6,3.6c1,1.8,3.1,0.6,4.7,0.9c2.4,0.6,6.6-2.3,6.8,2.9c0.1,2.2,2.4,5.8-1,6.6
					c-3.8,0.8-8.4,2.8-12-1C218.7,1008.1,217.3,1006.1,215.9,1004.3z"/>
			</g>
			<g>
				<path class="st39" d="M222,975c5.8-4.5,16.3-4.4,20.4-0.5c1.5,1.4,2.9,2.4,1.9,4.7c-1.1,2.4-2.3,4.5-5.4,4.7
					c-2.2,0.1-4.2,0.5-4.9-2.5c-0.3-1.4-1.1-3.1-2.9-2.7c-1.6,0.4-1.6,2.3-2.4,3.6c-1.4,2.1-0.5,6.8-5.4,4.9
					c-2.1-0.8-5.4-0.4-5.5-3.3C217.7,980.1,220,977.1,222,975z"/>
			</g>
		</g>
		<g>
			<g>
				<path class="st14" d="M219.5,607.3c-0.7,0.5-1.5,0.8-2.7,1c-6,0.8-11.3,3.1-15.4,7.1c-9.8,8.9-12,21.8-5.7,32.8
					c4.4,7.6,11.7,11.1,19.7,13c16.7,4.1,33.4,3,50.1-0.7c1.3-0.3,2.1-0.9,2.7-1.7C253,643,231.4,620.3,219.5,607.3z"/>
			</g>
			<g>
				<path class="st33" d="M274.7,630.2c0.8-10.5,1-21-2.7-31.1c-3.3-9.3-9.7-15.1-19.6-16.8c-14.3-2.4-27,6.3-31.1,21.8
					c-0.4,1.6-1,2.5-1.9,3.2c11.8,13,33.5,35.6,48.7,51.5c0.4-0.6,0.8-1.2,1-2C272,648.1,274,639.3,274.7,630.2z"/>
			</g>
		</g>
	</g>
</g>
</svg>
