<?xml version="1.0" encoding="utf-8"?>
<!-- Generator: Adobe Illustrator 21.0.0, SVG Export Plug-In . SVG Version: 6.00 Build 0)  -->
<svg version="1.1" xmlns="http://www.w3.org/2000/svg" xmlns:xlink="http://www.w3.org/1999/xlink" x="0px" y="0px"
	 viewBox="0 0 350 142" style="enable-background:new 0 0 350 142;" xml:space="preserve">
<style type="text/css">
	.st0{display:none;}
	.st1{display:inline;fill-rule:evenodd;clip-rule:evenodd;fill:#1B1918;}
	.st2{fill:none;stroke:#1B1918;stroke-width:0.4252;}
	.st3{fill-rule:evenodd;clip-rule:evenodd;fill:#FFFFFF;}
</style>
<g id="Camada_2" class="st0">
	<rect x="-65.4" y="-176" class="st1" width="500.4" height="500"/>
</g>
<g id="Camada_1">
	<rect x="-65.4" y="0.5" class="st2" width="500.4" height="149.4"/>
	<path class="st3" d="M298.6,130.2c0-0.5,0.1-0.9,0.4-1.2c0.3-0.3,0.7-0.5,1.3-0.5c0.4,0,0.7,0.1,0.9,0.3c0.2,0.2,0.3,0.5,0.3,0.9
		c0,0.5-0.2,0.9-0.5,1.2c-0.3,0.3-0.7,0.4-1.2,0.4c-0.4,0-0.7-0.1-1-0.3C298.7,130.9,298.6,130.6,298.6,130.2z M297.6,125.4
		c0,1.2-0.2,2.2-0.6,3.1c-0.4,0.9-1,1.6-1.7,2.1c-0.7,0.5-1.6,0.7-2.6,0.7c-1.1,0-2-0.3-2.6-1c-0.6-0.7-1-1.5-1-2.6
		c0-1.2,0.2-2.2,0.6-3.2c0.4-0.9,1-1.6,1.7-2.2c0.8-0.5,1.6-0.8,2.6-0.8c1.1,0,2,0.3,2.6,1C297.3,123.3,297.6,124.3,297.6,125.4z
		 M295.1,125.4c0-1.1-0.4-1.6-1.2-1.6c-0.4,0-0.8,0.2-1.1,0.5c-0.3,0.3-0.6,0.8-0.8,1.5c-0.2,0.7-0.3,1.3-0.3,2c0,1,0.4,1.5,1.3,1.5
		c0.4,0,0.8-0.2,1.1-0.5c0.3-0.3,0.6-0.8,0.8-1.4C295,126.8,295.1,126.1,295.1,125.4z M287.2,128.1c0,1.1-0.3,1.8-1,2.4
		c-0.7,0.6-1.7,0.8-2.9,0.8c-0.6,0-1.1,0-1.6-0.1c-0.4-0.1-0.9-0.2-1.2-0.4v-2.1c0.9,0.5,1.8,0.8,2.7,0.8c0.4,0,0.8-0.1,1.1-0.3
		c0.3-0.2,0.4-0.4,0.4-0.7c0-0.2-0.1-0.4-0.3-0.6c-0.2-0.2-0.6-0.4-1.1-0.7c-0.7-0.4-1.1-0.8-1.4-1.1c-0.3-0.4-0.4-0.8-0.4-1.3
		c0-0.9,0.3-1.7,0.9-2.2c0.6-0.5,1.5-0.8,2.6-0.8c1.1,0,2.1,0.3,3,0.8l-0.8,1.8c-0.8-0.5-1.5-0.7-2.2-0.7c-0.3,0-0.6,0.1-0.8,0.2
		c-0.2,0.1-0.3,0.3-0.3,0.6c0,0.2,0.1,0.4,0.3,0.6c0.2,0.2,0.5,0.4,1,0.6c0.7,0.4,1.2,0.7,1.5,1.1
		C287,127.1,287.2,127.6,287.2,128.1z M279.1,128.1c0,1.1-0.3,1.8-1,2.4c-0.7,0.6-1.7,0.8-2.9,0.8c-0.6,0-1.1,0-1.6-0.1
		c-0.4-0.1-0.9-0.2-1.2-0.4v-2.1c0.9,0.5,1.8,0.8,2.7,0.8c0.4,0,0.8-0.1,1.1-0.3c0.3-0.2,0.4-0.4,0.4-0.7c0-0.2-0.1-0.4-0.3-0.6
		c-0.2-0.2-0.6-0.4-1.1-0.7c-0.7-0.4-1.1-0.8-1.4-1.1c-0.3-0.4-0.4-0.8-0.4-1.3c0-0.9,0.3-1.7,0.9-2.2c0.6-0.5,1.5-0.8,2.6-0.8
		c1.1,0,2.1,0.3,3,0.8l-0.8,1.8c-0.8-0.5-1.5-0.7-2.2-0.7c-0.3,0-0.6,0.1-0.8,0.2c-0.2,0.1-0.3,0.3-0.3,0.6c0,0.2,0.1,0.4,0.3,0.6
		c0.2,0.2,0.5,0.4,1,0.6c0.7,0.4,1.2,0.7,1.5,1.1C278.9,127.1,279.1,127.6,279.1,128.1z M271.4,125.4c0,1.2-0.2,2.2-0.6,3.1
		c-0.4,0.9-1,1.6-1.7,2.1c-0.7,0.5-1.6,0.7-2.6,0.7c-1.1,0-2-0.3-2.6-1c-0.7-0.7-1-1.5-1-2.6c0-1.2,0.2-2.2,0.6-3.2
		c0.4-0.9,1-1.6,1.7-2.2c0.8-0.5,1.6-0.8,2.6-0.8c1.1,0,2,0.3,2.6,1C271.1,123.3,271.4,124.3,271.4,125.4z M268.9,125.4
		c0-1.1-0.4-1.6-1.2-1.6c-0.4,0-0.8,0.2-1.1,0.5c-0.3,0.3-0.6,0.8-0.8,1.5c-0.2,0.7-0.3,1.3-0.3,2c0,1,0.4,1.5,1.3,1.5
		c0.4,0,0.8-0.2,1.1-0.5c0.3-0.3,0.6-0.8,0.8-1.4C268.8,126.8,268.9,126.1,268.9,125.4z M260,131.2h-2.5l1.1-5.4
		c0.1-0.4,0.1-0.7,0.1-1c0-0.7-0.3-1-0.9-1c-0.5,0-1,0.3-1.4,1s-0.7,1.5-1,2.7l-0.8,3.9h-2.5l2-9.3h1.9l-0.2,1.7h0
		c0.8-1.3,1.8-1.9,3-1.9c0.8,0,1.4,0.2,1.8,0.7c0.4,0.5,0.6,1.1,0.6,2c0,0.4-0.1,0.9-0.2,1.5L260,131.2z M243.9,120.6
		c0.3-0.3,0.7-0.8,1-1.3c0.4-0.5,0.7-0.9,0.9-1.2h1.6v0.2c-0.2,0.3-0.6,0.7-1.2,1.3c-0.6,0.6-1.1,1-1.5,1.3h-0.9V120.6z
		 M244.3,123.1c-0.6,0-1.1,0.3-1.6,0.8c-0.5,0.5-0.9,1.2-1.2,2.2h0.1c1.3,0,2.2-0.2,2.9-0.5c0.7-0.3,1-0.8,1-1.4
		c0-0.3-0.1-0.5-0.3-0.7S244.7,123.1,244.3,123.1z M243.1,131.4c-1,0-1.8-0.3-2.4-0.9c-0.6-0.6-0.9-1.5-0.9-2.5c0-1,0.2-2,0.6-3
		c0.4-1,1-1.7,1.7-2.2c0.7-0.5,1.4-0.8,2.3-0.8c0.9,0,1.5,0.2,1.9,0.6c0.4,0.4,0.6,0.9,0.6,1.6c0,1-0.5,1.8-1.4,2.4
		c-0.9,0.6-2.2,0.9-4,0.9h-0.3l0,0.7c0,0.7,0.2,1.3,0.5,1.7c0.3,0.4,0.9,0.6,1.6,0.6c0.4,0,0.7-0.1,1.1-0.1c0.4-0.1,0.8-0.3,1.4-0.6
		v1.2c-0.5,0.2-1,0.4-1.4,0.5C244,131.3,243.6,131.4,243.1,131.4z M230.6,130.6c0-0.4,0.1-0.8,0.3-1c0.2-0.3,0.5-0.4,0.9-0.4
		c0.2,0,0.4,0.1,0.6,0.2c0.1,0.1,0.2,0.4,0.2,0.7c0,0.4-0.1,0.7-0.3,1c-0.2,0.3-0.5,0.4-0.9,0.4c-0.3,0-0.5-0.1-0.6-0.2
		C230.7,131.1,230.6,130.9,230.6,130.6z M226.3,131.2l2.6-12.2h1.4l-2.6,12.2H226.3z M221.6,130.6c0-0.4,0.1-0.8,0.3-1
		c0.2-0.3,0.5-0.4,0.9-0.4c0.2,0,0.4,0.1,0.6,0.2c0.1,0.1,0.2,0.4,0.2,0.7c0,0.4-0.1,0.7-0.3,1c-0.2,0.3-0.5,0.4-0.9,0.4
		c-0.3,0-0.5-0.1-0.6-0.2C221.7,131.1,221.6,130.9,221.6,130.6z M217.8,131.2h-1.4l2.3-10.9h-3.4l0.3-1.3h8.2l-0.3,1.3h-3.4
		L217.8,131.2z M200.2,131.2l1.2-5.8c0.1-0.5,0.1-0.9,0.1-1.1c0-0.4-0.1-0.7-0.3-0.9c-0.2-0.2-0.5-0.3-0.9-0.3
		c-0.5,0-0.9,0.2-1.4,0.5c-0.4,0.3-0.8,0.8-1.2,1.4c-0.3,0.6-0.6,1.4-0.8,2.2l-0.8,4h-1.4l2-9.1h1.2l-0.2,1.7h0.1
		c0.5-0.7,1-1.1,1.4-1.4c0.5-0.3,1-0.4,1.5-0.4c0.6,0,1.1,0.2,1.5,0.5c0.3,0.4,0.5,0.9,0.6,1.5h0.1c0.5-0.7,1-1.2,1.5-1.6
		c0.5-0.3,1.1-0.5,1.6-0.5c0.7,0,1.3,0.2,1.6,0.6c0.4,0.4,0.6,0.9,0.6,1.7c0,0.4-0.1,0.9-0.2,1.5l-1.2,5.6h-1.4l1.2-5.8
		c0.1-0.6,0.2-1,0.2-1.2c0-0.3-0.1-0.6-0.3-0.8c-0.2-0.2-0.5-0.3-0.9-0.3c-0.4,0-0.9,0.2-1.3,0.5c-0.4,0.3-0.8,0.8-1.2,1.4
		c-0.3,0.6-0.6,1.3-0.8,2.1l-0.9,4.2H200.2z M191.3,123.1c-0.6,0-1.1,0.3-1.6,0.8c-0.5,0.5-0.9,1.2-1.2,2.2h0.1
		c1.3,0,2.2-0.2,2.9-0.5c0.7-0.3,1-0.8,1-1.4c0-0.3-0.1-0.5-0.3-0.7C192,123.2,191.7,123.1,191.3,123.1z M190.1,131.4
		c-1,0-1.8-0.3-2.4-0.9c-0.6-0.6-0.9-1.5-0.9-2.5c0-1,0.2-2,0.6-3c0.4-1,1-1.7,1.6-2.2c0.7-0.5,1.4-0.8,2.3-0.8
		c0.8,0,1.5,0.2,1.9,0.6c0.4,0.4,0.6,0.9,0.6,1.6c0,1-0.5,1.8-1.4,2.4c-0.9,0.6-2.2,0.9-4,0.9h-0.3l0,0.7c0,0.7,0.2,1.3,0.5,1.7
		c0.3,0.4,0.9,0.6,1.6,0.6c0.4,0,0.7-0.1,1.1-0.1c0.4-0.1,0.8-0.3,1.4-0.6v1.2c-0.5,0.2-1,0.4-1.4,0.5
		C191,131.3,190.6,131.4,190.1,131.4z M175.7,130.2c0.5,0,1.1-0.3,1.6-0.8c0.5-0.5,1-1.2,1.3-2c0.3-0.8,0.5-1.7,0.5-2.5
		c0-0.6-0.2-1-0.5-1.4c-0.3-0.3-0.7-0.5-1.2-0.5c-0.6,0-1.1,0.2-1.6,0.7c-0.5,0.5-0.9,1.1-1.2,1.9c-0.3,0.8-0.4,1.7-0.4,2.6
		c0,0.6,0.1,1.1,0.4,1.4C174.8,130.1,175.2,130.2,175.7,130.2z M177.2,121.9c0.5,0,1,0.1,1.4,0.4c0.4,0.3,0.7,0.7,0.9,1.2h0.1
		l0.6-1.4h1.1l-1.9,9.1h-1.1l0.2-1.7h-0.1c-1,1.3-2,1.9-3.2,1.9c-0.8,0-1.4-0.3-1.8-0.8c-0.4-0.6-0.7-1.3-0.7-2.3
		c0-1.2,0.2-2.2,0.6-3.2c0.4-1,0.9-1.8,1.6-2.3C175.7,122.2,176.4,121.9,177.2,121.9z M162.8,131.2l1.2-5.8c0.1-0.5,0.1-0.9,0.1-1.1
		c0-0.4-0.1-0.7-0.3-0.9c-0.2-0.2-0.5-0.3-0.9-0.3c-0.5,0-0.9,0.2-1.4,0.5c-0.4,0.3-0.8,0.8-1.2,1.4c-0.3,0.6-0.6,1.4-0.8,2.2
		l-0.8,4h-1.4l2-9.1h1.2l-0.2,1.7h0.1c0.5-0.7,1-1.1,1.5-1.4c0.5-0.3,1-0.4,1.5-0.4c0.6,0,1.1,0.2,1.5,0.5c0.3,0.4,0.5,0.9,0.6,1.5
		h0.1c0.5-0.7,1-1.2,1.5-1.6c0.5-0.3,1.1-0.5,1.6-0.5c0.7,0,1.3,0.2,1.6,0.6c0.4,0.4,0.6,0.9,0.6,1.7c0,0.4-0.1,0.9-0.2,1.5
		l-1.2,5.6h-1.4l1.2-5.8c0.1-0.6,0.2-1,0.2-1.2c0-0.3-0.1-0.6-0.3-0.8c-0.2-0.2-0.5-0.3-0.9-0.3c-0.5,0-0.9,0.2-1.3,0.5
		c-0.4,0.3-0.8,0.8-1.2,1.4c-0.3,0.6-0.6,1.3-0.8,2.1l-0.9,4.2H162.8z M153.9,123.1c-0.6,0-1.1,0.3-1.6,0.8
		c-0.5,0.5-0.9,1.2-1.2,2.2h0.1c1.3,0,2.2-0.2,2.9-0.5c0.7-0.3,1-0.8,1-1.4c0-0.3-0.1-0.5-0.3-0.7
		C154.6,123.2,154.3,123.1,153.9,123.1z M152.7,131.4c-1,0-1.8-0.3-2.4-0.9c-0.6-0.6-0.9-1.5-0.9-2.5c0-1,0.2-2,0.6-3
		c0.4-1,1-1.7,1.6-2.2c0.7-0.5,1.4-0.8,2.3-0.8c0.8,0,1.5,0.2,1.9,0.6c0.4,0.4,0.6,0.9,0.6,1.6c0,1-0.5,1.8-1.4,2.4
		c-0.9,0.6-2.2,0.9-4,0.9h-0.3l0,0.7c0,0.7,0.2,1.3,0.5,1.7c0.3,0.4,0.9,0.6,1.6,0.6c0.4,0,0.7-0.1,1.1-0.1c0.4-0.1,0.8-0.3,1.4-0.6
		v1.2c-0.5,0.2-1,0.4-1.4,0.5C153.6,131.3,153.2,131.4,152.7,131.4z M146.1,131.2h-1.4l2.8-13h1.4L146.1,131.2z M140.5,123.1
		c-0.5,0-1.1,0.3-1.6,0.8c-0.6,0.5-1,1.2-1.3,2c-0.3,0.8-0.5,1.6-0.5,2.5c0,0.6,0.2,1.1,0.5,1.4c0.3,0.3,0.8,0.5,1.3,0.5
		c0.6,0,1.1-0.2,1.5-0.7c0.5-0.5,0.9-1.1,1.1-1.9c0.3-0.8,0.4-1.7,0.4-2.7C142,123.7,141.5,123.1,140.5,123.1z M138.9,131.4
		c-0.5,0-1-0.1-1.4-0.4c-0.4-0.3-0.7-0.7-0.9-1.2h-0.1l-0.6,1.4h-1l2.8-13h1.4c-0.3,1.3-0.5,2.4-0.7,3.1c-0.2,0.7-0.4,1.5-0.6,2.5
		h0.1c0.5-0.7,1-1.1,1.5-1.4c0.5-0.3,1-0.5,1.5-0.5c0.8,0,1.4,0.3,1.8,0.8c0.4,0.6,0.7,1.3,0.7,2.3c0,1.2-0.2,2.2-0.6,3.2
		c-0.4,1-0.9,1.8-1.6,2.3C140.6,131.1,139.8,131.4,138.9,131.4z M132.1,125.3c0-0.6-0.2-1.2-0.5-1.6c-0.3-0.4-0.8-0.6-1.4-0.6
		c-0.6,0-1.1,0.2-1.6,0.6c-0.5,0.4-0.9,1-1.1,1.7c-0.3,0.7-0.4,1.5-0.4,2.4c0,0.7,0.2,1.3,0.5,1.7c0.4,0.4,0.9,0.6,1.5,0.6
		c0.6,0,1.1-0.2,1.6-0.6c0.5-0.4,0.8-1,1.1-1.7C132,127.1,132.1,126.2,132.1,125.3z M130.2,121.9c1.1,0,1.9,0.3,2.5,0.9
		c0.6,0.6,0.9,1.5,0.9,2.6c0,1-0.2,2-0.6,3c-0.4,0.9-0.9,1.6-1.6,2.2c-0.7,0.5-1.5,0.8-2.3,0.8c-1.1,0-1.9-0.3-2.5-0.9
		c-0.6-0.6-0.9-1.5-0.9-2.6c0-1.1,0.2-2.1,0.6-3c0.4-0.9,1-1.6,1.6-2.1C128.6,122.2,129.3,121.9,130.2,121.9z M124.7,121.9
		c0.4,0,0.7,0,1,0.1l-0.3,1.3c-0.3-0.1-0.6-0.1-0.9-0.1c-0.5,0-1,0.2-1.4,0.5c-0.4,0.3-0.8,0.8-1.2,1.4c-0.3,0.6-0.6,1.3-0.7,2
		l-0.9,4.2h-1.4l2-9.1h1.2l-0.2,1.7h0.1c0.4-0.5,0.7-0.9,1-1.1c0.3-0.2,0.5-0.4,0.8-0.5C124,122,124.3,121.9,124.7,121.9z
		 M114.6,123.1c-0.5,0-1.1,0.3-1.6,0.8c-0.6,0.5-1,1.2-1.3,2c-0.3,0.8-0.5,1.6-0.5,2.5c0,0.6,0.2,1.1,0.5,1.4
		c0.3,0.3,0.8,0.5,1.3,0.5c0.6,0,1.1-0.2,1.5-0.7c0.5-0.5,0.9-1.1,1.1-1.9c0.3-0.8,0.4-1.7,0.4-2.7
		C116.1,123.7,115.6,123.1,114.6,123.1z M113.1,131.4c-0.5,0-1-0.1-1.4-0.4c-0.4-0.3-0.7-0.7-0.9-1.2h-0.1l0,0.3
		c0,0.1-0.1,0.3-0.1,0.6c0,0.3-0.4,1.8-1,4.6h-1.4l2.8-13.2h1.2l-0.2,1.7h0.1c1-1.3,2-1.9,3.1-1.9c0.8,0,1.4,0.3,1.8,0.8
		c0.4,0.5,0.7,1.3,0.7,2.3c0,1.2-0.2,2.3-0.6,3.2c-0.4,1-0.9,1.8-1.6,2.3C114.7,131.1,113.9,131.4,113.1,131.4z M98,122.1l-1.3,5.8
		c-0.1,0.5-0.1,0.9-0.1,1.2c0,0.8,0.4,1.2,1.2,1.2c0.5,0,1-0.2,1.4-0.5c0.5-0.3,0.9-0.8,1.3-1.4c0.4-0.6,0.6-1.4,0.8-2.3l0.8-4h1.4
		l-1.9,9.1h-1.2l0.2-1.7h-0.1c-0.5,0.7-1.1,1.2-1.6,1.5c-0.5,0.3-1,0.4-1.5,0.4c-0.7,0-1.3-0.2-1.7-0.6c-0.4-0.4-0.6-0.9-0.6-1.7
		c0-0.3,0.1-0.8,0.2-1.4l1.2-5.6H98z M91.1,123.1c-0.6,0-1.1,0.3-1.6,0.8c-0.5,0.5-0.9,1.2-1.2,2.2h0.1c1.3,0,2.2-0.2,2.9-0.5
		c0.7-0.3,1-0.8,1-1.4c0-0.3-0.1-0.5-0.3-0.7C91.8,123.2,91.5,123.1,91.1,123.1z M89.9,131.4c-1,0-1.8-0.3-2.4-0.9
		c-0.6-0.6-0.9-1.5-0.9-2.5c0-1,0.2-2,0.6-3c0.4-1,1-1.7,1.6-2.2c0.7-0.5,1.4-0.8,2.3-0.8c0.8,0,1.5,0.2,1.9,0.6
		c0.4,0.4,0.6,0.9,0.6,1.6c0,1-0.5,1.8-1.4,2.4c-0.9,0.6-2.2,0.9-4,0.9h-0.3l0,0.7c0,0.7,0.2,1.3,0.5,1.7c0.3,0.4,0.9,0.6,1.6,0.6
		c0.4,0,0.7-0.1,1.1-0.1c0.4-0.1,0.8-0.3,1.4-0.6v1.2c-0.5,0.2-1,0.4-1.4,0.5C90.8,131.3,90.4,131.4,89.9,131.4z M84.6,128.6
		c0,0.9-0.3,1.5-0.9,2c-0.6,0.5-1.5,0.7-2.6,0.7c-0.9,0-1.8-0.2-2.5-0.6v-1.3c0.4,0.2,0.8,0.4,1.3,0.5c0.5,0.1,0.9,0.2,1.3,0.2
		c0.7,0,1.2-0.1,1.6-0.4c0.4-0.3,0.5-0.6,0.5-1.1c0-0.3-0.1-0.6-0.3-0.8c-0.2-0.2-0.6-0.5-1.3-0.9c-0.7-0.4-1.2-0.8-1.5-1.2
		c-0.3-0.4-0.5-0.9-0.5-1.4c0-0.8,0.3-1.4,0.8-1.9c0.6-0.5,1.3-0.7,2.2-0.7c0.9,0,1.9,0.2,2.7,0.6l-0.4,1.1l-0.5-0.2
		c-0.6-0.2-1.2-0.4-1.8-0.4c-0.5,0-0.9,0.1-1.2,0.4c-0.3,0.2-0.4,0.6-0.4,0.9c0,0.3,0.1,0.6,0.3,0.8c0.2,0.2,0.6,0.5,1.2,0.9
		c0.6,0.3,1,0.6,1.3,0.9c0.3,0.2,0.5,0.5,0.6,0.8C84.5,128,84.6,128.3,84.6,128.6z"/>
	<path class="st3" d="M161.9,105.2c1.1,3.2,2.9,4.3,4.9,4.1c3.6-0.3,14.2-9.7,18.3-12.7c16.7-11.9,38.5-23.4,44.6-15.8
		c6.8,8.4,17.4,1.9,10.6-5.3c-6.9-7.3-16.5-6.3-27.7-0.7c-11.1,5.3-20.3,11.6-29.4,19c-3.5,2.9-14.1,12.9-17,13.5
		C164.7,107.6,163.2,107.2,161.9,105.2z"/>
	<path class="st3" d="M190.6,67.8c17.6-15.7,39.9-35.2,51.9-46.3c11.9-11,11.8-11.1,7.6,3.8c-4.1,14.3-7,26.5-8.5,36
		c0.3,9.7,3.8,12.6,8.4,11.6c6.9-16.8,18.2-30.5,32.6-41.5c13.5-10.3,28.7-19.2,45.8-16.7c15.3,2.3,17.3,19.5,10.3,23.5
		c-3.6,2.1-4.5,1-4-1.8c1.5-7.5-4.3-12.1-12.2-12.1c-11,0-21.5,7.2-29.4,14.3c-10.5,9.5-18.6,20.7-23.8,33.9
		c-2.1,5.3-4.1,12.7-1.5,18.1c2.3,4.8,10.5,7.1,13.8,6.8c11.2-1.2,13.6-3.3,25.7-11.3c10.4-7.8,2.6,8.8-6.8,15.5
		c-9.2,6.7-17.9,9-28.7,9c-8.7,0-17.9-2.1-22.8-10.1c-0.5-0.9-1-1.8-1.4-2.8c-1.6,1.3-3,2.4-3.5,2.8c-1.5,1.3-3,2.6-4.5,3.9
		c-1.7,1.5-3.5,3-5.3,4.4c-6.3,4.7-9.2-2.6-10.2-8.3c-0.8-4.9-1-14.7-0.6-21.1c1.8,0,3.5,0.3,4.7,1.3c0.3,0.2,0.5,0.4,0.7,0.7
		c2,2.4,4.7,4.3,7.9,4.4c2.1,0.1,4.3-0.6,5.7-2.3c1.5-2.3,1.2-2.9,1.5-4c-0.2-1.7-1.2-4-3.7-6c-4.7-4.4-10.3-5.2-16-4.3
		c0.6-4.5,1.4-9.3,2.4-14.4c-10.1,9.1-24.3,21.3-36.4,31.6c-2.7,1.9-5.6,4.9-8.2,7c-1.2,0.9-2.3,1.9-3.4,2.9c-1.5,1.3-3,2.6-4.5,3.9
		c-1.7,1.5-3.5,3-5.3,4.4c-6.3,4.7-9.2-2.6-10.2-8.3c-1.8-10.5-0.7-24.6,2.7-41.6c-18.4,16.5-36.9,33.1-55.3,49.6
		c-9.1,8.2-9.6,8.5-7.2-3c3.2-15.2,6.3-30.5,9.5-45.7C78.3,74.1,48,92.2,17.7,110.3c-16.3,9.7-17.4,8.8-2.2-3.2
		C52.8,77.8,90.2,48.4,127.5,19c8.3-6.6,8.9-6.6,7.3,3.3c-2.4,15-4.7,29.9-7.1,44.9c16.4-15.3,32.9-30.5,49.3-45.8
		c11.9-11,11.8-11.1,7.6,3.8C165.9,73.3,176,80.9,190.6,67.8z"/>
</g>
</svg>
