<?xml version="1.0" encoding="utf-8"?>
<!DOCTYPE svg PUBLIC "-//W3C//DTD SVG 1.1//EN" "http://www.w3.org/Graphics/SVG/1.1/DTD/svg11.dtd">
<svg version="1.1" id="Capa_1" xmlns="http://www.w3.org/2000/svg" xmlns:xlink="http://www.w3.org/1999/xlink" x="0px" y="0px"
	 width="585.354px" height="585.354px" viewBox="0 0 585.354 585.354" enable-background="new 0 0 585.354 585.354"
	 xml:space="preserve">
	<g>
		<g>
			<path d="M292.677,275.677c-5.483,0-9.943,4.46-9.943,9.943v5.679c0,0.065-0.08,0.173-0.142,0.194
				c-0.538,0.179-0.974,0.335-1.374,0.489c-0.477,0.184-0.836,0.712-0.836,1.229v13.048c0,0.513,0.357,1.042,0.831,1.23
				c3.665,1.452,7.522,2.189,11.465,2.189c3.942,0,7.8-0.736,11.465-2.189c0.474-0.188,0.831-0.716,0.831-1.23v-13.048
				c0-0.517-0.359-1.045-0.836-1.229c-0.4-0.154-0.837-0.309-1.374-0.489c-0.062-0.021-0.142-0.13-0.142-0.194v-5.679
				C302.619,280.137,298.159,275.677,292.677,275.677z M289.968,297.185c0-1.497,1.212-2.708,2.708-2.708
				c1.495,0,2.708,1.211,2.708,2.708c0,0.992-0.559,1.822-1.354,2.293v4.477c0,0.748-0.606,1.354-1.354,1.354
				c-0.748,0-1.354-0.606-1.354-1.354v-4.477C290.528,299.007,289.968,298.176,289.968,297.185z M299.201,285.62v4.9
				c-2.139-0.46-4.334-0.694-6.523-0.694c-2.188,0-4.382,0.233-6.525,0.693v-4.899c0-3.597,2.927-6.524,6.524-6.524
				C296.274,279.096,299.201,282.022,299.201,285.62z"/>
		</g>
	</g>
</svg>