<?xml version="1.0" encoding="utf-8"?>
<!-- Generator: Adobe Illustrator 17.0.0, SVG Export Plug-In . SVG Version: 6.00 Build 0)  -->
<!DOCTYPE svg PUBLIC "-//W3C//DTD SVG 1.1//EN" "http://www.w3.org/Graphics/SVG/1.1/DTD/svg11.dtd">
<svg version="1.1" id="Layer_1" xmlns="http://www.w3.org/2000/svg" xmlns:xlink="http://www.w3.org/1999/xlink" x="0px" y="0px"
	 width="309.836px" height="65.583px" viewBox="0 0 309.836 65.583" enable-background="new 0 0 309.836 65.583"
	 xml:space="preserve">
<g>
	<path fill="#FFFFFF" d="M37.163,0v64.625H21.037v-3.842c-1.544,1.6-3.168,2.8-4.87,3.6c-1.704,0.8-3.487,1.2-5.349,1.2
		c-2.502,0-4.671-0.659-6.507-1.976c-1.836-1.317-3.014-2.84-3.532-4.57C0.26,57.308,0,54.487,0,50.575V25.786
		c0-4.071,0.26-6.958,0.779-8.662c0.519-1.703,1.709-3.2,3.572-4.491c1.862-1.291,4.084-1.936,6.666-1.936
		c1.996,0,3.825,0.36,5.488,1.08c1.663,0.72,3.174,1.801,4.531,3.241V0H37.163z M21.037,24.988c0-1.942-0.167-3.246-0.5-3.912
		c-0.332-0.665-0.991-0.998-1.975-0.998c-0.959,0-1.604,0.299-1.937,0.898c-0.333,0.599-0.499,1.936-0.499,4.012v25.946
		c0,2.155,0.16,3.572,0.479,4.251c0.32,0.679,0.932,1.018,1.837,1.018c1.038,0,1.729-0.379,2.075-1.138s0.52-2.615,0.52-5.568
		V24.988z"/>
	<path fill="#FFFFFF" d="M79.475,39.079H58.599v11.456c0,2.395,0.173,3.939,0.519,4.63c0.346,0.692,1.012,1.038,1.996,1.038
		c1.224,0,2.042-0.459,2.455-1.377c0.412-0.918,0.619-2.694,0.619-5.329v-6.986h15.287v3.912c0,3.273-0.206,5.788-0.618,7.544
		c-0.413,1.756-1.377,3.632-2.894,5.628c-1.518,1.996-3.439,3.493-5.769,4.49c-2.329,0.998-5.249,1.497-8.762,1.497
		c-3.407,0-6.413-0.493-9.021-1.477c-2.609-0.984-4.638-2.335-6.088-4.051c-1.451-1.717-2.455-3.606-3.014-5.668
		c-0.559-2.062-0.838-5.062-0.838-9.001V29.938c0-4.63,0.625-8.283,1.875-10.957c1.251-2.674,3.3-4.723,6.148-6.147
		c2.847-1.423,6.119-2.135,9.818-2.135c4.524,0,8.256,0.858,11.197,2.575c2.94,1.716,5.003,3.992,6.188,6.826
		c1.184,2.834,1.775,6.819,1.775,11.955V39.079z M63.309,30.457v-3.872c0-2.74-0.146-4.511-0.439-5.309
		c-0.293-0.799-0.891-1.198-1.796-1.198c-1.117,0-1.81,0.339-2.075,1.018c-0.267,0.678-0.399,2.508-0.399,5.488v3.872H63.309z"/>
	<path fill="#FFFFFF" d="M100.671,11.656l-0.279,5.04c1.251-1.999,2.741-3.499,4.471-4.499c1.729-0.999,3.698-1.499,5.907-1.499
		c4.312,0,7.705,2,10.18,5.998c1.357-1.999,2.887-3.499,4.59-4.499c1.703-0.999,3.593-1.499,5.668-1.499
		c2.741,0,5.01,0.666,6.807,1.996c1.796,1.331,2.947,2.961,3.453,4.89c0.504,1.93,0.758,5.063,0.758,9.4v37.642h-15.647V30.097
		c0-4.523-0.153-7.325-0.459-8.402s-1.019-1.617-2.136-1.617c-1.145,0-1.883,0.533-2.215,1.597c-0.334,1.064-0.5,3.872-0.5,8.422
		v34.528h-15.647v-33.65c0-5.189-0.127-8.303-0.379-9.341c-0.254-1.038-0.953-1.557-2.096-1.557c-0.719,0-1.332,0.273-1.837,0.818
		c-0.506,0.546-0.785,1.211-0.838,1.996c-0.054,0.786-0.08,2.455-0.08,5.01v36.724H84.744v-52.97H100.671z"/>
	<path fill="#FFFFFF" d="M162.184,32.173h-15.129v-3.552c0-4.098,0.472-7.258,1.417-9.48c0.944-2.222,2.841-4.185,5.688-5.888
		c2.847-1.703,6.546-2.555,11.096-2.555c5.455,0,9.566,0.965,12.335,2.894c2.768,1.93,4.431,4.298,4.989,7.105
		c0.559,2.808,0.839,8.589,0.839,17.344v26.585h-15.688v-4.72c-0.985,1.893-2.255,3.312-3.812,4.259
		c-1.557,0.946-3.414,1.419-5.568,1.419c-2.822,0-5.409-0.792-7.765-2.375c-2.354-1.583-3.532-5.05-3.532-10.398v-4.351
		c0-3.965,0.625-6.666,1.876-8.103s4.351-3.113,9.3-5.029c5.296-2.076,8.13-3.473,8.503-4.191c0.372-0.719,0.56-2.182,0.56-4.391
		c0-2.767-0.207-4.57-0.619-5.409c-0.413-0.838-1.098-1.257-2.057-1.257c-1.091,0-1.77,0.353-2.035,1.058
		c-0.266,0.706-0.398,2.535-0.398,5.489V32.173z M167.293,39.438c-2.582,1.89-4.079,3.473-4.491,4.75
		c-0.413,1.277-0.618,3.113-0.618,5.509c0,2.741,0.18,4.51,0.538,5.309c0.359,0.798,1.071,1.198,2.136,1.198
		c1.012,0,1.67-0.312,1.977-0.938c0.305-0.625,0.459-2.269,0.459-4.93V39.438z"/>
	<path fill="#FFFFFF" d="M205.373,11.656l-0.279,4.88c1.171-1.946,2.602-3.406,4.291-4.378c1.689-0.973,3.639-1.459,5.848-1.459
		c2.768,0,5.029,0.652,6.786,1.956s2.888,2.947,3.394,4.93c0.504,1.982,0.758,5.289,0.758,9.919v37.123h-16.127V27.942
		c0-3.646-0.119-5.868-0.359-6.666c-0.238-0.799-0.904-1.198-1.995-1.198c-1.145,0-1.863,0.459-2.155,1.377
		c-0.293,0.918-0.439,3.373-0.439,7.365v35.806h-16.127v-52.97H205.373z"/>
	<path fill="#FFFFFF" d="M268.402,0v64.625h-16.127v-3.842c-1.543,1.6-3.166,2.8-4.869,3.6c-1.703,0.8-3.486,1.2-5.35,1.2
		c-2.501,0-4.67-0.659-6.506-1.976c-1.836-1.317-3.014-2.84-3.533-4.57c-0.519-1.729-0.777-4.55-0.777-8.462V25.786
		c0-4.071,0.259-6.958,0.777-8.662c0.52-1.703,1.71-3.2,3.573-4.491c1.862-1.291,4.085-1.936,6.666-1.936
		c1.996,0,3.825,0.36,5.489,1.08c1.662,0.72,3.173,1.801,4.529,3.241V0H268.402z M252.275,24.988c0-1.942-0.166-3.246-0.498-3.912
		c-0.334-0.665-0.992-0.998-1.977-0.998c-0.957,0-1.604,0.299-1.936,0.898c-0.333,0.599-0.499,1.936-0.499,4.012v25.946
		c0,2.155,0.159,3.572,0.479,4.251c0.318,0.679,0.931,1.018,1.836,1.018c1.037,0,1.729-0.379,2.075-1.138s0.519-2.615,0.519-5.568
		V24.988z"/>
	<path fill="#FFFFFF" d="M288.601,32.173h-15.129v-3.552c0-4.098,0.472-7.258,1.417-9.48c0.945-2.222,2.841-4.185,5.688-5.888
		c2.847-1.703,6.546-2.555,11.097-2.555c5.455,0,9.566,0.965,12.334,2.894c2.768,1.93,4.432,4.298,4.99,7.105
		c0.559,2.808,0.838,8.589,0.838,17.344v26.585h-15.688v-4.72c-0.984,1.893-2.255,3.312-3.812,4.259
		c-1.557,0.946-3.413,1.419-5.568,1.419c-2.821,0-5.409-0.792-7.765-2.375c-2.354-1.583-3.532-5.05-3.532-10.398v-4.351
		c0-3.965,0.625-6.666,1.876-8.103s4.352-3.113,9.301-5.029c5.295-2.076,8.129-3.473,8.502-4.191c0.373-0.719,0.56-2.182,0.56-4.391
		c0-2.767-0.206-4.57-0.618-5.409c-0.414-0.838-1.099-1.257-2.057-1.257c-1.092,0-1.77,0.353-2.035,1.058
		c-0.267,0.706-0.399,2.535-0.399,5.489V32.173z M293.71,39.438c-2.581,1.89-4.079,3.473-4.491,4.75s-0.618,3.113-0.618,5.509
		c0,2.741,0.18,4.51,0.538,5.309c0.359,0.798,1.072,1.198,2.137,1.198c1.011,0,1.669-0.312,1.976-0.938
		c0.306-0.625,0.459-2.269,0.459-4.93V39.438z"/>
</g>
</svg>
