<?xml version="1.0" encoding="utf-8"?>
<!-- Generator: Adobe Illustrator 17.0.0, SVG Export Plug-In . SVG Version: 6.00 Build 0)  -->
<!DOCTYPE svg PUBLIC "-//W3C//DTD SVG 1.1//EN" "http://www.w3.org/Graphics/SVG/1.1/DTD/svg11.dtd">
<svg version="1.1" id="Layer_1" xmlns="http://www.w3.org/2000/svg" xmlns:xlink="http://www.w3.org/1999/xlink" x="0px" y="0px"
	 width="147.93px" height="25px" viewBox="0 0 147.93 25" enable-background="new 0 0 147.93 25" xml:space="preserve">
<g>
	<g enable-background="new    ">
		<path fill="#0000FF" d="M29.633,8.033h2.276v1.274c0.814-0.99,1.784-1.485,2.909-1.485c0.598,0,1.116,0.123,1.556,0.369
			s0.8,0.618,1.081,1.116c0.41-0.498,0.853-0.87,1.327-1.116s0.981-0.369,1.521-0.369c0.686,0,1.266,0.14,1.74,0.418
			s0.829,0.687,1.063,1.226c0.17,0.398,0.255,1.043,0.255,1.934v5.967h-2.47v-5.334c0-0.926-0.085-1.523-0.255-1.793
			c-0.229-0.352-0.58-0.527-1.055-0.527c-0.346,0-0.671,0.105-0.976,0.316s-0.524,0.521-0.659,0.927
			c-0.135,0.408-0.202,1.051-0.202,1.93v4.482h-2.47v-5.115c0-0.908-0.044-1.494-0.132-1.758s-0.224-0.46-0.409-0.589
			S34.3,9.711,33.984,9.711c-0.381,0-0.724,0.103-1.028,0.308s-0.523,0.501-0.655,0.888s-0.198,1.028-0.198,1.925v4.535h-2.47V8.033
			z"/>
		<path fill="#0000FF" d="M47.668,10.88l-2.241-0.404c0.252-0.902,0.686-1.57,1.301-2.004s1.529-0.65,2.742-0.65
			c1.102,0,1.922,0.131,2.461,0.391c0.539,0.262,0.918,0.593,1.138,0.994s0.33,1.138,0.33,2.21l-0.026,2.882
			c0,0.82,0.04,1.426,0.119,1.815s0.227,0.807,0.444,1.252h-2.443c-0.064-0.164-0.144-0.407-0.237-0.729
			c-0.041-0.146-0.07-0.243-0.088-0.29c-0.422,0.41-0.873,0.718-1.354,0.923s-0.993,0.308-1.538,0.308
			c-0.961,0-1.718-0.261-2.272-0.782s-0.831-1.181-0.831-1.978c0-0.527,0.126-0.998,0.378-1.41c0.252-0.414,0.605-0.73,1.059-0.949
			c0.454-0.221,1.109-0.412,1.964-0.576c1.154-0.217,1.954-0.419,2.399-0.606V11.03c0-0.475-0.117-0.813-0.352-1.015
			c-0.234-0.203-0.677-0.304-1.327-0.304c-0.439,0-0.782,0.087-1.028,0.259C48.02,10.144,47.82,10.447,47.668,10.88z M50.973,12.884
			c-0.316,0.105-0.817,0.231-1.503,0.377s-1.134,0.29-1.345,0.431c-0.322,0.229-0.483,0.519-0.483,0.87
			c0,0.346,0.129,0.645,0.387,0.896s0.586,0.378,0.984,0.378c0.445,0,0.87-0.146,1.274-0.439c0.299-0.223,0.495-0.495,0.589-0.817
			c0.064-0.211,0.097-0.612,0.097-1.204V12.884z"/>
		<path fill="#0000FF" d="M55.833,6.767V4.482h2.47v2.285H55.833z M55.833,17.366V8.033h2.47v9.333H55.833z"/>
		<path fill="#0000FF" d="M59.964,14.703l2.479-0.378c0.105,0.48,0.319,0.846,0.642,1.094c0.322,0.25,0.773,0.374,1.354,0.374
			c0.639,0,1.119-0.117,1.441-0.352c0.217-0.164,0.325-0.384,0.325-0.659c0-0.188-0.059-0.343-0.176-0.466
			c-0.123-0.117-0.398-0.226-0.826-0.325c-1.992-0.439-3.255-0.841-3.788-1.204c-0.738-0.504-1.107-1.204-1.107-2.101
			c0-0.809,0.319-1.488,0.958-2.039s1.629-0.826,2.971-0.826c1.277,0,2.227,0.208,2.848,0.624s1.049,1.031,1.283,1.846l-2.329,0.431
			c-0.1-0.363-0.289-0.642-0.567-0.835s-0.675-0.29-1.191-0.29c-0.65,0-1.116,0.091-1.397,0.272
			c-0.188,0.129-0.281,0.296-0.281,0.501c0,0.176,0.082,0.325,0.246,0.448c0.223,0.164,0.992,0.396,2.307,0.694
			s2.234,0.665,2.755,1.099c0.516,0.439,0.773,1.051,0.773,1.836c0,0.855-0.357,1.591-1.072,2.206s-1.772,0.923-3.173,0.923
			c-1.271,0-2.278-0.258-3.019-0.773S60.193,15.588,59.964,14.703z"/>
		<path fill="#0000FF" d="M84.406,17.366h-2.294v-1.371c-0.381,0.533-0.83,0.931-1.349,1.191c-0.519,0.26-1.042,0.391-1.569,0.391
			c-1.072,0-1.99-0.432-2.755-1.297c-0.765-0.863-1.147-2.069-1.147-3.616c0-1.582,0.372-2.784,1.116-3.608
			c0.744-0.822,1.685-1.234,2.821-1.234c1.043,0,1.945,0.434,2.707,1.301V4.482h2.47V17.366z M77.815,12.498
			c0,0.996,0.138,1.716,0.413,2.162c0.398,0.645,0.955,0.967,1.67,0.967c0.568,0,1.052-0.242,1.45-0.725
			c0.398-0.484,0.598-1.206,0.598-2.167c0-1.072-0.193-1.844-0.58-2.315s-0.882-0.708-1.485-0.708c-0.586,0-1.076,0.233-1.472,0.698
			C78.013,10.876,77.815,11.572,77.815,12.498z"/>
		<path fill="#0000FF" d="M92.246,14.396l2.461,0.413c-0.316,0.902-0.815,1.59-1.498,2.062s-1.537,0.707-2.562,0.707
			c-1.623,0-2.824-0.53-3.604-1.591c-0.615-0.85-0.923-1.922-0.923-3.216c0-1.547,0.404-2.758,1.213-3.634s1.831-1.314,3.067-1.314
			c1.389,0,2.484,0.459,3.287,1.375c0.803,0.918,1.187,2.322,1.151,4.214h-6.188c0.018,0.732,0.217,1.303,0.598,1.709
			c0.381,0.408,0.855,0.611,1.424,0.611c0.387,0,0.712-0.105,0.976-0.316S92.111,14.864,92.246,14.396z M92.387,11.9
			c-0.018-0.715-0.202-1.258-0.554-1.631c-0.352-0.371-0.779-0.558-1.283-0.558c-0.539,0-0.984,0.196-1.336,0.589
			s-0.524,0.926-0.519,1.6H92.387z"/>
		<path fill="#0000FF" d="M101.132,8.033v1.969h-1.688v3.761c0,0.762,0.017,1.206,0.049,1.332s0.105,0.229,0.22,0.312
			s0.253,0.123,0.417,0.123c0.229,0,0.56-0.079,0.993-0.237l0.211,1.916c-0.574,0.246-1.225,0.369-1.951,0.369
			c-0.445,0-0.847-0.074-1.204-0.225c-0.357-0.148-0.619-0.342-0.786-0.58c-0.167-0.236-0.283-0.558-0.348-0.962
			c-0.053-0.287-0.079-0.867-0.079-1.74v-4.069h-1.134V8.033h1.134V6.178l2.479-1.441v3.296H101.132z"/>
		<path fill="#0000FF" d="M104.692,10.88l-2.241-0.404c0.252-0.902,0.686-1.57,1.301-2.004s1.529-0.65,2.742-0.65
			c1.102,0,1.922,0.131,2.461,0.391c0.539,0.262,0.919,0.593,1.139,0.994s0.329,1.138,0.329,2.21l-0.026,2.882
			c0,0.82,0.04,1.426,0.119,1.815s0.227,0.807,0.443,1.252h-2.443c-0.064-0.164-0.144-0.407-0.237-0.729
			c-0.041-0.146-0.07-0.243-0.088-0.29c-0.422,0.41-0.873,0.718-1.354,0.923s-0.993,0.308-1.538,0.308
			c-0.961,0-1.718-0.261-2.271-0.782s-0.831-1.181-0.831-1.978c0-0.527,0.126-0.998,0.378-1.41c0.252-0.414,0.605-0.73,1.06-0.949
			c0.454-0.221,1.108-0.412,1.964-0.576c1.154-0.217,1.954-0.419,2.399-0.606V11.03c0-0.475-0.117-0.813-0.352-1.015
			c-0.234-0.203-0.677-0.304-1.327-0.304c-0.439,0-0.782,0.087-1.028,0.259C105.043,10.144,104.844,10.447,104.692,10.88z
			 M107.996,12.884c-0.316,0.105-0.817,0.231-1.503,0.377s-1.134,0.29-1.345,0.431c-0.322,0.229-0.483,0.519-0.483,0.87
			c0,0.346,0.129,0.645,0.387,0.896s0.586,0.378,0.984,0.378c0.445,0,0.87-0.146,1.274-0.439c0.299-0.223,0.495-0.495,0.589-0.817
			c0.064-0.211,0.097-0.612,0.097-1.204V12.884z"/>
		<path fill="#0000FF" d="M112.857,17.366V4.482h2.47v12.884H112.857z"/>
		<path fill="#0000FF" d="M120.319,4.482v4.737c0.797-0.932,1.749-1.397,2.856-1.397c0.568,0,1.081,0.105,1.538,0.316
			s0.802,0.48,1.033,0.809s0.39,0.691,0.475,1.09s0.127,1.017,0.127,1.854v5.475h-2.47v-4.93c0-0.979-0.047-1.6-0.141-1.863
			s-0.259-0.473-0.496-0.628s-0.535-0.233-0.893-0.233c-0.41,0-0.776,0.1-1.099,0.299s-0.558,0.5-0.707,0.901
			s-0.225,0.994-0.225,1.779v4.675h-2.47V4.482H120.319z"/>
		<path fill="#0000FF" d="M134.258,14.396l2.461,0.413c-0.316,0.902-0.815,1.59-1.498,2.062s-1.537,0.707-2.562,0.707
			c-1.623,0-2.824-0.53-3.604-1.591c-0.615-0.85-0.923-1.922-0.923-3.216c0-1.547,0.404-2.758,1.213-3.634s1.831-1.314,3.067-1.314
			c1.389,0,2.484,0.459,3.287,1.375c0.803,0.918,1.187,2.322,1.151,4.214h-6.188c0.018,0.732,0.217,1.303,0.598,1.709
			c0.381,0.408,0.855,0.611,1.424,0.611c0.387,0,0.712-0.105,0.976-0.316S134.123,14.864,134.258,14.396z M134.399,11.9
			c-0.018-0.715-0.202-1.258-0.554-1.631c-0.352-0.371-0.779-0.558-1.283-0.558c-0.539,0-0.984,0.196-1.336,0.589
			s-0.524,0.926-0.519,1.6H134.399z"/>
		<path fill="#0000FF" d="M137.993,14.703l2.479-0.378c0.105,0.48,0.319,0.846,0.642,1.094c0.322,0.25,0.773,0.374,1.354,0.374
			c0.639,0,1.119-0.117,1.441-0.352c0.217-0.164,0.325-0.384,0.325-0.659c0-0.188-0.059-0.343-0.176-0.466
			c-0.123-0.117-0.398-0.226-0.826-0.325c-1.992-0.439-3.255-0.841-3.788-1.204c-0.738-0.504-1.107-1.204-1.107-2.101
			c0-0.809,0.319-1.488,0.958-2.039s1.629-0.826,2.971-0.826c1.277,0,2.227,0.208,2.848,0.624s1.049,1.031,1.283,1.846l-2.329,0.431
			c-0.1-0.363-0.288-0.642-0.566-0.835s-0.676-0.29-1.191-0.29c-0.65,0-1.116,0.091-1.397,0.272
			c-0.188,0.129-0.281,0.296-0.281,0.501c0,0.176,0.082,0.325,0.246,0.448c0.223,0.164,0.992,0.396,2.308,0.694
			s2.233,0.665,2.755,1.099c0.516,0.439,0.773,1.051,0.773,1.836c0,0.855-0.357,1.591-1.072,2.206s-1.772,0.923-3.173,0.923
			c-1.271,0-2.277-0.258-3.019-0.773S138.222,15.588,137.993,14.703z"/>
	</g>
	<line fill="none" stroke="#0000FF" stroke-width="2" stroke-miterlimit="10" x1="27.93" y1="22.953" x2="147.93" y2="22.953"/>
	<g>
		<path fill="#0000FF" d="M17.308,17.076v3.237c0,0.994-0.809,1.803-1.803,1.803H4.688c-0.994,0-1.803-0.809-1.803-1.803V9.495
			c0-0.994,0.809-1.803,1.803-1.803h3.297l2.886-2.885H4.688C2.098,4.808,0,6.906,0,9.495v10.817C0,22.902,2.098,25,4.688,25h10.817
			c2.589,0,4.688-2.098,4.688-4.688V14.19L17.308,17.076z"/>
		<g>
			<path fill="#0000FF" d="M21.712,0h-9.864c-1.813,0.002-1.688,0.49-0.731,1.446l3.096,3.096L8.906,9.849
				c-1.101,1.1-1.1,2.883,0,3.982l2.317,2.318c1.1,1.097,2.881,1.098,3.981-0.001l5.308-5.308l3.038,3.038
				c1.059,1.058,1.449,1.086,1.449-0.728L25,3.288C24.999-0.017,25.023-0.001,21.712,0z"/>
		</g>
	</g>
</g>
</svg>
