<?xml version="1.0" encoding="utf-8"?>
<!-- Generator: Adobe Illustrator 17.0.0, SVG Export Plug-In . SVG Version: 6.00 Build 0)  -->
<!DOCTYPE svg PUBLIC "-//W3C//DTD SVG 1.1//EN" "http://www.w3.org/Graphics/SVG/1.1/DTD/svg11.dtd">
<svg version="1.1" id="Layer_1" xmlns="http://www.w3.org/2000/svg" xmlns:xlink="http://www.w3.org/1999/xlink" x="0px" y="0px"
	 width="246.966px" height="73.767px" viewBox="0 0 246.966 73.767" enable-background="new 0 0 246.966 73.767"
	 xml:space="preserve">
<g>
	<path fill="#FFFFFF" d="M15.129,32.173H0v-3.552c0-4.098,0.472-7.258,1.417-9.48c0.944-2.222,2.84-4.185,5.688-5.888
		c2.847-1.703,6.546-2.555,11.097-2.555c5.455,0,9.566,0.965,12.334,2.894c2.768,1.93,4.431,4.298,4.99,7.105
		c0.559,2.808,0.838,8.589,0.838,17.344v26.585H20.677v-4.72c-0.985,1.893-2.255,3.312-3.812,4.259
		c-1.557,0.946-3.413,1.419-5.568,1.419c-2.821,0-5.409-0.792-7.764-2.375C1.178,61.625,0,58.159,0,52.81v-4.351
		c0-3.965,0.625-6.666,1.876-8.103c1.25-1.437,4.351-3.113,9.3-5.029c5.295-2.076,8.129-3.473,8.502-4.191
		c0.373-0.719,0.559-2.182,0.559-4.391c0-2.767-0.207-4.57-0.619-5.409c-0.413-0.838-1.098-1.257-2.056-1.257
		c-1.091,0-1.77,0.353-2.036,1.058c-0.266,0.706-0.399,2.535-0.399,5.489V32.173z M20.238,39.438
		c-2.582,1.89-4.079,3.473-4.491,4.75c-0.413,1.277-0.619,3.113-0.619,5.509c0,2.741,0.18,4.51,0.539,5.309
		c0.359,0.798,1.071,1.198,2.136,1.198c1.011,0,1.669-0.312,1.976-0.938c0.306-0.625,0.459-2.269,0.459-4.93V39.438z"/>
	<path fill="#FFFFFF" d="M78.557,11.656v40.795c0,5.509-0.126,9.068-0.379,10.678c-0.253,1.61-1.151,3.313-2.694,5.109
		c-1.544,1.796-3.692,3.167-6.447,4.112c-2.754,0.944-6.221,1.417-10.398,1.417c-5.136,0-9.261-0.872-12.374-2.615
		c-3.114-1.743-4.724-5.169-4.83-10.278h15.647c0,2.342,0.852,3.513,2.555,3.513c1.224,0,2.036-0.359,2.435-1.079
		c0.399-0.719,0.599-2.224,0.599-4.515v-3.996c-1.384,1.254-2.841,2.202-4.371,2.842s-3.133,0.96-4.81,0.96
		c-2.901,0-5.289-0.585-7.166-1.756c-1.876-1.171-3.16-2.708-3.852-4.61c-0.692-1.902-1.038-4.611-1.038-8.124v-19.24
		c0-5.03,0.904-8.648,2.714-10.857c1.81-2.208,4.563-3.313,8.263-3.313c2.022,0,3.865,0.414,5.529,1.24
		c1.663,0.827,3.146,2.067,4.451,3.72l1.157-4.001H78.557z M62.391,25.707c0-2.421-0.14-3.965-0.419-4.63
		c-0.279-0.665-0.898-0.998-1.856-0.998c-0.932,0-1.59,0.379-1.976,1.138s-0.579,2.255-0.579,4.491v17.803
		c0,2.369,0.146,3.906,0.439,4.61c0.292,0.706,0.904,1.058,1.836,1.058c1.064,0,1.756-0.425,2.076-1.277
		c0.319-0.852,0.479-2.781,0.479-5.788V25.707z"/>
	<path fill="#FFFFFF" d="M120.829,39.079H99.952v11.456c0,2.395,0.173,3.939,0.519,4.63c0.345,0.692,1.011,1.038,1.996,1.038
		c1.224,0,2.042-0.459,2.455-1.377c0.412-0.918,0.619-2.694,0.619-5.329v-6.986h15.288v3.912c0,3.273-0.207,5.788-0.619,7.544
		c-0.413,1.756-1.377,3.632-2.894,5.628c-1.517,1.996-3.439,3.493-5.768,4.49c-2.329,0.998-5.249,1.497-8.762,1.497
		c-3.407,0-6.414-0.493-9.021-1.477c-2.608-0.984-4.637-2.335-6.087-4.051c-1.451-1.717-2.455-3.606-3.014-5.668
		c-0.559-2.062-0.838-5.062-0.838-9.001V29.938c0-4.63,0.625-8.283,1.876-10.957c1.25-2.674,3.299-4.723,6.147-6.147
		c2.847-1.423,6.12-2.135,9.819-2.135c4.524,0,8.256,0.858,11.197,2.575c2.94,1.716,5.003,3.992,6.187,6.826
		s1.776,6.819,1.776,11.955V39.079z M104.662,30.457v-3.872c0-2.74-0.146-4.511-0.439-5.309c-0.293-0.799-0.892-1.198-1.796-1.198
		c-1.117,0-1.81,0.339-2.075,1.018c-0.267,0.678-0.399,2.508-0.399,5.488v3.872H104.662z"/>
	<path fill="#FFFFFF" d="M142.503,11.656l-0.279,4.88c1.172-1.946,2.602-3.406,4.291-4.378c1.689-0.973,3.639-1.459,5.849-1.459
		c2.767,0,5.029,0.652,6.786,1.956c1.756,1.304,2.887,2.947,3.393,4.93c0.505,1.982,0.758,5.289,0.758,9.919v37.123h-16.126V27.942
		c0-3.646-0.12-5.868-0.359-6.666c-0.239-0.799-0.905-1.198-1.995-1.198c-1.145,0-1.863,0.459-2.156,1.377
		c-0.293,0.918-0.439,3.373-0.439,7.365v35.806h-16.126v-52.97H142.503z"/>
	<path fill="#FFFFFF" d="M205.533,0v64.625h-16.127v-3.842c-1.543,1.6-3.166,2.8-4.869,3.6c-1.703,0.8-3.486,1.2-5.35,1.2
		c-2.501,0-4.67-0.659-6.506-1.976c-1.836-1.317-3.014-2.84-3.533-4.57c-0.519-1.729-0.777-4.55-0.777-8.462V25.786
		c0-4.071,0.259-6.958,0.777-8.662c0.52-1.703,1.71-3.2,3.573-4.491c1.862-1.291,4.085-1.936,6.666-1.936
		c1.996,0,3.825,0.36,5.489,1.08c1.662,0.72,3.173,1.801,4.529,3.241V0H205.533z M189.406,24.988c0-1.942-0.166-3.246-0.498-3.912
		c-0.334-0.665-0.992-0.998-1.977-0.998c-0.957,0-1.604,0.299-1.936,0.898c-0.333,0.599-0.499,1.936-0.499,4.012v25.946
		c0,2.155,0.159,3.572,0.479,4.251c0.318,0.679,0.931,1.018,1.836,1.018c1.037,0,1.729-0.379,2.075-1.138s0.519-2.615,0.519-5.568
		V24.988z"/>
	<path fill="#FFFFFF" d="M225.731,32.173h-15.129v-3.552c0-4.098,0.472-7.258,1.417-9.48c0.945-2.222,2.841-4.185,5.688-5.888
		c2.847-1.703,6.546-2.555,11.097-2.555c5.455,0,9.566,0.965,12.334,2.894c2.768,1.93,4.432,4.298,4.99,7.105
		c0.559,2.808,0.838,8.589,0.838,17.344v26.585h-15.688v-4.72c-0.984,1.893-2.255,3.312-3.812,4.259
		c-1.557,0.946-3.413,1.419-5.568,1.419c-2.821,0-5.409-0.792-7.765-2.375c-2.354-1.583-3.532-5.05-3.532-10.398v-4.351
		c0-3.965,0.625-6.666,1.876-8.103s4.352-3.113,9.301-5.029c5.295-2.076,8.129-3.473,8.502-4.191c0.373-0.719,0.56-2.182,0.56-4.391
		c0-2.767-0.206-4.57-0.618-5.409c-0.414-0.838-1.099-1.257-2.057-1.257c-1.092,0-1.77,0.353-2.035,1.058
		c-0.267,0.706-0.399,2.535-0.399,5.489V32.173z M230.84,39.438c-2.581,1.89-4.079,3.473-4.491,4.75s-0.618,3.113-0.618,5.509
		c0,2.741,0.18,4.51,0.538,5.309c0.359,0.798,1.072,1.198,2.137,1.198c1.011,0,1.669-0.312,1.976-0.938
		c0.306-0.625,0.459-2.269,0.459-4.93V39.438z"/>
</g>
</svg>
