<?xml version="1.0" encoding="utf-8"?>
<!-- Generator: Adobe Illustrator 16.0.0, SVG Export Plug-In . SVG Version: 6.00 Build 0)  -->
<!DOCTYPE svg PUBLIC "-//W3C//DTD SVG 1.1//EN" "http://www.w3.org/Graphics/SVG/1.1/DTD/svg11.dtd">
<svg version="1.1" id="Layer_1" xmlns="http://www.w3.org/2000/svg" xmlns:xlink="http://www.w3.org/1999/xlink" x="0px" y="0px"
	 width="34.118px" height="15.294px" viewBox="0 0 34.118 15.294" enable-background="new 0 0 34.118 15.294" xml:space="preserve">
<g>
	<g>
		<path fill="#FFFFFF" d="M31.559,12.647h-29v-10h29V12.647z M3.559,11.647h27v-8h-27V11.647z"/>
	</g>
	<g>
		<path fill="#FFFFFF" d="M8.369,7.314V6.096h0.679v1.218L10.1,6.708l0.339,0.581L9.383,7.9l1.056,0.609L10.1,9.093L9.043,8.487
			v1.217H8.369V8.487L7.315,9.093L6.976,8.509L8.032,7.9L6.976,7.289l0.339-0.581L8.369,7.314z"/>
		<path fill="#FFFFFF" d="M13.868,7.314V6.096h0.68v1.218L15.6,6.708l0.339,0.581L14.883,7.9l1.056,0.609L15.6,9.093l-1.057-0.606
			v1.217h-0.676V8.487l-1.053,0.606l-0.339-0.583L13.532,7.9l-1.056-0.611l0.339-0.581L13.868,7.314z"/>
		<path fill="#FFFFFF" d="M19.368,7.314V6.096h0.679v1.218L21.1,6.708l0.339,0.581L20.383,7.9l1.056,0.609L21.1,9.093l-1.057-0.606
			v1.217h-0.676V8.487l-1.053,0.606l-0.339-0.583L19.032,7.9l-1.056-0.611l0.339-0.581L19.368,7.314z"/>
		<path fill="#FFFFFF" d="M24.868,7.314V6.096h0.679v1.218L26.6,6.708l0.339,0.581L25.883,7.9l1.056,0.609L26.6,9.093l-1.057-0.606
			v1.217h-0.676V8.487l-1.053,0.606l-0.339-0.583L24.532,7.9l-1.056-0.611l0.339-0.581L24.868,7.314z"/>
	</g>
</g>
</svg>
