<?xml version="1.0" encoding="utf-8"?>
<!-- Generator: Adobe Illustrator 17.0.0, SVG Export Plug-In . SVG Version: 6.00 Build 0)  -->
<!DOCTYPE svg PUBLIC "-//W3C//DTD SVG 1.1//EN" "http://www.w3.org/Graphics/SVG/1.1/DTD/svg11.dtd">
<svg version="1.1" id="Camada_1" xmlns="http://www.w3.org/2000/svg" xmlns:xlink="http://www.w3.org/1999/xlink" x="0px" y="0px"
	 width="1148px" height="1200px" viewBox="422.5 0 1148 1200" enable-background="new 422.5 0 1148 1200" xml:space="preserve">
<symbol  id="New_Symbol_9" viewBox="-98.5 -102.5 197 203.5">
	<line fill="none" stroke="#010101" stroke-width="7" stroke-miterlimit="10" x1="-35" y1="101" x2="-35" y2="72"/>
	<line fill="none" stroke="#010101" stroke-width="7" stroke-miterlimit="10" x1="35" y1="101" x2="35" y2="72"/>
	<polyline fill="none" stroke="#010101" stroke-width="7" stroke-miterlimit="10" points="36,85 95,85 95,-99 -95,-99 -95,32 	"/>
	<line fill="none" stroke="#010101" stroke-width="7" stroke-miterlimit="10" x1="-34" y1="85" x2="21" y2="85"/>
	<polyline fill="none" stroke="#010101" stroke-width="7" stroke-miterlimit="10" points="96,46 -95,46 -95,85 -49,85 	"/>
	<line fill="none" stroke="#010101" stroke-width="7" stroke-miterlimit="10" x1="-38.6" y1="18.8" x2="-56.3" y2="1.1"/>
	<line fill="none" stroke="#010101" stroke-width="7" stroke-miterlimit="10" x1="6.3" y1="18.8" x2="-11.4" y2="1.1"/>
	<line fill="none" stroke="#010101" stroke-width="7" stroke-miterlimit="10" x1="51.2" y1="18.8" x2="33.5" y2="1.1"/>
	<line fill="none" stroke="#010101" stroke-width="7" stroke-miterlimit="10" x1="-38.6" y1="-41.1" x2="-56.3" y2="-58.8"/>
	<line fill="none" stroke="#010101" stroke-width="7" stroke-miterlimit="10" x1="6.3" y1="-41.1" x2="-11.4" y2="-58.8"/>
	<line fill="none" stroke="#010101" stroke-width="7" stroke-miterlimit="10" x1="51.2" y1="-41.1" x2="33.5" y2="-58.8"/>
	<polygon display="none" fill="none" points="-97,101 97,101 97,-101 -97,-101 	"/>
</symbol>
<use xlink:href="#New_Symbol_9"  width="197" height="203.5" id="XMLID_1_" x="-98.5" y="-102.5" transform="matrix(5.7693 0 0 -5.7693 998.8126 604.6899)" overflow="visible"/>
</svg>
