<?xml version="1.0" encoding="utf-8"?>
<!-- Generator: Adobe Illustrator 17.0.0, SVG Export Plug-In . SVG Version: 6.00 Build 0)  -->
<!DOCTYPE svg PUBLIC "-//W3C//DTD SVG 1.1//EN" "http://www.w3.org/Graphics/SVG/1.1/DTD/svg11.dtd">
<svg version="1.1" id="Capa_1" xmlns="http://www.w3.org/2000/svg" xmlns:xlink="http://www.w3.org/1999/xlink" x="0px" y="0px"
	 width="1133.943px" height="1135.443px" viewBox="410.12 38.618 1133.943 1135.443"
	 enable-background="new 410.12 38.618 1133.943 1135.443" xml:space="preserve">
<g>
	<g>
		<path fill="#FFFFFF" stroke="#FFFFFF" stroke-width="35" stroke-miterlimit="10" d="M977.987,1139.387
			c-294.789,0-534.003-239.214-534.003-534.003S683.198,71.38,977.987,71.38c294.789,0,534.003,239.214,534.003,534.003
			S1272.776,1139.387,977.987,1139.387z M977.987,107.625c-275.459,0-497.759,222.3-497.759,497.759s222.3,497.759,497.759,497.759
			s497.759-222.3,497.759-497.759S1253.446,107.625,977.987,107.625z"/>
		<g>
			<path fill="#FFFFFF" stroke="#FFFFFF" stroke-width="44" stroke-miterlimit="10" d="M1202.703,622.298H753.27
				c-9.665,0-19.33-7.249-19.33-19.33c0-12.082,7.249-19.33,19.33-19.33h449.433c9.665,0,19.33,7.249,19.33,19.33
				C1222.034,615.049,1212.369,622.298,1202.703,622.298z"/>
		</g>
		<g>
			<path fill="#FFFFFF" stroke="#FFFFFF" stroke-width="44" stroke-miterlimit="10" d="M977.987,847.014
				c-9.665,0-19.33-7.249-19.33-19.33V378.251c0-9.665,7.249-19.33,19.33-19.33c12.082,0,19.33,7.249,19.33,19.33v449.433
				C997.317,839.765,987.652,847.014,977.987,847.014z"/>
		</g>
	</g>
</g>
</svg>
