<?xml version="1.0" encoding="utf-8"?>
<!-- Generator: Adobe Illustrator 17.0.0, SVG Export Plug-In . SVG Version: 6.00 Build 0)  -->
<!DOCTYPE svg PUBLIC "-//W3C//DTD SVG 1.1//EN" "http://www.w3.org/Graphics/SVG/1.1/DTD/svg11.dtd">
<svg version="1.1" id="Camada_1" xmlns="http://www.w3.org/2000/svg" xmlns:xlink="http://www.w3.org/1999/xlink" x="0px" y="0px"
	 width="1484.926px" height="1168.442px" viewBox="258.628 16.12 1484.926 1168.442"
	 enable-background="new 258.628 16.12 1484.926 1168.442" xml:space="preserve">
<symbol  id="New_Symbol_14" viewBox="-117.711 -92.156 235.689 184.313">
	<g>
		<path fill="#FFFFFF" stroke="#FFFFFF" stroke-width="3" stroke-miterlimit="10" d="M89.8-76.756c0.3,0.8,0.5,1.7,0.5,2.6v79.4
			c0,3.8-3.1,6.9-6.9,6.9H16.2v39.2l-1.7,0.4c-1.2,0.3-5.4,1.2-9.9,1.9c0,0.5,0,1.1,0.1,1.8c0.3-0.1,0.7-0.2,1-0.3
			c0.5-0.1,1-0.1,1.5-0.1c2.7,0,5.7,1.3,7.4,3.2c2.9,3.8,1.3,8.9,0.4,11.6c-2.2,6.5-7.2,15.6-12.6,20.3c-0.6,0.5-1.6,0.7-2.3,0.3
			c-0.8-0.4-1.3-1.1-1.3-2c0-2.6-0.3-5.2-0.9-8.1c-0.5-2.2-1.5-3.5-2.6-5.1c-0.7-0.9-1.4-2-2.2-3.3c-3.5-6.9,0.7-10.9,3.8-13.8
			c1.1-1.1,2.3-2.1,3.1-3.3c0.1-0.1,0.2-0.2,0.3-0.3c0-0.1,0-0.2,0-0.3c-2,0.2-3.6,0.3-5,0.3c-2.2,0-4.9-0.3-5.8-2.3
			c-0.3-0.7-0.6-2.2,0.9-3.9c0.5-1.1,0.8-7.6-0.3-32.3c-0.1-1.7-0.1-3-0.2-3.9h-69.8c-3.8,0-6.9-3.1-6.9-6.9v-79.4
			c0-0.9,0.2-1.7,0.5-2.6H-115l8.4-13.4l0.3-0.5h211l10.3,13.9H89.8L89.8-76.756L89.8-76.756z M5.9,60.944
			c1.2,5.3,2.5,10.8,0.1,14.2l-0.6,0.8l-3.6-2.5l0.6-0.8c1.3-1.9,0.1-7-0.8-10.7l-0.1-0.3c-0.1-0.5-0.2-1.1-0.4-1.6
			c-0.4,0.4-0.8,0.8-1.2,1.2c-3.1,2.9-5,4.7-3,8.6c0.6,1,1.2,1.9,1.9,2.9c1.3,1.9,2.6,3.6,3.3,6.7c0.3,1.4,0.5,2.6,0.6,3.9
			c3.7-4.7,6.7-10.8,8.1-14.9c0.9-2.7,1.7-5.7,0.4-7.4c-0.9-1.1-3.1-1.9-4.7-1.6c-0.7,0.1-0.8,0.4-0.9,0.6c0,0,0,0,0,0.1L5.9,60.944
			z M3.5,47.544l1.1,1.7c2.9-0.5,5.6-1,7.2-1.4v-34.9H-5.7l0.1,3c1.1,22.8,1.1,31.4-0.1,34.3c1.5,0.1,3.9,0,6.9-0.5
			c0.4-0.7,0.9-1.2,1.5-1.7L3.5,47.544z M-51-31.756c1.4-0.2,2.8-0.3,4.1-0.3c16.9,0,24.6,13.5,29.9,26.9c4-1.5,7.4-5,11-8.8
			c4.8-5.1,9.9-10.3,17.4-12.2c1.8-0.4,3.4-0.6,5-0.6c10.5,0,13.5,9.5,15.7,16.5c0.9,3,2,6.3,3.1,6.9c1.5,0,5.7-6.1,7.7-9
			c5.3-7.5,11.8-16.9,19.9-18.3c5-1.2,9.7-0.4,13.9,2.3c3.6,2.4,6.7,6.1,9.1,11v-56.9c0-1.4-1.1-2.6-2.6-2.6H-79.9
			c-1.4,0-2.6,1.1-2.6,2.6v67.6c3.2-2.5,5.9-5.7,8.8-9.1C-67.9-22.556-61.9-29.656-51-31.756z M74.4-24.656
			c-3.2-2.1-6.6-2.7-10.6-1.7c-6.5,1.1-12.4,9.6-17.2,16.5c-4.2,6.1-7.6,10.9-11.3,10.9c-0.6,0-1.3-0.1-1.9-0.4
			c-2.9-1.4-4.1-5.2-5.4-9.6c-2.1-6.6-4.2-13.4-11.6-13.4c-1.2,0-2.5,0.2-3.8,0.5c-6.3,1.6-10.9,6.4-15.3,11
			c-4.6,4.8-8.9,9.3-15,10.5l-1.9,0.4l-0.7-1.7c-5.1-13.5-11.9-26-26.6-26c-1.1,0-2.2,0.1-3.4,0.2c-9.2,1.9-14.7,8.4-20,14.7
			c-3.4,4-7.2,8.6-12.1,11.6v6.5c0,1.4,1.1,2.6,2.6,2.6h70.7l0.3-0.3h0.9c0.4,0,0.7,0.1,1,0.2h90.3c1.4,0,2.6-1.1,2.6-2.6v-8.6
			C84.6-10.856,80.8-20.456,74.4-24.656z M-103.9-86.256l-3.2,5.1h213.4l-3.9-5.1H-103.9z"/>
	</g>
</symbol>
<use xlink:href="#New_Symbol_14"  width="235.689" height="184.313" id="XMLID_1_" x="-117.711" y="-92.156" transform="matrix(6.1855 0 0 -6.1855 999.9279 603.4195)" overflow="visible"/>
</svg>
