<?xml version="1.0" encoding="utf-8"?>
<!-- Generator: Adobe Illustrator 19.0.0, SVG Export Plug-In . SVG Version: 6.00 Build 0)  -->
<svg version="1.1" id="Capa_1" xmlns="http://www.w3.org/2000/svg" xmlns:xlink="http://www.w3.org/1999/xlink" x="0px" y="0px"
	 viewBox="1 89.5 614.5 614.5" style="enable-background:new 1 89.5 614.5 614.5;" xml:space="preserve">
<style type="text/css">
	.st0{fill:#FFFFFF;}
</style>
<g>
	<path class="st0" d="M3.5,299.2c0-5.3,4.3-9.6,9.6-9.6s9.6,4.3,9.6,9.6V645c0,10.9,4.5,20.9,11.7,28.1c7.2,7.2,17.2,11.7,28.1,11.7
		h494.1c10.9,0,20.9-4.5,28.1-11.7c7.2-7.2,11.7-17.2,11.7-28.1V299.2c0-5.3,4.3-9.6,9.6-9.6c5.3,0,9.6,4.3,9.6,9.6V645
		c0,16.2-6.6,31-17.3,41.6c-10.7,10.7-25.4,17.3-41.6,17.3H62.5c-16.2,0-31-6.6-41.6-17.3C10.2,676,3.5,661.3,3.5,645V299.2z"/>
	<path class="st0" d="M462.5,202.2c0,5.3-4.3,9.6-9.6,9.6c-5.3,0-9.6-4.3-9.6-9.6V99.1c0-5.3,4.3-9.6,9.5-9.6c5.3,0,9.6,4.3,9.6,9.6
		L462.5,202.2L462.5,202.2z"/>
	<path class="st0" d="M175.6,202.2c0,5.3-4.3,9.6-9.6,9.6c-5.3,0-9.6-4.3-9.6-9.6V99.1c0-5.3,4.3-9.6,9.5-9.6c5.3,0,9.6,4.3,9.6,9.6
		V202.2z"/>
	<path class="st0" d="M166,137.4c5.3,0,9.6,4.3,9.6,9.6s-4.3,9.6-9.6,9.6H62.5c-10.9,0-20.8,4.5-28.1,11.8l-0.5,0.5
		c-7,7.2-11.3,17-11.3,27.6v43.9h573.7v-43.9c0-10.9-4.5-20.8-11.7-28.1l-0.5-0.5c-7.2-7-17-11.3-27.6-11.3h-65.4
		c-5.3,0-9.6-4.3-9.6-9.6c0-5.3,4.3-9.6,9.6-9.6h65.4c15.8,0,30.3,6.4,41,16.8l0.7,0.6c10.7,10.7,17.3,25.4,17.3,41.6v53.2v0.3
		c0,5.3-4.3,9.6-9.6,9.6H13.3h-0.3c-5.3,0-9.6-4.3-9.6-9.6v-53.4c0-15.8,6.4-30.3,16.8-40.9l0.6-0.7c10.7-10.7,25.4-17.4,41.6-17.4
		L166,137.4L166,137.4L166,137.4z M452.9,137.4H204.3c-5.3,0-9.6,4.3-9.6,9.6s4.3,9.6,9.6,9.6h248.6c5.3,0,9.6-4.3,9.6-9.6
		C462.5,141.6,458.2,137.4,452.9,137.4z"/>
</g>
<path class="st0" d="M419.1,509.9c26.2,0,47.4-21.2,47.4-47.4c0-26.2-21.2-47.4-47.4-47.4c-20.6,0-38.1,13.2-44.6,31.6h-86
	l100.6-58.1c8.2,6.7,18.6,10.7,30,10.7c26.2,0,47.4-21.2,47.4-47.4c0-26.2-21.2-47.4-47.4-47.4c-26.2,0-47.4,21.2-47.4,47.4
	c0,3.3,0.3,6.5,1,9.7l-133.9,77.3c-8.2-14.2-23.4-23.8-40.9-23.8c-26.2,0-47.4,21.2-47.4,47.4c0,26.2,21.2,47.4,47.4,47.4
	c17.5,0,32.8-9.6,40.9-23.8l133.9,77.3c-0.6,3.1-1,6.4-1,9.7c0,26.2,21.2,47.4,47.4,47.4c26.2,0,47.4-21.2,47.4-47.4
	c0-26.2-21.2-47.4-47.4-47.4c-11.4,0-21.8,4-30,10.7l-100.6-58.1h86C381,496.7,398.5,509.9,419.1,509.9z M419.1,446.7
	c8.7,0,15.8,7.1,15.8,15.8c0,8.7-7.1,15.8-15.8,15.8s-15.8-7.1-15.8-15.8C403.3,453.8,410.4,446.7,419.1,446.7z M419.1,336.1
	c8.7,0,15.8,7.1,15.8,15.8c0,8.7-7.1,15.8-15.8,15.8s-15.8-7.1-15.8-15.8C403.3,343.2,410.4,336.1,419.1,336.1z M197.9,478.3
	c-8.7,0-15.8-7.1-15.8-15.8c0-8.7,7.1-15.8,15.8-15.8s15.8,7.1,15.8,15.8C213.7,471.2,206.6,478.3,197.9,478.3z M419.1,557.3
	c8.7,0,15.8,7.1,15.8,15.8c0,8.7-7.1,15.8-15.8,15.8s-15.8-7.1-15.8-15.8C403.3,564.4,410.4,557.3,419.1,557.3z"/>
</svg>
