<?xml version="1.0" encoding="utf-8"?>
<!-- Generator: Adobe Illustrator 19.0.0, SVG Export Plug-In . SVG Version: 6.00 Build 0)  -->
<svg version="1.1" id="Camada_1" xmlns="http://www.w3.org/2000/svg" xmlns:xlink="http://www.w3.org/1999/xlink" x="0px" y="0px"
	 viewBox="0 0 297.5 297.5" style="enable-background:new 0 0 297.5 297.5;" xml:space="preserve">
<style type="text/css">
	.st0{fill:none;stroke:#010101;stroke-width:2;stroke-miterlimit:10;}
</style>
<symbol  id="New_Symbol_6" viewBox="-32 -32.1 64 64.2">
	<polygon class="st0" points="10,17.1 10,-28.9 -31,-28.9 -31,29.1 -2,29.1 	"/>
	<polygon class="st0" points="23,31.1 23,-21.9 27,-29.9 31,-21.9 31,31.1 	"/>
	<line class="st0" x1="-24" y1="19.1" x2="-12" y2="19.1"/>
	<line class="st0" x1="-24" y1="9.1" x2="3" y2="9.1"/>
	<line class="st0" x1="-24" y1="1.1" x2="3" y2="1.1"/>
	<line class="st0" x1="-24" y1="-6.9" x2="3" y2="-6.9"/>
	<line class="st0" x1="-24" y1="-14.9" x2="3" y2="-14.9"/>
	<polyline class="st0" points="10,17.1 -2,17.1 -2,29.1 	"/>
	<line class="st0" x1="23" y1="21.1" x2="31" y2="21.1"/>
</symbol>
<use xlink:href="#New_Symbol_6"  width="64" height="64.2" id="XMLID_9_" x="-32" y="-32.1" transform="matrix(4.3316 0 0 -4.3316 149.6606 148.7506)" style="overflow:visible;"/>
</svg>
