<?xml version="1.0" encoding="utf-8"?>
<!-- Generator: Adobe Illustrator 19.0.0, SVG Export Plug-In . SVG Version: 6.00 Build 0)  -->
<svg version="1.1" id="Capa_1" xmlns="http://www.w3.org/2000/svg" xmlns:xlink="http://www.w3.org/1999/xlink" x="0px" y="0px"
	 viewBox="-213 305.2 183.8 183.8" style="enable-background:new -213 305.2 183.8 183.8;" xml:space="preserve">
<style type="text/css">
	.st0{fill:#FFFFFF;}
</style>
<g>
	<g>
		<path class="st0" d="M-114.6,421c-3.3-0.4-6.3-2-8.4-4.6c-2.1-2.6-3.1-5.9-2.7-9.3l1.5-13.1h0v-15.5h1.8l0.8-7.2h-6.6v-11.9h-16.9
			v11.9h-8.4v2.3h-9.4v92h-4.1V355.8h-9.7V344h-9.6v-20.3h-2.4V344h-9.6v11.9h-9.7v114.7h41.2h4.1h52.5v-49.7
			C-111.8,421.1-113.2,421.2-114.6,421z M-196.1,346.4h16.9v9.5h-16.9V346.4z M-194.5,447.8h-8.9v-15.5h8.9V447.8z M-194.5,429.9
			h-8.9v-15.5h8.9V429.9z M-194.5,412h-8.9v-15.5h8.9V412z M-194.5,376.2h-8.9v-15.5h4.9h4V376.2z M-183.2,465.7h-8.9v-15.5h8.9
			V465.7z M-183.2,447.8h-8.9v-15.5h8.9V447.8z M-183.2,394.1h-8.9v-15.5h8.9V394.1z M-183.2,376.2h-8.9v-15.5h8.9V376.2z
			 M-171.9,447.8h-8.9v-15.5h8.9L-171.9,447.8L-171.9,447.8z M-171.9,429.9h-8.9v-15.5h8.9L-171.9,429.9L-171.9,429.9z M-171.9,412
			h-8.9v-15.5h8.9L-171.9,412L-171.9,412z M-171.9,394.1h-8.9v-15.5h8.9L-171.9,394.1L-171.9,394.1z M-142.8,361.9h12v8.3h-12V361.9
			z M-149.3,447.8h-8.9v-15.5h8.9V447.8z M-149.3,412h-8.9v-15.5h8.9V412z M-137.9,465.7h-8.9v-15.5h8.9V465.7z M-137.9,429.9h-8.9
			v-15.5h8.9V429.9z M-137.9,394.1h-8.9v-15.5h8.9V394.1z M-126.6,465.7h-8.9v-15.5h8.9V465.7z M-126.6,447.8h-8.9v-15.5h8.9V447.8z
			 M-126.6,429.9h-8.9v-15.5h8.9V429.9z M-126.6,412h-8.9v-15.5h8.9V412z M-115.3,447.8h-8.9v-15.5h8.9V447.8z"/>
		<path class="st0" d="M-79.5,344.1c9.8,0,17.7-11.3,17.7-21.1c0-9.8-7.9-17.7-17.7-17.7c-9.8,0-17.7,7.9-17.7,17.7
			C-97.2,332.7-89.3,344.1-79.5,344.1z"/>
		<path class="st0" d="M-36.8,418.8h-5v-4.7c2-1.4,3.2-3.8,2.9-6.3l-5.6-50.4c0-0.3-0.2-0.6-0.3-0.9c-0.1-0.5-0.2-1-0.5-1.5
			c-0.2-0.4-0.4-0.6-0.7-0.9c-0.3-0.4-0.6-0.8-1-1.2c-0.3-0.3-0.7-0.4-1-0.6c-0.4-0.2-0.7-0.5-1.1-0.6c-0.6-0.2-14.7-5.3-27.7-5.9
			l-1.8,3.6h0l4.7,36.7l-5.6,9.8l-5.6-9.8l4.7-36.7h-0.1l-1.8-3.6c-13,0.7-27.1,5.7-27.7,5.9c-0.4,0.2-0.7,0.4-1.1,0.7
			c-0.3,0.2-0.7,0.4-1,0.6c-0.4,0.3-0.7,0.8-1,1.2c-0.2,0.3-0.5,0.6-0.7,0.9c-0.2,0.5-0.4,1-0.5,1.5c-0.1,0.3-0.3,0.6-0.3,0.9
			l-5.6,50.4c-0.4,3.9,2.3,7.3,6.2,7.7c0.3,0,0.5,0,0.8,0c3.5,0,6.6-2.6,6.9-6.2l5.1-45.9c0.6-0.2,1.2-0.4,1.9-0.6v47.8l-5.6,69.3
			c-0.4,4.6,3.1,8.7,7.7,9.1c0.2,0,0.4,0,0.7,0c4.3,0,8-3.3,8.4-7.7l5-62.7c1,0.5,2.2,0.7,3.4,0.7c1.2,0,2.4-0.3,3.4-0.7l5,62.7
			c0.4,4.4,4,7.7,8.4,7.7c0.2,0,0.5,0,0.7,0c4.6-0.4,8.1-4.4,7.7-9.1l-5.6-69.3v-47.8c0.7,0.2,1.3,0.4,1.9,0.6l5.1,45.9
			c0.4,3.4,3.1,5.8,6.4,6.1v3.4h-5c-1.5,0-2.8,1.3-2.8,2.8v42.5c0,1.5,1.3,2.8,2.8,2.8h14.7c1.5,0,2.8-1.3,2.8-2.8v-42.5
			C-34,420.1-35.3,418.8-36.8,418.8z"/>
	</g>
</g>
</svg>
