<?xml version="1.0" encoding="utf-8"?>
<!-- Generator: Adobe Illustrator 19.0.0, SVG Export Plug-In . SVG Version: 6.00 Build 0)  -->
<svg version="1.1" id="Capa_1" xmlns="http://www.w3.org/2000/svg" xmlns:xlink="http://www.w3.org/1999/xlink" x="0px" y="0px"
	 viewBox="-283 374.8 44.2 44.2" style="enable-background:new -283 374.8 44.2 44.2;" xml:space="preserve">
<g>
	<g>
		<path d="M-260.9,419c-12.2,0-22.1-9.9-22.1-22.1c0-12.2,9.9-22.1,22.1-22.1c12.2,0,22.1,9.9,22.1,22.1S-248.7,419-260.9,419z
			 M-260.9,376.3c-11.4,0-20.6,9.2-20.6,20.6c0,11.4,9.2,20.6,20.6,20.6c11.4,0,20.6-9.2,20.6-20.6S-249.5,376.3-260.9,376.3z"/>
		<g>
			<path d="M-251.6,397.6h-18.6c-0.4,0-0.8-0.3-0.8-0.8s0.3-0.8,0.8-0.8h18.6c0.4,0,0.8,0.3,0.8,0.8S-251.2,397.6-251.6,397.6z"/>
		</g>
		<g>
			<path d="M-260.9,406.9c-0.4,0-0.8-0.3-0.8-0.8v-18.6c0-0.4,0.3-0.8,0.8-0.8s0.8,0.3,0.8,0.8v18.6
				C-260.1,406.6-260.5,406.9-260.9,406.9z"/>
		</g>
	</g>
</g>
</svg>
