<?xml version="1.0" encoding="utf-8"?>
<!-- Generator: Adobe Illustrator 19.0.0, SVG Export Plug-In . SVG Version: 6.00 Build 0)  -->
<svg version="1.1" id="Capa_1" xmlns="http://www.w3.org/2000/svg" xmlns:xlink="http://www.w3.org/1999/xlink" x="0px" y="0px"
	 viewBox="0 124 612 554" style="enable-background:new 0 124 612 554;" xml:space="preserve">
<style type="text/css">
	.st0{fill:#FFFFFF;stroke:#010001;stroke-width:8;stroke-linejoin:round;stroke-miterlimit:10;}
	.st1{fill:none;stroke:#010001;stroke-width:8;stroke-linejoin:round;stroke-miterlimit:10;}
	.st2{fill:#010001;}
	.st3{fill:none;stroke:#FFFFFF;stroke-width:6;stroke-miterlimit:10;}
	.st4{fill:none;stroke:#FFFFFF;stroke-width:5;stroke-miterlimit:10;}
	.st5{fill:none;stroke:#FFFFFF;stroke-width:4;stroke-miterlimit:10;}
</style>
<g>
	<polygon class="st0" points="567,403.2 567,364 544,364 544,379.3 514.9,350.1 430.6,436 448,436 448,507.8 580,460.2 580,436 
		601,436 	"/>
	<polygon class="st1" points="247,458.1 247,391 199,391 199,410.2 154,365.5 10,517 38,517 38,655.1 40.6,657.2 269,573 269,517 
		305.2,517 	"/>
	<polygon class="st0" points="455,255.5 455,166 402,166 402,203.3 337.9,139.3 151.1,329 214,329 214,593.4 461,501.5 461,329 
		527.6,329 	"/>
	<path class="st2" d="M382.7,421.2h-83.9c-4.1,0-7.4-3.3-7.4-7.4V299c0-4.1,3.3-7.4,7.4-7.4h83.9c4.1,0,7.4,3.3,7.4,7.4v114.9
		C390.1,417.9,386.8,421.2,382.7,421.2z"/>
	<line class="st3" x1="342" y1="270" x2="342" y2="435"/>
	<line class="st3" x1="286" y1="358" x2="407" y2="358"/>
	<path class="st2" d="M181,585.2h-60.4c-2.9,0-5.3-2.4-5.3-5.3v-82.7c0-2.9,2.4-5.3,5.3-5.3H181c2.9,0,5.3,2.4,5.3,5.3v82.7
		C186.3,582.8,184,585.2,181,585.2z"/>
	<line class="st4" x1="151.5" y1="477" x2="151.5" y2="595"/>
	<line class="st4" x1="113" y1="540.5" x2="199" y2="540.5"/>
	<path class="st2" d="M534.6,463.4h-33.7c-1.6,0-3-1.3-3-3v-46.2c0-1.6,1.3-3,3-3h33.7c1.6,0,3,1.3,3,3v46.2
		C537.6,462.1,536.3,463.4,534.6,463.4z"/>
	<line class="st5" x1="518" y1="403" x2="518" y2="469"/>
	<line class="st5" x1="497" y1="438" x2="546" y2="438"/>
</g>
</svg>
