<?xml version="1.0" encoding="utf-8"?>
<!-- Generator: Adobe Illustrator 19.0.0, SVG Export Plug-In . SVG Version: 6.00 Build 0)  -->
<svg version="1.1" id="Capa_1" xmlns="http://www.w3.org/2000/svg" xmlns:xlink="http://www.w3.org/1999/xlink" x="0px" y="0px"
	 viewBox="0 124 612 554" style="enable-background:new 0 124 612 554;" xml:space="preserve">
<style type="text/css">
	.st0{fill:none;stroke:#FFFFFF;stroke-width:8;stroke-linejoin:round;stroke-miterlimit:10;}
	.st1{fill:#FFFFFF;}
	.st2{fill:none;}
</style>
<g>
	<polygon class="st0" points="567,401.2 567,362 544,362 544,377.3 514.9,348.1 461.2,402.8 462.2,500.6 580,458.2 580,434 601,434 
			"/>
	<polygon class="st0" points="214,391 199,391 199,410.2 154,365.5 10,517 38,517 38,655.1 40.6,657.2 214,593.3 	"/>
	<polygon class="st0" points="455,255.5 455,166 402,166 402,203.3 337.9,139.3 151.1,329 214,329 214,593.4 461,501.5 461,403.7 
		461,329 527.6,329 	"/>
	<path class="st1" d="M382.7,421.2h-83.9c-4.1,0-7.4-3.3-7.4-7.4V299c0-4.1,3.3-7.4,7.4-7.4h83.9c4.1,0,7.4,3.3,7.4,7.4v114.9
		C390.1,417.9,386.8,421.2,382.7,421.2z"/>
	<line class="st2" x1="342" y1="292" x2="342" y2="421"/>
	<line class="st2" x1="291" y1="358" x2="390" y2="358"/>
	<path class="st1" d="M181,585.2h-60.4c-2.9,0-5.3-2.4-5.3-5.3v-82.7c0-2.9,2.4-5.3,5.3-5.3H181c2.9,0,5.3,2.4,5.3,5.3v82.7
		C186.3,582.8,184,585.2,181,585.2z"/>
	<line class="st2" x1="151" y1="490" x2="151" y2="587"/>
	<line class="st2" x1="115" y1="541" x2="188" y2="541"/>
	<path class="st1" d="M534.6,463.4h-33.7c-1.6,0-3-1.3-3-3v-46.2c0-1.6,1.3-3,3-3h33.7c1.6,0,3,1.3,3,3v46.2
		C537.6,462.1,536.3,463.4,534.6,463.4z"/>
	<line class="st2" x1="518" y1="411" x2="518" y2="465"/>
	<line class="st2" x1="497" y1="438" x2="538" y2="438"/>
</g>
</svg>
