<?xml version="1.0" encoding="utf-8"?>
<!-- Generator: Adobe Illustrator 17.0.0, SVG Export Plug-In . SVG Version: 6.00 Build 0)  -->
<!DOCTYPE svg PUBLIC "-//W3C//DTD SVG 1.1//EN" "http://www.w3.org/Graphics/SVG/1.1/DTD/svg11.dtd">
<svg version="1.1" id="Camada_1" xmlns="http://www.w3.org/2000/svg" xmlns:xlink="http://www.w3.org/1999/xlink" x="0px" y="0px"
width="1204px" height="1200px" viewBox="0 0 1204 1200" enable-background="new 0 0 1204 1200" xml:space="preserve">
<g>
	<path fill="#FFFFFF" d="M1142.162,284.574c-5.603-22.4-33.523-30.196-49.841-13.868l-132.52,132.523
		c-29.429,29.416-77.135,29.416-106.56,0l-60.802-60.804c-29.427-29.425-29.427-77.131,0-106.56l130.908-130.91
		c16.437-16.437,8.438-44.624-14.185-49.922c-30.979-7.239-63.719-9.911-97.488-7.216
		c-145.137,11.58-278.72,147.673-287.753,292.997c-3.421,55.118,7.716,107.223,29.416,153.379L90.067,892.3
		c-20.836,17.905-33.314,43.641-34.468,71.086c-1.167,27.445,9.092,54.139,28.341,73.736l78.509,79.947
		c19.435,19.799,46.271,30.561,74.004,29.67c27.735-0.897,53.824-13.353,71.95-34.351l401.271-464.92
		c44.802,19.995,94.948,30.196,147.893,26.894c146.305-9.128,282.424-143.783,293.078-289.974
		C1153.169,349.756,1150.062,316.219,1142.162,284.574z"/>
</g>
</svg>