<?xml version="1.0" encoding="utf-8"?>
<!-- Generator: Adobe Illustrator 17.0.0, SVG Export Plug-In . SVG Version: 6.00 Build 0)  -->
<!DOCTYPE svg PUBLIC "-//W3C//DTD SVG 1.1//EN" "http://www.w3.org/Graphics/SVG/1.1/DTD/svg11.dtd">
<svg version="1.1" id="Camada_1" xmlns="http://www.w3.org/2000/svg" xmlns:xlink="http://www.w3.org/1999/xlink" x="0px" y="0px"
	 width="1178px" height="1171.5px" viewBox="402.5 28.5 1178 1171.5" enable-background="new 402.5 28.5 1178 1171.5"
	 xml:space="preserve">
<symbol  id="New_Symbol_10" viewBox="-79.5 -77.1 159 154.2">
	<g>
		<path fill="#FFFFFF" stroke="#FFFFFF" stroke-width="3" stroke-miterlimit="10" d="M6.9,43.5c10.4,0,18-5.2,22.9-15.6
			c0.3,0.9,0.7,2.2,1.2,3.8c0.8,2.4,1.2,3.9,1.2,4.5c1.1,3.5,2.5,5.2,4.3,5.2c2,0,3.1-1.1,3.1-3.3c0-0.9-0.2-2.1-0.7-3.5l-1.7-4.7
			l-0.9-3.5l-10.6-34c-2-6.6-3.1-12-3.1-16.1c0-5.7,1.6-10.5,4.8-14.4S34.6-44,39.3-44c9.6,0,18.1,7.6,25.5,22.9
			c4.7,9.9,7.1,21,7.1,33.1c0,17.3-6,31.4-18,42.3C41.9,65,26.4,70.4,7.3,70.4c-22.1,0-40.8-8-56.1-24.1c-15.4-16.1-23-35.8-23-59.1
			c0-17.6,5.3-31.6,15.8-42C-45.5-65-31.3-70.2-13.5-70.2c10.9,0,20.6,2.8,29.1,8.3c1.3,0.8,2.2,1.2,2.8,1.2c0.6,0,1.3-0.2,1.9-0.7
			s0.9-1.1,0.9-1.9c0-3.2-3.6-6-10.9-8.5C3.2-74.4-5-75.6-14.2-75.6c-19.5,0-35.1,5.7-46.6,17C-72.2-47.3-78-31.9-78-12.5
			c0,24.7,8.3,45.6,24.9,62.6s37,25.5,61.1,25.5c20.6,0,37.5-6.1,50.5-18.3S78,29.2,78,9.7c0-15-4-28.6-11.9-40.8
			c-8-12.2-16.8-18.3-26.6-18.3C27.2-49.4,19.7-42,17-27.2C7.2-41.4-3.2-48.5-14.4-48.5c-7.6,0-13.8,3-18.7,9.1
			c-4.9,6.1-7.3,13.7-7.3,23c0,15,5,28.8,15.1,41.6C-15.7,37.4-5,43.5,6.9,43.5z M-21.5,20.6C-30,8.9-34.3-2.9-34.3-14.9v-0.9
			c0-7.9,2-14.4,5.9-19.6s8.9-7.8,14.9-7.8c9.8,0,18.4,6.9,25.8,20.8C15.6-16.3,19-7.5,22.5,4c2,6.8,3.1,11.7,3.1,14.9
			c0,5.5-1.9,10.1-5.6,13.7S11.5,38,5.7,38C-3.9,38.1-13,32.2-21.5,20.6z"/>
	</g>
</symbol>
<use xlink:href="#New_Symbol_10"  width="159" height="154.2" id="XMLID_1_" x="-79.5" y="-77.1" transform="matrix(6.5923 0 0 -6.5923 995.4346 615.0718)" overflow="visible"/>
</svg>
