<?xml version="1.0" encoding="utf-8"?>
<!-- Generator: Adobe Illustrator 19.0.0, SVG Export Plug-In . SVG Version: 6.00 Build 0)  -->
<svg version="1.1" id="Capa_1" xmlns="http://www.w3.org/2000/svg" xmlns:xlink="http://www.w3.org/1999/xlink" x="0px" y="0px"
	 viewBox="-54 145.3 502.7 502.7" style="enable-background:new -54 145.3 502.7 502.7;" xml:space="preserve">
<style type="text/css">
	.st0{fill:#FFFFFF;}
</style>
<g>
	<g>
		<path class="st0" d="M340.4,293.5c1.4,0,2.8,0.3,4.2,0.3l0,0c39.1,0,71.7-30.9,73.9-70c2.3-40.8-28.9-75.9-69.7-78.5
			c-41.1-2.3-75.9,29.2-78.2,69.7c-0.6,9.9,0.9,19.3,3.7,28.1L98.1,348.2c-13-11.1-29.8-17.9-48.2-17.9c-40.8,0-73.9,33.1-73.9,73.9
			s33.2,74,73.9,74c17.3,0,33.4-6,45.9-16.1l172,93.5c-4.5,17.6-2.3,36,6.2,52.1c12.8,24.7,38,40.2,65.7,40.2l0,0
			c11.9,0,23.5-3.1,34-8.8c36.3-18.7,50.4-64,31.7-100c-12.8-24.6-38-39.9-65.7-39.9c-11.9,0-23.5,2.8-34,8.5
			c-8.5,4.5-16.1,10.5-22.1,17.6l-166.3-90.4c4.2-9.4,6.8-19.8,6.8-30.9c0-10.2-2-19.8-5.7-28.6L292.8,272
			C305,284.5,321.7,292.7,340.4,293.5z M304.7,217.3c1.1-21.2,18.7-37.7,40-37.7c0.9,0,1.7,0,2.3,0c22.1,1.4,38.8,20.1,37.7,42.2
			c-1.1,21.8-20.1,38.8-42.2,37.7C320.3,258.1,303.3,239.2,304.7,217.3z M10,404.3c0-22.1,17.8-40,40-40s39.9,17.9,39.9,40
			c0,22.1-17.8,40-39.9,40S10,426.4,10,404.3z M321.4,538.1c5.7-3.1,11.9-4.5,18.4-4.5c15,0,28.6,8.2,35.7,21.5
			c10.2,19.5,2.5,43.9-17,53.8c-5.7,3.1-11.9,4.5-18.4,4.5l0,0c-15,0-28.6-8.2-35.7-21.5c-4.8-9.4-6-20.4-2.5-30.6
			C304.7,551.4,311.8,542.9,321.4,538.1z"/>
	</g>
</g>
</svg>
