<?xml version="1.0" encoding="utf-8"?>
<!-- Generator: Adobe Illustrator 19.0.0, SVG Export Plug-In . SVG Version: 6.00 Build 0)  -->
<svg version="1.1" id="Capa_1" xmlns="http://www.w3.org/2000/svg" xmlns:xlink="http://www.w3.org/1999/xlink" x="0px" y="0px"
	 viewBox="-248 340.8 113.2 113.2" style="enable-background:new -248 340.8 113.2 113.2;" xml:space="preserve">
<style type="text/css">
	.st0{fill:#FFFFFF;}
</style>
<g>
	<g>
		<g>
			<path class="st0" d="M-166.5,438.5c-0.6,0-1.1-0.1-1.6-0.3c-6.8,4.5-14.9,7.1-23.6,7.1c-8.6,0-16.7-2.6-23.4-7
				c-0.4,0.1-0.8,0.1-1.2,0.1h-4.3c8,6.4,18,10.2,29,10.2c11,0,21-3.8,29-10.2L-166.5,438.5L-166.5,438.5z"/>
			<path class="st0" d="M-174.5,362.2l1,1.2c14.6,6.9,24.8,21.7,24.8,38.9c0,2.1-0.2,4.1-0.5,6.1h3.4c0.3-2,0.4-4,0.4-6.1
				c0-19.5-12.1-36.2-29.2-43.1V362.2L-174.5,362.2z"/>
			<path class="st0" d="M-234.3,408.4c-0.3-2-0.5-4-0.5-6.1c0-17.2,10.2-32.1,24.8-38.9l1-1.2v-2.9c-17.1,6.9-29.2,23.6-29.2,43.1
				c0,2.1,0.2,4.1,0.4,6.1L-234.3,408.4L-234.3,408.4z"/>
		</g>
		<g>
			<path class="st0" d="M-178,363.5v-1.2v-7.5v-7.5c0-0.7-0.6-1.2-1.2-1.2h-24.8c-0.7,0-1.2,0.6-1.2,1.2v7.5v7.5v1.2l-3.1,3.7
				c0,1,0.8,1.9,1.9,1.9h29.8c1,0,1.9-0.8,1.9-1.9L-178,363.5z M-189.2,368.4h-5c-0.2,0-0.3-0.1-0.3-0.3c0-0.2,0.1-0.3,0.3-0.3h5
				c0.2,0,0.3,0.1,0.3,0.3C-188.9,368.3-189,368.4-189.2,368.4z M-196.8,367.2l0.9-1.1h8.3l1,1.1H-196.8z M-179.8,361.3
				c0,0.6-0.5,1.1-1.1,1.1h-21.7c-0.6,0-1.1-0.5-1.1-1.1v-13c0-0.6,0.5-1.1,1.1-1.1h21.7c0.6,0,1.1,0.5,1.1,1.1V361.3z"/>
			<path class="st0" d="M-137.9,429.3v-1.3v-7.4v-7.5c0-0.7-0.6-1.2-1.2-1.2H-164c-0.7,0-1.2,0.6-1.2,1.3v7.5v7.4v1.2l-3.1,3.7
				c0,1,0.8,1.9,1.9,1.9l29.8,0c1,0,1.9-0.8,1.9-1.9L-137.9,429.3z M-149.1,434.3l-5,0c-0.2,0-0.3-0.1-0.3-0.3s0.1-0.3,0.3-0.3h5
				c0.2,0,0.3,0.1,0.3,0.3C-148.8,434.2-148.9,434.3-149.1,434.3z M-156.7,433.1l0.9-1.1h8.3l1,1.1L-156.7,433.1z M-139.6,427.1
				c0,0.6-0.5,1.1-1.1,1.1h-21.7c-0.6,0-1.1-0.5-1.1-1.1v-13c0-0.6,0.5-1.1,1.1-1.1h21.7c0.6,0,1.1,0.5,1.1,1.1V427.1z"/>
			<path class="st0" d="M-217.6,429.3v-1.2l0-7.5v-7.5c0-0.7-0.6-1.2-1.2-1.3h-24.8c-0.7,0-1.2,0.6-1.2,1.2v7.5v7.5v1.2l-3.1,3.7
				c0,1,0.8,1.9,1.9,1.9h29.8c1,0,1.9-0.8,1.9-1.9L-217.6,429.3z M-228.8,434.3h-5c-0.2,0-0.3-0.1-0.3-0.3c0-0.2,0.1-0.3,0.3-0.3h5
				c0.2,0,0.3,0.1,0.3,0.3C-228.4,434.2-228.6,434.3-228.8,434.3z M-236.4,433.1l0.9-1.1l8.3,0l0.9,1.1L-236.4,433.1z M-219.3,427.1
				c0,0.6-0.5,1.1-1.1,1.1h-21.7c-0.6,0-1.1-0.5-1.1-1.1v-13c0-0.6,0.5-1.1,1.1-1.1l21.7,0c0.6,0,1.1,0.5,1.1,1.1V427.1z"/>
		</g>
	</g>
</g>
</svg>
