<?xml version="1.0" encoding="utf-8"?>
<!-- Generator: Adobe Illustrator 17.0.0, SVG Export Plug-In . SVG Version: 6.00 Build 0)  -->
<!DOCTYPE svg PUBLIC "-//W3C//DTD SVG 1.1//EN" "http://www.w3.org/Graphics/SVG/1.1/DTD/svg11.dtd">
<svg version="1.1" id="Capa_1" xmlns="http://www.w3.org/2000/svg" xmlns:xlink="http://www.w3.org/1999/xlink" x="0px" y="0px"
	 width="500px" height="560px" viewBox="0 0 500 560" enable-background="new 0 0 500 560" xml:space="preserve">
<g>
	<path fill="#FFFFFF" d="M250,530C112.147,530,0,417.853,0,280S112.147,30,250,30c46.699,0,92.248,12.96,131.733,37.485
		c6.901,4.282,9.015,13.35,4.733,20.252c-4.29,6.901-13.358,9.031-20.252,4.733C331.395,70.839,291.207,59.413,250,59.413
		c-121.633,0-220.589,98.958-220.589,220.588S128.367,500.589,250,500.589c121.63,0,220.589-98.958,220.589-220.589
		c0-24.448-3.968-48.453-11.795-71.346c-2.627-7.683,1.478-16.046,9.161-18.673c7.698-2.612,16.046,1.478,18.674,9.161
		c8.87,25.965,13.373,53.171,13.373,80.86C500,417.853,387.853,530,250,530z"/>
	<path fill="#FFFFFF" d="M250,364.819c-3.73,0-7.338-1.417-10.068-3.991L122.285,250.312c-5.92-5.56-6.212-14.867-0.651-20.787
		c5.561-5.913,14.867-6.219,20.787-0.643l106.331,99.885L441.965,99.401c5.224-6.212,14.506-7.008,20.718-1.77
		c6.212,5.232,7.008,14.506,1.77,20.718L261.244,359.588c-2.597,3.086-6.357,4.971-10.386,5.209
		C250.575,364.811,250.284,364.819,250,364.819z"/>
</g>
</svg>
