<?xml version="1.0" encoding="utf-8"?>
<!-- Generator: Adobe Illustrator 19.0.0, SVG Export Plug-In . SVG Version: 6.00 Build 0)  -->
<svg version="1.1" id="Camada_1" xmlns="http://www.w3.org/2000/svg" xmlns:xlink="http://www.w3.org/1999/xlink" x="0px" y="0px"
	 viewBox="0 0 120.6 124.3" style="enable-background:new 0 0 120.6 124.3;" xml:space="preserve">
<style type="text/css">
	.st0{fill:none;stroke:#FFFFFF;stroke-width:4;stroke-miterlimit:10;}
</style>
<symbol  id="New_Symbol_13" viewBox="-60.2 -112 120.4 224">
	<polygon class="st0" points="-46.8,54.4 46.8,54.4 0.7,15.3 	"/>
	<polyline class="st0" points="-9,-7.9 -53.8,-47.3 -53.8,-102 53.8,-102 53.8,-47.3 -53.8,47.3 -53.8,102 53.8,102 53.8,47.3 
		9,7.9 	"/>
	<polyline class="st0" points="-53.8,-59.7 -0.8,-28.9 53.8,-59.7 	"/>
	<polygon class="st0" points="58.2,110 -58.2,110 -58.2,102 58.2,102 	"/>
	<polygon class="st0" points="58.2,-102 -58.2,-102 -58.2,-110 58.2,-110 	"/>
</symbol>
<use xlink:href="#New_Symbol_13"  width="120.4" height="224" id="XMLID_1_" x="-60.2" y="-112" transform="matrix(0.5368 0 0 -0.5368 60.1834 62.3412)" style="overflow:visible;"/>
</svg>
