<?xml version="1.0" encoding="utf-8"?>
<!-- Generator: Adobe Illustrator 19.0.0, SVG Export Plug-In . SVG Version: 6.00 Build 0)  -->
<svg version="1.1" id="Capa_1" xmlns="http://www.w3.org/2000/svg" xmlns:xlink="http://www.w3.org/1999/xlink" x="0px" y="0px"
	 viewBox="-66 158.1 477.9 477.9" style="enable-background:new -66 158.1 477.9 477.9;" xml:space="preserve">
<style type="text/css">
	.st0{fill:#FFFFFF;}
</style>
<g>
	<g>
		<g>
			<path class="st0" d="M173,636C41.2,636-66,528.8-66,397c0-131.8,107.2-239,239-239c131.8,0,239,107.2,239,239
				C411.9,528.8,304.7,636,173,636z M173,186.8C57,186.8-37.3,281.1-37.3,397C-37.3,513,57,607.3,173,607.3
				c115.9,0,210.3-94.3,210.3-210.3C383.2,281.1,288.9,186.8,173,186.8z"/>
		</g>
		<g>
			<path class="st0" d="M309.9,314.5L275,284.1l-34.9-30.4l-34.9,30.4l-34.9,30.4h38.2c-12.8,79-85.8,140.4-168.8,127.3
				c-3.7-0.6-5.1,4.3-1.5,5.6c103.3,36,222.4-23.1,239.6-132.9L309.9,314.5L309.9,314.5z"/>
			<path class="st0" d="M232.5,416.5c-10.7,9.9-22.7,18.6-35.7,25.8v98.1h35.7V416.5z"/>
			<path class="st0" d="M143.2,540.4h35.7v-89.3c-11.4,4.8-23.3,8.7-35.7,11.3V540.4z"/>
			<path class="st0" d="M250.3,540.4h35.7v-217h-0.9c-5.6,27.7-17.8,52.8-34.8,73.9L250.3,540.4L250.3,540.4z"/>
			<path class="st0" d="M71.8,464.8c-12.1-1.8-24.1-4.6-35.7-8.6v84.3h35.7V464.8z"/>
			<path class="st0" d="M89.6,540.4h35.7v-75c-8.1,1-16.4,1.5-24.8,1.5c-3.6,0-7.3-0.1-10.9-0.3V540.4z"/>
		</g>
	</g>
</g>
</svg>
