<?xml version="1.0" encoding="utf-8"?>
<!-- Generator: Adobe Illustrator 19.0.0, SVG Export Plug-In . SVG Version: 6.00 Build 0)  -->
<svg version="1.1" id="Capa_1" xmlns="http://www.w3.org/2000/svg" xmlns:xlink="http://www.w3.org/1999/xlink" x="0px" y="0px"
	 viewBox="0 147.9 612.1 555.1" style="enable-background:new 0 147.9 612.1 555.1;" xml:space="preserve">
<style type="text/css">
	.st0{display:none;fill:none;}
</style>
<symbol  id="New_Symbol_2" viewBox="-16 -15 32 29">
	<polygon points="-6,14 -8,14 -8,8 -6,8 	"/>
	<polygon points="8,14 6,14 6,8 8,8 	"/>
	<polygon points="4,12 -4,12 -4,10 4,10 	"/>
	<path d="M12,12h-2v-2h2c1.1,0,2-0.4,2-1.5v-19c0-1.1-0.9-2.5-2-2.5h-24c-1.1,0-2,1.4-2,2.5v19c0,1.1,0.9,1.5,2,1.5h2v2h-2
		c-2.2,0-4-1.3-4-3.5v-19c0-2.2,1.8-4.5,4-4.5h24c2.2,0,4,2.3,4,4.5v19C16,10.7,14.2,12,12,12z"/>
	<path d="M8,0.5c1.1,0,2,0.9,2,2s-0.9,2-2,2s-2-0.9-2-2S6.9,0.5,8,0.5z"/>
	<path d="M8-7.5c1.1,0,2,0.9,2,2s-0.9,2-2,2c-1.1,0-2-0.9-2-2S6.9-7.5,8-7.5z"/>
	<path d="M-2-5.5c0-1.1,0.9-2,2-2s2,0.9,2,2s-0.9,2-2,2C-1.1-3.5-2-4.4-2-5.5z"/>
	<path d="M-10-5.5c0-1.1,0.9-2,2-2s2,0.9,2,2s-0.9,2-2,2C-9.1-3.5-10-4.4-10-5.5z"/>
	<path d="M-8,0.5c1.1,0,2,0.9,2,2s-0.9,2-2,2c-1.1,0-2-0.9-2-2S-9.1,0.5-8,0.5z"/>
	<path d="M0,4.5c-1.1,0-2-0.9-2-2s0.9-2,2-2s2,0.9,2,2S1.1,4.5,0,4.5z"/>
	<polygon class="st0" points="-16,14 16,14 16,-15 -16,-15 	"/>
</symbol>
<use xlink:href="#New_Symbol_2"  width="32" height="29" x="-16" y="-15" transform="matrix(18.4862 0 0 -18.4862 305.2213 415.6455)" style="overflow:visible;"/>
</svg>
