<?xml version="1.0" encoding="utf-8"?>
<!-- Generator: Adobe Illustrator 17.0.0, SVG Export Plug-In . SVG Version: 6.00 Build 0)  -->
<!DOCTYPE svg PUBLIC "-//W3C//DTD SVG 1.1//EN" "http://www.w3.org/Graphics/SVG/1.1/DTD/svg11.dtd">
<svg version="1.1" id="Capa_1" xmlns="http://www.w3.org/2000/svg" xmlns:xlink="http://www.w3.org/1999/xlink" x="0px" y="0px"
	 width="480px" height="477.581px" viewBox="0 0 480 477.581" enable-background="new 0 0 480 477.581" xml:space="preserve">
<g>
	<g id="Shape_10_1_">
		<g>
			<path fill="#FFFFFF" stroke="#FFFFFF" stroke-width="21" stroke-miterlimit="10" d="M239.346,13C114.56,13,13,114.56,13,239.346
				s101.56,226.346,226.346,226.346s226.346-101.56,226.346-226.346S364.132,13,239.346,13z M239.346,453.487
				c-118.055,0-214.141-96.086-214.141-214.141S121.291,25.205,239.346,25.205s214.141,96.086,214.141,214.141
				S357.401,453.487,239.346,453.487z M343.125,135.567L239.346,239.346L135.567,135.567l-8.654,8.654L230.692,248l-95.124,95.124
				l8.654,8.654l95.124-95.124l95.198,95.198l8.654-8.654L248,248l103.779-103.779L343.125,135.567z"/>
		</g>
	</g>
</g>
</svg>
