<?xml version="1.0" encoding="utf-8"?>
<!-- Generator: Adobe Illustrator 19.0.0, SVG Export Plug-In . SVG Version: 6.00 Build 0)  -->
<svg version="1.1" id="Camada_1" xmlns="http://www.w3.org/2000/svg" xmlns:xlink="http://www.w3.org/1999/xlink" x="0px" y="0px"
	 viewBox="0 0 450.6 336.7" style="enable-background:new 0 0 450.6 336.7;" xml:space="preserve">
<style type="text/css">
	.st0{fill:#FFFFFF;}
</style>
<path class="st0" d="M104,321.5c-51.5,0-93.4-41.9-93.4-93.4c0-34.2,18.5-65.2,47.8-81.5c1.2-72.5,60.5-131,133.3-131
	c45.5,0,88,23.7,112.2,61.6c8.7-3.8,18-5.7,27.6-5.7c38.5,0,69.7,31.3,69.7,69.7c0,3.2-0.2,6.3-0.6,9.4
	c23.3,17.9,37.4,45.9,37.4,75.5c0,51.7-42,94.3-93.7,95.2l-236,0C106.8,321.4,105.4,321.5,104,321.5z M191.7,46
	C135,46,88.8,92.1,88.8,148.9c0,1.4,0.1,2.8,0.2,4.1c0,0,0.1,2,0.1,2.1c0.4,6.5-3.4,12.5-9.4,14.9C56.2,179.8,41,202.6,41,228.1
	c0,34.7,28.2,63,62.9,63l2.3-0.1l236.2-0.1c36.5-0.6,65-29.6,65-64.7c0-22.7-12.2-44-31.7-55.6c-6.1-3.6-8.9-10.9-6.7-17.7
	c1.2-3.7,1.8-7.6,1.8-11.6c0-21.6-17.6-39.3-39.3-39.3c-8.7,0-17,2.9-24,8.3c-3.7,2.8-8.3,3.9-12.9,2.8c-4.5-1.1-8.2-4.1-10.2-8.3
	C267.5,69.1,231,46,191.7,46z"/>
</svg>
