<?xml version="1.0" encoding="utf-8"?>
<!-- Generator: Adobe Illustrator 19.0.0, SVG Export Plug-In . SVG Version: 6.00 Build 0)  -->
<svg version="1.1" id="Capa_1" xmlns="http://www.w3.org/2000/svg" xmlns:xlink="http://www.w3.org/1999/xlink" x="0px" y="0px"
	 viewBox="-199 292 211 211" style="enable-background:new -199 292 211 211;" xml:space="preserve">
<style type="text/css">
	.st0{fill:#FFFFFF;}
</style>
<g>
	<g>
		<path class="st0" d="M-82.1,350.3c8.3-5.6,14.1-16.7,14.1-26.7c0-14.1-11.4-25.5-25.5-25.5c-14.1,0-25.5,11.4-25.5,25.5
			c0,10,5.7,21,14.1,26.7c-20,5.1-34.7,22.4-34.7,35.2c0,15.2,92.3,15.2,92.3,0C-47.4,372.7-62.2,355.4-82.1,350.3z M-93.5,396.9
			l-12.9-12.9l10.9-26.3h-0.1l-4.2-4.8c2,0.7,4.2,1.2,6.4,1.2c2.2,0,4.3-0.4,6.4-1.2l-4.2,4.8h-0.1l10.9,26.3L-93.5,396.9z"/>
		<g>
			<g>
				<g>
					<path class="st0" d="M-115.9,456.7c2.7,0,4.9-3.1,4.9-5.8c0-2.7-2.2-4.9-4.9-4.9c-2.7,0-4.9,2.2-4.9,4.9
						C-120.8,453.6-118.6,456.7-115.9,456.7z"/>
					<path class="st0" d="M-106.4,460.1c0-0.1-0.1-0.3-0.1-0.4c-0.1-0.1-0.1-0.2-0.2-0.3c-0.1-0.1-0.2-0.2-0.3-0.3
						c-0.1-0.1-0.2-0.1-0.3-0.2c-0.1-0.1-0.2-0.1-0.3-0.2c-0.2-0.1-4.1-1.4-7.7-1.6l-0.5,1h0l1.3,10.1l-1.6,2.7l-1.5-2.7l1.3-10.1h0
						l-0.5-1c-3.6,0.2-7.5,1.6-7.6,1.6c-0.1,0-0.2,0.1-0.3,0.2c-0.1,0.1-0.2,0.1-0.3,0.2c-0.1,0.1-0.2,0.2-0.3,0.3
						c-0.1,0.1-0.1,0.2-0.2,0.2c-0.1,0.1-0.1,0.3-0.1,0.4c0,0.1-0.1,0.2-0.1,0.2l-1.6,13.9c-0.1,1.1,0.6,2,1.7,2.1
						c0.1,0,0.1,0,0.2,0c1,0,1.8-0.7,1.9-1.7l1.4-12.7c0.2,0,0.3-0.1,0.5-0.2v13.2l-1.5,19.2c-0.1,1.3,0.9,2.4,2.1,2.5
						c0.1,0,0.1,0,0.2,0c1.2,0,2.2-0.9,2.3-2.1l1.4-17.3c0.3,0.1,0.6,0.2,0.9,0.2c0.3,0,0.6-0.1,0.9-0.2l1.4,17.3
						c0.1,1.2,1.1,2.1,2.3,2.1c0.1,0,0.1,0,0.2,0c1.3-0.1,2.2-1.2,2.1-2.5l-1.5-19.2v-13.2c0.2,0.1,0.4,0.1,0.5,0.2l1.4,12.7
						c0.1,1,0.9,1.7,1.9,1.7c0.1,0,0.1,0,0.2,0c1.1-0.1,1.8-1.1,1.7-2.1l-1.6-13.9C-106.3,460.3-106.3,460.2-106.4,460.1z"/>
				</g>
				<g>
					<path class="st0" d="M-93.5,456.7c2.7,0,4.9-3.1,4.9-5.8c0-2.7-2.2-4.9-4.9-4.9c-2.7,0-4.9,2.2-4.9,4.9
						C-98.4,453.6-96.2,456.7-93.5,456.7z"/>
					<path class="st0" d="M-83.9,460.1c0-0.1-0.1-0.3-0.1-0.4c-0.1-0.1-0.1-0.2-0.2-0.3c-0.1-0.1-0.2-0.2-0.3-0.3
						c-0.1-0.1-0.2-0.1-0.3-0.2c-0.1-0.1-0.2-0.1-0.3-0.2c-0.2-0.1-4.1-1.4-7.6-1.6l-0.5,1h0l1.3,10.1l-1.6,2.7l-1.6-2.7l1.3-10.2h0
						l-0.5-1c-3.6,0.2-7.5,1.6-7.7,1.6c-0.1,0-0.2,0.1-0.3,0.2c-0.1,0-0.2,0.1-0.3,0.2c-0.1,0.1-0.2,0.2-0.3,0.3
						c-0.1,0.1-0.1,0.2-0.2,0.3c-0.1,0.1-0.1,0.3-0.1,0.4c0,0.1-0.1,0.2-0.1,0.2l-1.6,13.9c-0.1,1.1,0.6,2,1.7,2.1
						c0.1,0,0.1,0,0.2,0c1,0,1.8-0.7,1.9-1.7l1.4-12.7c0.2,0,0.3-0.1,0.5-0.2v13.2l-1.5,19.2c-0.1,1.3,0.8,2.4,2.1,2.5
						c0.1,0,0.1,0,0.2,0c1.2,0,2.2-0.9,2.3-2.1l1.4-17.3c0.3,0.1,0.6,0.2,0.9,0.2c0.3,0,0.6-0.1,0.9-0.2l1.4,17.3
						c0.1,1.2,1.1,2.1,2.3,2.1c0.1,0,0.1,0,0.2,0c1.3-0.1,2.2-1.2,2.1-2.5l-1.5-19.2v-13.2c0.2,0.1,0.4,0.1,0.5,0.2l1.4,12.7
						c0.1,1,0.9,1.7,1.9,1.7c0.1,0,0.1,0,0.2,0c1.1-0.1,1.8-1.1,1.7-2.1l-1.6-13.9C-83.8,460.3-83.9,460.2-83.9,460.1z"/>
				</g>
				<g>
					<path class="st0" d="M-71,456.7c2.7,0,4.9-3.1,4.9-5.8c0-2.7-2.2-4.9-4.9-4.9c-2.7,0-4.9,2.2-4.9,4.9
						C-75.9,453.6-73.7,456.7-71,456.7z"/>
					<path class="st0" d="M-61.5,460.1c0-0.1-0.1-0.3-0.1-0.4c0-0.1-0.1-0.2-0.2-0.3c-0.1-0.1-0.2-0.2-0.3-0.3
						c-0.1-0.1-0.2-0.1-0.3-0.2c-0.1-0.1-0.2-0.1-0.3-0.2c-0.2-0.1-4.1-1.4-7.7-1.6l-0.5,1h0l1.3,10.1l-1.5,2.7l-1.5-2.7l1.3-10.1h0
						l-0.5-1c-3.6,0.2-7.5,1.6-7.6,1.6c-0.1,0-0.2,0.1-0.3,0.2c-0.1,0.1-0.2,0.1-0.3,0.2c-0.1,0.1-0.2,0.2-0.3,0.3
						c-0.1,0.1-0.1,0.2-0.2,0.2c-0.1,0.1-0.1,0.3-0.1,0.4c0,0.1-0.1,0.2-0.1,0.2l-1.5,13.9c-0.1,1.1,0.6,2,1.7,2.1
						c0.1,0,0.1,0,0.2,0c1,0,1.8-0.7,1.9-1.7L-77,462c0.2,0,0.4-0.1,0.5-0.2v13.2l-1.5,19.2c-0.1,1.3,0.9,2.4,2.1,2.5
						c0.1,0,0.1,0,0.2,0c1.2,0,2.2-0.9,2.3-2.1l1.4-17.3c0.3,0.1,0.6,0.2,0.9,0.2c0.3,0,0.7-0.1,0.9-0.2l1.4,17.3
						c0.1,1.2,1.1,2.1,2.3,2.1c0.1,0,0.1,0,0.2,0c1.3-0.1,2.2-1.2,2.1-2.5l-1.5-19.2v-13.2c0.2,0.1,0.4,0.1,0.5,0.2l1.4,12.7
						c0.1,1,0.9,1.7,1.9,1.7c0.1,0,0.1,0,0.2,0c1.1-0.1,1.8-1.1,1.7-2.1l-1.5-13.9C-61.4,460.3-61.4,460.2-61.5,460.1z"/>
				</g>
			</g>
			<path class="st0" d="M7.2,472.1c0.1-2.7-0.4-5.5-1.4-8.1l4.2-2.6l-4.2-6.6l-4.2,2.6c-1.9-2.1-4.2-3.7-6.7-4.8l1.1-4.9l-7.6-1.8
				l-1.1,4.9c-2.7-0.1-5.5,0.3-8.1,1.4l-2.7-4.2l-6.6,4.1l2.6,4.2c-2.1,1.9-3.7,4.2-4.8,6.7l-4.9-1.1l-1.8,7.6l4.9,1.1
				c-0.1,2.7,0.4,5.5,1.4,8.1l-4.2,2.6l4.2,6.6l4.2-2.6c1.9,2.1,4.2,3.7,6.7,4.8l-1.1,4.9l7.6,1.8l1.1-4.9c2.7,0.1,5.5-0.3,8.1-1.4
				l2.6,4.2l6.6-4.2l-2.6-4.2c2.1-1.9,3.7-4.2,4.8-6.7l4.9,1.1l1.8-7.6L7.2,472.1z M-6,483.3c-6.6,4.1-15.3,2.1-19.4-4.5
				c-4.1-6.6-2.1-15.3,4.5-19.4c6.6-4.1,15.3-2.1,19.4,4.5S0.6,479.2-6,483.3z"/>
			<path class="st0" d="M-173.5,445.9c-14,0-25.5,11.4-25.5,25.5c0,14,11.4,25.5,25.5,25.5c14,0,25.5-11.4,25.5-25.5
				C-148.1,457.3-159.5,445.9-173.5,445.9z M-162.6,489.1l-1-1.7l-1,0.6l1,1.7c-2.8,1.5-5.9,2.5-9.3,2.6v-2h-1.1v2
				c-3.4-0.1-6.5-1-9.3-2.6l1-1.7l-1-0.6l-1,1.7c-2.8-1.7-5.1-4.1-6.8-6.8l1.7-1l-0.6-1l-1.7,1c-1.5-2.8-2.5-5.9-2.6-9.3h2v-1.1h-2
				c0.1-3.4,1-6.5,2.6-9.3l1.7,1l0.6-1l-1.7-1c1.7-2.8,4-5.1,6.8-6.8l1,1.7l1-0.6l-1-1.7c2.8-1.5,6-2.5,9.3-2.6v2h0.5l-3.1,6.2h2.1
				v12l-6.4,3.7l-1-1.8l-3.9,6l7.1-0.4l-1-1.8l7-4c0,0,0-0.1,0.1-0.1c0.1-0.1,0.2-0.2,0.3-0.3c0.1-0.1,0.1-0.2,0.2-0.4
				c0-0.1,0.1-0.1,0.1-0.1v-12.6h2.1l-3.1-6.2h0.5l0-2c3.4,0.1,6.5,1,9.3,2.6l-1,1.7l1,0.6l1-1.7c2.8,1.7,5.1,4,6.8,6.8l-1.7,1
				l0.6,1l1.7-1c1.5,2.8,2.5,6,2.6,9.3h-2v1.1h2c-0.1,3.4-1,6.5-2.6,9.3l-1.7-1l-0.6,1l1.7,1C-157.5,485-159.8,487.4-162.6,489.1z"
				/>
		</g>
		<polygon class="st0" points="-91.8,411.5 -91.8,405.3 -95.2,405.3 -95.2,411.5 -175.2,411.5 -175.2,438.5 -171.9,438.5 
			-171.9,414.9 -95.2,414.9 -95.2,438.5 -91.8,438.5 -91.8,414.9 -15.1,414.9 -15.1,438.5 -11.8,438.5 -11.8,411.5 		"/>
	</g>
</g>
</svg>
