<?xml version="1.0" encoding="utf-8"?>
<!-- Generator: Adobe Illustrator 17.0.0, SVG Export Plug-In . SVG Version: 6.00 Build 0)  -->
<!DOCTYPE svg PUBLIC "-//W3C//DTD SVG 1.1//EN" "http://www.w3.org/Graphics/SVG/1.1/DTD/svg11.dtd">
<svg version="1.1" id="Capa_1" xmlns="http://www.w3.org/2000/svg" xmlns:xlink="http://www.w3.org/1999/xlink" x="0px" y="0px"
	 width="612.1px" height="612.1px" viewBox="0 0 612.1 612.1" enable-background="new 0 0 612.1 612.1" xml:space="preserve">
<g>
	<g>
		<path stroke="#000000" stroke-width="9" stroke-miterlimit="10" d="M306.004,586.397c-154.609,0-280.441-125.833-280.441-280.441
			c0-57.921,17.596-113.551,51.048-160.933c32.627-46.19,77.717-81.2,130.506-101.362c2.933-1.1,6.14,0.367,7.24,3.299
			c1.1,2.933-0.367,6.14-3.299,7.24c-50.681,19.246-94.03,52.972-125.282,97.33c-31.985,45.366-48.94,98.796-48.94,154.426
			c0,148.469,120.791,269.168,269.169,269.168s269.169-120.791,269.169-269.168c0-69.194-27.587-137.471-75.609-187.419
			c-51.781-52.422-125.007-84.041-187.97-81.475V77.02c0,3.116-2.474,5.59-5.591,5.59c-3.116,0-5.59-2.474-5.59-5.59V31.746
			c0-2.933,2.291-5.407,5.224-5.59c67.269-4.766,146.636,28.411,202.083,84.591c50.04,52.056,78.817,123.174,78.817,195.209
			C586.446,460.564,460.614,586.397,306.004,586.397z"/>
		<path stroke="#000000" stroke-width="9" stroke-miterlimit="10" d="M306.004,311.545c-0.733,0-1.466-0.183-2.108-0.458
			c-2.108-0.825-3.483-2.933-3.483-5.224V76.378c0-3.116,2.474-5.59,5.59-5.59c3.116,0,5.591,2.474,5.591,5.59v215.922
			l94.948-94.947c2.199-2.2,5.774-2.2,7.973,0c2.199,2.2,2.199,5.774,0,7.973L309.945,309.896
			C308.937,310.996,307.47,311.545,306.004,311.545z"/>
	</g>
</g>
</svg>
