<?xml version="1.0" encoding="utf-8"?>
<!-- Generator: Adobe Illustrator 19.0.0, SVG Export Plug-In . SVG Version: 6.00 Build 0)  -->
<svg version="1.1" id="Camada_1" xmlns="http://www.w3.org/2000/svg" xmlns:xlink="http://www.w3.org/1999/xlink" x="0px" y="0px"
	 viewBox="-2 232.3 301 329" style="enable-background:new -2 232.3 301 329;" xml:space="preserve">
<symbol  id="impressora" viewBox="-276 -300 551.9 600">
	<g>
		<path d="M224.9,152.8h-36.2v0.8v118.3c0,15.6-12.6,28.1-28.1,28.1h-318.9c-15.6,0-28.1-12.6-28.1-28.1V154.3v-0.8h-38.5
			c-28.1,0-51-23-51-51v-210.9c0-28.1,23-51,51-51h38.5v-111.7c0-16.3,13.3-28.8,28.8-28.8h317.4c16.3,0,28.8,13.3,28.8,28.8v111.7
			h36.2c28.1,0,51,23,51,51v210.9C276,130.6,253.1,152.8,224.9,152.8z M-159.1,154.3v117.6c0,0.8,0.8,0.8,0.8,0.8h318.9
			c0.8,0,0.8-0.8,0.8-0.8V154.3c0-0.8-0.8-0.8-0.8-0.8h-318.9C-158.3,152.8-159.1,153.5-159.1,154.3z M161.3-270.4
			c0-0.8-0.8-1.5-1.5-1.5h-317.3c-0.8,0-1.5,0.8-1.5,1.5v125v91.7c0,0.8,0.8,1.5,1.5,1.5h317.4c0.8,0,1.5-0.8,1.5-1.5v-92.5
			L161.3-270.4L161.3-270.4L161.3-270.4z M248.6-108.4c0-13.3-10.3-23.7-23.7-23.7h-36.2v78.4c0,16.3-13.3,28.8-28.8,28.8h-317.4
			c-16.3,0-28.8-13.3-28.8-28.8v-78.4h-38.5c-13.3,0-23.7,10.3-23.7,23.7v210.9c0,13.3,10.3,23.7,23.7,23.7h66.6h318.9H225
			c13.3,0,23.7-10.3,23.7-23.7L248.6-108.4L248.6-108.4z M206.4,70.7c0-8.2-6.6-14.8-14.8-14.8s-14.8,6.6-14.8,14.8
			s6.6,14.8,14.8,14.8S206.4,78.9,206.4,70.7z M151.7,70.7c0-8.2-6.6-14.8-14.8-14.8c-8.2,0-14.8,6.6-14.8,14.8s6.6,14.8,14.8,14.8
			C145,85.5,151.7,78.9,151.7,70.7z M112.5-202.3c0-7.4-5.9-13.3-13.3-13.3H-94c-7.4,0-13.3,5.9-13.3,13.3c0,7.4,5.9,13.3,13.3,13.3
			H99.1C106.5-189,112.5-194.9,112.5-202.3z M112.5-121.7c0-7.4-5.9-13.3-13.3-13.3H-94c-7.4,0-13.3,5.9-13.3,13.3
			c0,7.4,5.9,13.3,13.3,13.3H99.1C106.5-107.6,112.5-114.3,112.5-121.7z"/>
	</g>
</symbol>
<use xlink:href="#impressora"  width="551.9" height="600" x="-276" y="-300" transform="matrix(0.5117 0 0 -0.5117 147.9766 395.8)" style="overflow:visible;"/>
</svg>
