<?xml version="1.0" encoding="utf-8"?>
<!-- Generator: Adobe Illustrator 19.0.0, SVG Export Plug-In . SVG Version: 6.00 Build 0)  -->
<svg version="1.1" id="Capa_1" xmlns="http://www.w3.org/2000/svg" xmlns:xlink="http://www.w3.org/1999/xlink" x="0px" y="0px"
	 viewBox="38 52.8 688.2 688.2" style="enable-background:new 38 52.8 688.2 688.2;" xml:space="preserve">
<style type="text/css">
	.st0{fill:#FFFFFF;}
</style>
<g>
	<g>
		<path class="st0" d="M102.2,430.3h92.9c0,0,0,0,0,0c14.4-4.8,26-12,26-26.3c0-14.3-11.7-26.3-26.1-26.3h-93
			c-14.4,0-26.1,11.9-26.1,26.3C76.1,418.4,87.8,425.6,102.2,430.3z M102.2,396.9h92.9c3.8,0,7,3.3,7,7.2c0,3.8-3.1,7.2-7,7.2h-92.9
			c-3.8,0-7-3.4-7-7.2S98.4,396.9,102.2,396.9z"/>
		<path class="st0" d="M195.2,568.9c14.4,0,26-12,26-26.3c0-14.3-11.7-26.3-26.1-26.3h-93c-14.4,0-26.1,11.9-26.1,26.3
			c0,14.3,11.7,26.3,26.1,26.3H195.2C195.1,568.9,195.2,568.9,195.2,568.9z M102.2,549.8c-3.8,0-7-3.4-7-7.2c0-3.8,3.1-7.2,6.9-7.2
			h92.9c3.8,0,7,3.3,7,7.2c0,3.8-3.1,7.2-7,7.2H102.2z"/>
		<path class="st0" d="M102.2,277.4h92.9c14.4,0,26.1-11.9,26.1-26.3c0-14.3-11.7-26.3-26.1-26.3h-93c-14.4,0-26.1,11.9-26.1,26.3
			C76.1,265.5,87.8,277.4,102.2,277.4z M102.2,243.9h92.9c3.8,0,7,3.4,7,7.2c0,3.8-3.1,7.2-6.9,7.2h-92.9c-3.8,0-6.9-3.3-6.9-7.2
			S98.4,243.9,102.2,243.9z"/>
		<path class="st0" d="M587.2,52.8H213.2c-51.1,0-103.4,51.2-103.4,102.2v54.2c0,5.3,6.6,10.9,11.8,10.9h71.1
			c18,0,32.6,13.1,32.6,31.1c0,18-14.6,31.1-32.6,31.1h-71.1c-5.3,0-11.8,6-11.8,11.3v66.2c0,5.3,6.6,8.5,11.8,8.5h71.1
			c18,0,32.6,15.5,32.6,33.5c0,18-14.6,33.5-32.6,33.5h-71.1c-5.3,0-11.8,3.7-11.8,9v56.2c0,5.3,6.6,11.3,11.8,11.3h71.1
			c18,0,32.6,13.1,32.6,31.1c0,18-14.6,31.1-32.6,31.1h-71.1c-5.3,0-11.8,5.6-11.8,10.9v54.2c0,51.1,52.4,102.2,103.4,102.2h373.9
			c51.1,0,101-51.2,101-102.2V155C688.1,103.9,638.2,52.8,587.2,52.8z M669,638.8c0,40.6-41.2,83.1-81.8,83.1H213.2
			c-40.6,0-84.3-42.5-84.3-83.1v-45.9h63.8c28.5,0,51.7-21.7,51.7-50.2c0-28.5-23.2-50.2-51.7-50.2h-63.8v-38.2h63.8
			c28.5,0,51.7-24.1,51.7-52.6c0-28.5-23.2-52.6-51.7-52.6h-63.8v-47.8h63.8c28.5,0,51.7-21.7,51.7-50.2c0-28.5-23.2-50.2-51.7-50.2
			h-63.8V155c0-40.6,43.7-83.1,84.3-83.1h373.9c40.6,0,81.8,42.5,81.8,83.1L669,638.8L669,638.8L669,638.8z"/>
		<path class="st0" d="M529.4,449.3l-2.5-0.6c-3.5-1.8-53.9-25.9-73-34.4v-11.1c9.6-8.1,13.7-17.9,13.9-28l0.6-1
			c6.5-3.8,11.5-11.6,12.9-21.2l0.2-0.6c1.6-10.8-1.7-20.7-8-25.9l1.2-12.2c0-0.3,0.1-0.6,0.1-0.9c0-23.5-18.6-56.5-60-56.5
			c-41.4,0-60,33-60,56.5c0,0.3,0,0.6,0,0.9l1.2,12.2c-6.3,5.3-9.7,15.1-8.1,25.8l0.1,0.8c1.4,9.6,6.2,17.3,12.7,21.1l-0.4,1.1
			c0.1,10.2,2.8,20,12.4,28v11c-23.9,11.3-68,32.2-72,34.9c-0.6,0.4-1.1,0.9-2.1,1.4c-6,3.3-16.7,9.4-16.7,21.9v54.8
			c0,5.3,4,8.1,9.3,8.1h247.3c5.3,0,11.1-2.8,11.1-8.1v-54.9C549.5,458.9,535.2,452.2,529.4,449.3z M530.4,516.4H300.7l0-44.5
			c0.5-1.5,5.4-3.8,7.2-4.8c1.5-0.8,2.8-1.4,3.7-2c4.2-2.5,48.1-23.4,75.2-36.1c3.4-1.6,5-4.9,5-8.6V399c0-2.9-0.8-5.6-3-7.4
			c-3.5-2.9-9.2-9-9.2-16.9c0-0.3,0.1-0.6,0.1-0.9l-0.7-7.5c-0.5-4.7-3.8-8.3-8.5-8.5c-0.7-0.3-2.9-2.8-3.6-7.5l-0.1-0.8
			c-0.6-4.2,0.4-7,1.1-8c4.5-0.8,7.9-4.7,7.9-9.4c0-0.8-0.1-1.5-0.3-2.3l-1.7-16.9c0.2-14.5,11.4-37,40.9-37
			c29.5,0,40.7,22.5,40.9,37l-1.8,18.3c-0.3,2.7,0.6,5.4,2.4,7.4c1.4,1.6,3.3,2.6,5.4,3c0.7,1,1.7,3.9,1.1,8.1l-0.1,0.6
			c-0.7,4.7-3,7.2-3.2,7.4c-4.7,0.3-8.5,3.9-9,8.6l-0.7,7.5c0,0.3,0,0.6,0,0.9c0,7.9-6.9,14-10.4,16.9c-2.2,1.8-4.4,4.5-4.4,7.4
			v21.4c0,3.7,3.1,7,6.4,8.6c29.2,13.9,74.2,35.2,77,36.7l2.4,0.7c7.1,3.5,9.7,5.4,9.7,6.1L530.4,516.4L530.4,516.4z"/>
	</g>
</g>
</svg>
