<?xml version="1.0" encoding="utf-8"?>
<!-- Generator: Adobe Illustrator 19.0.0, SVG Export Plug-In . SVG Version: 6.00 Build 0)  -->
<svg version="1.1" id="Camada_1" xmlns="http://www.w3.org/2000/svg" xmlns:xlink="http://www.w3.org/1999/xlink" x="0px" y="0px"
	 viewBox="0 0 450.6 368.4" style="enable-background:new 0 0 450.6 368.4;" xml:space="preserve">
<style type="text/css">
	.st0{fill:#FFFFFF;}
</style>
<symbol  id="New_Symbol_7" viewBox="-128.1 -100 256.2 200">
	<g>
		<g id="Shape_16_2_">
			<g>
				<path class="st0" d="M-128.1,100V-56.2h256.2V100H-128.1z M121.9-50h-243.7V93.7h243.7V-50z M3.1-62.5h-6.3v-31.2h-37.5v-6.3
					h81.2v6.3H3.1L3.1-62.5L3.1-62.5z M-15.6,75h-87.5V31.3h87.5L-15.6,75L-15.6,75z M-21.9,37.5h-75v31.2h75V37.5z M-15.6,12.5
					h-87.5v-43.7h87.5L-15.6,12.5L-15.6,12.5z M-21.9-25h-75V6.3h75V-25z M81,80l-5.7,2.5L58.3,43L42.8,58.5L38.4,54l22-22L81,80z
					 M81,17.5L75.3,20L58.3-19.5L42.8-4l-4.4-4.4l22-22L81,17.5z"/>
			</g>
		</g>
	</g>
</symbol>
<use xlink:href="#New_Symbol_7"  width="256.2" height="200" id="XMLID_1_" x="-128.1" y="-100" transform="matrix(1.6902 0 0 -1.6902 225.2166 184.1454)" style="overflow:visible;"/>
</svg>
