<?xml version="1.0" encoding="utf-8"?>
<!-- Generator: Adobe Illustrator 19.0.0, SVG Export Plug-In . SVG Version: 6.00 Build 0)  -->
<svg version="1.1" id="Camada_1" xmlns="http://www.w3.org/2000/svg" xmlns:xlink="http://www.w3.org/1999/xlink" x="0px" y="0px"
	 viewBox="0 0 450.6 403.8" style="enable-background:new 0 0 450.6 403.8;" xml:space="preserve">
<style type="text/css">
	.st0{fill:#FFFFFF;}
</style>
<symbol  id="New_Symbol_1" viewBox="-600 -542.4 1200 1084.9">
	<g>
		<path class="st0" d="M96.3-512.9c0-13.3,10.8-24.1,24.1-24.1h364c13.3,0,24.1,10.8,24.1,24.1v476.3c0,13.3-10.8,24.1-24.1,24.1
			s-24.1-10.8-24.1-24.1v-452.2H144.6v251.9c0,13.3-10.8,24.1-24.1,24.1h-236.8c-13.3,0-24.1-10.8-24.1-24.1v-257.3h-319.8V-4.1
			c0,13.3-10.8,24.1-24.1,24.1s-24.1-10.8-24.1-24.1v-514.2c0-13.3,10.8-24.1,24.1-24.1h368.1c13.3,0,24.1,10.8,24.1,24.1V-261H96.3
			V-512.9z"/>
		<path class="st0" d="M591.1,68.8L13.1,537c-8.8,7.1-21.3,7.2-30.1,0.2l-573.8-452c-10.5-8.3-12.3-23.4-4-33.9
			c8.3-10.5,23.5-12.3,33.9-4l558.6,440l563-456.1c4.5-3.6,9.8-5.4,15.2-5.4c7,0,14,3.1,18.8,8.9C603,45.2,601.4,60.4,591.1,68.8z"
			/>
	</g>
</symbol>
<use xlink:href="#New_Symbol_1"  width="1200" height="1084.9" id="XMLID_1_" x="-600" y="-542.4" transform="matrix(0.3342 0 0 -0.3342 225.4613 200.2423)" style="overflow:visible;"/>
</svg>
