<?xml version="1.0" encoding="utf-8"?>
<!-- Generator: Adobe Illustrator 17.0.0, SVG Export Plug-In . SVG Version: 6.00 Build 0)  -->
<!DOCTYPE svg PUBLIC "-//W3C//DTD SVG 1.1//EN" "http://www.w3.org/Graphics/SVG/1.1/DTD/svg11.dtd">
<svg version="1.1" id="Camada_1" xmlns="http://www.w3.org/2000/svg" xmlns:xlink="http://www.w3.org/1999/xlink" x="0px" y="0px"
	 width="1457.927px" height="1144.443px" viewBox="270.627 26.619 1457.927 1144.443"
	 enable-background="new 270.627 26.619 1457.927 1144.443" xml:space="preserve">
<symbol  id="New_Symbol_7" viewBox="-130.1 -102 260.2 204">
	<g>
		<g id="Shape_16_2_">
			<g>
				<path fill="#FFFFFF" stroke="#FFFFFF" stroke-width="4" stroke-miterlimit="10" d="M-128.1,100V-56.2h256.2V100H-128.1z
					 M121.9-50h-243.7V93.7h243.7V-50z M3.1-62.5h-6.3v-31.2h-37.5v-6.3h81.2v6.3H3.1V-62.5L3.1-62.5z M-15.6,75h-87.5V31.3h87.5
					L-15.6,75L-15.6,75z M-21.9,37.5h-75v31.2h75C-21.9,68.7-21.9,37.5-21.9,37.5z M-15.6,12.5h-87.5v-43.7h87.5L-15.6,12.5
					L-15.6,12.5z M-21.9-25h-75V6.3h75C-21.9,6.3-21.9-25-21.9-25z M81,80l-5.7,2.5L58.3,43L42.8,58.5L38.4,54l22-22L81,80z
					 M81,17.5L75.3,20l-17-39.5L42.8-4l-4.4-4.4l22-22L81,17.5z"/>
			</g>
		</g>
	</g>
</symbol>
<use xlink:href="#New_Symbol_7"  width="260.2" height="204" id="XMLID_1_" x="-130.1" y="-102" transform="matrix(5.5055 0 0 -5.5055 999.7283 599.8221)" overflow="visible"/>
</svg>
