<?xml version="1.0" encoding="utf-8"?>
<!-- Generator: Adobe Illustrator 17.0.0, SVG Export Plug-In . SVG Version: 6.00 Build 0)  -->
<!DOCTYPE svg PUBLIC "-//W3C//DTD SVG 1.1//EN" "http://www.w3.org/Graphics/SVG/1.1/DTD/svg11.dtd">
<svg version="1.1" id="Layer_1" xmlns="http://www.w3.org/2000/svg" xmlns:xlink="http://www.w3.org/1999/xlink" x="0px" y="0px"
	 width="1210px" height="1064px" viewBox="0 0 1210 1064" enable-background="new 0 0 1210 1064" xml:space="preserve">
<g>
	<g id="Layer_8_7_">
		<path fill="#FFFFFF" d="M927.776,106.001h41.049V7H225.609v99.001h41.054v25.691c0,161.283,55.196,309.204,146.105,396.964
			c-90.909,87.776-146.105,235.686-146.105,396.976v32.37h-41.054V1057h743.216v-98.999h-41.049v-32.37
			c0-161.29-55.205-309.197-146.103-396.976C872.57,440.896,927.776,293,927.776,131.692V106.001z M712.432,502.831l-34.088,25.825
			l34.088,25.825c85.067,64.51,142.163,195.126,149.702,338.744H332.319c7.535-143.604,64.605-274.22,149.698-338.744l34.07-25.825
			l-34.07-25.825c-85.079-64.517-142.163-195.115-149.698-338.733h529.795C854.595,307.716,797.497,438.314,712.432,502.831z
			 M400.621,215.595h393.191c-5.684,109.046-49.049,208.23-113.689,257.214c0,0-11.067,4.78-25.848,19.595
			c-30.579,43.668-32.21,203.288-32.261,210.326c21.955,2.344,45.674,11.609,69.181,33.08
			c82.937,75.776,107.001,84.713,109.895,139.722H412.211c2.892-54.995,50.077-94.353,109.888-139.722
			c0,0,28.455-24.974,68.367-31.902c-0.726-1.254-1.152-2.101-1.152-2.101c0-150.35-49.156-214.818-49.156-214.818l-34.94-19.595
			C440.599,418.377,406.323,324.644,400.621,215.595z"/>
	</g>
</g>
</svg>
