<?xml version="1.0" encoding="utf-8"?>
<!-- Generator: Adobe Illustrator 19.0.0, SVG Export Plug-In . SVG Version: 6.00 Build 0)  -->
<svg version="1.1" id="Capa_1" xmlns="http://www.w3.org/2000/svg" xmlns:xlink="http://www.w3.org/1999/xlink" x="0px" y="0px"
	 viewBox="-276 367.9 58.1 58.1" style="enable-background:new -276 367.9 58.1 58.1;" xml:space="preserve">
<style type="text/css">
	.st0{fill:#FFFFFF;}
</style>
<g>
	<path class="st0" d="M-248.3,411.8h5v5.9h-5V411.8z M-256.6,414.5l1.7,1l2.2-3.8l-1.7-1L-256.6,414.5z M-239.1,411.7l2.2,3.8l1.7-1
		l-2.2-3.8L-239.1,411.7z M-263.3,407l1,1.7l3.9-2.2l-1-1.7L-263.3,407z M-239.1,384.5l1.7,1l2.2-3.8l-1.7-1L-239.1,384.5z
		 M-232.1,395.6v5h5.9v-5H-232.1z M-233.2,406.5l3.9,2.2l1-1.7l-3.9-2.2L-233.2,406.5z M-228.3,389.1l-1-1.7l-3.9,2.2l1,1.7
		L-228.3,389.1z M-217.9,398.1c0,15.4-12.5,27.9-27.9,27.9s-27.9-12.5-27.9-27.9c0,0,0-0.1,0-0.1c-1.3-0.3-2.3-1.5-2.3-2.9v-24.2
		c0-1.7,1.3-3,3-3h24.2c1.4,0,2.6,1,2.9,2.3c0,0,0.1,0,0.1,0C-230.4,370.2-217.9,382.7-217.9,398.1z M-261.4,386.2
		c0.2,0.9,0.7,1.7,1.4,2.3c0.9,0.8,2.1,1.2,3.6,1.2c1.8,0,3.2-0.6,4.1-1.7c0.9-1.1,1.4-2.4,1.4-3.8c0-1.6-0.5-2.9-1.5-3.8
		c-1-0.9-2.1-1.3-3.4-1.3c-0.6,0-1.1,0.1-1.5,0.2c0,0-0.1,0-0.1,0c0,0-0.1,0-0.1,0.1l0.2-1c0-0.3,0.4-0.6,0.7-0.6h2.4h1.3
		c0.6,0,1.2-0.4,1.4-0.9c0.1-0.2,0.1-0.4,0.1-0.6V376c0-0.8-0.7-1.5-1.5-1.5h-1h-4.7c-0.8,0-1.5,0.6-1.6,1.4l-0.3,2l-0.5,3.7
		c0,0.2,0,0.4,0,0.6c0.1,0.2,0.1,0.4,0.3,0.5c0.3,0.3,0.6,0.5,1,0.5l0.6,0c0.7,0,1.3-0.3,1.7-0.6c0.1-0.1,0.2-0.2,0.4-0.2
		c0.2-0.1,0.4-0.1,0.7-0.1c0.1,0,0.1,0,0.2,0c0.4,0,0.7,0.2,1,0.5c0.3,0.4,0.4,0.9,0.4,1.5c0,0.1,0,0.2,0,0.3c0,0.5-0.2,0.9-0.4,1.2
		c-0.3,0.4-0.6,0.5-1.2,0.5c-0.4,0-0.8-0.1-1-0.3c-0.1-0.1-0.2-0.3-0.3-0.5c-0.3-0.6-1-1-1.7-1h-0.7c-0.4,0-0.9,0.2-1.1,0.5
		C-261.4,385.4-261.5,385.8-261.4,386.2z M-266.9,389.3h0.8c0.1,0,0.1,0,0.2,0c0.7-0.1,1.3-0.7,1.3-1.5v-1.1v-5v-4.3v-1.6
		c0-0.8-0.7-1.5-1.5-1.5h-0.3c-0.5,0-1.4,0.1-1.5,0.7c0,0.1,0,0.2-0.1,0.2c-0.1,0.3-0.2,0.6-0.4,0.8c-0.3,0.3-0.6,0.5-1.1,0.6
		c-0.2,0-0.5,0.1-0.8,0.1c-0.8,0.1-1.4,0.7-1.4,1.5c0,0.8,0.7,1.4,1.5,1.4h1.3c0.3,0,0.5,0.2,0.5,0.5v1.5v5.9v0.3
		C-268.4,388.6-267.7,389.3-266.9,389.3z M-223.9,398.1c0-12.1-9.8-21.9-21.9-21.9v2.3h2.5v5.9h-2.5v10.7c0,1.7-1.3,3-3,3h-10.8v2.5
		h-5.9v-2.5h-2.3c0,12.1,9.8,21.9,21.9,21.9C-233.7,420-223.9,410.2-223.9,398.1z"/>
</g>
</svg>
