<?xml version="1.0" encoding="utf-8"?>
<!-- Generator: Adobe Illustrator 19.0.0, SVG Export Plug-In . SVG Version: 6.00 Build 0)  -->
<svg version="1.1" id="Capa_1" xmlns="http://www.w3.org/2000/svg" xmlns:xlink="http://www.w3.org/1999/xlink" x="0px" y="0px"
	 viewBox="-68 160.3 473.7 473.7" style="enable-background:new -68 160.3 473.7 473.7;" xml:space="preserve">
<style type="text/css">
	.st0{fill:#FFFFFF;}
</style>
<g>
	<g>
		<path class="st0" d="M163.2,496.3c-9.4,0-17,7.6-17,17v11.3c0,9.4,7.6,17,17,17s17-7.6,17-17v-11.3
			C180.2,504,172.6,496.3,163.2,496.3z"/>
		<path class="st0" d="M168.9,634c130.6,0,236.9-106.2,236.9-236.9S299.5,160.3,168.9,160.3S-68,266.5-68,397.1S38.2,634,168.9,634z
			 M168.9,194.3c111.9,0,202.9,90.9,202.9,202.9S280.8,600,168.9,600S-34,509-34,397.1S56.9,194.3,168.9,194.3z"/>
		<path class="st0" d="M95.2,354.6C95.5,354.6,95.5,354.6,95.2,354.6c9.4,0,17-7.1,17-16.4c0,0,0.3-13.6,7.1-26.9
			c8.5-17,23.5-25.5,45.6-25.5c20.7,0,36,5.7,44.5,16.7c7.1,9.1,9.1,21.5,5.7,35.1c-4.2,16.7-18.7,31.2-32.6,45.3
			c-17,17.6-34.9,35.4-34.9,59.5c0,9.4,7.6,17,17,17s17-7.6,17-17c0-10.2,12.2-22.7,25.2-35.7c16.1-16.4,34.6-35.1,41.1-60.6
			c6.2-23.5,2-47-11.6-64.3c-10.5-13.6-31.5-30-71.1-30c-44.5,0-65.7,23.8-75.9,44.2s-10.8,39.9-10.8,42.2
			C78.5,347.3,85.9,354.6,95.2,354.6z"/>
	</g>
</g>
</svg>
