<?xml version="1.0" encoding="utf-8"?>
<!-- Generator: Adobe Illustrator 19.0.0, SVG Export Plug-In . SVG Version: 6.00 Build 0)  -->
<svg version="1.1" id="Capa_1" xmlns="http://www.w3.org/2000/svg" xmlns:xlink="http://www.w3.org/1999/xlink" x="0px" y="0px"
	 viewBox="0 91 612 612" style="enable-background:new 0 91 612 612;" xml:space="preserve">
<style type="text/css">
	.st0{fill:#FFFFFF;}
</style>
<g>
	<g>
		<path class="st0" d="M140.7,524.6H81.7c46.5,90.8,140.9,152.9,249.8,152.9C486.4,677.5,612,551.9,612,397
			c0-154.9-125.6-280.5-280.5-280.5C194,116.5,79.6,215.4,55.6,346H0l76.5,102L153,346h-45.3c23.2-102.2,114.6-178.5,223.8-178.5
			C458.3,167.5,561,270.2,561,397S458.3,626.5,331.5,626.5C252,626.5,181.9,586.1,140.7,524.6z"/>
		<polygon class="st0" points="318.8,219.3 318.8,405.9 451.6,484.2 464.6,462.3 344.2,390.7 344.2,219.3 		"/>
	</g>
</g>
</svg>
