<?xml version="1.0" encoding="utf-8"?>
<!-- Generator: Adobe Illustrator 17.0.0, SVG Export Plug-In . SVG Version: 6.00 Build 0)  -->
<!DOCTYPE svg PUBLIC "-//W3C//DTD SVG 1.1//EN" "http://www.w3.org/Graphics/SVG/1.1/DTD/svg11.dtd">
<svg version="1.1" id="Camada_1" xmlns="http://www.w3.org/2000/svg" xmlns:xlink="http://www.w3.org/1999/xlink" x="0px" y="0px"
	 width="1208px" height="1200px" viewBox="394.5 0 1208 1200" enable-background="new 394.5 0 1208 1200" xml:space="preserve">
<symbol  id="New_Symbol_8" viewBox="-219.904 -215.304 439.843 430.647">
	<g>
		<g>
			<polygon fill="#FFFFFF" stroke="#FFFFFF" stroke-miterlimit="10" points="219,-187.2 175.7,-160 175.7,-178.4 -183.1,-178.4 
				-183.1,171 -164.7,171 -191.8,214.4 -219,171 -200.6,171 -200.6,-196 175.7,-196 175.7,-214.4 			"/>
			<path fill="#FFFFFF" stroke="#FFFFFF" stroke-width="7" stroke-miterlimit="10" d="M-156.3-88.1l73.2,95.9
				c6.3-4.5,13.9-7.2,22.3-7.2c10.3,0,19.6,4.1,26.5,10.7l49.8-50.8c-4.3-6.2-6.9-13.8-6.9-21.9c0-21.2,17.2-38.4,38.4-38.4
				s38.4,17.2,38.4,38.4c0,11.6-5.3,21.9-13.4,28.9l71.4,124.2c5.1-2.4,10.6-3.9,16.6-3.9c21.2,0,38.4,17.2,38.4,38.4
				s-17.2,38.4-38.4,38.4s-38.4-17.2-38.4-38.4c0-12.1,5.7-22.8,14.5-29.8l-71.3-124C59.3-24.8,53.3-23,46.9-23
				c-9.9,0-18.8-3.8-25.6-10l-50.1,51c3.9,6,6.2,13.2,6.2,20.9c0,21.2-17.2,38.4-38.4,38.4s-38.4-17.2-38.4-38.4
				c0-9.7,3.7-18.5,9.7-25.2l-73.7-96.5L-156.3-88.1z M159.9,147.1c11.5,0,20.9-9.4,20.9-20.9s-9.4-20.9-20.9-20.9
				s-20.9,9.4-20.9,20.9S148.3,147.1,159.9,147.1z M46.9-40.6c11.5,0,20.9-9.4,20.9-20.9s-9.3-20.9-20.9-20.9
				C35.4-82.3,26-72.9,26-61.4S35.4-40.6,46.9-40.6z M-60.9,59.8c11.5,0,20.8-9.4,20.8-20.9S-49.4,18-60.9,18s-20.9,9.4-20.9,20.9
				S-72.4,59.8-60.9,59.8z"/>
		</g>
	</g>
</symbol>
<use xlink:href="#New_Symbol_8"  width="439.843" height="430.647" id="XMLID_1_" x="-219.904" y="-215.304" transform="matrix(2.678 0 0 -2.678 1000.165 601.2333)" overflow="visible"/>
</svg>
