<?xml version="1.0" encoding="utf-8"?>
<!-- Generator: Adobe Illustrator 19.0.0, SVG Export Plug-In . SVG Version: 6.00 Build 0)  -->
<svg version="1.1" id="Capa_1" xmlns="http://www.w3.org/2000/svg" xmlns:xlink="http://www.w3.org/1999/xlink" x="0px" y="0px"
	 viewBox="-282 373 47 47" style="enable-background:new -282 373 47 47;" xml:space="preserve">
<style type="text/css">
	.st0{fill:#FFFFFF;}
</style>
<g>
	<g>
		<path class="st0" d="M-244.9,392.7c-0.8,0-1.5,0.7-1.5,1.5v1.5h3v-1.5C-243.4,393.4-244.1,392.7-244.9,392.7z"/>
		<path class="st0" d="M-240.8,385.6h-35.5c-3.2,0-5.8,2.6-5.8,5.8v10.2c0,3.2,2.6,5.8,5.8,5.8h35.5c3.2,0,5.8-2.6,5.8-5.8v-10.2
			C-235,388.2-237.6,385.6-240.8,385.6z M-269.4,398.1l1.4,1.5l-2.4,1.8l-1-1.8c-0.1-0.3-0.4-0.8-0.7-1.5c-0.3,0.8-0.6,1.3-0.7,1.5
			l-1,1.8l-2.5-1.8l1.5-1.5c0.4-0.4,0.8-0.8,1.2-1.1c-0.4,0-0.9-0.1-1.6-0.2l-2.1-0.3l1-2.8l1.9,0.8c0.2,0.1,0.7,0.4,1.5,0.8
			c-0.2-0.7-0.3-1.3-0.3-1.7l-0.3-2h2.9l-0.2,2c-0.1,0.5-0.2,1-0.3,1.7c0.3-0.2,0.6-0.3,0.7-0.3c0.4-0.2,0.7-0.4,0.9-0.4l1.9-0.9
			l0.9,2.8l-2,0.4c-0.4,0.1-0.9,0.1-1.7,0.1C-270.1,397.4-269.7,397.8-269.4,398.1z M-255.9,398.1l1.4,1.5l-2.4,1.8l-1-1.8
			c-0.1-0.3-0.4-0.8-0.7-1.5c-0.4,0.8-0.6,1.3-0.7,1.5l-1,1.8l-2.5-1.8l1.5-1.5c0.4-0.4,0.8-0.8,1.2-1.1c-0.4,0-0.9-0.1-1.6-0.2
			l-2.1-0.3l1-2.8l1.9,0.8c0.2,0.1,0.7,0.4,1.5,0.8c-0.2-0.7-0.3-1.3-0.3-1.7l-0.3-2h2.9l-0.2,2c-0.1,0.5-0.2,1-0.3,1.7
			c0.3-0.2,0.6-0.3,0.7-0.3c0.4-0.2,0.7-0.4,0.9-0.4l1.9-0.9l0.9,2.8l-2.1,0.4c-0.4,0.1-0.9,0.1-1.7,0.1
			C-256.5,397.4-256.2,397.8-255.9,398.1z M-240.6,400.6c0,0.6-0.5,1.1-1.1,1.1h-6.3c-0.6,0-1.1-0.5-1.1-1.1v-3.8
			c0-0.6,0.5-1.1,1.1-1.1h0.2v-1.5c0-1.7,1.3-3,3-3c1.7,0,3,1.3,3,3v1.5h0.2c0.6,0,1.1,0.5,1.1,1.1L-240.6,400.6L-240.6,400.6z"/>
	</g>
</g>
</svg>
