<?xml version="1.0" encoding="utf-8"?>
<!-- Generator: Adobe Illustrator 19.0.0, SVG Export Plug-In . SVG Version: 6.00 Build 0)  -->
<svg version="1.1" id="Capa_1" xmlns="http://www.w3.org/2000/svg" xmlns:xlink="http://www.w3.org/1999/xlink" x="0px" y="0px"
	 viewBox="-235 326.8 140.2 140.2" style="enable-background:new -235 326.8 140.2 140.2;" xml:space="preserve">
<style type="text/css">
	.st0{fill:#FFFFFF;}
</style>
<path class="st0" d="M-115.9,417.9c11.6,0,21-9.4,21-21c0-11.6-9.4-21-21-21c-9.2,0-16.9,5.9-19.8,14h-38.1l44.6-25.8
	c3.6,3,8.3,4.7,13.3,4.7c11.6,0,21-9.4,21-21c0-11.6-9.4-21-21-21c-11.6,0-21,9.4-21,21c0,1.5,0.2,2.9,0.4,4.3l-59.4,34.3
	c-3.6-6.3-10.4-10.5-18.2-10.5c-11.6,0-21,9.4-21,21c0,11.6,9.4,21,21,21c7.8,0,14.5-4.3,18.2-10.5l59.4,34.3
	c-0.3,1.4-0.4,2.8-0.4,4.3c0,11.6,9.4,21,21,21c11.6,0,21-9.4,21-21c0-11.6-9.4-21-21-21c-5.1,0-9.7,1.8-13.3,4.7l-44.6-25.8h38.1
	C-132.8,412.1-125,417.9-115.9,417.9z M-115.9,389.9c3.9,0,7,3.1,7,7c0,3.9-3.1,7-7,7s-7-3.1-7-7
	C-122.9,393-119.7,389.9-115.9,389.9z M-115.9,340.8c3.9,0,7,3.1,7,7c0,3.9-3.1,7-7,7s-7-3.1-7-7
	C-122.9,344-119.7,340.8-115.9,340.8z M-214,403.9c-3.9,0-7-3.1-7-7c0-3.9,3.1-7,7-7s7,3.1,7,7C-207,400.8-210.1,403.9-214,403.9z
	 M-115.9,439c3.9,0,7,3.1,7,7c0,3.9-3.1,7-7,7s-7-3.1-7-7C-122.9,442.1-119.7,439-115.9,439z"/>
</svg>
