<?xml version="1.0" encoding="utf-8"?>
<!-- Generator: Adobe Illustrator 17.0.0, SVG Export Plug-In . SVG Version: 6.00 Build 0)  -->
<!DOCTYPE svg PUBLIC "-//W3C//DTD SVG 1.1//EN" "http://www.w3.org/Graphics/SVG/1.1/DTD/svg11.dtd">
<svg version="1.1" id="Camada_1" xmlns="http://www.w3.org/2000/svg" xmlns:xlink="http://www.w3.org/1999/xlink" x="0px" y="0px"
	 width="1100px" height="1100px" viewBox="448.315 46.291 1100 1100" enable-background="new 448.315 46.291 1100 1100"
	 xml:space="preserve">
<symbol  id="voltar" viewBox="-20 -20 40 40">
	<g>
		<g>
			<path fill="#010101" d="M0-20c-11,0-20,9-20,20s9,20,20,20s20-9,20-20S11-20,0-20z M0,18.6c-10.3,0-18.6-8.4-18.6-18.6
				c0-10.3,8.4-18.6,18.6-18.6S18.6-10.3,18.6,0S10.3,18.6,0,18.6z"/>
			<path fill="#010101" d="M2.3-7C2.1-7,2-7,1.8-6.8l-6.6,6.6c-0.3,0.3-0.3,0.7,0,1l6.6,6.6c0.3,0.3,0.7,0.3,1,0s0.3-0.7,0-1
				l-6.1-6.2L2.8-6c0.3-0.3,0.3-0.7,0-1C2.7-7,2.5-7,2.3-7z"/>
		</g>
	</g>
</symbol>
<use xlink:href="#voltar"  width="40" height="40" id="XMLID_1_" x="-20" y="-20" transform="matrix(27.0186 0 0 -27.0186 998.3147 596.2911)" overflow="visible"/>
</svg>
