<?xml version="1.0" encoding="utf-8"?>
<!-- Generator: Adobe Illustrator 17.0.0, SVG Export Plug-In . SVG Version: 6.00 Build 0)  -->
<!DOCTYPE svg PUBLIC "-//W3C//DTD SVG 1.1//EN" "http://www.w3.org/Graphics/SVG/1.1/DTD/svg11.dtd">
<svg version="1.1" id="Layer_1" xmlns="http://www.w3.org/2000/svg" xmlns:xlink="http://www.w3.org/1999/xlink" x="0px" y="0px"
	 width="400px" height="232.163px" viewBox="0 0 400 232.163" enable-background="new 0 0 400 232.163" xml:space="preserve">
<g>
	<path fill-rule="evenodd" clip-rule="evenodd" fill="#FFFFFF" d="M20.988,112.622c1.244,0.577,2.477,1.084,3.711,1.53
		c-1.359,0.81-2.271,2.302-2.271,4.008c0,2.571,2.068,4.654,4.62,4.654c2.551,0,4.619-2.084,4.619-4.654
		c0-0.8-0.2-1.552-0.553-2.209c1.686,0.349,3.414,0.619,5.215,0.833l0.152,0.018c-3.036,1.379-5.118,4.211-5.118,7.481
		c0,4.625,4.165,8.375,9.303,8.375c5.138,0,9.303-3.749,9.303-8.375c0-2.485-1.202-4.716-3.111-6.25l8.072,0.958
		c-1.526,0.756-2.575,2.338-2.575,4.167c0,2.564,2.063,4.642,4.607,4.642c2.544,0,4.607-2.078,4.607-4.642
		c0-1.439-0.65-2.726-1.671-3.578l40.164,4.767l-6.906,5.611c0,0-24.543-1.753-34.901-0.17
		c-19.539,2.985-33.439,19.267-37.897-11.34c0.913,8.962,0.722,18.069,10.322,19.925c11.556,2.234,15.595-4.146,27.86-6.04
		c7.806-1.205,18.012-1.277,34.186,0.07c1.726,0.144,12.948-9.927,12.948-9.927L20.988,112.622z"/>
	<path fill-rule="evenodd" clip-rule="evenodd" fill="#FFFFFF" d="M379.012,112.622c-1.244,0.577-2.477,1.084-3.711,1.53
		c1.359,0.81,2.271,2.302,2.271,4.008c0,2.571-2.068,4.654-4.619,4.654c-2.551,0-4.619-2.084-4.619-4.654
		c0-0.8,0.2-1.552,0.553-2.209c-1.686,0.349-3.414,0.619-5.215,0.833l-0.152,0.018c3.036,1.379,5.118,4.211,5.118,7.481
		c0,4.625-4.165,8.375-9.303,8.375c-5.138,0-9.303-3.749-9.303-8.375c0-2.485,1.202-4.716,3.111-6.25l-8.072,0.958
		c1.525,0.756,2.575,2.338,2.575,4.167c0,2.564-2.063,4.642-4.607,4.642c-2.544,0-4.607-2.078-4.607-4.642
		c0-1.439,0.65-2.726,1.671-3.578l-40.164,4.767l6.906,5.611c0,0,24.543-1.753,34.901-0.17c19.539,2.985,33.439,19.267,37.898-11.34
		c-0.913,8.962-0.722,18.069-10.322,19.925c-11.556,2.234-15.595-4.146-27.86-6.04c-7.806-1.205-18.012-1.277-34.186,0.07
		c-1.726,0.144-12.948-9.927-12.948-9.927L379.012,112.622z"/>
	<path fill-rule="evenodd" clip-rule="evenodd" fill="#FFFFFF" d="M127.039,119.455c-1.726,0.288-17.629,13.106-19.567,17.84
		c-1.246,3.043,10.976,45.708,23.163,67.476c0,0-20.07-60.282-19.926-65.318c0.144-5.035,15.395-16.69,18.416-17.409
		c2.933-0.699,50.279-3.057,70.875-2.465v-3.728C182.153,115.757,143.363,115.353,127.039,119.455z"/>
	<path fill-rule="evenodd" clip-rule="evenodd" fill="#FFFFFF" d="M272.962,119.455c1.726,0.288,17.629,13.106,19.567,17.84
		c1.246,3.043-10.976,45.708-23.163,67.476c0,0,20.07-60.282,19.926-65.318c-0.144-5.035-15.395-16.69-18.416-17.409
		c-2.934-0.699-50.279-3.057-70.875-2.465v-3.728C217.847,115.757,256.637,115.353,272.962,119.455z"/>
	<path fill-rule="evenodd" clip-rule="evenodd" fill="#FFFFFF" d="M127.616,149.735H200h72.384
		c-23.498,2.015-47.911,2.622-72.384,2.78C175.527,152.357,151.114,151.75,127.616,149.735z"/>
	<path fill-rule="evenodd" clip-rule="evenodd" fill="#FFFFFF" d="M126.753,139.808H200h73.247
		c-23.774,2.038-48.485,2.636-73.247,2.786C175.238,142.444,150.527,141.846,126.753,139.808z"/>
	<path fill-rule="evenodd" clip-rule="evenodd" fill="#FFFFFF" d="M126.613,128.482H200h73.387
		c-23.819,2.042-48.578,2.638-73.387,2.787C175.191,131.12,150.432,130.524,126.613,128.482z"/>
	<path fill-rule="evenodd" clip-rule="evenodd" fill="#FFFFFF" d="M128.479,182.752H200h71.521
		c-23.222,1.991-47.337,2.607-71.521,2.775C175.816,185.359,151.701,184.743,128.479,182.752z"/>
	<path fill-rule="evenodd" clip-rule="evenodd" fill="#FFFFFF" d="M127.616,172.824H200h72.384
		c-23.498,2.015-47.911,2.622-72.384,2.781C175.527,175.446,151.114,174.839,127.616,172.824z"/>
	<path fill-rule="evenodd" clip-rule="evenodd" fill="#FFFFFF" d="M127.476,161.499H200h72.524
		c-23.543,2.018-48.004,2.624-72.524,2.782C175.48,164.123,151.019,163.517,127.476,161.499z"/>
	<path fill-rule="evenodd" clip-rule="evenodd" fill="#FFFFFF" d="M15.612,202.689c8.384,4.274,68.171,12.202,80.783,14.303
		c4.825,0.804,29.394-7.179,32.155-7.409c2.761-0.23,41.305,1.413,71.45,1.385c30.145,0.027,68.689-1.615,71.45-1.385
		c2.761,0.23,27.331,8.213,32.155,7.409c12.612-2.102,72.398-10.03,80.783-14.303c2.543-9.597,1.302-21.29-2.92-27.097
		c-3.453-4.747-93.822,5.724-96.107,5.899c0,0,1.679,0.133,3.589-0.012c14.83-1.124,79.824-6.198,90.54-4.988
		c2.94,0.332,6.324,18.916,3.308,24.652c-23.147,6.557-55.812,10.342-79.445,12.755c-0.895,0.091-27.006-7.553-31.976-7.553
		l-71.378,0l-71.378,0c-4.969,0-31.081,7.644-31.976,7.553c-23.633-2.413-56.298-6.198-79.445-12.755
		c-3.016-5.736,0.368-24.32,3.308-24.652c10.716-1.211,75.71,3.864,90.54,4.988c1.91,0.145,3.589,0.012,3.589,0.012
		c-2.284-0.175-92.654-10.646-96.107-5.899C14.309,181.399,13.069,193.092,15.612,202.689z"/>
	<path fill-rule="evenodd" clip-rule="evenodd" fill="#FFFFFF" d="M97.401,136.136l9.496,37.982c0,0-4.654-12.685-7.218-19.753
		c0,0-73.433-10.221-74.818-10.497c-1.385-0.277,64.478,6.722,74.37,7.711C99.174,149.883,97.401,136.136,97.401,136.136z"/>
	<path fill-rule="evenodd" clip-rule="evenodd" fill="#FFFFFF" d="M302.599,136.136l-9.496,37.982c0,0,4.654-12.685,7.218-19.753
		c0,0,73.433-10.221,74.818-10.497c1.385-0.277-64.478,6.722-74.37,7.711C300.826,149.883,302.599,136.136,302.599,136.136z"/>
	<path fill-rule="evenodd" clip-rule="evenodd" fill="#FFFFFF" d="M0,148.22c1.435,13.203,2.88,73.255,18.011,75.963
		c20.097,3.598,78.352,3.885,181.989,4.673c103.637-0.789,161.892-1.076,181.989-4.673c15.131-2.709,16.576-62.76,18.01-75.963
		c-0.829,13.517-2.076,72.64-14.892,79.848c-3.395,1.91-122.692,3.428-185.108,4.094c-62.416-0.666-181.713-2.184-185.108-4.094
		C2.076,220.86,0.829,161.737,0,148.22z"/>
	<path fill-rule="evenodd" clip-rule="evenodd" fill="#FFFFFF" d="M61.109,77.649c-8.322,1.863-23.233,5.341-44.348,21.007
		c16.286-9.408,19.448-11.545,44.893-18.482c4.374-1.193,12.731,3.879,16.71,8.132c0.833,0.891-1.752-4.613-1.752-4.613
		c-3.637-8.073,80.033-7.83,123.388-8.45c43.355,0.62,127.025,0.377,123.388,8.45c0,0-2.585,5.503-1.752,4.613
		c3.979-4.253,12.336-9.325,16.71-8.132c25.446,6.937,28.607,9.074,44.893,18.482c-21.115-15.666-36.027-19.144-44.348-21.007
		c0,0-8.887-0.25-14.211,6.44c2.314-4.38,4.594-6.748,4.594-6.748c6.497-10.568-265.052-10.575-258.549,0
		c0,0,2.281,2.368,4.594,6.748C69.996,77.399,61.109,77.649,61.109,77.649z"/>
	<path fill-rule="evenodd" clip-rule="evenodd" fill="#FFFFFF" d="M7.782,67.028C6.429,65.553,2.412,57.4,3.995,56.393
		c1.583-1.007,23.919-4.928,27.659-5.215c3.741-0.288,6.915-0.64,7.994,0.655c1.079,1.295,8.048,14.739,7.976,14.163
		c-0.072-0.575-4.955-14.395-7.832-16.553c-2.028-1.521-39.682,2.86-39.384,7.349c0.072,1.079,3.335,10.319,5.349,11.83
		c2.014,1.511,45.104,5.575,45.104,5.575c6.686-11.518,39.446-63.405,50.91-65.926c5.416-1.191,51.88-2.693,97.867-3.047L200,5.221
		l0.361,0.003c45.987,0.353,92.452,1.855,97.867,3.047c11.464,2.521,44.224,54.408,50.91,65.926c0,0,43.09-4.064,45.104-5.575
		c2.014-1.511,5.277-10.751,5.349-11.83c0.299-4.489-37.356-8.869-39.384-7.349c-2.877,2.158-7.76,15.977-7.832,16.553
		c-0.072,0.576,6.897-12.868,7.976-14.163c1.079-1.295,4.253-0.943,7.994-0.655c3.741,0.288,26.077,4.208,27.659,5.215
		c1.583,1.007-2.434,9.159-3.787,10.634s-42.007,4.196-42.474,3.467c-10.777-16.823-32.992-58.201-49.492-64.527
		C284.82,0.051,241.668-0.471,200,0.253c-41.668-0.724-84.82-0.202-100.253,5.714c-16.499,6.326-38.714,47.703-49.491,64.527
		C49.788,71.224,9.134,68.503,7.782,67.028z"/>
</g>
</svg>
