<?xml version="1.0" encoding="utf-8"?>
<!-- Generator: Adobe Illustrator 16.0.0, SVG Export Plug-In . SVG Version: 6.00 Build 0)  -->
<!DOCTYPE svg PUBLIC "-//W3C//DTD SVG 1.1//EN" "http://www.w3.org/Graphics/SVG/1.1/DTD/svg11.dtd">
<svg version="1.1" xmlns="http://www.w3.org/2000/svg" xmlns:xlink="http://www.w3.org/1999/xlink" x="0px" y="0px" width="571px"
	 height="167px" viewBox="0 0 571 167" enable-background="new 0 0 571 167" xml:space="preserve">
<g id="Layer_2" display="none">
	<rect x="-177" y="-77" display="inline" fill-rule="evenodd" clip-rule="evenodd" fill="#CCCCCC" width="908" height="238"/>
</g>
<g id="Layer_1">
	<g>
		<path fill="#FEFEFE" d="M58.941,77.809c-7.29,1.356-14.575,2.739-21.875,4.036c-0.959,0.17-1.112,0.537-1.108,1.384
			c0.041,8.785,0.047,17.57,0.062,26.355c-0.109,0.048-0.213,0.123-0.326,0.141c-7.138,1.131-14.262,2.37-21.424,3.323
			c-2.42,0.322-4.243,0.987-5.097,3.393c0.005,0.067,0.01,0.135,0.015,0.203c0.027-0.012,0.072-0.017,0.079-0.036
			c0.043-0.127-0.026-0.173-0.142-0.177c0.404,0.319,0.738-0.025,1.097-0.119c1.46-0.38,2.799-1.141,4.338-1.291
			c3.538-0.346,7.071-0.753,10.609-1.104c3.615-0.358,7.235-0.678,10.853-1.015c0.007,2.665,0.002,5.33,0.022,7.994
			c0.023,3.139,0.067,6.277,0.103,9.416c-0.121,0.245-0.336,0.305-0.589,0.337c-5.546,0.721-11.091,1.445-16.635,2.174
			c-2.024,0.266-4.047,0.543-6.253,0.842c0.882,0.979,1.636,1.748,2.309,2.584c0.451,0.561,0.832,0.623,1.489,0.299
			c1.958-0.965,3.892-2.039,6.19-1.986c0.675,0.016,1.354-0.1,2.031-0.166c7.755-0.764,15.51-1.531,23.265-2.293
			c6.88-0.678,13.762-1.346,20.642-2.021c7.755-0.764,15.509-1.531,23.264-2.297c6.999-0.69,13.998-1.387,20.998-2.07
			c4.529-0.441,9.051-1.045,13.591-1.258c8.507-0.396,17.024-0.559,25.537-0.825c22.501-0.704,45.002-1.394,67.5-2.161
			c1.459-0.05,3.158,0.893,4.315-0.178c1.066-0.986,1.583-2.556,2.387-3.84c0.347-0.554,0.321-0.803-0.3-1.168
			c-2.503-1.475-5.079-2.375-8.057-1.785c-1.163,0.231-2.391,0.125-3.589,0.189c-0.372,0.02-0.688-0.026-1.003-0.268
			c-2.787-2.142-5.585-4.268-8.38-6.398c0.01-3.325,0.021-6.65,0.031-9.975c0.518-0.025,1.037-0.094,1.552-0.07
			c7.087,0.342,14.217-0.008,21.245,1.269c0.748,0.136,1.063-0.091,1.32-0.755c0.401-1.038,0.833-2.074,1.372-3.044
			c0.446-0.803,0.18-1.049-0.577-1.317c-1.348-0.478-2.675-1.029-3.975-1.628c-1.188-0.547-2.4-0.742-3.702-0.719
			c-5.744,0.1-11.488-0.353-17.232-0.011c0-14.512,0-29.023,0-43.627c-5.469,1.004-10.802,1.993-16.139,2.958
			c-3.415,0.618-6.837,1.203-10.255,1.802c-0.004-0.56-0.011-1.12-0.011-1.68c0-14.239-0.006-28.479,0.014-42.718
			c0.001-0.898-0.074-1.24-1.167-1.022c-4.175,0.83-8.381,1.506-12.569,2.274c-7.241,1.328-14.476,2.691-21.717,4.019
			c-7.163,1.314-14.333,2.588-21.496,3.907c-6.693,1.232-13.375,2.519-20.068,3.749c-7.75,1.423-15.507,2.804-23.259,4.213
			c-5.951,1.082-11.896,2.197-17.853,3.252c-1.074,0.19-1.467,0.563-1.463,1.756C58.958,46.37,58.941,62.089,58.941,77.809z"/>
		<path fill="#FEFEFE" d="M161.741,136.525c0.291-0.408,0.595-0.289,0.846-0.297c4.432-0.17,8.864-0.328,13.296-0.488
			c6.588-0.24,13.176-0.49,19.765-0.715c5.951-0.203,11.904-0.367,17.855-0.57c3.753-0.127,7.505-0.299,11.258-0.43
			c0.485-0.018,0.812-0.135,1.05-0.602c0.998-1.959,2.019-3.905,3.058-5.842c0.259-0.482,0.215-0.753-0.273-1.061
			c-1.318-0.83-2.669-1.635-3.875-2.611c-1.139-0.922-2.347-1.01-3.701-0.888c-3.697,0.335-7.398,0.623-11.099,0.914
			c-4.458,0.351-8.918,0.675-13.375,1.028c-5.651,0.447-11.299,0.921-16.95,1.367c-4.498,0.355-8.999,0.673-13.496,1.031
			c-6.565,0.522-13.128,1.078-19.694,1.6c-5.412,0.429-10.827,0.833-16.242,1.232c-0.487,0.035-0.817,0.22-1.085,0.617
			c-0.914,1.361-1.817,2.729-2.784,4.051c-0.494,0.676-0.342,0.883,0.416,1.102c2.408,0.697,4.794,1.471,7.295,2.246
			c-1.056,0.502-2.076,0.334-3.054,0.432c-4.725,0.475-9.452,0.926-14.18,1.373c-4.569,0.432-9.141,0.842-13.711,1.275
			c-4.728,0.447-9.454,0.916-14.182,1.359c-4.609,0.434-9.222,0.842-13.831,1.275c-5.642,0.531-11.283,1.07-16.923,1.617
			c-3.456,0.336-6.946,0.484-10.356,1.082c-7.778,1.359-15.531,2.879-23.266,4.467c-3.889,0.799-7.918,1.043-11.581,2.84
			c-2.172,1.064-4.43,1.957-6.649,2.928c0.201,0.17,0.354,0.191,0.498,0.166c9.111-1.613,18.222-3.232,27.333-4.848
			c3.416-0.605,6.812-1.492,10.255-1.746c7.885-0.586,15.792-0.861,23.691-1.264c6.144-0.312,12.286-0.631,18.429-0.945
			c7.978-0.406,15.957-0.809,23.935-1.215c6.183-0.314,12.366-0.635,18.549-0.949c7.979-0.404,15.957-0.811,23.935-1.211
			c5.106-0.256,10.213-0.512,15.321-0.736c0.664-0.027,0.916-0.219,0.896-0.902c-0.042-1.398-0.056-2.801,0.003-4.197
			c0.035-0.82-0.272-1.078-1.063-1.211C165.963,137.445,163.893,136.969,161.741,136.525z"/>
		<path fill="#FEFEFE" d="M266.985,96.415c0.068-0.159,0.078-0.256,0.128-0.287c0.204-0.123,0.417-0.229,0.632-0.333
			c4.714-2.279,8.917-5.293,12.689-8.908c1.392-1.334,2.572-2.853,3.265-4.682c0.957-2.524,0.523-4.784-1.378-6.729
			c-1.395-1.426-3.105-2.368-4.918-3.13c-4.496-1.888-9.242-2.779-14.046-3.347c-10.246-1.212-20.503-1.265-30.753-0.02
			c-2.89,0.351-5.793,0.724-8.453,2.04c-2.382,1.178-2.928,4.228-1.13,6.169c0.981,1.059,2.221,1.663,3.579,2.079
			c1.111,0.341,2.111,0.214,3.044-0.519c0.956-0.751,2.07-1.169,3.247-1.465c2.405-0.605,4.842-1.036,7.3-1.333
			c9.041-1.092,18.102-1.278,27.173-0.467c2.303,0.206,4.622,0.408,6.837,1.154c2.909,0.979,3.226,2.596,0.92,4.648
			c-1.445,1.286-3.112,2.229-4.841,3.066c-6.411,3.105-13.152,5.126-20.233,5.899c-2.575,0.281-5.216,0.432-7.691-0.607
			c-1.057-0.443-1.659-0.173-2.157,0.738c-0.668,1.224-1.18,2.537-2.049,3.646c-0.208,0.265-0.159,0.499-0.052,0.777
			c0.485,1.265,0.948,2.538,1.435,3.802c0.493,1.28,1.463,1.846,2.809,1.796c0.678-0.025,1.358-0.057,2.032-0.132
			c2.186-0.243,4.369-0.485,6.577-0.369c5.518,0.289,10.803,1.688,15.965,3.516c17.469,6.186,33.656,14.911,49.119,25.043
			c0.398,0.262,0.74,0.601,1.288,0.505c1.596-0.28,3.105-0.763,4.342-1.861c1.328-1.179,1.519-2.518,0.619-4.08
			c-0.671-1.166-1.638-2.062-2.677-2.881c-3.158-2.487-6.711-4.305-10.314-6.029c-4.065-1.944-8.23-3.66-12.413-5.33
			c-0.725-0.29-0.962-0.532-0.502-1.324c0.749-1.29,0.997-2.763,1.18-4.237c0.821-6.609-0.007-13.175-0.569-19.742
			c-0.158-1.848-1.979-3.179-3.643-2.913c-1.578,0.253-2.957,0.964-4.088,2.101c-0.786,0.79-1.051,1.668-0.723,2.83
			c1.891,6.692,2.965,13.474,1.906,20.526C282.833,102.367,275.018,99.134,266.985,96.415z"/>
		<path fill="#FEFEFE" d="M370.021,82.36c0.588-0.628,1.143-1.143,1.606-1.729c1.527-1.932,1.49-4.002-0.076-5.901
			c-0.719-0.873-1.6-1.56-2.559-2.151c-1.708-1.054-3.55-1.807-5.455-2.416c-6.909-2.209-14.044-3.004-21.247-3.306
			c-3.316-0.139-6.638-0.113-9.931,0.437c-3.236,0.541-5.77,2.873-6.172,5.7c-0.283,1.988,0.809,3.743,2.578,3.958
			c1.631,0.199,3.271,0.074,4.892-0.216c0.399-0.071,0.824-0.165,1.067-0.492c1.089-1.471,2.756-1.688,4.351-1.978
			c6.419-1.168,12.821-0.788,19.197,0.375c2.433,0.443,4.865,0.934,7.057,2.169c0.596,0.336,1.225,0.748,1.203,1.517
			c-0.022,0.767-0.656,1.166-1.285,1.443c-2.146,0.948-4.351,1.326-6.63,0.504c-0.696-0.251-1.411-0.418-2.113-0.218
			c-2.13,0.606-4.125,1.511-5.717,3.101c-1.073,1.071-1.187,2.009-0.555,3.38c0.667,1.449,1.816,2.405,3.21,3.099
			c2.055,1.021,4.242,1.308,6.516,1.267c6.192-0.111,12.282,0.646,18.237,2.359c1.763,0.507,3.484,1.171,4.963,2.313
			c1.809,1.396,2.022,3.07,0.624,4.88c-0.872,1.129-2.023,1.92-3.26,2.592c-2.007,1.09-4.139,1.868-6.329,2.495
			c-8.542,2.449-17.313,3.354-26.142,3.882c-1.036,0.062-0.606-0.649-0.561-1.031c0.962-8.062,0.928-16.12-0.083-24.17
			c-0.213-1.699-0.53-3.398-0.964-5.054c-0.517-1.97-2.642-3.088-4.027-2.152c-1.459,0.986-2.768,2.176-3.686,3.72
			c-0.523,0.88-0.655,1.793-0.155,2.733c4.396,8.263,4.465,16.997,2.827,25.918c-0.077,0.418-0.171,0.763-0.701,0.804
			c-3.391,0.267-6.814,0.624-10.176,0.156c-3.23-0.45-5.63,0.542-7.558,3.014c-1.363,1.748-1.245,2.714,0.372,4.22
			c1.186,1.104,2.586,1.467,4.166,1.5c7.052,0.146,14.067-0.348,21.067-1.137c8.345-0.942,16.607-2.336,24.645-4.831
			c4.97-1.542,9.823-3.388,13.892-6.778c5.754-4.794,5.801-12.086,0.152-17.005c-2.009-1.75-4.307-3.015-6.747-4.048
			C377.169,83.865,373.663,83.02,370.021,82.36z"/>
		<path fill="#FEFEFE" d="M400.538,88.341c-0.285-0.572-0.212-1.103-0.251-1.609c-0.268-3.473-2.354-5.379-5.807-5.281
			c-2.919,0.083-3.439,0.664-2.513,3.4c1.8,5.316,2.316,10.825,2.785,16.359c0.242,2.858,0.318,5.751,1.151,8.53
			c0.399,1.333,0.802,1.54,2.114,1.179c2.395-0.658,3.552-2.439,4.129-4.691c0.701-2.734,0.687-5.539,0.759-8.335
			c0.06-2.315,0.108-4.638,0.691-6.9c0.837-3.247,2.702-4.54,6.062-4.186c0.675,0.071,1.301-0.021,1.817-0.42
			c1.927-1.488,2.888-3.497,2.871-5.908c-0.01-1.368-0.833-1.998-2.208-1.904c-1.015,0.069-1.938,0.448-2.814,0.938
			c-2.844,1.589-5.103,3.812-6.973,6.458C401.789,86.769,401.33,87.655,400.538,88.341z"/>
		<path fill="#FEFEFE" d="M297.056,71.504c0.051-1.021-0.117-2-0.564-2.911c-1.006-2.05-3.741-2.868-5.486-1.66
			c-2.319,1.606-2.837,5.503-0.872,7.511c0.674,0.689,0.951,1.403,1.108,2.263c0.072,0.39,0.147,0.784,0.268,1.161
			c0.484,1.516,1.254,1.739,2.42,0.647C295.95,76.623,296.899,74.233,297.056,71.504z"/>
		<path fill="#FEFEFE" d="M427.73,123.258c-1.079-0.778-1.186-2.382-2.824-2.204c-1.335,0.146-1.454,1.44-2.315,2.198
			c1.061,0.221,1.788,0.185,2.209-0.747c0.182-0.401,0.516-0.349,0.688,0.046C425.903,123.495,426.657,123.436,427.73,123.258z"/>
		<path fill-rule="evenodd" clip-rule="evenodd" fill="#020202" d="M9.161,116.435c0.867-2.4,2.69-3.065,5.11-3.387
			c7.162-0.953,14.286-2.191,21.424-3.323c0.113-0.018,0.217-0.093,0.326-0.141c3.036-0.454,6.066-0.948,9.108-1.345
			c1.427-0.186,2.745-0.454,3.611-1.749c0.238-0.356,0.677-0.405,1.05-0.527c1.099-0.358,2.236-0.619,3.3-1.06
			c0.932-0.386,1.567-0.228,2.137,0.58c0.443,0.629,0.938,1.056,1.881,0.894c4.401-0.757,8.814-1.444,13.231-2.109
			c0.785-0.118,1.075-0.356,1.027-1.203c-0.182-3.268-0.278-6.542-0.415-9.812c-0.243-5.823-0.493-11.646-0.739-17.47
			c-0.133-3.912-0.305-7.823-0.377-11.736c-0.025-1.35-0.027-2.557-2.03-2.547c1.934-0.931,1.899-0.93,1.817-2.931
			c-0.284-6.947-0.544-13.895-0.802-20.842c-0.014-0.37-0.207-0.836,0.271-1.076c2.193-1.1,4.393-2.188,6.592-3.28
			c0,4.882,0,9.628,0,14.442c3.812-1.205,7.678-2.439,11.555-3.64c0.597-0.185,0.542-0.577,0.514-1.017
			c-0.147-2.353-0.272-4.707-0.454-7.057c-0.053-0.686,0.107-1.076,0.777-1.375c1.709-0.764,3.397-1.579,5.055-2.449
			c0.925-0.485,1.014-0.167,0.994,0.697c-0.087,3.635-0.086,7.273-0.194,10.907c-0.024,0.825,0.245,1.221,0.966,1.516
			c0.744,0.304,1.518,0.587,2.095,1.065c-0.96,1.001-1.841,1.985-2.801,2.884c-0.311,0.291-0.384,0.551-0.384,0.917
			c-0.002,1.997-0.013,3.994-0.021,5.991c-0.017,0.279-0.044,0.557-0.05,0.836c-0.215,12.387-0.467,24.773-0.599,37.161
			c-0.019,1.787-1.011,2.765-2.104,4.095c-0.05-0.379-0.08-0.526-0.088-0.675c-0.265-4.587-0.526-9.174-0.792-13.761
			c-0.405-6.979-0.822-13.959-1.207-20.94c-0.042-0.747-0.297-0.742-0.881-0.521c-1.038,0.391-2.059,0.717-3.243,0.609
			c-2.863-0.262-5.742-0.352-8.613-0.525c-0.559-0.034-0.973-0.082-0.974,0.735c-0.002,3.875-0.286,7.747-0.175,11.625
			c-0.044,1.035-0.107,2.069-0.13,3.104c-0.184,8.25-0.355,16.501-0.548,24.751c-0.015,0.631,0.158,0.88,0.812,0.756
			c1.369-0.258,2.744-0.485,4.117-0.725c2.762-0.415,5.542-0.737,8.278-1.282c1.507-0.3,3.354,0.191,4.401-1.524
			c0.053-0.086,0.301-0.057,0.459-0.073c0.676-0.07,1.383-0.035,2.021-0.228c1.453-0.439,2.816,0.593,4.296,0.097
			c1.93-0.647,3.853-0.366,5.677,0.539c0.268,0.133,0.711,0.14,0.574,0.601c-0.491,1.643-0.874,3.341-1.601,4.875
			c-0.229,0.483-0.291,0.567,0.027,0.891c4.176,4.249,8.35,8.499,12.514,12.759c0.328,0.335,0.636,0.553,1.142,0.467
			c1.179-0.199,2.366-0.355,3.55-0.528c1.65,0.309,2.569-0.438,3.377-1.882c2.259-4.039,4.692-7.98,7.057-11.959
			c1.217-2.048,2.436-4.095,3.705-6.228c-0.992-0.153-1.832-0.283-2.723-0.42c0.439-0.807,1.026-1.084,1.873-1.132
			c1.424-0.081,2.849-0.184,4.245-0.61c0.731-0.223,0.937-0.538,0.917-1.249c-0.092-3.271-0.173-6.543-0.202-9.816
			c-0.039-4.431-0.04-8.862-0.264-13.289c0.009-0.959,0.039-1.917,0.025-2.876c-0.157-11.271-0.269-22.542-0.53-33.81
			c-0.045-1.951,0.382-3.155,2.249-3.944c1.57-0.663,2.992-1.675,4.625-2.616c-0.209,4.712-0.397,9.182-0.616,13.65
			c-0.034,0.695,0.069,0.872,0.833,0.681c3.907-0.978,7.828-1.902,11.754-2.796c0.79-0.18,0.959-0.539,0.929-1.304
			c-0.116-2.955-0.153-5.913-0.221-8.87c-0.01-0.468-0.117-0.928,0.467-1.215c1.539-0.756,3.051-1.564,4.574-2.351
			c0.243-0.125,0.537-0.349,0.723,0c0.638,1.192,1.763,2.094,1.648,3.71c-0.548,7.732-1.007,15.471-1.476,23.209
			c-0.029,0.491-0.249,1.034,0.152,1.495c0.661,1.114,1.321,2.229,2.04,3.441c-0.475,0-0.804,0.056-1.106-0.01
			c-1.17-0.255-1.49,0.269-1.526,1.37c-0.086,2.594-0.282,5.185-0.434,7.777c-0.192,2.822-0.392,5.643-0.574,8.465
			c-0.251,3.899-0.417,7.806-0.768,11.696c-0.132,1.467-1.261,2.516-2.25,3.941c-0.215-8.021-0.419-15.635-0.623-23.25
			c-0.06-3.157-0.145-6.313-0.162-9.47c-0.005-0.838-0.511-0.742-1.022-0.758c-2.997-0.094-5.993-0.188-8.99-0.28
			c-1.742-0.053-3.014,1.142-4.519,1.718c-0.304,0.116-0.219,0.487-0.23,0.754c-0.148,3.593-0.289,7.186-0.431,10.779
			c-0.06,0.474-0.153,0.947-0.174,1.423c-0.335,7.456-0.667,14.912-0.985,22.369c-0.062,1.445-0.018,1.443,1.459,1.303
			c3.215-0.306,6.43-0.606,9.647-0.885c5.88-0.508,11.761-0.998,17.642-1.495c0.478-0.014,0.958-0.006,1.435-0.045
			c7.521-0.625,15.042-1.246,22.562-1.888c3.38-0.289,6.756-0.623,10.134-0.936c5.745-0.342,11.488,0.111,17.232,0.011
			c1.301-0.023,2.514,0.172,3.702,0.719c1.299,0.599,2.626,1.15,3.975,1.628c0.757,0.269,1.023,0.515,0.577,1.317
			c-0.539,0.97-0.971,2.006-1.372,3.044c-0.257,0.664-0.572,0.891-1.32,0.755c-7.028-1.277-14.158-0.927-21.245-1.269
			c-0.515-0.024-1.035,0.044-1.552,0.07c-4.159,0.097-8.318,0.194-12.666,0.295c0.252,0.299,0.313,0.404,0.402,0.472
			c4.076,3.071,8.155,6.139,12.233,9.208c2.795,2.13,5.594,4.256,8.38,6.398c0.315,0.242,0.631,0.288,1.003,0.268
			c1.198-0.064,2.426,0.042,3.589-0.189c2.978-0.59,5.554,0.31,8.057,1.785c0.621,0.365,0.647,0.614,0.3,1.168
			c-0.804,1.284-1.321,2.854-2.387,3.84c-1.157,1.071-2.856,0.128-4.315,0.178c-22.499,0.767-45,1.457-67.5,2.161
			c-8.513,0.267-17.03,0.429-25.537,0.825c-4.54,0.213-9.062,0.816-13.591,1.258c-7,0.684-13.999,1.38-20.998,2.07
			c-7.755,0.766-15.509,1.533-23.264,2.297c-6.88,0.676-13.762,1.344-20.642,2.021c-7.755,0.762-15.51,1.529-23.265,2.293
			c-0.676,0.066-1.355,0.182-2.031,0.166c-2.298-0.053-4.232,1.021-6.19,1.986c-0.657,0.324-1.038,0.262-1.489-0.299
			c-0.672-0.836-1.426-1.605-2.309-2.584c2.206-0.299,4.229-0.576,6.253-0.842c5.544-0.729,11.089-1.453,16.635-2.174
			c0.253-0.032,0.468-0.092,0.589-0.337c0.113-0.158,0.251-0.304,0.337-0.476c2.854-5.734,5.703-11.471,8.545-17.211
			c0.094-0.19,0.318-0.383,0.037-0.751c-2.967,0.337-6.006,0.683-9.044,1.029c-3.618,0.337-7.237,0.657-10.853,1.015
			c-3.538,0.351-7.071,0.758-10.609,1.104c-1.539,0.15-2.878,0.911-4.338,1.291c-0.359,0.094-0.693,0.438-1.097,0.119L9.161,116.435
			z M79.378,123.52c2.759-5.212,5.518-10.425,8.272-15.64c0.031-0.058-0.007-0.152-0.019-0.326
			c-2.778,0.302-5.552,0.603-8.325,0.904c-1.311,0.12-2.62,0.312-3.932,0.335c-0.925,0.016-1.199,0.378-1.092,1.225
			c0.363,2.891-0.824,5.33-2.372,7.971c-0.101-2.763-0.217-5.253-0.266-7.744c-0.015-0.775-0.235-1.061-1.045-0.961
			c-1.861,0.228-3.731,0.378-5.596,0.573c-1.527,0.159-3.053,0.336-4.579,0.506c-0.083,0.124-0.166,0.248-0.249,0.372
			c0.354,0.245,0.751,0.446,1.056,0.742c4.242,4.115,8.478,8.238,12.69,12.382c0.274,0.27,0.906,0.416,0.636,1.05
			c-1.419-0.661-2.593-1.867-4.311-1.864c-1.206,0.001-2.198-0.587-3.192-1.214c-4.727-2.983-9.485-5.918-14.205-8.913
			c-0.675-0.428-1.016-0.393-1.542,0.226c-4.629,5.452-9.299,10.869-13.943,16.307c-0.229,0.27-0.645,0.471-0.566,1.008
			c1.051-0.133,2.079-0.258,3.105-0.393c7.637-1.004,15.273-2.012,22.911-3.015c3.759-0.493,7.52-0.979,11.279-1.468
			c0.421-0.055,0.853-0.097,0.45-0.688c0.1-0.183,0.223-0.151,0.372-0.057C76.523,125.869,78.699,125.224,79.378,123.52z
			 M204.911,111.529c-6.063-3.096-12.126-6.191-18.189-9.287c-0.155,0.052-0.311,0.104-0.466,0.157
			c1.602,1.381,0.487,2.162-0.298,3.021c-3.048,3.333-6.096,6.664-9.133,10.005c-0.278,0.306-0.687,0.538-0.748,1.024
			c0.355,0.227,0.714,0.093,1.053,0.078c5.667-0.263,11.335-0.522,17.002-0.814c3.588-0.185,7.173-0.421,10.76-0.634
			c2.075,0.031,4.141-0.076,6.443-0.328c-2.084-1.06-3.927-1.999-5.771-2.934C205.353,111.709,205.129,111.625,204.911,111.529z
			 M170.786,99.04c-3.75,0.124-7.5,0.264-11.25,0.367c-4.593,0.126-9.188,0.211-13.78,0.336c-0.886,0.024-1.77,0.149-2.83,0.242
			c0.321,0.302,0.481,0.47,0.659,0.617c6.284,5.187,12.588,10.35,18.837,15.579c0.97,0.812,1.933,1.188,3.146,0.995
			c1.388-0.221,2.789-0.171,4.185-0.227c0.384-0.016,0.816,0.1,1.107-0.29c0.292-0.426,0.605-0.84,0.874-1.28
			c2.76-4.532,5.569-9.035,8.23-13.623c0.793-1.367,1.638-2.133,3.251-1.821c1.005,0.194,1.583-0.194,1.592-1.343
			C180.12,98.742,175.453,98.891,170.786,99.04z M113.182,120.425c-0.069-0.201-0.07-0.254-0.097-0.274
			c-5.988-4.336-11.979-8.668-17.964-13.008c-0.655-0.475-1.049-0.23-1.474,0.348c-2.179,2.963-4.385,5.906-6.581,8.856
			c-2.038,2.738-4.074,5.477-6.193,8.324C91.712,123.248,102.398,121.843,113.182,120.425z M157.634,117.526
			c-0.339-0.288-0.418-0.373-0.514-0.433c-6.277-3.964-12.564-7.913-18.822-11.906c-0.692-0.442-1.006-0.254-1.441,0.29
			c-2.346,2.927-4.721,5.832-7.082,8.748c-1.268,1.567-2.528,3.141-3.949,4.907C136.525,118.591,146.942,118.065,157.634,117.526z
			 M144.157,51.928c-0.103,0-0.206,0-0.308,0c0,1.238,0.043,2.479-0.017,3.715c-0.034,0.696,0.177,0.771,0.81,0.67
			c4.297-0.683,8.599-1.342,12.905-1.962c0.689-0.1,0.716-0.445,0.696-0.975c-0.066-1.757-0.148-3.517-0.137-5.274
			c0.005-0.76-0.19-1.016-0.984-1.014c-4.121,0.008-8.226,0.352-12.339,0.498c-0.574,0.021-0.636,0.295-0.63,0.75
			C144.167,49.533,144.157,50.73,144.157,51.928z M75.489,59.323c4.076-1.04,8.17-2.09,12.269-3.121
			c0.546-0.137,0.78-0.366,0.724-0.975c-0.127-1.393-0.229-2.792-0.239-4.19c-0.006-0.821-0.223-1.109-1.09-1.025
			c-3.66,0.358-7.325,0.666-10.991,0.963c-0.519,0.042-0.683,0.226-0.68,0.726C75.498,54.218,75.489,56.734,75.489,59.323z"/>
		<path fill-rule="evenodd" clip-rule="evenodd" fill="#98FDFD" d="M93.786,56.252c0.008-1.997,0.019-3.994,0.021-5.991
			c0-0.367,0.073-0.626,0.384-0.917c0.96-0.899,1.841-1.882,2.801-2.884c-0.577-0.478-1.352-0.761-2.095-1.065
			c-0.721-0.295-0.991-0.691-0.966-1.516c0.107-3.634,0.107-7.272,0.194-10.907c0.021-0.864-0.069-1.182-0.994-0.697
			c-1.657,0.87-3.346,1.685-5.055,2.449c-0.67,0.299-0.83,0.689-0.777,1.375c0.182,2.35,0.307,4.704,0.454,7.057
			c0.028,0.44,0.083,0.832-0.514,1.017c-3.876,1.201-7.742,2.435-11.555,3.64c0-4.814,0-9.56,0-14.442
			c-2.199,1.093-4.398,2.18-6.592,3.28c-0.478,0.24-0.285,0.706-0.271,1.076c0.258,6.948,0.518,13.896,0.802,20.842
			c0.082,2.001,0.116,2-1.817,2.931c2.003-0.01,2.005,1.197,2.03,2.547c0.073,3.913,0.245,7.824,0.377,11.736
			c-3.757,0.675-7.515,1.351-11.272,2.026c0-15.72,0.018-31.439-0.034-47.158c-0.004-1.192,0.389-1.566,1.463-1.756
			c5.957-1.055,11.902-2.17,17.853-3.252c7.752-1.409,15.509-2.79,23.259-4.213c6.693-1.229,13.375-2.516,20.068-3.749
			c7.162-1.319,14.333-2.593,21.496-3.907c7.241-1.328,14.476-2.691,21.717-4.019c4.188-0.768,8.394-1.444,12.569-2.274
			c1.094-0.217,1.168,0.125,1.167,1.022c-0.02,14.239-0.014,28.479-0.014,42.718c0,0.56,0.007,1.12,0.011,1.68
			c-0.734,0.161-1.466,0.338-2.204,0.479c-4.174,0.794-8.351,1.579-12.526,2.368c-0.4-0.46-0.181-1.003-0.152-1.495
			c0.469-7.738,0.928-15.477,1.476-23.209c0.115-1.616-1.011-2.518-1.648-3.71c-0.186-0.348-0.48-0.125-0.723,0
			c-1.523,0.787-3.035,1.595-4.574,2.351c-0.584,0.287-0.478,0.747-0.467,1.215c0.068,2.957,0.105,5.915,0.221,8.87
			c0.03,0.766-0.139,1.125-0.929,1.304c-3.927,0.894-7.848,1.818-11.754,2.796c-0.765,0.191-0.867,0.015-0.833-0.681
			c0.219-4.468,0.407-8.938,0.616-13.65c-1.632,0.941-3.055,1.953-4.625,2.616c-1.867,0.789-2.294,1.994-2.249,3.944
			c0.262,11.268,0.374,22.54,0.53,33.81c0.013,0.958-0.016,1.917-0.025,2.876c-4.49,0.806-8.979,1.611-13.469,2.417
			c-0.01-7.749-0.038-15.497-0.009-23.246c0.004-1.101-0.352-1.421-1.398-1.208c-1.913,0.389-3.835,0.729-5.754,1.08
			C109.929,53.306,101.857,54.778,93.786,56.252z"/>
		<path fill-rule="evenodd" clip-rule="evenodd" fill="#C5A874" d="M161.741,136.525c2.151,0.443,4.222,0.92,6.314,1.275
			c0.791,0.133,1.098,0.391,1.063,1.211c-0.059,1.396-0.046,2.799-0.003,4.197c0.021,0.684-0.232,0.875-0.896,0.902
			c-5.108,0.225-10.215,0.48-15.321,0.736c-7.979,0.4-15.957,0.807-23.935,1.211c-6.183,0.314-12.366,0.635-18.549,0.949
			c-7.979,0.406-15.957,0.809-23.935,1.215c-6.143,0.314-12.286,0.633-18.429,0.945c-7.898,0.402-15.806,0.678-23.691,1.264
			c-3.443,0.254-6.839,1.141-10.255,1.746c-9.111,1.615-18.222,3.234-27.333,4.848c-0.144,0.025-0.296,0.004-0.498-0.166
			c2.219-0.971,4.477-1.863,6.649-2.928c3.663-1.797,7.692-2.041,11.581-2.84c7.735-1.588,15.488-3.107,23.266-4.467
			c3.411-0.598,6.901-0.746,10.356-1.082c5.64-0.547,11.281-1.086,16.923-1.617c4.609-0.434,9.222-0.842,13.831-1.275
			c4.728-0.443,9.454-0.912,14.182-1.359c4.57-0.434,9.142-0.844,13.711-1.275c4.728-0.447,9.455-0.898,14.18-1.373
			c0.979-0.098,1.998,0.07,3.054-0.432c-2.501-0.775-4.887-1.549-7.295-2.246c-0.758-0.219-0.91-0.426-0.416-1.102
			c0.967-1.322,1.87-2.689,2.784-4.051c0.268-0.397,0.599-0.582,1.085-0.617c5.415-0.399,10.83-0.804,16.242-1.232
			c6.566-0.521,13.129-1.077,19.694-1.6c4.497-0.358,8.998-0.676,13.496-1.031c5.65-0.446,11.299-0.92,16.95-1.367
			c4.457-0.354,8.917-0.678,13.375-1.028c3.701-0.291,7.402-0.579,11.099-0.914c1.354-0.122,2.562-0.034,3.701,0.888
			c1.207,0.977,2.557,1.781,3.875,2.611c0.488,0.308,0.532,0.578,0.273,1.061c-1.04,1.937-2.061,3.883-3.058,5.842
			c-0.238,0.467-0.564,0.584-1.05,0.602c-3.753,0.131-7.505,0.303-11.258,0.43c-5.951,0.203-11.904,0.367-17.855,0.57
			c-6.589,0.225-13.177,0.475-19.765,0.715c-4.432,0.16-8.864,0.318-13.296,0.488C162.336,136.236,162.032,136.117,161.741,136.525z
			"/>
		<path fill-rule="evenodd" clip-rule="evenodd" fill="#020202" d="M513.896,82.875c-0.97-2.334-0.671-4.152,0.865-5.443
			c1.899-1.596,5.247-2.061,6.917-0.56c4.812,4.323,10.565,4.762,16.536,4.275c5.447-0.444,10.676-1.887,15.686-4.071
			c2.169-0.946,4.226-2.1,5.821-3.91c0.388-0.44,0.829-0.438,1.305-0.294c2.848,0.863,3.763,4.62,1.599,6.688
			c-1.964,1.876-4.462,2.793-6.999,3.502c-8.873,2.481-17.917,3.138-27.077,2.301c-1.639-0.15-1.625-0.194-1.38,1.354
			c0.709,4.496,0.508,8.922-1.099,13.223c-2.426,6.494-7.077,10.058-14.022,10.527c-2.881,0.195-5.753,0.215-8.507-0.895
			c-1.087-0.438-2.144-0.953-2.917-1.824c-0.602-0.679-1.111-0.621-1.86-0.322c-9.578,3.821-19.285,3.926-29.1,0.973
			c-3.559-1.07-6.102-3.163-7.344-6.758c-0.506-1.465-1.141-2.897-1.986-4.211c-0.792-1.23-1.511-1.207-2.158,0.115
			c-1.04,2.124-1.497,4.453-2.242,6.682c-0.417,1.248-0.836,2.493-1.429,3.672c-0.342,0.681-0.733,1.329-1.267,1.88
			c-1.223,1.263-2.065,1.247-3.144-0.124c-1.615-2.051-2.79-4.37-3.908-6.709c-2.944-6.158-5.606-12.427-7.177-19.102
			c-0.22-0.932-0.408-1.878-0.342-2.846c0.053-0.773,0.341-1.262,1.259-1.22c1.081,0.049,2.161,0.108,3.213,0.347
			c3.2,0.729,4.835,2.837,5.08,6.51c0.17,2.552,0.31,5.107,0.482,7.659c0.036,0.544-0.011,1.334,0.573,1.437
			c0.501,0.088,0.674-0.684,0.896-1.139c1.809-3.694,3.688-7.347,6.174-10.647c0.82-1.088,1.695-2.128,2.791-2.955
			c1.978-1.493,3.469-1.121,4.458,1.137c1.089,2.486,1.4,5.146,1.678,7.81c0.307,2.939,0.347,5.908,0.961,8.812
			c0.099,0.466,0.242,0.925,0.403,1.374c1.035,2.893,3.157,2.331,5.016,1.267c0.366-0.21,0.295-0.531,0.281-0.841
			c-0.384-8.507,7.432-19.005,17.619-20.419c2.329-0.323,4.63-0.213,6.797,0.839c2.757,1.339,3.767,3.789,2.774,6.677
			c-0.288,0.835-0.712,1.599-1.193,2.337c-0.784,1.206-1.836,1.91-3.313,1.644c-1.552-0.28-2.397-1.329-2.748-2.815
			c-0.416-1.76-0.736-1.952-2.556-1.373c-0.564,0.18-1.141,0.402-1.626,0.731c-4.348,2.943-7.276,6.914-8.341,12.093
			c-0.689,3.354,1.493,5.64,4.904,5.348c1.929-0.165,3.75-0.741,5.521-1.498c2.613-1.116,5.055-2.542,7.449-4.062
			c0.449-0.285,0.625-0.607,0.7-1.137c0.763-5.411,3.263-9.89,7.438-13.392C507.799,83.476,510.596,82.337,513.896,82.875z
			 M515.893,84.337c0.161,0.432,0.304,0.75,0.4,1.082c0.694,2.401-0.858,4.894-3.097,4.952c-3.168,0.082-6,1.214-8.583,2.926
			c-2.188,1.45-2.259,3.506-0.054,4.92c4.638,2.975,9.673,3.653,14.861,1.638c2.675-1.04,3.883-3.541,3.571-6.409
			c-0.277-2.556-1.356-4.806-2.503-7.053c-0.543-1.064-1.185-1.682-2.463-1.617C517.376,84.809,516.71,84.518,515.893,84.337z"/>
		<path fill-rule="evenodd" clip-rule="evenodd" fill="#020202" d="M266.985,96.415c8.033,2.72,15.848,5.953,23.457,9.611
			c1.059-7.052-0.016-13.834-1.906-20.526c-0.329-1.162-0.063-2.041,0.723-2.83c1.131-1.136,2.51-1.848,4.088-2.101
			c1.663-0.267,3.485,1.064,3.643,2.913c0.562,6.566,1.39,13.132,0.569,19.742c-0.183,1.474-0.431,2.948-1.18,4.237
			c-0.46,0.792-0.223,1.034,0.502,1.324c4.183,1.67,8.348,3.386,12.413,5.33c3.603,1.724,7.156,3.542,10.314,6.029
			c1.04,0.819,2.006,1.716,2.677,2.881c0.9,1.562,0.709,2.901-0.619,4.08c-1.236,1.099-2.746,1.581-4.342,1.861
			c-0.548,0.096-0.89-0.243-1.288-0.505c-15.463-10.132-31.65-18.857-49.119-25.043c-5.162-1.828-10.448-3.227-15.965-3.516
			c-2.208-0.116-4.391,0.126-6.577,0.369c-0.674,0.075-1.354,0.107-2.032,0.132c-1.345,0.05-2.315-0.516-2.809-1.796
			c-0.487-1.264-0.949-2.538-1.435-3.802c-0.106-0.278-0.155-0.512,0.052-0.777c0.87-1.108,1.381-2.421,2.049-3.646
			c0.498-0.911,1.1-1.181,2.157-0.738c2.475,1.039,5.116,0.888,7.691,0.607c7.082-0.773,13.822-2.794,20.233-5.899
			c1.729-0.837,3.396-1.781,4.841-3.066c2.306-2.052,1.989-3.669-0.92-4.648c-2.215-0.746-4.534-0.948-6.837-1.154
			c-9.072-0.811-18.133-0.625-27.173,0.467c-2.458,0.297-4.895,0.728-7.3,1.333c-1.176,0.296-2.291,0.714-3.247,1.465
			c-0.933,0.732-1.934,0.859-3.044,0.519c-1.358-0.416-2.598-1.02-3.579-2.079c-1.798-1.942-1.252-4.992,1.13-6.169
			c2.66-1.315,5.563-1.688,8.453-2.04c10.25-1.245,20.507-1.192,30.753,0.02c4.804,0.568,9.55,1.459,14.046,3.347
			c1.813,0.762,3.524,1.704,4.918,3.13c1.902,1.945,2.335,4.206,1.378,6.729c-0.693,1.829-1.873,3.347-3.265,4.682
			c-3.772,3.614-7.975,6.629-12.689,8.908c-0.215,0.104-0.429,0.21-0.632,0.333C267.063,96.158,267.053,96.255,266.985,96.415z"/>
		<path fill-rule="evenodd" clip-rule="evenodd" fill="#FDDC1F" d="M163.767,55.748c4.175-0.789,8.352-1.574,12.526-2.368
			c0.738-0.141,1.47-0.318,2.204-0.479c3.419-0.599,6.841-1.184,10.256-1.802c5.337-0.966,10.67-1.955,16.139-2.958
			c0,14.604,0,29.116,0,43.627c-3.378,0.313-6.754,0.647-10.134,0.936c-7.52,0.643-15.041,1.264-22.562,1.888
			c-0.477,0.039-0.957,0.031-1.435,0.045c-0.071-8.839-0.16-17.678-0.189-26.518c-0.003-1.037-0.313-1.172-1.231-0.985
			c-2.19,0.446-4.399,0.8-6.601,1.191c0.152-2.592,0.348-5.183,0.434-7.777c0.036-1.102,0.356-1.625,1.526-1.37
			c0.302,0.066,0.631,0.01,1.106,0.01C165.088,57.977,164.428,56.862,163.767,55.748z"/>
		<path fill-rule="evenodd" clip-rule="evenodd" fill="#020202" d="M370.021,82.36c3.643,0.659,7.149,1.505,10.492,2.922
			c2.439,1.034,4.737,2.298,6.747,4.048c5.649,4.918,5.602,12.211-0.152,17.005c-4.069,3.39-8.922,5.235-13.892,6.778
			c-8.037,2.494-16.299,3.889-24.645,4.831c-7,0.79-14.015,1.284-21.067,1.137c-1.58-0.033-2.98-0.396-4.166-1.5
			c-1.617-1.506-1.735-2.472-0.372-4.22c1.927-2.472,4.328-3.464,7.558-3.014c3.361,0.468,6.785,0.111,10.176-0.156
			c0.53-0.042,0.625-0.386,0.701-0.804c1.638-8.921,1.569-17.655-2.827-25.918c-0.5-0.939-0.368-1.853,0.155-2.733
			c0.918-1.544,2.227-2.734,3.686-3.72c1.385-0.936,3.511,0.183,4.027,2.152c0.435,1.656,0.751,3.355,0.964,5.054
			c1.011,8.05,1.044,16.108,0.083,24.17c-0.045,0.381-0.475,1.092,0.561,1.031c8.829-0.528,17.6-1.433,26.142-3.882
			c2.19-0.627,4.322-1.405,6.329-2.495c1.237-0.672,2.388-1.463,3.26-2.592c1.399-1.81,1.185-3.484-0.624-4.88
			c-1.479-1.142-3.2-1.806-4.963-2.313c-5.955-1.713-12.045-2.47-18.237-2.359c-2.273,0.041-4.461-0.246-6.516-1.267
			c-1.395-0.693-2.543-1.649-3.21-3.099c-0.631-1.371-0.518-2.309,0.555-3.38c1.592-1.59,3.586-2.495,5.717-3.101
			c0.702-0.2,1.417-0.033,2.113,0.218c2.279,0.822,4.485,0.443,6.63-0.504c0.629-0.277,1.263-0.677,1.285-1.443
			c0.022-0.769-0.606-1.181-1.203-1.517c-2.192-1.235-4.624-1.726-7.057-2.169c-6.375-1.164-12.777-1.544-19.197-0.375
			c-1.595,0.291-3.261,0.507-4.351,1.978c-0.243,0.328-0.668,0.421-1.067,0.492c-1.621,0.29-3.261,0.415-4.892,0.216
			c-1.77-0.216-2.861-1.971-2.578-3.958c0.402-2.827,2.936-5.16,6.172-5.7c3.293-0.55,6.614-0.576,9.931-0.437
			c7.203,0.302,14.338,1.097,21.247,3.306c1.905,0.609,3.747,1.362,5.455,2.416c0.959,0.591,1.84,1.278,2.559,2.151
			c1.566,1.899,1.603,3.969,0.076,5.901C371.163,81.217,370.609,81.732,370.021,82.36z"/>
		<path fill-rule="evenodd" clip-rule="evenodd" fill="#FD0101" d="M58.941,77.809c3.757-0.675,7.515-1.351,11.272-2.026
			c0.247,5.823,0.496,11.646,0.739,17.47c0.136,3.271,0.232,6.544,0.415,9.812c0.047,0.847-0.243,1.085-1.027,1.203
			c-4.417,0.665-8.83,1.352-13.231,2.109c-0.943,0.162-1.438-0.265-1.881-0.894c-0.57-0.808-1.205-0.966-2.137-0.58
			c-1.063,0.441-2.201,0.702-3.3,1.06c-0.373,0.122-0.812,0.17-1.05,0.527c-0.867,1.295-2.184,1.562-3.611,1.749
			c-3.042,0.397-6.073,0.891-9.108,1.345c-0.016-8.785-0.021-17.57-0.062-26.355c-0.004-0.847,0.149-1.213,1.108-1.384
			C44.366,80.547,51.651,79.165,58.941,77.809z"/>
		<path fill-rule="evenodd" clip-rule="evenodd" fill="#020202" d="M431.095,103.872c-2.738,4.094-6.4,6.88-11.284,7.854
			c-6.916,1.38-11.806-2.504-12.111-9.572c-0.196-4.552,1.405-8.469,4.408-11.801c4.972-5.515,11.358-8.51,18.492-10.096
			c0.817-0.182,1.649-0.3,2.479-0.419c1.544-0.221,2.757,0.377,3.597,1.644c0.841,1.268,0.97,2.593,0.025,3.906
			c-0.623,0.867-0.972,1.846-0.949,2.911c0.1,4.648,0.649,9.238,2.057,13.684c0.603,1.902,1.548,3.477,3.658,4.255
			c1.569,0.58,2.735,1.916,3.69,3.328c0.96,1.421,0.899,2.396-0.166,3.568c-1.006,1.107-2.574,1.512-3.801,0.786
			c-4.134-2.446-7.936-5.253-9.926-9.869C431.235,103.984,431.158,103.937,431.095,103.872z M422.65,102.354
			c4.654-0.007,7.168-1.914,7.715-5.351c0.461-2.899-0.448-5.594-1.518-8.24c-0.217-0.538-0.565-0.286-0.886-0.212
			c-2.648,0.609-5.201,1.487-7.611,2.753c-1.311,0.689-2.551,1.49-3.541,2.614c-1.916,2.176-1.702,4.662,0.585,6.445
			C419.19,101.762,421.276,102.336,422.65,102.354z"/>
		<path fill-rule="evenodd" clip-rule="evenodd" fill="#020202" d="M316.843,110.268c-4.016-0.039-7.851-0.818-11.331-2.919
			c-4.892-2.953-6.605-7.613-4.324-12.842c3.595-8.242,9.878-13.129,18.918-14.269c3.053-0.385,6.062-0.252,9.015,0.637
			c3.545,1.067,4.381,4.719,1.67,7.264c-0.338,0.318-0.756,0.46-0.259,1.081c5.276,6.584,3.454,17.441-7.642,20.299
			c-0.771,0.199-1.555,0.364-2.343,0.486C319.323,110.194,318.091,110.334,316.843,110.268z M315.472,101.024
			c3.125-0.054,6.226-0.307,9.119-1.613c3.092-1.396,3.954-4.527,2.081-7.36c-1.154-1.745-2.833-2.694-4.865-2.909
			c-5.517-0.584-10.269,1.23-14.402,4.812c-0.473,0.41-0.874,0.939-1.198,1.479c-0.929,1.551-0.593,2.909,0.923,3.909
			c0.601,0.396,1.267,0.655,1.956,0.87C311.167,100.864,313.316,100.962,315.472,101.024z"/>
		<path fill-rule="evenodd" clip-rule="evenodd" fill="#020202" d="M400.538,88.341c0.792-0.686,1.251-1.572,1.815-2.37
			c1.87-2.646,4.129-4.869,6.973-6.458c0.875-0.49,1.799-0.869,2.814-0.938c1.375-0.093,2.198,0.537,2.208,1.904
			c0.017,2.411-0.944,4.42-2.871,5.908c-0.517,0.399-1.142,0.491-1.817,0.42c-3.36-0.354-5.226,0.939-6.062,4.186
			c-0.583,2.263-0.632,4.585-0.691,6.9c-0.072,2.796-0.058,5.601-0.759,8.335c-0.577,2.251-1.734,4.033-4.129,4.691
			c-1.312,0.36-1.714,0.153-2.114-1.179c-0.833-2.779-0.909-5.672-1.151-8.53c-0.468-5.535-0.984-11.043-2.785-16.359
			c-0.927-2.737-0.407-3.318,2.513-3.4c3.452-0.098,5.539,1.809,5.807,5.281C400.325,87.239,400.252,87.769,400.538,88.341z"/>
		<path fill-rule="evenodd" clip-rule="evenodd" fill="#FD0101" d="M36.021,112.9c3.039-0.346,6.077-0.691,9.044-1.029
			c0.281,0.368,0.057,0.562-0.037,0.751c-2.842,5.74-5.692,11.477-8.545,17.211c-0.085,0.172-0.224,0.317-0.337,0.476
			c-0.035-3.139-0.079-6.276-0.103-9.416C36.024,118.23,36.028,115.565,36.021,112.9z"/>
		<path fill-rule="evenodd" clip-rule="evenodd" fill="#020202" d="M297.056,71.504c-0.156,2.729-1.105,5.119-3.126,7.012
			c-1.166,1.092-1.936,0.869-2.42-0.647c-0.12-0.377-0.196-0.771-0.268-1.161c-0.157-0.86-0.434-1.574-1.108-2.263
			c-1.966-2.007-1.447-5.905,0.872-7.511c1.745-1.208,4.48-0.391,5.486,1.66C296.938,69.504,297.107,70.482,297.056,71.504z"/>
		<path fill-rule="evenodd" clip-rule="evenodd" fill="#FCDA1F" d="M204.857,108.019c-4.078-3.068-8.157-6.136-12.233-9.208
			c-0.089-0.067-0.149-0.173-0.402-0.472c4.348-0.101,8.507-0.198,12.666-0.295C204.878,101.369,204.868,104.694,204.857,108.019z"
			/>
		<path fill-rule="evenodd" clip-rule="evenodd" fill="#111111" d="M427.73,123.258c-1.073,0.178-1.827,0.237-2.242-0.707
			c-0.173-0.395-0.507-0.447-0.688-0.046c-0.421,0.932-1.148,0.968-2.209,0.747c0.861-0.758,0.98-2.052,2.315-2.198
			C426.544,120.875,426.651,122.479,427.73,123.258z"/>
		<path fill-rule="evenodd" clip-rule="evenodd" fill="#020202" d="M9.125,116.429c0.116,0.004,0.185,0.05,0.142,0.177
			c-0.006,0.019-0.051,0.024-0.079,0.036c-0.005-0.067-0.01-0.135-0.021-0.206C9.161,116.435,9.125,116.429,9.125,116.429z"/>
		<path fill-rule="evenodd" clip-rule="evenodd" fill="#00AEEE" d="M93.786,56.252c8.072-1.474,16.143-2.947,24.214-4.423
			c1.919-0.351,3.842-0.691,5.754-1.08c1.046-0.213,1.402,0.107,1.398,1.208c-0.029,7.749-0.001,15.497,0.009,23.246
			c-1.053,0.216-2.099,0.541-3.163,0.618c-1.185,0.086-1.358,0.647-1.356,1.701c0.028,13.95,0.01,27.9,0.003,41.85
			c-1.184,0.173-2.371,0.329-3.55,0.528c-0.505,0.085-0.814-0.132-1.142-0.467c-4.165-4.26-8.338-8.51-12.514-12.759
			c-0.318-0.323-0.256-0.407-0.027-0.891c0.727-1.534,1.11-3.232,1.601-4.875c0.138-0.461-0.306-0.468-0.574-0.601
			c-1.824-0.905-3.747-1.186-5.677-0.539c-1.48,0.496-2.843-0.536-4.296-0.097c-0.638,0.193-1.345,0.157-2.021,0.228
			c-0.158,0.017-0.407-0.013-0.459,0.073c-1.047,1.715-2.894,1.224-4.401,1.524c-2.736,0.545-5.516,0.867-8.278,1.282
			c-0.011-4.426-0.021-8.851-0.034-13.277c-0.014-4.785-0.049-9.569-0.024-14.354c0.004-0.842-0.252-1.036-1.025-0.862
			c-1.048,0.235-2.11,0.407-3.167,0.606c-0.11-3.878,0.173-7.75,0.175-11.625c0-0.817,0.415-0.769,0.974-0.735
			c2.872,0.173,5.75,0.263,8.613,0.525c1.185,0.108,2.206-0.218,3.243-0.609c0.584-0.22,0.84-0.225,0.881,0.521
			c0.385,6.981,0.802,13.96,1.207,20.94c0.266,4.587,0.527,9.174,0.792,13.761c0.008,0.148,0.038,0.295,0.088,0.675
			c1.094-1.33,2.086-2.308,2.104-4.095c0.131-12.388,0.384-24.774,0.599-37.161C93.741,56.81,93.769,56.531,93.786,56.252z"/>
		<path fill-rule="evenodd" clip-rule="evenodd" fill="#00993D" d="M162.741,68.326c2.202-0.391,4.411-0.745,6.601-1.191
			c0.918-0.187,1.228-0.052,1.231,0.985c0.029,8.839,0.118,17.679,0.189,26.518c-5.881,0.498-11.762,0.987-17.642,1.495
			c-3.217,0.278-6.433,0.579-9.647,0.885c-1.478,0.14-1.521,0.142-1.459-1.303c0.317-7.457,0.649-14.913,0.985-22.369
			c0.021-0.476,0.115-0.949,0.174-1.424c0.431-0.068,0.864-0.127,1.293-0.205c4.688-0.845,9.374-1.692,14.061-2.539
			c0.204,7.614,0.408,15.229,0.623,23.25c0.988-1.425,2.117-2.475,2.25-3.941c0.351-3.89,0.517-7.796,0.768-11.696
			C162.349,73.969,162.549,71.147,162.741,68.326z"/>
		<path fill-rule="evenodd" clip-rule="evenodd" fill="#00993D" d="M120.646,119.372c0.006-13.95,0.024-27.9-0.003-41.85
			c-0.002-1.054,0.171-1.615,1.356-1.701c1.064-0.077,2.11-0.402,3.163-0.618c4.489-0.806,8.979-1.611,13.469-2.417
			c0.224,4.427,0.225,8.858,0.264,13.289c0.028,3.272,0.11,6.545,0.202,9.816c0.02,0.711-0.186,1.025-0.917,1.249
			c-1.396,0.426-2.82,0.529-4.245,0.61c-0.846,0.048-1.433,0.326-1.873,1.132c0.891,0.138,1.731,0.267,2.723,0.42
			c-1.269,2.133-2.487,4.18-3.705,6.228c-2.365,3.979-4.797,7.921-7.057,11.959C123.215,118.933,122.296,119.681,120.646,119.372z"
			/>
		<path fill-rule="evenodd" clip-rule="evenodd" fill="#00993D" d="M170.86,116.659c-0.291,0.39-0.723,0.274-1.107,0.29
			c-1.396,0.055-2.797,0.006-4.185,0.227c-1.213,0.193-2.176-0.183-3.146-0.995c-6.25-5.229-12.553-10.392-18.837-15.579
			c-0.178-0.146-0.338-0.315-0.659-0.617c1.06-0.093,1.944-0.218,2.83-0.242c4.593-0.125,9.187-0.21,13.78-0.336
			c3.75-0.103,7.5-0.243,11.25-0.367C170.811,104.913,170.835,110.786,170.86,116.659z"/>
		<path fill-rule="evenodd" clip-rule="evenodd" fill="#FD0101" d="M74.543,124.896c0.403,0.591-0.028,0.633-0.45,0.688
			c-3.76,0.488-7.52,0.975-11.279,1.468c-7.638,1.003-15.274,2.011-22.911,3.015c-1.026,0.135-2.054,0.26-3.105,0.393
			c-0.078-0.537,0.337-0.738,0.566-1.008c4.644-5.438,9.314-10.855,13.943-16.307c0.526-0.619,0.867-0.654,1.542-0.226
			c4.72,2.994,9.478,5.929,14.205,8.913c0.994,0.627,1.986,1.215,3.192,1.214c1.718-0.003,2.892,1.203,4.311,1.864L74.543,124.896z"
			/>
		<path fill-rule="evenodd" clip-rule="evenodd" fill="#00AEEE" d="M113.182,120.425c-10.784,1.417-21.47,2.823-32.31,4.247
			c2.119-2.848,4.156-5.586,6.193-8.324c2.196-2.95,4.402-5.893,6.581-8.856c0.425-0.578,0.819-0.823,1.474-0.348
			c5.985,4.34,11.977,8.671,17.964,13.008C113.112,120.171,113.113,120.225,113.182,120.425z"/>
		<path fill-rule="evenodd" clip-rule="evenodd" fill="#FCDA1F" d="M204.892,115.078c-3.587,0.213-7.172,0.45-10.76,0.634
			c-5.667,0.292-11.334,0.551-17.002,0.814c-0.339,0.016-0.698,0.149-1.053-0.078c0.061-0.486,0.47-0.718,0.748-1.024
			c3.038-3.341,6.085-6.673,9.133-10.005c0.785-0.858,1.9-1.639,0.298-3.021c0.155-0.052,0.311-0.105,0.466-0.157
			c6.063,3.096,12.126,6.191,18.189,9.287C204.904,112.712,204.898,113.895,204.892,115.078z"/>
		<path fill-rule="evenodd" clip-rule="evenodd" fill="#00993D" d="M157.634,117.526c-10.691,0.54-21.108,1.065-31.807,1.605
			c1.42-1.766,2.681-3.34,3.949-4.907c2.361-2.916,4.736-5.82,7.082-8.748c0.435-0.543,0.749-0.731,1.441-0.29
			c6.258,3.993,12.544,7.942,18.822,11.906C157.215,117.153,157.295,117.238,157.634,117.526z"/>
		<path fill-rule="evenodd" clip-rule="evenodd" fill="#FD0101" d="M74.557,124.909c0.27-0.634-0.362-0.78-0.636-1.05
			c-4.213-4.145-8.449-8.267-12.69-12.382c-0.305-0.296-0.702-0.497-1.056-0.742c0.083-0.124,0.166-0.249,0.249-0.372
			c1.526-0.169,3.052-0.347,4.579-0.506c1.865-0.194,3.735-0.345,5.596-0.573c0.81-0.1,1.03,0.186,1.045,0.961
			c0.049,2.491,0.166,4.981,0.266,7.744c1.548-2.641,2.735-5.081,2.372-7.971c-0.106-0.847,0.167-1.209,1.092-1.225
			c1.312-0.023,2.622-0.215,3.932-0.335c0.024,5.021,0.048,10.041,0.072,15.062c-0.679,1.704-2.854,2.35-4.463,1.32
			c-0.148-0.095-0.272-0.126-0.372,0.057L74.557,124.909z"/>
		<path fill-rule="evenodd" clip-rule="evenodd" fill="#97FCFC" d="M158.527,69.179c-4.687,0.847-9.374,1.694-14.061,2.539
			c-0.429,0.078-0.862,0.137-1.293,0.205c0.143-3.593,0.283-7.186,0.431-10.778c0.011-0.267-0.074-0.638,0.23-0.754
			c1.505-0.576,2.777-1.771,4.519-1.718c2.997,0.092,5.994,0.186,8.99,0.28c0.511,0.016,1.018-0.081,1.022,0.758
			C158.382,62.866,158.467,66.022,158.527,69.179z"/>
		<path fill-rule="evenodd" clip-rule="evenodd" fill="#FD0101" d="M75.058,74.891c1.056-0.199,2.118-0.371,3.167-0.606
			c0.773-0.173,1.03,0.021,1.025,0.862c-0.025,4.784,0.011,9.569,0.024,14.354c0.012,4.426,0.022,8.851,0.034,13.277
			c-1.373,0.24-2.748,0.467-4.117,0.725c-0.654,0.124-0.827-0.125-0.812-0.756c0.193-8.25,0.365-16.501,0.548-24.751
			C74.951,76.959,75.014,75.925,75.058,74.891z"/>
		<path fill-rule="evenodd" clip-rule="evenodd" fill="#97FCFC" d="M144.157,51.928c0-1.198,0.01-2.395-0.005-3.592
			c-0.006-0.455,0.057-0.729,0.63-0.75c4.114-0.146,8.219-0.49,12.339-0.498c0.794-0.001,0.989,0.254,0.984,1.014
			c-0.011,1.758,0.071,3.517,0.137,5.274c0.02,0.529-0.007,0.875-0.696,0.975c-4.307,0.62-8.608,1.279-12.905,1.962
			c-0.632,0.101-0.844,0.026-0.81-0.67c0.061-1.236,0.017-2.477,0.017-3.715C143.952,51.928,144.055,51.928,144.157,51.928z"/>
		<path fill-rule="evenodd" clip-rule="evenodd" fill="#FCDA1F" d="M170.86,116.659c-0.024-5.873-0.049-11.746-0.074-17.619
			c4.667-0.149,9.333-0.298,14.021-0.448c-0.009,1.148-0.587,1.537-1.592,1.343c-1.613-0.312-2.458,0.454-3.251,1.821
			c-2.661,4.588-5.471,9.091-8.23,13.623C171.465,115.819,171.152,116.232,170.86,116.659z"/>
		<path fill-rule="evenodd" clip-rule="evenodd" fill="#97FCFC" d="M75.489,59.323c0-2.589,0.009-5.105-0.007-7.622
			c-0.003-0.5,0.161-0.684,0.68-0.726c3.666-0.297,7.331-0.605,10.991-0.963c0.867-0.084,1.084,0.204,1.09,1.025
			c0.01,1.397,0.112,2.797,0.239,4.19c0.056,0.609-0.178,0.838-0.724,0.975C83.659,57.233,79.565,58.284,75.489,59.323z"/>
		<path fill-rule="evenodd" clip-rule="evenodd" fill="#00AEEE" d="M79.378,123.52c-0.024-5.021-0.048-10.041-0.072-15.062
			c2.773-0.301,5.547-0.603,8.325-0.904c0.012,0.174,0.05,0.268,0.019,0.326C84.896,113.095,82.137,118.308,79.378,123.52z"/>
		<path fill-rule="evenodd" clip-rule="evenodd" fill="#F6F6F6" d="M204.892,115.078c0.006-1.183,0.012-2.366,0.019-3.549
			c0.218,0.095,0.442,0.18,0.654,0.287c1.844,0.935,3.687,1.874,5.771,2.934C209.033,115.002,206.967,115.109,204.892,115.078z"/>
		<g>
			<path d="M375.049,70.962V59.191h4.44c0.781,0,1.378,0.038,1.79,0.113c0.578,0.096,1.062,0.279,1.453,0.55
				s0.705,0.648,0.943,1.136s0.357,1.022,0.357,1.605c0,1.001-0.318,1.849-0.955,2.542c-0.638,0.692-1.788,1.039-3.452,1.039h-3.02
				v4.785H375.049z M376.606,64.788h3.043c1.007,0,1.721-0.188,2.144-0.562c0.423-0.374,0.635-0.901,0.635-1.581
				c0-0.492-0.125-0.914-0.373-1.265c-0.249-0.351-0.577-0.582-0.984-0.694c-0.262-0.069-0.746-0.104-1.453-0.104h-3.011V64.788z"/>
			<path d="M386.04,70.962V59.191h5.219c1.05,0,1.847,0.106,2.393,0.317c0.546,0.212,0.982,0.585,1.31,1.12
				c0.326,0.535,0.489,1.127,0.489,1.774c0,0.835-0.271,1.539-0.811,2.111c-0.541,0.573-1.376,0.938-2.505,1.092
				c0.412,0.198,0.725,0.394,0.938,0.587c0.455,0.417,0.887,0.939,1.293,1.565l2.048,3.203h-1.959l-1.558-2.448
				c-0.455-0.707-0.83-1.247-1.124-1.622c-0.295-0.375-0.559-0.637-0.791-0.787c-0.233-0.149-0.47-0.254-0.711-0.312
				c-0.177-0.038-0.466-0.057-0.867-0.057h-1.807v5.227H386.04z M387.598,64.387h3.349c0.712,0,1.269-0.073,1.67-0.221
				s0.706-0.383,0.915-0.707c0.209-0.323,0.313-0.676,0.313-1.056c0-0.557-0.202-1.015-0.606-1.373s-1.042-0.538-1.915-0.538h-3.726
				V64.387z"/>
			<path d="M397.924,70.962V59.191h8.51v1.39h-6.952v3.604h6.511v1.381h-6.511v4.007h7.226v1.389H397.924z"/>
			<path d="M408.938,70.962V59.191h7.941v1.39h-6.384v3.645h5.524v1.39h-5.524v5.347H408.938z"/>
			<path d="M418.935,70.962V59.191h8.511v1.39h-6.953v3.604h6.512v1.381h-6.512v4.007h7.226v1.389H418.935z"/>
			<path d="M430.135,70.962V59.191h1.558v11.771H430.135z"/>
			<path d="M437.433,70.962V60.581h-3.878v-1.39h9.33v1.39h-3.895v10.381H437.433z"/>
			<path d="M452.206,59.191h1.558v6.801c0,1.184-0.134,2.122-0.401,2.818c-0.268,0.695-0.75,1.262-1.449,1.698
				c-0.698,0.437-1.615,0.654-2.75,0.654c-1.103,0-2.004-0.19-2.705-0.57s-1.202-0.93-1.502-1.649
				c-0.3-0.721-0.449-1.704-0.449-2.951v-6.801h1.558v6.793c0,1.022,0.095,1.775,0.285,2.26c0.189,0.484,0.517,0.858,0.979,1.12
				c0.463,0.263,1.028,0.394,1.698,0.394c1.145,0,1.961-0.26,2.448-0.778c0.487-0.52,0.73-1.518,0.73-2.995V59.191z"/>
			<path d="M456.381,70.962V59.191h5.219c1.05,0,1.847,0.106,2.393,0.317c0.546,0.212,0.982,0.585,1.31,1.12
				c0.326,0.535,0.489,1.127,0.489,1.774c0,0.835-0.271,1.539-0.811,2.111c-0.541,0.573-1.376,0.938-2.505,1.092
				c0.412,0.198,0.725,0.394,0.938,0.587c0.455,0.417,0.887,0.939,1.293,1.565l2.048,3.203h-1.959l-1.558-2.448
				c-0.455-0.707-0.83-1.247-1.124-1.622c-0.295-0.375-0.559-0.637-0.791-0.787c-0.233-0.149-0.47-0.254-0.711-0.312
				c-0.177-0.038-0.466-0.057-0.867-0.057h-1.807v5.227H456.381z M457.938,64.387h3.349c0.712,0,1.269-0.073,1.67-0.221
				s0.706-0.383,0.915-0.707c0.209-0.323,0.313-0.676,0.313-1.056c0-0.557-0.202-1.015-0.606-1.373s-1.042-0.538-1.915-0.538h-3.726
				V64.387z"/>
			<path d="M466.939,70.962l4.52-11.771h1.679l4.817,11.771h-1.774l-1.373-3.564h-4.922l-1.293,3.564H466.939z M470.335,66.129h3.99
				l-1.228-3.26c-0.375-0.99-0.653-1.804-0.836-2.44c-0.149,0.754-0.361,1.504-0.634,2.248L470.335,66.129z"/>
			<path d="M482.86,70.962V59.191h4.055c0.915,0,1.613,0.057,2.095,0.169c0.675,0.155,1.25,0.437,1.727,0.843
				c0.621,0.525,1.085,1.195,1.394,2.012c0.308,0.816,0.461,1.749,0.461,2.798c0,0.895-0.104,1.687-0.312,2.377
				c-0.209,0.69-0.477,1.262-0.804,1.714c-0.326,0.452-0.684,0.809-1.071,1.067c-0.389,0.26-0.856,0.457-1.405,0.591
				s-1.179,0.2-1.891,0.2H482.86z M484.418,69.573h2.513c0.776,0,1.385-0.072,1.826-0.217c0.442-0.145,0.794-0.348,1.057-0.61
				c0.369-0.369,0.656-0.865,0.862-1.489c0.206-0.623,0.31-1.38,0.31-2.269c0-1.23-0.202-2.177-0.606-2.838
				s-0.895-1.104-1.473-1.329c-0.418-0.16-1.09-0.24-2.016-0.24h-2.473V69.573z"/>
			<path d="M494.768,70.962V59.191h8.51v1.39h-6.952v3.604h6.511v1.381h-6.511v4.007h7.226v1.389H494.768z"/>
		</g>
		<g>
			<path d="M347.181,131.848l1.558,0.394c-0.326,1.279-0.914,2.255-1.763,2.927c-0.848,0.672-1.885,1.008-3.111,1.008
				c-1.269,0-2.3-0.259-3.095-0.775c-0.795-0.516-1.399-1.264-1.814-2.244c-0.415-0.979-0.622-2.031-0.622-3.155
				c0-1.226,0.234-2.295,0.702-3.207c0.469-0.913,1.135-1.605,1.999-2.079c0.864-0.475,1.816-0.711,2.854-0.711
				c1.178,0,2.168,0.3,2.971,0.899s1.362,1.442,1.678,2.529l-1.533,0.361c-0.272-0.856-0.669-1.48-1.188-1.871
				c-0.519-0.391-1.172-0.586-1.959-0.586c-0.904,0-1.66,0.217-2.268,0.65s-1.035,1.016-1.281,1.746s-0.369,1.484-0.369,2.26
				c0,1.001,0.146,1.875,0.438,2.622c0.292,0.746,0.745,1.305,1.361,1.674c0.615,0.369,1.281,0.554,1.999,0.554
				c0.872,0,1.611-0.252,2.216-0.755S346.967,132.838,347.181,131.848z"/>
			<path d="M350.513,130.242c0-1.953,0.524-3.483,1.573-4.589c1.049-1.104,2.403-1.657,4.062-1.657c1.087,0,2.066,0.26,2.938,0.778
				c0.873,0.52,1.538,1.243,1.995,2.172c0.458,0.929,0.687,1.982,0.687,3.159c0,1.194-0.24,2.262-0.723,3.204
				c-0.481,0.941-1.164,1.655-2.047,2.14c-0.884,0.484-1.836,0.727-2.858,0.727c-1.108,0-2.099-0.268-2.971-0.803
				s-1.533-1.267-1.983-2.192C350.737,132.255,350.513,131.275,350.513,130.242z M352.118,130.267c0,1.418,0.382,2.535,1.145,3.352
				s1.719,1.225,2.87,1.225c1.172,0,2.137-0.412,2.895-1.236c0.757-0.824,1.136-1.994,1.136-3.509c0-0.958-0.162-1.794-0.485-2.509
				c-0.324-0.715-0.798-1.269-1.422-1.662c-0.623-0.394-1.323-0.59-2.1-0.59c-1.103,0-2.051,0.379-2.846,1.136
				C352.516,127.23,352.118,128.495,352.118,130.267z"/>
			<path d="M364.057,135.975v-11.771h2.345l2.785,8.334c0.258,0.776,0.444,1.357,0.562,1.743c0.134-0.429,0.343-1.058,0.626-1.888
				l2.818-8.189h2.096v11.771h-1.502v-9.852l-3.42,9.852h-1.405l-3.404-10.02v10.02H364.057z"/>
			<path d="M386.393,135.975l-4.561-11.771h1.686l3.06,8.551c0.246,0.686,0.452,1.328,0.618,1.928
				c0.182-0.643,0.394-1.285,0.634-1.928l3.18-8.551h1.59l-4.608,11.771H386.393z"/>
			<path d="M393.851,130.242c0-1.953,0.524-3.483,1.574-4.589c1.049-1.104,2.403-1.657,4.062-1.657c1.086,0,2.065,0.26,2.938,0.778
				c0.872,0.52,1.537,1.243,1.995,2.172c0.457,0.929,0.687,1.982,0.687,3.159c0,1.194-0.241,2.262-0.723,3.204
				c-0.481,0.941-1.164,1.655-2.048,2.14c-0.883,0.484-1.836,0.727-2.858,0.727c-1.107,0-2.098-0.268-2.97-0.803
				c-0.873-0.535-1.534-1.267-1.983-2.192C394.075,132.255,393.851,131.275,393.851,130.242z M395.456,130.267
				c0,1.418,0.382,2.535,1.145,3.352s1.72,1.225,2.87,1.225c1.173,0,2.137-0.412,2.895-1.236s1.136-1.994,1.136-3.509
				c0-0.958-0.161-1.794-0.485-2.509s-0.798-1.269-1.421-1.662c-0.624-0.394-1.323-0.59-2.1-0.59c-1.103,0-2.052,0.379-2.847,1.136
				C395.854,127.23,395.456,128.495,395.456,130.267z"/>
			<path d="M415.841,131.848l1.558,0.394c-0.326,1.279-0.914,2.255-1.762,2.927c-0.849,0.672-1.886,1.008-3.111,1.008
				c-1.269,0-2.3-0.259-3.095-0.775c-0.795-0.516-1.4-1.264-1.814-2.244c-0.415-0.979-0.623-2.031-0.623-3.155
				c0-1.226,0.234-2.295,0.703-3.207c0.468-0.913,1.135-1.605,1.999-2.079c0.864-0.475,1.815-0.711,2.854-0.711
				c1.177,0,2.167,0.3,2.971,0.899c0.803,0.6,1.361,1.442,1.678,2.529l-1.533,0.361c-0.273-0.856-0.67-1.48-1.188-1.871
				c-0.52-0.391-1.173-0.586-1.959-0.586c-0.905,0-1.661,0.217-2.269,0.65s-1.034,1.016-1.28,1.746s-0.369,1.484-0.369,2.26
				c0,1.001,0.146,1.875,0.438,2.622c0.291,0.746,0.745,1.305,1.36,1.674c0.616,0.369,1.282,0.554,1.999,0.554
				c0.873,0,1.611-0.252,2.217-0.755C415.218,133.585,415.627,132.838,415.841,131.848z"/>
			<path d="M419.679,135.975v-11.771h8.511v1.39h-6.953v3.604h6.512v1.381h-6.512v4.007h7.226v1.389H419.679z M424.055,122.117
				l-0.907,1.365h-1.654l1.734-2.248h1.542l1.806,2.248h-1.638L424.055,122.117z"/>
			<path d="M435.824,135.975v-11.771h1.598l6.182,9.241v-9.241h1.494v11.771H443.5l-6.183-9.249v9.249H435.824z"/>
			<path d="M447.57,130.242c0-1.953,0.524-3.483,1.573-4.589c1.049-1.104,2.403-1.657,4.062-1.657c1.087,0,2.066,0.26,2.938,0.778
				c0.873,0.52,1.538,1.243,1.995,2.172c0.458,0.929,0.687,1.982,0.687,3.159c0,1.194-0.24,2.262-0.723,3.204
				c-0.481,0.941-1.164,1.655-2.047,2.14c-0.884,0.484-1.836,0.727-2.858,0.727c-1.108,0-2.099-0.268-2.971-0.803
				s-1.533-1.267-1.983-2.192C447.795,132.255,447.57,131.275,447.57,130.242z M449.176,130.267c0,1.418,0.382,2.535,1.145,3.352
				s1.719,1.225,2.87,1.225c1.172,0,2.137-0.412,2.895-1.236c0.757-0.824,1.136-1.994,1.136-3.509c0-0.958-0.162-1.794-0.485-2.509
				c-0.324-0.715-0.798-1.269-1.422-1.662c-0.623-0.394-1.323-0.59-2.1-0.59c-1.103,0-2.051,0.379-2.846,1.136
				C449.573,127.23,449.176,128.495,449.176,130.267z"/>
			<path d="M466.06,135.975v-11.771h4.055c0.915,0,1.614,0.057,2.096,0.169c0.675,0.155,1.25,0.437,1.727,0.843
				c0.62,0.525,1.085,1.195,1.393,2.012s0.462,1.749,0.462,2.798c0,0.895-0.104,1.687-0.313,2.377s-0.477,1.262-0.803,1.714
				s-0.684,0.809-1.072,1.067c-0.388,0.26-0.856,0.457-1.404,0.591c-0.549,0.134-1.18,0.2-1.892,0.2H466.06z M467.617,134.586h2.514
				c0.775,0,1.385-0.072,1.826-0.217s0.793-0.348,1.056-0.61c0.369-0.369,0.657-0.865,0.863-1.489
				c0.206-0.623,0.309-1.38,0.309-2.269c0-1.23-0.202-2.177-0.605-2.838c-0.404-0.661-0.896-1.104-1.474-1.329
				c-0.417-0.16-1.089-0.24-2.016-0.24h-2.473V134.586z"/>
			<path d="M478.528,135.975v-11.771h1.558v11.771H478.528z"/>
			<path d="M481.868,135.975l4.52-11.771h1.679l4.817,11.771h-1.774l-1.373-3.564h-4.922l-1.293,3.564H481.868z M485.264,131.142
				h3.99l-1.228-3.26c-0.375-0.99-0.653-1.804-0.836-2.44c-0.149,0.754-0.361,1.504-0.634,2.248L485.264,131.142z"/>
			<path d="M496.247,135.975l4.52-11.771h1.679l4.817,11.771h-1.774l-1.373-3.564h-4.922l-1.293,3.564H496.247z M499.643,131.142
				h3.99l-1.228-3.26c-0.375-0.99-0.653-1.804-0.836-2.44c-0.149,0.754-0.361,1.504-0.634,2.248L499.643,131.142z"/>
			<path d="M512.826,135.975v-11.771h4.055c0.915,0,1.613,0.057,2.095,0.169c0.675,0.155,1.25,0.437,1.727,0.843
				c0.621,0.525,1.085,1.195,1.394,2.012c0.308,0.816,0.461,1.749,0.461,2.798c0,0.895-0.104,1.687-0.312,2.377
				c-0.209,0.69-0.477,1.262-0.804,1.714c-0.326,0.452-0.684,0.809-1.071,1.067c-0.389,0.26-0.856,0.457-1.405,0.591
				s-1.179,0.2-1.891,0.2H512.826z M514.384,134.586h2.513c0.776,0,1.385-0.072,1.826-0.217c0.442-0.145,0.794-0.348,1.057-0.61
				c0.369-0.369,0.656-0.865,0.862-1.489c0.206-0.623,0.31-1.38,0.31-2.269c0-1.23-0.202-2.177-0.606-2.838
				s-0.895-1.104-1.473-1.329c-0.418-0.16-1.09-0.24-2.016-0.24h-2.473V134.586z"/>
			<path d="M525.295,135.975v-11.771h1.558v11.771H525.295z"/>
			<path d="M528.634,135.975l4.521-11.771h1.678l4.817,11.771h-1.774l-1.373-3.564h-4.922l-1.292,3.564H528.634z M532.03,131.142
				h3.99l-1.229-3.26c-0.375-0.99-0.653-1.804-0.835-2.44c-0.15,0.754-0.361,1.504-0.635,2.248L532.03,131.142z"/>
		</g>
	</g>
</g>
</svg>
