<?xml version="1.0" encoding="utf-8"?>
<!-- Generator: Adobe Illustrator 17.0.0, SVG Export Plug-In . SVG Version: 6.00 Build 0)  -->
<!DOCTYPE svg PUBLIC "-//W3C//DTD SVG 1.1//EN" "http://www.w3.org/Graphics/SVG/1.1/DTD/svg11.dtd">
<svg version="1.1" id="Layer_1" xmlns="http://www.w3.org/2000/svg" xmlns:xlink="http://www.w3.org/1999/xlink" x="0px" y="0px"
	 width="450px" height="80.344px" viewBox="0 0 450 80.344" enable-background="new 0 0 450 80.344" xml:space="preserve">
<g>
	<g>
		<g>
			<path d="M158.867,53.675c-0.037,0.391-0.064,0.755-0.082,1.092c-0.019,0.338-0.027,0.648-0.027,0.932
				c0,1.953,0.309,3.4,0.928,4.341c0.619,0.941,1.619,1.411,3.003,1.411c1.055,0,1.902-0.354,2.539-1.065
				c0.636-0.71,0.956-1.704,0.956-2.983c0-0.887-0.155-1.678-0.464-2.37c-0.31-0.692-0.747-1.34-1.31-1.944
				c-0.565-0.603-1.22-1.216-1.966-1.837c-0.747-0.621-1.556-1.322-2.43-2.104c-1.966-1.775-3.431-3.533-4.395-5.273
				c-0.965-1.739-1.447-3.675-1.447-5.806c0-3.657,1.083-6.48,3.249-8.469c2.165-1.988,5.324-2.983,9.473-2.983
				c3.749,0,6.588,0.915,8.518,2.743c1.929,1.829,2.894,4.554,2.894,8.176c0,0.391,0,0.782,0,1.172c0,0.391-0.037,0.799-0.109,1.225
				h-8.245v-0.692c0-2.024-0.264-3.497-0.792-4.421c-0.528-0.923-1.447-1.385-2.757-1.385c-1.02,0-1.802,0.311-2.348,0.932
				c-0.546,0.622-0.819,1.465-0.819,2.53c0,1.35,0.409,2.522,1.229,3.515c0.819,0.995,1.956,2.096,3.413,3.302
				c1.055,0.924,2.038,1.793,2.948,2.61c0.909,0.817,1.693,1.696,2.348,2.637c0.655,0.941,1.174,1.997,1.556,3.169
				c0.382,1.172,0.573,2.539,0.573,4.101c0,4.084-1.101,7.164-3.303,9.241c-2.203,2.077-5.47,3.116-9.801,3.116
				c-8.154,0-12.231-4.208-12.231-12.623c0-0.39,0.009-0.772,0.027-1.145c0.019-0.373,0.046-0.754,0.082-1.145H158.867z"/>
			<path d="M181.963,37.59h8.518l-6.552,30.093h-8.518L181.963,37.59z M184.257,26.991h8.518l-1.474,6.924h-8.572L184.257,26.991z"
				/>
			<path d="M196.869,27.63h8.518l-2.675,12.41c1.783-2.059,3.877-3.089,6.279-3.089c2.075,0,3.658,0.595,4.75,1.784
				c1.092,1.19,1.638,2.956,1.638,5.299c0,1.74-0.218,3.915-0.655,6.525c-0.437,2.61-1.165,5.584-2.184,8.921
				c-0.947,3.161-2.075,5.451-3.385,6.871c-1.311,1.42-3.094,2.13-5.351,2.13c-1.638,0-2.967-0.355-3.986-1.065
				c-1.02-0.71-1.911-1.864-2.675-3.462l-0.874,3.728h-8.136L196.869,27.63z M199.545,54.527c-0.364,1.776-0.546,3.143-0.546,4.101
				c0,1.847,0.764,2.77,2.293,2.77c1.019,0,1.783-0.541,2.293-1.625c0.509-1.083,1.019-2.743,1.529-4.98l1.037-4.74
				c0.254-1.065,0.427-1.971,0.519-2.716c0.09-0.746,0.136-1.313,0.136-1.704c0-0.816-0.191-1.465-0.573-1.944
				c-0.382-0.479-0.92-0.719-1.611-0.719c-1.129,0-1.948,0.524-2.457,1.571c-0.51,1.048-1.002,2.619-1.474,4.714L199.545,54.527z"/>
			<path d="M229.084,65.18c-1.93,2.166-4.332,3.249-7.207,3.249c-2.184,0-3.877-0.648-5.078-1.944
				c-1.201-1.296-1.802-3.169-1.802-5.619c0-5.361,2.358-8.753,7.076-10.173c1.597-0.497,3.048-0.896,4.354-1.198
				c1.306-0.301,2.413-0.63,3.32-0.985c0.907-0.355,1.606-0.79,2.095-1.305c0.49-0.514,0.735-1.252,0.735-2.21
				c0-1.669-0.928-2.503-2.785-2.503c-1.165,0-2.03,0.329-2.594,0.985c-0.565,0.657-0.992,1.696-1.283,3.116h-7.863
				c0.509-3.337,1.756-5.796,3.74-7.377c1.984-1.579,4.832-2.37,8.545-2.37c3.507,0,6.149,0.692,7.926,2.077
				c1.777,1.385,2.666,3.409,2.666,6.072c0,0.782-0.082,1.651-0.246,2.61c-0.164,0.959-0.374,2.024-0.628,3.196l-2.348,10.653
				c-0.255,1.101-0.382,2.308-0.382,3.622c0,0.746,0.055,1.616,0.164,2.61h-8.409V65.18z M231.049,53.036
				c-0.947,0.711-1.948,1.217-3.003,1.518c-1.056,0.302-2.002,0.702-2.839,1.199c-1.165,0.675-1.747,1.953-1.747,3.835
				c0,1.883,0.874,2.823,2.621,2.823c1.164,0,2.038-0.444,2.621-1.332c0.582-0.887,1.073-2.29,1.474-4.208L231.049,53.036z
				 M227.773,34.394l5.405-7.403h7.044l-9.064,7.403H227.773z"/>
			<path d="M261.79,27.63h13.159l-0.164,22.956h0.437c0.509-1.349,0.991-2.618,1.447-3.808c0.455-1.189,0.919-2.317,1.392-3.382
				l6.934-15.766h13.869l-8.736,40.053h-9.009l5.296-21.145c0.109-0.497,0.391-1.589,0.846-3.276
				c0.455-1.686,1.065-4.021,1.829-7.004h-0.437l-13.541,31.425h-7.044l0.055-31.425h-0.328c-0.183,1.243-0.355,2.406-0.519,3.489
				c-0.164,1.084-0.337,2.104-0.519,3.063l-4.75,24.873h-8.955L261.79,27.63z"/>
			<path d="M309.293,65.18c-1.93,2.166-4.332,3.249-7.207,3.249c-2.184,0-3.877-0.648-5.078-1.944
				c-1.201-1.296-1.802-3.169-1.802-5.619c0-5.361,2.358-8.753,7.076-10.173c1.597-0.497,3.048-0.896,4.354-1.198
				c1.306-0.301,2.413-0.63,3.32-0.985c0.907-0.355,1.606-0.79,2.096-1.305c0.49-0.514,0.735-1.252,0.735-2.21
				c0-1.669-0.928-2.503-2.785-2.503c-1.166,0-2.03,0.329-2.594,0.985c-0.565,0.657-0.992,1.696-1.283,3.116h-7.863
				c0.509-3.337,1.756-5.796,3.74-7.377c1.984-1.579,4.832-2.37,8.545-2.37c3.507,0,6.149,0.692,7.927,2.077
				c1.777,1.385,2.666,3.409,2.666,6.072c0,0.782-0.082,1.651-0.246,2.61c-0.164,0.959-0.374,2.024-0.628,3.196l-2.348,10.653
				c-0.255,1.101-0.382,2.308-0.382,3.622c0,0.746,0.055,1.616,0.164,2.61h-8.409V65.18z M311.259,53.036
				c-0.947,0.711-1.948,1.217-3.003,1.518c-1.056,0.302-2.002,0.702-2.839,1.199c-1.165,0.675-1.747,1.953-1.747,3.835
				c0,1.883,0.874,2.823,2.621,2.823c1.164,0,2.038-0.444,2.621-1.332c0.582-0.887,1.073-2.29,1.474-4.208L311.259,53.036z"/>
			<path d="M345.22,55.912c-0.437,2.273-1.002,4.206-1.693,5.799c-0.692,1.593-1.556,2.891-2.594,3.894
				c-1.038,1.004-2.285,1.734-3.74,2.191c-1.456,0.457-3.167,0.686-5.133,0.686c-3.385,0-5.952-0.746-7.699-2.237
				c-1.747-1.491-2.621-3.604-2.621-6.338c0-1.739,0.418-4.509,1.256-8.309c0.983-4.296,1.856-7.208,2.621-8.735
				c1.128-2.165,2.539-3.719,4.232-4.661c1.693-0.94,3.958-1.411,6.798-1.411c3.312,0,5.851,0.746,7.617,2.237
				c1.765,1.491,2.648,3.622,2.648,6.392c0,0.426-0.019,0.914-0.055,1.465c-0.037,0.551-0.109,1.145-0.218,1.784h-8.299
				c0.109-0.603,0.2-1.163,0.273-1.678c0.073-0.514,0.109-1.003,0.109-1.465c0-1.882-0.838-2.823-2.512-2.823
				c-0.619,0-1.138,0.134-1.556,0.401c-0.419,0.267-0.764,0.677-1.038,1.228c-0.273,0.552-0.519,1.237-0.737,2.056
				c-0.218,0.819-0.455,1.78-0.71,2.884l-1.201,5.394c-0.583,2.741-0.874,4.504-0.874,5.287c0,1.744,0.746,2.616,2.239,2.616
				c1.274,0,2.211-0.533,2.812-1.598c0.601-1.065,1.137-2.751,1.611-5.06H345.22z"/>
			<path d="M354.066,27.63h8.572l-2.676,12.091c1.601-1.846,3.803-2.77,6.607-2.77c1.747,0,3.167,0.532,4.259,1.598
				c1.092,1.065,1.638,2.503,1.638,4.314c0,0.426-0.046,1.092-0.137,1.997c-0.091,0.906-0.282,2.033-0.573,3.382l-4.259,19.441
				h-8.518l4.587-21.039c0.072-0.354,0.118-0.666,0.137-0.932c0.018-0.266,0.027-0.541,0.027-0.825c0-1.243-0.637-1.864-1.911-1.864
				c-1.056,0-1.848,0.479-2.375,1.438c-0.528,0.959-1.01,2.415-1.447,4.368l-4.095,18.855h-8.518L354.066,27.63z"/>
			<path d="M386.117,65.18c-1.93,2.166-4.332,3.249-7.207,3.249c-2.184,0-3.877-0.648-5.078-1.944
				c-1.201-1.296-1.802-3.169-1.802-5.619c0-5.361,2.358-8.753,7.076-10.173c1.597-0.497,3.048-0.896,4.354-1.198
				c1.306-0.301,2.413-0.63,3.32-0.985c0.907-0.355,1.606-0.79,2.095-1.305c0.49-0.514,0.735-1.252,0.735-2.21
				c0-1.669-0.928-2.503-2.785-2.503c-1.165,0-2.03,0.329-2.594,0.985c-0.565,0.657-0.992,1.696-1.283,3.116h-7.863
				c0.509-3.337,1.756-5.796,3.74-7.377c1.983-1.579,4.832-2.37,8.545-2.37c3.507,0,6.149,0.692,7.927,2.077
				c1.777,1.385,2.666,3.409,2.666,6.072c0,0.782-0.082,1.651-0.246,2.61c-0.164,0.959-0.374,2.024-0.628,3.196l-2.348,10.653
				c-0.255,1.101-0.382,2.308-0.382,3.622c0,0.746,0.055,1.616,0.164,2.61h-8.409V65.18z M388.082,53.036
				c-0.947,0.711-1.948,1.217-3.003,1.518c-1.056,0.302-2.002,0.702-2.839,1.199c-1.165,0.675-1.747,1.953-1.747,3.835
				c0,1.883,0.873,2.823,2.621,2.823c1.164,0,2.038-0.444,2.621-1.332c0.582-0.887,1.073-2.29,1.474-4.208L388.082,53.036z"/>
			<path d="M419.369,67.683h-7.59l0.601-2.876c-1.966,2.45-4.459,3.675-7.48,3.675c-4.223,0-6.334-2.308-6.334-6.924
				c0-1.42,0.209-3.462,0.628-6.125c0.418-2.663,1.174-5.823,2.266-9.481c0.473-1.562,0.973-2.911,1.501-4.048
				c0.527-1.136,1.147-2.077,1.856-2.823c0.71-0.746,1.51-1.296,2.402-1.651c0.892-0.354,1.919-0.532,3.085-0.532
				c3.349,0,5.405,1.651,6.17,4.953l3.112-14.221h8.518L419.369,67.683z M414.509,50.746c0.363-1.739,0.546-3.107,0.546-4.101
				c0-1.846-0.764-2.77-2.293-2.77c-0.51,0-0.947,0.133-1.31,0.399c-0.364,0.266-0.683,0.675-0.955,1.225
				c-0.273,0.551-0.528,1.243-0.765,2.077c-0.237,0.835-0.483,1.803-0.737,2.903l-1.201,5.113c-0.255,1.03-0.428,1.918-0.519,2.663
				c-0.091,0.746-0.137,1.332-0.137,1.758c0,1.776,0.783,2.663,2.348,2.663c1.055,0,1.847-0.523,2.375-1.571
				c0.527-1.047,1.01-2.618,1.447-4.714L414.509,50.746z"/>
			<path d="M424.829,59.96c0-0.923,0.1-2.095,0.3-3.515c0.2-1.42,0.519-3.107,0.956-5.06c0.509-2.308,1.001-4.163,1.474-5.566
				c0.473-1.402,0.855-2.388,1.147-2.956c1.128-2.165,2.53-3.719,4.204-4.661c1.674-0.94,3.931-1.411,6.77-1.411
				c3.385,0,5.952,0.746,7.699,2.237c1.747,1.491,2.621,3.604,2.621,6.338c0,1.883-0.401,4.652-1.201,8.309
				c-0.983,4.368-1.856,7.297-2.621,8.788c-1.092,2.202-2.494,3.755-4.204,4.66c-1.711,0.906-3.986,1.358-6.825,1.358
				c-3.349,0-5.906-0.737-7.672-2.21C425.711,64.799,424.829,62.695,424.829,59.96z M434.007,54.666
				c-0.293,1.353-0.504,2.457-0.632,3.311c-0.128,0.855-0.192,1.478-0.192,1.869c0,1.816,0.788,2.724,2.363,2.724
				c0.623,0,1.144-0.133,1.566-0.4c0.421-0.267,0.769-0.668,1.044-1.202c0.275-0.534,0.522-1.211,0.742-2.03
				c0.22-0.819,0.458-1.798,0.715-2.937l1.154-5.395c0.586-2.634,0.88-4.361,0.88-5.18c0-1.816-0.788-2.724-2.363-2.724
				c-0.623,0-1.145,0.134-1.566,0.401c-0.421,0.267-0.77,0.668-1.044,1.202c-0.275,0.534-0.522,1.21-0.742,2.029
				c-0.22,0.819-0.458,1.798-0.714,2.937L434.007,54.666z"/>
		</g>
		<g>
			<path d="M205.114,21.616h-0.683v-3.462c-0.367,1.264-0.914,2.228-1.641,2.89s-1.619,0.993-2.676,0.993
				c-0.779,0-1.476-0.186-2.093-0.557c-0.617-0.371-1.145-0.908-1.586-1.611c-0.441-0.702-0.779-1.56-1.013-2.574
				c-0.235-1.013-0.352-2.162-0.352-3.447c0-1.284,0.117-2.433,0.352-3.447c0.235-1.013,0.573-1.871,1.013-2.574
				c0.44-0.702,0.969-1.239,1.586-1.611c0.617-0.371,1.314-0.557,2.093-0.557c1.057,0,1.957,0.331,2.698,0.993
				c0.741,0.662,1.281,1.586,1.619,2.77V0h0.683V21.616z M204.432,13.849c0-2.328-0.39-4.134-1.17-5.419
				c-0.78-1.284-1.833-1.927-3.158-1.927s-2.382,0.643-3.169,1.927c-0.787,1.285-1.181,3.091-1.181,5.419
				c0,2.329,0.394,4.135,1.181,5.419c0.788,1.285,1.844,1.927,3.169,1.927s2.377-0.642,3.158-1.927
				C204.041,17.984,204.432,16.177,204.432,13.849z"/>
			<path d="M217.031,17.04c-0.132,0.763-0.338,1.45-0.617,2.062c-0.279,0.613-0.617,1.139-1.013,1.581
				c-0.396,0.442-0.845,0.778-1.344,1.008c-0.499,0.231-1.035,0.346-1.608,0.346c-0.734,0-1.399-0.186-1.993-0.557
				c-0.595-0.371-1.105-0.908-1.531-1.611c-0.426-0.702-0.753-1.56-0.98-2.574c-0.228-1.013-0.342-2.162-0.342-3.447
				c0-1.284,0.114-2.433,0.342-3.447c0.227-1.013,0.554-1.871,0.98-2.574c0.426-0.702,0.936-1.239,1.531-1.611
				c0.595-0.371,1.259-0.557,1.993-0.557c1.483,0,2.654,0.668,3.513,2.002c0.859,1.335,1.288,3.227,1.288,5.675v0.572h-8.921v0.241
				c0,1.084,0.103,2.062,0.308,2.935c0.205,0.873,0.492,1.611,0.859,2.213c0.367,0.602,0.8,1.069,1.3,1.4
				c0.499,0.331,1.05,0.497,1.652,0.497c0.94,0,1.758-0.366,2.456-1.099c0.697-0.733,1.178-1.751,1.443-3.056H217.031z
				 M216.502,13.066c0-1.028-0.099-1.946-0.297-2.752c-0.198-0.806-0.47-1.492-0.815-2.057c-0.345-0.565-0.756-0.998-1.233-1.3
				c-0.477-0.303-1.002-0.454-1.575-0.454c-1.204,0-2.188,0.575-2.952,1.724c-0.764,1.15-1.189,2.763-1.278,4.839H216.502z"/>
			<path d="M219.696,5.991h0.683v3.583c0.736-2.609,2.179-3.914,4.327-3.914c0.765,0,1.46,0.186,2.086,0.557
				c0.626,0.372,1.159,0.908,1.601,1.611c0.442,0.703,0.78,1.561,1.016,2.574c0.235,1.014,0.354,2.163,0.354,3.447
				c0,1.285-0.118,2.434-0.354,3.447c-0.235,1.014-0.574,1.872-1.016,2.574c-0.442,0.703-0.975,1.24-1.601,1.611
				c-0.626,0.371-1.321,0.557-2.086,0.557c-1.06,0-1.958-0.326-2.694-0.978c-0.736-0.652-1.281-1.591-1.634-2.815v9.574h-0.683
				V5.991z M220.378,13.849c0,2.329,0.391,4.135,1.173,5.419c0.782,1.285,1.837,1.927,3.166,1.927c1.328,0,2.387-0.642,3.177-1.927
				c0.789-1.284,1.185-3.09,1.185-5.419c0-2.328-0.395-4.134-1.185-5.419c-0.789-1.284-1.848-1.927-3.177-1.927
				c-1.328,0-2.384,0.643-3.166,1.927C220.769,9.715,220.378,11.521,220.378,13.849z"/>
			<path d="M240.709,21.616h-0.683v-2.439c-0.352,0.944-0.856,1.656-1.509,2.138c-0.654,0.482-1.436,0.723-2.346,0.723
				c-2.614,0-3.921-1.856-3.921-5.57V6.021h0.683v10.146c0,1.746,0.246,3.021,0.738,3.823c0.492,0.803,1.318,1.204,2.478,1.204
				c1.292,0,2.276-0.522,2.952-1.566c0.44-0.682,0.705-1.44,0.793-2.273c0.088-0.833,0.132-1.791,0.132-2.875v-8.46h0.683V21.616z"
				/>
			<path d="M245.048,18.178c0,1.006,0.055,1.75,0.165,2.233c0.11,0.483,0.393,0.724,0.848,0.724c0.161,0,0.327-0.023,0.496-0.068
				c0.169-0.045,0.356-0.113,0.562-0.203v0.873c-0.47,0.16-0.859,0.241-1.167,0.241c-0.602,0-1.017-0.226-1.245-0.677
				c-0.228-0.452-0.341-1.169-0.341-2.153V6.834h-1.432V5.991h1.432V1.716h0.683v4.275h2.071v0.843h-2.071V18.178z"/>
			<path d="M258.484,21.707c-0.132,0.02-0.25,0.04-0.352,0.06c-0.103,0.02-0.191,0.03-0.264,0.03c-0.543,0-0.929-0.226-1.156-0.677
				c-0.228-0.452-0.341-1.169-0.341-2.153c-0.455,0.964-1.076,1.711-1.861,2.243c-0.786,0.532-1.7,0.798-2.742,0.798
				c-1.028,0-1.854-0.401-2.478-1.204c-0.624-0.803-0.936-1.867-0.936-3.191c0-1.465,0.374-2.544,1.123-3.236
				c0.749-0.692,1.894-1.189,3.436-1.49c0.587-0.12,1.098-0.206,1.531-0.256c0.433-0.05,0.793-0.13,1.079-0.241
				c0.286-0.11,0.499-0.261,0.639-0.452c0.139-0.19,0.209-0.476,0.209-0.858V9.754c0-1.064-0.261-1.877-0.782-2.439
				c-0.521-0.562-1.288-0.843-2.302-0.843c-1.16,0-2.063,0.341-2.709,1.024c-0.646,0.683-0.999,1.636-1.057,2.86h-0.661
				c0.044-1.445,0.448-2.594,1.211-3.447c0.763-0.853,1.813-1.279,3.15-1.279c1.615,0,2.731,0.602,3.348,1.806
				c0.235,0.462,0.374,0.954,0.419,1.475c0.044,0.522,0.066,1.104,0.066,1.746v7.617c0,0.963,0.059,1.656,0.176,2.077
				c0.117,0.421,0.396,0.632,0.837,0.632c0.073,0,0.143-0.005,0.209-0.015c0.066-0.01,0.136-0.025,0.209-0.045V21.707z
				 M256.369,12.675c-0.162,0.281-0.484,0.472-0.969,0.572c-0.485,0.101-1.145,0.221-1.982,0.361
				c-0.734,0.12-1.373,0.276-1.916,0.467c-0.543,0.191-0.995,0.432-1.355,0.723c-0.36,0.291-0.628,0.652-0.804,1.084
				c-0.176,0.432-0.264,0.959-0.264,1.581c0,1.144,0.25,2.032,0.749,2.664c0.499,0.632,1.211,0.948,2.137,0.948
				c0.646,0,1.252-0.14,1.817-0.421c0.565-0.281,1.046-0.652,1.443-1.114c0.25-0.301,0.448-0.607,0.595-0.918
				c0.147-0.311,0.26-0.647,0.341-1.008c0.081-0.361,0.136-0.757,0.165-1.189c0.029-0.431,0.044-0.908,0.044-1.43V12.675z"/>
			<path d="M269.827,21.616h-0.683v-3.462c-0.367,1.264-0.914,2.228-1.641,2.89s-1.619,0.993-2.676,0.993
				c-0.779,0-1.476-0.186-2.093-0.557c-0.617-0.371-1.145-0.908-1.586-1.611c-0.441-0.702-0.779-1.56-1.013-2.574
				c-0.235-1.013-0.352-2.162-0.352-3.447c0-1.284,0.117-2.433,0.352-3.447c0.235-1.013,0.573-1.871,1.013-2.574
				c0.44-0.702,0.969-1.239,1.586-1.611c0.617-0.371,1.314-0.557,2.093-0.557c1.057,0,1.957,0.331,2.698,0.993
				c0.741,0.662,1.281,1.586,1.619,2.77V0h0.683V21.616z M269.144,13.849c0-2.328-0.39-4.134-1.17-5.419
				c-0.78-1.284-1.833-1.927-3.158-1.927c-1.325,0-2.382,0.643-3.169,1.927c-0.787,1.285-1.181,3.091-1.181,5.419
				c0,2.329,0.394,4.135,1.181,5.419c0.788,1.285,1.844,1.927,3.169,1.927c1.325,0,2.377-0.642,3.158-1.927
				C268.754,17.984,269.144,16.177,269.144,13.849z"/>
			<path d="M272.338,13.849c0-1.284,0.117-2.433,0.352-3.447c0.235-1.013,0.569-1.871,1.002-2.574
				c0.433-0.702,0.958-1.239,1.575-1.611c0.617-0.371,1.314-0.557,2.093-0.557c0.763,0,1.457,0.186,2.081,0.557
				c0.624,0.372,1.156,0.908,1.597,1.611c0.441,0.703,0.778,1.561,1.013,2.574c0.235,1.014,0.352,2.163,0.352,3.447
				c0,1.285-0.118,2.434-0.352,3.447c-0.235,1.014-0.573,1.872-1.013,2.574c-0.441,0.703-0.973,1.24-1.597,1.611
				c-0.624,0.371-1.318,0.557-2.081,0.557c-0.779,0-1.476-0.186-2.093-0.557c-0.617-0.371-1.142-0.908-1.575-1.611
				c-0.433-0.702-0.768-1.56-1.002-2.574C272.455,16.283,272.338,15.134,272.338,13.849z M273.021,13.849
				c0,2.329,0.391,4.135,1.173,5.419c0.782,1.285,1.837,1.927,3.166,1.927c1.328,0,2.387-0.642,3.177-1.927
				c0.79-1.284,1.185-3.09,1.185-5.419c0-2.328-0.395-4.134-1.185-5.419c-0.789-1.284-1.848-1.927-3.177-1.927
				c-1.329,0-2.384,0.643-3.166,1.927C273.412,9.715,273.021,11.521,273.021,13.849z"/>
		</g>
	</g>
	<g>
		<path fill="#FF0000" d="M1.338,65.08c-1.297-2.673-1.651-5.326-1.061-7.96c0.59-2.633,1.837-5.139,3.744-7.517
			c1.906-2.378,4.323-4.599,7.252-6.662c2.928-2.064,6.063-3.881,9.404-5.454c3.34-1.572,6.76-2.849,10.259-3.832
			c3.498-0.982,6.78-1.572,9.846-1.769c3.066-0.196,5.768,0.02,8.107,0.649c2.338,0.629,4.018,1.789,5.041,3.479
			c0.314,0.551,0.392,1.101,0.236,1.651c-0.158,0.551-0.472,1.091-0.943,1.621c-0.472,0.531-1.061,1.023-1.769,1.474
			c-0.707,0.452-1.444,0.855-2.211,1.209c-0.766,0.354-1.514,0.629-2.24,0.825c-0.728,0.197-1.347,0.295-1.857,0.295
			c-0.865,0-1.573-0.137-2.122-0.413c-0.551-0.275-0.964-0.569-1.238-0.884c-0.275-0.314-0.423-0.619-0.442-0.914
			c-0.02-0.295,0.068-0.481,0.265-0.56c0.628-0.157,1.542-0.383,2.742-0.678c1.199-0.295,2.368-0.658,3.508-1.091
			c1.14-0.432,2.073-0.933,2.801-1.503c0.727-0.569,0.914-1.247,0.56-2.034c-0.275-0.55-0.964-0.894-2.064-1.032
			c-1.101-0.137-2.339-0.137-3.714,0c-1.376,0.138-2.781,0.364-4.216,0.678c-1.435,0.315-2.644,0.629-3.626,0.943
			c-2.398,0.747-5.022,1.72-7.871,2.919c-2.85,1.199-5.67,2.565-8.461,4.097c-2.791,1.533-5.454,3.184-7.989,4.953
			c-2.535,1.769-4.697,3.597-6.485,5.483c-1.789,1.887-3.086,3.784-3.891,5.69c-0.806,1.907-0.895,3.764-0.265,5.571
			c0.354,0.983,0.973,1.73,1.857,2.241c0.884,0.511,1.925,0.846,3.125,1.002c1.199,0.158,2.506,0.158,3.921,0
			c1.415-0.157,2.801-0.442,4.157-0.855c1.356-0.413,2.643-0.923,3.862-1.533c1.218-0.609,2.26-1.268,3.125-1.975
			c0.707-1.179,1.464-2.348,2.27-3.508c0.805-1.159,1.621-2.23,2.447-3.213c0.825-0.982,1.651-1.877,2.476-2.683
			c0.825-0.805,1.611-1.445,2.358-1.916c0.392-0.274,0.845-0.442,1.356-0.501c0.51-0.059,0.963-0.039,1.356,0.059
			c0.392,0.099,0.697,0.246,0.914,0.442c0.216,0.197,0.265,0.374,0.147,0.531c-1.73,2.358-3.331,4.609-4.805,6.751
			c-1.474,2.143-2.85,4.304-4.127,6.485c-1.278,2.181-2.486,4.441-3.626,6.78c-1.14,2.338-2.261,4.884-3.361,7.635
			c-0.118,0.274-0.315,0.354-0.59,0.236c-0.276-0.118-0.551-0.364-0.825-0.737c-0.275-0.374-0.511-0.855-0.708-1.444
			c-0.197-0.59-0.275-1.238-0.236-1.946c0.118-2.752,0.845-5.424,2.181-8.018c-1.494,0.707-3.164,1.218-5.012,1.533
			c-1.848,0.314-3.666,0.373-5.454,0.177c-1.789-0.197-3.41-0.688-4.864-1.474C3.126,67.595,2.045,66.494,1.338,65.08z"/>
		<path fill="#FF0000" d="M55.52,54.054c0.55-0.51,0.992-0.638,1.327-0.383c0.333,0.256,0.226,0.718-0.324,1.386
			c-0.315,0.354-0.747,0.875-1.297,1.562c-0.551,0.688-1.12,1.385-1.71,2.093c-0.59,0.708-1.179,1.337-1.769,1.887
			c-0.59,0.551-1.081,0.865-1.474,0.943c-0.511,0.118-1.229,0.04-2.152-0.236c-0.924-0.274-1.72-0.687-2.388-1.238
			c-0.511,0.354-1.002,0.698-1.474,1.032c-0.472,0.334-0.943,0.58-1.415,0.737c-0.433,0.079-0.964,0.059-1.592-0.059
			c-0.629-0.118-1.248-0.344-1.857-0.678c-0.61-0.333-1.15-0.737-1.621-1.209c-0.472-0.472-0.786-1.022-0.943-1.651
			c-0.157-0.668,0.01-1.464,0.501-2.388c0.492-0.923,1.091-1.798,1.798-2.624c0.708-0.825,1.444-1.542,2.211-2.152
			c0.767-0.609,1.365-0.933,1.798-0.973c0.275-0.039,0.619-0.019,1.032,0.059c0.413,0.079,0.825,0.217,1.238,0.413
			c0.413,0.197,0.786,0.433,1.12,0.707c0.334,0.276,0.56,0.59,0.678,0.943c0.55-0.472,1.022-0.687,1.415-0.649
			c0.314,0.079,0.649,0.177,1.002,0.295c0.354,0.118,0.678,0.256,0.973,0.413c0.295,0.158,0.54,0.354,0.737,0.59
			c0.196,0.236,0.275,0.492,0.236,0.766c0,0.315-0.158,0.737-0.472,1.268c-0.315,0.531-0.649,1.071-1.002,1.621
			c-0.354,0.551-0.649,1.042-0.884,1.474c-0.236,0.433-0.276,0.707-0.118,0.825c0.118,0.079,0.383-0.009,0.796-0.265
			c0.413-0.255,0.914-0.609,1.503-1.061c0.59-0.451,1.247-0.973,1.975-1.562C54.095,55.351,54.813,54.723,55.52,54.054z
			 M40.722,59.714c0.432,0.236,0.973,0.109,1.621-0.383c0.649-0.491,1.268-1.11,1.857-1.857c0.59-0.746,1.091-1.513,1.503-2.299
			c0.413-0.786,0.619-1.375,0.619-1.769c-0.158-0.354-0.433-0.451-0.825-0.295c-0.393,0.158-0.825,0.452-1.297,0.884
			c-0.472,0.433-0.954,0.964-1.445,1.592c-0.492,0.629-0.914,1.229-1.268,1.798c-0.354,0.57-0.619,1.082-0.796,1.533
			C40.515,59.371,40.524,59.636,40.722,59.714z"/>
		<path fill="#FF0000" d="M57.996,58.83c0.196,0.197,0.501,0.158,0.914-0.118c0.413-0.274,0.855-0.628,1.327-1.061
			c0.472-0.432,0.923-0.904,1.356-1.415c0.432-0.51,0.786-0.943,1.061-1.297c-0.079-0.432-0.04-0.864,0.118-1.297
			c0.157-0.432,0.392-0.825,0.707-1.179c0.314-0.354,0.697-0.649,1.15-0.884c0.451-0.236,0.914-0.373,1.386-0.413
			c0.432,0,0.914,0.099,1.444,0.295c0.531,0.197,0.835,0.511,0.914,0.943c0.118,0.354,0.098,0.767-0.059,1.238
			c-0.158,0.472-0.393,0.943-0.708,1.415c0.628,0.197,1.238,0.227,1.828,0.088c0.59-0.137,1.218-0.481,1.887-1.032
			c0.236-0.157,0.472-0.285,0.707-0.383c0.236-0.098,0.422-0.127,0.56-0.089c0.137,0.04,0.206,0.128,0.206,0.265
			c0,0.138-0.118,0.324-0.354,0.56c-0.472,0.472-0.954,0.914-1.444,1.327c-0.492,0.413-0.983,0.757-1.474,1.032
			c-0.492,0.275-1.012,0.472-1.562,0.59c-0.551,0.118-1.12,0.098-1.71-0.059c-0.787,0.905-1.651,1.779-2.594,2.624
			c-0.943,0.846-1.789,1.347-2.535,1.503c-0.708,0.118-1.455,0.029-2.24-0.265c-0.787-0.295-1.503-0.707-2.152-1.238
			c-0.649-0.531-1.179-1.14-1.592-1.828c-0.413-0.687-0.619-1.365-0.619-2.034c0-0.51,0.334-1.474,1.002-2.889
			c0.668-1.415,1.552-3.066,2.653-4.953c1.1-1.887,2.378-3.891,3.832-6.014c1.454-2.123,2.948-4.117,4.481-5.984
			c1.533-1.866,3.075-3.498,4.628-4.893c1.552-1.395,2.977-2.309,4.274-2.742c0.432-0.157,0.992-0.216,1.68-0.177
			c0.687,0.04,1.365,0.168,2.034,0.383c0.668,0.217,1.247,0.531,1.739,0.943c0.491,0.413,0.737,0.894,0.737,1.444
			c0,0.629-0.334,1.484-1.002,2.565c-0.669,1.082-1.573,2.29-2.712,3.626c-1.14,1.337-2.447,2.762-3.921,4.274
			c-1.474,1.514-3.017,3.027-4.628,4.54c-1.612,1.514-3.243,2.958-4.894,4.333c-1.651,1.376-3.204,2.594-4.658,3.655
			c-0.472,0.707-0.865,1.376-1.179,2.005c-0.275,0.551-0.492,1.071-0.649,1.562C57.779,58.29,57.799,58.634,57.996,58.83z
			 M78.572,31.532c-0.158-0.196-0.511-0.078-1.061,0.354c-0.551,0.433-1.238,1.082-2.064,1.946
			c-0.825,0.865-1.739,1.878-2.742,3.036c-1.002,1.16-2.015,2.349-3.036,3.567c-2.398,2.909-5.07,6.27-8.018,10.082
			c0.51-0.392,1.316-1.081,2.417-2.064c1.1-0.982,2.319-2.132,3.655-3.449c1.336-1.316,2.692-2.692,4.068-4.127
			c1.375-1.434,2.603-2.79,3.685-4.068c1.081-1.277,1.925-2.397,2.535-3.361C78.621,32.485,78.808,31.847,78.572,31.532z"/>
		<path fill="#FF0000" d="M81.107,54.172c0.786-0.708,1.375-0.923,1.769-0.649c0.392,0.275,0.236,0.846-0.472,1.71
			c-0.472,0.59-1.042,1.209-1.71,1.857c-0.669,0.649-1.347,1.258-2.034,1.828c-0.688,0.57-1.327,1.061-1.916,1.474
			s-1.042,0.659-1.356,0.737c-0.433,0.039-0.934-0.039-1.503-0.236c-0.57-0.196-1.12-0.491-1.651-0.884
			c-0.531-0.392-0.964-0.874-1.297-1.444c-0.334-0.569-0.462-1.209-0.383-1.916c0.079-0.668,0.265-1.405,0.56-2.211
			c0.295-0.805,0.638-1.542,1.032-2.211c0.392-0.668,0.786-1.218,1.179-1.651c0.392-0.432,0.746-0.628,1.061-0.59
			c0.275,0.079,0.569,0.187,0.884,0.324c0.314,0.138,0.599,0.295,0.855,0.472c0.255,0.177,0.462,0.383,0.619,0.619
			c0.157,0.236,0.216,0.511,0.177,0.825c-0.04,0.315-0.217,0.777-0.531,1.385c-0.315,0.61-0.629,1.229-0.943,1.857
			c-0.315,0.629-0.59,1.199-0.825,1.71c-0.236,0.511-0.275,0.825-0.118,0.943c0.118,0.079,0.403,0.029,0.855-0.147
			c0.451-0.177,0.982-0.442,1.592-0.796c0.609-0.354,1.277-0.786,2.005-1.297C79.682,55.372,80.399,54.801,81.107,54.172z
			 M78.866,48.394c-0.236,0-0.531-0.059-0.884-0.177c-0.354-0.118-0.678-0.274-0.973-0.472c-0.295-0.196-0.531-0.422-0.707-0.678
			c-0.177-0.255-0.246-0.521-0.206-0.796c0.039-0.236,0.147-0.55,0.324-0.943c0.177-0.392,0.383-0.776,0.619-1.15
			c0.236-0.373,0.501-0.697,0.796-0.973c0.295-0.274,0.579-0.451,0.855-0.531c0.275-0.039,0.609,0.01,1.002,0.147
			c0.392,0.138,0.766,0.334,1.12,0.59c0.354,0.256,0.638,0.531,0.855,0.825c0.216,0.295,0.304,0.541,0.265,0.737
			c0,0.236-0.118,0.541-0.354,0.914c-0.236,0.374-0.511,0.737-0.825,1.091c-0.315,0.354-0.649,0.669-1.002,0.943
			C79.397,48.198,79.102,48.355,78.866,48.394z"/>
		<path fill="#FF0000" d="M82.698,51.578c0.236-0.236,0.521-0.324,0.855-0.265c0.333,0.059,0.649,0.197,0.943,0.413
			c0.295,0.217,0.56,0.492,0.796,0.825c0.236,0.334,0.373,0.639,0.413,0.914c0.078,0.276,0.068,0.619-0.029,1.032
			c-0.099,0.413-0.236,0.825-0.413,1.238c-0.177,0.413-0.345,0.787-0.501,1.12c-0.158,0.334-0.256,0.58-0.295,0.737
			c0.196-0.118,0.649-0.521,1.356-1.209c0.707-0.687,1.454-1.424,2.24-2.211c0.786-0.786,1.523-1.493,2.211-2.123
			c0.687-0.628,1.129-0.982,1.327-1.061c0.157-0.078,0.432-0.088,0.825-0.029c0.392,0.059,0.786,0.177,1.179,0.354
			c0.392,0.177,0.746,0.394,1.061,0.649c0.314,0.256,0.51,0.541,0.59,0.855c0.078,0.315-0.069,0.825-0.442,1.533
			c-0.374,0.708-0.777,1.445-1.209,2.211c-0.433,0.766-0.816,1.455-1.15,2.063c-0.334,0.61-0.403,0.973-0.206,1.091
			c0.196,0.118,0.628-0.039,1.297-0.472c0.668-0.432,1.405-0.963,2.211-1.592c0.805-0.628,1.562-1.268,2.27-1.916
			c0.708-0.649,1.218-1.11,1.533-1.386c0.314-0.274,0.58-0.422,0.796-0.442c0.216-0.019,0.383,0.05,0.501,0.206
			c0.118,0.158,0.167,0.354,0.147,0.59c-0.02,0.236-0.109,0.492-0.265,0.767c-0.197,0.275-0.61,0.757-1.238,1.444
			c-0.629,0.688-1.327,1.415-2.093,2.181c-0.766,0.767-1.503,1.465-2.211,2.093c-0.707,0.629-1.258,1.002-1.651,1.12
			c-0.59,0.236-1.248,0.305-1.975,0.206c-0.728-0.098-1.425-0.275-2.093-0.531c-0.669-0.255-1.229-0.59-1.68-1.002
			c-0.452-0.413-0.698-0.835-0.737-1.268c-0.04-0.157,0.03-0.472,0.206-0.943c0.177-0.472,0.383-0.943,0.619-1.415
			s0.461-0.904,0.678-1.297c0.216-0.392,0.324-0.609,0.324-0.649c-1.14,1.219-2.074,2.181-2.801,2.889
			c-0.728,0.707-1.455,1.356-2.181,1.946c-0.728,0.589-1.248,0.884-1.562,0.884c-0.511,0-1.042-0.167-1.592-0.501
			c-0.55-0.333-0.884-0.835-1.002-1.503c-0.039-0.274,0.01-0.756,0.147-1.444c0.138-0.687,0.334-1.415,0.59-2.181
			c0.256-0.767,0.569-1.513,0.943-2.241C81.804,52.531,82.227,51.971,82.698,51.578z"/>
		<path fill="#FF0000" d="M114.182,54.231c0.746-0.55,1.159-0.727,1.238-0.531c0.078,0.197-0.059,0.57-0.413,1.12
			c-0.354,0.589-0.855,1.278-1.503,2.063c-0.649,0.787-1.366,1.533-2.152,2.24c-0.787,0.708-1.612,1.337-2.476,1.887
			c-0.865,0.551-1.671,0.884-2.417,1.002c-0.511,0.079-1.179-0.049-2.005-0.383c-0.825-0.334-1.621-0.815-2.388-1.445
			c-0.766-0.628-1.406-1.356-1.916-2.181s-0.687-1.67-0.531-2.535c0.118-0.708,0.413-1.386,0.884-2.034s1.002-1.218,1.592-1.71
			c0.59-0.491,1.188-0.884,1.798-1.179c0.609-0.295,1.129-0.442,1.562-0.442c0.354,0,0.756,0.099,1.209,0.295
			c0.451,0.197,0.864,0.452,1.238,0.767c0.373,0.315,0.668,0.678,0.884,1.091c0.216,0.413,0.304,0.836,0.265,1.268
			c-0.079,0.433-0.374,0.934-0.884,1.503c-0.511,0.57-1.082,1.13-1.71,1.68c-0.708,0.629-1.533,1.278-2.476,1.946
			c0.864,0.236,2.25-0.039,4.157-0.825C110.044,57.042,112.059,55.843,114.182,54.231z M107.225,53.111
			c-0.158-0.118-0.521-0.029-1.091,0.265c-0.57,0.295-1.13,0.678-1.68,1.15c-0.551,0.472-1.012,0.993-1.385,1.562
			c-0.374,0.57-0.462,1.052-0.265,1.445c0.236-0.118,0.619-0.392,1.15-0.825c0.531-0.432,1.061-0.904,1.592-1.415
			c0.531-0.51,0.973-0.973,1.327-1.386C107.225,53.494,107.342,53.229,107.225,53.111z"/>
		<path fill="#FF0000" d="M115.066,47.51c0.196-0.196,1.434-0.334,3.714-0.413c0.628-0.55,1.218-1.002,1.769-1.356
			c0.55-0.354,1.081-0.531,1.592-0.531c0.472,0,0.982,0.187,1.533,0.56c0.55,0.374,0.982,0.796,1.297,1.268
			c2.005,0,4.147-0.019,6.427-0.059c2.279-0.039,4.599-0.098,6.957-0.177c2.987-0.078,1.838-0.101,4.708-0.258
			c2.869-0.157,3.899-0.314,6.219-0.472c2.319-0.157,2.171,2.575-0.796,2.535c-2.968-0.039-4.549-0.068-7.87-0.089
			c-3.322-0.019-2.635-0.115-6.093-0.096c-3.459,0.02-6.82,0.109-10.082,0.265c-0.433,0.315-0.983,0.787-1.651,1.415
			c-0.669,0.629-1.356,1.317-2.064,2.063c-0.707,0.747-1.406,1.533-2.093,2.358c-0.688,0.825-1.268,1.592-1.739,2.299
			c-0.472,0.707-0.796,1.327-0.973,1.857c-0.177,0.531-0.128,0.895,0.147,1.091c0.236,0.158,0.786-0.019,1.651-0.531
			c0.864-0.51,1.798-1.12,2.8-1.828c1.002-0.708,1.965-1.405,2.889-2.093c0.923-0.687,1.562-1.129,1.916-1.327
			c0.707-0.472,1.218-0.569,1.533-0.295c0.314,0.276,0.295,0.649-0.059,1.12c-0.197,0.236-0.669,0.737-1.415,1.503
			c-0.747,0.767-1.621,1.553-2.624,2.358c-1.002,0.806-2.044,1.524-3.125,2.152c-1.081,0.629-2.015,0.943-2.8,0.943
			c-1.612,0-2.663-0.442-3.154-1.327c-0.491-0.884-0.638-1.984-0.442-3.302c0.197-1.316,0.669-2.731,1.415-4.245
			c0.746-1.513,1.592-2.879,2.535-4.098C115.34,48.414,114.633,47.981,115.066,47.51z"/>
		<path fill="#FF0000" d="M139.356,54.231c0.746-0.55,1.159-0.727,1.238-0.531c0.078,0.197-0.059,0.57-0.413,1.12
			c-0.354,0.589-0.855,1.278-1.503,2.063c-0.649,0.787-1.366,1.533-2.152,2.24c-0.787,0.708-1.612,1.337-2.476,1.887
			c-0.865,0.551-1.671,0.884-2.417,1.002c-0.511,0.079-1.179-0.049-2.005-0.383c-0.825-0.334-1.621-0.815-2.388-1.445
			c-0.766-0.628-1.406-1.356-1.916-2.181c-0.51-0.825-0.687-1.67-0.531-2.535c0.118-0.708,0.413-1.386,0.884-2.034
			s1.002-1.218,1.592-1.71c0.59-0.491,1.188-0.884,1.798-1.179c0.609-0.295,1.129-0.442,1.562-0.442
			c0.354,0,0.756,0.099,1.209,0.295c0.451,0.197,0.864,0.452,1.238,0.767c0.373,0.315,0.668,0.678,0.884,1.091
			c0.216,0.413,0.304,0.836,0.265,1.268c-0.079,0.433-0.374,0.934-0.884,1.503c-0.511,0.57-1.082,1.13-1.71,1.68
			c-0.708,0.629-1.533,1.278-2.476,1.946c0.864,0.236,2.25-0.039,4.157-0.825C135.219,57.042,137.234,55.843,139.356,54.231z
			 M132.399,53.111c-0.158-0.118-0.521-0.029-1.091,0.265c-0.57,0.295-1.13,0.678-1.68,1.15c-0.551,0.472-1.012,0.993-1.385,1.562
			c-0.374,0.57-0.462,1.052-0.265,1.445c0.236-0.118,0.619-0.392,1.15-0.825c0.531-0.432,1.061-0.904,1.592-1.415
			c0.531-0.51,0.973-0.973,1.327-1.386C132.399,53.494,132.517,53.229,132.399,53.111z"/>
	</g>
</g>
</svg>
