<?xml version="1.0" encoding="utf-8"?>
<!-- Generator: Adobe Illustrator 16.0.0, SVG Export Plug-In . SVG Version: 6.00 Build 0)  -->
<!DOCTYPE svg PUBLIC "-//W3C//DTD SVG 1.1//EN" "http://www.w3.org/Graphics/SVG/1.1/DTD/svg11.dtd">
<svg version="1.1" id="Layer_1" xmlns="http://www.w3.org/2000/svg" xmlns:xlink="http://www.w3.org/1999/xlink" x="0px" y="0px"
	 width="149.412px" height="34.706px" viewBox="0 0 149.412 34.706" enable-background="new 0 0 149.412 34.706"
	 xml:space="preserve">
<g>
	<g>
		<defs>
			<rect id="SVGID_1_" x="121.314" y="7.07" width="25.076" height="23.875"/>
		</defs>
		<clipPath id="SVGID_2_">
			<use xlink:href="#SVGID_1_"  overflow="visible"/>
		</clipPath>
		<g clip-path="url(#SVGID_2_)">
			<defs>
				<rect id="SVGID_3_" x="121.312" y="7.071" width="25.078" height="23.874"/>
			</defs>
			<clipPath id="SVGID_4_">
				<use xlink:href="#SVGID_3_"  overflow="visible"/>
			</clipPath>
			<g transform="matrix(1 0 0 1 7.629395e-06 4.768372e-07)" clip-path="url(#SVGID_4_)">
				
					<image overflow="visible" width="311" height="296" xlink:href="24C8E126FC615743.jpg"  transform="matrix(0.0806 0 0 0.0807 121.312 7.0698)">
				</image>
			</g>
		</g>
	</g>
	<path fill-rule="evenodd" clip-rule="evenodd" fill="#028044" d="M113.275,13.902c0.057-0.18,0.08-0.43,0.08-0.747
		c0-0.66-0.188-1.161-0.566-1.5c-0.377-0.339-0.844-0.505-1.4-0.505c-0.584,0-1.123,0.229-1.615,0.688
		c-0.492,0.46-0.867,1.149-1.123,2.063H113.275L113.275,13.902z M117.257,18.197c-0.695,1.291-1.604,2.218-2.723,2.786
		c-1.119,0.564-2.523,0.848-4.211,0.848c-2.455,0-4.197-0.576-5.229-1.729c-1.037-1.156-1.557-2.568-1.557-4.24
		c0-1.161,0.244-2.251,0.729-3.274s1.139-1.884,1.967-2.577s1.645-1.161,2.447-1.399c0.809-0.242,1.748-0.363,2.826-0.363
		c2.32,0,3.982,0.525,4.99,1.579c1.008,1.053,1.512,2.348,1.512,3.88c0,0.506-0.107,1.375-0.32,2.606h-9.477
		c0.137,1.738,0.881,2.607,2.24,2.607c0.92,0,1.654-0.393,2.203-1.174L117.257,18.197L117.257,18.197z M105.679,8.639
		c-0.584-0.26-1.131-0.393-1.639-0.393c-0.672,0-1.287,0.196-1.852,0.589c-0.561,0.393-1.211,1.161-1.955,2.314l-0.049-0.051
		l0.553-2.557h-4.463l-2.646,12.983h4.777l0.984-4.858c0.311-1.508,0.756-2.606,1.322-3.292c0.572-0.685,1.312-1.027,2.229-1.027
		c0.287,0,0.615,0.042,0.982,0.134L105.679,8.639L105.679,8.639z M95.066,13.058L90.751,13.3c-0.201-1.132-0.932-1.7-2.188-1.7
		c-1.164,0-2.059,0.493-2.684,1.475c-0.627,0.982-0.939,2.056-0.939,3.213c0,0.702,0.225,1.24,0.668,1.616
		c0.447,0.376,0.928,0.564,1.443,0.564c1.271,0,2.215-0.735,2.834-2.206l4.463,0.502c-1.104,3.379-3.598,5.066-7.484,5.066
		c-4.383,0-6.574-1.871-6.574-5.618c0-2.177,0.725-4.048,2.168-5.614c1.447-1.566,3.479-2.352,6.105-2.352
		c1.879,0,3.383,0.4,4.51,1.207C94.197,10.255,94.861,11.458,95.066,13.058L95.066,13.058z M74.725,14.784L74.2,8.247h-0.047
		l-2.951,6.537H74.725L74.725,14.784z M80.501,21.526l-2.73-17.941h-5.658l-9.7,17.941h5.718l1.335-2.937h5.598l0.235,2.937H80.501
		L80.501,21.526z M54,18.468c0.892,0,1.599-0.477,2.123-1.429c0.52-0.948,0.784-2.005,0.784-3.162c0-0.84-0.2-1.429-0.596-1.768
		c-0.4-0.338-0.84-0.51-1.328-0.51c-1.003,0-1.76,0.477-2.263,1.434c-0.504,0.952-0.755,1.93-0.755,2.924
		c0,0.719,0.196,1.315,0.592,1.792C52.948,18.226,53.432,18.468,54,18.468L54,18.468z M55.159,8.247c2.228,0,3.851,0.589,4.87,1.763
		c1.02,1.174,1.528,2.552,1.528,4.123c0,1.203-0.292,2.423-0.88,3.659c-0.584,1.24-1.463,2.227-2.639,2.949
		c-1.175,0.727-2.623,1.09-4.342,1.09c-2.179,0-3.787-0.56-4.826-1.684c-1.04-1.119-1.559-2.519-1.559-4.189
		c0-1.312,0.312-2.582,0.932-3.806c0.624-1.224,1.523-2.181,2.703-2.87C52.125,8.593,53.528,8.247,55.159,8.247L55.159,8.247z
		 M49.746,8.542h-4.991l-4.122,8.222h-0.048l-0.716-8.222h-4.51l2.391,12.983h4.227L49.746,8.542L49.746,8.542z M28.234,18.468
		c0.892,0,1.599-0.477,2.123-1.429c0.52-0.948,0.784-2.005,0.784-3.162c0-0.84-0.2-1.429-0.596-1.768
		c-0.4-0.338-0.84-0.51-1.328-0.51c-1.003,0-1.759,0.477-2.263,1.434c-0.504,0.952-0.755,1.93-0.755,2.924
		c0,0.719,0.196,1.315,0.592,1.792C27.182,18.226,27.666,18.468,28.234,18.468L28.234,18.468z M29.393,8.247
		c2.228,0,3.851,0.589,4.87,1.763c1.02,1.174,1.528,2.552,1.528,4.123c0,1.203-0.292,2.423-0.88,3.659
		c-0.583,1.24-1.463,2.227-2.639,2.949c-1.175,0.727-2.623,1.09-4.342,1.09c-2.179,0-3.787-0.56-4.826-1.684
		c-1.04-1.119-1.56-2.519-1.56-4.189c0-1.312,0.312-2.582,0.932-3.806c0.624-1.224,1.523-2.181,2.703-2.87
		C26.358,8.593,27.762,8.247,29.393,8.247L29.393,8.247z M23.102,3.584h-4.99l-2.155,10.451h-0.048l-4.23-10.451H6.712L3.021,21.526
		h4.99l2.135-10.427h0.044l4.254,10.427h4.966L23.102,3.584z"/>
	<linearGradient id="SVGID_5_" gradientUnits="userSpaceOnUse" x1="135.8198" y1="19.292" x2="131.6801" y2="14.1798">
		<stop  offset="0" style="stop-color:#F6D809"/>
		<stop  offset="0.0304" style="stop-color:#F6D914"/>
		<stop  offset="0.3494" style="stop-color:#F9E357"/>
		<stop  offset="0.6288" style="stop-color:#FBEB7B"/>
		<stop  offset="0.8551" style="stop-color:#FCF18E"/>
		<stop  offset="1" style="stop-color:#FCF495"/>
	</linearGradient>
	<path fill-rule="evenodd" clip-rule="evenodd" fill="url(#SVGID_5_)" d="M123.21,4.159h21.08c1.119,0,2.035,0.917,2.035,2.036
		v21.08c0,1.12-0.916,2.037-2.035,2.037h-21.08c-1.121,0-2.037-0.917-2.037-2.037V6.195C121.173,5.076,122.089,4.159,123.21,4.159z"
		/>
	<linearGradient id="SVGID_6_" gradientUnits="userSpaceOnUse" x1="133.1909" y1="18.5469" x2="139.0698" y2="28.331">
		<stop  offset="0" style="stop-color:#028044"/>
		<stop  offset="1" style="stop-color:#24B257"/>
	</linearGradient>
	<path fill-rule="evenodd" clip-rule="evenodd" fill="url(#SVGID_6_)" d="M145.144,11.089c0.396,0,0.791,0.011,1.182,0.028v16.157
		c0,1.12-0.916,2.037-2.035,2.037h-21.08c-0.803,0-1.502-0.472-1.832-1.151C124.716,18.237,134.095,11.089,145.144,11.089z"/>
	<linearGradient id="SVGID_7_" gradientUnits="userSpaceOnUse" x1="129.1968" y1="12.9683" x2="125.9123" y2="8.9123">
		<stop  offset="0" style="stop-color:#A91F23"/>
		<stop  offset="0.1732" style="stop-color:#BB2025"/>
		<stop  offset="0.4627" style="stop-color:#D32126"/>
		<stop  offset="0.7425" style="stop-color:#E32227"/>
		<stop  offset="1" style="stop-color:#EB2227"/>
	</linearGradient>
	<polygon fill-rule="evenodd" clip-rule="evenodd" fill="url(#SVGID_7_)" points="127.369,5.636 128.916,8.421 132.074,9.054 
		129.902,11.386 130.277,14.585 127.388,13.24 124.46,14.585 124.847,11.422 122.664,9.054 125.791,8.445 	"/>
	<g>
		<path fill="#231F20" d="M16.015,29.409c-0.238,0.086-0.709,0.227-1.267,0.227c-0.624,0-1.138-0.159-1.541-0.545
			c-0.355-0.343-0.575-0.894-0.575-1.536c0.006-1.229,0.85-2.129,2.233-2.129c0.477,0,0.85,0.104,1.027,0.189l-0.128,0.435
			c-0.221-0.098-0.496-0.177-0.912-0.177c-1.004,0-1.658,0.623-1.658,1.658c0,1.046,0.63,1.664,1.591,1.664
			c0.349,0,0.588-0.049,0.71-0.11v-1.229h-0.839v-0.429h1.358V29.409z"/>
		<path fill="#231F20" d="M19.697,28.087c0,1.095-0.759,1.572-1.475,1.572c-0.802,0-1.42-0.588-1.42-1.523
			c0-0.991,0.648-1.572,1.469-1.572C19.122,26.564,19.697,27.181,19.697,28.087z M17.348,28.118c0,0.648,0.373,1.138,0.899,1.138
			c0.514,0,0.899-0.482,0.899-1.15c0-0.502-0.251-1.138-0.888-1.138C17.623,26.967,17.348,27.554,17.348,28.118z"/>
		<path fill="#231F20" d="M20.719,26.63l0.582,1.664c0.098,0.27,0.177,0.515,0.238,0.76h0.019c0.067-0.245,0.152-0.49,0.251-0.76
			l0.575-1.664h0.562l-1.162,2.962H21.27l-1.126-2.962H20.719z"/>
		<path fill="#231F20" d="M23.87,28.209c0.013,0.728,0.478,1.028,1.016,1.028c0.386,0,0.618-0.068,0.82-0.153l0.092,0.386
			c-0.189,0.086-0.514,0.184-0.985,0.184c-0.911,0-1.456-0.6-1.456-1.493s0.526-1.597,1.389-1.597c0.967,0,1.225,0.85,1.225,1.395
			c0,0.11-0.013,0.195-0.019,0.251H23.87z M25.449,27.824c0.006-0.342-0.141-0.875-0.746-0.875c-0.545,0-0.783,0.502-0.826,0.875
			H25.449z"/>
		<path fill="#231F20" d="M26.812,27.554c0-0.348-0.006-0.648-0.024-0.924h0.472l0.019,0.582h0.024
			c0.134-0.398,0.459-0.648,0.819-0.648c0.062,0,0.104,0.006,0.153,0.018v0.508c-0.056-0.012-0.11-0.018-0.184-0.018
			c-0.38,0-0.648,0.287-0.722,0.691c-0.013,0.073-0.025,0.158-0.025,0.25v1.579h-0.532V27.554z"/>
		<path fill="#231F20" d="M29.017,27.432c0-0.306-0.006-0.557-0.024-0.802h0.478l0.03,0.49h0.013
			c0.146-0.281,0.489-0.557,0.979-0.557c0.41,0,1.047,0.244,1.047,1.26v1.769h-0.539v-1.707c0-0.478-0.177-0.875-0.685-0.875
			c-0.355,0-0.631,0.251-0.723,0.551c-0.024,0.067-0.036,0.159-0.036,0.251v1.78h-0.539V27.432z"/>
		<path fill="#231F20" d="M35.27,28.087c0,1.095-0.759,1.572-1.475,1.572c-0.802,0-1.42-0.588-1.42-1.523
			c0-0.991,0.648-1.572,1.469-1.572C34.694,26.564,35.27,27.181,35.27,28.087z M32.92,28.118c0,0.648,0.373,1.138,0.899,1.138
			c0.514,0,0.899-0.482,0.899-1.15c0-0.502-0.251-1.138-0.888-1.138C33.195,26.967,32.92,27.554,32.92,28.118z"/>
		<path fill="#231F20" d="M37.421,27.597c0-0.379-0.012-0.686-0.024-0.967h0.483l0.024,0.508h0.013
			c0.22-0.36,0.569-0.574,1.053-0.574c0.716,0,1.254,0.605,1.254,1.505c0,1.064-0.648,1.591-1.346,1.591
			c-0.392,0-0.734-0.172-0.912-0.465h-0.012v1.609h-0.533V27.597z M37.954,28.386c0,0.08,0.012,0.154,0.024,0.221
			c0.098,0.373,0.422,0.631,0.808,0.631c0.568,0,0.899-0.465,0.899-1.145c0-0.594-0.312-1.102-0.882-1.102
			c-0.367,0-0.709,0.264-0.813,0.667c-0.019,0.067-0.036,0.147-0.036,0.22V28.386z"/>
		<path fill="#231F20" d="M42.721,29.592l-0.043-0.373h-0.019c-0.165,0.232-0.483,0.44-0.905,0.44c-0.6,0-0.906-0.422-0.906-0.851
			c0-0.716,0.637-1.107,1.781-1.102v-0.062c0-0.244-0.067-0.685-0.674-0.685c-0.275,0-0.562,0.085-0.771,0.22l-0.122-0.354
			c0.244-0.159,0.6-0.263,0.973-0.263c0.905,0,1.126,0.617,1.126,1.211v1.107c0,0.258,0.012,0.508,0.049,0.71H42.721z
			 M42.641,28.082c-0.587-0.013-1.254,0.092-1.254,0.666c0,0.35,0.232,0.514,0.508,0.514c0.385,0,0.63-0.244,0.716-0.495
			c0.019-0.055,0.03-0.116,0.03-0.171V28.082z"/>
		<path fill="#231F20" d="M44.206,27.554c0-0.348-0.006-0.648-0.024-0.924h0.472l0.019,0.582h0.024
			c0.134-0.398,0.459-0.648,0.819-0.648c0.062,0,0.104,0.006,0.153,0.018v0.508c-0.056-0.012-0.11-0.018-0.184-0.018
			c-0.38,0-0.648,0.287-0.722,0.691c-0.013,0.073-0.024,0.158-0.024,0.25v1.579h-0.533V27.554z"/>
		<path fill="#231F20" d="M48.436,29.482c-0.141,0.074-0.453,0.172-0.851,0.172c-0.894,0-1.475-0.605-1.475-1.512
			c0-0.912,0.624-1.572,1.591-1.572c0.318,0,0.6,0.079,0.747,0.152l-0.123,0.416c-0.128-0.072-0.33-0.141-0.624-0.141
			c-0.679,0-1.046,0.502-1.046,1.12c0,0.685,0.44,1.107,1.027,1.107c0.307,0,0.508-0.079,0.661-0.147L48.436,29.482z"/>
		<path fill="#231F20" d="M49.507,28.209c0.013,0.728,0.478,1.028,1.016,1.028c0.386,0,0.618-0.068,0.82-0.153l0.092,0.386
			c-0.189,0.086-0.514,0.184-0.985,0.184c-0.911,0-1.456-0.6-1.456-1.493s0.526-1.597,1.389-1.597c0.967,0,1.225,0.85,1.225,1.395
			c0,0.11-0.013,0.195-0.019,0.251H49.507z M51.086,27.824c0.006-0.342-0.141-0.875-0.746-0.875c-0.545,0-0.783,0.502-0.826,0.875
			H51.086z"/>
		<path fill="#231F20" d="M53.049,25.798c0.007,0.184-0.128,0.33-0.342,0.33c-0.19,0-0.325-0.146-0.325-0.33
			c0-0.189,0.142-0.336,0.337-0.336C52.921,25.462,53.049,25.609,53.049,25.798z M52.449,29.592V26.63h0.539v2.962H52.449z"/>
		<path fill="#231F20" d="M54.061,27.554c0-0.348-0.006-0.648-0.024-0.924h0.472l0.019,0.582h0.024
			c0.134-0.398,0.459-0.648,0.819-0.648c0.062,0,0.104,0.006,0.153,0.018v0.508c-0.056-0.012-0.11-0.018-0.184-0.018
			c-0.38,0-0.648,0.287-0.722,0.691c-0.013,0.073-0.025,0.158-0.025,0.25v1.579h-0.532V27.554z"/>
		<path fill="#231F20" d="M58.859,28.087c0,1.095-0.759,1.572-1.475,1.572c-0.802,0-1.42-0.588-1.42-1.523
			c0-0.991,0.648-1.572,1.469-1.572C58.284,26.564,58.859,27.181,58.859,28.087z M56.51,28.118c0,0.648,0.373,1.138,0.899,1.138
			c0.514,0,0.899-0.482,0.899-1.15c0-0.502-0.251-1.138-0.888-1.138C56.785,26.967,56.51,27.554,56.51,28.118z"/>
		<path fill="#231F20" d="M59.22,30.345c0.135-0.361,0.3-1.016,0.367-1.463l0.6-0.061c-0.141,0.52-0.41,1.199-0.581,1.486
			L59.22,30.345z"/>
		<path fill="#231F20" d="M62.31,27.597c0-0.379-0.012-0.686-0.024-0.967h0.483l0.024,0.508h0.013
			c0.22-0.36,0.569-0.574,1.053-0.574c0.716,0,1.254,0.605,1.254,1.505c0,1.064-0.648,1.591-1.346,1.591
			c-0.392,0-0.734-0.172-0.912-0.465h-0.012v1.609H62.31V27.597z M62.843,28.386c0,0.08,0.012,0.154,0.024,0.221
			c0.098,0.373,0.422,0.631,0.808,0.631c0.568,0,0.899-0.465,0.899-1.145c0-0.594-0.312-1.102-0.882-1.102
			c-0.367,0-0.709,0.264-0.813,0.667c-0.019,0.067-0.036,0.147-0.036,0.22V28.386z"/>
		<path fill="#231F20" d="M68.648,28.087c0,1.095-0.759,1.572-1.475,1.572c-0.802,0-1.42-0.588-1.42-1.523
			c0-0.991,0.648-1.572,1.469-1.572C68.073,26.564,68.648,27.181,68.648,28.087z M66.299,28.118c0,0.648,0.373,1.138,0.899,1.138
			c0.514,0,0.899-0.482,0.899-1.15c0-0.502-0.251-1.138-0.888-1.138C66.574,26.967,66.299,27.554,66.299,28.118z"/>
		<path fill="#231F20" d="M69.67,26.63l0.582,1.664c0.098,0.27,0.177,0.515,0.238,0.76h0.019c0.067-0.245,0.152-0.49,0.251-0.76
			l0.575-1.664h0.562l-1.162,2.962h-0.515l-1.126-2.962H69.67z"/>
		<path fill="#231F20" d="M75.201,28.087c0,1.095-0.759,1.572-1.475,1.572c-0.802,0-1.42-0.588-1.42-1.523
			c0-0.991,0.648-1.572,1.469-1.572C74.626,26.564,75.201,27.181,75.201,28.087z M72.852,28.118c0,0.648,0.373,1.138,0.899,1.138
			c0.514,0,0.899-0.482,0.899-1.15c0-0.502-0.251-1.138-0.888-1.138C73.127,26.967,72.852,27.554,72.852,28.118z"/>
		<path fill="#231F20" d="M77.652,28.209c0.014,0.728,0.479,1.028,1.018,1.028c0.385,0,0.617-0.068,0.818-0.153l0.092,0.386
			c-0.189,0.086-0.514,0.184-0.984,0.184c-0.912,0-1.457-0.6-1.457-1.493s0.527-1.597,1.389-1.597c0.967,0,1.225,0.85,1.225,1.395
			c0,0.11-0.012,0.195-0.018,0.251H77.652z M79.232,27.824c0.006-0.342-0.141-0.875-0.746-0.875c-0.545,0-0.783,0.502-0.826,0.875
			H79.232z"/>
		<path fill="#231F20" d="M80.595,27.432c0-0.306-0.006-0.557-0.023-0.802h0.471l0.025,0.478h0.018
			c0.166-0.281,0.441-0.544,0.93-0.544c0.404,0,0.711,0.244,0.838,0.594h0.014c0.092-0.166,0.207-0.295,0.33-0.387
			c0.178-0.135,0.373-0.207,0.654-0.207c0.393,0,0.973,0.256,0.973,1.285v1.743h-0.525v-1.677c0-0.568-0.209-0.912-0.643-0.912
			c-0.307,0-0.545,0.227-0.637,0.49c-0.023,0.073-0.043,0.172-0.043,0.27v1.829h-0.525v-1.774c0-0.471-0.209-0.814-0.619-0.814
			c-0.336,0-0.58,0.27-0.666,0.539c-0.031,0.08-0.043,0.172-0.043,0.264v1.786h-0.527V27.432z"/>
		<path fill="#231F20" d="M85.875,27.597c0-0.379-0.012-0.686-0.025-0.967h0.484l0.023,0.508h0.014
			c0.219-0.36,0.568-0.574,1.053-0.574c0.715,0,1.254,0.605,1.254,1.505c0,1.064-0.648,1.591-1.346,1.591
			c-0.393,0-0.734-0.172-0.912-0.465h-0.012v1.609h-0.533V27.597z M86.408,28.386c0,0.08,0.012,0.154,0.023,0.221
			c0.098,0.373,0.422,0.631,0.809,0.631c0.568,0,0.898-0.465,0.898-1.145c0-0.594-0.312-1.102-0.881-1.102
			c-0.367,0-0.709,0.264-0.814,0.667c-0.018,0.067-0.035,0.147-0.035,0.22V28.386z"/>
		<path fill="#231F20" d="M89.533,27.554c0-0.348-0.006-0.648-0.025-0.924h0.473l0.018,0.582h0.025
			c0.133-0.398,0.459-0.648,0.818-0.648c0.062,0,0.105,0.006,0.154,0.018v0.508c-0.057-0.012-0.111-0.018-0.184-0.018
			c-0.381,0-0.648,0.287-0.723,0.691c-0.012,0.073-0.023,0.158-0.023,0.25v1.579h-0.533V27.554z"/>
		<path fill="#231F20" d="M91.951,28.209c0.012,0.728,0.477,1.028,1.016,1.028c0.385,0,0.617-0.068,0.82-0.153l0.092,0.386
			c-0.189,0.086-0.514,0.184-0.986,0.184c-0.91,0-1.455-0.6-1.455-1.493s0.525-1.597,1.389-1.597c0.967,0,1.225,0.85,1.225,1.395
			c0,0.11-0.014,0.195-0.02,0.251H91.951z M93.529,27.824c0.006-0.342-0.141-0.875-0.746-0.875c-0.545,0-0.783,0.502-0.826,0.875
			H93.529z"/>
		<path fill="#231F20" d="M95.193,28.209c0.014,0.728,0.479,1.028,1.018,1.028c0.385,0,0.617-0.068,0.818-0.153l0.092,0.386
			c-0.189,0.086-0.514,0.184-0.984,0.184c-0.912,0-1.457-0.6-1.457-1.493s0.527-1.597,1.389-1.597c0.967,0,1.225,0.85,1.225,1.395
			c0,0.11-0.012,0.195-0.018,0.251H95.193z M96.773,27.824c0.006-0.342-0.141-0.875-0.746-0.875c-0.545,0-0.783,0.502-0.826,0.875
			H96.773z"/>
		<path fill="#231F20" d="M98.136,27.432c0-0.306-0.006-0.557-0.025-0.802h0.479l0.029,0.49h0.014
			c0.146-0.281,0.488-0.557,0.979-0.557c0.41,0,1.047,0.244,1.047,1.26v1.769h-0.539v-1.707c0-0.478-0.178-0.875-0.686-0.875
			c-0.355,0-0.631,0.251-0.723,0.551c-0.023,0.067-0.035,0.159-0.035,0.251v1.78h-0.539V27.432z"/>
		<path fill="#231F20" d="M104.267,25.248v3.58c0,0.263,0.006,0.562,0.023,0.765h-0.482l-0.025-0.515h-0.012
			c-0.164,0.331-0.525,0.582-1.01,0.582c-0.715,0-1.266-0.605-1.266-1.506c-0.006-0.984,0.605-1.59,1.328-1.59
			c0.451,0,0.758,0.214,0.893,0.452h0.012v-1.769H104.267z M103.728,27.836c0-0.067-0.006-0.159-0.023-0.227
			c-0.08-0.343-0.373-0.624-0.777-0.624c-0.557,0-0.887,0.489-0.887,1.145c0,0.6,0.293,1.095,0.875,1.095
			c0.359,0,0.691-0.239,0.789-0.643c0.018-0.073,0.023-0.146,0.023-0.232V27.836z"/>
		<path fill="#231F20" d="M105.636,28.209c0.014,0.728,0.479,1.028,1.018,1.028c0.385,0,0.617-0.068,0.818-0.153l0.092,0.386
			c-0.189,0.086-0.514,0.184-0.984,0.184c-0.912,0-1.457-0.6-1.457-1.493s0.527-1.597,1.389-1.597c0.967,0,1.225,0.85,1.225,1.395
			c0,0.11-0.012,0.195-0.018,0.251H105.636z M107.216,27.824c0.006-0.342-0.141-0.875-0.746-0.875c-0.545,0-0.783,0.502-0.826,0.875
			H107.216z"/>
		<path fill="#231F20" d="M111.138,25.248v3.58c0,0.263,0.006,0.562,0.023,0.765h-0.482l-0.025-0.515h-0.012
			c-0.164,0.331-0.525,0.582-1.01,0.582c-0.715,0-1.266-0.605-1.266-1.506c-0.006-0.984,0.605-1.59,1.328-1.59
			c0.451,0,0.758,0.214,0.893,0.452h0.012v-1.769H111.138z M110.599,27.836c0-0.067-0.006-0.159-0.023-0.227
			c-0.08-0.343-0.373-0.624-0.777-0.624c-0.557,0-0.887,0.489-0.887,1.145c0,0.6,0.293,1.095,0.875,1.095
			c0.359,0,0.691-0.239,0.789-0.643c0.018-0.073,0.023-0.146,0.023-0.232V27.836z"/>
		<path fill="#231F20" d="M114.888,28.087c0,1.095-0.758,1.572-1.475,1.572c-0.801,0-1.42-0.588-1.42-1.523
			c0-0.991,0.648-1.572,1.469-1.572C114.314,26.564,114.888,27.181,114.888,28.087z M112.539,28.118c0,0.648,0.373,1.138,0.9,1.138
			c0.514,0,0.898-0.482,0.898-1.15c0-0.502-0.25-1.138-0.887-1.138S112.539,27.554,112.539,28.118z"/>
		<path fill="#231F20" d="M115.744,27.554c0-0.348-0.006-0.648-0.023-0.924h0.471l0.02,0.582h0.023
			c0.135-0.398,0.459-0.648,0.82-0.648c0.061,0,0.104,0.006,0.152,0.018v0.508c-0.055-0.012-0.109-0.018-0.184-0.018
			c-0.379,0-0.648,0.287-0.721,0.691c-0.014,0.073-0.025,0.158-0.025,0.25v1.579h-0.533V27.554z"/>
		<path fill="#231F20" d="M117.472,29.274c0-0.226,0.152-0.386,0.367-0.386c0.213,0,0.359,0.16,0.359,0.386
			c0,0.221-0.141,0.386-0.367,0.386C117.619,29.66,117.472,29.495,117.472,29.274z"/>
	</g>
</g>
</svg>
