<?xml version="1.0" encoding="utf-8"?>
<!DOCTYPE svg PUBLIC "-//W3C//DTD SVG 1.1//EN" "http://www.w3.org/Graphics/SVG/1.1/DTD/svg11.dtd">
<svg version="1.1" id="Capa_1" xmlns="http://www.w3.org/2000/svg" xmlns:xlink="http://www.w3.org/1999/xlink" x="0px" y="0px"
	 width="20px" height="20px" viewBox="990 690 20 20" enable-background="new 990 690 20 20" xml:space="preserve">
<g>
		<g>
		<path fill="#030104" d="M995.357,697.143c0,1.046,0.237,2.034,0.641,2.93l-5.641,5.641c0,0,0,0.96,0,2.143s1.28,2.143,2.857,2.143
			h2.857v-2.857h2.857v-2.857c0,0,3.327,0,3.571,0c3.946,0,7.143-3.197,7.143-7.143c0-3.946-3.197-7.143-7.143-7.143
			S995.357,693.197,995.357,697.143z M1002.5,700c-1.577,0-2.857-1.28-2.857-2.857c0-1.579,1.28-2.86,2.857-2.86
			c1.579,0,2.857,1.28,2.857,2.86C1005.357,698.72,1004.079,700,1002.5,700z"/>
	</g>
</g>
</svg>