<?xml version="1.0" encoding="utf-8"?>
<!DOCTYPE svg PUBLIC "-//W3C//DTD SVG 1.1//EN" "http://www.w3.org/Graphics/SVG/1.1/DTD/svg11.dtd">
<svg version="1.1" id="Capa_1" xmlns="http://www.w3.org/2000/svg" xmlns:xlink="http://www.w3.org/1999/xlink" x="0px" y="0px"
	 width="20px" height="20px" viewBox="214 214 20 20" enable-background="new 214 214 20 20" xml:space="preserve">
<g>
	<path d="M226.309,227.64c-0.461-0.073-0.471-1.34-0.471-1.34s1.354-1.34,1.648-3.142c0.794,0,1.284-1.916,0.49-2.59
		c0.033-0.709,1.02-5.569-3.976-5.569c-4.996,0-4.009,4.86-3.976,5.569c-0.794,0.674-0.304,2.59,0.49,2.59
		c0.295,1.802,1.648,3.142,1.648,3.142s-0.01,1.267-0.471,1.34c-1.484,0.236-7.024,2.68-7.024,5.36H224h9.333
		C233.333,230.32,227.793,227.876,226.309,227.64z"/>
</g>
</svg>