<?xml version="1.0" encoding="utf-8"?>
<!-- Generator: Adobe Illustrator 17.0.0, SVG Export Plug-In . SVG Version: 6.00 Build 0)  -->
<!DOCTYPE svg PUBLIC "-//W3C//DTD SVG 1.1//EN" "http://www.w3.org/Graphics/SVG/1.1/DTD/svg11.dtd">
<svg version="1.1" id="Layer_1" xmlns="http://www.w3.org/2000/svg" xmlns:xlink="http://www.w3.org/1999/xlink" x="0px" y="0px"
	 width="600px" height="600px" viewBox="0 0 600 600" enable-background="new 0 0 600 600" xml:space="preserve">
<g>
	<g>
		<g>
			<path d="M300,43c34.703,0,68.358,6.793,100.03,20.189c30.601,12.943,58.088,31.476,81.696,55.085s42.141,51.095,55.085,81.696
				C550.207,231.642,557,265.297,557,300s-6.793,68.358-20.189,100.03c-12.943,30.601-31.476,58.088-55.085,81.696
				s-51.095,42.141-81.696,55.085C368.358,550.207,334.703,557,300,557s-68.358-6.793-100.03-20.189
				c-30.601-12.943-58.088-31.476-81.696-55.085s-42.141-51.095-55.085-81.696C49.793,368.358,43,334.703,43,300
				s6.793-68.358,20.189-100.03c12.943-30.601,31.476-58.088,55.085-81.696s51.095-42.141,81.696-55.085
				C231.642,49.793,265.297,43,300,43 M300,25C148.122,25,25,148.122,25,300s123.122,275,275,275s275-123.122,275-275
				S451.878,25,300,25L300,25z"/>
		</g>
	</g>
	<g>
		<path d="M335.588,409.586c-2.324,0-4.647-0.895-6.409-2.681L223.773,300L329.18,193.096c3.49-3.54,9.188-3.579,12.728-0.09
			c3.539,3.49,3.579,9.188,0.09,12.728L249.051,300l92.946,94.267c3.489,3.54,3.449,9.238-0.09,12.729
			C340.153,408.724,337.87,409.586,335.588,409.586z"/>
	</g>
</g>
</svg>
