<?xml version="1.0" encoding="utf-8"?>
<!-- Generator: Adobe Illustrator 22.0.1, SVG Export Plug-In . SVG Version: 6.00 Build 0)  -->
<svg version="1.1" id="Camada_1" xmlns="http://www.w3.org/2000/svg" xmlns:xlink="http://www.w3.org/1999/xlink" x="0px" y="0px"
	 viewBox="0 0 2000 2000" style="enable-background:new 0 0 2000 2000;" xml:space="preserve">
<style type="text/css">
	.st0{fill:url(#SVGID_1_);}
	.st1{fill:url(#SVGID_2_);}
</style>
<g>
	
		<radialGradient id="SVGID_1_" cx="1114.3071" cy="1027.0752" r="784.4783" gradientTransform="matrix(1 0 0 -1 0 1999)" gradientUnits="userSpaceOnUse">
		<stop  offset="0" style="stop-color:#FEF050"/>
		<stop  offset="5.948725e-02" style="stop-color:#F9E43E"/>
		<stop  offset="0.1303" style="stop-color:#F3D727"/>
		<stop  offset="0.2032" style="stop-color:#F0CE0C"/>
		<stop  offset="0.2809" style="stop-color:#EFCB00"/>
		<stop  offset="0.6685" style="stop-color:#D99544"/>
		<stop  offset="0.8876" style="stop-color:#CD6F3C"/>
		<stop  offset="1" style="stop-color:#C34435"/>
	</radialGradient>
	<path class="st0" d="M1790.2,474.2c-17.7,47.4-44,87.4-81.4,119.9c-56.9,49.2-123.6,72-198.5,69.8c-32.8-0.9-65.5-7.9-98.1-6.4
		c-100.2,4.5-184.7,45.6-250.9,120.3c-75,84.5-106.5,184.2-88.4,296.4c18.3,112.6,77.4,198.9,175.3,258.3
		c81.9,49.6,170.6,58.6,262.3,41.6c45.3-8.3,88.5-27,124.8-55.9c16.6-13.2,31.5-10.5,48.2-7.1c33.2,7.1,66.4,14.6,99.6,21.9
		c63.8,14,127.7,27.9,192.6,42c-67.6,104-156.7,180.3-266.2,232.1c-52.6,24.9-107.3,43.4-165.6,53.6c-67,11.7-134,13.8-200.4,4.4
		c-107.7-15.3-206.8-54.7-295.2-119.5c-84.5-62.1-151.1-139.2-197.9-233c-44.6-89.2-88.1-178.8-132.2-268.1
		c-16.3-33-33-65.8-52-103.5c-76,147.9-149.8,291.8-221.9,432.3c-15.4-41.1-28.4-84.9-47.7-125.5c-29.4-61.8-77-109.2-134-146.4
		c-12.4-8.1-11.2-13.9-5.8-24.7C310.2,972,363,867.1,416.3,762.3c48.4-95.2,97.2-190.1,145.4-285.3c33.5-66.1,66.4-132.5,99.7-198.7
		c0.7-1.5,2.5-2.4,5.9-5.4c68.3,136.6,135.9,272.1,205.3,410.7C971.7,527.9,1107.8,427.3,1286,385
		C1466.7,342.3,1633,378.2,1790.2,474.2z"/>
	
		<radialGradient id="SVGID_2_" cx="194.3339" cy="517.2712" r="169.0545" gradientTransform="matrix(1 0 0 -1 0 1999)" gradientUnits="userSpaceOnUse">
		<stop  offset="0" style="stop-color:#FEF050"/>
		<stop  offset="5.948725e-02" style="stop-color:#F9E43E"/>
		<stop  offset="0.1303" style="stop-color:#F3D727"/>
		<stop  offset="0.2032" style="stop-color:#F0CE0C"/>
		<stop  offset="0.2809" style="stop-color:#EFCB00"/>
		<stop  offset="0.6685" style="stop-color:#D99544"/>
		<stop  offset="0.8876" style="stop-color:#CD6F3C"/>
		<stop  offset="1" style="stop-color:#C34435"/>
	</radialGradient>
	<path class="st1" d="M25.7,1480.7c0.9-100.1,78.4-169.6,170.3-168.4c95.5,1.3,168.7,75.2,167,173.7c-1.5,90.6-73.1,165-169.5,165.1
		C98.6,1651,24.3,1574.8,25.7,1480.7z"/>
</g>
</svg>
