<?xml version="1.0" encoding="utf-8"?>
<!-- Generator: Adobe Illustrator 21.0.0, SVG Export Plug-In . SVG Version: 6.00 Build 0)  -->
<svg version="1.1" id="Camada_1" xmlns="http://www.w3.org/2000/svg" xmlns:xlink="http://www.w3.org/1999/xlink" x="0px" y="0px"
	 viewBox="0 0 2000 2000" style="enable-background:new 0 0 2000 2000;" xml:space="preserve">
<style type="text/css">
	.st0{fill:url(#SVGID_1_);}
	.st1{fill:url(#SVGID_2_);}
</style>
<g>
	<radialGradient id="SVGID_1_" cx="1099.001" cy="727.1321" r="677.4485" gradientUnits="userSpaceOnUse">
		<stop  offset="0" style="stop-color:#FEF050"/>
		<stop  offset="5.948725e-02" style="stop-color:#F9E43E"/>
		<stop  offset="0.1303" style="stop-color:#F3D727"/>
		<stop  offset="0.2032" style="stop-color:#F0CE0C"/>
		<stop  offset="0.2809" style="stop-color:#EFCB00"/>
		<stop  offset="0.6685" style="stop-color:#D99544"/>
		<stop  offset="0.8876" style="stop-color:#CD6F3C"/>
		<stop  offset="1" style="stop-color:#C34435"/>
	</radialGradient>
	<path class="st0" d="M1682.7,297.2c-15.3,40.9-38,75.5-70.3,103.5c-49.1,42.5-106.7,62.2-171.4,60.3c-28.3-0.8-56.6-6.8-84.7-5.5
		c-86.5,3.9-159.5,39.4-216.7,103.9c-64.8,73-92,159.1-76.3,256c15.8,97.2,66.8,171.8,151.4,223.1c70.7,42.8,147.3,50.6,226.5,35.9
		c39.1-7.2,76.4-23.3,107.8-48.3c14.3-11.4,27.2-9.1,41.6-6.1c28.7,6.1,57.3,12.6,86,18.9c55.1,12.1,110.3,24.1,166.3,36.3
		c-58.4,89.8-135.3,155.7-229.9,200.4c-45.4,21.5-92.7,37.5-143,46.3c-57.9,10.1-115.7,11.9-173.1,3.8
		c-93-13.2-178.6-47.2-254.9-103.2c-73-53.6-130.5-120.2-170.9-201.2c-38.5-77-76.1-154.4-114.2-231.5
		c-14.1-28.5-28.5-56.8-44.9-89.4c-65.6,127.7-129.4,252-191.6,373.3c-13.3-35.5-24.5-73.3-41.2-108.4
		c-25.4-53.4-66.5-94.3-115.7-126.4c-10.7-7-9.7-12-5-21.3c46.1-90.5,91.7-181.1,137.7-271.6c41.8-82.2,83.9-164.2,125.6-246.4
		c28.9-57.1,57.3-114.4,86.1-171.6c0.6-1.3,2.2-2.1,5.1-4.7c59,118,117.4,235,177.3,354.7c85.6-134.4,203.1-221.3,357-257.8
		C1403.3,183.3,1546.9,214.3,1682.7,297.2z"/>
	<radialGradient id="SVGID_2_" cx="304.6127" cy="1167.22" r="146.0026" gradientUnits="userSpaceOnUse">
		<stop  offset="0" style="stop-color:#FEF050"/>
		<stop  offset="5.948725e-02" style="stop-color:#F9E43E"/>
		<stop  offset="0.1303" style="stop-color:#F3D727"/>
		<stop  offset="0.2032" style="stop-color:#F0CE0C"/>
		<stop  offset="0.2809" style="stop-color:#EFCB00"/>
		<stop  offset="0.6685" style="stop-color:#D99544"/>
		<stop  offset="0.8876" style="stop-color:#CD6F3C"/>
		<stop  offset="1" style="stop-color:#C34435"/>
	</radialGradient>
	<path class="st1" d="M158.9,1166.4c0.8-86.4,67.7-146.5,147.1-145.4c82.5,1.1,145.7,64.9,144.2,150
		c-1.3,78.2-63.1,142.5-146.4,142.6C221.9,1313.5,157.7,1247.7,158.9,1166.4z"/>
</g>
<g>
	<path d="M217.7,1862.4h-71.1v-464.1h71.1V1862.4z"/>
	<path d="M607.6,1719.1c-9.9,29.3-23.4,54.5-40.5,75.7c-17.1,21.2-37,37.9-59.6,50.1c-22.7,12.2-47,17.8-72.9,17
		c-3.3,0-7.4,0-12.4,0c-4.5,0-12.4,0-23.5,0s-26.8,0-47,0c-19.8,0-47,0-81.6,0v-463.4h126.1c36.2,0,68.4,5.3,96.4,15.8
		c28,10.5,51.6,25.5,70.8,45.1c19.2,19.6,33.8,43.4,43.9,71.4c10.1,28,15.1,59.5,15.1,94.5C622.4,1658.5,617.5,1689.8,607.6,1719.1z
		 M358.3,1441.9c-4.7,1-8.3,3.2-10.8,6.5c-4.5,10.7-6.8,27.6-6.8,50.7v236c0,23.9,0.5,42.8,1.5,56.8c1,14,4.8,24.3,11.4,30.9
		c31.3,5.4,58,6.4,80,3.1c22-3.3,40.3-9.6,54.7-18.8c14.4-9.3,25.7-20.9,34-34.9c8.2-14,14.4-28.9,18.5-44.8
		c4.1-15.9,6.6-31.9,7.4-48.2c0.8-16.3,1.2-31.6,1.2-46c0-62.6-14.5-110.4-43.6-143.4c-29-33-72-49.4-128.8-49.4
		C369.3,1440.4,363,1440.9,358.3,1441.9z"/>
	<path d="M980.8,1863H850.4c-57.7-0.4-101.8-15-132.2-43.9c-30.5-28.8-45.7-68.2-45.7-118v-302.8h309v34H784.3
		c-9.9,1.2-17.6,3.9-23.2,8c-5.6,4.1-9.7,10-12.4,17.6c-2.7,7.6-4.2,17.4-4.6,29.4c-0.4,12-0.6,26.4-0.6,43.3v68.6h168.7v28.4H743.5
		v93.3c0,20.6,3.2,37.7,9.6,51.3c6.4,13.6,14.6,24.6,24.7,33.1c10.1,8.4,21.5,14.3,34.3,17.6c12.8,3.3,25.5,4.9,38.3,4.9h130.4V1863
		z"/>
	<path d="M1096.4,1862.4h-71.1v-464.1h71.1V1862.4z"/>
	<path d="M1221.8,1861.8h-72.9c0.4-3.3,0.7-11.6,0.9-25c0.2-13.4,0.3-32.2,0.3-56.5c0-24.7,0-55.2,0-91.5c0-36.2,0-78.9,0-127.9
		c0-50.3,15.5-89.9,46.7-119c31.1-29,76.1-43.6,135-43.6c27.6,0,52.3,3.8,74.2,11.4c21.8,7.6,40.4,18.4,55.6,32.4
		c15.2,14,26.8,31,34.6,51c7.8,20,11.7,42.5,11.7,67.7l0.6,300.9h-72.3c0.4-3.3,0.6-11.1,0.6-23.5c0-12.8,0-28.4,0-47s0-39.3,0-62.4
		c0-23.5,0-47.8,0-72.9h-215.7L1221.8,1861.8z M1221.2,1627.6h215.7v-85.9c0-20.6-3.2-37.9-9.6-51.9c-6.4-14-14.7-25.1-25-33.4
		c-10.3-8.2-21.9-14-34.9-17.3c-13-3.3-25.9-4.7-38.6-4.3c-12.8-0.4-25.5,1.1-38.3,4.6c-12.8,3.5-24.3,9.4-34.6,17.6
		c-10.3,8.2-18.6,19.3-25,33.1c-6.4,13.8-9.6,31-9.6,51.6V1627.6z"/>
	<path d="M1591.6,1430.8c24.5-17.9,59.6-28.3,105.4-31.2c31.7,0,60.9,2.4,87.4,7.1c26.6,4.7,54.5,12.7,83.7,23.8
		c-3.3,15.7-6.2,33.6-8.7,53.8c-9.5-6.2-18.8-11.5-27.8-16.1c-9.1-4.5-19.2-8.7-30.3-12.7c-11.1-3.9-23.9-7.4-38.3-10.5
		c-14.4-3.1-31.9-6.3-52.5-9.6c-12,0.8-23.5,2.7-34.6,5.6c-11.1,2.9-20.9,7.2-29.4,13c-8.4,5.8-15.1,12.9-20.1,21.3
		c-4.9,8.4-7.2,18.2-6.8,29.4c0,7,2.4,14,7.1,21c4.7,7,10.9,13.9,18.5,20.7c7.6,6.8,16.6,13.1,26.9,18.8c10.3,5.8,21,10.9,32.1,15.4
		l91.5,38.3c14.8,6.2,27.5,14,38,23.5c10.5,9.5,19,19.7,25.6,30.6c6.6,10.9,11.2,22.2,13.9,34c2.7,11.7,3.8,23.2,3.4,34.3
		c-0.8,19-5.3,35.8-13.3,50.7s-18.8,27.5-32.1,38c-13.4,10.5-29,18.5-47,24.1c-17.9,5.6-37.2,8.3-57.8,8.3c-28.4,0-56.3-3-83.7-9
		c-27.4-6-54.9-13.3-82.5-21.9c1.6-7.4,3.1-15.9,4.3-25.3c1.2-9.5,2.7-19.2,4.3-29c10.3,9.1,21.1,16.5,32.4,22.2
		c11.3,5.8,23.1,10.4,35.2,13.9c12.1,3.5,24.9,6.1,38.3,7.7c13.4,1.7,27.5,2.7,42.3,3.1c12.4,0,24-1.1,34.9-3.4
		c10.9-2.3,20.4-6,28.4-11.1c8-5.1,14.3-12.3,18.8-21.3c4.5-9.1,6.6-20.6,6.2-34.6c0-5.8-1-12.8-3.1-21c-2.1-8.2-5.3-16.4-9.6-24.4
		c-4.3-8-10.1-15.7-17.3-22.9c-7.2-7.2-16.4-12.9-27.5-17l-97.6-35.2c-33-11.9-57.5-28.1-73.5-48.5c-16.1-20.4-23.7-42.3-22.9-65.8
		C1554.6,1478.1,1567.1,1448.7,1591.6,1430.8z"/>
</g>
</svg>
