<?xml version="1.0" encoding="utf-8"?>
<!-- Generator: Adobe Illustrator 21.0.0, SVG Export Plug-In . SVG Version: 6.00 Build 0)  -->
<svg version="1.1" id="Camada_1" xmlns="http://www.w3.org/2000/svg" xmlns:xlink="http://www.w3.org/1999/xlink" x="0px" y="0px"
	 viewBox="0 0 968 596" style="enable-background:new 0 0 968 596;" xml:space="preserve">
<style type="text/css">
	.st0{fill:#666666;}
	.st1{fill:#E3E5E5;}
	.st2{fill:#BABABA;}
	.st3{fill:#FFFFFF;}
	.st4{fill:#F9034F;}
	.st5{fill:#007A63;}
</style>
<g>
	<path class="st0" d="M883,482H82c-6.6,0-12-5.4-12-12V124c0-6.6,5.4-12,12-12h801c6.6,0,12,5.4,12,12V470
		C895,476.6,889.6,482,883,482z"/>
	<path class="st1" d="M539.1,451.6H119c-6.6,0-12-5.4-12-12V158.8c0-6.6,5.4-12,12-12h420.1c6.6,0,12,5.4,12,12v280.7
		C551.1,446.2,545.7,451.6,539.1,451.6z"/>
	<path class="st1" d="M850.3,451.6h-259c-6.6,0-12-5.4-12-12V189.3c0-6.6,5.4-12,12-12h259c6.6,0,12,5.4,12,12v250.3
		C862.3,446.2,856.9,451.6,850.3,451.6z"/>
	<path class="st2" d="M672.4,233.9h-51.1c-2.7,0-4.9-2.2-4.9-4.9v-33.7c0-2.7,2.2-4.9,4.9-4.9h51.1c2.7,0,4.9,2.2,4.9,4.9v33.7
		C677.3,231.7,675.1,233.9,672.4,233.9z"/>
	<path class="st2" d="M742,233.9H691c-2.7,0-4.9-2.2-4.9-4.9v-33.7c0-2.7,2.2-4.9,4.9-4.9H742c2.7,0,4.9,2.2,4.9,4.9v33.7
		C747,231.7,744.8,233.9,742,233.9z"/>
	<path class="st2" d="M811.7,233.9h-51.1c-2.7,0-4.9-2.2-4.9-4.9v-33.7c0-2.7,2.2-4.9,4.9-4.9h51.1c2.7,0,4.9,2.2,4.9,4.9v33.7
		C816.6,231.7,814.4,233.9,811.7,233.9z"/>
	<path class="st2" d="M672.4,283.9h-51.1c-2.7,0-4.9-2.2-4.9-4.9v-33.7c0-2.7,2.2-4.9,4.9-4.9h51.1c2.7,0,4.9,2.2,4.9,4.9V279
		C677.3,281.7,675.1,283.9,672.4,283.9z"/>
	<path class="st2" d="M742,283.9H691c-2.7,0-4.9-2.2-4.9-4.9v-33.7c0-2.7,2.2-4.9,4.9-4.9H742c2.7,0,4.9,2.2,4.9,4.9V279
		C747,281.7,744.8,283.9,742,283.9z"/>
	<path class="st2" d="M811.7,283.9h-51.1c-2.7,0-4.9-2.2-4.9-4.9v-33.7c0-2.7,2.2-4.9,4.9-4.9h51.1c2.7,0,4.9,2.2,4.9,4.9V279
		C816.6,281.7,814.4,283.9,811.7,283.9z"/>
	<path class="st2" d="M672.4,334h-51.1c-2.7,0-4.9-2.2-4.9-4.9v-33.7c0-2.7,2.2-4.9,4.9-4.9h51.1c2.7,0,4.9,2.2,4.9,4.9v33.7
		C677.3,331.8,675.1,334,672.4,334z"/>
	<path class="st2" d="M742,334H691c-2.7,0-4.9-2.2-4.9-4.9v-33.7c0-2.7,2.2-4.9,4.9-4.9H742c2.7,0,4.9,2.2,4.9,4.9v33.7
		C747,331.8,744.8,334,742,334z"/>
	<path class="st2" d="M811.7,334h-51.1c-2.7,0-4.9-2.2-4.9-4.9v-33.7c0-2.7,2.2-4.9,4.9-4.9h51.1c2.7,0,4.9,2.2,4.9,4.9v33.7
		C816.6,331.8,814.4,334,811.7,334z"/>
	<path class="st2" d="M742,384.1H691c-2.7,0-4.9-2.2-4.9-4.9v-33.7c0-2.7,2.2-4.9,4.9-4.9H742c2.7,0,4.9,2.2,4.9,4.9v33.7
		C747,381.8,744.8,384.1,742,384.1z"/>
	<path class="st3" d="M672.4,438.5h-51.1c-2.7,0-4.9-2.2-4.9-4.9v-33.7c0-2.7,2.2-4.9,4.9-4.9h51.1c2.7,0,4.9,2.2,4.9,4.9v33.7
		C677.3,436.3,675.1,438.5,672.4,438.5z"/>
	<path class="st4" d="M742,438.5H691c-2.7,0-4.9-2.2-4.9-4.9v-33.7c0-2.7,2.2-4.9,4.9-4.9H742c2.7,0,4.9,2.2,4.9,4.9v33.7
		C747,436.3,744.8,438.5,742,438.5z"/>
	<path class="st5" d="M826.9,438.5h-66.3c-2.7,0-4.9-2.2-4.9-4.9v-40.2c0-2.7,2.2-4.9,4.9-4.9h66.3c2.7,0,4.9,2.2,4.9,4.9v40.2
		C831.9,436.3,829.7,438.5,826.9,438.5z"/>
</g>
</svg>
