<?xml version="1.0" encoding="utf-8"?>
<!-- Generator: Adobe Illustrator 21.0.0, SVG Export Plug-In . SVG Version: 6.00 Build 0)  -->
<svg version="1.1" xmlns="http://www.w3.org/2000/svg" xmlns:xlink="http://www.w3.org/1999/xlink" x="0px" y="0px"
	 viewBox="0 0 259.2 259.2" style="enable-background:new 0 0 259.2 259.2;" xml:space="preserve">
<style type="text/css">
	.st0{fill:#36BC9B;}
	.st1{fill:#36BC9B;fill-opacity:0.502;}
	.st2{fill:url(#SVGID_1_);}
	.st3{fill:#FFFFFF;}
</style>
<g id="Camada_1" image-rendering="optimizeQuality" shape-rendering="geometricPrecision" text-rendering="geometricPrecision">
</g>
<g id="Camada_2">
</g>
<g id="Camada_3">
	<g>
		<rect x="251.8" y="219.8" class="st0" width="0.5" height="0.5"/>
		<polygon class="st1" points="251.8,219.8 251.5,219.8 251.5,220.3 251.8,220.3 		"/>
		<polygon class="st1" points="252.5,219.8 252.2,219.8 252.2,220.3 252.5,220.3 		"/>
		<polygon class="st1" points="251.8,220.3 251.8,220.6 252.2,220.6 252.2,220.3 		"/>
		<polygon class="st1" points="251.8,219.6 251.8,219.8 252.2,219.8 252.2,219.6 		"/>
		<rect x="251.8" y="218.2" class="st0" width="0.5" height="0.5"/>
		<rect x="251.3" y="218.4" class="st0" width="0.5" height="0.5"/>
		<rect x="250.8" y="218.6" class="st0" width="0.5" height="0.5"/>
		<rect x="252.2" y="218.4" class="st0" width="0.5" height="0.5"/>
		<rect x="252.7" y="218.6" class="st0" width="0.5" height="0.5"/>
		<rect x="251.8" y="216.7" class="st0" width="0.5" height="0.5"/>
		<rect x="251.3" y="217" class="st0" width="0.5" height="0.5"/>
		<rect x="250.8" y="217.2" class="st0" width="0.5" height="0.5"/>
		<rect x="252.2" y="217" class="st0" width="0.5" height="0.5"/>
		<rect x="252.7" y="217.2" class="st0" width="0.5" height="0.5"/>
		<rect x="253.2" y="217.4" class="st0" width="0.5" height="0.5"/>
		<rect x="250.3" y="217.4" class="st0" width="0.5" height="0.5"/>
		
			<linearGradient id="SVGID_1_" gradientUnits="userSpaceOnUse" x1="27490.2812" y1="-19100.8145" x2="16548.4941" y2="-15638.8516" gradientTransform="matrix(2.834646e-02 0 0 -2.834646e-02 -494.5717 -362.7732)">
			<stop  offset="0" style="stop-color:#48CFAE"/>
			<stop  offset="1" style="stop-color:#4FC0E8"/>
		</linearGradient>
		<polygon class="st2" points="0,0 259.2,0 259.2,259.2 0,259.2 		"/>
		<rect width="259.2" height="259.2"/>
		<path class="st3" d="M151.3,192.1H70.6c-1.4,0-2.5-1.1-2.5-2.5c0-16,1.5-25.5,8.8-32.9c6.9-6.9,18.7-11.3,39.2-16.9v-4.5
			c-6.8-3.5-12-12-14.3-21.9c-1.5-6.1-1.9-12.7-1.1-19c0.9-6.4,3.1-12.4,6.9-17.2c4.9-6.2,12.4-10.2,23-10.2s18.1,4.1,23,10.2
			c3.8,4.8,6,10.9,6.9,17.2c0.9,6.3,0.4,12.9-1.1,19c-2.4,9.8-7.5,18.3-14.3,21.9v4.5c20.5,5.6,32.3,9.9,39.2,16.9
			c7.3,7.3,8.8,16.9,8.8,32.9c0,1.4-1.1,2.5-2.5,2.5H151.3z M73.1,187.1h115c-0.1-13.1-1.6-21.1-7.4-26.8c-6.3-6.3-18-10.5-38.7-16
			c-1.1-0.2-2-1.2-2-2.4v-8c0-1,0.6-2,1.6-2.3c6-2.4,10.7-10,12.9-19.1c1.3-5.5,1.8-11.5,1-17.1c-0.7-5.5-2.6-10.7-5.8-14.8
			c-4-5-10.2-8.4-19.1-8.4s-15.1,3.3-19.1,8.4c-3.2,4.1-5.1,9.2-5.8,14.8c-0.8,5.7-0.3,11.7,1,17.1c2.2,9,6.8,16.7,12.8,19.1
			c1,0.3,1.7,1.3,1.7,2.4v8c0,1.1-0.7,2.1-1.8,2.4c-20.8,5.6-32.5,9.8-38.8,16.1C74.7,166,73.3,174,73.1,187.1z"/>
	</g>
</g>
</svg>
