<?xml version="1.0" encoding="utf-8"?>
<!-- Generator: Adobe Illustrator 22.1.0, SVG Export Plug-In . SVG Version: 6.00 Build 0)  -->
<svg version="1.1" id="Camada_1" xmlns="http://www.w3.org/2000/svg" xmlns:xlink="http://www.w3.org/1999/xlink" x="0px" y="0px"
	 viewBox="0 0 1666.6 455.3" style="enable-background:new 0 0 1666.6 455.3;" xml:space="preserve">
<style type="text/css">
	.st0{fill:#6A0100;}
	.st1{fill:#6A8282;}
</style>
<g>
	<g>
		<path class="st0" d="M569.4,7.6c1.4,0,2.7-0.1,4.1-0.1c33.2,0,66.4,0,99.6,0c0.4,0,0.8,0,1.2,0c3.3,0,3.3,0.2,4.2,3.3
			c1.4,5,2.5,10.1,3.9,15c1.2,4,2.4,8.1,3.4,12.2c0.8,3.2,1.5,6.5,2.5,9.7c0.9,2.8,1.7,5.6,2.4,8.5c1.5,5.8,3.4,11.5,4.6,17.3
			c0.5,2.5,1.5,4.9,2.1,7.4c0.9,3.6,2.1,7.2,2.8,10.8c0.3,1.6,1.1,3.1,1.5,4.7c1.7,5.8,2.8,11.8,4.6,17.6c1.3,4.1,2,8.4,3.5,12.4
			c0.6,1.5,0.7,3.2,1.2,4.9c1.1,4.4,2.4,8.8,3.6,13.1c1.2,4.5,2.2,9.2,3.6,13.6c1.4,4.4,2.1,9,3.6,13.3c1,3.2,1.3,6.6,2.4,9.7
			c1.1,3.3,1.5,6.8,2.6,10.2c0.5,1.5,0.7,2.9,1,4.4c0.9,3.9,1.7,7.8,2.6,11.7c0.5,2.2,0.9,4.3,1.5,6.5c0.5,2.2,0.8,4.5,1.3,6.8
			c0.1,0.5,0.1,1,0.3,1.4c0.3,0.5,0.7,0.6,1.1,0.1c0.4-0.7,0.7-1.4,0.9-2.2c0.7-4.9,2-9.7,3.3-14.5c1.2-4.6,2.1-9.3,3.2-13.9
			c0.6-2.6,1.4-5.1,2.1-7.6c0.6-2.2,1-4.5,1.6-6.7c1.4-5.7,3-11.4,4.5-17.2c0.9-3.6,2-7.2,2.9-10.8c0.7-2.8,1.7-5.5,2.3-8.3
			c1-4.4,2.5-8.7,3.5-13.2c0.4-1.9,1-3.9,1.5-5.8c0.7-2.3,1.6-4.5,1.9-6.9c0.4-2.4,1.6-4.5,2.1-6.8c0.4-1.9,0.7-3.9,1.4-5.8
			c0.4-1.3,0.8-2.7,1.2-4.1c2.2-8,4-16.1,6.5-24c0.3-0.8,0.4-1.7,0.5-2.6c0.4-2.8,1.9-5.2,2.4-8c0.4-2.1,1.1-4.1,1.6-6.2
			c0.6-2.8,1.4-5.5,2.2-8.3c0.9-3.3,1.7-6.6,2.7-9.9c1.7-5.9,3.1-11.9,4.9-17.8c0.8-2.9,2-5.7,2.4-8.7c0.2-1.3,0.9-2.6,1-3.9
			c0.1-0.9,0.8-1.4,1.7-1.5c0.8-0.1,1.6-0.1,2.4-0.1c33.5,0,67,0,100.6,0c3.8,0,3.8,0,3.8,3.9c0,98.8,0,197.6,0,296.4
			c0,3.9-0.3,4.1-4.1,4.1c-21,0-42.1,0-63.1,0c-0.9,0-1.8,0-2.6,0c-1.8-0.1-2.6-0.9-2.7-2.7c-0.1-1,0-1.9,0-2.9
			c0-45.9,0-91.8,0-137.8c0-2,0.1-4,0.4-6c0.4-2.9,0.5-5.9,0.5-8.8c0-7.5,0.1-15,0-22.6c0-3.6,0.2-7.2,0.7-10.8
			c0.2-1,0.2-2.1,0.2-3.1c0-5.5,0.1-11,0.1-16.6c0-2.1,0.1-4.1,0.7-6.2c0.6-2.2,0.3-4.6,0.1-6.9c-0.9,0.1-1,0.7-1.1,1.2
			c-0.4,4.5-2.1,8.7-3,13c-1.1,5.3-2.4,10.6-4,15.8c-1.1,3.6-2,7.2-2.8,10.8c-0.8,3.4-1.9,6.7-2.4,10.2c-0.5,3.1-1.6,6-2.2,9
			c-1.3,5.7-3.1,11.2-4.1,17c-0.2,1.2-0.6,2.3-1.2,3.4c-0.8,1.6-0.7,3.5-1.2,5.3c-1.1,3.7-2,7.5-2.8,11.3c-1,4.5-2.3,9-3.2,13.5
			c-1.2,5.5-2.4,11.1-4.1,16.5c-1,3.3-1.9,6.7-2.7,10.1c-1.1,4.4-2.2,8.8-3.2,13.2c-0.8,3.5-1.8,6.9-2.6,10.4
			c-0.9,3.6-2,7.3-2.7,10.9c-0.3,1.7-0.5,3.5-1.6,5c-0.1,0.2-0.2,0.5-0.2,0.7c0.2,2-0.6,3.8-1.1,5.6c-0.9,3.3-1.4,6.7-2.5,9.9
			c-0.6,1.8-0.7,3.9-1.3,5.8c-1,3.3-1.7,6.6-2.5,9.9c-0.8,3.3-1.8,6.5-2.3,9.8c-0.2,1.1-0.5,2.2-0.8,3.3c-0.4,1.8-1.7,2.4-3.3,2.6
			c-0.6,0.1-1.3,0-1.9,0c-23.1,0-46.2,0-69.4,0c-0.8,0-1.6,0.1-2.4-0.1c-1.2-0.4-2.3-0.6-2.6-2.5c-0.5-4.2-1.6-8.3-2.7-12.3
			c-1.2-4.1-2-8.2-3.2-12.2c-1.1-3.7-1.6-7.7-2.7-11.4c-1.4-4.7-2.3-9.4-3.4-14.1c-0.8-3.5-2.2-7-2.4-10.7c-0.1-1.4-1-2.5-1.3-3.8
			c-1.3-5.7-2.6-11.4-4-17c-0.8-3.3-1.9-6.6-2.5-9.9c-0.6-3.4-1.9-6.6-2.3-10c-0.1-1.3-0.6-2.7-1.1-3.9c-0.8-2.4-1-5-1.8-7.4
			c-1.4-4.1-2.1-8.4-3.1-12.6c-0.9-3.7-1.7-7.4-2.7-11.1c-0.8-3-1.4-6-2.2-9c-0.9-3.5-1.7-7-2.5-10.4c-1.6-6.6-3.3-13.1-4.8-19.7
			c-0.8-3.5-1.4-7-2.5-10.5c-0.9-2.9-1.5-6-2.1-9c-0.3-1.7-1-3.3-1.3-5.1c-0.5-2.6-1-5.3-1.7-7.9c-1.2-4.1-2.1-8.3-3.4-12.5
			c-0.1-0.2-0.3-0.3-0.6-0.5c-0.6,1-0.5,1.9-0.2,2.8c0.5,1.4,0.6,2.8,0.6,4.2c0,8.5,0.1,17,0.2,25.4c0,1.2,0,2.4,0.5,3.5
			c0.3,0.7,0.3,1.6,0.3,2.4c0.3,9.8,0.3,19.7,0.6,29.5c0.3,8.2,0.1,16.5,0.8,24.7c0.1,0.9,0,1.8,0,2.6c0,41,0,82.1,0,123.1
			c0,0.9,0,1.8-0.1,2.6c-0.1,1.6-0.9,2.5-2.5,2.7c-0.8,0.1-1.6,0.1-2.4,0.1c-21.1,0-42.2,0-63.4,0c-1.6,0-3.2-0.2-4.6-1
			C569.4,209.9,569.4,108.7,569.4,7.6z"/>
		<path class="st1" d="M1666.6,108.9c-1.4,0-2.7,0.1-4.1,0.1c-21.9,0-43.8,0-65.8,0c-0.6,0-1.1,0-1.7,0c-1.9-0.1-1.9-0.2-2.5-1.9
			c-1.3-3.8-2.6-7.5-4.1-11.2c-1-2.6-2.7-4.9-4.2-7.2c-3.2-5.1-7.3-9.4-12.3-12.9c-5.2-3.6-10.9-6.2-17.1-7.8
			c-3.8-1-7.6-1.8-11.5-1.9c-3.1-0.1-6.2-0.9-9.3-0.9c-1.8,0-3.5,0.1-5.2,0.4c-1.9,0.4-3.8,0.6-5.7,0.6c-2-0.1-3.9,0.8-5.8,1.2
			c-4.9,1.1-9.6,2.9-14,5.4c-3.8,2.1-7.4,4.6-10.6,7.4c-4.7,4.2-8.7,9-12.1,14.4c-3.2,5.1-6.1,10.2-8.1,15.9c-1,2.7-2.3,5.3-2.9,8.1
			c-0.8,3.6-1.9,7-2.7,10.6c-0.6,2.9-0.4,5.9-1.5,8.7c-0.1,0.2-0.2,0.5-0.1,0.7c0.2,4.3-1,8.4-1,12.6c-0.1,6.1,0,12.2,0,18.2
			c0,2.8,0,5.6,0.7,8.3c0.3,1,0.2,2.1,0.2,3.1c0,1.7,0,3.4,0.7,4.9c0.2,0.4,0.2,0.8,0.2,1.2c0.3,7.5,2.8,14.5,4.9,21.6
			c1.5,5,4,9.6,6.5,14.2c3.4,6.2,7.6,11.9,12.8,16.6c5.7,5.2,12.4,8.9,19.7,11.5c3.7,1.3,7.6,1.8,11.4,2.8c0.5,0.1,1,0.1,1.4,0.1
			c6.4,0.1,12.8,0.3,19.2-0.1c3-0.2,6-0.9,8.9-1.5c3.7-0.7,6.9-2.4,10.5-3.4c1.1-0.3,2.2-1,3.2-1.6c5.1-2.8,9.8-6.3,13.9-10.5
			c3.1-3.2,5.6-7,7.7-10.9c2.3-4.3,4.1-8.8,5.3-13.6c0.5-1.8,1-3.7,1.2-5.6c0.2-1.6,0.5-1.9,2.1-2c0.7,0,1.4,0,2.2,0
			c17.8,0,35.5,0,53.3,0c4.4,0,8.8-0.1,13.2-0.2c1.7,0,2.1,0.5,1.9,2.1c-0.8,5.5-1.9,11-3.2,16.4c-1.2,4.6-2.7,9.1-4.1,13.7
			c-1.4,4.7-3.3,9.2-5.4,13.5c-2.1,4.4-4.6,8.6-7,12.8c-1.6,2.6-3.3,5.1-5.1,7.5c-2.4,3.2-5,6.4-7.8,9.4c-2.4,2.5-5,4.9-7.4,7.5
			c-1.1,1.2-2.5,2.2-3.8,3.3c-2.9,2.3-5.7,4.9-8.9,6.8c-5.2,3-10.1,6.5-15.6,8.8c-2.6,1.1-5.2,2.4-7.9,3.4
			c-3.7,1.4-7.5,2.7-11.3,3.8c-6,1.8-12.1,3.1-18.2,4.1c-3.9,0.6-7.9,1.4-11.9,1.3c-2.4,0-4.8,0.1-7.2,0.4
			c-6.4,0.9-12.8,0.7-19.1-0.2c-0.5-0.1-1-0.1-1.4-0.1c-3.8-0.1-7.6-0.3-11.4-0.8c-5.8-0.8-11.5-2-17.2-3.1
			c-4.1-0.8-8.1-2.4-12.1-3.6c-4.9-1.4-9.5-3.6-14.2-5.6c-3.4-1.5-6.7-3.3-9.9-5.3c-2.9-1.8-5.9-3.4-8.7-5.4
			c-5.5-4-10.8-8.2-15.8-12.8c-5.2-4.7-9.7-9.9-14.1-15.3c-3.6-4.5-6.8-9.2-9.7-14.2c-1.7-2.9-3.4-5.8-5-8.7
			c-1.9-3.4-3.3-7.1-4.9-10.6c-1.4-3-2.4-6.1-3.5-9.2c-1.4-4.1-2.7-8.1-3.8-12.3c-0.5-2-1-4-1.4-6c-0.5-2.5-1.1-5-1.5-7.5
			c-0.5-3.2-0.7-6.5-1.5-9.7c-0.1-0.3-0.2-0.6-0.2-0.9c0.2-4.1-1-8.1-1.1-12.1c-0.1-5.8-0.6-11.5-0.4-17.3c0.2-6,0.2-12,1.2-17.9
			c0.1-0.6,0.1-1.3,0.1-1.9c0.1-4.6,1.1-9,1.7-13.5c0.3-2.6,1.1-5.1,1.4-7.7c0.2-2,0.9-4,1.4-6c0.4-1.6,0.9-3.2,1.2-4.8
			c1.4-6,3.5-11.8,5.8-17.5c2.4-6.2,5.2-12.2,8.6-17.9c2.8-4.9,5.9-9.7,9.3-14.3c4.3-5.8,9-11.2,14-16.3c4.9-4.9,10.2-9.4,15.9-13.5
			c5.5-4,11.3-7.5,17.4-10.6c6.1-3.1,12.4-5.6,18.7-7.9c4.1-1.5,8.4-2.6,12.6-3.8c2.2-0.7,4.6-1,7-1.4c2.9-0.5,5.8-0.7,8.6-1.5
			c0.3-0.1,0.6-0.2,0.9-0.2c4.6,0,9-1.3,13.6-1.2c4.1,0.1,8.1-0.3,12.2-0.7c0.8-0.1,1.6-0.1,2.4,0c5.4,0.6,10.8,0.8,16.3,0.8
			c1.3,0,2.6,0.1,3.8,0.6c0.8,0.3,1.6,0.3,2.4,0.3c1.7,0,3.4,0,4.9,0.8c0.2,0.1,0.5,0.1,0.7,0.1c4.3,0.1,8.5,1.3,12.6,2.2
			c3.6,0.8,7.2,2.1,10.7,3.3c4.5,1.5,8.7,3.5,13,5.4c4.1,1.7,8,3.9,11.8,6.3c2.2,1.4,4.3,2.8,6.4,4.3c4.8,3.3,9.2,7.1,13.4,11.1
			c3.6,3.4,6.8,7.2,9.8,11.1c3.1,3.9,5.8,8.2,8.3,12.6c2.7,4.7,5.2,9.6,6.9,14.7c1.6,4.8,3.4,9.6,4.6,14.6
			c1.5,6.1,2.4,12.2,3.1,18.4c0.1,0.5,0.3,0.9,0.4,1.4C1666.6,108.3,1666.6,108.6,1666.6,108.9z"/>
		<path class="st1" d="M1261.3,7.6c12.8,0,25.6,0,38.4,0c0.8,0,1.6,0,2.4,0c1,0,1.7,0.5,2,1.4c0.3,1,0.7,2,1,2.9
			c1.8,5,3.7,10,5.5,15c1.1,3,1.9,6.1,3,9c1.8,4.6,3.7,9.2,5.1,13.9c1.6,5.2,3.7,10.3,5.3,15.6c1,3.3,2.4,6.6,3.6,9.9
			c1.4,3.9,2.7,7.8,4.1,11.8c1.5,4.4,3,8.9,4.6,13.3c1.8,5,3.6,10.1,5.4,15.1c1.9,5.5,3.9,10.9,5.8,16.4c2,5.8,4.1,11.6,6.1,17.4
			c1.6,4.5,3.3,9,4.9,13.5c1.5,4.4,3,8.8,4.4,13.1c0.3,0.9,0.7,1.8,1,2.7c2.3,6.2,4.6,12.4,6.7,18.6c2.5,7.1,4.6,14.3,7.3,21.3
			c2,5.2,3.7,10.5,5.5,15.8c2,5.7,4.1,11.4,6.1,17.1c2.7,7.4,5.2,14.8,7.8,22.3c1.4,4.1,2.9,8.3,4.3,12.4c1.5,4.3,3,8.6,4.6,12.8
			c1.1,3,2.1,6,3.1,9c0.7,2.2,0.1,3-2.2,3c-2.6,0-5.1,0-7.7,0c-23,0-46.1,0-69.1,0c-0.8,0-1.6,0-2.4,0c-1.3,0-2.1-0.6-2.4-1.9
			c-1.5-5.7-3.7-11.2-5.6-16.8c-1.3-3.8-2.5-7.7-3.7-11.6c-1.2-3.9-2.5-7.7-3.9-11.5c-1.5-3.8-2.4-7.8-4-11.6
			c-0.5-1.2-1.1-1.8-2.4-1.9c-0.8,0-1.6,0-2.4,0c-30.7,0-61.4,0-92.1,0c-0.5,0-1,0-1.4,0c-2.7,0.1-2.8,0.1-3.6,2.8
			c-2.1,6.8-4.3,13.5-6.3,20.3c-1.7,5.5-3.6,10.9-5.2,16.4c-1.3,4.8-3.3,9.3-4.3,14.2c-0.2,0.9-0.7,1.4-1.6,1.5
			c-0.7,0-1.4,0.1-2.2,0.1c-24.8,0-49.6,0-74.4,0c-3.3,0-3.6-0.5-2.5-3.7c2.1-5.7,4.1-11.4,6.2-17.1c2.3-6.4,4.8-12.7,6.9-19.1
			c1.4-4.2,3-8.4,4.5-12.6c1.8-4.9,3.4-9.8,5.3-14.6c1.7-4.3,3-8.7,4.6-13.1c1.4-4,3-7.9,4.4-11.9c2.6-7.2,5.1-14.4,7.7-21.6
			c1.9-5.3,3.8-10.7,5.8-16c2.7-7,5.1-14.1,7.6-21.1c1.5-4.1,2.9-8.1,4.5-12.1c2.7-7,5.1-14.1,7.6-21.1c2.4-6.8,4.9-13.5,7.3-20.3
			c2.5-7.3,5.2-14.6,7.8-21.8c2-5.5,4.1-10.9,6-16.4c1.4-3.8,2.6-7.7,4-11.5c2.2-6.2,4.6-12.2,6.6-18.5c1.2-3.7,2.7-7.3,4.1-11
			c1.3-3.7,2.6-7.4,3.9-11c0.9-2.5,1.9-5.1,2.8-7.6c0.3-1,1-1.4,2-1.4c0.8,0,1.6,0,2.4,0C1235.2,7.6,1248.2,7.6,1261.3,7.6z
			 M1258.4,90.4c-0.6,0.1-0.6,0.6-0.7,1c-1.3,4.2-2.5,8.4-3.8,12.6c-0.5,1.7-1.4,3.4-1.8,5.2c-0.6,2.8-1.6,5.5-2.4,8.3
			c-1.2,4-2.4,7.9-3.8,11.9c-1.6,4.6-2.8,9.3-4.3,14c-2.1,6.3-3.9,12.6-5.9,18.9c-2.7,8.9-5.7,17.8-8.5,26.7
			c-0.8,2.6-0.2,3.6,2.5,3.6c0.4,0,0.8,0,1.2,0c18.6,0,37.3,0,55.9,0c0.6,0,1.3,0,1.9,0c1.7-0.1,2.1-0.6,1.9-2.3
			c-0.1-0.5-0.2-0.9-0.4-1.4c-1-3.1-2.1-6.2-3.1-9.3c-0.6-2-1-4.1-1.9-5.9c-1.6-3.5-2.4-7.3-3.6-10.9c-1.5-4.7-3-9.4-4.5-14.1
			c-2.4-7.7-5.2-15.2-7.5-22.9c-1.8-5.9-3.8-11.6-5.6-17.5c-1.1-3.5-2.4-6.9-3.4-10.5C1260.1,95.1,1259.2,92.8,1258.4,90.4z"/>
		<path class="st0" d="M917.4,159.3c0-49.1,0-98.2,0-147.3c0-4.5,0-4.5,4.3-4.5c48.2,0,96.3,0,144.5,0c3.4,0,6.7,0.3,10,0.7
			c3.6,0.4,7.1,1.1,10.7,1.3c1.9,0.1,3.6,0.8,5.4,1.1c9.1,1.7,17.7,4.6,26,8.6c3.4,1.6,6.7,3.2,9.9,5.4c5.9,4,11.4,8.4,16.1,13.8
			c2.3,2.7,4.4,5.5,6.6,8.2c0.3,0.3,0.5,0.6,0.7,1c1.4,3.1,3.3,6,4.7,9.1c2.1,4.7,4.1,9.4,5.3,14.3c1.2,4.9,2.9,9.8,2.7,15
			c1.9,9.3,0.6,18.8,0.9,28.2c0.1,1.6,0,3.2-0.6,4.7c-0.2,0.4-0.2,0.9-0.2,1.4c0.1,4.2-1.1,8.2-1.8,12.2c-1,5-2.5,9.7-4.2,14.4
			c-2.6,7.2-6.3,13.7-10.7,19.9c-2.6,3.6-5.5,6.9-8.5,10c-2.5,2.6-5.5,4.6-8.3,6.8c-4.2,3.4-8.9,6-13.6,8.4
			c-3.8,1.9-7.7,3.4-11.8,4.7c-4.5,1.4-9,2.6-13.6,3.5c-2.5,0.4-5.1,0.5-7.4,1.5c-0.2,0.1-0.5,0.2-0.7,0.1
			c-4.4-0.3-8.7,1.1-13.1,1.1c-22.1-0.1-44.2,0-66.2,0c-1.5,0-3,0-4.6,0c-1.7,0.1-2.3,0.7-2.4,2.4c-0.1,1.2-0.1,2.4-0.1,3.6
			c0,32.3,0,64.6,0,96.9c0,1,0,2.1,0,3.1c-0.1,1.8-0.9,2.5-2.7,2.7c-0.7,0.1-1.4,0-2.2,0c-23.5,0-47,0-70.5,0c-0.6,0-1.3,0-1.9,0
			c-1.4-0.2-2-0.7-2.1-2.1c-0.1-1.3-0.2-2.7-0.2-4.1C917.4,256.9,917.4,208.1,917.4,159.3C917.4,159.3,917.4,159.3,917.4,159.3z
			 M997.1,105.3C997.1,105.3,997.1,105.3,997.1,105.3c0,10.7,0,21.4,0,32.1c0,3.3,0.3,3.5,3.6,3.6c0.2,0,0.3,0,0.5,0
			c18.1-0.2,36.1,0.5,54.2-0.4c3.1-0.2,6.1-0.9,9.2-1.6c2.8-0.6,5.4-1.8,8-3c3.6-1.7,6.7-4.1,8.8-7.2c3.9-5.7,6.4-12.1,6.4-19.2
			c0-1.4,0-2.9,0-4.3c0.1-5,0.1-10-2.1-14.8c-0.3-0.7-0.5-1.5-0.8-2.2c-3.3-6.7-8.2-11.6-15.2-14.6c-2.4-1-5-1.8-7.5-2.4
			c-2.8-0.7-5.5-1.3-8.5-1.3c-17.9,0.1-35.8,0-53.7,0c-0.2,0-0.5,0-0.7,0c-1.8,0.1-2,0.4-2.2,2.1c0,0.7,0,1.4,0,2.2
			C997.1,84.7,997.1,95,997.1,105.3z"/>
	</g>
	<g>
		<path class="st0" d="M469.8,0c0,1-0.2,1.9-0.5,2.8c-1.4,3.8-2.7,7.5-4.4,11.1c-1.6,3.4-3.4,6.7-5.5,9.8c-2.9,4.3-5.8,8.5-8.9,12.6
			c-2.5,3.4-5.1,6.7-7.7,10c-5.3,6.7-10.9,13.1-16.9,19.2c-4,4.1-8.1,8.1-12.4,11.9c-4.1,3.6-8.2,7.2-12.5,10.7
			c-3.8,3.1-7.9,5.8-11.7,8.9c-2.5,2-5.4,3.6-8.1,5.5c-2.6,1.8-5.2,3.5-7.9,5c-4.7,2.7-9.4,5.6-14.3,8c-3,1.5-6.1,3-9.1,4.5
			c-7.4,3.7-15.1,6.7-22.8,9.6c-3.9,1.5-7.9,2.9-11.9,4.2c-4.5,1.4-9.2,2.6-13.8,3.8c-2.9,0.8-5.8,1.4-8.7,2
			c-4.6,1.1-9.4,1.9-14,2.8c-4.4,0.8-8.8,1-13.2,1.7c-3.9,0.6-7.8,0.3-11.6,1.3c-0.7,0.2-1.4,0.1-2.1,0.1c-10.7,0-21.4,0-32.1,0
			c-0.1,0-0.1,0-0.2,0c-3.9-0.7-7.9-0.6-11.8-1.2c-0.6-0.1-1.1-0.2-1.7-0.3c-3.8-0.1-7.4-1-11.1-1.4c-4.1-0.5-8.1-1.7-12.2-2.1
			c-1.1-0.1-2.1-0.5-3.1-0.8c-3.9-1-7.8-1.8-11.6-2.8c-6.9-1.7-13.5-4.1-20.3-6.1c-2-0.6-3.9-1.6-5.8-2.4c-4.7-1.7-9.3-3.6-13.8-5.5
			c-1-0.4-1.8-1-2.7-1.4c-3.6-1.5-7.1-3.4-10.7-5.1c-4.5-2.2-8.8-4.6-13-7.2c-4.4-2.6-8.8-5.4-13-8.3c-3.2-2.2-6.4-4.4-9.5-6.7
			c-2.6-2-5.3-4-7.9-6c-2.1-1.6-4.3-3.2-6.2-5.1c-2.1-2.1-4.6-3.8-6.8-5.9c-1-0.9-1.9-1.8-2.9-2.8c-2.1-2.1-4.3-4.2-6.4-6.2
			c-2.4-2.3-4.6-4.8-6.9-7.2c-3.6-3.7-6.8-7.7-10.2-11.6c-2.5-2.9-4.8-5.9-7.1-9c-3.2-4.3-6.3-8.6-9.3-13.1c-2.4-3.6-4.6-7.3-6.9-11
			C6.8,13.7,5,10.9,3.6,7.9C2.7,5.9,1.1,4.2,0.5,2C0.3,1.4,0.1,0.7,0.1,0c20.8,0,41.6,0,62.4,0c1.2,1.9,2.4,3.7,3.8,5.5
			c2.1,2.6,4,5.4,6.1,8c2.3,2.8,4.6,5.6,7.1,8.3c2.6,2.8,5.1,5.7,7.9,8.3c3.2,3.1,6.3,6.1,9.7,9c2.4,2,4.7,4.3,7.3,6.2
			c3,2.3,6.1,4.6,9.2,6.9c3.6,2.6,7.2,5.2,11,7.5c3.3,2,6.7,4,10,5.9c2.2,1.3,4.4,2.6,6.7,3.6c2.6,1.1,5.2,2.5,7.8,3.6
			c3.1,1.4,6.3,2.7,9.4,4c5.5,2.4,11.3,4.2,17.1,6c4.2,1.3,8.3,2.6,12.7,3.4c1.3,0.2,2.7,0.3,3.9,0.8c1.9,0.8,4,0.8,6,1.2
			c2.4,0.5,4.8,1.2,7.3,1c0.4,0,0.7,0.1,1.1,0.2c3.2,0.6,6.4,1.1,9.6,1.2c2,0.1,3.9,0.2,5.9,0.5c0.9,0.2,1.8,0.2,2.7,0.2
			c7.5,0,14.9,0.1,22.4,0c3.7-0.1,7.3-0.9,11-0.8c0.2,0,0.5-0.1,0.7-0.2c2.7-0.7,5.5-0.8,8.3-1.1c2.4-0.3,4.8-0.7,7.1-1.1
			c3.2-0.7,6.5-1.3,9.7-2c2.9-0.6,5.6-1.5,8.4-2.3c5.4-1.4,10.7-3.3,16-5.1c4.7-1.6,9.2-3.6,13.7-5.7c2.5-1.1,4.9-2.4,7.4-3.5
			c4.4-2,8.5-4.4,12.6-6.8c7.2-4.1,13.9-8.7,20.5-13.7c4.2-3.1,8.3-6.3,12.1-9.9c2.1-2,4.3-3.9,6.5-6c3.1-2.9,6.2-5.8,9-9.1
			c1.8-2.2,3.7-4.4,5.6-6.5c4.2-4.9,8.3-9.8,11.9-15.2c0.6-0.8,1.4-1.5,1.6-2.6C429.5,0,449.7,0,469.8,0z"/>
		<path class="st0" d="M439.5,311.3c-8.9,0-17.7-0.1-26.6,0.1c-2.7,0.1-4.1-1.2-5.4-3.2c-1.6-2.6-3.3-5.1-5.6-7.2
			c-0.7-0.7-0.8-1.7-1.5-2.4c-2.6-2.8-4.7-5.8-7.3-8.6c-3.7-4-7.4-7.9-11.3-11.7c-1.6-1.6-3.3-3.3-5-4.7c-3.1-2.7-6.1-5.6-9.6-7.9
			c-1.5-1-2.9-2.3-4.3-3.4c-3.3-2.6-6.8-5-10.2-7.4c-2.8-1.9-5.7-3.6-8.6-5.3c-3.5-2.2-7.1-4.2-10.8-6.2c-2.1-1.2-4.3-2.2-6.5-3.2
			c-4.2-1.9-8.3-3.9-12.6-5.6c-4.8-1.9-9.7-3.5-14.5-5.2c-3.6-1.2-7.3-2-10.8-3.2c-2.5-0.9-5.2-1-7.8-1.8c-1.9-0.6-3.9-0.8-5.8-1.2
			c-2.2-0.4-4.3-1.2-6.6-1.1c-1,0-2-0.1-3-0.5c-0.2-0.1-0.4-0.2-0.6-0.2c-2.8,0.1-5.5-1-8.3-0.9c-1.3,0-2.5-0.1-3.8-0.3
			c-2-0.3-4-0.5-6.1-0.5c-8.2,0-16.5,0-24.7,0c-0.8,0-1.7,0.1-2.5,0.2c-1.9,0.3-3.8,0.6-5.7,0.5c-1.3,0-2.7,0.1-4,0.5
			c-0.4,0.1-0.7,0.2-1.1,0.2c-4.1,0.1-8,1.3-12,1.8c-1.8,0.2-3.7,0.7-5.6,1.1c-1.7,0.4-3.4,1-5.2,1.1c-1.2,0.1-2.4,0.5-3.5,0.9
			c-2.6,1.1-5.3,1.4-7.9,2.3c-3.5,1.2-7,2.3-10.5,3.5c-2.8,1-5.6,2-8.4,3.2c-3.5,1.5-6.9,3.2-10.4,4.7c-5.8,2.6-11.3,5.8-16.9,8.9
			c-4.5,2.6-8.9,5.4-13.2,8.5c-3.9,2.8-7.7,5.6-11.4,8.7c-2.5,2.1-5.1,4.2-7.6,6.3c-5.4,4.7-10.5,9.7-15.3,14.9
			c-3.2,3.5-6.5,7-9.3,10.9c-2.1,2.9-4.5,5.6-6.7,8.4c-0.8,1-1.5,2.2-2.2,3.3c-0.6,1-1.3,1.5-2.5,1.5c-1.3,0-2.6,0-3.8,0
			c-18,0-36,0-54,0c-3.1,0-3.2-0.2-2.1-3c0.7-1.9,1.9-3.5,2.8-5.2c2.2-4,4.3-8.1,6.8-11.9c2.1-3.1,4.1-6.3,6.1-9.4
			c2.9-4.4,6-8.5,9.1-12.7c1.6-2.1,3.2-4.3,5.1-6.2c1.9-2,3.6-4.3,5.4-6.4c1.8-2.1,3.8-4.1,5.6-6.2c2.9-3.4,6-6.6,9.2-9.7
			c4.9-4.7,9.9-9.4,15.2-13.7c3.8-3.1,7.7-6,11.5-9.2c2.8-2.3,5.9-4.2,8.9-6.3c3.4-2.5,6.9-4.8,10.5-6.9c4-2.4,8.1-4.7,12.2-7
			c3.6-2,7.2-3.8,10.8-5.6c4.8-2.4,9.6-4.7,14.6-6.6c4-1.5,8-3,11.9-4.4c3.3-1.2,6.6-2.3,9.9-3.5c3.2-1.2,6.6-2,9.9-2.8
			c2.6-0.6,5.2-1.5,7.9-2c1.8-0.3,3.4-0.9,5.2-1.1c1.7-0.2,3.3-0.9,5-1.2c3.7-0.5,7.3-1.5,10.9-1.9c3-0.3,5.9-1.1,8.9-1
			c0.7,0,1.4-0.2,2.1-0.3c0.6-0.1,1.1-0.3,1.7-0.3c4.5,0.1,9-1.1,13.5-0.9c4.5,0.2,9.1,0.1,13.6-0.6c1.6-0.2,3.2,0.1,4.8,0.3
			c3.7,0.4,7.4,0.3,11.1,0.3c2.6,0,5.2,0.3,7.8,0.5c3.4,0.3,6.8,0.9,10.2,1.1c2.8,0.2,5.7,0.6,8.5,1.2c1.9,0.4,3.8,0.4,5.7,0.9
			c2.7,0.6,5.5,1.1,8.2,1.8c2.7,0.6,5.4,1.2,8.1,1.8c2.5,0.6,5.1,1.1,7.6,1.9c2.1,0.6,4.1,1.2,6.2,1.8c4.6,1.4,9.2,3,13.7,4.6
			c6.3,2.3,12.6,4.8,18.7,7.6c3.9,1.8,7.8,3.7,11.7,5.7c5.9,3.1,11.7,6.4,17.4,9.9c5.8,3.5,11.2,7.5,16.8,11.3
			c2.9,2,5.5,4.3,8.3,6.4c3.6,2.8,7,6,10.5,8.8c4,3.2,7.4,7,11.1,10.4c4.4,4.1,8.6,8.6,12.5,13.1c0.9,1,1.8,2,2.7,3
			c3.8,4.2,7.3,8.6,10.7,13.2c2.3,3.1,4.8,6.1,7,9.3c3.2,4.9,6.7,9.6,9.2,15c1.1,2.5,2.4,5,3.6,7.6c0.9,2,1.3,4.2,2.1,6.3
			c0.6,1.4-0.1,2.1-1.7,2.2c-0.5,0-1,0-1.5,0C457.4,311.3,448.4,311.3,439.5,311.3z"/>
		<path class="st1" d="M0.1,155.6c0-45.8,0-91.6,0-137.4c0-0.2,0-0.4,0-0.6C0.2,17-0.3,16,0.6,15.8c0.7-0.1,1.1,0.8,1.4,1.4
			c2.6,4.8,5.4,9.4,8.4,13.9c2,3,4,6,6.1,9c2.8,4,5.7,7.8,8.7,11.6c1.8,2.2,3.7,4.4,5.5,6.6c2.2,2.8,4.8,5.3,7,8.1
			c2.2,2.8,4.8,5.2,7.4,7.7c2.1,2.1,4.2,4.1,6.2,6.2c1.1,1.1,2.3,2.2,3.5,3.2c3.5,3,7,6.1,10.5,9.1c0.7,0.6,1.1,1.4,1.1,2.3
			c0,0.4,0,0.8,0,1.1c0,39.5,0,79,0,118.5c0,0.4,0,0.8,0,1.1c0.1,1.4-0.5,2.2-1.5,3.1c-4,3.2-7.8,6.5-11.5,10.1
			c-2.2,2.1-4.3,4.3-6.7,6.2c-1.8,1.5-3.2,3.4-4.8,5.1c-3.5,3.6-6.9,7.3-10.1,11.2c-3.4,4.2-7,8.3-10.1,12.7
			c-1.6,2.3-3.5,4.5-5.1,6.9c-3.2,4.6-6.4,9.2-9.3,14c-1.9,3.2-3.9,6.3-5.7,9.5c-0.1,0.2-0.3,0.4-0.5,0.6c-0.4,0.4-0.8,0.4-0.9-0.3
			c-0.1-0.6-0.1-1.1-0.1-1.7C0.1,247.4,0.1,201.5,0.1,155.6C0.1,155.6,0.1,155.6,0.1,155.6z"/>
		<path class="st1" d="M469.8,155.6c0,42.5,0,85,0,127.5c0,0.6,0,1.3,0,1.9c0,0.5-0.1,1.1-0.7,1.2c-0.5,0.1-0.8-0.3-1.1-0.7
			c-1-1.4-2-2.8-2.8-4.3c-1.9-3.1-4-6.1-6-9.1c-2.3-3.4-4.9-6.6-7.4-10c-2.2-3.1-4.6-6.1-7.1-9c-2.8-3.2-5.6-6.3-8.4-9.4
			c-3.6-4-7.4-8-11.3-11.6c-6.1-5.7-12-11.6-18.8-16.5c-2.2-1.6-2.8-3.4-2.7-5.9c0.1-36,0-72.1,0-108.1c0-0.6,0.1-1.2,0-1.7
			c-0.2-1.8,0.7-2.9,2.1-4c2.7-2.1,5.6-4,7.9-6.6c1.1-1.2,2.6-2,3.9-3.1c4.5-4.1,9-8.3,13.2-12.7c1.7-1.8,3.5-3.5,5.1-5.4
			c2.6-3.1,5.4-5.9,7.9-9c2.7-3.3,5.5-6.5,8-10c1.2-1.7,2.5-3.6,3.9-5.1c1.9-2,3.2-4.4,4.9-6.6c2.2-2.8,4.1-5.7,5.9-8.7
			c0.6-0.9,1.1-1.9,1.7-2.8c0.3-0.4,0.6-0.9,1.2-0.8c0.6,0.2,0.6,0.8,0.6,1.3c0,1.3,0,2.6,0,3.8C469.8,72,469.8,113.8,469.8,155.6
			C469.8,155.6,469.8,155.6,469.8,155.6z"/>
		<path class="st1" d="M234.2,251c9.4,0,18.7,0,28.1,0c1.5,0,1.9,0.3,2,1.9c0,1.4,0,2.8,0,4.2c0,17.1,0,34.2,0,51.3
			c0,0.1,0,0.3,0,0.4c0,2.3-0.2,2.6-2.5,2.6c-18.4,0-36.9,0-55.3,0c-2.3,0-2.5-0.2-2.5-2.5c0-12.1,0-24.2,0-36.3
			c0-6.2,0-12.4,0-18.6c0-0.4,0-0.9,0-1.3c0.1-1.4,0.2-1.5,1.6-1.5C215.2,251,224.7,251,234.2,251C234.2,251,234.2,251,234.2,251z"
			/>
	</g>
	<g>
		<path class="st1" d="M1182.5,455.3c-0.4-0.3-0.7-0.8-1.1-0.9c-6.8-1.9-10.7-6.7-13.2-13c-1.9-4.9-3.5-9.8-3.3-15.2
			c0.1-2.2-0.6-4.3-0.6-6.5c-0.1-5.8,0.3-11.7,1.6-17.4c1.5-6.6,4.5-12.8,10.4-16.6c4-2.6,8.7-4.3,13.7-2.5c1.7,0.6,3.6,0.3,5.2,1.4
			c1.4,0.9,2.9,1.6,4.3,2.5c0.9-1.3,0.5-2.6,0.5-3.8c0-5.8,0-11.7,0-17.5c0-4.2,0.7-4.8,5-4.8c6.3-0.1,6.6,0.2,6.6,6.5
			c0,26.7,0,53.3,0,80c0,6.4-0.3,6.7-6.5,6.6c-3.6-0.1-3.6-0.1-5-3.8c-1.5,1-2.9,2-4.4,3.1c-1.4,1-3.5,0.4-4.5,2.1
			C1188.4,455.3,1185.5,455.3,1182.5,455.3z M1176.7,419.3c0.1,5.3-0.3,10.6,1.4,15.9c0.9,2.8,2.2,5.2,4,7.3c1.7,1.9,4.2,3.3,6.8,3
			c3.8-0.5,7.2-2.1,8.9-6c1-2.3,2-4.7,2.3-7.3c1.2-9.2,1.1-18.5,0-27.7c-1-8.1-5.9-12.1-13.5-11.2c-2.7,0.3-4.8,1.5-6,4.1
			c-2.2,4.6-3.8,9.4-3.8,14.7C1176.8,414.4,1176.7,416.8,1176.7,419.3z"/>
		<path class="st1" d="M1328.8,455.3c-0.5-0.4-0.9-0.9-1.4-1.1c-5.9-1.4-9-5.8-11.4-10.9c-3.4-7.4-4.6-15.3-4.7-23.4
			c-0.1-4.6-0.3-9.3,0.7-13.8c1.4-7,3.4-13.7,8.8-18.8c2-1.9,4.3-3.1,7-3.6c1.1-0.2,2.1-0.5,3.1-0.9c1.3-0.5,2.7-0.7,3.9-0.2
			c1.9,0.8,4,0.9,6,1.5c2,0.6,3.5,2.1,5.2,3.2c1.5-0.7,1.1-1.9,1.1-2.9c0-6,0-11.9,0-17.9c0-1,0-2,0.1-2.9c0.1-0.6,0.2-1.4,0.6-1.7
			c2.5-1.8,5.4-1,8.1-0.7c2.2,0.2,2.1,2.4,2.2,4.1c0.1,0.8,0,1.7,0,2.6c0,26.9,0,53.8,0,80.7c0,5.7,0,5.7-5.5,5.5
			c-4.1-0.1-4.1-0.1-5-4.6c-1.1-0.1-1.2,1-1.8,1.5c-1.7,1.5-3.4,3.2-5.9,3.2c-0.9,0-1.6,0.6-2.2,1.2
			C1334.7,455.3,1331.7,455.3,1328.8,455.3z M1347.8,419c0-2.6,0.2-4.7,0-6.8c-0.4-4.7-0.8-9.5-2.8-13.9c-1.4-3.2-3.8-4.9-7.3-5.1
			c-1.1-0.1-2.2,0-3.3,0c-3.3-0.2-5.5,1.5-7,4.3c-2,3.4-2.7,7.2-3.4,11c-1.9,9.9-0.6,19.6,1.9,29.1c1.1,4.1,4,6.8,8.2,7.2
			c4,0.4,7.7-0.3,9.9-4.5c1.1-2.1,2.1-4,2.5-6.4C1347.4,428.8,1348.2,423.7,1347.8,419z"/>
		<path class="st1" d="M839.6,455.3c-1.3-0.6-2.7-1.1-4-1.7c-5.1-2-7.7-6.2-9.7-10.9c-4.1-9.8-4.4-20-3.7-30.4
			c0.3-4.1,0.5-8.3,2.1-12.1c1.9-4.7,3.9-9.4,8.5-12.3c4.6-3,9.6-3.4,14.7-2.6c2,0.3,3.9,1.4,5.7,2.4c2.9,1.5,3.1,1.5,3.1-1.9
			c0.1-4.6,0-9.3,0-13.9c0-1.5-0.1-2.9,0.1-4.4c0.2-2.3,1.1-3.2,3.4-3.6c0.1,0,0.2,0,0.4,0c6-0.1,7.3-0.5,7.3,6.6
			c-0.1,25.8,0,51.6,0,77.5c0,5.9-0.4,6.2-6.2,6c-2.7-0.1-2.7-0.1-4.5-3.8c-2.7,2.4-6,3.6-9,5.2
			C844.9,455.3,842.2,455.3,839.6,455.3z M833.8,420.2C833.8,420.2,833.8,420.2,833.8,420.2c0,3.4-0.1,6.8,0.1,10.2
			c0.3,4.3,1.5,8.5,4.3,11.8c3.8,4.5,9.8,5.1,14.1-0.1c2.7-3.3,4.3-7,4.1-11.4c-0.1-2.3,0.1-4.6,0.5-6.9c0.4-2.4,0.4-4.9,0-7.3
			c-0.4-2.1-0.6-4.1-0.5-6.2c0.2-3.6-0.8-6.9-2.6-10.1c-1.8-3.3-4.1-5.5-7.9-5.5c-3.9,0-7.1,1.6-9,5.2c-1.8,3.6-3.3,7.3-3.2,11.5
			C833.9,414.3,833.8,417.2,833.8,420.2z"/>
		<path class="st1" d="M600.4,455.3c-2.6-1.8-5.7-2.6-8.1-4.9c-1.6,3.4-1.6,3.4-5.5,3.5c-5.4,0.1-5.4,0.1-5-5.5
			c0.1-1.6,0.1-3.2,0.1-4.7c0-23.1,0-46.3,0-69.4c0-2.2-0.2-4.4-0.3-6.6c-0.1-2.8,0.7-3.7,3.6-3.9c6.2-0.4,6.6-0.1,6.6,6.3
			c0,6.7,0,13.3,0,20.4c4.7-4,9.6-6,15.3-5.5c4.7,0.4,8.4,2.5,11.8,5.7c5.3,5,6.2,11.7,7.2,18.3c1.4,10.2,1,20.5-2.2,30.3
			c-2.2,6.6-5.1,13-12.9,15c-0.4,0.1-0.7,0.6-1.1,1C606.8,455.3,603.6,455.3,600.4,455.3z M615,419.4c0.2-4.7,0-9-1.2-13.3
			c-0.7-2.8-1.9-5.5-3.7-7.9c-3.3-4.4-12.1-5.1-15.1,1c-1.9,3.9-3,8-3.3,12.2c-0.4,5.9-0.2,11.9-0.1,17.9c0.1,4.1,1.2,8,3.4,11.4
			c3.7,5.8,11.6,7.3,16.1,0.1c1.5-2.4,2.5-5,2.8-7.8C614.7,428.3,615.5,423.8,615,419.4z"/>
		<path class="st1" d="M1121.1,455.3c-0.3-0.2-0.5-0.6-0.9-0.7c-6.6-2.5-8.8-8.2-9.8-14.3c-0.8-4.9-0.7-9.9,1.6-14.7
			c1.9-3.9,4.6-6.8,8.6-8.5c5.1-2.2,10.3-4.4,15.4-6.6c3.4-1.4,5.3-3.8,4.8-7.6c-0.2-1.3-0.1-2.7,0-4c0.3-3.3-1.2-5.2-4.2-6.4
			c-3.9-1.6-8.5-0.9-11.2,1.8c-1.4,1.5-2.1,3.1-2.3,5.2c-0.3,3.8-1.3,4.7-5.1,4.5c-5.3-0.3-6.7-0.6-5.4-7.4c0.4-1.9,1.3-3.7,1.9-5.5
			c1.1-3.4,3.3-5.5,6.7-6.7c6.2-2.1,12.4-3.6,18.8-1.2c1.2,0.5,2.6,0.4,3.9,0.9c5.7,2.3,7.4,7.2,7.9,12.5c0.4,4.6,0.1,9.3,0.1,13.9
			c0,9.4,0.1,18.8,0,28.2c0,3.5,0.8,6.2,4.6,7.3c1.8,0.6,2.3,3,1.8,5.7c-0.4,1.9-1.7,2.2-3.2,2.3c-1.3,0.1-2.7,0.2-4,0.3
			c-3,0.1-5.4-0.8-7.1-3.6c-1.5-2.6-1.7-2.5-4-0.5c-2.4,2.1-4.9,4-8,5C1128.4,455.3,1124.8,455.3,1121.1,455.3z M1140.9,428.2
			C1140.9,428.2,1140.9,428.2,1140.9,428.2c0-2.2,0.1-4.4,0-6.6c-0.1-2.2-0.7-2.6-2.7-1.7c-3.2,1.4-6.4,2.9-9.7,4.3
			c-4.5,1.9-7.1,5.3-6.7,10.5c0.1,1.3,0,2.7,0.1,4c0.2,1.9,0.8,4,2.3,5.2c4,3.1,8.7,2.4,12.2-1c3.1-3,4.9-6.6,4.4-11.1
			C1140.8,430.7,1140.9,429.4,1140.9,428.2z"/>
		<path class="st1" d="M894.4,455.3c-0.8-0.8-1.8-1.2-2.8-1.6c-6.4-2.6-9.2-7.9-11.1-14c-1-3.1-1-6.5-1.8-9.6
			c-1.3-5.2-0.8-10.4-1.1-15.6c-0.3-3.7,1.1-7.2,1.7-10.7c0.8-4.7,2.1-9.5,5.1-13.5c1.1-1.5,2.2-2.8,3.8-3.8
			c5.2-3.4,10.9-5.1,17-4.2c8.5,1.2,15.4,4.8,18.6,13.6c1.9,5.3,3.2,10.6,3,16.3c-0.1,4.6-0.2,9.3,0,13.9c0.2,6.2-1.3,12.1-3.7,17.7
			c-2.1,5-5.7,8.7-11.1,10.4c-0.8,0.3-1.6,0.6-2.2,1.2C904.7,455.3,899.5,455.3,894.4,455.3z M890.1,419
			C890.1,419,890.1,419,890.1,419c0,3.4,0.2,6.8-0.1,10.2c-0.2,3.4,0.8,6.5,1.8,9.6c0.8,2.2,2.3,4.3,4.4,5.6
			c5.4,3.4,12.7,1.6,15.8-4.1c2-3.8,3.3-7.9,3.4-12.2c0.1-5.1-0.1-10.2,0.1-15.4c0.2-4.4-1.5-8.3-2.3-12.4c-0.5-2.8-2.3-4.6-4.3-6
			c-2.3-1.6-4.8-2.9-7.8-2.4c-4.6,0.9-7.7,3.6-9.3,7.8c-1.1,2.8-2,5.7-1.8,8.9C890.2,412.1,890.1,415.6,890.1,419z"/>
		<path class="st1" d="M1386.6,455.3c-0.6-0.6-1.4-1-2.2-1.2c-6-2.1-9.4-6.6-11.7-12.2c-2.2-5.4-3.3-10.9-3.1-16.7
			c0.2-4,0.2-8,0-12.1c-0.2-6.2,1.4-12.1,3.6-17.8c2.4-6.2,7-10.1,13.6-12.1c6.6-1.9,12.7-1.4,18.7,1.5c5.3,2.5,8.3,7.1,10.2,12.3
			c3.6,10.5,4,21.5,2.9,32.4c-0.6,6.4-2.5,12.9-6.6,18.3c-2.2,2.9-4.8,5.2-8.4,6.2c-0.8,0.2-1.3,0.6-1.7,1.3
			C1396.8,455.3,1391.7,455.3,1386.6,455.3z M1407.1,419.6c-0.1-4.4-1-8-0.9-11.7c0.2-3.9-1.3-7.3-3.1-10.7c-2-3.7-5.5-5.4-9.3-5.3
			c-4.3,0.1-8,2.4-9.8,6.4c-2,4.4-2.9,9.2-3.1,14.1c-0.3,7.4-0.3,14.7,1.3,22.1c0.8,3.8,2.3,6.8,4.9,9.5c2.5,2.6,11.5,2.5,14-0.3
			c1.7-1.8,2.8-3.9,3.7-6.2C1407.2,431.5,1405.7,425,1407.1,419.6z"/>
		<path class="st1" d="M1238.9,455.3c-0.9-1-2.2-1.5-3.4-2c-6-2.6-8.6-7.9-10.5-13.6c-2-6-1.3-12.3-2.7-18.3
			c-0.4-1.8-0.1-3.6,0.2-5.4c0.5-2.9,1-5.8,0.9-8.7c0-2.6,0.5-5,1.4-7.5c1.5-4.4,3.2-8.6,6.7-11.9c2.4-2.2,4.9-3.8,8.2-4.4
			c2.8-0.5,5.6-1.5,8.6-1.3c8.9,0.4,17.5,5.8,20.5,14.5c1.3,3.9,2.6,7.9,2.4,12.1c-0.1,2.6,0.2,5.1,1,7.6c0.7,2.2,0.7,4.6-0.1,6.8
			c-0.6,1.5-0.9,3.1-0.8,4.6c0.4,5.5-1.2,10.7-3.2,15.5c-2.1,5-5.5,9.2-11.1,10.8c-1,0.3-1.8,0.7-2.6,1.3
			C1249.1,455.3,1244,455.3,1238.9,455.3z M1259.9,418.6c-0.1-5.4,0.5-10.9-1.3-16.3c-1.5-4.5-3.2-8.4-8.6-9.8
			c-5-1.3-10.5,0.5-12.5,5.2c-1.8,4.1-3.2,8.4-3,13c0.4,8.8-1.2,17.7,1.5,26.4c1.1,3.6,2.8,6.9,6.6,8.1c3,1,6.2,0.9,9.3-0.4
			c2-0.9,3.4-2.2,4.5-4.1c2.4-4,3-8.4,3.5-12.8C1260.2,425,1259.9,421.8,1259.9,418.6z"/>
		<path class="st1" d="M1631.6,455.3c-1.3-0.9-2.5-2-4-2.6c-1.8-0.7-3.1-1.9-4.2-3.4c-2.9-3.7-4.5-8.1-5.6-12.6
			c-2-8.1-2.1-16.5-1.4-24.7c0.6-7,1.7-14,5.2-20.3c2.4-4.4,5.9-7.3,10.9-8.4c1.8-0.4,3.4-1.3,5.3-1.3c12.4,0.1,20.1,6.6,21.8,19.4
			c0.5,4.2,1.8,8.3,1.4,12.6c0,0.5,0,1,0,1.5c-0.1,3.9-0.8,4.6-4.8,4.7c-2.1,0.1-4.1,0-6.2,0c-6.2,0-12.4,0-18.6,0
			c-3.4,0-3.9,0.5-3.8,3.8c0.1,6,1.1,11.9,3.9,17.3c2.9,5.7,11.1,6.2,14.7,1c2.2-3.1,4-6.4,3.8-10.4c-0.1-1.9,1.1-2.9,2.9-3
			c1.8,0,3.7-0.1,5.5,0.1c1.5,0.1,2.9,1.2,2.4,2.6c-1.3,3.7-0.7,7.7-2.4,11.3c-2.5,5.2-5.5,9.7-11.6,11.3c-0.4,0.1-0.8,0.5-1.2,0.8
			C1640.8,455.3,1636.2,455.3,1631.6,455.3z M1638.8,410.7C1638.8,410.7,1638.8,410.7,1638.8,410.7c2.5,0,5.1,0.1,7.6,0
			c2.7-0.1,3.2-0.6,3.2-3.2c0-3.5-1.1-6.9-2.3-10.2c-1.3-3.7-4-5.6-8.1-5.5c-4,0-7.1,1.4-8.8,5.2c-1.4,3.4-2.5,6.9-2.8,10.5
			c-0.2,2.5,0.2,3.1,2.7,3.2C1633.2,410.8,1636,410.7,1638.8,410.7z"/>
		<path class="st1" d="M392.7,455.3c-1.2-1.8-3.5-1.4-5.2-2.5c-6.2-4.3-8.9-10.5-10-17.5c-0.7-4.7-1.4-9.4-1.4-14.2
			c0-7.2,0.5-14.4,2.9-21.2c1.5-4.2,3.3-8.4,7.3-11.1c3.4-2.3,7-3.9,11.2-3.8c1.8,0,3.7-0.1,5.5,0c8,0.5,13.9,4.3,17,11.7
			c2.6,6.2,3.7,12.8,4,19.5c0.3,7-0.1,13.9-1.6,20.7c-0.9,3.7-2.2,7.5-4.3,10.8c-1.9,3-4.7,4.9-8,6.1c-1,0.4-2.1,0.7-2.9,1.5
			C402.5,455.3,397.6,455.3,392.7,455.3z M412.5,420.5c0-5.6,0.4-11.2-1.6-16.6c-0.9-2.6-1.8-5.3-4-7.2c-5-4.3-13.3-2.6-16.1,3.3
			c-1,2-1.6,4-2.1,6.2c-1.7,7.2-1.3,14.5-0.9,21.8c0.2,4.4,0.9,8.9,3.1,13c1.9,3.4,4.8,5.2,8.6,5.2c4,0,7.9-1.1,9.7-5.2
			c2-4.4,3.5-9,3.4-14C412.5,424.9,412.5,422.7,412.5,420.5z"/>
		<path class="st1" d="M752.5,455.3c-0.6-0.4-1.2-0.9-1.9-1.1c-6.9-2.3-10.1-7.5-12.3-14.2c-3-9.1-3.3-18.5-2.5-27.8
			c0.7-7.3,2.3-14.7,7.3-20.6c3.5-4.1,7.9-6.4,13.3-6.6c1.7-0.1,3.4,0.1,5.1-0.1c8.5-0.6,16.3,6,18.9,13.9
			c1.9,5.8,3.2,11.7,2.9,17.8c-0.2,3.9,0.1,7.8-0.1,11.7c-0.4,6.7-2.1,13-5.6,19c-2,3.5-4.9,5.3-8.4,6.6c-1,0.4-2.1,0.6-2.9,1.4
			C761.8,455.3,757.2,455.3,752.5,455.3z M772.2,420.2c0.1-5.5,0.3-10.9-1.5-16.2c-1.3-3.9-2.9-7.7-7.1-9c-6.1-2-11.2,0.5-13.8,6.3
			c-2.3,5.2-2.1,10.9-2.8,16.4c-0.7,5.2,0.7,10.4,1.2,15.6c0.3,3.2,1.2,5.9,2.9,8.5c4.5,6.8,14.2,6.3,17.9-0.9
			c2-3.9,2.9-8.2,3.2-12.6C772.3,425.6,772.2,422.9,772.2,420.2z"/>
		<path class="st1" d="M282.3,455.3c-0.5-0.6-1-1.1-1.8-1.2c-3.6-0.6-5.7-3-7.5-5.9c-3.1-5-4.7-10.4-5.2-16.2
			c-0.3-3.2-0.7-6.3-0.7-9.5c0-7.8,0.1-15.6,2.7-23.1c1.4-4.2,3-8.5,7.1-11.2c2.9-1.9,5.9-3.4,9.5-3.3c1.5,0,2.9,0,4.4,0
			c6.6-0.2,11.7,2.9,14.8,8.4c2,3.5,3.7,7.5,3.9,11.7c0.2,4.3,0.2,8.5,0.1,12.8c0,2.8-1.1,4-3.8,3.7c-3.7-0.4-7.3,0-10.9-0.1
			c-5-0.1-10,0.3-15,0.2c-1.2,0-1.8,0.6-1.9,1.7c0,0.1,0,0.2,0,0.4c0.2,6.2,0.6,12.4,3.6,18.1c1.6,2.9,4.1,4.5,7.4,4.6
			c3.5,0.1,6-1.5,7.8-4.5c1.6-2.6,1.9-5.5,2-8.4c0.1-2,1.1-2.9,2.9-2.9c1.9-0.1,3.9-0.1,5.8,0c1.2,0.1,2.2,0.6,2.1,2
			c-0.4,6.5-1.6,12.7-6.2,17.8c-1.4,1.6-3.3,2.5-5.1,3.4c-1,0.5-2.1,0.8-2.8,1.6C291.1,455.3,286.7,455.3,282.3,455.3z M287.9,412.2
			C287.9,412.2,287.9,412.2,287.9,412.2c2.4,0,4.9,0.1,7.3,0c2.5-0.1,3.1-0.6,3.2-3c0.2-4-0.1-7.8-2.5-11.4
			c-3.6-5.6-10.6-4.8-13.9-0.3c-2.7,3.6-3.3,7.7-3.8,12c-0.2,2,0.3,2.6,2.5,2.7C283.1,412.3,285.5,412.2,287.9,412.2z"/>
		<path class="st1" d="M1039.2,455.3c-1.2-0.8-2.4-1.6-3.7-2.3c-6-3.4-9.9-11.4-8.8-18.2c0.2-1.4,0.9-2.2,2.4-2.2
			c1.9,0,3.9-0.1,5.8,0c1.8,0,2.7,1,2.7,2.7c0.1,1.5-0.1,3,0.6,4.3c2.5,4.7,5.8,6.5,11.7,6.2c4.4-0.2,8.7-3.8,10-8
			c0.8-2.8-0.6-6.1-2.6-8.2c-3.8-4-8.7-5.6-13.5-7.5c-3-1.2-6.1-2.3-8.9-4.2c-4.6-3.1-7.1-7.1-6.8-12.8c0.1-1.9,0.2-3.9,0-5.8
			c-0.7-7.5,5.9-14.1,12.1-15.8c3.6-1,7.2-1.6,10.8-1.2c5.5,0.7,10.7,2.2,14.4,6.7c3.1,3.8,3.4,8.2,3.3,12.7c0,1.3-1.1,2.2-2.5,2.2
			c-0.7,0-1.5-0.3-2.2-0.2c-3.4,0.3-5.5-1-6.1-4.6c-0.3-1.6-1.2-2.9-2.3-4.1c-4-4.8-11.4-4.4-15.2,0.5c-3.4,4.3-3,7.8-0.9,11
			c1.1,1.6,2.7,2.4,4.3,3.2c5,2.5,10.5,3.9,15.6,6.1c5.2,2.2,9.5,5.4,10.5,11.5c0.3,2,1.7,3.8,1.4,6c-1.1,9.4-2.8,17.1-13.8,21
			c-0.6,0.2-1,0.6-1.5,1C1050.4,455.3,1044.8,455.3,1039.2,455.3z"/>
		<path class="st1" d="M534.6,455.3c-0.4-1-1.4-1.3-2.2-1.8c-2.5-1.4-4.1-3.5-4.9-6.1c-0.9-3.2-1.7-6.3-1.7-9.7
			c0-15.5,0-30.9,0-46.4c0-4,0.7-4.6,4.7-4.8c1.2,0,2.4,0,3.7-0.1c1.9-0.2,2.7,0.8,2.7,2.5c0,1.1,0,2.2,0,3.3c0,14.6,0,29.2,0,43.8
			c0,2.1,0.2,4.1,1.1,6c0.6,1.3,1.5,2.1,2.7,2.8c2.8,1.8,10,0.6,12.4-2.4c2.7-3.5,4.3-7.1,4.2-11.7c-0.2-12.5-0.1-25.1-0.1-37.6
			c0-0.9,0-1.7,0-2.6c0.1-3.5,0.6-4,4.1-4.1c7.8-0.3,7,1.3,7,6.9c0,18.3,0,36.5,0,54.8c0,1,0,1.9,0,2.9c-0.1,1.8-1,2.7-2.8,2.8
			c-1,0-1.9,0-2.9,0c-2,0.1-3.6-0.2-4.2-2.5c-0.2-0.9-1-1.8-1.8-0.9c-2.2,2.4-5.4,3.2-8.1,4.8C543.9,455.3,539.2,455.3,534.6,455.3z
			"/>
		<path class="st1" d="M199.7,455.3c-0.7-0.6-1.4-1-2.2-1.2c-6.9-2.1-9.8-7.1-10.3-13.8c-0.1-1.2-0.3-2.4-0.7-3.6
			c-0.6-2.1,0.3-3.6,2.5-4c0.9-0.2,1.9-0.1,2.9-0.1c4.6,0,4.6,0.1,5.1,4.5c0.4,3.4,2.1,6.2,5.4,7.6c4.7,2,9.3,1.8,13.3-1.7
			c4-3.5,4.1-9.5,0.2-13.2c-3.1-2.9-7-4.4-10.9-5.7c-4.1-1.4-7.8-3.3-11.4-5.6c-1.7-1.1-2.9-2.5-3.7-4.4c-2.7-6.5-3.6-13.1-0.6-19.8
			c1.6-3.5,4.1-6,7.6-7.5c2.8-1.2,5.7-2.1,8.8-1.9c3.9,0.2,7.6,0.1,11.5,1.3c4.5,1.4,6.8,4.5,8.8,8.2c1.3,2.4,2,5.2,1.7,8.1
			c-0.1,0.8,0,1.9-0.8,2.3c-2.4,1.4-5,0.8-7.5,0.5c-1.7-0.2-2.2-1.7-2.6-3.2c-0.3-1.2-0.5-2.4-1-3.5c-1.4-2.7-3.4-4.4-6.7-4.2
			c-1.3,0.1-2.7,0-4,0c-2.9,0.1-5,1.4-5.9,4.1c-1.7,4.9-1.6,10.7,4.4,12.8c4.9,1.7,9.8,3.7,14.7,5.5c5.9,2.3,9.9,6.4,10.6,12.7
			c0.5,4.6,0.8,9.4-1,14.1c-1.8,4.9-5.2,8.1-9.9,10.1c-1,0.4-2.1,0.6-2.9,1.5C209.9,455.3,204.8,455.3,199.7,455.3z"/>
		<path class="st1" d="M1541.6,455.3c-1.3-1.4-3.3-1.4-4.8-2.5c-4.1-3-6.8-6.9-8.4-11.7c-1.3-3.9-2.6-7.8-2.4-12.1
			c0.1-1.4-0.4-2.9-0.7-4.3c-0.7-3.7-0.8-7.5,0-11.2c0.3-1.5,0.8-3.1,0.7-4.7c-0.2-6.6,2.5-12.3,5.3-18c1.9-3.9,5.9-5.3,9.5-7
			c7.2-3.4,14.2-1.6,20.6,1.9c4.6,2.5,7.3,7,8.1,12.4c0.3,1.7,0.6,3.4,0.9,5c0.4,2.6-0.3,3.6-2.9,3.9c-1.1,0.1-2.2,0.1-3.3,0.1
			c-3.6,0-3.4-0.1-4.5-3.7c-1-3.2-1.9-6.4-4.7-8.8c-4-3.4-8-2.7-11.9,0.1c-3.7,2.7-4.6,7.1-5,11.4c-1,8.5-1,17-0.1,25.5
			c0.4,3.4,1.4,6.6,3.3,9.6c2.1,3.5,5.3,5,9.3,4.5c3.9-0.4,6.3-3,7.8-6.4c1.1-2.4,1.8-5,1.7-7.7c0-2.5,0.8-3.1,3.3-3.3
			c0.6-0.1,1.2,0,1.8,0c5.6-0.1,6.5,0.8,5.7,6.4c-0.9,6.4-3,12.3-8.1,16.6c-1.2,1-2.5,2-4,2.5c-0.9,0.3-1.8,0.6-2.4,1.5
			C1551.4,455.3,1546.5,455.3,1541.6,455.3z"/>
		<path class="st1" d="M697.7,455.3c-1-1.1-2.5-1.4-3.7-2.2c-4.2-2.9-7.2-6.5-8.9-11.5c-3.5-10.2-2.8-20.6-2.6-31
			c0.1-3.1,1.1-6.2,2.1-9.2c0.7-2.3,1-4.7,2.5-6.8c4.2-6.1,9.6-9.8,17.3-9.5c3.3,0.1,6.4,0.1,9.7,1.3c7.5,2.8,12.2,11.9,11.5,19.3
			c-0.2,2.2-0.6,2.7-2.9,2.9c-0.8,0.1-1.7,0-2.6,0c-4.8,0-4.8-0.4-5.6-5.1c-1.3-7.9-7.9-11.4-14.7-7.1c-2.8,1.8-3.8,4.9-4.7,8
			c-2.4,8-1.6,16.2-1.3,24.3c0.2,4.1,1.1,8.3,3.2,12.2c1.7,3.2,6.3,5.5,10.2,5c4.1-0.6,6-3.6,7.2-7c0.8-2.2,1.7-4.5,1.8-7
			c0.1-2.5,1-2.8,5.6-2.7c3.3,0.1,3.9,0.5,4,2.9c0.4,6.8-1,13-5.8,18.2c-1.5,1.7-3.4,2.8-5.4,3.7c-1,0.4-2.1,0.7-2.9,1.5
			C707,455.3,702.3,455.3,697.7,455.3z"/>
		<path class="st1" d="M1092.6,455.3c-0.8-0.8-1.8-1.1-2.9-1.4c-3.3-1-4.9-3.4-5.2-6.8c-0.1-1.3-0.1-2.7-0.1-4c0-14.6,0-29.2,0-43.8
			c0-1.1,0-2.2,0-3.3c-0.1-1.8-1-2.6-2.8-2.7c-1.5,0-2.9,0-4.4-0.1c-2.2-0.2-2.7-0.7-2.9-2.9c-0.1-0.7-0.1-1.5-0.1-2.2
			c0-3,1-4.2,4-4.4c1.1-0.1,2.2,0,3.3-0.1c2.3-0.2,2.8-0.6,2.8-2.9c0.1-3.3,0-6.6,0.1-9.9c0-1.8-0.4-4,1.6-4.9
			c2.2-1.1,4.8-0.9,7.1-0.2c1.4,0.4,1.4,1.8,1.4,3.1c-0.1,3.8-0.2,7.5-0.2,11.3c0,3,0.4,3.3,3.4,3.5c1.6,0.1,3.2-0.1,4.7,0.1
			c2.9,0.3,4,1.7,3.8,4.6c-0.4,4.8-0.4,4.8-5.4,4.9c-6.5,0-6.5,0-6.5,6.7c0,11.7,0,23.4,0,35.1c0,0.7,0,1.5,0,2.2
			c0.6,6.8,1.7,7.3,8.2,8.4c3.2,0.5,3.5,0.6,3.4,3.7c-0.1,2,0.4,4.1-0.9,6C1100.9,455.3,1096.7,455.3,1092.6,455.3z"/>
		<path class="st1" d="M250.1,455.3c-0.6-0.4-1.2-0.9-1.8-1.1c-4.8-1.6-6.4-5-6.3-9.8c0.1-11.5,0-22.9,0-34.4c0-3.5,0-7.1,0-10.6
			c-0.1-2.8-0.4-3.1-3.2-3.3c-0.2,0-0.5,0-0.7,0c-1.6-0.2-3.6,0.6-4.7-1.2c-1.2-2-0.8-4.3-0.5-6.4c0.2-1.3,1.2-1.8,2.4-1.8
			c1.3-0.1,2.7-0.1,4-0.1c1.8,0,2.7-0.9,2.7-2.7c0-3.2,0-6.3,0-9.5c0-1,0-1.9,0.1-2.9c0.1-1.4,0.9-2.2,2.3-2.3
			c1.3-0.1,2.7-0.1,4-0.1c3,0,3.3,0.2,3.4,3.3c0.1,3.4,0,6.8,0,10.2c0,3.7,0.3,3.9,4,4c0.5,0,1,0,1.5,0c1.6,0.2,3.7-0.7,4.8,0.9
			c1.3,2,0.7,4.5,0.5,6.8c-0.2,1.3-1.2,1.8-2.4,1.8c-1.6,0-3.2,0-4.7,0.1c-3.2,0.1-3.5,0.4-3.5,3.7c0,6.5,0,12.9,0,19.4
			c0,6.1,0,12.2,0,18.3c0,1.7,0.3,3.3,1,4.9c1,2.3,2.7,3.3,5.1,3.4c0.6,0,1.2,0,1.8,0.1c2.3,0.2,2.8,0.6,2.9,2.9
			c0.1,2.2,0,4.4,0,6.6C258.4,455.3,254.3,455.3,250.1,455.3z"/>
		<path class="st1" d="M669.2,455.3c-1.2-2.1-3.2-1.2-5-1.3c-3-0.1-3.4-0.4-3.4-3.3c0-20.1,0.1-40.2,0.1-60.3c0-3.4,0.4-3.8,3.7-3.9
			c6.2-0.2,6.2-0.2,6.2,5.9c0,19,0,38,0,57c0,1.9-0.1,3.9-0.2,5.8C670.1,455.3,669.7,455.3,669.2,455.3z"/>
		<path class="st1" d="M35.9,436c1.2-1.5,1.8-2.9,2.1-4.5c0.7-3.4,1.9-6.8,2.4-10.2c0.8-5.1,2.9-9.7,3.7-14.8c0.7-4.1,2.1-8,3.2-12
			c2.1-8.2,4.1-16.5,6.4-24.7c1.7-6.3,0.9-5.9,7.5-5.9c2.6,0,5.1-0.1,7.7,0c2.6,0.1,3.1,0.7,3.6,3.2c0.7,3.6,1,7.2,0.4,10.9
			c-0.3,1.8-0.3,3.6-0.3,5.5c0,18.3,0,36.6,0,54.8c0,2.8-0.1,5.6,0.4,8.4c0.2,0.9,0.1,2-0.1,2.9c-0.6,3.6-1.4,4.2-5.1,4.3
			c-5.7,0.1-5.7,0.1-5.7-5.8c0-22.4,0-44.8,0-67.3c0-1,0-1.9,0-3.5c-1.4,2.2-1.9,4.1-2.4,6c-2.6,10.3-4.9,20.6-7.9,30.7
			c-2,6.6-3.3,13.4-5.3,20c-1.4,4.6-2.6,9.3-3.4,14.1c-0.2,0.9-0.7,1.8-0.9,2.8c-0.6,2.2-2.1,2.9-4.4,3c-7.1,0.2-7,0.2-8.7-6.7
			c-2-8.1-4.3-16.2-6.1-24.3c-1.1-5-2.9-9.7-3.4-14.8c-0.1-1.4-0.9-2.8-1.3-4.1c-1.3-3.9-1.7-8.1-2.8-12.1
			c-1.4-5.1-3.2-10.2-4.4-15.4c0,1.3,0,2.6,0,3.9c0,22.7,0,45.3,0,68c0,5.5-0.1,5.5-5.5,5.5c-0.5,0-1,0-1.5,0
			c-3.7-0.1-4.2-0.6-4.2-4.3c0-26.8,0-53.6,0-80.4c0-4.2,1.1-5.2,5.2-5.3c3-0.1,6.1-0.1,9.1,0c3.1,0.1,3.8,0.4,4.7,3.5
			c1.4,5.2,2.4,10.4,3.9,15.6c2.4,8,3.8,16.3,6,24.4c1.4,5,2.9,10,3.4,15.2c0.2,1.8,1.1,3.5,1.7,5.2C34.9,430.5,34.9,433.2,35.9,436
			z"/>
		<path class="st1" d="M1487.9,361c1.2,0.1,3.4-0.5,5.3,0.5c2.1,1.1,1.7,3.4,2.3,5.2c1.8,5.9,3.5,11.9,5.2,17.9
			c2.1,7.5,4.5,14.9,6.2,22.5c1.5,6.6,3.9,13,5.2,19.7c0.7,3.6,2.2,7.2,3.1,10.8c1.1,4.3,2,8.7,3.5,13c0.8,2.2-0.1,3.3-2.3,3.5
			c-2.1,0.1-4.1,0.1-6.2,0c-2-0.1-3.1-1.1-3.5-3.1c-1.5-6.5-3.1-12.9-4.7-19.4c-0.5-2.2-1.6-3.1-4.2-3.2c-3.4-0.1-6.8,0-10.2,0
			c-3.9,0-7.8-0.1-11.7,0c-2.7,0.1-3,0.6-3.6,3.1c-0.7,3.1-1.9,6-2.4,9.1c-0.5,3.5-1.8,6.8-2.6,10.2c-0.6,2.7-1.1,3.1-4,3.3
			c-1.6,0.1-3.2,0.1-4.7,0c-2.8-0.2-3.5-1-2.9-3.7c0.8-3.6,1.7-7.1,2.8-10.6c2.3-7.2,3.8-14.6,5.9-21.8c1.8-6.2,3.5-12.4,5-18.6
			c2.1-8.4,4.8-16.6,6.9-24.9c0.9-3.8,2.1-7.5,3.1-11.2c0.4-1.4,1.2-2.1,2.6-2.1C1483.6,360.9,1485.4,361,1487.9,361z M1476,416.5
			c6.8,1.1,13.1,0.6,19.4,0.5c1.9,0,2.6-1.3,2-3.4c-0.6-2.2-1.1-4.5-1.7-6.7c-2.5-10-5.5-19.8-7.6-29.9c-0.1-0.6-0.2-1.3-0.9-1.4
			c-1-0.2-1.1,0.7-1.3,1.4c-0.2,0.6-0.3,1.2-0.4,1.8c-1.9,7.5-3.9,15-5.8,22.5C1478.5,406.2,1477.3,411.1,1476,416.5z"/>
		<path class="st1" d="M969.1,407.4c0-13.3,0-26.6,0-39.8c0-1.1,0-2.2,0.1-3.3c0.3-1.9,1.4-3.1,3.4-3.3c0.8-0.1,1.7-0.1,2.6-0.1
			c12.1,0,24.1,0,36.2,0c5.1,0,5.3,0.2,5.3,5.4c0,0.2,0,0.5,0,0.7c0,4.7-0.3,5-5,5c-8.6,0-17.3,0-25.9,0c-3.9,0-4.2,0.3-4.2,4.1
			c0,6.8,0,13.6,0,20.5c0,3.4,0.4,3.7,3.8,3.7c7.8,0,15.6,0,23.4,0c1,0,1.9,0,2.9,0.1c1.5,0.1,2.2,0.8,2.2,2.3c0,1.8,0.1,3.7,0,5.5
			c-0.1,2.1-0.9,3-3,2.6c-6.2-1.3-12.4,0-18.6-0.5c-2.7-0.2-5.3,0.3-8,0.8c-1.8,0.3-2.8,1.3-2.8,3.2c0,8.5,0,17.1,0,25.6
			c0,2.4,0.6,2.9,3.2,2.9c5.1,0.1,10.2,0,15.3,0c4.5,0,9-0.1,13.5,0c2.9,0.1,3.1,0.4,3.1,3.2c0,1.7,0,3.4-0.1,5.1
			c0,1.8-0.9,2.7-2.7,2.7c-0.6,0-1.2,0-1.8,0c-12.9,0-25.8,0-38.7,0c-2.6,0-3.8-1-4.2-3.5c-0.2-1.4-0.1-2.9-0.1-4.4
			C969,433.2,969,420.3,969.1,407.4C969,407.4,969.1,407.4,969.1,407.4z"/>
		<path class="st1" d="M464.4,409.2c0-12.9,0-25.8,0-38.7c0-0.6,0-1.2,0-1.8c0.1-3.5,1.2-4.6,4.6-4.7c0.5,0,1,0,1.5,0
			c5.7,0,11.4-0.1,17.2,0c4.4,0.1,8.7,1,12.9,1.8c8.8,1.7,13.9,7.6,15.3,16.4c1.2,7.4,1.2,14.9-2.1,21.8
			c-3.2,6.8-8.9,10.7-16.4,11.9c-5.9,1-11.8,1.6-17.8,1.4c-3.3-0.1-4,0.6-4,3.8c0,9.5-0.3,19,0.2,28.5c0,1,0.1,1.9-0.1,2.9
			c-0.3,1.1-0.9,1.7-2.1,1.6c-2.1-0.1-4.1-0.1-6.2-0.2c-1.9-0.1-2.8-1.2-2.9-3c0-1,0-1.9,0-2.9C464.4,435,464.4,422.1,464.4,409.2z
			 M487,374.9c-2.9,0-5.1,0-7.3,0c-3.4,0.1-4.1,0.7-4.1,4.1c-0.1,7.5,0,15.1,0,22.6c0,0.7,0.2,1.5,0.2,2.2c0,1.9,0.9,2.6,2.7,2.5
			c4.5-0.1,9,0.3,13.5-0.2c4.5-0.5,8.6-2.3,10.9-6.8c2.3-4.6,2.2-9.3,1.6-14.2c-0.5-4.3-3.2-6.9-6.8-8.9
			C494.1,374.3,490.1,375.1,487,374.9z"/>
		<path class="st1" d="M119.6,392.8c3-4.1,6.4-6,10.4-7.1c5.7-1.4,11.1-1,16.2,1.9c3.1,1.7,4.1,5,5,8.2c1.5,4.9,1.7,10,1.6,15.2
			c-0.1,11.9,0,23.9,0,35.8c0,0.9,0,1.7,0,2.6c-0.1,3.8-0.8,4.5-4.5,4.6c-6.7,0.2-7.1-0.1-7.1-6.8c0-13.8,0-27.5,0-41.3
			c0-1-0.1-2,0-2.9c0.3-6.1-6-9.8-11.9-7.8c-5.2,1.8-8.6,6.7-8.6,12.3c0,13.5,0,27,0,40.6c0,1,0,2,0,2.9c-0.2,2.4-0.8,3.1-3.1,3.1
			c-1.7,0-3.4,0-5.1-0.1c-2.1-0.2-2.6-0.8-2.9-3c-0.1-0.6,0-1.2,0-1.8c0-19,0-38,0-57c0-5.3,0.4-5.6,5.5-5.5
			c3.7,0.1,3.9,0.3,4.2,3.9C119.4,390.9,119.4,391.4,119.6,392.8z"/>
		<path class="st1" d="M648,409.3c0,12.9,0,25.8,0,38.8c0,0.9,0,1.7,0,2.6c-0.2,2.7-0.7,3.2-3.2,3.4c-1.5,0.1-2.9,0-4.4,0.2
			c-1.9,0.2-2.7-0.8-3.1-2.4c-0.2-1.1-0.3-2.2-0.3-3.3c0-26.3,0-52.7,0-79c0-4.6,1-5.5,5.6-5.5c0.6,0,1.2,0,1.8,0
			c2.7,0.2,3.3,0.8,3.5,3.6c0,0.7,0,1.5,0,2.2C648,382.9,648,396.1,648,409.3z"/>
		<path class="st1" d="M1594.4,390.1c1.9-2.3,4-4.3,6.8-5.6c2.6-1.2,5.4-1.2,8.1-2.1c1.8-0.6,3.7,0.9,3.9,2.9c0.3,2,0.3,4.1,0.2,6.2
			c-0.1,1.6-1.2,2.6-2.7,2.3c-4.3-1-7.9,0.5-11,3.2c-3.8,3.2-5.6,7.5-5.5,12.6c0.1,4.3,0,8.5,0,12.8c0,8.5,0,17,0,25.6
			c0,1.2-0.1,2.4-0.2,3.6c-0.2,1.4-1.1,2-2.5,2.3c-6.8,1.3-8.3,0.1-8.3-6.7c0-18.9,0-37.7,0-56.6c0-1.1,0-2.2,0.1-3.3
			c0-0.7,0.2-1.5,0.7-2c1.9-2.2,4.4-1.7,6.8-1.4c1.9,0.3,2.7,1.8,2.9,3.7C1593.6,388.4,1593.3,389.4,1594.4,390.1z"/>
		<path class="st1" d="M331.4,392.3c1-0.2,1.5-0.8,1.9-1.4c3.2-4.7,7.9-6.2,13.3-5.8c2.3,0.1,2.8,0.6,3,2.8c0.2,1.8,0.2,3.6,0.3,5.5
			c0.1,1.8-0.9,2.7-2.7,2.8c-0.9,0-1.7,0-2.6,0c-5.8,0.1-10.4,3.6-12.1,9.2c-0.8,2.7-1.3,5.4-1.3,8.3c0.1,11.6,0,23.2,0,34.7
			c0,1,0,2,0,2.9c-0.1,2-1,3.2-3.3,2.8c-1.4-0.2-2.9-0.1-4.4,0c-1.5,0.1-2.3-0.6-2.4-2.1c-0.1-1-0.1-1.9-0.1-2.9
			c0-19.1,0-38.3,0-57.4c0-0.9,0-1.7,0.1-2.6c0.1-1.5,0.9-2.5,2.5-2.6c0.5,0,1,0,1.5-0.1c5.1-0.2,5.2,0,5.8,5
			C330.9,391.7,331.1,391.9,331.4,392.3z"/>
		<path class="st1" d="M175.6,420.4c0,9.4,0,18.8,0,28.1c0,1.1,0,2.2-0.1,3.3c-0.1,1.1-0.8,1.8-1.9,2c-0.4,0.1-0.7,0.1-1.1,0.1
			c-9.1,0.2-8.1,0.1-8.1-7.4c0-17.9,0-35.8,0-53.7c0-0.9,0-1.7,0-2.6c0.1-3.1,0.6-3.6,3.6-3.7c1.5-0.1,2.9-0.1,4.4,0
			c2.4,0.2,3,0.7,3.1,3.1c0.1,2.4,0,4.9,0,7.3C175.6,404.8,175.6,412.6,175.6,420.4z"/>
		<path class="st1" d="M354.7,420.3c0-9.7,0-19.5,0-29.2c0-4.2,0.4-4.5,4.6-4.5c6.4-0.1,6.4-0.1,6.4,6.4c0,18.4,0,36.8,0,55.1
			c0,5.8-0.1,5.9-6,5.8c-0.6,0-1.2,0-1.8,0c-2.6-0.2-3.2-0.7-3.2-3.3c-0.1-4.5,0-9,0-13.5C354.7,431.5,354.7,425.9,354.7,420.3z"/>
		<path class="st1" d="M97.3,420.2c0,8.6,0,17.3,0,25.9c0,7.7-1.3,8.8-8.8,8c-1.2-0.1-1.8-0.7-1.9-1.8c-0.1-1-0.2-1.9-0.2-2.9
			c0-19.2,0-38.5,0-57.7c0-0.5,0-1,0-1.5c0.2-3,0.7-3.5,3.7-3.7c6.2-0.3,7.1,0.6,7.2,7C97.3,402.5,97.3,411.3,97.3,420.2
			C97.3,420.2,97.3,420.2,97.3,420.2z"/>
		<path class="st1" d="M297.8,363.8c1.3,0.1,2.7,0,4,0.3c1.4,0.3,1.9,1.5,0.9,2.4c-4.2,4.3-7.8,9.3-12.5,13.2
			c-1.6,1.4-3.6,1.3-5.5,1.2c-1.5-0.1-1.9-1.4-1.3-2.4c2.7-4.6,4.9-9.5,8.5-13.5C293,363.8,293.5,363.9,297.8,363.8z"/>
		<path class="st1" d="M553.9,363.9c1.3,0,2.3-0.1,3.2,0c2.3,0.3,3,1.8,1.4,3.5c-3.8,4.2-7.4,8.8-11.6,12.6c-1.8,1.7-3.9,1-5.9,0.5
			c-1.3-0.4-0.8-1.6-0.4-2.4c1.7-3,3.4-5.9,5.2-8.8c0.4-0.6,0.9-1.2,1.2-1.8C548.6,364.4,550.9,363.2,553.9,363.9z"/>
		<path class="st1" d="M175.6,371.1c0,7.1,0,7.1-7.1,6.8c-3.5-0.1-4-0.6-4.1-4.1c0-2.1-0.1-4.1,0-6.2c0.1-2.6,1-3.5,3.6-3.6
			C176.6,363.7,175.6,364,175.6,371.1z"/>
		<path class="st1" d="M365.8,371.1c0,6.9,0,6.9-6.8,6.8c-3.7-0.1-4.2-0.5-4.2-4.2c0-1.9-0.1-3.9,0-5.8c0.2-2.9,0.9-3.7,3.7-3.9
			C365.3,363.5,365.8,364,365.8,371.1z"/>
		<path class="st1" d="M86.3,371.3c0-0.5,0-1,0-1.5c0-5.5,3-7.5,8.2-5.7c1.3,0.5,1.9,1.5,2.2,2.7c0.8,3,0.7,6-0.2,9
			c-0.2,0.8-0.7,1.8-1.6,1.8c-2.4,0.2-4.8,0.3-7.3,0.3c-1,0-1.3-1.1-1.3-1.9c-0.1-1.6,0-3.2,0-4.7C86.4,371.3,86.4,371.3,86.3,371.3
			z"/>
		<path class="st1" d="M670.7,371.1c0,1.6,0.1,3.2,0,4.7c-0.1,1.5-0.9,2.2-2.4,2.1c-1.5-0.1-2.9,0-4.4-0.1c-2.5-0.2-3.5-1.1-3.4-3.7
			c0.1-2.3,0.3-4.6-0.3-6.9c-0.4-1.6,0.7-2.5,2-3.1c0.3-0.1,0.7-0.2,1.1-0.2C669.9,363,670.8,363.8,670.7,371.1z"/>
	</g>
</g>
</svg>
