<?xml version="1.0" encoding="utf-8"?>
<!-- Generator: Adobe Illustrator 22.1.0, SVG Export Plug-In . SVG Version: 6.00 Build 0)  -->
<svg version="1.1" id="Camada_1" xmlns="http://www.w3.org/2000/svg" xmlns:xlink="http://www.w3.org/1999/xlink" x="0px" y="0px"
	 viewBox="0 0 817.1 126.3" style="enable-background:new 0 0 817.1 126.3;" xml:space="preserve">
<style type="text/css">
	.st0{fill:#6A0100;}
	.st1{fill:none;stroke:#6A0100;stroke-width:3;stroke-miterlimit:10;}
</style>
<g>
	<g>
		<path class="st0" d="M57.9,36.4c-1.6-2.6-3.7-4.5-6.3-5.7c-2.6-1.2-5.5-1.8-8.5-1.8c-1.5,0-3.2,0.2-5.1,0.7
			c-1.9,0.5-3.6,1.2-5.1,2.2c-1.6,1-2.9,2.4-3.9,4c-1,1.7-1.6,3.7-1.6,6.2c0,3.1,1.1,5.4,3.2,7.1c2.1,1.7,5,3.2,8.6,4.6
			c7.5,2.7,13.2,6,17.3,9.8c4,3.8,6,9,6,15.5c0,4.9-1,9.1-2.9,12.6c-1.9,3.5-4.5,6.3-7.6,8.4c-3.1,2.2-6.7,3.8-10.6,4.8
			c-3.9,1-7.9,1.5-11.9,1.5c-2.8,0-5.7-0.3-8.5-0.8c-2.9-0.6-5.6-1.4-8.1-2.5c-2.6-1.1-5-2.6-7.2-4.3C3.4,97,1.5,94.9,0,92.5
			l12.1-8.3c1.6,2.8,4,5.1,7.3,6.9c3.3,1.8,6.9,2.7,10.8,2.7c2,0,4-0.2,6-0.7c2-0.5,3.7-1.3,5.3-2.4c1.6-1.1,2.9-2.5,3.9-4.2
			c1-1.7,1.5-3.9,1.5-6.5c0-1.9-0.4-3.6-1.3-5.1c-0.8-1.5-2-2.8-3.4-3.9c-1.4-1.1-3-2.1-4.9-3c-1.9-0.9-3.8-1.7-5.9-2.4
			c-2.6-1-5-2.1-7.3-3.3c-2.3-1.2-4.3-2.7-6.1-4.4c-1.8-1.7-3.2-3.8-4.2-6.2c-1-2.4-1.5-5.3-1.5-8.6c0-4.3,0.9-8,2.7-11.3
			c1.8-3.3,4.2-6.1,7.2-8.3c3-2.3,6.4-4,10.3-5.1c3.9-1.2,7.9-1.8,12.1-1.8c2.2,0,4.4,0.2,6.7,0.7c2.3,0.5,4.5,1.2,6.6,2.1
			c2.1,0.9,4.1,2.1,6,3.4c1.9,1.4,3.5,3,4.8,4.8L57.9,36.4z"/>
		<path class="st0" d="M108.2,93.3c3.1-0.1,5.9-0.4,8.4-0.8c2.5-0.5,4.8-1.3,7.2-2.4l3.7-21.7h-18.3l2.4-12.8h32.7l-7.6,44.1
			c-4.3,2.1-9.1,3.7-14.4,4.9c-5.4,1.2-10.8,1.8-16.2,1.8c-6,0-11.4-0.9-16.2-2.7c-4.9-1.8-9-4.3-12.4-7.5c-3.4-3.2-6.1-7.1-8-11.6
			c-1.9-4.5-2.8-9.5-2.8-15c0-7.4,1.3-14.3,3.9-20.8c2.6-6.4,6.1-12,10.7-16.8c4.5-4.8,9.9-8.6,16-11.3c6.1-2.8,12.7-4.2,19.8-4.2
			c6.3,0,12.1,1.1,17.4,3.2c5.4,2.1,9.6,5.4,12.9,9.8l-11.7,8.8c-1.9-2.6-4.3-4.7-7.4-6.5c-3.1-1.7-7-2.6-11.6-2.6
			c-5.1,0-9.7,1.1-13.9,3.3c-4.2,2.2-7.8,5.1-10.9,8.7c-3,3.6-5.4,7.7-7.1,12.3c-1.7,4.6-2.5,9.3-2.5,14.1c0,3.7,0.6,7.1,1.8,10.3
			c1.2,3.1,2.9,5.8,5.1,8.1c2.3,2.3,5,4,8.3,5.3C100.4,92.7,104,93.3,108.2,93.3z"/>
		<path class="st0" d="M143.4,104.2l15.1-85.5h53.8l-2.3,13h-39.3l-3.9,22.1h37.5l-2.3,12.6h-37.4l-4.3,24.5H203l-2.3,13.3H143.4z"
			/>
		<path class="st0" d="M219.3,18.7h29.2c4.8,0,9.6,0.7,14.4,2c4.7,1.3,9,3.4,12.8,6.3c3.8,2.9,6.8,6.6,9.2,11.1
			c2.3,4.5,3.5,10,3.5,16.4c0,7.5-1.3,14.3-3.9,20.4c-2.6,6.1-6.3,11.3-10.9,15.7c-4.7,4.3-10.2,7.7-16.5,10.1
			c-6.4,2.4-13.3,3.6-20.8,3.6h-32L219.3,18.7z M221.2,91.2h15.6c6,0,11.2-1,15.7-2.9c4.5-1.9,8.3-4.5,11.3-7.8
			c3-3.3,5.3-6.9,6.8-11.1c1.5-4.1,2.3-8.5,2.3-13c0-3.4-0.6-6.6-1.7-9.6c-1.1-3.1-2.8-5.7-5.1-8c-2.3-2.2-5.2-4-8.7-5.4
			c-3.5-1.3-7.7-2-12.5-2h-13.2L221.2,91.2z"/>
	</g>
	<g>
		<path class="st0" d="M386.6,32.1h16.6c6.1,0,10.8,1.3,14.1,4c3.3,2.6,5,6.3,5,11c0,3-0.6,5.7-1.8,8c-1.2,2.3-2.8,4.2-4.9,5.8
			c-2.1,1.6-4.6,2.7-7.5,3.5c-2.9,0.8-6.1,1.1-9.5,1.1H387l-5.1,28.9h-6.2L386.6,32.1z M387.9,60.2h11.4c5.3,0,9.4-1.1,12.3-3.2
			c3-2.1,4.4-5.2,4.4-9.3c0-3.8-1.2-6.5-3.6-8c-2.4-1.5-5.7-2.3-9.7-2.3h-10.8L387.9,60.2z"/>
		<path class="st0" d="M425.4,94.3h-6l11.7-66.4h6L425.4,94.3z"/>
		<path class="st0" d="M463.1,69.1c0.2-1,0.3-1.8,0.4-2.3c0.1-0.6,0.1-1.1,0.1-1.5c0-3-0.8-5.1-2.5-6.3c-1.7-1.2-4.1-1.8-7.1-1.8
			c-2.5,0-4.8,0.5-7.1,1.4c-2.3,1-4.2,2.1-5.7,3.5l-2.6-4c2-1.8,4.4-3.2,7.4-4.3c2.9-1.1,5.8-1.6,8.7-1.6c1.9,0,3.8,0.2,5.6,0.7
			c1.8,0.4,3.3,1.1,4.7,2.1c1.3,1,2.4,2.2,3.2,3.7c0.8,1.5,1.2,3.3,1.2,5.4c0,0.5,0,1.2-0.1,2.2c-0.1,0.9-0.1,1.7-0.3,2.2l-3,16.7
			c-0.3,1.6-0.5,3.2-0.7,4.9c-0.2,1.7-0.3,3.1-0.3,4.3h-5.3c0-1,0-2.1,0.1-3.3c0.1-1.2,0.2-2.3,0.4-3.4h-0.2
			c-1.2,1.3-2.3,2.5-3.5,3.5c-1.2,1-2.4,1.7-3.6,2.3c-1.3,0.6-2.6,1-4,1.3c-1.4,0.3-3,0.4-4.7,0.4c-1.4,0-2.8-0.2-4.3-0.5
			c-1.5-0.4-2.8-1-4-1.8c-1.2-0.8-2.2-1.9-3-3.3c-0.8-1.3-1.2-3-1.2-5c0-3.3,0.9-5.9,2.8-7.9c1.9-2,4.3-3.6,7.3-4.7
			c3-1.1,6.4-1.8,10.1-2.2C455.5,69.3,459.2,69.1,463.1,69.1z M460.9,73.6c-2.6,0-5.3,0.1-8.1,0.4c-2.8,0.3-5.3,0.8-7.5,1.5
			c-2.3,0.7-4.1,1.8-5.5,3.1c-1.4,1.3-2.2,3.1-2.2,5.2c0,1.3,0.2,2.4,0.7,3.2c0.5,0.9,1.1,1.5,1.9,2c0.8,0.5,1.7,0.9,2.7,1.1
			c1,0.2,2.1,0.3,3.1,0.3c2.1,0,4-0.4,5.8-1.1c1.8-0.7,3.3-1.7,4.7-2.9c1.3-1.2,2.5-2.6,3.3-4.3c0.9-1.6,1.5-3.3,1.8-5.1l0.6-3.4
			H460.9z"/>
		<path class="st0" d="M481.6,53.2c-0.1,1.1-0.3,2.3-0.4,3.7c-0.2,1.3-0.4,2.5-0.5,3.3h0.2c1.6-2.5,3.6-4.5,6.1-5.9
			c2.5-1.4,5.2-2.2,8-2.2c4.5,0,7.9,1.1,10.4,3.4c2.5,2.3,3.7,5.3,3.7,9.2c0,0.7,0,1.4-0.1,2.1c-0.1,0.7-0.2,1.5-0.3,2.3l-4.5,25.2
			h-5.9l4-22.7c0.4-1.8,0.5-3.5,0.5-5.2c0-2.9-0.7-5.1-2-6.8c-1.3-1.7-3.7-2.5-7.1-2.5c-1.6,0-3.2,0.3-4.7,1c-1.6,0.6-3.1,1.6-4.4,3
			c-1.4,1.3-2.6,3-3.6,5.1c-1.1,2-1.8,4.4-2.3,7.2l-3.7,21.1h-5.9l5.6-32.1c0.2-1.1,0.5-2.5,0.7-4.3c0.3-1.8,0.5-3.3,0.6-4.7H481.6z
			"/>
		<path class="st0" d="M516.8,75.3c-0.1,0.4-0.1,0.7-0.1,1c0,0.3,0,0.6,0,0.9c0,1.9,0.3,3.7,1,5.3c0.7,1.6,1.6,3,2.8,4.2
			c1.2,1.2,2.6,2.1,4.2,2.7c1.6,0.6,3.4,1,5.2,1c3.2,0,6-0.7,8.4-2.2c2.4-1.4,4.3-3.1,5.8-5.1l3.7,3.5c-2.4,2.9-5.2,5-8.3,6.5
			c-3.2,1.4-6.5,2.2-10.1,2.2c-2.6,0-5.1-0.4-7.4-1.2c-2.3-0.8-4.3-2-5.9-3.5c-1.7-1.5-3-3.4-4-5.7c-1-2.3-1.4-4.8-1.4-7.7
			c0-3.3,0.6-6.5,1.8-9.6c1.2-3,2.9-5.7,5.1-8c2.1-2.3,4.7-4.1,7.6-5.5c2.9-1.4,6-2.1,9.4-2.1c5.6,0,9.9,1.5,12.8,4.5
			c2.9,3,4.3,6.9,4.3,11.6c0,0.7-0.1,1.8-0.2,3.2c-0.1,1.4-0.3,2.7-0.6,3.9H516.8z M545.5,70.9c0.1-0.5,0.1-1,0.1-1.5
			c0-0.6,0-1.1,0-1.5c0-3.2-1-5.8-2.9-7.8c-1.9-2-4.8-3-8.5-3c-2.2,0-4.2,0.4-6,1.1c-1.8,0.7-3.5,1.7-4.9,3
			c-1.4,1.3-2.7,2.8-3.6,4.4c-1,1.7-1.7,3.4-2.1,5.3H545.5z"/>
		<path class="st0" d="M541.7,109.7c0.5,0.2,1.1,0.3,1.8,0.4c0.7,0.1,1.3,0.1,1.9,0.1c1.2,0,2.3-0.2,3.1-0.7c0.8-0.4,1.5-1,2-1.8
			c0.5-0.8,0.9-1.7,1.2-2.8c0.3-1.1,0.6-2.3,0.8-3.6l8.5-48.3h5.9l-8.7,49.3c-0.3,1.6-0.7,3.2-1.2,4.8c-0.5,1.6-1.2,2.9-2.2,4.1
			c-0.9,1.2-2.2,2.2-3.7,2.9c-1.5,0.7-3.5,1.1-5.8,1.1c-0.6,0-1.4,0-2.4-0.1c-1-0.1-1.8-0.2-2.5-0.5L541.7,109.7z M570.3,37.3
			c0,1.2-0.4,2.2-1.2,3c-0.8,0.8-1.8,1.2-2.9,1.2c-1.1,0-2.1-0.4-2.9-1.1c-0.8-0.7-1.2-1.7-1.2-2.9c0-1.2,0.4-2.3,1.3-3.1
			c0.8-0.8,1.8-1.2,2.9-1.2c1.1,0,2,0.4,2.8,1.1C569.9,35.1,570.3,36.1,570.3,37.3z"/>
		<path class="st0" d="M597.3,69.1c0.2-1,0.3-1.8,0.4-2.3c0.1-0.6,0.1-1.1,0.1-1.5c0-3-0.8-5.1-2.5-6.3c-1.7-1.2-4.1-1.8-7.1-1.8
			c-2.5,0-4.8,0.5-7.1,1.4c-2.3,1-4.2,2.1-5.7,3.5l-2.6-4c2-1.8,4.4-3.2,7.4-4.3c2.9-1.1,5.8-1.6,8.7-1.6c1.9,0,3.8,0.2,5.6,0.7
			c1.8,0.4,3.3,1.1,4.7,2.1c1.3,1,2.4,2.2,3.2,3.7c0.8,1.5,1.2,3.3,1.2,5.4c0,0.5,0,1.2-0.1,2.2c-0.1,0.9-0.1,1.7-0.3,2.2l-3,16.7
			c-0.3,1.6-0.5,3.2-0.7,4.9c-0.2,1.7-0.3,3.1-0.3,4.3h-5.3c0-1,0-2.1,0.1-3.3c0.1-1.2,0.2-2.3,0.4-3.4H594
			c-1.2,1.3-2.3,2.5-3.5,3.5c-1.2,1-2.4,1.7-3.6,2.3c-1.3,0.6-2.6,1-4,1.3c-1.4,0.3-3,0.4-4.7,0.4c-1.4,0-2.8-0.2-4.3-0.5
			c-1.5-0.4-2.8-1-4-1.8c-1.2-0.8-2.2-1.9-3-3.3c-0.8-1.3-1.2-3-1.2-5c0-3.3,0.9-5.9,2.8-7.9c1.9-2,4.3-3.6,7.3-4.7
			c3-1.1,6.4-1.8,10.1-2.2C589.7,69.3,593.5,69.1,597.3,69.1z M595.1,73.6c-2.6,0-5.3,0.1-8.1,0.4c-2.8,0.3-5.3,0.8-7.5,1.5
			c-2.3,0.7-4.1,1.8-5.5,3.1c-1.4,1.3-2.2,3.1-2.2,5.2c0,1.3,0.2,2.4,0.7,3.2c0.5,0.9,1.1,1.5,1.9,2c0.8,0.5,1.7,0.9,2.7,1.1
			c1,0.2,2.1,0.3,3.1,0.3c2.1,0,4-0.4,5.8-1.1c1.8-0.7,3.3-1.7,4.7-2.9c1.3-1.2,2.5-2.6,3.3-4.3c0.9-1.6,1.5-3.3,1.8-5.1l0.6-3.4
			H595.1z"/>
		<path class="st0" d="M655.2,52.1c4.5,0,7.9,1.1,10.4,3.4c2.5,2.3,3.7,5.3,3.7,9.2c0,0.7,0,1.4-0.1,2.1c-0.1,0.7-0.2,1.5-0.3,2.3
			l-4.5,25.2h-5.9l4-22.7c0.4-1.8,0.5-3.5,0.5-5.2c0-2.9-0.7-5.1-2-6.8c-1.3-1.7-3.7-2.5-7.1-2.5c-2.2,0-4,0.4-5.6,1.3
			c-1.6,0.9-2.9,2.1-4,3.5c-1.1,1.5-1.9,3.1-2.5,4.9c-0.6,1.8-1.1,3.7-1.4,5.6l-3.9,21.9h-5.9l4.3-23.9c0.4-1.9,0.5-3.7,0.5-5.4
			c0-2.5-0.6-4.4-1.8-5.8c-1.2-1.4-3.3-2.2-6.4-2.2c-1.4,0-2.9,0.3-4.4,1c-1.5,0.6-3,1.6-4.3,3c-1.3,1.3-2.5,3-3.6,5.1
			c-1.1,2-1.8,4.4-2.3,7.2L609,94.3h-5.9l5.6-32.1c0.2-1.1,0.5-2.5,0.7-4.3c0.3-1.8,0.5-3.3,0.6-4.7h5.6c-0.1,1.1-0.3,2.3-0.4,3.7
			c-0.2,1.3-0.4,2.5-0.5,3.3h0.2c1.7-2.5,3.8-4.5,6.2-5.9c2.4-1.4,5.1-2.2,8.1-2.2c1.1,0,2.3,0.1,3.5,0.4c1.2,0.2,2.3,0.7,3.4,1.4
			c1.1,0.7,2,1.6,2.9,2.7c0.8,1.1,1.4,2.5,1.8,4.3c1.6-2.8,3.6-5,6.1-6.5C649.2,52.9,652,52.1,655.2,52.1z"/>
		<path class="st0" d="M677.1,75.3c-0.1,0.4-0.1,0.7-0.1,1c0,0.3,0,0.6,0,0.9c0,1.9,0.3,3.7,1,5.3c0.7,1.6,1.6,3,2.8,4.2
			c1.2,1.2,2.6,2.1,4.2,2.7c1.6,0.6,3.4,1,5.2,1c3.2,0,6-0.7,8.4-2.2c2.4-1.4,4.3-3.1,5.8-5.1l3.7,3.5c-2.4,2.9-5.2,5-8.3,6.5
			c-3.2,1.4-6.5,2.2-10.1,2.2c-2.6,0-5.1-0.4-7.4-1.2c-2.3-0.8-4.3-2-5.9-3.5c-1.7-1.5-3-3.4-4-5.7c-1-2.3-1.4-4.8-1.4-7.7
			c0-3.3,0.6-6.5,1.8-9.6c1.2-3,2.9-5.7,5.1-8c2.1-2.3,4.7-4.1,7.6-5.5c2.9-1.4,6-2.1,9.4-2.1c5.6,0,9.9,1.5,12.8,4.5
			c2.9,3,4.3,6.9,4.3,11.6c0,0.7-0.1,1.8-0.2,3.2c-0.1,1.4-0.3,2.7-0.6,3.9H677.1z M705.8,70.9c0.1-0.5,0.1-1,0.1-1.5
			c0-0.6,0-1.1,0-1.5c0-3.2-1-5.8-2.9-7.8c-1.9-2-4.8-3-8.5-3c-2.2,0-4.2,0.4-6,1.1c-1.8,0.7-3.5,1.7-4.9,3
			c-1.4,1.3-2.7,2.8-3.6,4.4c-1,1.7-1.7,3.4-2.1,5.3H705.8z"/>
		<path class="st0" d="M724.7,53.2c-0.1,1.1-0.3,2.3-0.4,3.7c-0.2,1.3-0.4,2.5-0.5,3.3h0.2c1.6-2.5,3.6-4.5,6.1-5.9
			c2.5-1.4,5.2-2.2,8-2.2c4.5,0,7.9,1.1,10.4,3.4c2.5,2.3,3.7,5.3,3.7,9.2c0,0.7,0,1.4-0.1,2.1c-0.1,0.7-0.2,1.5-0.3,2.3l-4.5,25.2
			h-5.9l4-22.7c0.4-1.8,0.5-3.5,0.5-5.2c0-2.9-0.7-5.1-2-6.8c-1.3-1.7-3.7-2.5-7.1-2.5c-1.6,0-3.2,0.3-4.7,1c-1.6,0.6-3.1,1.6-4.4,3
			c-1.4,1.3-2.6,3-3.6,5.1c-1.1,2-1.8,4.4-2.3,7.2l-3.7,21.1h-5.9l5.6-32.1c0.2-1.1,0.5-2.5,0.7-4.3c0.3-1.8,0.5-3.3,0.6-4.7H724.7z
			"/>
		<path class="st0" d="M779.2,58.1H768l-4.3,24.1c-0.2,1.1-0.3,2-0.3,2.8c0,1.9,0.5,3.2,1.4,3.9c0.9,0.6,2.2,1,3.7,1
			c0.8,0,1.7-0.1,2.7-0.4c1-0.2,1.8-0.6,2.3-1l-0.7,5.1c-0.8,0.4-1.7,0.7-2.9,0.9c-1.2,0.2-2.5,0.3-3.8,0.3c-1,0-2-0.1-3-0.4
			c-1-0.2-2-0.7-2.8-1.3c-0.9-0.6-1.6-1.4-2.1-2.5c-0.6-1.1-0.8-2.4-0.8-4c0-0.8,0.1-1.8,0.3-2.8l4.6-25.7h-8.5l1-4.9h8.3l2-11.6
			h5.9l-2,11.6h11.3L779.2,58.1z"/>
		<path class="st0" d="M792.7,95.3c-2.8,0-5.3-0.4-7.6-1.3c-2.3-0.9-4.3-2.1-6-3.6c-1.7-1.6-3-3.4-3.9-5.6c-0.9-2.2-1.4-4.6-1.4-7.2
			c0-3.5,0.6-6.7,1.8-9.8c1.2-3.1,2.9-5.8,5.1-8.1c2.2-2.3,4.7-4.1,7.7-5.5c3-1.3,6.3-2,9.8-2c2.8,0,5.4,0.4,7.7,1.3
			c2.3,0.8,4.3,2.1,6,3.6c1.7,1.6,3,3.5,3.9,5.6c0.9,2.2,1.4,4.6,1.4,7.2c0,3.5-0.6,6.8-1.8,9.9c-1.2,3.1-2.9,5.8-5.1,8.1
			c-2.2,2.3-4.7,4.1-7.7,5.4C799.5,94.7,796.3,95.3,792.7,95.3z M811,70.3c0-1.9-0.3-3.6-0.9-5.2c-0.6-1.6-1.4-3-2.6-4.2
			c-1.1-1.2-2.5-2.1-4.2-2.8c-1.6-0.7-3.5-1-5.5-1c-2.6,0-4.9,0.5-7.1,1.6c-2.2,1.1-4,2.6-5.6,4.4c-1.6,1.8-2.8,4-3.7,6.4
			c-0.9,2.4-1.4,5-1.4,7.7c0,1.9,0.3,3.6,0.9,5.2c0.6,1.6,1.4,3,2.6,4.2c1.1,1.2,2.5,2.1,4.1,2.8c1.6,0.7,3.4,1,5.5,1
			c2.6,0,5-0.5,7.2-1.6c2.2-1.1,4.1-2.5,5.6-4.4c1.6-1.8,2.8-3.9,3.7-6.4C810.5,75.6,811,73,811,70.3z"/>
	</g>
	<line class="st1" x1="336.8" y1="0" x2="336.8" y2="126.3"/>
</g>
</svg>
