<?xml version="1.0" encoding="iso-8859-1"?>
<!-- Generator: Adobe Illustrator 19.0.0, SVG Export Plug-In . SVG Version: 6.00 Build 0)  -->
<svg version="1.1" id="Capa_1" xmlns="http://www.w3.org/2000/svg" xmlns:xlink="http://www.w3.org/1999/xlink" x="0px" y="0px"
	 viewBox="0 0 512 512" style="enable-background:new 0 0 512 512;" xml:space="preserve">
<path style="fill:#B4EBFF;" d="M256,0c141.385,0,256,114.615,256,256S397.385,512,256,512S0,397.385,0,256S114.615,0,256,0z"/>
<path style="fill:#F7D139;" d="M512,256c0,17.928-1.851,35.423-5.357,52.311H360v-5c0,2.761-2.239,5-5,5H180v-5c0,2.761-2.239,5-5,5
	H5.357c-3.246-15.632-5.052-31.788-5.306-48.322L0,260V130.556c0-1.429,0.611-2.788,1.678-3.737l85-75.556
	c1.894-1.684,4.749-1.684,6.644,0l49.855,44.316l35.145,31.239c1.023,0.91,1.62,2.197,1.669,3.56
	c0.002,0.06,0.009,0.118,0.009,0.178c0-1.429,0.611-2.788,1.678-3.737l85-75.555c1.894-1.684,4.749-1.684,6.644,0l85,75.555
	c1.068,0.949,1.678,2.309,1.678,3.737c0-1.429,0.611-2.788,1.678-3.737l67.136-59.676C479.936,113.946,512,181.227,512,256z"/>
<path style="fill:#D49B00;" d="M443.842,82.095L360,156.621v-26.065c0-1.428,0.611-2.788,1.678-3.737l67.136-59.676
	C434.029,71.916,439.038,76.908,443.842,82.095z"/>
<path style="fill:#5AC3A5;" d="M360,130.556v172.755c0,2.761-2.239,5-5,5H180v-5c0,2.761-2.239,5-5,5H5.357
	c-3.246-15.632-5.052-31.788-5.306-48.322L0,260V130.556c0-1.429,0.611-2.788,1.678-3.737l85-75.556
	c1.894-1.684,4.749-1.684,6.644,0l49.855,44.316l35.145,31.239c1.023,0.91,1.62,2.197,1.669,3.56
	c0.002,0.06,0.009,0.118,0.009,0.178l0,0c0-1.429,0.611-2.788,1.678-3.737l85-75.555c1.894-1.684,4.749-1.684,6.644,0l85,75.555
	C359.389,127.768,360,129.127,360,130.556z"/>
<path style="fill:#1E9682;" d="M360,130.556v26.065l-86.678-77.048c-1.894-1.684-4.749-1.684-6.644,0L180,156.621l0,0L93.322,79.573
	c-1.894-1.684-4.749-1.684-6.644,0L0,156.621v-26.065c0-1.428,0.611-2.788,1.678-3.737l85-75.555c1.894-1.685,4.749-1.685,6.644,0
	l85,75.555c1.067,0.949,1.678,2.31,1.678,3.737l0,0c0-1.428,0.611-2.788,1.678-3.737l85-75.555c1.894-1.685,4.749-1.685,6.644,0
	l85,75.555C359.389,127.768,360,129.128,360,130.556z"/>
<path style="fill:#FF640A;" d="M181.678,126.819l85-75.556c1.894-1.684,4.749-1.684,6.644,0l85,75.556
	c1.067,0.949,1.678,2.309,1.678,3.737V303.31c0,2.761-2.239,5-5,5H180V130.556C180,129.128,180.611,127.768,181.678,126.819z"/>
<path style="fill:#C8461E;" d="M181.678,126.818l85-75.555c1.894-1.685,4.749-1.685,6.644,0l85,75.555
	c1.067,0.949,1.678,2.31,1.678,3.737v26.065l-86.678-77.048c-1.894-1.684-4.749-1.684-6.644,0L180,156.621v-26.065
	C180,129.128,180.611,127.768,181.678,126.818z"/>
<path style="fill:#FFE13C;" d="M335,153.311v30c0,2.762-2.239,5-5,5h-20c-2.761,0-5-2.238-5-5v-30c0-2.762,2.239-5,5-5h20
	C332.762,148.311,335,150.549,335,153.311z M280,148.311h-20c-2.761,0-5,2.238-5,5v30c0,2.762,2.239,5,5,5h20c2.761,0,5-2.238,5-5
	v-30C285,150.549,282.762,148.311,280,148.311z M230,148.311h-20c-2.761,0-5,2.238-5,5v30c0,2.762,2.239,5,5,5h20
	c2.761,0,5-2.238,5-5v-30C235,150.549,232.762,148.311,230,148.311z M330,208.311h-20c-2.761,0-5,2.238-5,5v30c0,2.762,2.239,5,5,5
	h20c2.761,0,5-2.238,5-5v-30C335,210.549,332.762,208.311,330,208.311z M280,208.311h-20c-2.761,0-5,2.238-5,5v30
	c0,2.762,2.239,5,5,5h20c2.761,0,5-2.238,5-5v-30C285,210.549,282.762,208.311,280,208.311z M230,208.311h-20c-2.761,0-5,2.238-5,5
	v30c0,2.762,2.239,5,5,5h20c2.761,0,5-2.238,5-5v-30C235,210.549,232.762,208.311,230,208.311z"/>
<g>
	<path style="fill:#2D5A5F;" d="M485,183.311v-30c0-2.208,1.44-4.06,3.425-4.723c5.884,12.712,10.755,25.986,14.511,39.723H490
		C487.239,188.311,485,186.072,485,183.311z M410,148.311h-20c-2.761,0-5,2.238-5,5v30c0,2.762,2.239,5,5,5h20c2.761,0,5-2.238,5-5
		v-30C415,150.549,412.762,148.311,410,148.311z M460,148.311h-20c-2.761,0-5,2.238-5,5v30c0,2.762,2.239,5,5,5h20
		c2.761,0,5-2.238,5-5v-30C465,150.549,462.762,148.311,460,148.311z M410,208.311h-20c-2.761,0-5,2.238-5,5v30c0,2.762,2.239,5,5,5
		h20c2.761,0,5-2.238,5-5v-30C415,210.549,412.762,208.311,410,208.311z M507.547,208.311H490c-2.761,0-5,2.238-5,5v30
		c0,2.762,2.239,5,5,5h20c0.659,0,1.285-0.135,1.861-0.366C511.444,234.443,509.977,221.207,507.547,208.311z M460,208.311h-20
		c-2.761,0-5,2.238-5,5v30c0,2.762,2.239,5,5,5h20c2.761,0,5-2.238,5-5v-30C465,210.549,462.762,208.311,460,208.311z M150,148.311
		h-20c-2.761,0-5,2.238-5,5v30c0,2.762,2.239,5,5,5h20c2.761,0,5-2.238,5-5v-30C155,150.549,152.762,148.311,150,148.311z
		 M100,148.311H80c-2.761,0-5,2.238-5,5v30c0,2.762,2.239,5,5,5h20c2.761,0,5-2.238,5-5v-30
		C105,150.549,102.762,148.311,100,148.311z M50,148.311H30c-2.761,0-5,2.238-5,5v30c0,2.762,2.239,5,5,5h20c2.761,0,5-2.238,5-5
		v-30C55,150.549,52.762,148.311,50,148.311z M150,208.311h-20c-2.761,0-5,2.238-5,5v30c0,2.762,2.239,5,5,5h20c2.761,0,5-2.238,5-5
		v-30C155,210.549,152.762,208.311,150,208.311z M100,208.311H80c-2.761,0-5,2.238-5,5v30c0,2.762,2.239,5,5,5h20
		c2.761,0,5-2.238,5-5v-30C105,210.549,102.762,208.311,100,208.311z M50,208.311H30c-2.761,0-5,2.238-5,5v30c0,2.762,2.239,5,5,5
		h20c2.761,0,5-2.238,5-5v-30C55,210.549,52.762,208.311,50,208.311z"/>
	<path style="fill:#2D5A5F;" d="M364.001,213.5v100h-10v-100H364.001z M175.501,313.5h10v-100h-10V313.5z"/>
</g>
<path style="fill:#FFFF91;" d="M374.001,208.5c0,8.284-6.716,15-15,15s-15-6.716-15-15s6.716-15,15-15
	C367.286,193.5,374.001,200.216,374.001,208.5z M180.501,193.5c-8.284,0-15,6.716-15,15s6.716,15,15,15s15-6.716,15-15
	S188.786,193.5,180.501,193.5z"/>
<path style="fill:#C99C47;" d="M510.872,280C498.77,410.129,389.29,512,256,512S13.23,410.129,1.129,280H510.872z"/>
<path style="fill:#EDC85F;" d="M449.736,423.311H243.473l79.759,79.759C301.807,508.887,279.268,512,256,512
	C122.71,512,13.23,410.129,1.129,280h99.034l133.571,133.571l100.642-100.643c1.875-1.875,4.419-2.929,7.071-2.929h164.828
	C497.107,352.698,477.283,391.435,449.736,423.311z"/>
<path style="fill:#FFE67D;" d="M485.249,370C443.32,454.169,356.423,512,256,512S68.681,454.169,26.751,370H485.249z"/>
<path style="fill:#6CD0F5;" d="M55.546,409.091c11.601,0,22.16-4.44,30.085-11.707c1.871-1.716,4.778-1.716,6.649,0
	c7.925,7.267,18.484,11.707,30.085,11.707s22.159-4.44,30.085-11.707c1.871-1.716,4.778-1.716,6.649,0
	c7.925,7.267,18.484,11.707,30.085,11.707s22.159-4.44,30.085-11.707c1.871-1.716,4.778-1.716,6.649,0
	c7.925,7.267,18.484,11.707,30.085,11.707s22.159-4.44,30.085-11.707c1.871-1.716,4.778-1.716,6.649,0
	c7.925,7.267,18.484,11.707,30.085,11.707c11.601,0,22.16-4.44,30.085-11.707c1.871-1.716,4.778-1.716,6.649,0
	c7.925,7.267,18.484,11.707,30.085,11.707c11.601,0,22.16-4.44,30.085-11.707c1.871-1.716,4.778-1.716,6.649,0
	c7.925,7.267,18.484,11.707,30.085,11.707c1.666,0,3.309-0.099,4.927-0.277C414.716,471.435,340.101,512,256,512
	S97.285,471.435,50.618,408.814C52.237,408.992,53.88,409.091,55.546,409.091z"/>
<path style="fill:#4BB9E1;" d="M418.5,427.5c0,2.762-2.239,5-5,5h-30c-2.761,0-5-2.238-5-5s2.239-5,5-5h30
	C416.262,422.5,418.5,424.738,418.5,427.5z M274,432.5h75.5c2.761,0,5-2.238,5-5s-2.239-5-5-5H274c-2.761,0-5,2.238-5,5
	S271.239,432.5,274,432.5z M166.334,422.5H121c-2.761,0-5,2.238-5,5c0,2.761,2.239,5,5,5h45.333c2.761,0,5-2.239,5-5
	C171.334,424.738,169.095,422.5,166.334,422.5z M223,470.833h-45.333c-2.761,0-5,2.238-5,5s2.239,5,5,5H223c2.761,0,5-2.238,5-5
	S225.762,470.833,223,470.833z M371.5,448.5h-30c-2.761,0-5,2.238-5,5s2.239,5,5,5h30c2.761,0,5-2.238,5-5
	S374.262,448.5,371.5,448.5z M286,448.5h-65c-2.761,0-5,2.238-5,5s2.239,5,5,5h65c2.761,0,5-2.238,5-5S288.762,448.5,286,448.5z"/>
<g>
</g>
<g>
</g>
<g>
</g>
<g>
</g>
<g>
</g>
<g>
</g>
<g>
</g>
<g>
</g>
<g>
</g>
<g>
</g>
<g>
</g>
<g>
</g>
<g>
</g>
<g>
</g>
<g>
</g>
</svg>
