<?xml version="1.0" encoding="UTF-8"?>
<!-- Generator: Adobe Illustrator 21.0.0, SVG Export Plug-In . SVG Version: 6.00 Build 0)  -->
<svg version="1.1" id="Camada_1" xmlns="http://www.w3.org/2000/svg" xmlns:xlink="http://www.w3.org/1999/xlink" x="0px" y="0px" viewBox="0 0 1510 434.3" style="enable-background:new 0 0 1510 434.3;" xml:space="preserve">
<style type="text/css">
	.st0{fill:#ED6F21;}
	.st1{fill:#55328A;}
</style>
<g id="XMLID_156_">
	<g id="XMLID_157_">
		<g>
			<path class="st0" d="M40.1,164.7c2.4-13.9,4.2-26.2,5.5-36.9c1.2-10.7,1.8-19,1.8-25c0-2.4,0-4.5,0-6.1c0-1.7-0.1-3.5-0.3-5.5     c7.3-1.3,14.6-2,21.8-2c6.2,0,13.1,0.7,20.8,2c0.4,1.8,0.9,3.9,1.3,6.3s0.7,6.1,0.7,10.9c0,2-0.1,3.9-0.2,5.6     c-0.1,1.8-0.4,4-0.8,6.6c5.1-9.5,12.8-17.4,23.2-23.8s22.2-9.6,35.4-9.6c15.4,0,27.3,5.3,35.6,15.9s12.4,25.9,12.4,46     c0,13.7-2.1,27.4-6.3,41.3s-10.9,26.5-20,37.7c-9.2,11.2-21,20.4-35.6,27.5c-14.6,7.1-32.3,10.6-53.2,10.6     c-3.8,0-6.6-0.1-8.4-0.3c-1.9-0.2-3.4-0.4-4.5-0.7l-13.2,75.1c-4.4,0.9-8.6,1.4-12.6,1.7c-4,0.2-7.7,0.3-11.2,0.3     c-3.8,0-7.5-0.1-11.2-0.3c-3.8-0.2-7.7-0.8-11.9-1.7L40.1,164.7z M76.1,225.6c1.8,0.7,4,1.1,6.8,1.3c2.8,0.2,5.6,0.3,8.4,0.3     c9.7,0,18-2.3,25-6.8c6.9-4.5,12.7-10.2,17.2-17.2c4.5-6.9,7.8-14.6,9.9-23c2.1-8.4,3.1-16.5,3.1-24.5c0-7.7-1.6-14.4-4.8-20     s-8.7-8.4-16.4-8.4c-10.1,0-18.9,4.3-26.1,12.9s-12.5,22.9-15.8,42.7L76.1,225.6z"/>
			<path class="st0" d="M344.7,188.2c-2.4,13.9-4.2,26.2-5.3,36.9c-1.1,10.7-1.7,19-1.7,25c0,2.4,0,4.5,0,6.1c0,1.6,0.1,3.5,0.3,5.5     c-7.3,1.3-14.4,2-21.5,2c-6.2,0-13-0.7-20.5-2c-0.4-1.8-0.9-3.9-1.3-6.3c-0.4-2.4-0.7-6.1-0.7-10.9c0-2,0-4.1,0-6.3     c0-2.2,0.2-4.7,0.7-7.6c-6.4,10.1-14.6,18.6-24.5,25.5c-9.9,6.8-21.5,10.2-34.7,10.2c-14.6,0-25.5-4.6-32.7-13.9     c-7.2-9.3-10.9-21.5-10.9-36.7c0-16.5,2.5-32.5,7.4-48c5-15.4,12.3-29.1,22.2-41c9.8-11.9,22-21.4,36.5-28.6     c14.6-7.2,31.5-10.7,50.9-10.7c9.7,0,18.7,0.7,27.1,2s16.6,3.2,24.8,5.6L344.7,188.2z M310.6,126.7c-2-0.4-3.9-0.7-5.8-0.8     c-1.9-0.1-3.7-0.2-5.5-0.2c-10.6,0-19.6,2.6-27,7.9s-13.5,11.9-18.4,19.8c-4.9,7.9-8.4,16.5-10.6,25.6c-2.2,9.2-3.3,17.5-3.3,25     c0,16.3,5.4,24.5,16.2,24.5c10.6,0,20.4-6.4,29.4-19.3s15.7-31,19.8-54.4L310.6,126.7z"/>
			<path class="st0" d="M361.9,91.3c8.2-1.3,16.6-2,25.5-2c7.7,0,15.4,0.7,23.2,2l8.9,149.5c8.6-18.1,15.8-33.8,21.7-47.1     c5.8-13.3,10.7-24.8,14.7-34.4s7-17.6,9.1-24s3.7-11.8,4.8-16.2c1.1-4.4,1.8-8.1,2-11.1s0.3-5.8,0.3-8.4c0-2.2-0.1-3.9-0.3-5     c-0.2-1.1-0.4-2.2-0.7-3.3c3.7-0.7,7.7-1.2,11.9-1.5c4.2-0.3,8.5-0.5,12.9-0.5c8.8,0,17.1,0.7,24.8,2c0.7,2,1,4.3,1,6.9     c0,3.8-0.5,7.9-1.5,12.4s-2.2,9-3.6,13.6c-1.4,4.5-3,8.9-4.6,13.1c-1.7,4.2-3.1,7.9-4.5,11.2c-5.7,13.7-13.7,31.1-24,52.4     s-23.4,48.2-39.5,80.9c-6.8,13.7-13.6,24.6-20.2,32.7c-6.6,8.2-13.3,14.3-20.2,18.5c-6.8,4.2-13.7,6.9-20.5,8.1     c-6.8,1.2-13.8,1.8-20.8,1.8c-5.1,0-9.4-0.3-13.1-1c-3.6-0.7-7.7-1.7-12.1-3c0.4-6.4,1.3-12.5,2.6-18.2     c1.3-5.7,3.5-11.2,6.6-16.5c2,0.9,4.4,1.6,7.1,2.1c2.8,0.5,5.1,0.8,7.1,0.8c2.6,0,5.7-0.3,9.3-0.8c3.5-0.6,7.3-2.2,11.4-5     s8.4-6.9,12.9-12.6c4.5-5.6,9.1-13.4,13.7-23.3l1.7-3.6c-2.4,0.4-5.1,0.7-7.9,0.8c-2.9,0.1-5.8,0.2-8.9,0.2c-2.2,0-4.7,0-7.6,0     s-5.4-0.2-7.6-0.7L361.9,91.3z"/>
			<path class="st1" d="M524.6,164.7c2.4-13.9,4.2-26.2,5.5-36.9c1.2-10.7,1.8-19,1.8-25c0-2.4,0-4.5,0-6.1c0-1.7-0.1-3.5-0.3-5.5     c7.3-1.3,14.6-2,21.8-2c3.3,0,6.6,0.2,9.9,0.5c3.3,0.3,6.8,0.8,10.6,1.5c0.4,1.8,0.9,3.9,1.3,6.3c0.4,2.4,0.7,6.1,0.7,10.9     c0,2-0.1,4-0.2,6c-0.1,2-0.4,4.4-0.8,7.3c5.1-9.5,12.6-17.5,22.7-24.1c10-6.6,21.1-9.9,33.2-9.9c11.7,0,20.8,2.6,27.3,7.8     c6.5,5.2,10.4,13.7,11.7,25.6c5.3-9.3,13-17.1,23.1-23.6s21.2-9.8,33.1-9.8c13.2,0,23.3,3.3,30.1,9.8s10.2,17.4,10.2,32.6     c0,7.5-0.8,15.4-2.3,23.8l-19.2,108.5c-8.4,1.3-16.4,2-24.1,2c-7.7,0-15.3-0.7-22.8-2l18.5-104.8c0.9-5.1,1.3-9.8,1.3-14.2     c0-6-1.2-10.1-3.6-12.6c-2.4-2.4-6.2-3.6-11.3-3.6c-3.1,0-6.4,0.8-10.1,2.3c-3.6,1.5-7.3,4.5-11.1,8.9s-7.3,10.5-10.6,18.2     s-6.1,17.8-8.3,30.1l-13.2,75.7c-8.4,1.3-16.4,2-24.1,2c-7.7,0-15.3-0.7-22.8-2l18.5-104.8c0.9-5.1,1.3-9.8,1.3-14.2     c0-6-1.2-10.1-3.6-12.6c-2.4-2.4-6.2-3.6-11.2-3.6c-3.1,0-6.5,0.8-10.3,2.3s-7.5,4.8-11.2,9.8c-3.8,5-7.4,12-10.9,21     s-6.6,20.9-9.3,35.7l-12.2,66.3c-8.6,1.3-16.7,2-24.1,2c-7.7,0-15.3-0.7-22.8-2L524.6,164.7z"/>
			<path class="st1" d="M796.5,91.3c4.2-0.7,8.3-1.2,12.4-1.5c4.1-0.3,8-0.5,11.7-0.5c7.5,0,15.1,0.7,22.8,2l-18.5,104.8     c-0.9,4.4-1.3,8.6-1.3,12.6c0,6.6,1.4,11.2,4.3,13.9c2.9,2.6,6.9,4,12.2,4c3.1,0,6.6-0.8,10.4-2.3c3.9-1.5,7.8-4.8,11.7-9.8     c4-5,7.8-11.9,11.6-20.8c3.7-8.9,6.9-20.9,9.6-35.9l12.2-66.5c8.6-1.3,16.6-2,24.1-2s15.1,0.7,22.8,2l-17.9,97.6     c-2.4,13.9-4.2,26.2-5.5,36.9c-1.2,10.7-1.8,19-1.8,25c0,2.4,0,4.5,0,6.1c0,1.7,0.1,3.5,0.3,5.5c-7.3,1.3-14.6,2-21.8,2     c-6.2,0-13-0.7-20.5-2c-0.4-1.8-0.9-3.9-1.3-6.3c-0.4-2.4-0.7-6.1-0.7-10.9c0-2,0.1-4,0.2-6c0.1-2,0.4-4.4,0.8-7.3     c-2.6,4.6-6,9-9.9,13.2c-4,4.2-8.5,7.8-13.6,10.9c-5.1,3.1-10.5,5.5-16.4,7.3c-5.8,1.8-11.7,2.6-17.7,2.6     c-13.2,0-23.5-3.4-30.9-10.1c-7.4-6.7-11.1-17.9-11.1-33.6c0-3.3,0.2-6.8,0.7-10.6c0.4-3.8,1-7.7,1.7-11.9L796.5,91.3z"/>
			<path class="st1" d="M953.9,164.7c2.4-13.9,4.2-26.2,5.5-36.9c1.2-10.7,1.8-19,1.8-25c0-2.4,0-4.5,0-6.1c0-1.7-0.1-3.5-0.3-5.5     c7.3-1.3,14.6-2,21.8-2c3.3,0,6.6,0.2,9.9,0.5c3.3,0.3,6.8,0.8,10.6,1.5c0.4,1.8,0.9,3.9,1.3,6.3c0.4,2.4,0.7,6.1,0.7,10.9     c0,2-0.1,4-0.2,6c-0.1,2-0.4,4.4-0.8,7.3c2.6-4.6,6-9,9.9-13.2c4-4.2,8.5-7.8,13.6-10.9c5.1-3.1,10.5-5.5,16.4-7.3     c5.8-1.8,11.7-2.6,17.7-2.6c13.2,0,23.5,3.4,30.9,10.1s11.1,17.9,11.1,33.6c0,3.3-0.2,6.8-0.7,10.6c-0.4,3.8-1,7.7-1.7,11.9     l-19.2,108.5c-8.4,1.3-16.4,2-24.1,2s-15.3-0.7-22.8-2l18.5-104.8c0.9-4.4,1.3-8.6,1.3-12.6c0-6.6-1.4-11.2-4.3-13.9     c-2.9-2.6-6.9-4-12.2-4c-3.1,0-6.6,0.8-10.4,2.3c-3.9,1.5-7.8,4.8-11.7,9.8c-4,5-7.8,12-11.6,21s-6.9,20.9-9.6,35.7l-12.2,66.5     c-8.6,1.3-16.7,2-24.1,2c-7.7,0-15.3-0.7-22.8-2L953.9,164.7z"/>
			<path class="st1" d="M1258.5,188.2c-2.4,13.9-4.2,26.2-5.3,36.9c-1.1,10.7-1.7,19-1.7,25c0,2.4,0,4.5,0,6.1     c0,1.6,0.1,3.5,0.3,5.5c-7.3,1.3-14.4,2-21.5,2c-6.2,0-13-0.7-20.5-2c-0.4-1.8-0.9-3.9-1.3-6.3c-0.4-2.4-0.7-6.1-0.7-10.9     c0-2,0.1-4.3,0.2-6.9s0.4-5.4,0.8-8.3c-3.1,5.1-6.8,9.9-11.1,14.4c-4.3,4.5-9,8.4-14.2,11.7c-5.2,3.3-10.8,6-16.7,7.9     c-6,2-12.2,3-18.9,3c-14.6,0-25.5-4.6-32.7-13.9c-7.3-9.3-10.9-21.5-10.9-36.7c0-16.5,2.5-32.5,7.4-48c5-15.4,12.3-29.1,22.2-41     c9.8-11.9,22-21.4,36.5-28.6c14.6-7.2,31.5-10.7,50.9-10.7c1.5,0,3,0.1,4.5,0.2c1.4,0.1,2.7,0.2,3.8,0.2c2.4-13,4.1-24,5.1-33.1     c1-9,1.5-16.5,1.5-22.5c0-2.4-0.1-4.5-0.2-6.1c-0.1-1.7-0.3-3.5-0.5-5.5c3.7-0.7,8-1.2,12.9-1.5c4.8-0.3,9-0.5,12.6-0.5     c6.4,0,13.4,0.7,21.2,2c1.1,3.3,1.7,7.5,1.7,12.6c0,9.7-1.3,21.5-4,35.4L1258.5,188.2z M1223.1,126.7c-2-0.4-3.9-0.7-5.8-0.8     c-1.9-0.1-3.7-0.2-5.5-0.2c-10.6,0-19.6,2.6-27,7.9s-13.5,11.9-18.4,19.8s-8.4,16.5-10.6,25.6c-2.2,9.2-3.3,17.5-3.3,25     c0,16.3,5.4,24.5,16.2,24.5c10.6,0,20.4-6.4,29.4-19.3s15.7-31,19.8-54.4L1223.1,126.7z"/>
			<path class="st1" d="M1301.2,127h-20.8c0-0.7-0.1-1.3-0.2-2s-0.2-1.4-0.2-2.3c0-5.7,0.6-11.1,1.7-16c1.1-5,2.8-10.1,5-15.4h66.8     l-30.1,171c-8.4,1.3-16.3,2-23.8,2c-6.8,0-14.2-0.7-22.2-2L1301.2,127z M1310.8,62.5c-0.2-7.7,0.3-15,1.5-22     c1.2-6.9,3.1-14.3,5.8-22c4-0.9,8.2-1.5,12.6-1.8s8.4-0.5,11.9-0.5s7.4,0.2,11.7,0.5c4.3,0.3,8.3,0.9,12.1,1.8     c0,7.7-0.7,15.1-2,22.2s-3.3,14.3-6,21.8c-4,0.7-8.1,1.1-12.4,1.3c-4.3,0.2-8.2,0.3-11.7,0.3c-3.3,0-7.2-0.1-11.6-0.3     C1318.2,63.6,1314.3,63.2,1310.8,62.5z"/>
			<path class="st1" d="M1395.1,197.4c1.3,10.6,4.8,18.5,10.6,23.6c5.7,5.2,14.1,7.8,25.1,7.8c8.8,0,16.6-0.9,23.3-2.8     c6.7-1.9,13.8-4.4,21.3-7.4c3.5,4.4,5.9,9.8,7.1,16c1.2,6.3,1.8,13,1.8,20c-3.8,1.8-8.1,3.4-13.1,4.8s-10.1,2.6-15.4,3.6     s-10.6,1.8-15.9,2.3s-10,0.8-14.2,0.8c-13.5,0-25-1.7-34.6-5s-17.5-8-23.8-14.1s-10.9-13.4-13.9-22.2c-3-8.7-4.5-18.4-4.5-28.9     c0-13.4,2.3-26.7,6.9-39.7s11.2-24.6,19.7-34.9c8.5-10.2,18.9-18.5,31.1-24.8s26-9.4,41.2-9.4c7.3,0,14.1,0.9,20.3,2.6     c6.3,1.8,11.7,4.5,16.4,8.1c4.6,3.6,8.3,8.1,10.9,13.4s4,11.5,4,18.5c0,9.9-2.3,18.5-6.9,25.8s-10.8,13.4-18.5,18.5     s-16.5,9.2-26.3,12.4c-9.8,3.2-20,5.6-30.6,7.1L1395.1,197.4z M1413.9,163.7c8.4-1.3,15.2-3,20.5-5.1s9.5-4.4,12.6-6.9     s5.2-5.1,6.3-7.8c1.1-2.6,1.7-5.3,1.7-7.9c0-4.2-1.4-7.6-4.1-10.2c-2.8-2.6-6.5-4-11.1-4c-5.7,0-11,1.3-15.7,3.8     s-8.9,5.9-12.4,10.1s-6.6,9-9.1,14.4s-4.5,10.9-5.8,16.4L1413.9,163.7z"/>
		</g>
	</g>
</g>
<g>
	<path class="st1" d="M835.1,273.3c-5.8,1.8-11.7,2.6-17.7,2.6c-10.4,0-19-2.1-25.8-6.3c-35.4,58.9-99.9,98.4-173.5,98.4   c-67.7,0-127.8-33.5-164.5-84.7c-7.5,15.4-16.5,29.9-26.8,43.3c45.9,54.5,114.6,89.2,191.3,89.2c101.1,0,188.3-60.3,227.7-146.8   C842.3,270.8,838.8,272.2,835.1,273.3z"/>
</g>
</svg>