<?xml version="1.0" encoding="utf-8"?>
<!-- Generator: Adobe Illustrator 19.0.0, SVG Export Plug-In . SVG Version: 6.00 Build 0)  -->
<svg version="1.1" id="Camada_1" xmlns="http://www.w3.org/2000/svg" xmlns:xlink="http://www.w3.org/1999/xlink" x="0px" y="0px"
	 viewBox="0 0 202.2 198.5" style="enable-background:new 0 0 202.2 198.5;" xml:space="preserve">
<style type="text/css">
	.st0{fill:#FBF49D;}
	.st1{fill:#231F20;}
	.st2{fill:#FFFFFF;}
	.st3{fill:#B0E1F9;}
	.st4{fill:#9CD2B0;}
	.st5{fill:#EA2A2D;}
	.st6{fill:#11A64E;}
	.st7{fill:#FAED26;}
	.st8{fill:#5B5C5E;}
</style>
<g id="XMLID_1_">
	<path id="XMLID_372_" class="st0" d="M102,8c5.4-6.2,10.4,15,18.5,16.3c8.9,1.4,17.1-13.4,25.2-9.5c7.5,3.6-1.2,18.7,5,24.1
		c5.3,4.6,16-6,21.3-1.4c4.8,4.2-4.8,13.7-1.4,19c3.7,5.6,17.4,1,18.8,7.5C191,71.5,175,75,176.1,82.5c1.4,8.9,18.6,10.2,19.1,19.2
		c0.5,7.1-16.6,5.9-17.1,13c-0.6,8.3,16.9,12.2,14.7,20.2c-2.2,8-16,5.4-22.9,9.9c-7.7,5-13,13-20.4,18.5
		c-4.8,3.5-10.2,6.4-15.8,8.3c-9.9,3.2-20,6-30.4,6.8c-7.9,0.6-16-0.6-23.7-2.6c-7.7-1.9-15.5-4.3-21.9-8.8
		c-8.7-6-14.3-15.6-22.7-22c-6.1-4.7-17.4-3.9-20.5-11c-2.3-5.4,10.4-9.4,9.2-15.2c-1.7-8.3-16.3-11.1-16.3-19.5
		c0-7.5,14.3-8.3,16.4-15.5c1.8-6.1-9.5-12.2-6.6-17.9c3.3-6.6,16.6-3,20.2-9.5c3.9-7.2-8-19.2-1.6-24.5c7-5.7,19.1,8,27,3.6
		c6.5-3.6-1.5-18.6,5.3-21.5c6.8-2.9,14.5,16.4,19.3,10.8L102,8z"/>
	<path id="XMLID_795_" class="st1" d="M99.6,184.2l-2.4,1.5l3.1,3.5l2.7-3.5l-2-1.5L99.6,184.2z M95,181.8l-2.8-1.1l0.2,2.9
		L95,181.8z M107.6,183.4l0.3-2.9l-2.8,1L107.6,183.4z M98.8,177.9l0,5l-2.3,1.4l-1.7-1.5l1.6-1.1l-4.8-1.9l0.4,5.4l1.5-1.3l6.7,7.4
		l6.5-7.7l1.6,1.2l0.5-5.4l-5.3,1.9l1.4,1.2l-1.4,1.6l-1.8-1.3l-0.1-5.1L98.8,177.9z"/>
	<path id="XMLID_367_" class="st2" d="M71.8,161.9c-1.4,2.6-3.9,6.5-5.3,9.2c21.7,9.6,44.3,8.7,66.7,0.9c-1.2-3.5-2.2-6.9-3.3-10.3
		C109.3,168.7,91.3,169.8,71.8,161.9"/>
	<path id="XMLID_791_" class="st1" d="M99.5,178.5c-11.5,0-22.7-2.4-33.2-7l-0.5-0.2l0.2-0.4c0.7-1.3,1.6-2.8,2.5-4.4
		c1-1.7,2.1-3.5,2.8-4.8l0.2-0.4l0.4,0.2c9.1,3.7,18,5.5,27.2,5.5c9.4,0,19.3-1.9,30.5-5.7l0.4-0.2l0.1,0.5c1,3.3,2.1,6.8,3.3,10.3
		l0.1,0.4l-0.4,0.2C121.6,176.5,110.3,178.5,99.5,178.5 M67.1,170.9c10.2,4.5,21.1,6.7,32.4,6.7c10.5,0,21.7-2,33.1-5.9
		c-1.1-3.2-2-6.4-3-9.4c-11.1,3.8-21.1,5.6-30.4,5.6c-9.2,0-18.1-1.8-27.2-5.4c-0.7,1.3-1.7,2.9-2.6,4.5
		C68.6,168.3,67.8,169.7,67.1,170.9"/>
	<path id="XMLID_364_" class="st2" d="M100.6,61.5c18-0.4,33,17.4,33.5,39.8c0.5,22.4-13.7,40.8-31.7,41.2
		c-18,0.4-33-17.4-33.5-39.8C68.4,80.3,82.6,61.9,100.6,61.5"/>
	<path id="XMLID_787_" class="st1" d="M101.9,142.9c-17.9,0-32.9-18-33.4-40.2c-0.2-10.9,2.9-21.3,9-29.1
		c6.1-7.9,14.3-12.4,23.1-12.6c0.2,0,0.4,0,0.6,0c17.9,0,32.9,18,33.4,40.2c0.2,10.9-2.9,21.3-9,29.1c-6.1,7.9-14.3,12.4-23.1,12.6
		C102.3,142.9,102.1,142.9,101.9,142.9 M101.2,61.9c-0.2,0-0.4,0-0.6,0c-8.6,0.2-16.5,4.5-22.4,12.2c-5.9,7.7-9,17.9-8.8,28.6
		c0.5,21.7,15.1,39.3,32.5,39.3c0.2,0,0.4,0,0.6,0c8.6-0.2,16.5-4.5,22.4-12.2c5.9-7.7,9-17.9,8.8-28.6
		C133.2,79.6,118.6,61.9,101.2,61.9"/>
	<path id="XMLID_361_" class="st3" d="M101,71.2c12.9-0.3,23.7,13.4,24.1,30.6c0.4,17.2-9.7,31.3-22.6,31.6
		c-12.9,0.3-23.7-13.4-24.1-30.6C78,85.6,88.1,71.5,101,71.2"/>
	<path id="XMLID_783_" class="st1" d="M102,133.9c-12.9,0-23.7-13.9-24.1-31c-0.2-8.4,2.1-16.4,6.4-22.4c4.4-6.1,10.3-9.5,16.7-9.7
		l0.4,0c12.9,0,23.7,13.9,24.1,31c0.2,8.4-2.1,16.4-6.4,22.4c-4.4,6.1-10.3,9.5-16.7,9.7H102z M101.4,71.7l-0.4,0
		c-6.1,0.1-11.7,3.4-15.9,9.3c-4.2,5.9-6.4,13.7-6.2,21.9c0.4,16.6,10.8,30.1,23.2,30.1l0.4,0c6.1-0.1,11.8-3.4,15.9-9.3
		c4.2-5.9,6.4-13.7,6.2-21.9C124.2,85.2,113.8,71.7,101.4,71.7"/>
	<path id="XMLID_779_" class="st1" d="M95,102.6L95,102.6c0.2,1,0.6,1.7,1,2.1c0.5,0.4,0.8,1,1.1,1.9c0.1,0.2,0.1,0.4,0.1,0.6
		c-0.1,0.2-0.1,0.4-0.1,0.6c-0.1,0.3,0,0.5,0.4,0.6c0.4,0.2,0.7,0.5,1.1,0.7c0.4,0.2,0.8,0.4,1.2,0.6c0.1,0.1,0.3,0.1,0.5,0.1
		c0.2,0,0.4-0.1,0.5-0.1c0.1-0.1,0.1-0.2,0.1-0.3c0-0.1-0.1-0.2-0.3-0.2c0.2,0,0.3,0.1,0.3,0.2c0,0.2,0,0.3-0.1,0.3
		c0.3,0.2,0.5,0.1,0.5-0.2c0,0-0.1-0.1-0.1-0.3c-0.1-0.2-0.2-0.2-0.2-0.2c0.2,0.1,0.3,0.3,0.3,0.4c0,0.1,0.1,0.2,0.2,0.1
		c0.1,0,0.1-0.2,0-0.4c-0.1-0.2-0.3-0.3-0.5-0.3c-0.2,0-0.4,0.1-0.5,0.1c-0.1,0-0.3,0.1-0.5,0c-0.2-0.1-0.5-0.3-0.8-0.4
		c-0.3-0.2-0.5-0.4-0.5-0.6c-0.1-0.6,0.1-1.3,0.5-2c0.5-0.8,0.6-1.4,0.4-2c0-0.2,0.1-0.2,0.2-0.1c1.2,1.1,2.3,1.3,3.1,0.9
		c0.8-0.5,1.6-0.6,2.3-0.4c0.1,0.6,0.2,1.2,0.2,1.8c0,0.6,0.1,1.2,0.1,1.8c0,0.4,0.2,0.8,0.4,1.2c0.1,0.1,0.2,0.2,0.3,0.3
		c0.3,0,0.7,0,1.1,0c0.4,0,0.7,0,0.7-0.1c0-0.1-0.1-0.3-0.3-0.4c-0.1-0.1-0.3-0.1-0.4-0.1c-0.1,0-0.3,0-0.4-0.1
		c-0.1-0.1-0.2-0.3-0.2-0.6c0-0.3,0.1-0.5,0-0.7c0.1-0.4,0.2-0.8,0.4-1c0.1-0.3,0.2-0.6,0.2-0.9c0.5,0.3,1,0.5,1.4,0.7
		c0.4,0.2,0.9,0.4,1.3,0.6c0.2,0.1,0.5,0.2,0.8,0.3c0.3,0.1,0.6,0.3,0.7,0.4c0.1,0.3,0.2,0.4,0.4,0.3c0.2-0.1,0.4,0,0.6,0.1
		c0.3,0.1,0.5,0.1,0.7,0.2c0.2,0.1,0.4,0.1,0.7,0c0.3-0.3,0.2-0.6,0-0.7c-0.3-0.1-0.6-0.2-0.9-0.2c-0.4,0-0.6-0.1-0.7-0.2
		c-0.1-0.1-0.2-0.3-0.3-0.4c-0.9-0.6-1.8-1.3-2.5-2.2c-0.2-0.1-0.2-0.2-0.3-0.4c0,0-0.1-0.3-0.2-0.8c-0.1-0.5-0.2-0.8-0.1-0.9
		c0.2,0.5,0.4,1,0.5,1.4c0.1,0.5,0.4,1,1,1.4c0,0-0.1-0.2-0.2-0.4c-0.1-0.2-0.1-0.3-0.1-0.4c0.2,0.3,0.4,0.5,0.4,0.5
		c0-0.1,0.1-0.4,0.2-1c0-0.5,0.1-0.9,0.1-1.1c0.1,0.1,0.1,0.4,0.1,0.9c0,0.5-0.1,0.8-0.2,1c0.1-0.1,0.4-0.4,0.7-0.8
		c0.3-0.4,0.5-0.7,0.5-0.9c0.1,0,0.3,0.2,0.6,0.5c0-0.1-0.1-0.4-0.1-0.8c-0.1-0.4-0.1-0.7-0.1-0.7c0-0.1,0,0,0.2,0.3
		c0.2,0.3,0.4,0.5,0.6,0.6c0-0.1-0.1-0.4-0.2-1c-0.1-0.5-0.2-0.8-0.1-1c0,0.1,0.1,0.2,0.2,0.4c0.1,0.2,0.2,0.4,0.3,0.6
		c0.1-0.1,0.2-0.3,0.2-0.5c0-0.3,0-0.5,0-0.7c0.2,0.3,0.6,0.6,0.9,0.9c-0.1-0.1-0.1-0.3-0.1-0.5c0-0.2,0-0.5,0-0.7
		c-0.2-0.1,0,0,0.4,0.4c0.5,0.4,1,0.3,1.4-0.3c0,0,0-0.1,0.1-0.1c0,0,0.1-0.1,0.1-0.2c0.2-0.2,0.3-0.4,0.3-0.6
		c0.2-0.1,0.3-0.2,0.2-0.5c0,0-0.3-0.3-0.8-0.7c-0.1-0.1-0.2-0.2-0.2-0.3c-0.1-0.1-0.1-0.2-0.2-0.3c-0.3-0.4-1-0.8-1.8-1
		c0.2,0,0.5,0,0.8,0.3c0.3,0.2,0.7,0.3,1,0.1c-0.2-0.1-0.6-0.3-0.9-0.5c-0.4-0.2-0.7-0.3-0.8-0.3c0.2,0,0.4-0.1,0.6-0.2
		c0.2-0.1,0.4-0.1,0.6-0.1c0,0-0.2-0.1-0.7,0c-0.5,0-0.8,0.1-1,0.1c0,0,0-0.1-0.2-0.2c-0.1-0.1-0.2-0.2-0.2-0.3
		c-1,0.3-1.4,0.3-1.4-0.2c-0.2,0.4-0.3,0.7-0.3,0.9c-0.5-0.1-0.9-0.1-1,0c-0.2,0.1-0.6,0.2-1,0.4c-0.3,0.1-0.8,0.4-1.4,0.7
		c-0.4,0.2-0.7,0.3-1.1,0.3c-0.3,0-0.7,0.3-0.9,0.8c-0.3,0-0.6,0.1-0.8,0.3c-0.2,0.1-0.6,0.3-1.2,0.3c-1.2,0.1-2.3,0.2-3.2,0
		c-0.9-0.1-2.1,0-3.7,0.3c-0.7,0.1-1.3,0.5-1.8,1.1c-0.5,0.7-0.9,1.3-1.2,1.7c-0.2,0.4-0.8,1.2-1.8,2.6c-0.9,1.3-1.6,2.4-2,3
		c-0.1,0.2-0.3,0.4-0.5,0.4c-0.2,0.1-0.3,0.2-0.1,0.2c0,0,0.1,0.1,0.3,0.2c0.2,0.1,0.3,0.1,0.3,0c0-0.1,0.1-0.4,0.3-0.7
		c0.4-0.8,1-1.7,1.9-2.7c0.8-1.1,1.5-1.8,2.1-2.4c0,0-0.1,0.7-0.4,2c-0.3,1.4-0.5,2.1-0.4,2.1c0,0-0.1,0.2,0,0.8
		c0,0.5,0,0.9,0.1,1.1c0.1,0.3,0.1,0.7,0.1,1c0.1,0.1,0.2,0.2,0.4,0.2l0-0.2c0,0,0,0.1,0,0.1c0,0,0,0.1,0,0.1c0.2,0,0.4,0,0.6-0.1
		c0,0,0-0.1,0-0.1c0,0,0-0.1,0-0.1c0-0.2,0-0.2,0-0.1c0,0.1,0,0.2,0,0.2c0,0,0.2,0,0.4,0c0.1-0.3,0.1-0.5-0.2-0.6
		c-0.3-0.1-0.5-0.1-0.6-0.1c0-0.2-0.1-0.5-0.1-0.7c0-0.2,0-0.5,0.1-0.7c0.2-0.4,0.6-0.8,1.2-1.2c0.5-0.4,1-0.8,1.3-1.3
		c-0.2-0.2-0.5-0.7-0.9-1.1C95.3,103.8,95.1,103.2,95,102.6 M113.4,107.3c0.3,0.1,0.5,0.3,0.4,0.4L113.4,107.3z M113.5,107.2
		c0.3,0.1,0.4,0.2,0.4,0.4L113.5,107.2z"/>
	<polygon id="XMLID_355_" class="st1" points="80.2,119.4 74.9,121.5 74.5,120.5 77.2,117 73.6,118.4 73.2,117.4 78.5,115.3 
		78.9,116.3 76.4,119.8 79.8,118.4 	"/>
	<polygon id="XMLID_354_" class="st1" points="78.4,114 72.8,115.4 71.8,111.4 72.7,111.2 73.5,114.1 74.7,113.8 74,111.1 
		74.9,110.8 75.6,113.6 77.1,113.2 76.4,110.1 77.3,109.9 	"/>
	<path id="XMLID_353_" class="st1" d="M74.8,105.6l0.2-1.1c0.6,0.1,1.1,0.3,1.5,0.7c0.3,0.4,0.5,0.8,0.6,1.4
		c0.1,0.7-0.1,1.4-0.6,1.9c-0.5,0.5-1.1,0.8-2,0.9c-0.9,0.1-1.7-0.1-2.3-0.5c-0.6-0.4-0.9-1-1-1.8c-0.1-0.7,0.1-1.3,0.5-1.7
		c0.2-0.3,0.5-0.5,1-0.7l0.4,1.1c-0.3,0.1-0.5,0.3-0.7,0.5c-0.1,0.2-0.2,0.5-0.2,0.8c0,0.4,0.2,0.7,0.5,1c0.3,0.2,0.8,0.3,1.5,0.3
		c0.7-0.1,1.2-0.2,1.5-0.5c0.3-0.3,0.4-0.6,0.4-1c0-0.3-0.2-0.5-0.4-0.7C75.5,105.8,75.2,105.6,74.8,105.6"/>
	<polygon id="XMLID_352_" class="st1" points="77.1,96.8 71.5,95.7 71.8,94.6 76.4,95.5 76.9,92.8 77.9,93 	"/>
	<path id="XMLID_351_" class="st1" d="M72.5,90.2l0.4-1.1l2.9,1c0.5,0.2,0.8,0.3,0.9,0.3c0.2,0,0.5,0,0.6-0.1
		c0.2-0.1,0.3-0.3,0.5-0.6c0.1-0.3,0.1-0.6,0.1-0.8c-0.1-0.2-0.2-0.3-0.4-0.4c-0.2-0.1-0.5-0.2-0.9-0.4l-3-1L74,86l2.8,1
		c0.6,0.2,1.1,0.4,1.3,0.6c0.2,0.2,0.4,0.3,0.6,0.6c0.1,0.2,0.2,0.5,0.2,0.8c0,0.3-0.1,0.7-0.2,1.1c-0.2,0.5-0.4,0.9-0.6,1.1
		c-0.2,0.2-0.4,0.4-0.7,0.5c-0.2,0.1-0.5,0.1-0.7,0.1c-0.3,0-0.8-0.2-1.4-0.4L72.5,90.2z"/>
	<path id="XMLID_350_" class="st1" d="M79.5,82.5l0.9-0.8c0.5,0.4,0.7,0.9,0.8,1.4c0.1,0.5-0.1,1-0.4,1.5c-0.4,0.6-0.9,1.1-1.6,1.2
		c-0.7,0.2-1.4,0-2.2-0.4c-0.8-0.5-1.3-1-1.6-1.7c-0.2-0.7-0.1-1.4,0.3-2c0.3-0.6,0.8-1,1.4-1.1c0.3-0.1,0.7-0.1,1.2,0L78,81.7
		c-0.3-0.1-0.6-0.1-0.8,0c-0.3,0.1-0.5,0.3-0.6,0.5c-0.2,0.4-0.2,0.7-0.1,1.1c0.1,0.4,0.5,0.7,1.1,1.1c0.6,0.4,1.1,0.5,1.5,0.4
		c0.4-0.1,0.7-0.3,0.9-0.6c0.1-0.3,0.2-0.5,0.1-0.8C80,83.1,79.9,82.8,79.5,82.5"/>
	<polygon id="XMLID_349_" class="st1" points="82.3,81.7 77.4,78.9 79.5,75.3 80.3,75.8 78.8,78.4 79.9,79 81.3,76.6 82.1,77.1 
		80.7,79.5 82.1,80.3 83.6,77.5 84.5,78 	"/>
	<path id="XMLID_769_" class="st1" d="M83.9,75c0.5,0.4,1,0.6,1.4,0.6c0.4,0,0.8-0.2,1.1-0.5c0.3-0.3,0.4-0.7,0.3-1.2
		c-0.1-0.4-0.4-0.8-0.9-1.3c-0.5-0.4-1-0.6-1.4-0.6c-0.4,0-0.8,0.2-1.1,0.6C83.1,73,83,73.4,83,73.8C83.1,74.2,83.4,74.6,83.9,75
		 M83.2,76c-0.4-0.4-0.8-0.7-1-1.1c-0.1-0.3-0.2-0.6-0.3-0.9c0-0.3,0-0.6,0.1-0.9c0.1-0.4,0.3-0.7,0.6-1.1c0.5-0.6,1.2-1,1.9-1
		c0.7-0.1,1.4,0.2,2.2,0.8c0.7,0.6,1.1,1.2,1.2,1.9c0.1,0.7-0.1,1.4-0.7,2c-0.5,0.6-1.2,1-1.9,1C84.6,76.8,83.9,76.5,83.2,76"/>
	<path id="XMLID_766_" class="st1" d="M92.9,66.6l0.7,1.4l0.6-0.3c0.4-0.2,0.7-0.3,0.8-0.4s0.2-0.2,0.2-0.4c0-0.2,0-0.3-0.1-0.5
		c-0.1-0.2-0.2-0.3-0.4-0.4c-0.2-0.1-0.3-0.1-0.5,0c-0.1,0-0.4,0.1-0.8,0.3L92.9,66.6z M93.8,71.3l-2.3-5.1l1.7-0.7
		c0.6-0.3,1.1-0.4,1.3-0.5c0.3-0.1,0.7,0,1,0.2c0.3,0.2,0.6,0.5,0.8,0.9c0.1,0.3,0.2,0.6,0.2,0.9c0,0.3-0.1,0.5-0.2,0.7
		c-0.1,0.2-0.3,0.4-0.4,0.5c-0.2,0.2-0.6,0.3-1.1,0.6L94,68.9l0.9,1.9L93.8,71.3z"/>
	<polygon id="XMLID_344_" class="st1" points="98.9,69.8 97.9,64.4 99,64.2 99.8,68.7 102.7,68.2 102.8,69.1 	"/>
	<path id="XMLID_343_" class="st1" d="M104.5,64.1l1.1,0.2l-0.4,3c-0.1,0.5-0.1,0.8-0.1,0.9c0,0.2,0.1,0.4,0.3,0.6
		c0.2,0.2,0.4,0.3,0.7,0.3c0.3,0,0.6,0,0.8-0.1c0.2-0.1,0.3-0.3,0.4-0.4c0.1-0.2,0.1-0.5,0.2-0.9l0.4-3.1l1.1,0.2l-0.4,2.9
		c-0.1,0.7-0.2,1.1-0.3,1.4c-0.1,0.3-0.2,0.5-0.4,0.7c-0.2,0.2-0.4,0.3-0.7,0.4c-0.3,0.1-0.7,0.1-1.1,0c-0.5-0.1-0.9-0.2-1.2-0.3
		c-0.3-0.2-0.5-0.3-0.6-0.6s-0.2-0.4-0.2-0.7c0-0.3,0-0.8,0.1-1.4L104.5,64.1z"/>
	<path id="XMLID_761_" class="st1" d="M112.2,68.8l0.7,0.5c0.5,0.3,0.8,0.5,0.9,0.5c0.1,0,0.3,0,0.4,0c0.1-0.1,0.2-0.1,0.3-0.3
		c0.1-0.2,0.2-0.3,0.1-0.5c0-0.2-0.1-0.3-0.2-0.4c-0.1-0.1-0.3-0.2-0.7-0.5l-0.7-0.5L112.2,68.8z M109.4,70.8l3.2-4.7l2,1.3
		c0.5,0.3,0.9,0.6,1,0.8c0.2,0.2,0.3,0.5,0.2,0.8c0,0.3-0.1,0.6-0.3,0.9c-0.2,0.3-0.5,0.6-0.9,0.7c-0.4,0.1-0.8,0-1.2-0.2
		c0.1,0.3,0.2,0.5,0.2,0.7c0,0.2,0.1,0.6,0,1.1l0,1.3l-1.1-0.7v-1.5c0-0.5,0-0.9,0-1c0-0.2-0.1-0.3-0.2-0.4
		c-0.1-0.1-0.2-0.2-0.4-0.4l-0.2-0.1l-1.3,1.9L109.4,70.8z"/>
	<polygon id="XMLID_340_" class="st1" points="114.1,73.9 117.3,69.2 118.3,69.9 115.1,74.5 	"/>
	<path id="XMLID_756_" class="st1" d="M118.5,74.4l-1.1,1l0.7,0.8c0.3,0.3,0.5,0.5,0.6,0.5c0.1,0.1,0.3,0.1,0.5,0.1
		c0.2,0,0.3-0.1,0.5-0.2c0.1-0.1,0.2-0.2,0.2-0.4c0-0.1,0-0.3-0.1-0.4c-0.1-0.2-0.3-0.4-0.6-0.8L118.5,74.4z M120.2,72.8l-1,0.9
		l0.5,0.5c0.3,0.3,0.5,0.5,0.6,0.6c0.2,0.1,0.3,0.2,0.5,0.2c0.2,0,0.3-0.1,0.4-0.2c0.1-0.1,0.2-0.3,0.2-0.4c0-0.1,0-0.3-0.2-0.4
		c-0.1-0.1-0.3-0.3-0.7-0.7L120.2,72.8z M120.1,71.4l1.6,1.6c0.3,0.3,0.5,0.6,0.6,0.8c0.1,0.2,0.2,0.4,0.2,0.6c0,0.2,0,0.4,0,0.6
		c-0.1,0.2-0.2,0.4-0.4,0.6c-0.2,0.2-0.4,0.3-0.7,0.3c-0.3,0-0.5,0-0.8-0.1c0.2,0.3,0.2,0.6,0.2,0.9c-0.1,0.3-0.2,0.6-0.4,0.8
		c-0.2,0.2-0.4,0.3-0.7,0.4c-0.3,0.1-0.5,0.1-0.8,0c-0.3-0.1-0.5-0.2-0.7-0.4c-0.1-0.1-0.5-0.4-1-1l-1.3-1.4L120.1,71.4z"/>
	<path id="XMLID_336_" class="st1" d="M124.6,76.4l0.6,1l-2.6,1.6c-0.4,0.3-0.7,0.4-0.8,0.5c-0.2,0.2-0.3,0.4-0.3,0.6
		c0,0.2,0.1,0.5,0.2,0.7c0.2,0.3,0.4,0.4,0.6,0.5c0.2,0.1,0.4,0.1,0.6,0c0.2-0.1,0.5-0.2,0.8-0.5l2.7-1.7l0.6,1l-2.5,1.6
		c-0.6,0.4-1,0.6-1.3,0.7c-0.3,0.1-0.5,0.1-0.8,0.1c-0.3,0-0.5-0.1-0.7-0.3c-0.2-0.2-0.5-0.4-0.7-0.8c-0.3-0.5-0.5-0.8-0.5-1.1
		c0-0.3,0-0.6,0.1-0.8c0.1-0.2,0.2-0.4,0.4-0.6c0.2-0.2,0.6-0.5,1.2-0.9L124.6,76.4z"/>
	<path id="XMLID_335_" class="st1" d="M124.4,83.2l0.5,1c-0.3,0.2-0.5,0.4-0.6,0.7c-0.1,0.3-0.1,0.5,0.1,0.9
		c0.1,0.3,0.3,0.6,0.5,0.7c0.2,0.1,0.4,0.1,0.6,0.1c0.1-0.1,0.2-0.1,0.3-0.2c0.1-0.1,0.1-0.3,0.1-0.5c0-0.1,0-0.5-0.1-0.9
		c-0.1-0.6-0.1-1.1,0-1.4c0.2-0.4,0.4-0.7,0.9-0.9c0.3-0.1,0.6-0.1,0.8-0.1c0.3,0.1,0.6,0.2,0.8,0.4c0.2,0.2,0.4,0.5,0.6,0.9
		c0.3,0.7,0.3,1.2,0.2,1.6c-0.2,0.4-0.5,0.8-0.9,1l-0.5-1c0.2-0.2,0.4-0.3,0.5-0.5c0.1-0.2,0-0.4-0.1-0.7c-0.1-0.3-0.3-0.5-0.5-0.6
		c-0.1-0.1-0.3-0.1-0.4,0c-0.1,0.1-0.2,0.1-0.3,0.3c-0.1,0.2,0,0.5,0,1.1c0.1,0.6,0.1,1,0.1,1.3c0,0.3-0.1,0.6-0.3,0.8
		c-0.2,0.2-0.4,0.4-0.8,0.5c-0.3,0.1-0.6,0.2-1,0.1c-0.3-0.1-0.6-0.2-0.9-0.5c-0.3-0.3-0.5-0.6-0.7-1c-0.3-0.7-0.3-1.2-0.2-1.7
		C123.4,83.9,123.8,83.5,124.4,83.2"/>
	<polygon id="XMLID_334_" class="st1" points="126.7,95.3 132.3,94.8 132.4,95.9 126.8,96.4 	"/>
	<polygon id="XMLID_333_" class="st1" points="126.9,97.4 132.5,96.9 132.7,98.6 128.9,99.9 132.9,100.6 133,102.3 127.4,102.8 
		127.3,101.7 131.7,101.3 127.1,100.6 127,99.5 131.4,98 126.9,98.4 	"/>
	<path id="XMLID_749_" class="st1" d="M131.9,105.3l-1.6-0.1l0,0.6c0,0.4,0,0.7,0,0.9c0.1,0.2,0.1,0.3,0.3,0.4
		c0.1,0.1,0.3,0.1,0.4,0.1c0.2,0,0.4,0,0.5-0.2c0.1-0.1,0.2-0.3,0.3-0.4c0-0.1,0.1-0.4,0.1-0.8L131.9,105.3z M127.3,104l5.7,0.3
		l-0.1,1.8c0,0.7-0.1,1.1-0.2,1.3c-0.1,0.3-0.3,0.6-0.6,0.8c-0.3,0.2-0.7,0.3-1.1,0.3c-0.3,0-0.6-0.1-0.9-0.2
		c-0.2-0.1-0.4-0.3-0.5-0.5c-0.1-0.2-0.2-0.4-0.2-0.6c0-0.3,0-0.7,0-1.2l0-0.7l-2.1-0.1L127.3,104z"/>
	<path id="XMLID_746_" class="st1" d="M128.7,112l2.2-0.3l-1.9-1.2L128.7,112z M126,113.5l0.3-1.2l1.4-0.2l0.5-2.2l-1.2-0.7l0.3-1.2
		l5.1,3.4l-0.3,1.2L126,113.5z"/>
	<path id="XMLID_743_" class="st1" d="M128.8,116.3l-0.3,0.8c-0.2,0.5-0.3,0.8-0.3,1c0,0.1,0,0.3,0.1,0.4c0.1,0.1,0.2,0.2,0.4,0.2
		c0.2,0.1,0.3,0.1,0.5,0c0.1-0.1,0.3-0.2,0.4-0.3c0-0.1,0.1-0.3,0.3-0.8l0.3-0.8L128.8,116.3z M126.1,114.1l5.4,1.9l-0.8,2.2
		c-0.2,0.6-0.4,1-0.6,1.2c-0.2,0.2-0.4,0.4-0.7,0.4c-0.3,0.1-0.6,0-0.9-0.1c-0.4-0.1-0.7-0.4-0.9-0.7c-0.2-0.3-0.2-0.7-0.1-1.2
		c-0.2,0.2-0.4,0.3-0.7,0.4c-0.2,0.1-0.6,0.2-1.1,0.3l-1.3,0.3l0.5-1.3l1.4-0.4c0.5-0.1,0.8-0.2,1-0.3c0.1-0.1,0.3-0.1,0.3-0.2
		c0.1-0.1,0.2-0.3,0.3-0.5l0.1-0.2l-2.2-0.8L126.1,114.1z"/>
	<path id="XMLID_326_" class="st4" d="M79.9,112.5c3.8,14.2,12.3,20.5,23.2,21c11-1,21.8-12,21.8-33.1l-8.4,4.1l-6.6,1.5l-5,1.6
		l-8.2,0.1l-1.8,2.1l-4.6,0.1l-4.5,1.9C85.2,112,81.4,112.2,79.9,112.5"/>
	<path id="XMLID_739_" class="st1" d="M103.1,134L103.1,134c-12-0.6-20.1-8-23.7-21.4l-0.1-0.5l0.5-0.1c0.7-0.1,2-0.3,3.2-0.4
		c1-0.1,2.3-0.2,2.6-0.3l4.6-2l4.4-0.1l1.8-2.1l8.4-0.1l4.9-1.5l6.6-1.5l8.9-4.4l0,0.7C125.4,122.1,114.3,132.9,103.1,134L103.1,134
		z M80.5,112.8c3.5,12.6,11.3,19.6,22.6,20.2c10.5-1,21.1-11.3,21.3-31.9l-7.7,3.8l-6.7,1.5l-5.1,1.6l-8,0l-1.8,2.1l-4.8,0.1
		l-4.4,1.9c-0.3,0.1-1.1,0.2-2.8,0.4C82.2,112.6,81.2,112.7,80.5,112.8"/>
	<polygon id="XMLID_323_" class="st5" points="111.7,118.3 110,113.5 108.2,118.4 103.6,118.5 107.6,120.9 105.4,126.2 110.4,122.7 
		114.9,125.8 112.7,120.6 116.6,118.2 	"/>
	<path id="XMLID_735_" class="st1" d="M104.3,127.5l2.7-6.4l-5.1-3l6-0.1l2.1-5.9l2,5.8l6.3-0.1l-5,3.1l2.7,6.3l-5.5-3.8
		L104.3,127.5z M105.2,119l3,1.8l-1.8,4.2l4-2.8l3.4,2.3l-1.8-4.1l2.8-1.7l-3.5,0.1l-1.4-4l-1.4,4L105.2,119z"/>
	<polygon id="XMLID_320_" class="st1" points="83.2,119.6 83.1,118.7 89.4,117.8 95.2,116 99,113 106.5,113.1 112.6,110.7 
		119.5,109.4 124.8,105.9 125.3,106.7 119.8,110.3 112.9,111.6 106.7,114 99.4,113.9 95.6,116.8 89.6,118.7 	"/>
	
		<rect id="XMLID_319_" x="100.2" y="78.9" transform="matrix(0.9997 -2.310077e-02 2.310077e-02 0.9997 -2.0648 2.366)" class="st1" width="2.3" height="23.3"/>
	<path id="XMLID_730_" class="st1" d="M99.9,102.9l-0.6-24.6l3.5-0.1l0.6,24.6L99.9,102.9z M100.6,79.5l0.5,22l1,0l-0.5-22
		L100.6,79.5z"/>
	<path id="XMLID_316_" class="st6" d="M100.9,82c-1.8,4.2-6.2,2-2.3-2c-6.5,3.8-6.8-2.2-0.3-2.6c-5.8-5.2,8.9-6.8,3.8-1
		c0-0.1,4.3-3.8,4.4,0.2l-2.1,1c3.3,0.7,5,4.5-0.2,3.2c0.3,0.7,2.8,0.7,2.2,2.8C104.9,85.1,101,83.3,100.9,82"/>
	<path id="XMLID_726_" class="st1" d="M98.3,84.8c-0.7,0-1.3-0.4-1.6-1c-0.2-0.4-0.4-1.2,0.3-2.5c-0.8,0.3-1.5,0.5-2.1,0.5
		c-1.4,0-1.9-0.8-1.9-1.5c0-1.3,1.5-2.8,4.2-3.2c-1-1.2-1-2.1-0.7-2.7c0.5-1.4,2.5-2.1,4.1-2.1c1.4,0,2.4,0.5,2.8,1.3
		c0.2,0.4,0.2,0.8,0.1,1.2c0.5-0.3,1.1-0.5,1.6-0.5c0.6,0,1.7,0.3,1.7,2.3l0,0.3l-1.3,0.6c1.4,0.6,2.4,1.8,2.3,2.8
		c0,0.3-0.3,1.1-1.7,1.2c0.5,0.4,0.9,1.1,0.6,2.2l-0.1,0.2c-0.5,0.5-1.2,0.8-2,0.8c-1.3,0-3-0.7-3.8-1.6
		C100.1,84.3,99.1,84.8,98.3,84.8 M101.2,77.9l-2.3,2.4c-1.3,1.4-1.6,2.5-1.3,3.1c0.1,0.3,0.4,0.5,0.8,0.5c0.6,0,1.5-0.5,2.1-2
		l0.7-1.6l0.2,1.7c0.1,0.6,1.8,1.7,3.3,1.7c0.5,0,1-0.1,1.3-0.4c0.2-0.9-0.3-1.2-1.2-1.7c-0.5-0.2-0.8-0.4-1-0.8l-0.4-0.9l0.9,0.2
		c0.7,0.2,1.3,0.3,1.8,0.3c0.2,0,0.9,0,1-0.4c0.1-0.5-1-1.8-2.8-2.1l-1.4-0.3l3.1-1.4c-0.1-1.1-0.6-1.1-0.8-1.1
		c-0.9,0-2.3,1.1-2.7,1.4l-0.9,1l0-1.2c0-0.2,0.1-0.4,0.2-0.5c0.7-0.8,1-1.6,0.8-2c-0.2-0.5-1-0.8-2-0.8c-1.3,0-2.9,0.6-3.2,1.5
		c-0.3,0.8,0.5,1.8,1.2,2.4l0.8,0.7l-1.1,0.1C95.2,78,94,79.5,94,80.2c0,0.5,0.7,0.6,1,0.6c0.6,0,1.7-0.2,3.4-1.2L101.2,77.9z"/>
	<path id="XMLID_313_" class="st1" d="M87.1,114.5c-1.4,0-2.7-0.1-3.7-0.5c-0.2-0.1-0.3-0.1-0.5-0.2c-0.3-0.2-0.7-0.3-1-0.3l0-0.9
		c0.6,0,1,0.2,1.4,0.4c0.1,0.1,0.3,0.1,0.4,0.2c2.3,0.8,6.8,0.3,9.8-0.1c0.7-0.1,1.2-0.2,1.7-0.2c0.5-0.1,0.9-0.1,1.4-0.2
		c0.8-0.1,1.6-0.3,2.3-0.3l0,0.9c-0.7,0-1.5,0.2-2.2,0.3c-0.5,0.1-1,0.2-1.5,0.2c-0.5,0-1.1,0.1-1.7,0.2
		C91.7,114.2,89.3,114.5,87.1,114.5"/>
	<path id="XMLID_312_" class="st1" d="M98,112l-0.5,0l-6.7-0.1l0-0.9l6.4,0.1c0.1-0.1,0.1-0.2,0.2-0.3c0.2-0.2,0.5-0.4,0.7-0.4
		l11.7-0.3l0,0.9l-11.7,0.3c-0.1,0-0.2,0.2-0.2,0.2L98,112z"/>
	<polygon id="XMLID_311_" class="st1" points="100.2,109.6 100.2,108.7 119.2,107.9 119.3,108.8 	"/>
	<polygon id="XMLID_310_" class="st1" points="109.2,107.5 109.1,106.6 122.6,105.5 122.7,106.4 	"/>
	<polygon id="XMLID_309_" class="st1" points="118.8,104.7 118.8,103.8 123.4,103.7 123.4,104.6 	"/>
	<path id="XMLID_308_" class="st1" d="M89.4,116c-0.9,0-1.7,0-2.6-0.1c-1,0-2.1-0.1-3.1-0.1l0-0.9c1,0,2.1,0,3.1,0.1
		c1.8,0.1,3.7,0.2,5.4-0.1l2.9-0.3l0.1,0.9l-2.9,0.3C91.4,116,90.4,116,89.4,116"/>
	<path id="XMLID_307_" class="st1" d="M85.9,118c-0.7,0-1.4-0.1-2.1-0.3l0.3-0.9c1,0.3,2.2,0.3,3.3,0.2c0.3,0,0.7-0.1,1-0.1
		c0.3-0.3,1.1-0.3,2.6-0.3c0.2,0,0.3,0,0.4,0l0,0.9c-0.1,0-0.2,0-0.4,0c-0.4,0-1.4,0-1.8,0l0,0.2l-0.5,0c-0.4,0-0.8,0-1.2,0.1
		C87,118,86.5,118,85.9,118"/>
	<path id="XMLID_306_" class="st1" d="M106.5,113.1c-0.6,0-1.3,0-1.9,0c-0.8,0-1.5,0-2.2,0l0-0.9c0.7,0,1.5,0,2.3,0
		c1.7,0,3.5,0.1,4.9-0.2v-0.1l0.5-0.1l0.7,0l0,0.9l-0.4,0l-0.2,0.1C109,113.1,107.7,113.1,106.5,113.1"/>
	<polygon id="XMLID_305_" class="st1" points="86.1,112.8 86.1,111.9 93.9,111.9 93.9,112.8 	"/>
	<polygon id="XMLID_304_" class="st1" points="111,110.3 111,109.4 118.3,109.2 118.3,110.1 	"/>
	<polygon id="XMLID_303_" class="st1" points="122.1,103.1 122.1,102.2 123.5,102.1 123.6,102.1 124,102.9 123.6,103.1 	"/>
	<polygon id="XMLID_302_" class="st1" points="114.6,105.9 114.5,105 122.8,104.7 122.8,105.6 	"/>
	<polygon id="XMLID_301_" class="st1" points="106.8,108.4 106.8,107.5 110.1,107.4 110.1,108.4 	"/>
	<polygon id="XMLID_300_" class="st1" points="96.5,110.1 96.4,109.1 101,109 101,110 	"/>
	
		<rect id="XMLID_299_" x="19.2" y="74.9" transform="matrix(-0.9564 -0.2921 0.2921 -0.9564 44.3998 157.3123)" class="st1" width="29.5" height="0.9"/>
	
		<rect id="XMLID_298_" x="22.8" y="78.2" transform="matrix(-0.9696 -0.2447 0.2447 -0.9696 50.6017 163.6324)" class="st1" width="25.3" height="0.9"/>
	
		<rect id="XMLID_297_" x="24.2" y="81.5" transform="matrix(-0.9835 -0.1809 0.1809 -0.9835 59.1839 169.232)" class="st1" width="26.3" height="0.9"/>
	
		<rect id="XMLID_296_" x="24.6" y="84.7" transform="matrix(-0.9862 -0.1654 0.1654 -0.9862 60.1921 175.3719)" class="st1" width="25.5" height="0.9"/>
	<polygon id="XMLID_295_" class="st1" points="50,90.3 22.9,86.4 23.1,85.5 50.1,89.4 	"/>
	
		<rect id="XMLID_294_" x="19.3" y="90.5" transform="matrix(-0.9945 -0.1051 0.1051 -0.9945 57.902 184.8927)" class="st1" width="29.1" height="0.9"/>
	
		<rect id="XMLID_293_" x="14.9" y="93.4" transform="matrix(-0.9985 -5.499925e-02 5.499925e-02 -0.9985 57.0822 189.3366)" class="st1" width="32.4" height="0.9"/>
	
		<rect id="XMLID_292_" x="12" y="95.9" transform="matrix(-0.9995 -3.120041e-02 3.120041e-02 -0.9995 55.5337 193.5853)" class="st1" width="34.5" height="0.9"/>
	<rect id="XMLID_291_" x="9.1" y="98.9" class="st1" width="39.1" height="0.9"/>
	<polygon id="XMLID_290_" class="st1" points="11.6,103.1 11.6,102.1 45.2,101.4 45.2,102.3 	"/>
	
		<rect id="XMLID_289_" x="29" y="90.3" transform="matrix(-3.849841e-02 -0.9993 0.9993 -3.849841e-02 -75.2348 139.4936)" class="st1" width="0.9" height="31.4"/>
	<polygon id="XMLID_288_" class="st1" points="18,111 18,110.1 47.4,108 47.5,109 	"/>
	
		<rect id="XMLID_287_" x="33.7" y="99.7" transform="matrix(-0.1269 -0.9919 0.9919 -0.1269 -73.4897 161.0951)" class="st1" width="0.9" height="26.3"/>
	
		<rect id="XMLID_286_" x="35.9" y="102.9" transform="matrix(-0.1329 -0.9911 0.9911 -0.1329 -73.6239 167.2011)" class="st1" width="0.9" height="25.8"/>
	
		<rect id="XMLID_285_" x="35.4" y="106.4" transform="matrix(-0.1908 -0.9816 0.9816 -0.1908 -73.6908 176.4833)" class="st1" width="0.9" height="24.4"/>
	<polygon id="XMLID_284_" class="st1" points="21.6,124.8 21.4,123.9 48,118.4 48.2,119.3 	"/>
	
		<rect id="XMLID_283_" x="33.8" y="108.8" transform="matrix(-0.2011 -0.9796 0.9796 -0.2011 -81.1745 183.4313)" class="st1" width="0.9" height="32"/>
	<polygon id="XMLID_282_" class="st1" points="121.7,65.8 120.9,65.4 145.8,20.8 146.6,21.3 	"/>
	
		<rect id="XMLID_281_" x="130.2" y="12" transform="matrix(-0.8759 -0.4824 0.4824 -0.8759 225.7943 138.1016)" class="st1" width="0.9" height="56"/>
	
		<rect id="XMLID_280_" x="124.9" y="17.4" transform="matrix(-0.9116 -0.4112 0.4112 -0.9116 222.5575 130.963)" class="st1" width="0.9" height="48.3"/>
	<polygon id="XMLID_279_" class="st1" points="113.7,62.5 112.9,62.2 130.1,21.8 131,22.1 	"/>
	<polygon id="XMLID_278_" class="st1" points="111.2,61.7 110.3,61.3 124.8,23.6 125.6,23.9 	"/>
	<polygon id="XMLID_277_" class="st1" points="108.4,60.5 107.5,60.2 120.3,23.2 121.2,23.5 	"/>
	
		<rect id="XMLID_276_" x="111" y="21.5" transform="matrix(-0.9573 -0.2891 0.2891 -0.9573 206.2244 112.6224)" class="st1" width="0.9" height="39.2"/>
	
		<rect id="XMLID_275_" x="109.4" y="19.8" transform="matrix(-0.9748 -0.2229 0.2229 -0.9748 208.263 102.1743)" class="st1" width="0.9" height="39.1"/>
	<polygon id="XMLID_274_" class="st1" points="105,59.4 104.1,59.4 106.4,12.8 107.3,12.8 105.6,48.2 109.8,16.4 110.7,16.5 	"/>
	<polygon id="XMLID_273_" class="st1" points="102.3,59.4 102.3,8.6 103.2,8.6 103.3,59.4 	"/>
	
		<rect id="XMLID_272_" x="76.4" y="35.8" transform="matrix(-2.290086e-02 -0.9997 0.9997 -2.290086e-02 65.6105 136.697)" class="st1" width="46.4" height="0.9"/>
	
		<rect id="XMLID_271_" x="75.3" y="38.2" transform="matrix(-3.319830e-02 -0.9994 0.9994 -3.319830e-02 60.9668 136.3031)" class="st1" width="42.2" height="0.9"/>
	
		<rect id="XMLID_270_" x="73.3" y="41.7" transform="matrix(-0.1393 -0.9902 0.9902 -0.1393 62.7446 138.8468)" class="st1" width="36.8" height="0.9"/>
	
		<rect id="XMLID_269_" x="74.1" y="40.1" transform="matrix(-8.310341e-02 -0.9965 0.9965 -8.310341e-02 61.3867 137.5463)" class="st1" width="39.8" height="0.9"/>
	
		<rect id="XMLID_268_" x="70.2" y="42" transform="matrix(-0.192 -0.9814 0.9814 -0.192 64.4904 137.9263)" class="st1" width="37.7" height="0.9"/>
	
		<rect id="XMLID_267_" x="66" y="41.4" transform="matrix(-0.2393 -0.9709 0.9709 -0.2393 66.0326 135.438)" class="st1" width="40.1" height="0.9"/>
	
		<rect id="XMLID_266_" x="61.5" y="40.6" transform="matrix(-0.2915 -0.9566 0.9566 -0.2915 68.344 132.6673)" class="st1" width="43.6" height="0.9"/>
	
		<rect id="XMLID_265_" x="56.7" y="39.6" transform="matrix(-0.3293 -0.9442 0.9442 -0.3293 69.1941 129.2521)" class="st1" width="47.5" height="0.9"/>
	
		<rect id="XMLID_264_" x="51.8" y="39.2" transform="matrix(-0.3435 -0.9391 0.9391 -0.3435 66.7914 126.0062)" class="st1" width="51.3" height="0.9"/>
	
		<rect id="XMLID_263_" x="52.9" y="42.3" transform="matrix(-0.3952 -0.9186 0.9186 -0.3952 66.9984 129.6465)" class="st1" width="46.5" height="0.9"/>
	<polygon id="XMLID_262_" class="st1" points="83.5,64.4 65.4,26.3 66.2,25.9 84.4,64 	"/>
	
		<rect id="XMLID_261_" x="54.7" y="48.4" transform="matrix(-0.4908 -0.8713 0.8713 -0.4908 67.3258 136.9779)" class="st1" width="37.9" height="0.9"/>
	
		<rect id="XMLID_260_" x="52.4" y="51.2" transform="matrix(-0.5218 -0.8531 0.8531 -0.5218 64.099 139.2836)" class="st1" width="37.3" height="0.9"/>
	<polygon id="XMLID_259_" class="st1" points="68,53 56.2,36.5 56.9,35.9 68.7,52.4 	"/>
	
		<rect id="XMLID_258_" x="45.7" y="44.9" transform="matrix(-0.6299 -0.7767 0.7767 -0.6299 59.3833 119.0733)" class="st1" width="24.7" height="0.9"/>
	<polygon id="XMLID_257_" class="st1" points="62.8,56.3 43.2,35.1 43.9,34.4 63.4,55.7 	"/>
	
		<rect id="XMLID_256_" x="28.8" y="51.7" transform="matrix(-0.7061 -0.7081 0.7081 -0.7061 59.2633 128.9075)" class="st1" width="55.1" height="0.9"/>
	
		<rect id="XMLID_255_" x="35.2" y="47.7" transform="matrix(-0.7151 -0.699 0.699 -0.7151 46.4076 115.1848)" class="st1" width="23" height="0.9"/>
	
		<rect id="XMLID_254_" x="36" y="50.7" transform="matrix(-0.7643 -0.6449 0.6449 -0.7643 47.4762 119.6742)" class="st1" width="19.2" height="0.9"/>
	
		<rect id="XMLID_253_" x="38" y="54.1" transform="matrix(-0.8196 -0.5729 0.5729 -0.8196 52.2261 125.6438)" class="st1" width="15.8" height="0.9"/>
	
		<rect id="XMLID_252_" x="37.1" y="57.5" transform="matrix(-0.8378 -0.546 0.546 -0.8378 51.2857 131.1479)" class="st1" width="16" height="0.9"/>
	
		<rect id="XMLID_251_" x="36" y="60.8" transform="matrix(-0.8718 -0.4898 0.4898 -0.8718 52.5429 136.2758)" class="st1" width="16.3" height="0.9"/>
	
		<rect id="XMLID_250_" x="32.5" y="62.5" transform="matrix(-0.8895 -0.457 0.457 -0.8895 49.6787 137.8626)" class="st1" width="18" height="0.9"/>
	
		<rect id="XMLID_249_" x="27.4" y="65.2" transform="matrix(-0.9017 -0.4324 0.4324 -0.9017 45.9522 141.8394)" class="st1" width="23.3" height="0.9"/>
	
		<rect id="XMLID_248_" x="22.6" y="68.1" transform="matrix(-0.9151 -0.4032 0.4032 -0.9151 41.4779 145.9058)" class="st1" width="27" height="0.9"/>
	
		<rect id="XMLID_247_" x="18.1" y="71.2" transform="matrix(-0.9346 -0.3556 0.3556 -0.9346 38.5977 150.4979)" class="st1" width="30.1" height="0.9"/>
	<polygon id="XMLID_246_" class="st1" points="136.3,44.6 135.5,44.2 146.5,26.3 147.3,26.8 	"/>
	
		<rect id="XMLID_245_" x="142.1" y="30.6" transform="matrix(-0.7681 -0.6403 0.6403 -0.7681 226.9278 160.4766)" class="st1" width="0.9" height="17.1"/>
	
		<rect id="XMLID_244_" x="144" y="36.1" transform="matrix(-0.7591 -0.651 0.651 -0.7591 226.0784 169.9912)" class="st1" width="0.9" height="14.2"/>
	<polygon id="XMLID_243_" class="st1" points="141.8,50.9 141.1,50.2 151.7,39.6 152.3,40.3 	"/>
	
		<rect id="XMLID_242_" x="149" y="37.6" transform="matrix(-0.7218 -0.6921 0.6921 -0.7218 225.175 183.5134)" class="st1" width="0.9" height="17.9"/>
	
		<rect id="XMLID_241_" x="153.8" y="35.4" transform="matrix(-0.6656 -0.7463 0.7463 -0.6656 221.3399 194.5838)" class="st1" width="0.9" height="24.7"/>
	<polygon id="XMLID_240_" class="st1" points="146.5,59.6 145.9,58.9 171.1,38.2 171.7,38.9 	"/>
	
		<rect id="XMLID_239_" x="158.6" y="37.9" transform="matrix(-0.6027 -0.798 0.798 -0.6027 213.101 210.8997)" class="st1" width="0.9" height="29"/>
	
		<rect id="XMLID_238_" x="164.9" y="46" transform="matrix(-0.5811 -0.8138 0.8138 -0.5811 218.9418 216.98)" class="st1" width="0.9" height="12.4"/>
	<polygon id="XMLID_237_" class="st1" points="155.3,63.7 154.7,63 170.3,52.7 170.8,53.5 	"/>
	
		<rect id="XMLID_236_" x="162.7" y="53.4" transform="matrix(-0.5267 -0.85 0.85 -0.5267 196.6995 232.6445)" class="st1" width="0.9" height="16.2"/>
	<polygon id="XMLID_235_" class="st1" points="156.9,69.2 156.4,68.4 173,59.9 173.4,60.8 	"/>
	
		<rect id="XMLID_234_" x="166.5" y="56.1" transform="matrix(-0.4386 -0.8987 0.8987 -0.4386 179.9942 246.3913)" class="st1" width="0.9" height="21.8"/>
	<polygon id="XMLID_233_" class="st1" points="157.2,75.2 156.8,74.3 182.5,63 182.9,63.8 	"/>
	
		<rect id="XMLID_232_" x="172.7" y="54.6" transform="matrix(-0.4056 -0.9141 0.9141 -0.4056 178.6756 257.7084)" class="st1" width="0.9" height="32.3"/>
	
		<rect id="XMLID_231_" x="171.1" y="61" transform="matrix(-0.3833 -0.9236 0.9236 -0.3833 168.2508 261.9337)" class="st1" width="0.9" height="27.5"/>
	
		<rect id="XMLID_230_" x="169.4" y="69.2" transform="matrix(-0.2956 -0.9553 0.9553 -0.2956 143.8371 265.6204)" class="st1" width="0.9" height="21.2"/>
	<polygon id="XMLID_229_" class="st1" points="160.5,86.2 160.3,85.3 176,82.1 176.1,83 	"/>
	
		<rect id="XMLID_228_" x="169.4" y="78.5" transform="matrix(-7.389747e-02 -0.9973 0.9973 -7.389747e-02 94.8724 263.7518)" class="st1" width="0.9" height="18.6"/>
	<polygon id="XMLID_227_" class="st1" points="160.2,92 160.1,91.1 182.5,89.4 182.6,90.3 	"/>
	<polygon id="XMLID_226_" class="st1" points="161.2,95 161.2,94 186.3,93.1 186.3,94.1 	"/>
	
		<rect id="XMLID_225_" x="175.3" y="83.5" transform="matrix(-3.880182e-02 -0.9992 0.9992 -3.880182e-02 84.7085 277.4755)" class="st1" width="0.9" height="29"/>
	<polygon id="XMLID_224_" class="st1" points="192.8,101.8 160.9,101.3 160.9,100.4 192.8,100.8 	"/>
	<polygon id="XMLID_223_" class="st1" points="188.8,105.2 160.8,104.1 160.8,103.2 188.8,104.3 	"/>
	<polygon id="XMLID_222_" class="st1" points="184.6,108.1 160.4,107 160.5,106.1 184.6,107.2 	"/>
	<polygon id="XMLID_221_" class="st1" points="182.4,111.2 160.4,109.3 160.4,108.4 182.5,110.3 	"/>
	<polygon id="XMLID_220_" class="st1" points="179.7,113.7 161.6,111.1 160.2,111.1 160.2,110.2 161.6,110.1 179.8,112.8 	"/>
	
		<rect id="XMLID_219_" x="158.8" y="113.9" transform="matrix(-0.9657 -0.2597 0.2597 -0.9657 301.8261 268.5814)" class="st1" width="19.7" height="0.9"/>
	<polygon id="XMLID_218_" class="st1" points="181.2,121.6 159,113.5 159.3,112.6 181.6,120.7 	"/>
	
		<rect id="XMLID_217_" x="157.3" y="120" transform="matrix(-0.9185 -0.3955 0.3955 -0.9185 281.8082 299.1193)" class="st1" width="28.8" height="0.9"/>
	<polygon id="XMLID_216_" class="st1" points="191,134.3 158.2,117.2 158.7,116.3 191.4,133.5 	"/>
	<polygon id="XMLID_215_" class="st1" points="188,136.6 156.6,119 157,118.2 188.4,135.8 	"/>
	<polygon id="XMLID_214_" class="st1" points="183.7,138.9 155.3,121.3 155.8,120.5 184.2,138.1 	"/>
	<polygon id="XMLID_213_" class="st1" points="16.5,133 16.3,132.1 54.4,122.3 54.6,123.2 	"/>
	<polygon id="XMLID_212_" class="st1" points="18.4,136.8 18.1,135.9 51.5,124.8 51.8,125.7 	"/>
	
		<rect id="XMLID_211_" x="37.9" y="115.9" transform="matrix(-0.3484 -0.9374 0.9374 -0.3484 -72.7387 214.8624)" class="st1" width="0.9" height="33.6"/>
	
		<rect id="XMLID_210_" x="37.1" y="127.5" transform="matrix(-0.4975 -0.8674 0.8674 -0.4975 -63.0015 238.6238)" class="st1" width="0.9" height="20.1"/>
	
		<rect id="XMLID_209_" x="36.7" y="123.8" transform="matrix(-0.4042 -0.9147 0.9147 -0.4042 -71.5605 224.0191)" class="st1" width="0.9" height="23"/>
	
		<rect id="XMLID_208_" x="46.5" y="124.2" transform="matrix(-0.6009 -0.7993 0.7993 -0.6009 -32.3599 253.0268)" class="st1" width="0.9" height="20.7"/>
	<polygon id="XMLID_207_" class="st1" points="180.1,140.5 154.4,123 154.9,122.2 180.6,139.7 	"/>
	<polygon id="XMLID_206_" class="st1" points="176.1,142.4 152.3,125 152.9,124.2 176.7,141.7 	"/>
	<polygon id="XMLID_205_" class="st1" points="172.5,143.8 151.1,126.6 151.7,125.8 173.1,143.1 	"/>
	
		<rect id="XMLID_204_" x="147.1" y="133.6" transform="matrix(-0.7503 -0.6611 0.6611 -0.7503 184.604 337.7867)" class="st1" width="17.9" height="0.9"/>
	<polygon id="XMLID_203_" class="st1" points="161,143.5 147.8,129.8 148.5,129.1 161.6,142.8 	"/>
	<polygon id="XMLID_202_" class="st1" points="159.6,146.9 145.4,131.3 146.1,130.7 160.3,146.2 	"/>
	<polygon id="XMLID_201_" class="st1" points="158,149.4 143.2,132.9 143.9,132.3 158.7,148.8 	"/>
	
		<rect id="XMLID_200_" x="137.8" y="142.7" transform="matrix(-0.63 -0.7766 0.7766 -0.63 132.0883 349.1911)" class="st1" width="22.8" height="0.9"/>
	
		<rect id="XMLID_199_" x="134.2" y="144.2" transform="matrix(-0.585 -0.8111 0.8111 -0.585 114.9768 348.223)" class="st1" width="24.7" height="0.9"/>
	<polygon id="XMLID_198_" class="st1" points="150.7,156.6 136.4,136.4 137.2,135.9 151.5,156.1 	"/>
	
		<rect id="XMLID_197_" x="128.3" y="147.5" transform="matrix(-0.5725 -0.8199 0.8199 -0.5725 101.884 349.0339)" class="st1" width="27.2" height="0.9"/>
	<polygon id="XMLID_196_" class="st1" points="147.7,161.3 131.2,137.9 132,137.4 148.4,160.7 	"/>
	
		<rect id="XMLID_195_" x="120.5" y="150" transform="matrix(-0.5193 -0.8546 0.8546 -0.5193 78.507 345.1688)" class="st1" width="31.7" height="0.9"/>
	<polygon id="XMLID_194_" class="st1" points="141.2,166.9 125.1,137.8 125.9,137.3 142,166.5 	"/>
	<polygon id="XMLID_193_" class="st1" points="137.8,169 121.1,137.7 121.9,137.2 138.6,168.6 	"/>
	<polygon id="XMLID_192_" class="st1" points="133.4,171.4 119.5,138.5 120.4,138.2 134.2,171 	"/>
	
		<rect id="XMLID_191_" x="110.4" y="150.5" transform="matrix(-0.3443 -0.9389 0.9389 -0.3443 23.3669 318.2157)" class="st1" width="24.8" height="0.9"/>
	<polygon id="XMLID_190_" class="st1" points="123.9,163.5 116.8,140 117.7,139.7 124.8,163.2 	"/>
	<polygon id="XMLID_189_" class="st1" points="120.9,164.4 115.4,140.7 116.3,140.5 121.8,164.2 	"/>
	<polygon id="XMLID_188_" class="st1" points="117.7,165.3 114,141.2 114.9,141.1 118.6,165.2 	"/>
	<polygon id="XMLID_187_" class="st1" points="114.6,166.1 112.2,142.5 113.1,142.4 115.5,166 	"/>
	<polygon id="XMLID_186_" class="st1" points="112,166.2 109.6,143.4 110.5,143.3 112.9,166.1 	"/>
	<polygon id="XMLID_185_" class="st1" points="108.5,166.8 107.6,143.9 108.5,143.9 109.4,166.8 	"/>
	
		<rect id="XMLID_184_" x="94.8" y="155.3" transform="matrix(-1.900037e-02 -0.9998 0.9998 -1.900037e-02 -47.5454 264.7975)" class="st1" width="22.6" height="0.9"/>
	<polygon id="XMLID_183_" class="st1" points="103.2,167.2 102.6,144.4 103.5,144.4 104.1,167.2 	"/>
	
		<rect id="XMLID_182_" x="100.5" y="144.6" transform="matrix(-0.9991 -4.150159e-02 4.150159e-02 -0.9991 195.2699 315.8171)" class="st1" width="0.9" height="22.6"/>
	<polygon id="XMLID_181_" class="st1" points="98.1,167.3 97.2,167.3 98.1,144.2 99.1,144.2 	"/>
	
		<rect id="XMLID_180_" x="95.6" y="143.4" transform="matrix(-0.9986 -5.349828e-02 5.349828e-02 -0.9986 183.579 316.0278)" class="st1" width="0.9" height="24.4"/>
	
		<rect id="XMLID_179_" x="92.9" y="143.1" transform="matrix(-0.9973 -7.389747e-02 7.389747e-02 -0.9973 174.9717 316.5551)" class="st1" width="0.9" height="24"/>
	
		<rect id="XMLID_178_" x="89.7" y="142.5" transform="matrix(-0.9907 -0.1362 0.1362 -0.9907 158.5182 320.1007)" class="st1" width="0.9" height="24.3"/>
	<polygon id="XMLID_177_" class="st1" points="85.9,166.7 84.9,166.5 89.4,141.8 90.3,141.9 	"/>
	<polygon id="XMLID_176_" class="st1" points="83,164.9 82.2,164.7 87.8,141.3 88.7,141.5 	"/>
	
		<rect id="XMLID_175_" x="82.3" y="139.7" transform="matrix(-0.9531 -0.3025 0.3025 -0.9531 115.6978 322.1953)" class="st1" width="0.9" height="24.8"/>
	<polygon id="XMLID_174_" class="st1" points="76.3,163.6 75.5,163.2 84.5,139 85.4,139.3 	"/>
	
		<rect id="XMLID_173_" x="77.8" y="137.4" transform="matrix(-0.9035 -0.4285 0.4285 -0.9035 84.4828 320.0704)" class="st1" width="0.9" height="26.3"/>
	<polygon id="XMLID_172_" class="st1" points="66.7,170.1 65.9,169.7 82.2,137.6 83,138 	"/>
	
		<rect id="XMLID_171_" x="71.6" y="135.1" transform="matrix(-0.8563 -0.5165 0.5165 -0.8563 54.6972 321.2343)" class="st1" width="0.9" height="35.8"/>
	<polygon id="XMLID_170_" class="st1" points="60.4,165.8 59.6,165.3 76.2,138.4 77,138.9 	"/>
	
		<rect id="XMLID_169_" x="64.7" y="134.8" transform="matrix(-0.8443 -0.5359 0.5359 -0.8443 39.5358 312.1808)" class="st1" width="0.9" height="31.2"/>
	
		<rect id="XMLID_168_" x="61.7" y="133.8" transform="matrix(-0.8187 -0.5743 0.5743 -0.8187 27.6221 306.1179)" class="st1" width="0.9" height="29.9"/>
	
		<rect id="XMLID_167_" x="58.3" y="132.8" transform="matrix(-0.7943 -0.6075 0.6075 -0.7943 16.4794 298.6098)" class="st1" width="0.9" height="27.4"/>
	
		<rect id="XMLID_166_" x="55.7" y="131" transform="matrix(-0.727 -0.6866 0.6866 -0.727 -1.7691 287.1618)" class="st1" width="0.9" height="25.8"/>
	
		<rect id="XMLID_165_" x="52.8" y="129.7" transform="matrix(-0.7102 -0.704 0.704 -0.7102 -9.1378 280.8171)" class="st1" width="0.9" height="25.2"/>
	
		<rect id="XMLID_164_" x="50.5" y="127.9" transform="matrix(-0.6815 -0.7318 0.7318 -0.6815 -16.6106 272.2383)" class="st1" width="0.9" height="23.6"/>
	<polygon id="XMLID_163_" class="st1" points="41.2,144.9 40.6,144.2 57.4,129.6 58,130.3 	"/>
	<path id="XMLID_162_" class="st1" d="M79,173.1l-0.6-0.2l1.3-4.1c-0.2,0.1-0.5,0.2-0.8,0.2c-0.3,0.1-0.6,0.1-0.8,0.1l0.2-0.6
		c0.4-0.1,0.8-0.2,1.1-0.3c0.3-0.1,0.6-0.3,0.8-0.5l0.4,0.1L79,173.1z"/>
	<path id="XMLID_161_" class="st1" d="M80.9,172.3l0.7,0.1c0,0.3,0,0.6,0.2,0.8c0.2,0.2,0.4,0.3,0.6,0.4c0.3,0.1,0.6,0,0.9-0.2
		c0.3-0.2,0.4-0.5,0.5-0.9c0.1-0.4,0-0.7-0.1-0.9c-0.2-0.3-0.4-0.4-0.8-0.5c-0.2,0-0.4,0-0.6,0c-0.2,0.1-0.4,0.2-0.5,0.3l-0.6-0.2
		l1.1-2.6l2.7,0.5l-0.1,0.6l-2.2-0.4l-0.6,1.4c0.4-0.2,0.7-0.2,1.1-0.1c0.5,0.1,0.8,0.3,1.1,0.7c0.3,0.4,0.3,0.8,0.2,1.3
		c-0.1,0.5-0.3,0.9-0.7,1.2c-0.4,0.4-1,0.5-1.6,0.4c-0.5-0.1-0.9-0.3-1.1-0.7C81,173.2,80.9,172.8,80.9,172.3"/>
	<polygon id="XMLID_160_" class="st1" points="89.2,173.6 89.3,173 91.4,173.3 91.3,173.9 	"/>
	<path id="XMLID_569_" class="st1" d="M96.6,174.1c0,0.2,0,0.5,0.1,0.7c0.1,0.2,0.2,0.4,0.4,0.5c0.2,0.1,0.4,0.2,0.6,0.2
		c0.3,0,0.5-0.1,0.7-0.3c0.2-0.2,0.3-0.5,0.3-0.9c0-0.4-0.1-0.7-0.3-0.9c-0.2-0.2-0.5-0.3-0.8-0.3c-0.3,0-0.6,0.1-0.8,0.3
		S96.6,173.8,96.6,174.1 M99.4,171.8l-0.7,0c-0.1-0.3-0.1-0.5-0.2-0.6c-0.2-0.2-0.4-0.3-0.7-0.3c-0.2,0-0.4,0.1-0.6,0.2
		c-0.2,0.2-0.4,0.4-0.5,0.7c-0.1,0.3-0.2,0.7-0.2,1.3c0.2-0.2,0.4-0.4,0.6-0.5c0.2-0.1,0.5-0.2,0.7-0.2c0.4,0,0.8,0.2,1.1,0.5
		c0.3,0.3,0.5,0.8,0.5,1.3c0,0.3-0.1,0.7-0.2,1c-0.2,0.3-0.4,0.5-0.6,0.7c-0.3,0.2-0.6,0.2-0.9,0.2c-0.6,0-1-0.2-1.4-0.6
		c-0.3-0.4-0.5-1.1-0.5-2c0-1.1,0.2-1.8,0.6-2.3c0.3-0.4,0.8-0.6,1.4-0.6c0.4,0,0.8,0.1,1.1,0.4C99.2,171.1,99.3,171.4,99.4,171.8"
		/>
	<polygon id="XMLID_157_" class="st1" points="104.2,174 104.2,173.4 106.2,173.2 106.3,173.9 	"/>
	<path id="XMLID_156_" class="st1" d="M111.6,174.9l-0.7,0.1l-0.8-4.2c-0.1,0.2-0.3,0.4-0.5,0.6c-0.2,0.2-0.4,0.4-0.6,0.5l-0.1-0.6
		c0.3-0.2,0.6-0.5,0.8-0.8c0.2-0.3,0.4-0.6,0.4-0.8l0.4-0.1L111.6,174.9z"/>
	<path id="XMLID_564_" class="st1" d="M115.4,170.3c-0.1-0.4-0.2-0.7-0.5-0.8c-0.3-0.2-0.5-0.2-0.8-0.2c-0.3,0.1-0.5,0.2-0.7,0.5
		c-0.2,0.3-0.2,0.6-0.1,1c0.1,0.3,0.2,0.6,0.5,0.8c0.3,0.2,0.5,0.2,0.8,0.2s0.5-0.2,0.7-0.5C115.4,171,115.5,170.7,115.4,170.3
		 M113.2,173.3l0.6-0.2c0.1,0.3,0.3,0.5,0.4,0.6c0.2,0.1,0.4,0.1,0.6,0.1c0.2,0,0.4-0.1,0.5-0.3c0.1-0.1,0.2-0.3,0.3-0.5
		c0.1-0.2,0.1-0.4,0.1-0.7c0-0.3,0-0.5-0.1-0.8c0,0,0-0.1,0-0.1c-0.1,0.2-0.2,0.4-0.4,0.6c-0.2,0.2-0.4,0.3-0.7,0.4
		c-0.4,0.1-0.9,0-1.2-0.2c-0.4-0.3-0.6-0.6-0.7-1.2c-0.1-0.5-0.1-1,0.2-1.4c0.2-0.4,0.6-0.6,1.1-0.8c0.3-0.1,0.7,0,1,0.1
		c0.3,0.1,0.6,0.3,0.8,0.7c0.2,0.3,0.4,0.8,0.6,1.4c0.2,0.7,0.2,1.2,0.1,1.7c-0.1,0.4-0.2,0.8-0.5,1.1c-0.2,0.3-0.6,0.4-1,0.5
		c-0.4,0.1-0.8,0-1.1-0.1C113.6,174,113.3,173.7,113.2,173.3"/>
	<path id="XMLID_561_" class="st1" d="M117.8,171.7c0.1,0.2,0.2,0.4,0.3,0.6c0.2,0.2,0.3,0.3,0.5,0.4c0.2,0.1,0.4,0.1,0.6,0
		c0.3-0.1,0.5-0.2,0.6-0.5c0.1-0.3,0.2-0.6,0.1-1c-0.1-0.4-0.3-0.6-0.5-0.8c-0.3-0.2-0.5-0.2-0.8-0.1c-0.3,0.1-0.5,0.2-0.7,0.5
		C117.7,171,117.7,171.3,117.8,171.7 M119.9,168.7l-0.6,0.2c-0.1-0.2-0.3-0.4-0.4-0.5c-0.2-0.1-0.5-0.2-0.7-0.1
		c-0.2,0.1-0.4,0.2-0.5,0.3c-0.2,0.2-0.3,0.5-0.3,0.8c0,0.3,0,0.7,0.1,1.3c0.1-0.3,0.3-0.5,0.4-0.7c0.2-0.2,0.4-0.3,0.7-0.4
		c0.4-0.1,0.9,0,1.2,0.2c0.4,0.2,0.7,0.6,0.8,1.1c0.1,0.3,0.1,0.7,0,1c-0.1,0.3-0.2,0.6-0.4,0.8c-0.2,0.2-0.5,0.4-0.8,0.4
		c-0.5,0.1-1,0-1.5-0.3c-0.4-0.3-0.8-0.9-1-1.8c-0.3-1-0.3-1.8,0-2.4c0.2-0.5,0.6-0.8,1.2-0.9c0.4-0.1,0.8-0.1,1.1,0.1
		C119.5,168,119.7,168.3,119.9,168.7"/>
	<path id="XMLID_151_" class="st1" d="M124.8,170.7l0.2,0.6l-3.4,1.2c-0.1-0.2-0.1-0.3-0.1-0.5c0-0.3,0.1-0.5,0.2-0.8
		c0.1-0.3,0.3-0.7,0.5-1.1c0.4-0.7,0.6-1.2,0.7-1.5c0.1-0.3,0.1-0.6,0-0.9c-0.1-0.2-0.3-0.4-0.5-0.5c-0.2-0.1-0.5-0.1-0.8,0
		c-0.3,0.1-0.5,0.3-0.6,0.5c-0.1,0.3-0.1,0.5,0,0.9l-0.7,0.2c-0.1-0.5-0.1-0.9,0.1-1.3c0.2-0.4,0.5-0.6,1-0.8c0.5-0.2,0.9-0.2,1.3,0
		c0.4,0.2,0.7,0.5,0.8,0.9c0.1,0.2,0.1,0.4,0.1,0.7c0,0.2-0.1,0.5-0.2,0.8c-0.1,0.3-0.3,0.7-0.6,1.3c-0.3,0.5-0.4,0.8-0.5,0.9
		c-0.1,0.2-0.1,0.3-0.1,0.4L124.8,170.7z"/>
	<path id="XMLID_150_" class="st2" d="M122.8,175.8l1.8,10.4c18.7-1.5,44-27.6,50.1-46.7c-2.6,2.1-6.9,6.6-9.4,8.6
		c-0.1-2.5-0.4-6.9-0.5-9.4C152.8,160.1,137.6,173.4,122.8,175.8"/>
	<path id="XMLID_556_" class="st1" d="M124.2,186.8l-2-11.3l0.5-0.1c14.7-2.4,29.9-15.9,41.7-36.8l0.8-1.5l0,1.7
		c0.1,2.2,0.3,5.7,0.4,8.3l0,0.2c1.2-1,2.6-2.4,4-3.7c1.7-1.6,3.4-3.3,4.7-4.3l1.2-0.9l-0.5,1.4c-6.1,19.3-31.7,45.5-50.5,47
		L124.2,186.8z M123.3,176.2l1.7,9.6c17.9-1.8,41.9-26.1,48.7-44.7c-1.1,0.9-2.3,2.1-3.4,3.2c-1.7,1.6-3.4,3.3-4.7,4.3l-0.7,0.5
		l-0.1-2c-0.1-2-0.3-4.6-0.4-6.6C152.7,160.6,137.8,173.6,123.3,176.2"/>
	<path id="XMLID_147_" class="st2" d="M78.1,175.6l-1.3,10.5c-18.2-0.7-49.5-30.9-51.9-51.4c2.6,2,6.9,8.3,9.4,10.2
		c0-2.5,0.2-9.7,0.2-12.2C43.5,153.1,56.7,168.2,78.1,175.6"/>
	<path id="XMLID_552_" class="st1" d="M77.2,186.6l-0.4,0c-18.7-0.7-50-31.7-52.3-51.8l-0.1-1.1l0.9,0.6c1.4,1,3.1,3.2,4.8,5.2
		c1.3,1.6,2.7,3.3,3.9,4.4c0-0.6,0-1.2,0-2c0.1-3.1,0.1-7.4,0.1-9.3l-0.1-2.3l0.9,2.1c9.8,22.3,23.5,35.9,43.3,42.7l0.4,0.1
		L77.2,186.6z M25.6,135.8c3.3,19.7,32.8,48.7,50.8,49.8l1.2-9.7c-19.3-6.7-32.9-19.8-42.6-41.1c0,2.1-0.1,4.9-0.1,7.1
		c0,1.2,0,2.3-0.1,3l0,0.9l-0.7-0.5c-1.3-1-3-3-4.7-5.1C28,138.5,26.7,136.9,25.6,135.8"/>
	<path id="XMLID_144_" class="st1" d="M135.1,179.2l0.3,0.6l-3.3,1.7c-0.1-0.1-0.1-0.3-0.2-0.5c0-0.3,0-0.6,0-0.9
		c0.1-0.3,0.2-0.7,0.4-1.2c0.3-0.7,0.5-1.3,0.5-1.6c0.1-0.4,0-0.6-0.1-0.9c-0.1-0.2-0.3-0.4-0.6-0.5c-0.3-0.1-0.5,0-0.8,0.1
		c-0.3,0.2-0.5,0.4-0.6,0.6c-0.1,0.3,0,0.5,0.1,0.9l-0.7,0.3c-0.2-0.5-0.2-0.9-0.1-1.3c0.1-0.4,0.5-0.7,0.9-1
		c0.5-0.2,0.9-0.3,1.3-0.2c0.4,0.1,0.7,0.4,0.9,0.7c0.1,0.2,0.2,0.4,0.2,0.6c0,0.2,0,0.5-0.1,0.8c-0.1,0.3-0.2,0.8-0.5,1.4
		c-0.2,0.5-0.3,0.8-0.4,1c0,0.2-0.1,0.3-0.1,0.5L135.1,179.2z"/>
	<path id="XMLID_548_" class="st1" d="M136.9,176.6l-1.3-2.1l-0.2,3L136.9,176.6z M137.9,178.2l-0.7-1.1l-2.1,1.2l-0.3-0.5l0.3-4.4
		l0.5-0.3l1.9,3.1l0.6-0.4l0.3,0.5l-0.6,0.4l0.7,1.1L137.9,178.2z"/>
	<polygon id="XMLID_141_" class="st1" points="140.5,174.7 140.1,174.1 141.9,173 142.3,173.5 	"/>
	<path id="XMLID_140_" class="st1" d="M147.6,171.8l-0.6,0.4l-2.6-3.5c0,0.2-0.1,0.5-0.2,0.8c-0.1,0.3-0.3,0.5-0.4,0.7l-0.4-0.5
		c0.2-0.4,0.3-0.7,0.4-1.1c0.1-0.4,0.1-0.7,0.1-1l0.4-0.3L147.6,171.8z"/>
	<polygon id="XMLID_139_" class="st1" points="149.3,168.1 148.8,167.6 150.4,166.2 150.9,166.7 	"/>
	<path id="XMLID_138_" class="st1" d="M155.7,164.2l-0.5,0.5l-3.2-3c0,0.2,0,0.5-0.1,0.8c-0.1,0.3-0.2,0.6-0.2,0.8l-0.5-0.5
		c0.1-0.4,0.2-0.8,0.2-1.2c0-0.4,0-0.7-0.1-0.9l0.3-0.3L155.7,164.2z"/>
	<path id="XMLID_541_" class="st1" d="M156.1,158.3c-0.3-0.3-0.6-0.4-0.9-0.4c-0.3,0-0.6,0.1-0.8,0.3c-0.2,0.2-0.3,0.5-0.3,0.8
		c0,0.3,0.2,0.6,0.5,0.9c0.3,0.2,0.6,0.3,0.9,0.3c0.3,0,0.6-0.1,0.8-0.4c0.2-0.2,0.3-0.5,0.3-0.8
		C156.6,158.8,156.4,158.6,156.1,158.3 M156.1,162l0.4-0.5c0.3,0.2,0.5,0.2,0.7,0.2c0.2,0,0.4-0.1,0.6-0.3c0.1-0.2,0.2-0.3,0.3-0.5
		c0-0.2,0-0.4,0-0.5c-0.1-0.2-0.2-0.4-0.3-0.6c-0.2-0.2-0.3-0.4-0.6-0.6c0,0-0.1,0-0.1-0.1c0.1,0.3,0.1,0.5,0,0.8
		c-0.1,0.3-0.2,0.5-0.4,0.7c-0.3,0.3-0.7,0.5-1.2,0.5c-0.5,0-0.9-0.2-1.3-0.5c-0.4-0.4-0.7-0.8-0.7-1.3c0-0.5,0.1-0.9,0.5-1.3
		c0.2-0.3,0.5-0.4,0.9-0.5c0.3-0.1,0.7-0.1,1.1,0c0.4,0.1,0.8,0.4,1.3,0.9c0.5,0.5,0.9,0.9,1.1,1.3c0.2,0.4,0.3,0.8,0.3,1.1
		c0,0.4-0.2,0.7-0.5,1c-0.3,0.3-0.6,0.5-1,0.5C156.8,162.4,156.4,162.3,156.1,162"/>
	<path id="XMLID_538_" class="st1" d="M158.1,157.5c0.7,0.6,1.3,0.9,1.6,0.9c0.4,0,0.7-0.1,0.8-0.3c0.2-0.2,0.2-0.5,0.1-0.9
		c-0.1-0.4-0.5-0.8-1.2-1.4c-0.7-0.6-1.3-0.9-1.6-0.9c-0.4,0-0.7,0.1-0.9,0.3c-0.2,0.2-0.3,0.5-0.2,0.8
		C157,156.4,157.4,156.9,158.1,157.5 M157.7,158c-0.5-0.4-0.9-0.8-1.1-1.1c-0.2-0.4-0.3-0.7-0.3-1.1c0-0.3,0.1-0.7,0.4-1
		c0.2-0.2,0.4-0.4,0.6-0.5c0.2-0.1,0.5-0.1,0.8-0.1c0.3,0,0.6,0.1,0.9,0.2c0.3,0.1,0.7,0.4,1.1,0.7c0.5,0.4,0.9,0.8,1.1,1.1
		c0.2,0.4,0.3,0.7,0.4,1c0,0.3-0.1,0.7-0.4,1c-0.3,0.4-0.8,0.6-1.2,0.6C159.2,159,158.5,158.7,157.7,158"/>
	<path id="XMLID_133_" class="st1" d="M161.3,155.5l0.3-0.6c0.4,0.2,0.7,0.2,0.9,0.2c0.2-0.1,0.5-0.2,0.6-0.4
		c0.2-0.3,0.3-0.5,0.2-0.9c0-0.3-0.2-0.6-0.5-0.7c-0.3-0.2-0.5-0.3-0.8-0.2c-0.3,0.1-0.5,0.2-0.7,0.5c-0.1,0.1-0.2,0.2-0.2,0.4
		l-0.4-0.4c0,0,0.1-0.1,0.1-0.1c0.2-0.2,0.3-0.5,0.3-0.8c0-0.3-0.1-0.5-0.4-0.7c-0.2-0.1-0.4-0.2-0.7-0.2c-0.2,0-0.4,0.2-0.6,0.4
		c-0.2,0.2-0.2,0.4-0.2,0.7c0,0.2,0.2,0.5,0.4,0.7l-0.5,0.5c-0.3-0.3-0.5-0.7-0.5-1.1c0-0.4,0.1-0.8,0.3-1.1
		c0.2-0.2,0.4-0.4,0.7-0.6c0.3-0.1,0.5-0.2,0.8-0.2c0.3,0,0.5,0.1,0.7,0.3c0.2,0.1,0.3,0.3,0.4,0.5c0.1,0.2,0.1,0.5,0,0.7
		c0.3-0.2,0.5-0.3,0.8-0.3c0.3,0,0.6,0.1,0.9,0.3c0.4,0.3,0.6,0.7,0.7,1.1c0.1,0.5-0.1,0.9-0.4,1.4c-0.3,0.4-0.6,0.6-1.1,0.7
		C162.1,155.8,161.7,155.7,161.3,155.5"/>
	<path id="XMLID_534_" class="st1" d="M39.4,153.5c-0.2,0.1-0.4,0.3-0.5,0.5c-0.1,0.2-0.2,0.4-0.2,0.6c0,0.2,0.1,0.4,0.2,0.6
		c0.2,0.2,0.4,0.4,0.7,0.4c0.3,0,0.6,0,1-0.3c0.3-0.2,0.5-0.5,0.6-0.8c0.1-0.3,0-0.6-0.2-0.8c-0.2-0.3-0.4-0.4-0.7-0.5
		C40,153.3,39.7,153.3,39.4,153.5 M43,154.5l-0.4-0.5c0.2-0.2,0.3-0.4,0.3-0.5c0.1-0.3,0-0.5-0.1-0.7c-0.1-0.2-0.3-0.3-0.5-0.4
		c-0.3-0.1-0.5-0.1-0.9,0c-0.3,0.1-0.7,0.2-1.2,0.5c0.3,0,0.6,0.1,0.8,0.2c0.2,0.1,0.4,0.3,0.6,0.5c0.3,0.4,0.3,0.8,0.2,1.2
		c-0.1,0.5-0.4,0.8-0.8,1.1c-0.3,0.2-0.6,0.3-0.9,0.4c-0.3,0-0.6,0-0.9-0.1c-0.3-0.1-0.5-0.3-0.7-0.6c-0.3-0.5-0.4-1-0.3-1.5
		c0.1-0.5,0.6-1.1,1.4-1.6c0.9-0.6,1.7-0.9,2.3-0.8c0.5,0.1,1,0.3,1.3,0.8c0.2,0.4,0.3,0.7,0.3,1.1C43.5,153.9,43.3,154.2,43,154.5"
		/>
	<polygon id="XMLID_130_" class="st1" points="42.5,158 43,157.6 44.3,159.2 43.8,159.6 	"/>
	<path id="XMLID_529_" class="st1" d="M45.9,162.2c-0.1,0.1-0.3,0.3-0.3,0.5c-0.1,0.2-0.1,0.4,0,0.6c0,0.2,0.1,0.4,0.3,0.5
		c0.2,0.2,0.5,0.4,0.8,0.4c0.3,0,0.6-0.1,0.8-0.3c0.2-0.2,0.4-0.5,0.4-0.8c0-0.3-0.1-0.6-0.3-0.8c-0.2-0.2-0.5-0.4-0.8-0.4
		C46.4,161.9,46.1,162,45.9,162.2 M48,160.7c-0.2,0.2-0.3,0.4-0.3,0.6c0,0.2,0.1,0.4,0.3,0.7c0.2,0.2,0.4,0.3,0.6,0.3
		c0.2,0,0.4-0.1,0.6-0.2c0.2-0.2,0.3-0.4,0.3-0.6c0-0.2-0.1-0.5-0.2-0.6c-0.2-0.2-0.4-0.3-0.6-0.3C48.3,160.5,48.1,160.6,48,160.7
		 M47.2,161.6c-0.1-0.3-0.1-0.5-0.1-0.8c0.1-0.2,0.2-0.4,0.4-0.6c0.3-0.3,0.7-0.4,1.1-0.4c0.4,0,0.8,0.2,1.1,0.6
		c0.3,0.4,0.5,0.7,0.5,1.2c0,0.4-0.2,0.7-0.5,1c-0.2,0.2-0.4,0.3-0.6,0.3c-0.2,0-0.5,0-0.7-0.2c0.1,0.3,0.2,0.6,0.1,0.9
		c-0.1,0.3-0.2,0.6-0.5,0.8c-0.4,0.3-0.8,0.4-1.2,0.4c-0.5,0-0.9-0.3-1.3-0.7c-0.4-0.4-0.5-0.8-0.5-1.3c0-0.5,0.2-0.9,0.6-1.2
		c0.3-0.2,0.6-0.4,0.9-0.4C46.6,161.3,46.9,161.4,47.2,161.6"/>
	<polygon id="XMLID_126_" class="st1" points="49.8,166.3 50.3,165.8 51.8,167.3 51.3,167.7 	"/>
	<path id="XMLID_125_" class="st1" d="M54.1,172.4l-0.5-0.4l2.7-3.4c-0.2,0-0.5,0-0.8,0c-0.3,0-0.6-0.1-0.8-0.2l0.4-0.5
		c0.4,0.1,0.8,0.1,1.2,0.1c0.4,0,0.7-0.1,0.9-0.2l0.3,0.3L54.1,172.4z"/>
	<path id="XMLID_524_" class="st1" d="M60.1,172.2c0.2-0.3,0.3-0.6,0.3-0.9c0-0.3-0.2-0.5-0.4-0.7c-0.2-0.2-0.5-0.2-0.9-0.2
		c-0.3,0.1-0.6,0.3-0.8,0.6c-0.2,0.3-0.3,0.6-0.3,0.9c0,0.3,0.2,0.5,0.4,0.7c0.3,0.2,0.5,0.2,0.8,0.2
		C59.6,172.7,59.9,172.5,60.1,172.2 M56.4,172.5l0.6,0.3c-0.1,0.3-0.2,0.5-0.1,0.7c0,0.2,0.2,0.4,0.4,0.5c0.2,0.1,0.3,0.2,0.5,0.2
		c0.2,0,0.4,0,0.5-0.1c0.2-0.1,0.4-0.2,0.6-0.4c0.2-0.2,0.4-0.4,0.6-0.6c0,0,0-0.1,0.1-0.1c-0.2,0.1-0.5,0.1-0.8,0.1
		c-0.3,0-0.5-0.1-0.7-0.3c-0.4-0.3-0.6-0.6-0.6-1.1c-0.1-0.5,0.1-0.9,0.4-1.3c0.3-0.5,0.7-0.7,1.2-0.8c0.5-0.1,0.9,0,1.3,0.3
		c0.3,0.2,0.5,0.5,0.6,0.8c0.1,0.3,0.1,0.7,0.1,1.1c-0.1,0.4-0.3,0.8-0.7,1.4c-0.4,0.6-0.8,1-1.2,1.2c-0.4,0.2-0.8,0.4-1.1,0.4
		c-0.4,0-0.7-0.1-1.1-0.4c-0.4-0.3-0.6-0.6-0.6-0.9C56.1,173.2,56.2,172.9,56.4,172.5"/>
	<path id="XMLID_521_" class="st1" d="M61.1,174.1c-0.5,0.8-0.7,1.3-0.7,1.7c0,0.4,0.1,0.6,0.4,0.8c0.3,0.2,0.6,0.2,0.9,0.1
		c0.3-0.1,0.8-0.6,1.3-1.3c0.5-0.8,0.8-1.3,0.7-1.7c0-0.4-0.2-0.6-0.4-0.8c-0.3-0.2-0.5-0.2-0.8-0.1C62,172.9,61.6,173.3,61.1,174.1
		 M60.5,173.7c0.4-0.5,0.7-1,1-1.2c0.3-0.3,0.7-0.4,1-0.4c0.3,0,0.7,0.1,1,0.3c0.3,0.2,0.4,0.4,0.6,0.6c0.1,0.2,0.2,0.5,0.2,0.7
		c0,0.3-0.1,0.6-0.2,0.9c-0.1,0.3-0.3,0.7-0.6,1.2c-0.4,0.5-0.7,0.9-1,1.2c-0.3,0.3-0.7,0.4-1,0.4c-0.3,0-0.7-0.1-1-0.3
		c-0.5-0.3-0.7-0.7-0.7-1.2C59.6,175.3,59.9,174.6,60.5,173.7"/>
	<path id="XMLID_120_" class="st1" d="M66.1,179.7l-0.3,0.6l-3.2-1.8c0.1-0.1,0.2-0.3,0.3-0.4c0.2-0.2,0.5-0.3,0.8-0.4
		c0.3-0.1,0.7-0.2,1.2-0.3c0.8-0.1,1.3-0.3,1.7-0.4c0.3-0.1,0.6-0.3,0.7-0.5c0.1-0.2,0.2-0.5,0.1-0.7c-0.1-0.3-0.2-0.5-0.5-0.6
		c-0.3-0.2-0.6-0.2-0.8-0.1c-0.3,0.1-0.5,0.3-0.7,0.6l-0.6-0.4c0.3-0.4,0.7-0.7,1.1-0.8c0.4-0.1,0.8,0,1.3,0.3
		c0.5,0.3,0.8,0.6,0.9,1c0.1,0.4,0.1,0.8-0.2,1.2c-0.1,0.2-0.3,0.4-0.5,0.5c-0.2,0.1-0.4,0.3-0.7,0.4c-0.3,0.1-0.8,0.2-1.4,0.3
		c-0.5,0.1-0.9,0.2-1,0.2c-0.2,0-0.3,0.1-0.4,0.2L66.1,179.7z"/>
	<path id="XMLID_119_" class="st6" d="M135.3,94.7c1.7,17.8-2.7,32-15,43.2c20.4,2,33.1-11.7,37.4-21.7
		C156.9,110.9,141.6,102.7,135.3,94.7"/>
	<path id="XMLID_516_" class="st1" d="M124.3,138.6L124.3,138.6c-1.3,0-2.7-0.1-4-0.2l-1-0.1l0.8-0.7c11.8-10.7,16.6-24.7,14.8-42.9
		l-0.2-1.6l1,1.2c2.8,3.5,7.2,7,11.5,10.3c5.6,4.4,10.5,8.2,10.9,11.4l0,0.1l0,0.1C154.6,124.7,143.6,138.6,124.3,138.6
		 M121.4,137.6c1,0.1,1.9,0.1,2.9,0.1c18.7,0,29.5-13.5,32.9-21.5c-0.5-2.8-5.4-6.6-10.6-10.7c-3.9-3-7.9-6.2-10.7-9.4
		C137.2,113.5,132.5,127.1,121.4,137.6"/>
	<path id="XMLID_116_" class="st7" d="M120,66.5l14-24.3c6.3,5.2,10,12.1,12.7,18.7c1.8-2,3.6-4,5.6-6c7.2,20.4,12.3,45.8,5.4,61.3
		c-1.8-5.9-17.7-14.1-22.5-21.4C133.7,82.3,124.7,70.2,120,66.5"/>
	<path id="XMLID_512_" class="st8" d="M157.6,117.5l-0.4-1.2c-0.9-2.9-5.7-6.6-10.7-10.5c-4.6-3.6-9.4-7.3-11.8-10.9l-0.1-0.2
		c-1.5-12.5-10.7-24.6-15.1-28l-0.3-0.2l14.5-25.1l0.4,0.4c6.6,5.5,10.3,12.9,12.6,18.3c1.7-1.8,3.3-3.6,5.1-5.5l0.5-0.6l0.3,0.7
		c4.4,12.3,13.7,43,5.4,61.6L157.6,117.5z M135.7,94.6c2.3,3.4,7,7.1,11.5,10.6c4.6,3.5,8.9,6.9,10.5,9.9
		c7.2-18.1-1.2-46.8-5.6-59.2c-1.7,1.9-3.4,3.7-5,5.5l-0.5,0.5l-0.3-0.7c-2.3-5.6-5.8-12.7-12.2-18.2l-13.6,23.4
		C125.3,70.3,134.1,82,135.7,94.6"/>
	<path id="XMLID_113_" class="st6" d="M67.5,94.6c-0.7,5.5-0.6,10.6,0.1,15.3c1.6,10.6,6.4,19.5,15.3,27.4
		c-16.7,1-29.3-7.7-35.6-19.1C49.2,112.4,60.2,103.6,67.5,94.6"/>
	<path id="XMLID_508_" class="st1" d="M80.2,137.8c-14.2,0-26.7-7.3-33.5-19.4l-0.1-0.2l0.1-0.2c1.3-3.6,5.7-8.2,10.9-13.5
		c3.3-3.3,6.6-6.7,9.5-10.2l1-1.2l-0.2,1.6c-0.6,5.3-0.6,10.4,0.1,15.2c1.6,10.7,6.4,19.3,15.1,27.1l0.8,0.7l-1.1,0.1
		C82,137.8,81.1,137.8,80.2,137.8 M47.7,118.1c6.6,11.8,18.8,18.8,32.6,18.8c0.5,0,1,0,1.4,0c-8.4-7.7-13-16.3-14.6-26.9
		c-0.6-4.4-0.7-9-0.3-13.9c-2.6,3.1-5.6,6.1-8.5,9.1C53.5,110.1,49,114.7,47.7,118.1"/>
	<path id="XMLID_110_" class="st7" d="M85.2,64.3l-9-22.8C70.5,47,65,53.6,62.7,60.3L55,54.2c-6.5,23.8-16.1,45.7-7.5,64.1
		c-0.5-5.1,16.3-17.6,20.5-25.2C70.2,78,79.6,68.2,85.2,64.3"/>
	<path id="XMLID_504_" class="st1" d="M48.2,121.1l-1.2-2.5c-7.1-15.3-1.8-33.1,3.9-52c1.2-4.1,2.5-8.3,3.6-12.5l0.2-0.7l7.8,6.1
		c2.1-5.6,6.6-11.8,13.4-18.4l0.5-0.5l9.4,23.8l-0.3,0.2c-2.4,1.6-14.4,10.8-17.1,28.5l-0.1,0.2c-1.9,3.4-6.1,7.6-10.3,11.8
		c-5.1,5.2-10.5,10.5-10.2,13.2L48.2,121.1z M55.2,55c-1.1,4-2.3,8-3.4,11.8c-5.4,18.1-10.5,35.2-4.5,49.9
		c1.1-3.1,5.5-7.6,10.2-12.2c4.1-4.1,8.2-8.3,10.1-11.5c2.7-17.4,14.2-26.7,17.2-28.9l-8.6-21.8C69.4,48.9,65,55,63.2,60.5l-0.2,0.6
		L55.2,55z"/>
	<polygon id="XMLID_107_" class="st5" points="150.9,71.2 149.2,66.3 147.4,71.2 142.8,71.3 146.9,73.7 144.6,79 149.7,75.6 
		154.1,78.6 151.9,73.4 155.8,71.1 	"/>
	<path id="XMLID_500_" class="st1" d="M143.6,80.3l2.7-6.4l-5.1-3l6-0.1l2.1-5.9l2,5.8l6.3-0.1l-5,3.1l2.7,6.3l-5.5-3.8L143.6,80.3z
		 M144.4,71.8l3,1.8l-1.8,4.2l4-2.8l3.4,2.4l-1.8-4.1l2.8-1.7l-3.5,0.1l-1.4-4l-1.4,4L144.4,71.8z"/>
	<polygon id="XMLID_104_" class="st5" points="60.1,65.8 58.5,61.1 56.8,65.8 52.4,65.9 56.3,68.2 54.2,73.2 58.9,69.9 63.1,72.8 
		61.1,67.9 64.8,65.6 	"/>
	<path id="XMLID_496_" class="st1" d="M53.1,74.5l2.6-6.1l-4.9-2.9l5.7-0.1l2-5.6l1.9,5.5l6-0.1l-4.8,2.9l2.6,6l-5.3-3.6L53.1,74.5z
		 M54.1,66.3l2.8,1.6l-1.7,3.9l3.7-2.6l3.2,2.2l-1.6-3.8l2.6-1.6l-3.3,0.1l-1.3-3.7l-1.3,3.8L54.1,66.3z"/>
	<polygon id="XMLID_101_" class="st5" points="75.5,50.1 74.2,46.4 72.9,50.1 69.4,50.2 72.4,52 70.7,56 74.6,53.4 77.9,55.7 
		76.2,51.8 79.2,50 	"/>
	<path id="XMLID_492_" class="st1" d="M69.7,57.3l2.2-5.1l-4.1-2.4l4.8-0.1l1.7-4.7l1.6,4.6l5.1-0.1L76.8,52l2.1,5L74.6,54
		L69.7,57.3z M71,50.6l2,1.2l-1.2,2.9l2.8-1.9l2.3,1.6l-1.2-2.8l1.8-1.1l-2.3,0.1l-1-2.8l-1,2.8L71,50.6z"/>
	<polygon id="XMLID_98_" class="st5" points="137,51.2 135.5,47 134,51.2 130,51.3 133.5,53.4 131.6,58 136,55 139.8,57.6 
		137.9,53.1 141.3,51.1 	"/>
	<path id="XMLID_488_" class="st1" d="M130.5,59.2l2.4-5.7l-4.6-2.7l5.3-0.1l1.8-5.2l1.8,5.1l5.6-0.1l-4.5,2.7l2.4,5.6l-4.9-3.4
		L130.5,59.2z M131.6,51.7l2.5,1.4l-1.5,3.5l3.3-2.3l2.8,1.9l-1.4-3.4l2.3-1.4l-2.9,0.1l-1.2-3.3l-1.2,3.3L131.6,51.7z"/>
	<polygon id="XMLID_95_" class="st2" points="119.7,66.8 136.2,39.3 140.9,35.5 139.9,28.4 134.1,33.6 133.5,37.9 118.2,65.2 	"/>
	<path id="XMLID_484_" class="st1" d="M119.8,67.6l-2.2-2.3l15.5-27.6l0.6-4.4l6.6-5.9l1.1,8.2l-4.8,3.9L119.8,67.6z M118.8,65.2
		l0.9,0.9l16.3-27.1l4.4-3.6l-0.8-6l-5,4.5l-0.6,4.3L118.8,65.2z"/>
	<polygon id="XMLID_92_" class="st2" points="85.9,64.3 73.7,37.3 69.8,33.3 71.5,26.9 76.3,32.3 76.4,36.3 87.5,63 	"/>
	<path id="XMLID_480_" class="st1" d="M85.7,65L73.3,37.6l-4-4.1l2-7.5l5.5,6.2l0,4.1L88,63.1L85.7,65z M70.4,33.2l3.8,3.9L86,63.5
		l0.9-0.7l-11-26.5l0-3.8l-4.1-4.6L70.4,33.2z"/>
	<path id="XMLID_89_" class="st5" d="M107.9,45.6c3.1,0.4,3.6-0.5,4.4-2c0-2.7-0.3-5.7-3.3-7.2c-4.1-0.2-8.2,0.7-11.3,4.5
		c-3.5,3.7-3.3,8.7-3,11.1c0.9,3.2,0.7,3.5,5,3.9c3.8,0.2,7.7,0.4,11.5,0.6c1.5-0.7,2.3-2.7,1.6-4.4C112,48.1,110.5,48,107.9,45.6"
		/>
	<path id="XMLID_476_" class="st1" d="M111.3,57l-11.6-0.6c-4.2-0.5-4.4-0.8-5.2-3.7l-0.2-0.6c-0.4-2.7-0.5-7.8,3.1-11.6
		c2.6-3.2,5.9-4.6,10.6-4.6c0.4,0,0.7,0,1.1,0l0.2,0.1c3.2,1.7,3.6,5,3.5,7.7l-0.1,0.2c-0.7,1.2-1.3,2.3-3.4,2.3
		c0.2,0.2,0.4,0.3,0.6,0.5c1.6,1.3,2.7,2.1,3.4,5.3c0.8,1.9,0,4.1-1.8,5L111.3,57z M108,36.8c-4.3,0-7.5,1.4-9.9,4.3
		c-3.4,3.6-3.2,8.3-2.9,10.8l0.1,0.5c0.7,2.5,0.7,2.6,4.4,3l11.4,0.6c1.3-0.6,1.8-2.4,1.2-3.8c-0.6-3-1.5-3.7-3.1-4.9
		c-0.5-0.4-1.1-0.8-1.7-1.4l-1.1-1l1.5,0.2c0.4,0.1,0.9,0.1,1.2,0.1c1.7,0,2.1-0.6,2.7-1.7c0-2.5-0.3-5.2-2.9-6.7
		C108.6,36.8,108.3,36.8,108,36.8"/>
	<path id="XMLID_86_" class="st1" d="M108.5,56.4c-0.9-1.3-2.1-2.1-3.7-2.3c-2-0.3-4.4,0.5-5.9,1.8l-0.6-0.7c1.8-1.5,4.4-2.3,6.7-2
		c1.8,0.2,3.3,1.2,4.3,2.7L108.5,56.4z"/>
	<polygon id="XMLID_85_" class="st5" points="102.1,56.1 104.7,56.1 104.8,59.8 102.2,59.8 	"/>
	<path id="XMLID_471_" class="st1" d="M101.9,60.1l-0.1-4.2l3.1-0.1L105,60L101.9,60.1z M102.4,56.4l0.1,3.2l2,0l-0.1-3.2
		L102.4,56.4z"/>
	<path id="XMLID_82_" class="st2" d="M104.4,42.8c1.3,0,2.3,1,2.4,2.2c0,1.3-1,2.3-2.3,2.3c-1.3,0-2.3-1-2.4-2.2
		C102.1,43.9,103.1,42.9,104.4,42.8"/>
	<path id="XMLID_467_" class="st1" d="M104.5,47.9c-1.5,0-2.7-1.2-2.8-2.7c0-0.7,0.3-1.4,0.8-2c0.5-0.5,1.2-0.8,2-0.9l0,0
		c1.6,0,2.8,1.2,2.8,2.7c0,0.7-0.3,1.4-0.8,2C106,47.6,105.3,47.9,104.5,47.9L104.5,47.9z M104.5,43.3c-0.5,0-1,0.2-1.4,0.6
		c-0.3,0.4-0.5,0.8-0.5,1.3c0,1,0.9,1.8,1.9,1.8v0.5l0-0.5c0.5,0,1-0.2,1.3-0.6c0.3-0.4,0.5-0.8,0.5-1.3
		C106.3,44.1,105.5,43.3,104.5,43.3"/>
	<path id="XMLID_79_" class="st6" d="M127.8,150.7c3.8-2.4,4.6-4.3,4.4-9.9c2,0.4,3.2-0.3,3.3,2.7c5.7-2.3,12.1-7.2,18.7-13
		c5.1-5,8.4-12,11.3-18.1c1.1-6.4,1.6-2.6,1.6-17.5c0-4.1-0.1-10-0.2-17.1c-3.2-4.2-4.5-9.8-5.4-15.7c-5.2-1.3-4.9-1.5-5.2-3.4
		c3.9-1.4,5.7,3.5,5.6,2.2c-0.7-6.7-1.1-15.7,1.5-18.1c1.3,2.6,3.2,4.2,2.3,8.9l-2.6,8.4c0.9-1.2,2.5-1.9,5.2-2
		c2.1,0.3,3.5,1.8,5.2,3.2c-2.8,0.1-5.3,1.3-8.8-0.8l-1.7,1.4c-0.1,5.2,1,10.6,4.9,15c0.5-3.5-0.7-7.9,2.8-11.6
		c-0.1,1.9,1.2,3.9,1.1,5.7c0,1.9-2,4.4-2.1,6.1c1.9-0.8,3.2-3.2,5.2-4.1c2.1-1,4.8-0.6,7-1.7c-1.9,6.7-7.2,6.2-12.6,7.3
		c3.7,4.1,5.9,5.7,2.7,14c-1.6-3-1.5-8.4-2.3-11.8c-0.2-0.7-1.1,0.7-1.2,0l-0.1,23.8l3.1,0c0.6-3.6-1.7-7.4,8.6-11.5
		c0.1,4.3-4.6,7.2-6.9,10.8c3.9-2.8,7.9-6.3,12.8-6.8c-1.5,3.8-6,8.9-11.6,8.5c0,0.5-2.1-0.6-2,0.2c3.8,2.9,2.7,8.5,0.4,9.6
		c-1.7-3-0.9-6.3-4.2-9c-2.8,11.2-6.2,17.7-12.8,24.9c1,0,1.6-0.3,2.7-0.3c1-0.8,3.3-0.2,4.4-0.3c-0.5-2.9,2.2-7.4,7.6-8.6
		c0.8,2.3-3,6-6.7,8.8c3.3-0.5,5.8-1,8.5-0.2c-1.4,2.1-5.4,6.5-13.2,1.5c-0.5-0.2-1.1,0.5-1.6,0.4c5,6,4.4,10.6,0.3,12
		c-1.4-4.6,0.9-9.4-2.7-12.2c-3.1,2.6-6.4,5-9.4,7.5c-1.8,1.5-7.8,3.7-9.7,5.2c-0.1,1-0.8,2-0.5,2.7c6.2-3.9,10-4.3,13.7-2.8
		c-1.7,3-5.3,4.2-12.2,4.4c4.6,1.5,11.1,0.9,13.9,5.9c-5-1.6-7.5,4.4-15.9-4.8c2,4.9,5.4,7.6-0.6,10.8c0.5-4.2-1-6.2-1.5-9.1
		C131.8,151.6,130.6,150.8,127.8,150.7"/>
	<path id="XMLID_456_" class="st1" d="M133.7,162.7l0.1-0.9c0.3-2.7-0.2-4.4-0.7-6.1c-0.3-0.9-0.5-1.8-0.7-2.8
		c-0.8-0.9-1.9-1.7-4.6-1.7l-1.6,0l1.3-0.8c3.6-2.3,4.4-4,4.2-9.5l0-0.6l0.6,0.1c0.4,0.1,0.8,0.1,1.1,0.1c1.4,0.1,2.3,0.4,2.5,2.4
		c4.8-2.1,10.5-6.1,17.9-12.7c5.1-5,8.6-12.5,11.2-17.9c0.3-1.8,0.6-2.8,0.8-3.6c0.6-2.1,0.8-3.1,0.8-13.8c0-2.3,0-5.1-0.1-8.5
		c0-2.6-0.1-5.4-0.1-8.5c-3.2-4.2-4.5-9.9-5.4-15.5c-4.6-1.1-5-1.4-5.2-3.4l-0.1-0.7l0.3-0.1c0.5-0.2,1-0.3,1.6-0.3
		c1.7,0,2.9,1,3.6,1.8c-0.6-6.9-0.8-15.1,1.7-17.4l0.5-0.4l0.3,0.6c0.3,0.5,0.6,1,0.8,1.5c1.1,1.9,2.3,3.8,1.6,7.7l-2.1,6.9
		c1.1-0.6,2.5-1,4.3-1c2,0.3,3.4,1.5,4.8,2.7c0.2,0.2,0.5,0.4,0.7,0.6l0.9,0.8l-1.2,0c-0.7,0-1.4,0.1-2.1,0.2
		c-0.8,0.1-1.6,0.2-2.5,0.2c-1.5,0-2.8-0.3-4.2-1.1l-1.3,1.1c0,5.7,1.3,10.1,4.1,13.7c0-0.6,0-1.3,0.1-2c0-2.8,0.1-6,2.7-8.8
		l0.9-0.9l-0.1,1.3c-0.1,0.9,0.2,1.9,0.5,2.8c0.3,0.9,0.6,1.9,0.6,2.8c0,1-0.6,2.2-1.1,3.3c-0.3,0.6-0.6,1.3-0.8,1.9
		c0.5-0.4,1.1-0.9,1.6-1.4c0.8-0.8,1.7-1.7,2.7-2.2c1.1-0.5,2.4-0.7,3.6-0.9c1.2-0.2,2.4-0.3,3.4-0.8l0.9-0.4l-0.3,1
		c-1.7,5.9-5.8,6.5-10.2,7.2c-0.6,0.1-1.2,0.2-1.9,0.3l0.1,0.1c3.4,3.7,5.3,5.7,2.2,13.8l-0.4,1l-0.5-0.9c-1-2-1.4-4.9-1.7-7.7
		c-0.2-1.4-0.3-2.7-0.6-3.9c-0.1,0.1-0.3,0.2-0.4,0.2l-0.1,22.7l2.3,0c0.1-0.5,0.1-1.1,0.1-1.6c0.1-3,0.1-6.4,8.8-9.8l0.6-0.2l0,0.7
		c0.1,3-2.1,5.4-4.2,7.7c-0.2,0.3-0.5,0.5-0.7,0.8c3.1-2.3,6.4-4.5,10.3-4.9l0.8-0.1l-0.3,0.7c-1.4,3.5-5.9,9-11.7,8.8
		c-0.3,0.2-0.7,0.1-1.2,0c0,0-0.1,0-0.1,0c1.4,1.4,2.1,3.5,1.9,5.6c-0.2,1.9-1.1,3.5-2.3,4.1l-0.4,0.2l-0.2-0.4
		c-0.7-1.2-0.9-2.4-1.2-3.5c-0.4-1.7-0.8-3.4-2.3-4.8c-2.6,10.2-5.8,16.5-11.9,23.4c0,0,0,0,0,0c0.4-0.1,0.8-0.1,1.3-0.2
		c0.5-0.3,1.1-0.5,1.9-0.5c0.5,0,1,0.1,1.5,0.1c0.2,0,0.4,0,0.5,0.1c-0.1-3,2.6-7.4,8-8.6l0.4-0.1l0.1,0.4c0.8,2.5-2.6,5.9-5.5,8.2
		c2.6-0.4,4.9-0.5,7,0.1l0.6,0.2l-0.3,0.5c-1,1.5-3.1,4-7,4c-2.1,0-4.4-0.8-6.8-2.3c-0.1,0-0.3,0.1-0.4,0.2c-0.1,0-0.1,0.1-0.2,0.1
		c2.6,3.3,3.7,6.4,3,8.7c-0.4,1.6-1.6,2.8-3.4,3.4l-0.5,0.2l-0.1-0.5c-0.5-1.8-0.5-3.6-0.5-5.4c0-2.5,0-4.7-1.7-6.3
		c-1.5,1.3-3.1,2.5-4.6,3.7c-1.5,1.2-3,2.4-4.5,3.6c-1,0.8-2.9,1.7-5,2.7c-1.8,0.8-3.6,1.7-4.5,2.4c0,0.4-0.2,0.7-0.3,1.1
		c-0.1,0.2-0.1,0.4-0.2,0.6c3.6-2.2,6.6-3.2,9.2-3.2c1.4,0,2.8,0.3,4.2,0.9l0.5,0.2l-0.3,0.5c-1.5,2.6-4.2,3.9-9.5,4.5
		c0.4,0.1,0.7,0.1,1.1,0.2c3.9,0.7,7.9,1.4,10,5.2l0.6,1l-1.1-0.3c-1.4-0.4-2.8-0.2-4.2,0.1c-0.9,0.2-1.8,0.4-2.8,0.4
		c-2.3,0-4.6-1.1-7.2-3.5c0.1,0.1,0.1,0.2,0.2,0.4c1.6,3.2,3,5.9-2.1,8.6L133.7,162.7z M129.1,150.4c2,0.2,3.1,1,4,2.1l0.1,0.1
		l0,0.1c0.1,1,0.4,1.8,0.7,2.8c0.5,1.6,1,3.2,0.9,5.6c3.4-2.1,2.5-3.8,0.9-6.9c-0.4-0.9-0.9-1.8-1.4-2.9l-1-2.4l1.7,1.9
		c4.2,4.6,6.7,5.2,8.4,5.2c0.9,0,1.8-0.2,2.6-0.4c1.1-0.2,2.3-0.5,3.5-0.3c-2-2.6-5.4-3.2-8.8-3.8c-1.5-0.3-2.9-0.5-4.2-0.9
		l-2.5-0.8l2.6-0.1c6.5-0.2,9.9-1.3,11.5-3.7c-1.2-0.4-2.2-0.6-3.4-0.6c-2.6,0-5.6,1.1-9.4,3.5l-0.5,0.3l-0.2-0.5
		c-0.2-0.6,0-1.2,0.2-1.8c0.1-0.4,0.2-0.8,0.3-1.1l0-0.2l0.2-0.1c1-0.8,2.9-1.7,4.9-2.6c1.9-0.9,3.9-1.9,4.8-2.6
		c1.5-1.2,3-2.4,4.5-3.6c1.6-1.3,3.3-2.6,4.9-3.9l0.3-0.2l-0.2,0l0.7-0.8c6.7-7.3,10-13.7,12.7-24.7l0.2-0.7l0.6,0.4
		c2.2,1.8,2.7,3.8,3.2,5.8c0.2,1,0.5,2,0.9,2.9c0.7-0.6,1.3-1.8,1.4-3.1c0.1-1,0.1-3.6-2.3-5.4l-0.2-0.1l0-0.2
		c0-0.3,0.1-0.4,0.2-0.5c0.3-0.3,0.9-0.2,1.5-0.1c0.1,0,0.2,0,0.3,0.1v-0.1l0.5,0c5.2,0.3,9.2-4.2,10.8-7.5c-3.7,0.7-6.9,3-10,5.3
		c-0.6,0.4-1.2,0.9-1.8,1.3l-1.9,1.4l1.2-2c0.8-1.2,1.8-2.4,2.9-3.5c1.9-2,3.7-4,3.9-6.3c-7.4,3-7.5,5.9-7.5,8.7
		c0,0.7,0,1.4-0.2,2.2l-0.1,0.4l-4,0l0.1-27.6l-0.4-0.5c-1-1.1-1.8-2.3-2.4-3.5c0.6,1.3,1.3,2.5,2.2,3.7l0.1,0.1v0.2
		c0,3.1,0.1,6,0.1,8.6c0.1,3.3,0.1,6.2,0.1,8.5c0,10.8-0.3,11.9-0.9,14c-0.2,0.8-0.5,1.8-0.8,3.6l0,0.1c-2.6,5.5-6.1,13.1-11.4,18.3
		c-7.8,6.9-13.8,11.1-18.8,13.1l-0.6,0.3l0-0.7c0-2-0.5-2-1.7-2.2c-0.2,0-0.4,0-0.6-0.1C132.8,146.1,132,148.3,129.1,150.4
		 M154.9,132.4l0.3,0.2c2.4,1.9,2.3,4.5,2.3,7.3c0,1.5,0,3.1,0.4,4.6c1.2-0.5,2.1-1.4,2.4-2.6c0.6-2.2-0.6-5.2-3.3-8.5l-1-1.1
		c-0.1,0-0.1,0-0.2,0L154.9,132.4z M158.7,132.3c0.1,0,0.2,0,0.3,0l0.1,0c2.3,1.5,4.5,2.2,6.4,2.2c3,0,4.8-1.7,5.8-3.1
		c-2.1-0.5-4.3-0.2-7,0.3l-2.6,0.4l0.6-0.4c-0.3,0-0.5,0-0.8-0.1c-0.5,0-1-0.1-1.4-0.1c-0.7,0-1.2,0.1-1.5,0.3l-0.1,0.1l-0.2,0
		c-0.5,0-0.9,0.1-1.3,0.2c-0.3,0.1-0.6,0.1-1,0.1l1.3,0.4c0.1,0,0.3-0.1,0.4-0.2C158.1,132.4,158.4,132.3,158.7,132.3 M170,123.2
		c-4.8,1.3-7.1,5.4-6.7,7.9l0.1-0.1C167.5,127.9,170,124.9,170,123.2 M169.4,80.6c0.1,0,0.5,0,0.6,0.5c0.3,1.2,0.5,2.7,0.7,4.3
		c0.3,2.2,0.5,4.6,1.2,6.3c2.3-6.7,0.7-8.5-2.4-11.8l-1.2-1.3l0.8-0.2c0.9-0.2,1.8-0.3,2.7-0.5c4-0.6,7.6-1.2,9.2-5.6
		c-0.9,0.3-1.8,0.4-2.7,0.5c-1.2,0.2-2.3,0.3-3.3,0.8c-0.9,0.4-1.7,1.2-2.5,2c-0.8,0.8-1.7,1.7-2.7,2.1l-0.7,0.3l0-0.7
		c0-1,0.5-2,1.1-3.2c0.5-1,1-2.1,1-3c0-0.8-0.2-1.6-0.5-2.5c-0.2-0.6-0.4-1.3-0.5-2c-1.7,2.3-1.7,4.9-1.7,7.3c0,1.1,0,2.1-0.2,3.2
		l-0.2,1l-0.2-0.2l0.8,2.9C169,80.7,169.2,80.6,169.4,80.6 M162,62.5c0.2,1.5,0.5,3.1,0.9,4.6c-0.2-1.5-0.3-3.2-0.3-4.9v-0.2
		l2.2-1.8l0.3,0.2c1.3,0.8,2.6,1.1,4,1.1c0.8,0,1.5-0.1,2.3-0.2c0.4,0,0.7-0.1,1.1-0.1c-1.3-1.2-2.5-2.2-4.2-2.4
		c-2.3,0.1-4,0.7-4.8,1.8L162,62.5z M156.8,59.1c0.1,1.4,0.2,1.5,4.8,2.6l0.3,0.1l0,0.3c0,0.1,0,0.2,0,0.3l0.3-1c0,0,0,0.1-0.1,0.1
		l-0.1,0.1l-0.2,0c-0.3,0-0.4-0.2-0.7-0.6c-0.6-0.7-1.7-2.1-3.4-2.1C157.4,58.9,157.1,59,156.8,59.1 M163.2,43.6
		c-1.5,2.2-1.8,8.3-0.9,17.2c0,0.1,0,0.2,0,0.2l2.9-9.5c0.7-3.5-0.3-5.1-1.4-7C163.6,44.3,163.4,43.9,163.2,43.6"/>
	<path id="XMLID_453_" class="st1" d="M101.6,144.9c-18.9,0-34.7-18.8-35.2-42c-0.3-11.4,3.1-22.2,9.5-30.4
		c6.4-8.2,15.1-12.9,24.4-13.1c19.1-0.4,35.3,18.6,35.8,42c0.3,11.4-3.1,22.2-9.5,30.4c-6.4,8.2-15.1,12.9-24.4,13.1
		C102,144.9,101.8,144.9,101.6,144.9 M100.9,60.2c-0.2,0-0.4,0-0.6,0c-9,0.2-17.5,4.7-23.7,12.8c-6.2,8.1-9.5,18.7-9.3,29.8
		c0.5,22.9,16.3,41.5,34.9,41.1c9-0.2,17.5-4.7,23.7-12.8c6.3-8,9.5-18.6,9.3-29.8C134.7,78.7,119.3,60.2,100.9,60.2"/>
	<path id="XMLID_67_" class="st6" d="M74.6,150.2c-3.5-2.6-4.2-4.6-3.6-10.1c-1.9,0.3-3-0.5-3.3,2.6c-5.4-2.6-11.2-7.9-17.1-14
		c-4.5-5.2-7.4-12.4-9.8-18.7c-0.7-6.4-1.4-2.7-0.5-17.5c0.2-4,0.7-10,1.2-17c3.3-4,4.9-9.5,6.1-15.4c5.1-1,4.8-1.2,5.1-3.1
		c-3.6-1.6-5.7,3.2-5.5,1.9c1.1-6.6,2-15.7-0.3-18.1c-1.4,2.5-3.3,4.1-2.8,8.8l2,8.6c-0.8-1.2-2.3-2-4.9-2.2
		c-2.1,0.2-3.5,1.6-5.2,2.9c2.7,0.2,5,1.5,8.5-0.3l1.6,1.5c-0.3,5.2-1.5,10.5-5.6,14.8c-0.3-3.6,1.2-7.9-2-11.7
		c0,1.9-1.3,3.9-1.4,5.6c-0.1,1.8,1.7,4.5,1.6,6.2c-1.7-0.9-2.9-3.3-4.7-4.3c-2-1.1-4.6-0.9-6.6-2c1.4,6.8,6.5,6.6,11.6,8
		c-3.8,3.8-6,5.4-3.4,13.9c1.7-3,2-8.3,2.9-11.6c0.2-0.7,1,0.8,1.2,0.1l-1.3,23.8l-3-0.2c-0.4-3.7,2.1-7.3-7.6-11.9
		c-0.3,4.3,4,7.5,6,11.2c-3.6-3-7.2-6.7-11.8-7.5c1.2,3.9,5.3,9.2,10.6,9.1c0,0.5,2-0.5,1.9,0.3c-3.8,2.7-3.1,8.3-1,9.6
		c1.8-2.9,1.2-6.3,4.6-8.7c2,11.4,4.9,18,10.8,25.5c-0.9-0.1-1.5-0.4-2.5-0.5c-1-0.9-3.1-0.4-4.2-0.5c0.7-2.9-1.7-7.6-6.7-9
		c-0.9,2.2,2.5,6.1,5.9,9.1c-3.1-0.7-5.5-1.3-8.2-0.7c1.2,2.2,4.8,6.7,12.6,2.2c0.5-0.1,1,0.6,1.5,0.5c-5.2,5.7-4.9,10.3-1,11.9
		c1.6-4.6-0.3-9.4,3.3-12c2.9,2.8,5.8,5.3,8.6,8c1.7,1.6,7.2,4.1,9,5.7c0,1,0.6,2.1,0.3,2.8c-5.7-4.3-9.3-4.8-13-3.5
		c1.5,3.1,4.9,4.5,11.4,5.1c-4.5,1.2-10.7,0.3-13.6,5.1c4.9-1.3,6.9,4.8,15.5-4c-2.2,4.8-5.7,7.3-0.1,10.8c-0.3-4.3,1.4-6.1,1.9-9
		C70.7,150.8,71.9,150,74.6,150.2"/>
	<path id="XMLID_442_" class="st1" d="M68.3,161.8l-0.8-0.5c-4.8-3-3.3-5.5-1.5-8.6c0.1-0.1,0.1-0.2,0.2-0.3
		c-2.5,2.1-4.6,3.1-6.6,3.1c-1.1,0-2.1-0.3-3.1-0.6c-1.3-0.4-2.6-0.7-4-0.3l-1.1,0.3l0.6-1c2.3-3.6,6.3-4.2,9.9-4.6
		c0.4,0,0.7-0.1,1.1-0.1c-5-0.8-7.6-2.3-8.8-5l-0.2-0.5l0.5-0.2c1.2-0.4,2.4-0.6,3.6-0.6c2.7,0,5.6,1.2,9.2,3.7
		c0-0.2-0.1-0.4-0.1-0.6c-0.1-0.4-0.2-0.7-0.2-1.1c-0.9-0.8-2.6-1.7-4.2-2.6c-1.9-1.1-3.7-2.1-4.6-3c-1.3-1.3-2.7-2.6-4.1-3.8
		c-1.4-1.3-2.8-2.6-4.2-3.9c-1.7,1.5-1.9,3.7-2,6.2c-0.1,1.7-0.2,3.5-0.8,5.3l-0.2,0.5l-0.5-0.2c-1.7-0.7-2.7-1.9-3.1-3.5
		c-0.5-2.4,0.7-5.5,3.4-8.6c-0.1,0-0.1-0.1-0.2-0.1c-0.1-0.1-0.3-0.2-0.4-0.2c-2.2,1.3-4.3,1.9-6.2,1.9c-3.9,0-6-2.8-6.9-4.4
		l-0.3-0.5l0.6-0.1c2.1-0.5,4.3-0.3,6.7,0.3c-2.6-2.5-5.7-6.1-4.8-8.5l0.2-0.4l0.4,0.1c5,1.5,7.4,6,7.1,9c0.2,0,0.3,0,0.5,0
		c0.3,0,0.6,0,1,0c0.8,0,1.7,0.1,2.3,0.6c0.5,0.1,0.9,0.1,1.2,0.2h0c-5.4-7.2-8.1-13.7-10-24c-1.5,1.4-2,3-2.5,4.7
		c-0.3,1.2-0.7,2.3-1.4,3.5l-0.2,0.4l-0.4-0.2c-1.1-0.6-1.9-2.3-2-4.2c-0.1-2.2,0.7-4.2,2.2-5.6c0,0,0,0-0.1,0
		c-0.2,0-0.5,0.1-0.6,0.1c-0.1,0-0.3,0-0.5-0.2c-5.7-0.2-9.6-5.9-10.7-9.5l-0.2-0.7l0.7,0.1c3.7,0.6,6.6,3,9.5,5.4
		c-0.2-0.3-0.4-0.5-0.6-0.8c-1.9-2.4-3.8-4.8-3.5-7.9l0.1-0.7l0.6,0.3c8.1,3.8,8,7.3,7.8,10.3c0,0.6,0,1.1,0,1.6l2.1,0.1l1.3-22.7
		c-0.1-0.1-0.2-0.1-0.3-0.2c-0.3,1.1-0.5,2.4-0.8,3.8c-0.5,2.8-1,5.6-2.1,7.6l-0.5,0.9l-0.3-1c-2.5-8.3-0.6-10.2,2.9-13.7l0.1-0.1
		c-0.6-0.1-1.2-0.3-1.8-0.4c-4.2-0.9-8.2-1.8-9.4-7.7l-0.2-1l0.9,0.5c1,0.5,2,0.7,3.2,1c1.2,0.2,2.4,0.5,3.4,1.1
		c1,0.5,1.7,1.4,2.5,2.3c0.5,0.5,0.9,1,1.4,1.5c-0.1-0.6-0.4-1.2-0.6-1.9c-0.4-1.2-0.9-2.3-0.9-3.4c0-0.9,0.4-1.9,0.7-2.8
		c0.3-0.9,0.7-1.9,0.7-2.8l0-1.3l0.8,1c2.4,2.9,2.2,6.1,2.1,9c0,0.7-0.1,1.3-0.1,1.9c2.9-3.4,4.4-7.7,4.7-13.4l-1.2-1.2
		c-1.2,0.6-2.4,0.9-3.6,0.9c-1,0-1.9-0.2-2.8-0.4c-0.7-0.1-1.3-0.3-2-0.3l-1.2-0.1l0.9-0.7c0.3-0.2,0.5-0.4,0.7-0.6
		c1.4-1.2,2.8-2.3,4.7-2.4c1.8,0.1,3.1,0.5,4.1,1.2l-1.6-7c-0.5-4,0.7-5.9,1.9-7.7c0.3-0.5,0.6-0.9,0.9-1.4l0.3-0.6l0.4,0.5
		c2.3,2.5,1.6,10.6,0.6,17.4c0.7-0.7,1.9-1.6,3.3-1.6c0.6,0,1.1,0.1,1.7,0.4l0.3,0.1l-0.1,0.6c-0.3,2-0.7,2.3-5.2,3.2
		c-1.2,5.5-2.8,11.2-6.1,15.2c-0.2,3-0.4,5.9-0.6,8.5c-0.2,3.3-0.5,6.2-0.6,8.4c-0.6,10.6-0.4,11.7,0,13.8c0.2,0.8,0.4,1.8,0.5,3.6
		c2.1,5.6,5,13.2,9.7,18.5c6.7,6.9,11.9,11.2,16.4,13.6c0.3-2,1.2-2.2,2.5-2.2c0.3,0,0.7,0,1.1-0.1l0.6-0.1l-0.1,0.6
		c-0.5,5.4,0.1,7.2,3.5,9.7l1.2,0.9l-1.5-0.1c-2.6-0.1-3.7,0.7-4.5,1.5c-0.2,1-0.5,1.9-0.8,2.7c-0.6,1.7-1.2,3.4-1.1,6.1L68.3,161.8
		z M69.4,147.9l-1.1,2.4c-0.5,1-1,2-1.5,2.8c-1.7,3-2.7,4.7,0.5,6.9c0-2.4,0.6-4,1.1-5.5c0.3-0.9,0.6-1.7,0.8-2.7l0-0.1l0.1-0.1
		c1-1,2-1.7,4-1.9c-2.6-2.2-3.2-4.4-2.8-9.1c-0.2,0-0.4,0-0.6,0c-1.2,0-1.6,0.1-1.7,2.1l-0.1,0.7l-0.6-0.3
		c-4.7-2.3-10.2-6.8-17.2-14.1c-4.8-5.5-7.7-13.2-9.9-18.9l0-0.1c-0.2-1.8-0.4-2.7-0.5-3.6c-0.4-2.2-0.6-3.3,0-14
		c0.1-2.3,0.3-5.1,0.6-8.4c0.2-2.6,0.4-5.5,0.6-8.6l0-0.1l0.1-0.1c0.8-0.9,1.5-2,2.1-3.1c-0.7,1-1.4,2-2.3,2.9l-0.5,0.5l-1.5,27.5
		l-3.8-0.2l0-0.4c-0.1-0.7-0.1-1.4,0-2.2c0.1-2.9,0.2-5.7-6.7-9.1c0.1,2.4,1.7,4.4,3.4,6.5c0.9,1.2,1.9,2.4,2.6,3.7l1.1,2.1
		l-1.8-1.5c-0.5-0.5-1.1-0.9-1.6-1.4c-2.8-2.4-5.7-4.9-9.2-5.8c1.4,3.6,5.1,8.1,9.8,8.1h0.5l0,0.1c0.1,0,0.2,0,0.3,0
		c0.3,0,0.5-0.1,0.8-0.1c0.1,0,0.5,0,0.7,0.3c0.1,0.1,0.2,0.3,0.2,0.6l0,0.2l-0.2,0.1c-1.7,1.2-2.6,3.2-2.5,5.4
		c0.1,1.3,0.5,2.5,1.1,3.1c0.5-0.9,0.7-1.8,1-2.8c0.6-2,1.2-4,3.4-5.6l0.6-0.4l0.1,0.7c1.9,11.1,4.7,17.7,10.7,25.3l0.6,0.8l-0.2,0
		l0.3,0.3c1.5,1.4,3,2.8,4.5,4.2c1.4,1.2,2.8,2.5,4.1,3.8c0.8,0.8,2.7,1.8,4.4,2.8c1.9,1.1,3.6,2.1,4.5,2.9l0.1,0.1l0,0.2
		c0,0.3,0.1,0.7,0.2,1.1c0.2,0.6,0.3,1.3,0.1,1.8l-0.2,0.5l-0.5-0.3c-3.8-2.8-6.6-4-9.3-4c-0.9,0-1.8,0.1-2.7,0.4
		c1.4,2.5,4.6,3.8,10.8,4.3l2.5,0.2l-2.4,0.7c-1.3,0.3-2.7,0.5-4.1,0.7c-3.2,0.4-6.5,0.8-8.6,3.3c1.2-0.1,2.3,0.2,3.3,0.5
		c0.9,0.3,1.8,0.5,2.8,0.5c1.5,0,3.9-0.5,8-4.7L69.4,147.9z M48.7,130.3l-1,1.1c-2.9,3.1-4.2,6.1-3.7,8.4c0.2,1.1,1,2,2.1,2.6
		c0.4-1.5,0.5-3.1,0.6-4.6c0.2-2.8,0.3-5.4,2.7-7.2l0.3-0.2l-0.8-0.1C48.8,130.3,48.8,130.3,48.7,130.3 M34,128.6
		c0.9,1.5,2.7,3.4,5.8,3.4c1.7,0,3.7-0.6,5.9-1.9l0.1,0c0.4-0.1,0.8,0.1,1.1,0.3c0.1,0.1,0.3,0.2,0.4,0.2l1.3-0.3
		c-0.3-0.1-0.6-0.1-0.9-0.2c-0.4-0.1-0.8-0.2-1.2-0.2l-0.2,0l-0.1-0.1c-0.4-0.4-1.3-0.4-1.8-0.4c-0.3,0-0.6,0-0.9,0
		c-0.3,0-0.5,0-0.7,0l0.6,0.5l-2.4-0.5C38.2,128.7,36,128.3,34,128.6 M35.9,120.4c-0.2,1.7,2,4.8,5.9,8.2l0,0
		C42.3,126.1,40.3,122,35.9,120.4 M28.2,69.1c1.3,4.6,4.6,5.3,8.5,6.1c0.8,0.2,1.7,0.4,2.6,0.6l0.8,0.2l-1.2,1.2
		c-3.2,3.2-4.9,4.8-3,11.6c0.7-1.7,1.1-4,1.5-6.2c0.3-1.5,0.5-3,0.9-4.2c0.2-0.5,0.5-0.5,0.6-0.5c0.3,0,0.5,0.2,0.7,0.3l0.9-2.8
		l-0.2,0.2l-0.1-1c-0.1-1,0-2.1,0-3.2c0.1-2.5,0.2-5-1.2-7.4c-0.1,0.6-0.4,1.3-0.6,1.9c-0.3,0.9-0.6,1.7-0.7,2.5
		c0,0.8,0.4,1.9,0.8,3c0.4,1.2,0.9,2.3,0.8,3.2l0,0.7l-0.7-0.4c-0.9-0.5-1.7-1.4-2.5-2.2c-0.7-0.8-1.4-1.6-2.3-2.1
		c-0.9-0.5-2-0.7-3.1-1C29.9,69.6,29,69.4,28.2,69.1 M44.6,57.7l2,1.9l0,0.2c-0.1,1.5-0.2,3-0.5,4.4c0.4-1.3,0.7-2.7,1-4l-1.3-2.1
		c-0.7-1.2-2.3-1.8-4.5-2c-1.5,0.1-2.7,1.1-4,2.2c0.3,0.1,0.7,0.1,1,0.2c0.9,0.2,1.7,0.3,2.7,0.3c1.2,0,2.3-0.3,3.5-0.9L44.6,57.7z
		 M46.9,59.2l0.2,0.9c0-0.1,0-0.1,0-0.2l0.1-0.3l0.3-0.1c4.4-0.9,4.5-1,4.7-2.4c-0.3-0.1-0.7-0.2-1-0.2c-1.5,0-2.6,1.2-3.2,1.9
		c-0.3,0.4-0.5,0.5-0.7,0.5h-0.2L46.9,59.2C46.9,59.2,46.9,59.2,46.9,59.2 M47,41.4c-0.2,0.3-0.4,0.6-0.6,0.9
		c-1.2,1.8-2.2,3.4-1.8,7l2.2,9.4c0,0,0-0.1,0-0.1C48.2,49.7,48.3,43.7,47,41.4"/>
	<polygon id="XMLID_57_" class="st2" points="129.6,77.5 154.7,57.4 160.4,55.4 162,48.4 154.7,51.2 152.7,55.1 128.7,75.5 	"/>
	<path id="XMLID_438_" class="st1" d="M129.4,78.3l-1.2-2.9l24.2-20.5l2.1-3.9l8.3-3.3l-1.8,8.1l-5.9,2L129.4,78.3z M129.3,75.6
		l0.5,1.2l24.8-19.9L160,55l1.3-5.9l-6.3,2.5l-2.1,3.9L129.3,75.6z"/>
	<polygon id="XMLID_54_" class="st2" points="77.2,72.4 54.7,53.3 49.7,51.6 48,44.6 54.4,47.2 56.4,51 77.8,70.3 	"/>
	<path id="XMLID_434_" class="st1" d="M77.4,73.2l-23-19.5l-5.1-1.8l-1.9-8l7.4,3l2,3.9l21.6,19.5L77.4,73.2z M50.1,51.2L55,53
		l22,18.6l0.4-1.1L55.9,51.2l-1.9-3.6l-5.4-2.2L50.1,51.2z"/>
	<polygon id="XMLID_51_" class="st1" points="117,107.7 116.9,106.8 121.6,106.7 121.6,107.6 	"/>
	<path id="XMLID_50_" class="st1" d="M122.5,137.7c5.4-5.3,10.2-12,14.1-22.3c-1.7,9.2-5.8,16-11.3,22.5
		C124.3,137.6,123.3,137.8,122.5,137.7"/>
	<path id="XMLID_49_" class="st1" d="M128.2,137.5c4.6-5.3,8.4-11.8,11.1-21.6c-0.8,8.6-3.8,15-8.4,21.4
		C130.1,137.2,129,137.5,128.2,137.5"/>
	<path id="XMLID_48_" class="st1" d="M133.7,136.5c4.1-4.9,7.4-10.7,9.7-19.6c-0.6,7.8-2.8,12.8-6.9,18.7
		C135.7,135.5,134.4,136.5,133.7,136.5"/>
	<path id="XMLID_47_" class="st1" d="M139.7,134.3c3.3-4.5,6.4-9.5,7.8-17.5c0,7-1.8,10.5-4.6,15.9
		C142.2,132.7,140.3,134.3,139.7,134.3"/>
	<path id="XMLID_46_" class="st1" d="M146.4,130.4c1.6-3.2,4.3-7.2,4.4-12.5c0.7,4.5-0.7,6.9-1.9,10.6
		C148.4,128.5,146.8,130.3,146.4,130.4"/>
	<path id="XMLID_45_" class="st1" d="M151.7,125.2c1.4-3.3,4-8.9,4-14.2c1.1,4.4-0.3,7.8-1.2,11.6
		C154.1,122.7,152.1,125.1,151.7,125.2"/>
	<path id="XMLID_44_" class="st1" d="M129.5,75.1c-0.5-2.9-3.3-5.3-5.8-8.9c3.1,2.1,6.3,4.5,7.1,7.6
		C130.6,74.1,129.7,74.9,129.5,75.1"/>
	<polygon id="XMLID_43_" class="st6" points="82.8,160.1 130,149.2 130.9,150.8 83.7,161.8 	"/>
	<path id="XMLID_422_" class="st1" d="M83.4,162.3l-1.3-2.5l48.1-11.2l1.3,2.5L83.4,162.3z M83.5,160.4l0.4,0.8l46.3-10.7l-0.4-0.8
		L83.5,160.4z"/>
	<path id="XMLID_40_" class="st1" d="M132.1,72.8c-1.1-4.1-1.1-2.8-5-7.5c4,3.4,5.1,3.3,6.7,5.5C133.4,71.1,132.3,72.4,132.1,72.8"
		/>
	<path id="XMLID_39_" class="st1" d="M135.3,69.7c-0.8-1.3-2.6-2.8-5.6-5.1c2.9,1,5.2,2.2,6.9,4.1C136.4,68.9,135.5,69.4,135.3,69.7
		"/>
	<path id="XMLID_38_" class="st1" d="M137.9,67.9c-1-1.7-2.2-2.1-5-4.6c3.5,0.9,4,1.4,6.3,3.4C138.9,67.1,138.1,67.6,137.9,67.9"/>
	<path id="XMLID_37_" class="st1" d="M139.9,66.2c-1-1.9-1.8-2.3-4.4-4.2c2.5,1.2,4.5,1,5.9,2.9C141.2,65.1,140,65.9,139.9,66.2"/>
	<path id="XMLID_36_" class="st1" d="M142.2,64.2c-1.2-1.8-0.9-1.2-3.5-3.1c2.6,1,2.8,0.3,4.3,2.1C142.9,63.5,142.3,64,142.2,64.2"
		/>
	<path id="XMLID_35_" class="st1" d="M143.9,62.2c-0.9-1.3-0.7-0.9-2.6-2.3c1.9,0.7,2.1,0.2,3.2,1.5C144.5,61.7,144,62,143.9,62.2"
		/>
	<path id="XMLID_34_" class="st1" d="M77.1,69.5c0.5-2.2,3-4,5.2-6.6c-2.6,1.5-5.5,3.1-6.3,5.6C76.2,68.7,76.9,69.3,77.1,69.5"/>
	<path id="XMLID_33_" class="st1" d="M75,67.6c1.1-3.1,1-2.1,4.5-5.6c-3.5,2.4-4.4,2.3-5.8,3.9C74,66.2,74.8,67.3,75,67.6"/>
	<path id="XMLID_32_" class="st1" d="M72.5,65c0.8-0.9,2.3-2,4.9-3.7c-2.5,0.6-4.4,1.4-5.9,2.9C71.6,64.4,72.3,64.8,72.5,65"/>
	<path id="XMLID_31_" class="st1" d="M70.4,63.5c0.9-1.3,1.9-1.5,4.3-3.3c-3,0.5-3.4,0.9-5.4,2.3C69.6,62.9,70.2,63.3,70.4,63.5"/>
	<path id="XMLID_30_" class="st1" d="M68.8,62.1c0.9-1.4,1.6-1.7,3.9-3c-2.1,0.8-3.8,0.6-5,1.9C67.8,61.2,68.8,61.9,68.8,62.1"/>
	<polygon id="XMLID_29_" class="st6" points="72.9,148.6 117.2,161.7 116.5,163.5 72.1,150.3 	"/>
	<path id="XMLID_407_" class="st1" d="M116.8,164l-45.3-13.4l1.1-2.5l0.4,0.1l44.8,13.2L116.8,164z M72.8,150l43.5,12.9l0.3-0.9
		l-43.4-12.8L72.8,150z"/>
	<path id="XMLID_26_" class="st1" d="M67,60.5c1.1-1.3,0.8-0.9,3.1-2.2c-2.2,0.6-2.3,0.1-3.7,1.4C66.5,59.9,67,60.3,67,60.5"/>
	<path id="XMLID_25_" class="st1" d="M65.7,58.8c0.8-1,0.6-0.7,2.3-1.6c-1.6,0.5-1.7,0.1-2.8,1C65.2,58.4,65.6,58.7,65.7,58.8"/>
	<path id="XMLID_24_" class="st1" d="M77.6,137c-4.7-5.3-9.3-12.4-12.7-22.7c1.6,9.2,5.1,16.1,9.9,22.6
		C75.6,136.7,76.9,137.1,77.6,137"/>
	<path id="XMLID_23_" class="st1" d="M72.6,136.8c-4-5.3-7.6-12-10-21.9c0.8,8.7,3.4,15.1,7.4,21.6
		C70.7,136.3,71.9,136.8,72.6,136.8"/>
	<path id="XMLID_22_" class="st1" d="M67.7,135.7c-3.5-4.9-6.4-10.7-8.5-19.7c0.6,7.8,2.5,12.9,6.1,18.8
		C65.9,134.7,67.1,135.7,67.7,135.7"/>
	<path id="XMLID_21_" class="st1" d="M62.5,133.1c-2.8-4.5-5.6-9.2-6.9-17.3c0.1,7,1.7,10.6,4.1,16
		C60.3,131.8,61.9,133.1,62.5,133.1"/>
	<path id="XMLID_20_" class="st1" d="M56.2,129.1c-1.4-3.2-3.3-6.8-3.4-12.2c-0.6,4.5,0.1,7,1.2,10.7
		C54.4,127.6,55.9,129,56.2,129.1"/>
	<path id="XMLID_19_" class="st1" d="M52.2,124.8c-1.2-3.3-3.4-8.1-3.5-13.4c-0.9,4.4,0.1,6.1,0.9,9.9
		C50,121.4,51.9,124.7,52.2,124.8"/>
	<polygon id="XMLID_18_" class="st2" points="81.7,143.9 126.1,150.9 125.6,153 81,145.8 	"/>
	<path id="XMLID_395_" class="st1" d="M125.9,153.5l-45.5-7.4l1-2.7l45.4,7.1L125.9,153.5z M81.6,145.4l43.6,7.1l0.3-1.2L82,144.4
		L81.6,145.4z"/>
	<polygon id="XMLID_15_" class="st2" points="76.3,152.5 120.9,146.6 120.9,144.8 76.2,150.6 	"/>
	<path id="XMLID_391_" class="st1" d="M75.9,153l-0.2-2.8l45.6-5.9l0.1,2.7L75.9,153z M76.7,151l0.1,0.9l43.7-5.8l0-0.8L76.7,151z"
		/>
	<path id="XMLID_12_" class="st5" d="M75.2,139c-1.1,2.1-1.5,6.5,1.1,6.8c3.3,0.5,3.8-4.7,2.9-6.4c3.4,1.9,2.4,6.1,1.1,7.7
		c-1.3,1.1-2.6,1.4-4.1,1.5c-2.5-0.6-2.4-1.5-3.6-2.8C72.1,143.8,72,140.2,75.2,139"/>
	<path id="XMLID_387_" class="st1" d="M76.2,149.1L76.2,149.1c-2.1-0.5-2.6-1.2-3.2-2.1c-0.2-0.3-0.4-0.6-0.7-0.9l-0.1-0.2
		c-0.3-1.4-1.1-5.9,2.9-7.4l1.2-0.4l-0.6,1.1c-0.8,1.4-1.1,3.9-0.5,5.2c0.3,0.5,0.7,0.8,1.2,0.9c0.9,0.1,1.6-0.2,2.1-1.1
		c0.8-1.4,0.8-3.7,0.3-4.7l-0.7-1.4l1.4,0.7c1.3,0.7,2.2,1.8,2.4,3.3c0.4,1.9-0.3,4-1.2,5.2C79.2,148.7,77.9,149,76.2,149.1
		L76.2,149.1z M73.1,145.6c0.3,0.3,0.5,0.6,0.7,0.9c0.6,0.8,0.9,1.3,2.5,1.7c1.4-0.1,2.5-0.4,3.7-1.4c0.7-0.9,1.3-2.7,1-4.3
		c-0.1-0.7-0.5-1.3-0.9-1.8c0.2,1.3,0,3-0.7,4.2c-0.7,1.1-1.7,1.7-3,1.5c-0.9-0.1-1.5-0.6-1.9-1.4c-0.7-1.3-0.5-3.3-0.1-4.8
		C72.4,141.6,72.8,144.5,73.1,145.6"/>
	<path id="XMLID_9_" class="st5" d="M123.2,139.5c-0.9,2.1-1,6.6,1.7,6.7c3.3,0.2,3.4-5,2.3-6.6c3.6,1.6,2.9,5.9,1.7,7.6
		c-1.2,1.2-2.4,1.6-3.9,1.8c-2.5-0.3-2.6-1.3-3.9-2.5C120.6,144.6,120.1,141,123.2,139.5"/>
	<path id="XMLID_383_" class="st1" d="M125.1,149.6L125.1,149.6c-2.1-0.3-2.7-1-3.4-1.8c-0.2-0.3-0.5-0.5-0.8-0.8l-0.1-0.2
		c-0.4-1.3-1.6-5.8,2.2-7.6l1.1-0.5l-0.5,1.1c-0.6,1.5-0.8,4,0,5.3c0.3,0.5,0.7,0.8,1.3,0.8h0.1c0.8,0,1.4-0.4,1.8-1.1
		c0.8-1.5,0.5-3.9,0-4.8l-0.8-1.3l1.4,0.6c1.4,0.6,2.3,1.7,2.7,3c0.5,1.9,0,4.1-0.8,5.2C128.1,148.8,126.7,149.3,125.1,149.6
		L125.1,149.6z M121.6,146.3c0.3,0.3,0.6,0.6,0.8,0.9c0.6,0.7,1,1.2,2.7,1.5c1.4-0.2,2.5-0.6,3.6-1.7c0.6-0.9,1.1-2.8,0.6-4.4
		c-0.2-0.7-0.6-1.3-1.1-1.8c0.3,1.4,0.2,3.1-0.5,4.4c-0.6,1.1-1.5,1.6-2.6,1.6l-0.2,0c-0.9,0-1.6-0.5-2.1-1.3
		c-0.8-1.2-0.8-3.2-0.5-4.8C120.6,142.3,121.3,145.2,121.6,146.3"/>
	<path id="XMLID_6_" class="st2" d="M77.3,136.8c1.3,0,2.4,1,2.5,2.3c0,1.3-1,2.4-2.3,2.4c-1.3,0-2.4-1-2.5-2.3
		C74.9,137.9,76,136.9,77.3,136.8"/>
	<path id="XMLID_379_" class="st1" d="M77.4,142c-1.5,0-2.8-1.2-2.9-2.8c0-0.8,0.3-1.5,0.8-2c0.5-0.5,1.2-0.9,2-0.9h0
		c1.6,0,2.9,1.2,2.9,2.8C80.3,140.7,79,142,77.4,142L77.4,142z M77.4,137.3c-0.6,0-1,0.2-1.4,0.6c-0.4,0.4-0.5,0.9-0.5,1.4
		c0,1,0.9,1.9,1.9,1.9v0.5l0-0.5c1.1,0,1.9-0.9,1.9-2C79.3,138.1,78.4,137.3,77.4,137.3"/>
	<path id="XMLID_3_" class="st2" d="M125.3,137.8c1.3,0,2.4,1,2.5,2.3c0,1.3-1,2.4-2.4,2.4c-1.3,0-2.4-1-2.5-2.3
		C122.9,138.9,124,137.8,125.3,137.8"/>
	<path id="XMLID_375_" class="st1" d="M125.4,143c-1.5,0-2.8-1.2-2.9-2.8c0-0.8,0.3-1.5,0.8-2c0.5-0.5,1.2-0.9,2-0.9
		c1.6,0,2.9,1.2,2.9,2.8c0,0.8-0.3,1.5-0.8,2C126.9,142.7,126.2,143,125.4,143L125.4,143z M125.4,138.3c-0.6,0-1,0.2-1.4,0.6
		c-0.4,0.4-0.5,0.9-0.5,1.4c0,1,0.9,1.9,1.9,1.9v0.5l0-0.5c0.5,0,1-0.2,1.4-0.6c0.3-0.4,0.5-0.9,0.5-1.4
		C127.3,139.1,126.4,138.3,125.4,138.3"/>
</g>
</svg>
