<?xml version="1.0" encoding="utf-8"?>
<!-- Generator: Adobe Illustrator 19.0.0, SVG Export Plug-In . SVG Version: 6.00 Build 0)  -->
<svg version="1.1" id="Camada_1" xmlns="http://www.w3.org/2000/svg" xmlns:xlink="http://www.w3.org/1999/xlink" x="0px" y="0px"
	 viewBox="0 0 656.5 282.1" style="enable-background:new 0 0 656.5 282.1;" xml:space="preserve">
<style type="text/css">
	.st0{fill:#FFFFFF;}
</style>
<g>
	<g>
		<g>
			<g>
				<path class="st0" d="M317.8,146.3h-22c-1.5,0-2.8-1.2-2.8-2.8v-35.5c0-1.5,1.2-2.8,2.8-2.8h22c1.5,0,2.8,1.2,2.8,2.8v35.5
					C320.5,145.1,319.3,146.3,317.8,146.3z"/>
			</g>
			<g>
				<path class="st0" d="M361,146.3h-22c-1.5,0-2.8-1.2-2.8-2.8v-35.5c0-1.5,1.2-2.8,2.8-2.8h22c1.5,0,2.8,1.2,2.8,2.8v35.5
					C363.8,145.1,362.6,146.3,361,146.3z"/>
			</g>
		</g>
		<g>
			<g>
				<path class="st0" d="M465.8,146.2L334,14.4c-3.4-3.4-8.8-3.4-12.2,0l-8.2,8.2l0,0L190.9,145.3c-1.6,1.6-1.7,4.3-0.1,6l8,8.4
					c1.7,1.7,4.4,1.8,6.1,0.1L321.9,43c3.4-3.4,8.8-3.4,12.2,0l117.3,117.3c1.7,1.7,4.3,1.7,6,0l8.3-8.1
					C467.5,150.6,467.5,147.9,465.8,146.2z"/>
			</g>
		</g>
	</g>
	<g>
		<path class="st0" d="M264.3,98.8h-18.8c-1.7,0-3.1-1.4-3.1-3.1v-28c0-1.7,1.4-3.1,3.1-3.1h18.8c1.7,0,3.1,1.4,3.1,3.1v28
			C267.4,97.4,266,98.8,264.3,98.8z"/>
	</g>
	<g>
		<g>
			<path class="st0" d="M529.2,149.8H513c-1.5,0-2.8-1.2-2.8-2.8v-27c0-1.5,1.2-2.8,2.8-2.8h16.3c1.5,0,2.8,1.2,2.8,2.8v27
				C532,148.6,530.7,149.8,529.2,149.8z"/>
		</g>
		<g>
			<path class="st0" d="M563.5,149.8h-16.3c-1.5,0-2.8-1.2-2.8-2.8v-27c0-1.5,1.2-2.8,2.8-2.8h16.3c1.5,0,2.8,1.2,2.8,2.8v27
				C566.2,148.6,565,149.8,563.5,149.8z"/>
		</g>
	</g>
	<g>
		<path class="st0" d="M486.8,112.2h-13.6c-1.7,0-3.1-1.4-3.1-3.1V84.8c0-1.7,1.4-3.1,3.1-3.1h13.6c1.7,0,3.1,1.4,3.1,3.1v24.3
			C489.9,110.8,488.5,112.2,486.8,112.2z"/>
	</g>
	<g>
		<g>
			<path class="st0" d="M108.7,149.8H92.4c-1.5,0-2.8-1.2-2.8-2.8v-27c0-1.5,1.2-2.8,2.8-2.8h16.3c1.5,0,2.8,1.2,2.8,2.8v27
				C111.4,148.6,110.2,149.8,108.7,149.8z"/>
		</g>
		<g>
			<path class="st0" d="M142.9,149.8h-16.3c-1.5,0-2.8-1.2-2.8-2.8v-27c0-1.5,1.2-2.8,2.8-2.8h16.3c1.5,0,2.8,1.2,2.8,2.8v27
				C145.7,148.6,144.4,149.8,142.9,149.8z"/>
		</g>
	</g>
	<g>
		<path class="st0" d="M66.3,112.2H52.7c-1.7,0-3.1-1.4-3.1-3.1V84.8c0-1.7,1.4-3.1,3.1-3.1h13.6c1.7,0,3.1,1.4,3.1,3.1v24.3
			C69.4,110.8,68,112.2,66.3,112.2z"/>
	</g>
	<g>
		<path class="st0" d="M218.7,142l-96.9-96.9c-2.5-2.5-6.5-2.5-9,0l-6.8,6.8l0,0L8.5,149.4c-1.1,1.1-1.1,2.9,0,4.1l7,7.3
			c1.1,1.2,3,1.2,4.2,0.1l93.2-93.2c2.5-2.5,6.5-2.5,9,0l85.6,85.6c1.1,1.1,3,1.1,4.1,0l7.2-7.2C219.8,145,219.8,143.2,218.7,142z"
			/>
	</g>
	<g>
		<path class="st0" d="M543.4,46.2c-3.1-3.1-8.1-3.1-11.2,0l-5.7,5.7l0,0L438,140.5c-1.8,1.8-1.8,4.6,0,6.4l4.9,4.9
			c1.8,1.8,4.6,1.8,6.4,0l83-83c3.1-3.1,8.1-3.1,11.2,0l91.3,91.3c1.7,1.7,4.6,1.8,6.3,0.1l5-4.8c1.8-1.8,1.8-4.6,0.1-6.4
			L543.4,46.2z"/>
	</g>
	<g>
		<ellipse class="st0" cx="254.9" cy="47.1" rx="15.6" ry="15.3"/>
	</g>
	<g>
		<ellipse class="st0" cx="59.5" cy="67.3" rx="12.7" ry="12.4"/>
	</g>
	<g>
		<ellipse class="st0" cx="479.7" cy="67.5" rx="12.7" ry="12.4"/>
	</g>
</g>
<g>
	<path class="st0" d="M129.6,198.1c0,2.1,0.7,3.9,2.1,5.2c1.4,1.4,3.2,2.5,5.5,3.4c2.3,0.9,4.9,1.8,7.8,2.4c2.9,0.7,6,1.4,9.1,2.2
		c3.1,0.8,6.2,1.7,9.2,2.8s5.8,2.5,8.3,4.2c2.5,1.7,4.6,3.9,6.3,6.4c1.7,2.5,2.8,5.6,3.3,9.4c0.2,1.7,0.2,3.5-0.1,5.5
		c-0.3,2-0.9,4-1.9,6c-1,2-2.4,3.9-4.1,5.8c-1.8,1.9-4.1,3.5-6.8,4.9c-2.8,1.4-6.1,2.6-10.1,3.4c-3.9,0.9-8.5,1.3-13.8,1.3
		c-4.5,0-8.6-0.2-12.3-0.6c-3.7-0.4-6.9-1-9.7-2c-2.8-0.9-5.1-2.1-6.8-3.5c-1.8-1.4-2.9-3.2-3.5-5.2c-0.3-1.2-0.3-2.2,0-3.1
		c0.3-0.9,0.8-1.6,1.5-2.1c0.7-0.5,1.5-0.9,2.3-1.1c0.9-0.2,1.7-0.3,2.5-0.2c1.6,0.2,3.3,0.5,5,1c1.7,0.5,3.5,0.9,5.4,1.4
		c1.9,0.5,4.1,0.9,6.4,1.3c2.3,0.4,5,0.6,7.9,0.6c3.3,0,6.3-0.2,8.9-0.8c2.6-0.6,4.7-1.4,6.5-2.4c1.7-1,3.1-2.3,4-3.7
		c0.9-1.4,1.4-3,1.4-4.8c0-1.9-0.7-3.5-2.2-4.8c-1.5-1.3-3.4-2.4-5.8-3.3c-2.4-0.9-5.1-1.7-8.2-2.5c-3.1-0.7-6.2-1.5-9.4-2.3
		c-3.2-0.8-6.4-1.8-9.4-2.8c-3.1-1.1-5.8-2.4-8.3-4c-2.4-1.6-4.4-3.5-6-5.7c-1.5-2.2-2.4-5-2.4-8.2c-0.1-3.3,0.4-6.5,1.6-9.5
		c1.1-3.1,2.9-5.8,5.2-8.2c2.4-2.4,5.4-4.4,9-6c3.6-1.6,8-2.4,13-2.6c0.9,0,2.4-0.1,4.5-0.1c2.1,0,4.5,0.1,7.1,0.3
		c2.6,0.2,5.3,0.5,8.1,1c2.8,0.5,5.3,1.2,7.6,2.2c2.3,1,4.2,2.3,5.7,3.9c1.5,1.6,2.2,3.6,2.2,5.9c0,0.7-0.1,1.4-0.2,2
		c-0.1,0.6-0.4,1.1-0.9,1.6c-0.4,0.4-1,0.7-1.8,0.9c-0.8,0.2-1.8,0.3-3.1,0.2c-1.6-0.1-3.4-0.3-5.6-0.7s-4.5-0.7-6.9-1
		s-5-0.6-7.6-0.9c-2.6-0.3-5.2-0.4-7.7-0.4c-1.6,0-3.2,0.1-4.7,0.4c-1.5,0.3-2.9,0.7-4.1,1.3c-1.2,0.6-2.2,1.3-2.9,2.2
		C130,195.6,129.6,196.7,129.6,198.1z"/>
	<path class="st0" d="M210.7,256.8c0,1-0.2,1.7-0.8,2.3c-0.5,0.6-1.1,1-1.9,1.3c-0.8,0.3-1.7,0.5-2.7,0.6c-1,0.1-2,0.1-3,0.1
		c-1.2,0-2.2-0.1-3.3-0.1c-1-0.1-1.9-0.3-2.7-0.6c-0.8-0.3-1.4-0.7-1.9-1.3c-0.5-0.6-0.7-1.3-0.7-2.2v-75.8c0-0.9,0.2-1.7,0.7-2.3
		c0.4-0.7,1-1.2,1.8-1.6c0.8-0.4,1.7-0.7,2.7-1c1-0.2,2.1-0.3,3.3-0.3c1.2,0,2.2,0.1,3.3,0.2c1,0.1,1.9,0.4,2.7,0.8
		c0.8,0.4,1.4,0.9,1.8,1.6c0.4,0.7,0.7,1.6,0.7,2.6V256.8z"/>
	<path class="st0" d="M240.2,198.1c0,2.1,0.7,3.9,2.1,5.2c1.4,1.4,3.2,2.5,5.5,3.4c2.3,0.9,4.9,1.8,7.8,2.4c2.9,0.7,6,1.4,9.1,2.2
		c3.1,0.8,6.2,1.7,9.2,2.8s5.8,2.5,8.3,4.2c2.5,1.7,4.6,3.9,6.3,6.4c1.7,2.5,2.8,5.6,3.3,9.4c0.2,1.7,0.2,3.5-0.1,5.5
		c-0.3,2-0.9,4-1.9,6c-1,2-2.4,3.9-4.1,5.8c-1.8,1.9-4.1,3.5-6.8,4.9c-2.8,1.4-6.1,2.6-10.1,3.4c-3.9,0.9-8.5,1.3-13.8,1.3
		c-4.5,0-8.6-0.2-12.3-0.6c-3.7-0.4-6.9-1-9.7-2c-2.8-0.9-5.1-2.1-6.8-3.5c-1.8-1.4-2.9-3.2-3.5-5.2c-0.3-1.2-0.3-2.2,0-3.1
		c0.3-0.9,0.8-1.6,1.5-2.1c0.7-0.5,1.5-0.9,2.3-1.1c0.9-0.2,1.7-0.3,2.5-0.2c1.6,0.2,3.3,0.5,5,1c1.7,0.5,3.5,0.9,5.4,1.4
		c1.9,0.5,4.1,0.9,6.4,1.3c2.3,0.4,5,0.6,7.9,0.6c3.3,0,6.3-0.2,8.9-0.8c2.6-0.6,4.7-1.4,6.5-2.4c1.7-1,3.1-2.3,4-3.7
		c0.9-1.4,1.4-3,1.4-4.8c0-1.9-0.7-3.5-2.2-4.8c-1.5-1.3-3.4-2.4-5.8-3.3c-2.4-0.9-5.1-1.7-8.2-2.5c-3.1-0.7-6.2-1.5-9.4-2.3
		c-3.2-0.8-6.4-1.8-9.4-2.8c-3.1-1.1-5.8-2.4-8.3-4c-2.4-1.6-4.4-3.5-6-5.7c-1.5-2.2-2.4-5-2.4-8.2c-0.1-3.3,0.4-6.5,1.6-9.5
		c1.1-3.1,2.9-5.8,5.2-8.2c2.4-2.4,5.4-4.4,9-6c3.6-1.6,8-2.4,13-2.6c0.9,0,2.4-0.1,4.5-0.1c2.1,0,4.5,0.1,7.1,0.3
		c2.6,0.2,5.3,0.5,8.1,1c2.8,0.5,5.3,1.2,7.6,2.2c2.3,1,4.2,2.3,5.7,3.9c1.5,1.6,2.2,3.6,2.2,5.9c0,0.7-0.1,1.4-0.2,2
		c-0.1,0.6-0.4,1.1-0.9,1.6c-0.4,0.4-1,0.7-1.8,0.9c-0.8,0.2-1.8,0.3-3.1,0.2c-1.6-0.1-3.4-0.3-5.6-0.7s-4.5-0.7-6.9-1
		s-5-0.6-7.6-0.9c-2.6-0.3-5.2-0.4-7.7-0.4c-1.6,0-3.2,0.1-4.7,0.4c-1.5,0.3-2.9,0.7-4.1,1.3c-1.2,0.6-2.2,1.3-2.9,2.2
		C240.6,195.6,240.2,196.7,240.2,198.1z"/>
	<path class="st0" d="M321.2,211c7.1,0,13,0,17.8,0c4.8,0,8.6,0,11.6,0c3,0,5.2,0,6.6,0c1.4,0,2.4,0.1,2.8,0.1v-29.8
		c0-0.9,0.3-1.7,0.9-2.4c0.6-0.7,1.4-1.3,2.4-1.8c1-0.5,2.1-0.9,3.3-1.1c1.2-0.3,2.4-0.4,3.6-0.4c2.3,0,4,0.3,5.1,1
		c1.1,0.7,1.6,2.1,1.6,4.3v75.8c0,1-0.2,1.7-0.5,2.3c-0.3,0.6-0.8,1-1.4,1.3s-1.3,0.5-2.1,0.6s-1.8,0.1-2.8,0.1
		c-1.2,0-2.3-0.1-3.5-0.2c-1.2-0.2-2.3-0.4-3.3-0.8c-1-0.4-1.8-0.8-2.4-1.5s-1-1.4-1-2.3v-30.6h-38.8v30.6c0,1-0.3,1.8-1,2.4
		s-1.5,1.1-2.5,1.5c-1,0.4-2.1,0.6-3.3,0.8c-1.2,0.1-2.3,0.2-3.3,0.2c-1.2,0-2.2-0.1-3-0.1c-0.8-0.1-1.6-0.3-2.1-0.6
		c-0.6-0.3-1-0.7-1.3-1.3c-0.3-0.6-0.4-1.3-0.4-2.2v-75.8c0-1.8,0.5-3.1,1.6-4c1.1-0.9,2.8-1.3,5.2-1.3c1.2,0,2.3,0.1,3.5,0.3
		c1.2,0.2,2.3,0.5,3.2,1c1,0.4,1.7,1,2.4,1.8c0.6,0.7,0.9,1.7,0.9,2.7V211z"/>
	<path class="st0" d="M445,243.8h-38.3l-2.9,8.8c-0.7,2-1.4,3.6-2.2,4.8c-0.8,1.1-1.6,2-2.5,2.5c-0.9,0.6-2,0.9-3.1,1
		c-1.1,0.1-2.5,0.2-3.9,0.2c-1.1,0-2.2-0.2-3.1-0.6c-1-0.4-1.7-1-2.2-1.9c-0.5-0.9-0.8-2.1-0.9-3.6c0-1.5,0.3-3.3,1.1-5.5l22.1-63
		c1-2.8,2.1-4.9,3.3-6.4c1.2-1.5,2.5-2.5,3.9-3.2s2.8-1,4.3-1.1c1.5-0.1,3-0.1,4.4-0.1h2c1.5,0,3,0.1,4.4,0.1
		c1.5,0.1,2.9,0.5,4.3,1.1s2.7,1.7,3.9,3.2c1.2,1.5,2.3,3.6,3.3,6.4l22.1,63c0.8,2.2,1.1,4,1.1,5.5c0,1.5-0.3,2.7-0.9,3.6
		c-0.5,0.9-1.3,1.5-2.2,1.9c-1,0.4-2,0.6-3.1,0.6c-1.5,0-2.8-0.1-4-0.2c-1.2-0.1-2.2-0.5-3.2-1c-0.9-0.6-1.8-1.4-2.5-2.5
		c-0.8-1.1-1.5-2.7-2.1-4.8L445,243.8z M411.2,230.4h29.3l-12.9-38.2c-0.2-0.6-0.4-1.1-0.6-1.4c-0.2-0.3-0.4-0.5-0.8-0.5h-0.8
		c-0.3,0-0.6,0.2-0.8,0.5c-0.2,0.3-0.4,0.8-0.6,1.4L411.2,230.4z"/>
	<path class="st0" d="M502.9,176.4c0.6-0.1,1.1-0.1,1.4-0.1s0.9,0,1.7,0c1.9,0,4.1,0.1,6.4,0.4c2.4,0.2,4.7,0.7,7.1,1.3
		c2.4,0.6,4.7,1.5,7,2.6c2.3,1.1,4.3,2.6,6,4.4c1.8,1.8,3.2,4,4.2,6.6s1.6,5.6,1.6,9.2v0.2c0,2.3-0.3,4.4-0.9,6.2
		c-0.6,1.8-1.4,3.3-2.4,4.7c-1,1.3-2.2,2.4-3.7,3.4c-1.4,0.9-3,1.7-4.6,2.3c2.2,0.5,4.3,1.2,6.3,2.2c2,0.9,3.7,2.1,5.2,3.6
		s2.7,3.3,3.5,5.5c0.9,2.2,1.3,4.7,1.3,7.7v0.2c0,3.5-0.5,6.5-1.4,9.1c-0.9,2.5-2.2,4.7-3.7,6.5c-1.5,1.8-3.3,3.2-5.4,4.3
		c-2.1,1.1-4.2,1.9-6.5,2.6c-2.3,0.6-4.6,1-6.9,1.3c-2.4,0.2-4.6,0.3-6.8,0.3c-2.1,0-4.1,0-6-0.1c-1.8-0.1-3.4-0.1-4.6-0.1h-19.6
		c-2,0-3.5-0.1-4.6-0.4c-1.1-0.3-1.9-0.8-2.4-1.6c-0.5-0.8-0.8-1.8-0.9-3.2c-0.1-1.3-0.1-3-0.1-5.2v-67c0-0.6,0.1-1.2,0.4-2
		c0.3-0.8,0.7-1.5,1.4-2.2c0.7-0.7,1.5-1.3,2.6-1.8c1.1-0.5,2.5-0.7,4.1-0.7H502.9z M504,211.3c5.4,0,9.6-0.8,12.6-2.3
		c3.1-1.6,4.7-4.1,4.9-7.5v-0.6c0-2-0.4-3.6-1.2-4.8c-0.8-1.3-2-2.3-3.7-3s-3.6-1.3-6.1-1.6c-2.4-0.3-5.2-0.5-8.4-0.5h-10.8v54.7
		h13.9c4.2,0,7.6-0.2,10.3-0.4c2.7-0.2,4.9-0.7,6.5-1.3c1.6-0.6,2.7-1.5,3.3-2.7c0.6-1.2,0.9-2.8,0.9-4.8c0-2-0.3-3.6-1-5
		c-0.6-1.3-1.8-2.4-3.4-3.3c-1.6-0.8-3.8-1.4-6.5-1.8c-2.7-0.4-6.2-0.5-10.3-0.5h-5.5c-1,0-1.8-0.2-2.5-0.7
		c-0.7-0.5-1.2-1.1-1.6-1.8s-0.7-1.5-0.8-2.4c-0.2-0.9-0.2-1.7-0.2-2.4s0.1-1.6,0.2-2.4c0.1-0.9,0.3-1.6,0.7-2.4
		c0.3-0.7,0.8-1.3,1.4-1.8c0.6-0.5,1.4-0.7,2.5-0.7H504z"/>
</g>
</svg>
