<?xml version="1.0" encoding="utf-8"?>
<!-- Generator: Adobe Illustrator 19.0.0, SVG Export Plug-In . SVG Version: 6.00 Build 0)  -->
<svg version="1.1" id="Camada_1" xmlns="http://www.w3.org/2000/svg" xmlns:xlink="http://www.w3.org/1999/xlink" x="0px" y="0px"
	 viewBox="0 0 614.9 147.8" style="enable-background:new 0 0 614.9 147.8;" xml:space="preserve">
<style type="text/css">
	.st0{fill:url(#XMLID_105_);}
	.st1{fill:url(#XMLID_108_);}
	.st2{fill:url(#XMLID_110_);}
	.st3{fill:url(#XMLID_111_);}
	.st4{fill:#5C5C5C;}
	.st5{fill:#F47721;}
	.st6{fill:#010101;}
</style>
<linearGradient id="XMLID_105_" gradientUnits="userSpaceOnUse" x1="67.8069" y1="72.8174" x2="129.2331" y2="72.8174">
	<stop  offset="0" style="stop-color:#913562"/>
	<stop  offset="1" style="stop-color:#673283"/>
</linearGradient>
<path id="XMLID_231_" class="st0" d="M126.4,51.7c-4.4-13.9-13.5-25-25-32.1h0c-0.8-0.5-1.6-1-2.5-1.5c0,0.1-0.1,0.1-0.1,0.2h0
	c-0.1,0.1-0.2,0.3-0.3,0.4c-1,1.7-2,3.4-2.9,5.2c-0.6,1.2-1.3,2.5-1.8,3.8c0,0,0,0-0.1,0c0,0,0,0.1,0,0.1c2,3.3,3.7,6.9,4.9,10.7
	c1.2,3.6,1.9,7.3,2.1,10.9c0.2,2.6,0.2,5.1,0,7.7h0c-0.1,1.7-0.4,3.4-0.7,5c-0.4,2-0.9,3.9-1.5,5.8c-0.8,2.4-1.7,4.7-2.9,7
	c-0.8,1.5-1.6,3-2.5,4.4l0.2,0.1c0.3-0.5,0.6-1.1,0.9-1.6c-0.3,0.5-0.6,1.1-0.9,1.6l-0.2-0.1c-5.8,9-14.6,16.1-25.5,19.7
	c1.9,3.3,4.2,6.3,6.8,9.1c11.5-4.6,20.9-12.5,27.4-22.3c1.8,3.8,3.4,7.7,4.7,11.7c0.3,0.9,0.6,1.8,0.8,2.7
	c-5.7,7-13.5,12.5-22.7,15.5c-0.1,0-0.2,0.1-0.3,0.1c-0.2,1.7-0.4,3.3-0.6,5c0,0,0,0.1,0,0.1c-0.3,2-0.7,3.9-1.2,5.9
	c0,0.2-0.1,0.4-0.1,0.6c0,0.1,0,0.1,0,0.2c1.9-0.4,3.7-0.9,5.6-1.5c2.2-0.7,4.4-1.5,6.5-2.5c5.8-2.6,11.1-6.1,15.6-10.3
	c3.5-3.3,6.6-6.9,9.3-10.9c3.1-4.6,5.5-9.7,7.1-15c1.4-4.4,2.3-9.1,2.6-13.8C129.6,66.3,128.7,59,126.4,51.7z M98.8,67.9
	c-0.4,1.2-0.8,2.4-1.3,3.6C98,70.3,98.4,69.1,98.8,67.9c0.3-0.9,0.6-1.8,0.8-2.8C99.4,66.1,99.1,67,98.8,67.9z M100.3,19.2
	c0.5,0.3,1,0.6,1.4,0.9l0,0C101.3,19.8,100.8,19.5,100.3,19.2z M117.6,77.9c-0.6,3.3-1.5,6.6-2.8,9.7c-1.2-3-2.5-5.9-3.9-8.7
	c-0.9-1.7-1.8-3.5-2.8-5.1c0.2-0.6,0.4-1.2,0.7-1.8c1.2-3.6,2.1-7.3,2.6-11c0.7-5.4,0.7-10.9-0.1-16.4c2,3.2,3.6,6.8,4.8,10.5
	c1,3.2,1.7,6.4,2,9.6C118.6,69.1,118.4,73.6,117.6,77.9z"/>
<g id="XMLID_226_">
	<linearGradient id="XMLID_108_" gradientUnits="userSpaceOnUse" x1="61.0857" y1="45.2371" x2="64.5284" y2="46.3124">
		<stop  offset="0" style="stop-color:#DC3926"/>
		<stop  offset="1" style="stop-color:#F58220"/>
	</linearGradient>
	<path id="XMLID_47_" class="st1" d="M61.6,45.2c1,0.4,1.9,0.9,2.8,1.3C63.5,46.1,62.6,45.6,61.6,45.2
		C61.6,45.2,61.6,45.2,61.6,45.2z"/>
	<linearGradient id="XMLID_110_" gradientUnits="userSpaceOnUse" x1="16.18" y1="17.8752" x2="98.6386" y2="43.6315">
		<stop  offset="0" style="stop-color:#DC3926"/>
		<stop  offset="1" style="stop-color:#F58220"/>
	</linearGradient>
	<path id="XMLID_227_" class="st2" d="M61.7,45.1c0.9,0.4,1.9,0.9,2.8,1.4C69.3,49,74,52,78.3,55.5c4,3.2,7.7,6.8,11,10.8
		c0.5,0.6,1.1,1.3,1.6,1.9c0.2-0.6,0.4-1.1,0.6-1.7c1.2-3.5,2.1-7.1,2.5-10.8c0-0.2,0-0.4,0.1-0.6c-8.1-8.4-17.5-15.2-27.8-19.8
		c0.5-1,1.1-2.1,1.7-3.1c2-3.7,4.2-7.2,6.5-10.5c4.4,0.4,8.6,1.4,12.7,2.9c0.5-1.2,1.1-2.3,1.7-3.5c0.1-0.2,0.2-0.4,0.3-0.6
		c0.9-1.7,1.8-3.3,2.8-5c0.1-0.2,0.2-0.3,0.3-0.5c0-0.1,0.1-0.1,0.1-0.2c-3.4-1.4-6.9-2.4-10.5-3.2c-1.9-0.4-3.9-0.7-5.9-0.9
		c-2.6-0.3-5.2-0.4-7.8-0.3c-5.3,0.2-10.7,1.1-16,2.8c-10.1,3.2-18.7,8.9-25.4,16.1h0c-0.8,0.8-1.5,1.7-2.2,2.5
		c0.1,0.1,0.2,0.1,0.2,0.2c0.1,0.1,0.3,0.2,0.4,0.3c2.6,2.2,5,4.5,7.2,7.1c0.1,0.1,0.2,0.2,0.2,0.3c2.9-0.2,5.9-0.2,8.8,0
		c3,0.3,6.1,0.8,9.2,1.5v0c3.5,0.9,7,2.1,10.5,3.6C61.4,45.1,61.5,45.2,61.7,45.1 M57.9,26.6c-0.9,1.6-1.7,3.2-2.5,4.7
		c-3.8-1.1-7.6-1.8-11.3-2.2c3.5-2.2,7.3-4.1,11.4-5.4c1.6-0.5,3.2-0.9,4.8-1.3C59.5,23.9,58.7,25.2,57.9,26.6z"/>
</g>
<linearGradient id="XMLID_111_" gradientUnits="userSpaceOnUse" x1="-7.5163" y1="41.8705" x2="84.7451" y2="114.142">
	<stop  offset="0" style="stop-color:#183660"/>
	<stop  offset="0.347" style="stop-color:#175377"/>
	<stop  offset="1" style="stop-color:#098FAA"/>
</linearGradient>
<path id="XMLID_222_" class="st3" d="M73,114.5c-1.7-1.3-3.3-2.7-4.8-4.3c-2.7-2.8-5.2-6-7.3-9.5c-1-1.7-2-3.6-2.9-5.5
	c-1-2.2-1.9-4.5-2.7-6.9c-1.1-3.4-1.5-7.4-1.4-11.8c0.1-4.3,0.8-9,2-14c0.8-3.4,1.9-6.9,3.2-10.5c-3.5-1.7-7.1-3-10.9-3.8
	c-2.9,8.1-4.7,15.8-5.4,23c-6.3,5.1-11.9,11.2-16.7,18c-0.7-1.5-1.3-3.1-1.8-4.8c-4.2-13.3-2.4-27.1,4-38.4
	c-1.3-1.6-2.6-3.2-4.1-4.6c-1-1-2.1-2-3.2-2.9c-0.1-0.1-0.3-0.2-0.4-0.3c-0.1-0.1-0.1-0.1-0.2-0.2c-1.2,1.9-2.3,3.8-3.3,5.8
	c-5.1,10.5-7.2,22.5-5.4,34.6c0.5,3.1,1.2,6.2,2.2,9.3c1.4,4.4,3.3,8.6,5.6,12.5c0.6,1.1,1.3,2.1,2,3.1c1.7,2.4,3.5,4.7,5.5,6.8
	c11.9,12.7,29,19.7,46.7,18.6h0c0.3,0,0.6,0,0.9-0.1c0-0.1,0-0.1,0.1-0.2c0.1-0.2,0.1-0.4,0.2-0.5c0.7-2.7,1.4-5.4,1.8-8.2
	c0.1-0.7,0.2-1.5,0.3-2.2c0-0.1,0-0.1,0-0.2C75.6,116.4,74.3,115.5,73,114.5z M46.9,111.9c-5.6-3.1-10.6-7.2-14.6-12.3
	c0.5-0.7,0.9-1.5,1.4-2.2c2.7-4.2,5.8-8.1,9.2-11.6c0.3,2.1,0.8,4.1,1.4,6c1,3.2,2.3,6.3,3.7,9.3c1.9,4,4.2,7.7,6.7,11.1
	c1.1,1.4,2.2,2.8,3.4,4.2C54.2,115.4,50.5,113.9,46.9,111.9z M72.5,128L72.5,128c0.3,0.2,0.6,0.3,0.9,0.5
	C73.1,128.3,72.8,128.2,72.5,128z"/>
<g id="XMLID_157_">
	<g id="XMLID_201_">
		<path id="XMLID_219_" class="st4" d="M180.3,80h-29.6l-3.5,9.6c-0.2,0.7-0.5,1.2-0.8,1.6c-0.3,0.4-0.6,0.7-1,0.8
			c-0.3,0.2-0.7,0.3-1.1,0.3c-0.4,0-0.8,0-1.2,0c-0.4,0-0.7-0.1-1.1-0.2c-0.3-0.1-0.6-0.4-0.8-0.7c-0.2-0.3-0.3-0.7-0.3-1.2
			c0-0.5,0.1-1.1,0.4-1.9l16.5-45.2c0.4-1.1,0.8-2,1.3-2.7c0.5-0.7,1-1.2,1.6-1.6c0.6-0.4,1.2-0.6,1.9-0.8c0.7-0.1,1.4-0.2,2.2-0.2
			h1.5c0.8,0,1.5,0.1,2.1,0.2c0.7,0.1,1.3,0.4,1.9,0.8c0.6,0.4,1.1,0.9,1.6,1.6c0.5,0.7,0.9,1.6,1.3,2.7l16.5,45.2
			c0.3,0.7,0.4,1.4,0.4,1.9c0,0.5-0.1,0.9-0.3,1.2c-0.2,0.3-0.5,0.5-0.8,0.7c-0.3,0.1-0.7,0.2-1.1,0.2c-0.4,0-0.8,0-1.2,0
			c-0.4,0-0.8-0.1-1.1-0.3c-0.3-0.2-0.7-0.4-1-0.8c-0.3-0.4-0.6-0.9-0.8-1.6L180.3,80z M152.4,75.2h26.1l-10.8-30.1
			c-0.3-0.8-0.6-1.3-0.8-1.6c-0.3-0.3-0.6-0.5-1-0.5h-0.5h-0.1h-0.2c-0.4,0-0.8,0.2-1,0.5c-0.3,0.3-0.6,0.9-0.8,1.6L152.4,75.2z"/>
		<path id="XMLID_217_" class="st4" d="M216,92.5h-0.2c-3.5,0-6.6-0.3-9.1-1c-2.5-0.7-4.7-1.6-6.4-2.8c-1.7-1.2-3.1-2.6-4.1-4.3
			c-1-1.7-1.8-3.5-2.4-5.5c-0.5-2-0.9-4.2-1.1-6.4c-0.2-2.3-0.2-4.6-0.2-7.1V65c0-2.4,0.1-4.8,0.2-7.1c0.2-2.3,0.5-4.4,1.1-6.4
			c0.5-2,1.3-3.9,2.4-5.5c1-1.7,2.4-3.1,4.1-4.3c1.7-1.2,3.9-2.2,6.4-2.8c2.5-0.7,5.6-1,9.1-1h1.7c2.5,0,4.7,0.2,6.8,0.7
			c2,0.5,3.8,1.1,5.3,1.8c1.5,0.8,2.6,1.6,3.4,2.5c0.8,0.9,1.2,1.8,1.2,2.7c0,0.7-0.2,1.2-0.7,1.7c-0.5,0.5-1.1,0.7-1.7,0.7
			c-0.4,0-0.7-0.1-1.1-0.4c-0.4-0.2-0.8-0.5-1.3-0.9c-0.5-0.4-1.1-0.8-1.8-1.2c-0.7-0.4-1.5-0.8-2.5-1.2c-1-0.4-2.2-0.7-3.5-0.9
			s-3-0.4-4.8-0.4h-1.3c-2.6,0-4.7,0.2-6.6,0.7c-1.8,0.5-3.4,1.2-4.6,2.1c-1.3,0.9-2.3,2-3,3.2c-0.8,1.3-1.3,2.7-1.7,4.3
			c-0.4,1.6-0.7,3.3-0.8,5.1c-0.1,1.8-0.2,3.7-0.2,5.8v1.8c0,2,0.1,3.9,0.2,5.8c0.1,1.8,0.4,3.5,0.8,5.1c0.4,1.6,1,3,1.7,4.2
			c0.8,1.3,1.8,2.3,3,3.2c1.3,0.9,2.8,1.6,4.6,2.1c1.8,0.5,4,0.7,6.6,0.7h0.5c2.1,0,4-0.1,5.8-0.3c1.8-0.2,3.3-0.5,4.6-0.8
			c1.3-0.3,2.3-0.7,3-1.2c0.7-0.4,1.1-0.8,1.1-1.2V66c0-0.4,0.1-0.7,0.3-0.9c0.2-0.2,0.4-0.4,0.7-0.5c0.3-0.1,0.6-0.2,0.9-0.2
			c0.3,0,0.7-0.1,1.1-0.1c0.7,0,1.4,0.1,2,0.3c0.6,0.2,0.9,0.7,0.9,1.4v19.4c0,0.8-0.3,1.6-1,2.3c-0.7,0.7-1.6,1.3-2.7,1.9
			c-1.1,0.5-2.4,1-3.8,1.4c-1.4,0.4-2.9,0.7-4.4,1c-1.5,0.2-3,0.4-4.4,0.5C218.5,92.5,217.2,92.5,216,92.5L216,92.5z"/>
		<path id="XMLID_214_" class="st4" d="M268.7,37.9c3.5,0,6.6,0.3,9.1,1c2.5,0.7,4.7,1.6,6.4,2.8c1.7,1.2,3.1,2.7,4.1,4.3
			c1,1.7,1.8,3.5,2.4,5.5c0.5,2,0.9,4.2,1.1,6.4c0.2,2.3,0.2,4.6,0.2,7.1v0.3c0,2.4-0.1,4.8-0.2,7.1c-0.2,2.3-0.5,4.4-1.1,6.4
			c-0.6,2-1.3,3.9-2.4,5.5c-1,1.7-2.4,3.1-4.1,4.3c-1.7,1.2-3.9,2.2-6.4,2.8c-2.5,0.7-5.6,1-9.1,1h-0.2c-3.5,0-6.6-0.3-9.1-1
			c-2.5-0.7-4.7-1.6-6.4-2.8c-1.7-1.2-3.1-2.7-4.1-4.3c-1-1.7-1.8-3.5-2.4-5.5c-0.6-2-0.9-4.2-1.1-6.4c-0.2-2.3-0.2-4.6-0.2-7.1
			v-0.3c0-2.4,0.1-4.8,0.2-7.1c0.2-2.3,0.5-4.4,1.1-6.4c0.5-2,1.3-3.9,2.4-5.5c1-1.7,2.4-3.1,4.1-4.3c1.7-1.2,3.9-2.2,6.4-2.8
			c2.5-0.7,5.6-1,9.1-1H268.7z M268.2,43.2c-2.6,0-4.8,0.2-6.6,0.7c-1.8,0.5-3.4,1.2-4.6,2.1c-1.3,0.9-2.3,2-3,3.2
			c-0.8,1.3-1.3,2.7-1.7,4.2c-0.4,1.6-0.7,3.3-0.8,5.1c-0.1,1.8-0.2,3.8-0.2,5.8v1.8c0,2,0.1,3.9,0.2,5.8c0.1,1.8,0.4,3.5,0.8,5.1
			c0.4,1.6,1,3,1.7,4.2c0.8,1.3,1.8,2.3,3,3.2c1.3,0.9,2.8,1.6,4.6,2.1c1.8,0.5,4,0.7,6.6,0.7h0.9c2.6,0,4.7-0.2,6.6-0.7
			c1.8-0.5,3.4-1.2,4.6-2.1c1.3-0.9,2.3-2,3-3.2c0.8-1.3,1.3-2.7,1.7-4.2c0.4-1.6,0.7-3.3,0.8-5.1c0.1-1.8,0.2-3.8,0.2-5.8v-1.8
			c0-2-0.1-3.9-0.2-5.8c-0.1-1.8-0.4-3.5-0.8-5.1c-0.4-1.6-1-3-1.7-4.2c-0.8-1.3-1.8-2.3-3-3.2c-1.3-0.9-2.8-1.6-4.6-2.1
			c-1.8-0.5-4-0.7-6.6-0.7H268.2z"/>
		<path id="XMLID_212_" class="st4" d="M318.1,43.6h-11v47.2c0,0.4-0.1,0.6-0.2,0.8c-0.2,0.2-0.4,0.4-0.7,0.5
			c-0.3,0.1-0.6,0.2-1,0.2c-0.4,0-0.7,0.1-1.1,0.1c-0.8,0-1.5-0.1-2.1-0.3c-0.6-0.2-0.9-0.7-0.9-1.3V41.3v-0.2v-0.2
			c0-0.7,0.3-1.3,0.9-1.8c0.6-0.5,1.6-0.7,2.8-0.7h13.3c3.3-0.1,6.4,0.2,9.3,0.7c2.9,0.5,5.4,1.5,7.5,2.8c2.1,1.3,3.8,3,5,5.1
			c1.2,2.1,1.8,4.7,1.8,7.8v0.4c0,2-0.3,3.8-0.8,5.4c-0.5,1.6-1.3,3-2.2,4.2c-1,1.2-2.1,2.2-3.5,3.1c-1.4,0.9-2.9,1.6-4.6,2.1
			l11.2,19.9c0.3,0.5,0.4,1,0.2,1.3c-0.2,0.3-0.5,0.6-0.9,0.8c-0.4,0.2-0.9,0.3-1.4,0.4c-0.5,0.1-1,0.1-1.4,0.1
			c-0.5,0-1.1-0.1-1.6-0.3s-0.9-0.6-1.2-1.1l-11-19.8c-1,0.1-1.9,0.2-2.9,0.2c-1,0-2,0.1-3.1,0.1h-7.1c-0.7,0-1.2-0.2-1.5-0.7
			c-0.3-0.5-0.5-1.1-0.5-1.9c0-0.8,0.2-1.5,0.5-1.9c0.4-0.4,0.9-0.7,1.5-0.7h7.1h0c2.7,0,5.1-0.2,7.2-0.6c2.1-0.4,3.9-1,5.4-1.9
			c1.5-0.9,2.6-2,3.4-3.4c0.8-1.4,1.2-3,1.2-5v-1c0-1.7-0.3-3.2-0.9-4.6c-0.6-1.3-1.6-2.5-3-3.4c-1.4-0.9-3.1-1.6-5.3-2.1
			c-2.2-0.5-4.8-0.7-7.9-0.7H318.1L318.1,43.6z"/>
		<path id="XMLID_209_" class="st4" d="M384.3,80h-29.6l-3.5,9.6c-0.2,0.7-0.5,1.2-0.8,1.6c-0.3,0.4-0.6,0.7-1,0.8
			c-0.3,0.2-0.7,0.3-1.1,0.3c-0.4,0-0.8,0-1.2,0c-0.4,0-0.7-0.1-1.1-0.2c-0.3-0.1-0.6-0.4-0.8-0.7c-0.2-0.3-0.3-0.7-0.3-1.2
			c0-0.5,0.1-1.1,0.4-1.9l16.5-45.2c0.4-1.1,0.8-2,1.3-2.7c0.5-0.7,1-1.2,1.6-1.6c0.6-0.4,1.2-0.6,1.9-0.8c0.7-0.1,1.4-0.2,2.2-0.2
			h1.5c0.8,0,1.5,0.1,2.1,0.2c0.7,0.1,1.3,0.4,1.9,0.8c0.6,0.4,1.1,0.9,1.6,1.6c0.5,0.7,0.9,1.6,1.3,2.7l16.5,45.2
			c0.3,0.7,0.4,1.4,0.4,1.9c0,0.5-0.1,0.9-0.3,1.2c-0.2,0.3-0.5,0.5-0.8,0.7c-0.3,0.1-0.7,0.2-1.1,0.2c-0.4,0-0.8,0-1.2,0
			s-0.8-0.1-1.1-0.3c-0.3-0.2-0.7-0.4-1-0.8c-0.3-0.4-0.6-0.9-0.8-1.6L384.3,80z M356.4,75.2h26.1l-10.8-30.1
			c-0.3-0.8-0.6-1.3-0.8-1.6c-0.3-0.3-0.6-0.5-1-0.5h-0.5h-0.1h-0.2c-0.4,0-0.8,0.2-1,0.5c-0.3,0.3-0.6,0.9-0.8,1.6L356.4,75.2z"/>
		<path id="XMLID_207_" class="st5" d="M400.5,63.2c0-5.1,0.7-9.3,2.2-12.5c1.5-3.2,3.4-5.8,5.7-7.6c2.3-1.8,5-3.1,7.9-3.7
			c2.9-0.6,5.9-1,8.9-1c2.9,0,5.8,0.3,8.8,1c3,0.6,5.7,1.9,8.1,3.7c2.4,1.8,4.3,4.4,5.8,7.6c1.5,3.2,2.2,7.4,2.2,12.5l0.5,28.8
			c-4.7,0-8.2-1-10.8-3c-2.5-2-3.8-5.2-3.8-9.7l0.1-16.1c0-3.2-0.3-5.8-1-7.7c-0.6-1.9-1.5-3.5-2.6-4.6c-1.1-1.1-2.3-1.8-3.5-2.2
			c-1.3-0.4-2.6-0.6-3.9-0.6c-1.3,0-2.6,0.2-3.8,0.6c-1.3,0.4-2.4,1.1-3.4,2.2c-1,1.1-1.9,2.6-2.5,4.6c-0.6,1.9-1,4.5-1,7.7v17.7
			c0.1,2.3,0.1,4.2,0.2,5.6c0,1.5,0.1,2.6,0.2,3.4c0.1,0.9,0.2,1.6,0.2,2.1c-4.7,0-8.4-1-10.9-3c-2.5-2-3.8-5.2-3.8-9.7L400.5,63.2z
			"/>
		<path id="XMLID_204_" class="st5" d="M502.8,46.5c2.4,2.4,4.2,5.3,5.6,8.6c1.3,3.3,2,6.9,2,10.7c0,3.8-0.6,7.4-1.8,10.7
			c-1.2,3.3-2.9,6.2-5.1,8.6c-2.2,2.5-4.9,4.5-8.1,6c-3.2,1.4-6.7,2.2-10.6,2.2c-3.5,0-6.8-0.7-9.9-2.2c-3.1-1.4-5.8-3.4-8.2-6
			c-2.3-2.4-4.1-5.3-5.4-8.6c-1.3-3.3-2-6.9-2-10.7c0-3.8,0.6-7.4,1.8-10.7c1.2-3.3,2.9-6.2,5.1-8.6c2.2-2.5,4.9-4.5,8.1-6
			c3.2-1.4,6.7-2.2,10.6-2.2c3.6,0,6.9,0.7,10,2.2C497.8,42,500.5,44,502.8,46.5z M484.7,83.4c1,0,2.2-0.2,3.5-0.7
			c1.3-0.5,2.6-1.3,3.8-2.6c1.2-1.3,2.2-3.1,3.1-5.4c0.8-2.3,1.3-5.3,1.3-8.9c0-3.7-0.4-6.7-1.3-9c-0.8-2.3-1.9-4.1-3.1-5.4
			c-1.2-1.3-2.5-2.1-3.8-2.6c-1.3-0.5-2.5-0.7-3.5-0.7c-1,0-2.2,0.2-3.5,0.7c-1.3,0.5-2.6,1.3-3.8,2.6c-1.2,1.3-2.3,3.1-3.1,5.4
			c-0.8,2.3-1.3,5.3-1.3,9c0,3.7,0.4,6.6,1.3,8.9c0.8,2.3,1.9,4.1,3.1,5.4c1.2,1.3,2.5,2.2,3.8,2.6
			C482.5,83.2,483.7,83.4,484.7,83.4z"/>
		<path id="XMLID_202_" class="st5" d="M586,45.6c1-2.4,2.4-4.1,4.2-5c1.8-0.9,3.6-1.4,5.3-1.5c2.1-0.2,4.2,0,6.5,0.6
			c-3,7.6-5.7,14.5-8.2,20.9c-1.1,2.7-2.2,5.5-3.3,8.3c-1.1,2.8-2.2,5.4-3.3,7.9c-1,2.5-2,4.7-2.9,6.6s-1.6,3.4-2.1,4.3
			c-1.3,2.4-2.9,4.1-4.7,5c-1.8,0.9-3.5,1.4-5.1,1.5c-2,0.2-3.9-0.1-5.8-0.7c-1.4-4.6-2.9-9-4.2-13.2c-1.1-3.7-2.3-7.4-3.4-11.2
			c-1.1-3.8-2-7-2.5-9.6c-0.6,2.7-1.2,5.5-1.8,8.2c-0.6,2.7-1.3,5.3-1.9,7.8c-0.7,2.4-1.4,4.7-2.1,6.8c-0.7,2.1-1.5,3.8-2.2,5.1
			c-1.2,2.2-2.7,3.8-4.5,4.7c-1.8,0.9-3.5,1.4-5.1,1.6c-2,0.2-4,0.1-6.1-0.5c-0.5-1.4-1.3-3.3-2.4-5.8c-1.1-2.5-2.2-5.2-3.5-8.3
			c-1.3-3-2.6-6.3-3.9-9.6c-1.4-3.4-2.7-6.6-3.9-9.7c-1.3-3.1-2.4-5.9-3.4-8.4c-1-2.5-1.8-4.5-2.3-5.8c-0.8-1.5-1.4-2.9-1.8-4
			c-0.3-0.7-0.6-1.4-0.8-2.1c2.3-0.5,4.5-0.7,6.5-0.6c1.8,0.2,3.5,0.7,5.3,1.5c1.8,0.9,3.2,2.5,4.3,5c0.3,0.8,0.7,2,1.3,3.4
			c0.6,1.4,1.2,3,1.8,4.6c0.6,1.7,1.3,3.4,2.1,5.3c0.7,1.8,1.4,3.7,2.1,5.5c1.7,4.2,3.5,8.7,5.4,13.6c1.1-4.9,2.2-9.4,3.3-13.6
			c0.9-3.7,1.9-7.3,2.9-10.8c1-3.5,1.8-6.2,2.5-8c1-2.4,2.3-4.1,4-5c1.7-0.9,3.4-1.4,5-1.5c2-0.2,4,0,6.1,0.6l10.3,38.3
			c1.8-4.9,3.6-9.4,5.3-13.6c1.4-3.7,2.9-7.3,4.2-10.8C584.1,50,585.2,47.3,586,45.6z"/>
	</g>
</g>
<g id="XMLID_106_">
	<path id="XMLID_155_" class="st6" d="M227.1,107.1c0.3,0,0.6,0.1,0.7,0.2s0.1,0.4,0.1,0.9c0,0.3,0,0.5-0.1,0.6
		c-0.1,0.2-0.2,0.3-0.3,0.3c-0.1,0.1-0.2,0.1-0.3,0.1c-0.1,0-0.2,0-0.3,0h-7.2v20.2c0,0.3-0.1,0.5-0.4,0.6c-0.3,0.1-0.6,0.1-0.9,0.1
		c-0.3,0-0.6,0-0.9-0.1c-0.3-0.1-0.4-0.3-0.4-0.6v-20.2H210c-0.1,0-0.2,0-0.3,0c-0.1,0-0.2-0.1-0.3-0.2c-0.1-0.1-0.2-0.2-0.3-0.3
		c-0.1-0.1-0.1-0.3-0.1-0.6c0-0.2,0-0.4,0-0.6c0-0.1,0.1-0.3,0.1-0.3s0.1-0.1,0.2-0.2c0.1,0,0.2,0,0.4,0H227.1z"/>
	<path id="XMLID_153_" class="st6" d="M232.8,113.4c0.6,0,1.1,0.1,1.6,0.2c0.4,0.1,0.8,0.3,1.1,0.4c0.3,0.2,0.5,0.4,0.6,0.6
		c0.1,0.2,0.2,0.5,0.2,0.7c0,0.1,0,0.2,0,0.3c0,0.1-0.1,0.2-0.1,0.3c-0.1,0.1-0.1,0.2-0.2,0.2c-0.1,0.1-0.3,0.1-0.4,0.1
		c-0.2,0-0.4,0-0.5-0.1c-0.1-0.1-0.3-0.2-0.5-0.3s-0.4-0.2-0.7-0.3c-0.3-0.1-0.7-0.1-1.3-0.1c-1,0-1.9,0.1-2.5,0.2
		c-0.6,0.1-1.1,0.3-1.5,0.5c-0.3,0.2-0.6,0.4-0.7,0.5c-0.1,0.2-0.2,0.3-0.2,0.4v12.4c0,0.2,0,0.3-0.1,0.4c-0.1,0.1-0.2,0.2-0.3,0.2
		c-0.1,0.1-0.2,0.1-0.4,0.1c-0.1,0-0.3,0-0.5,0c-0.3,0-0.6,0-0.9-0.1c-0.3-0.1-0.4-0.3-0.4-0.6v-13.1c0-0.3,0.1-0.7,0.3-1
		c0.2-0.3,0.5-0.5,0.9-0.8c0.4-0.2,0.8-0.4,1.3-0.6c0.5-0.2,1-0.3,1.6-0.4c0.6-0.1,1.1-0.2,1.7-0.2
		C231.7,113.4,232.3,113.4,232.8,113.4z"/>
	<path id="XMLID_150_" class="st6" d="M250,129.8c-0.7,0.1-1.5,0.1-2.4,0.2c-1,0.1-2,0.1-3.1,0.1c-1.3,0-2.4-0.2-3.2-0.6
		c-0.8-0.4-1.4-1-1.8-1.7c-0.4-0.7-0.7-1.5-0.8-2.5c-0.1-0.9-0.2-2-0.2-3.1v-0.2c0-1.5,0.1-2.7,0.4-3.9c0.2-1.1,0.6-2,1.1-2.8
		s1.2-1.3,2-1.7c0.8-0.4,1.8-0.5,2.9-0.5c0.6,0,1.3,0,1.9,0.1c0.7,0,1.3,0.1,1.9,0.3c0.6,0.1,1.2,0.3,1.7,0.5c0.5,0.2,1,0.5,1.4,0.9
		c0.4,0.4,0.7,0.8,1,1.3c0.2,0.5,0.4,1.1,0.4,1.8v10.4c0,0.3-0.1,0.5-0.2,0.7c-0.1,0.2-0.2,0.3-0.4,0.4s-0.4,0.2-0.6,0.2
		c-0.2,0-0.5,0.1-0.8,0.1L250,129.8z M250.5,118.9c0-0.2,0-0.5,0-0.7c0-0.3-0.1-0.5-0.2-0.8s-0.3-0.5-0.5-0.7
		c-0.2-0.2-0.5-0.4-0.9-0.6c-0.4-0.2-0.8-0.3-1.3-0.4c-0.5-0.1-1.2-0.2-1.9-0.2c-0.4,0-0.7,0-1.1,0.1c-0.4,0-0.7,0.1-1.1,0.3
		c-0.4,0.1-0.7,0.3-1,0.6c-0.3,0.3-0.6,0.6-0.8,1c-0.2,0.4-0.4,1-0.5,1.6c-0.1,0.6-0.2,1.4-0.2,2.3v1.7c0,1.1,0.1,1.9,0.3,2.6
		c0.2,0.7,0.4,1.2,0.8,1.6c0.4,0.4,0.8,0.6,1.3,0.8c0.5,0.1,1.1,0.2,1.8,0.2c1,0,1.9-0.1,2.7-0.2c0.8-0.1,1.5-0.2,2.1-0.2
		c0.1,0,0.2,0,0.3,0c0.1,0,0.2,0,0.3,0V118.9z"/>
	<path id="XMLID_148_" class="st6" d="M268.9,114.6c0.1-0.3,0.2-0.5,0.2-0.7c0.1-0.2,0.1-0.3,0.2-0.3c0.1-0.1,0.2-0.1,0.3-0.1
		c0.1,0,0.2,0,0.4,0c0.2,0,0.3,0,0.5,0.1c0.2,0.1,0.4,0.1,0.5,0.3c0.2,0.1,0.3,0.3,0.3,0.5c0.1,0.2,0,0.5-0.1,0.8l-4.9,13.2
		c-0.1,0.4-0.3,0.7-0.5,1c-0.2,0.2-0.4,0.4-0.6,0.6c-0.2,0.1-0.5,0.2-0.8,0.3c-0.3,0-0.6,0.1-0.9,0.1h-0.3c-0.3,0-0.6,0-0.9-0.1
		c-0.3,0-0.5-0.1-0.8-0.3c-0.2-0.1-0.4-0.3-0.6-0.6c-0.2-0.2-0.3-0.6-0.5-1l-4.9-13.2c-0.1-0.3-0.1-0.6-0.1-0.8
		c0.1-0.2,0.2-0.4,0.3-0.5c0.1-0.1,0.3-0.2,0.5-0.3c0.2-0.1,0.4-0.1,0.5-0.1c0.2,0,0.3,0,0.4,0c0.1,0,0.2,0.1,0.3,0.1
		c0.1,0.1,0.1,0.2,0.2,0.3s0.1,0.4,0.2,0.7l4.7,13.1c0.1,0.2,0.1,0.3,0.2,0.4c0.1,0.1,0.2,0.1,0.4,0.1h0h0c0.2,0,0.3,0,0.4-0.1
		c0.1-0.1,0.2-0.2,0.3-0.4L268.9,114.6z"/>
	<path id="XMLID_145_" class="st6" d="M284.5,122.5c-0.5,0.1-1.2,0.3-1.9,0.4c-0.7,0.1-1.5,0.3-2.2,0.4s-1.5,0.2-2.3,0.4
		c-0.8,0.1-1.5,0.2-2.1,0.3c0,0.7,0.1,1.3,0.2,1.8c0.1,0.5,0.4,1,0.7,1.3c0.3,0.4,0.8,0.6,1.4,0.8c0.6,0.2,1.3,0.3,2.2,0.3
		c0.9,0,1.7-0.1,2.3-0.2c0.6-0.1,1.1-0.3,1.5-0.5c0.4-0.2,0.7-0.3,1-0.5c0.2-0.1,0.4-0.2,0.6-0.3c0.3,0,0.5,0.1,0.6,0.2
		c0.2,0.2,0.2,0.4,0.2,0.6c0,0.3-0.1,0.7-0.4,1c-0.3,0.3-0.7,0.6-1.2,0.8c-0.5,0.2-1.2,0.4-1.9,0.6c-0.8,0.1-1.6,0.2-2.6,0.2
		c-1.1,0-2-0.1-2.8-0.2c-0.8-0.2-1.4-0.4-2-0.7c-0.5-0.3-0.9-0.7-1.3-1.2c-0.3-0.5-0.5-1-0.7-1.6c-0.2-0.6-0.3-1.3-0.3-2
		s-0.1-1.5-0.1-2.3c0-1.3,0.1-2.5,0.3-3.6c0.2-1.1,0.5-2,1-2.8s1.3-1.3,2.2-1.8c1-0.4,2.2-0.6,3.8-0.6c1,0,2,0.1,2.8,0.3
		c0.9,0.2,1.6,0.5,2.3,0.9s1.1,0.9,1.5,1.5c0.4,0.6,0.6,1.4,0.6,2.2c0,0.6,0,1.1-0.1,1.6c-0.1,0.4-0.3,0.8-0.5,1.1
		c-0.3,0.3-0.6,0.6-1.1,0.8C285.8,122.1,285.2,122.3,284.5,122.5z M281.4,115.4c-0.9,0-1.6,0.1-2.2,0.2s-1.1,0.3-1.5,0.6
		c-0.4,0.3-0.7,0.6-0.9,1c-0.2,0.4-0.4,0.8-0.5,1.3s-0.2,1-0.2,1.7s-0.1,1.3-0.1,2c0.5-0.1,1-0.1,1.7-0.2c0.7-0.1,1.3-0.2,2-0.3
		c0.7-0.1,1.4-0.2,2.1-0.3c0.7-0.1,1.3-0.2,1.8-0.3c0.7-0.2,1.3-0.4,1.6-0.8c0.3-0.4,0.5-0.9,0.4-1.7c0-0.5-0.2-0.9-0.4-1.3
		c-0.2-0.4-0.6-0.7-0.9-1c-0.4-0.3-0.8-0.5-1.3-0.6C282.4,115.4,281.9,115.4,281.4,115.4z"/>
	<path id="XMLID_143_" class="st6" d="M294.4,129.5c0,0.2,0,0.3-0.1,0.4c-0.1,0.1-0.2,0.2-0.3,0.2c-0.1,0.1-0.2,0.1-0.4,0.1
		c-0.1,0-0.3,0-0.5,0c-0.3,0-0.6,0-0.9-0.1c-0.3-0.1-0.4-0.3-0.4-0.6v-21.9c0-0.3,0.1-0.5,0.2-0.6c0.1-0.1,0.3-0.1,0.7-0.1
		c0.2,0,0.4,0,0.6,0.1s0.4,0.1,0.5,0.2c0.2,0.1,0.3,0.2,0.4,0.4c0.1,0.2,0.2,0.3,0.2,0.6V129.5z"/>
	<path id="XMLID_140_" class="st6" d="M305.8,107.6c0-0.1,0-0.3,0.1-0.4c0.1-0.1,0.2-0.2,0.3-0.2c0.1-0.1,0.2-0.1,0.4-0.1
		c0.1,0,0.3,0,0.5,0c0.3,0,0.6,0,0.9,0.1c0.2,0.1,0.4,0.3,0.4,0.6v2.6c0,0.2,0,0.3-0.1,0.4c-0.1,0.1-0.2,0.2-0.3,0.2
		c-0.1,0.1-0.2,0.1-0.4,0.1c-0.1,0-0.3,0-0.5,0c-0.3,0-0.6,0-0.9-0.1c-0.3-0.1-0.4-0.3-0.4-0.6V107.6z M308.3,129.5
		c0,0.2,0,0.3-0.1,0.4c-0.1,0.1-0.2,0.2-0.3,0.2c-0.1,0.1-0.2,0.1-0.4,0.1c-0.1,0-0.3,0-0.5,0c-0.3,0-0.6,0-0.9-0.1
		c-0.3-0.1-0.4-0.3-0.4-0.6v-15.3c0-0.1,0-0.3,0.1-0.4c0.1-0.1,0.2-0.2,0.3-0.2c0.1-0.1,0.3-0.1,0.4-0.1c0.1,0,0.3,0,0.4,0
		c0.3,0,0.6,0,0.9,0.1c0.2,0.1,0.4,0.3,0.4,0.6V129.5z"/>
	<path id="XMLID_138_" class="st6" d="M315.5,129.5c0,0.2,0,0.3-0.1,0.4c-0.1,0.1-0.2,0.2-0.3,0.2c-0.1,0-0.2,0.1-0.4,0.1
		c-0.1,0-0.3,0-0.5,0c-0.3,0-0.6,0-0.9-0.1s-0.4-0.3-0.4-0.6v-13.5c0-0.6,0.2-1,0.7-1.4c0.5-0.3,1.1-0.6,1.9-0.8
		c0.8-0.2,1.7-0.3,2.8-0.4s2.2-0.1,3.4-0.1c1.2,0,2.2,0.2,3,0.6c0.8,0.4,1.4,1,1.8,1.7c0.4,0.7,0.7,1.6,0.9,2.7
		c0.2,1,0.2,2.2,0.2,3.5v7.7c0,0.2,0,0.3-0.1,0.4c-0.1,0.1-0.2,0.2-0.3,0.2c-0.1,0-0.2,0.1-0.4,0.1c-0.1,0-0.3,0-0.5,0
		c-0.3,0-0.6,0-0.9-0.1s-0.4-0.3-0.4-0.6l0-6.9c0-1.2,0-2.3-0.1-3.2c-0.1-0.9-0.3-1.7-0.6-2.2c-0.3-0.6-0.7-1-1.3-1.3
		c-0.5-0.3-1.3-0.4-2.2-0.4c-0.9,0-1.7,0-2.3,0.1s-1.2,0.1-1.6,0.2c-0.4,0.1-0.7,0.2-1,0.3c-0.2,0.1-0.4,0.2-0.5,0.3
		c-0.1,0.1-0.2,0.3-0.2,0.4c0,0.1,0,0.3,0,0.4V129.5z"/>
	<path id="XMLID_136_" class="st6" d="M344.6,127.6c0.1,0.2,0.1,0.3,0.2,0.4c0.1,0.1,0.2,0.1,0.4,0.1h0c0.2,0,0.3,0,0.4-0.1
		s0.2-0.2,0.3-0.3l0-0.1l0.1-0.3l4.7-12.8c0.1-0.3,0.2-0.5,0.2-0.7c0.1-0.2,0.1-0.3,0.2-0.3c0.1-0.1,0.2-0.1,0.3-0.1
		c0.1,0,0.2,0,0.4,0c0.2,0,0.3,0,0.5,0.1c0.2,0.1,0.4,0.1,0.5,0.3c0.2,0.1,0.3,0.3,0.3,0.5c0.1,0.2,0,0.5-0.1,0.8l-4.4,11.7
		l-3.4,9.4c-0.1,0.4-0.3,0.7-0.5,0.9c-0.2,0.2-0.4,0.3-0.8,0.3c-0.2,0-0.4,0-0.5-0.1c-0.2,0-0.3-0.1-0.5-0.3
		c-0.1-0.1-0.2-0.3-0.3-0.5c0-0.2,0-0.5,0.1-0.8l2-5.5c-0.3,0-0.6,0-0.9-0.1c-0.3,0-0.5-0.1-0.8-0.3c-0.2-0.1-0.4-0.3-0.6-0.6
		c-0.2-0.2-0.3-0.6-0.5-1l-4.9-13.2c-0.1-0.3-0.1-0.6-0.1-0.8c0.1-0.2,0.2-0.4,0.3-0.5c0.1-0.1,0.3-0.2,0.5-0.3
		c0.2-0.1,0.4-0.1,0.5-0.1c0.2,0,0.3,0,0.4,0c0.1,0,0.2,0.1,0.3,0.1c0.1,0.1,0.1,0.2,0.2,0.3c0.1,0.2,0.1,0.4,0.2,0.7L344.6,127.6z"
		/>
	<path id="XMLID_133_" class="st6" d="M362.8,130.2c-1.1,0-2.1-0.1-2.9-0.3c-0.8-0.2-1.5-0.5-2-0.9c-0.6-0.4-1-0.8-1.3-1.3
		c-0.3-0.5-0.6-1.1-0.8-1.7s-0.3-1.3-0.4-2c-0.1-0.7-0.1-1.4-0.1-2.1v-0.1c0-0.7,0-1.4,0.1-2.1c0.1-0.7,0.2-1.4,0.4-2
		c0.2-0.6,0.4-1.2,0.8-1.7c0.3-0.5,0.8-1,1.3-1.3c0.6-0.4,1.2-0.7,2-0.9c0.8-0.2,1.8-0.3,2.9-0.3h0.1c1.1,0,2.1,0.1,2.9,0.3
		c0.8,0.2,1.5,0.5,2,0.9c0.5,0.4,1,0.8,1.3,1.3c0.3,0.5,0.6,1.1,0.8,1.7c0.2,0.6,0.3,1.3,0.4,2c0.1,0.7,0.1,1.4,0.1,2.1v0.1
		c0,0.7,0,1.4-0.1,2.1c-0.1,0.7-0.2,1.4-0.4,2c-0.2,0.6-0.4,1.2-0.8,1.7c-0.3,0.5-0.8,1-1.3,1.3c-0.5,0.4-1.2,0.7-2,0.9
		C365,130.1,364,130.2,362.8,130.2L362.8,130.2z M363,128.2c1,0,1.9-0.1,2.5-0.4c0.6-0.3,1.1-0.7,1.5-1.2s0.6-1.2,0.7-1.9
		c0.1-0.8,0.2-1.6,0.2-2.6v-0.5c0-1-0.1-1.8-0.2-2.6c-0.1-0.8-0.3-1.4-0.7-1.9s-0.8-0.9-1.5-1.2c-0.6-0.3-1.5-0.4-2.5-0.4h-0.3
		c-1,0-1.9,0.1-2.5,0.4c-0.6,0.3-1.1,0.7-1.5,1.2c-0.3,0.5-0.6,1.2-0.7,1.9c-0.1,0.8-0.2,1.6-0.2,2.6v0.5c0,1,0.1,1.8,0.2,2.6
		c0.1,0.8,0.3,1.4,0.7,1.9c0.3,0.5,0.8,0.9,1.5,1.2c0.6,0.3,1.5,0.4,2.5,0.4H363z"/>
	<path id="XMLID_131_" class="st6" d="M386.3,114.1c0-0.1,0-0.3,0.1-0.3c0.1-0.1,0.2-0.2,0.3-0.2c0.1,0,0.2-0.1,0.4-0.1
		c0.1,0,0.3,0,0.5,0c0.3,0,0.6,0,0.9,0.1s0.4,0.3,0.4,0.5v13.6c0,0.6-0.2,1-0.7,1.4c-0.5,0.3-1.1,0.6-1.9,0.8
		c-0.8,0.2-1.7,0.3-2.8,0.3c-1.1,0-2.2,0.1-3.4,0.1c-1.2,0-2.2-0.2-3-0.6c-0.8-0.4-1.4-1-1.8-1.7c-0.4-0.7-0.7-1.6-0.9-2.6
		c-0.2-1-0.2-2.2-0.2-3.5v-7.7c0-0.1,0-0.3,0.1-0.3c0.1-0.1,0.2-0.2,0.3-0.2c0.1,0,0.2-0.1,0.4-0.1c0.1,0,0.3,0,0.5,0
		c0.3,0,0.6,0,0.9,0.1s0.4,0.3,0.4,0.5l0,6.9c0,1.3,0,2.3,0.1,3.2c0.1,0.9,0.3,1.7,0.6,2.2c0.3,0.6,0.7,1,1.3,1.3
		c0.5,0.3,1.3,0.4,2.2,0.4c0.9,0,1.7,0,2.3,0c0.6,0,1.2-0.1,1.6-0.1c0.4-0.1,0.7-0.1,1-0.2c0.2-0.1,0.4-0.2,0.5-0.3s0.2-0.2,0.2-0.4
		c0-0.1,0-0.3,0-0.4V114.1z"/>
	<path id="XMLID_129_" class="st6" d="M401.1,113.4c0.6,0,1.1,0.1,1.6,0.2c0.4,0.1,0.8,0.3,1.1,0.4c0.3,0.2,0.5,0.4,0.6,0.6
		c0.1,0.2,0.2,0.5,0.2,0.7c0,0.1,0,0.2,0,0.3c0,0.1-0.1,0.2-0.1,0.3c-0.1,0.1-0.1,0.2-0.2,0.2c-0.1,0.1-0.3,0.1-0.4,0.1
		c-0.2,0-0.4,0-0.5-0.1c-0.1-0.1-0.3-0.2-0.5-0.3c-0.2-0.1-0.4-0.2-0.7-0.3c-0.3-0.1-0.7-0.1-1.3-0.1c-1,0-1.9,0.1-2.5,0.2
		c-0.6,0.1-1.1,0.3-1.5,0.5c-0.3,0.2-0.6,0.4-0.7,0.5c-0.1,0.2-0.2,0.3-0.2,0.4v12.4c0,0.2,0,0.3-0.1,0.4c-0.1,0.1-0.2,0.2-0.3,0.2
		c-0.1,0.1-0.2,0.1-0.4,0.1c-0.1,0-0.3,0-0.5,0c-0.3,0-0.6,0-0.9-0.1c-0.3-0.1-0.4-0.3-0.4-0.6v-13.1c0-0.3,0.1-0.7,0.3-1
		c0.2-0.3,0.5-0.5,0.9-0.8c0.4-0.2,0.8-0.4,1.3-0.6c0.5-0.2,1-0.3,1.6-0.4c0.6-0.1,1.1-0.2,1.7-0.2S400.5,113.4,401.1,113.4z"/>
	<path id="XMLID_126_" class="st6" d="M419.3,113.4c0.5,0,1,0,1.6,0.1c0.6,0,1.1,0.1,1.7,0.2c0.6,0.1,1.1,0.2,1.7,0.4s1,0.4,1.5,0.6
		v-7.1c0-0.2,0-0.4,0-0.5c0-0.1,0.1-0.2,0.1-0.3c0.1-0.1,0.1-0.1,0.2-0.1c0.1,0,0.2,0,0.4,0c0.2,0,0.3,0,0.5,0
		c0.2,0,0.4,0.1,0.6,0.2c0.2,0.1,0.3,0.2,0.4,0.4c0.1,0.2,0.2,0.4,0.2,0.7v19.4c0,0.4-0.1,0.8-0.4,1c-0.3,0.3-0.6,0.5-1.1,0.7
		c-0.5,0.2-1,0.4-1.6,0.5c-0.6,0.1-1.2,0.2-1.9,0.3c-0.7,0.1-1.3,0.1-2,0.1c-0.7,0-1.3,0-1.9,0c-1.2,0-2.1-0.2-2.9-0.6
		c-0.7-0.4-1.3-1-1.7-1.8c-0.4-0.8-0.7-1.7-0.9-2.8c-0.2-1.1-0.2-2.3-0.2-3.5v-0.2c0-1.1,0.1-2.1,0.2-3.1c0.1-0.9,0.4-1.8,0.8-2.5
		c0.4-0.7,1-1.3,1.7-1.7C417.1,113.6,418,113.4,419.3,113.4z M420.2,128.1c0.7,0,1.4,0,2.1-0.1c0.7,0,1.2-0.1,1.7-0.2
		c0.5-0.1,0.9-0.2,1.2-0.4s0.4-0.4,0.4-0.6v-9.4c0-0.2-0.2-0.4-0.6-0.7c-0.4-0.2-0.8-0.4-1.4-0.6c-0.6-0.2-1.2-0.3-1.9-0.5
		c-0.7-0.1-1.4-0.2-2.1-0.2c-0.5,0-1,0-1.5,0.1c-0.4,0.1-0.8,0.3-1.2,0.7s-0.6,0.8-0.8,1.5c-0.2,0.6-0.3,1.5-0.3,2.5l0,1.8
		c0,1,0.1,1.8,0.2,2.4c0.1,0.7,0.3,1.2,0.5,1.7c0.2,0.4,0.4,0.8,0.7,1c0.3,0.2,0.6,0.4,0.9,0.5c0.3,0.1,0.6,0.2,1,0.2
		C419.6,128.1,419.9,128.1,420.2,128.1z"/>
	<path id="XMLID_124_" class="st6" d="M440.5,113.4c0.6,0,1.1,0.1,1.6,0.2c0.4,0.1,0.8,0.3,1.1,0.4s0.5,0.4,0.6,0.6
		c0.1,0.2,0.2,0.5,0.2,0.7c0,0.1,0,0.2,0,0.3c0,0.1-0.1,0.2-0.1,0.3c-0.1,0.1-0.1,0.2-0.2,0.2c-0.1,0.1-0.3,0.1-0.4,0.1
		c-0.2,0-0.4,0-0.5-0.1s-0.3-0.2-0.5-0.3c-0.2-0.1-0.4-0.2-0.7-0.3c-0.3-0.1-0.7-0.1-1.3-0.1c-1,0-1.9,0.1-2.5,0.2
		c-0.6,0.1-1.1,0.3-1.5,0.5c-0.3,0.2-0.6,0.4-0.7,0.5c-0.1,0.2-0.2,0.3-0.2,0.4v12.4c0,0.2,0,0.3-0.1,0.4c-0.1,0.1-0.2,0.2-0.3,0.2
		c-0.1,0.1-0.2,0.1-0.4,0.1c-0.1,0-0.3,0-0.5,0c-0.3,0-0.6,0-0.9-0.1c-0.3-0.1-0.4-0.3-0.4-0.6v-13.1c0-0.3,0.1-0.7,0.3-1
		c0.2-0.3,0.5-0.5,0.9-0.8c0.4-0.2,0.8-0.4,1.3-0.6c0.5-0.2,1-0.3,1.6-0.4c0.6-0.1,1.1-0.2,1.7-0.2
		C439.4,113.4,439.9,113.4,440.5,113.4z"/>
	<path id="XMLID_121_" class="st6" d="M457.1,122.5c-0.5,0.1-1.2,0.3-1.9,0.4c-0.7,0.1-1.5,0.3-2.2,0.4c-0.8,0.1-1.5,0.2-2.3,0.4
		c-0.8,0.1-1.5,0.2-2.1,0.3c0,0.7,0.1,1.3,0.2,1.8c0.1,0.5,0.4,1,0.7,1.3c0.3,0.4,0.8,0.6,1.4,0.8c0.6,0.2,1.3,0.3,2.2,0.3
		c0.9,0,1.7-0.1,2.3-0.2c0.6-0.1,1.1-0.3,1.5-0.5c0.4-0.2,0.7-0.3,1-0.5c0.2-0.1,0.4-0.2,0.6-0.3c0.3,0,0.5,0.1,0.6,0.2
		c0.2,0.2,0.2,0.4,0.2,0.6c0,0.3-0.1,0.7-0.4,1c-0.3,0.3-0.7,0.6-1.2,0.8c-0.5,0.2-1.2,0.4-1.9,0.6c-0.8,0.1-1.6,0.2-2.6,0.2
		c-1.1,0-2-0.1-2.8-0.2c-0.8-0.2-1.4-0.4-2-0.7c-0.5-0.3-0.9-0.7-1.3-1.2c-0.3-0.5-0.5-1-0.7-1.6c-0.2-0.6-0.3-1.3-0.3-2
		s-0.1-1.5-0.1-2.3c0-1.3,0.1-2.5,0.3-3.6c0.2-1.1,0.5-2,1-2.8c0.5-0.8,1.3-1.3,2.2-1.8c1-0.4,2.2-0.6,3.8-0.6c1,0,2,0.1,2.8,0.3
		c0.9,0.2,1.6,0.5,2.3,0.9c0.6,0.4,1.1,0.9,1.5,1.5c0.4,0.6,0.6,1.4,0.6,2.2c0,0.6,0,1.1-0.1,1.6c-0.1,0.4-0.3,0.8-0.5,1.1
		c-0.3,0.3-0.6,0.6-1.1,0.8C458.4,122.1,457.8,122.3,457.1,122.5z M454,115.4c-0.9,0-1.6,0.1-2.2,0.2c-0.6,0.1-1.1,0.3-1.5,0.6
		s-0.7,0.6-0.9,1c-0.2,0.4-0.4,0.8-0.5,1.3c-0.1,0.5-0.2,1-0.2,1.7c0,0.6-0.1,1.3-0.1,2c0.5-0.1,1-0.1,1.7-0.2
		c0.7-0.1,1.3-0.2,2-0.3c0.7-0.1,1.4-0.2,2.1-0.3c0.7-0.1,1.3-0.2,1.8-0.3c0.7-0.2,1.3-0.4,1.6-0.8c0.3-0.4,0.5-0.9,0.4-1.7
		c0-0.5-0.2-0.9-0.4-1.3c-0.2-0.4-0.6-0.7-0.9-1c-0.4-0.3-0.8-0.5-1.3-0.6C455.1,115.4,454.5,115.4,454,115.4z"/>
	<path id="XMLID_118_" class="st6" d="M475.3,129.8c-0.7,0.1-1.5,0.1-2.4,0.2c-1,0.1-2,0.1-3.1,0.1c-1.3,0-2.4-0.2-3.2-0.6
		c-0.8-0.4-1.4-1-1.8-1.7s-0.7-1.5-0.8-2.5c-0.1-0.9-0.2-2-0.2-3.1v-0.2c0-1.5,0.1-2.7,0.4-3.9c0.2-1.1,0.6-2,1.1-2.8
		c0.5-0.7,1.2-1.3,2-1.7c0.8-0.4,1.8-0.5,2.9-0.5c0.6,0,1.3,0,1.9,0.1c0.7,0,1.3,0.1,1.9,0.3c0.6,0.1,1.2,0.3,1.7,0.5s1,0.5,1.4,0.9
		c0.4,0.4,0.7,0.8,1,1.3c0.2,0.5,0.4,1.1,0.4,1.8v10.4c0,0.3-0.1,0.5-0.2,0.7c-0.1,0.2-0.2,0.3-0.4,0.4c-0.2,0.1-0.4,0.2-0.6,0.2
		c-0.2,0-0.5,0.1-0.8,0.1L475.3,129.8z M475.9,118.9c0-0.2,0-0.5,0-0.7c0-0.3-0.1-0.5-0.2-0.8c-0.1-0.3-0.3-0.5-0.5-0.7
		s-0.5-0.4-0.9-0.6c-0.4-0.2-0.8-0.3-1.3-0.4c-0.5-0.1-1.2-0.2-2-0.2c-0.4,0-0.7,0-1.1,0.1c-0.4,0-0.7,0.1-1.1,0.3
		c-0.4,0.1-0.7,0.3-1,0.6c-0.3,0.3-0.6,0.6-0.8,1c-0.2,0.4-0.4,1-0.5,1.6c-0.1,0.6-0.2,1.4-0.2,2.3v1.7c0,1.1,0.1,1.9,0.3,2.6
		c0.2,0.7,0.4,1.2,0.8,1.6c0.4,0.4,0.8,0.6,1.3,0.8c0.5,0.1,1.1,0.2,1.8,0.2c1,0,1.9-0.1,2.7-0.2c0.8-0.1,1.5-0.2,2.1-0.2
		c0.1,0,0.2,0,0.3,0c0.1,0,0.2,0,0.3,0V118.9z"/>
	<path id="XMLID_116_" class="st6" d="M496.1,120.6c0,0.2,0,0.5,0,0.7c0,0.2,0,0.5,0,0.7v7.5c0,0.2,0,0.3-0.1,0.4
		c-0.1,0.1-0.2,0.2-0.3,0.2c-0.1,0-0.2,0.1-0.4,0.1c-0.1,0-0.3,0-0.5,0c-0.3,0-0.6,0-0.9-0.1c-0.2-0.1-0.4-0.3-0.4-0.6v-7
		c0-1.3,0-2.3-0.1-3.2c-0.1-0.9-0.3-1.6-0.6-2.2c-0.3-0.6-0.7-1-1.3-1.2c-0.6-0.3-1.3-0.4-2.2-0.4c-1,0-1.8,0.1-2.3,0.2
		c-0.5,0.1-0.9,0.3-1.2,0.5c-0.2,0.2-0.4,0.4-0.4,0.7c0,0.2,0,0.5,0,0.7v12c0,0.2,0,0.3-0.1,0.4c-0.1,0.1-0.2,0.2-0.3,0.2
		c-0.1,0-0.2,0.1-0.4,0.1c-0.1,0-0.3,0-0.5,0c-0.3,0-0.6,0-0.9-0.1c-0.3-0.1-0.4-0.3-0.4-0.6v-12.9c0-0.5,0.1-1,0.3-1.4
		c0.2-0.4,0.5-0.7,1-1c0.5-0.3,1.2-0.5,2.1-0.6c0.9-0.1,2.1-0.2,3.5-0.2c1.1,0,2.1,0.2,2.8,0.5c0.7,0.4,1.4,0.9,1.8,1.5
		c0.2-0.3,0.4-0.6,0.7-0.8s0.7-0.5,1.1-0.6s1-0.3,1.7-0.4c0.7-0.1,1.4-0.1,2.4-0.1c1.2,0,2.2,0.2,3,0.6c0.8,0.4,1.4,1,1.9,1.7
		c0.5,0.7,0.8,1.6,1,2.7s0.3,2.2,0.3,3.5v7.7c0,0.2,0,0.3-0.1,0.4c-0.1,0.1-0.2,0.2-0.3,0.2c-0.1,0-0.2,0.1-0.4,0.1
		c-0.1,0-0.3,0-0.5,0c-0.3,0-0.6,0-0.9-0.1c-0.2-0.1-0.4-0.3-0.4-0.6l0-6.9c0-1.2,0-2.3-0.1-3.2c-0.1-0.9-0.3-1.7-0.6-2.2
		c-0.3-0.6-0.7-1-1.3-1.3s-1.3-0.4-2.2-0.4c-0.8,0-1.5,0.1-2,0.2s-0.9,0.3-1.2,0.6c-0.3,0.3-0.5,0.5-0.6,0.9
		c-0.1,0.3-0.1,0.7-0.1,1.1V120.6z"/>
	<path id="XMLID_114_" class="st6" d="M513.8,117.8c0,0.5,0.2,0.9,0.5,1.2c0.3,0.3,0.7,0.6,1.3,0.8c0.5,0.2,1.1,0.4,1.8,0.5
		c0.7,0.2,1.4,0.3,2.1,0.5c0.7,0.2,1.4,0.3,2.1,0.6c0.7,0.2,1.3,0.5,1.8,0.8c0.5,0.3,0.9,0.8,1.3,1.3c0.3,0.5,0.5,1.1,0.5,1.9
		c0,0.3,0,0.7-0.1,1c-0.1,0.4-0.2,0.7-0.4,1.1c-0.2,0.4-0.4,0.7-0.8,1c-0.3,0.3-0.7,0.6-1.2,0.9c-0.5,0.3-1.1,0.5-1.8,0.6
		c-0.7,0.1-1.6,0.2-2.5,0.2c-0.8,0-1.7-0.1-2.5-0.2c-0.8-0.1-1.6-0.3-2.3-0.5c-0.7-0.2-1.2-0.5-1.7-0.8c-0.4-0.3-0.6-0.7-0.6-1.1
		c0-0.2,0.1-0.4,0.2-0.6c0.1-0.2,0.3-0.2,0.5-0.2c0.2,0,0.5,0.1,0.8,0.2c0.3,0.2,0.7,0.3,1.2,0.5c0.5,0.2,1.1,0.3,1.8,0.5
		c0.7,0.1,1.5,0.2,2.5,0.2c0.6,0,1.2-0.1,1.7-0.2c0.5-0.1,1-0.3,1.4-0.5c0.4-0.2,0.7-0.5,0.9-0.8c0.2-0.3,0.3-0.7,0.3-1.2
		c0-0.5-0.2-0.9-0.5-1.2c-0.3-0.3-0.7-0.6-1.3-0.8c-0.5-0.2-1.1-0.4-1.8-0.5c-0.7-0.1-1.4-0.3-2.1-0.5c-0.7-0.2-1.4-0.4-2.1-0.6
		c-0.7-0.2-1.3-0.5-1.8-0.8c-0.5-0.3-0.9-0.8-1.3-1.3c-0.3-0.5-0.5-1.1-0.5-1.9c0-0.7,0.2-1.4,0.5-1.9c0.3-0.6,0.8-1,1.4-1.4
		c0.6-0.4,1.2-0.7,2-0.8c0.8-0.2,1.6-0.3,2.4-0.3c0.3,0,0.6,0,1,0c0.4,0,0.8,0.1,1.2,0.1c0.4,0.1,0.9,0.2,1.3,0.3
		c0.4,0.1,0.8,0.3,1.2,0.4c0.4,0.2,0.7,0.4,1,0.6c0.3,0.3,0.5,0.6,0.6,0.9c0,0.1,0,0.2,0,0.4c0,0.1,0,0.2-0.1,0.3
		c-0.1,0.1-0.2,0.2-0.3,0.3c-0.1,0.1-0.3,0.1-0.5,0.1s-0.4-0.1-0.7-0.2c-0.3-0.1-0.6-0.3-1.1-0.5c-0.4-0.2-1-0.3-1.6-0.5
		c-0.6-0.1-1.4-0.2-2.2-0.2c-0.7,0-1.3,0.1-1.8,0.2c-0.5,0.2-0.9,0.4-1.2,0.6c-0.3,0.2-0.5,0.5-0.6,0.8S513.8,117.6,513.8,117.8z"/>
	<path id="XMLID_112_" class="st6" d="M538.2,129.5c0,0.2,0,0.3-0.1,0.4c-0.1,0.1-0.2,0.2-0.3,0.2c-0.1,0-0.2,0.1-0.4,0.1
		c-0.1,0-0.3,0-0.5,0c-0.3,0-0.6,0-0.9-0.1c-0.3-0.1-0.4-0.3-0.4-0.6v-13.5c0-0.6,0.2-1,0.7-1.4c0.5-0.3,1.1-0.6,1.9-0.8
		c0.8-0.2,1.7-0.3,2.8-0.4c1.1-0.1,2.2-0.1,3.4-0.1c1.2,0,2.2,0.2,3,0.6s1.4,1,1.8,1.7c0.4,0.7,0.7,1.6,0.9,2.7
		c0.2,1,0.2,2.2,0.2,3.5v7.7c0,0.2,0,0.3-0.1,0.4c-0.1,0.1-0.2,0.2-0.3,0.2c-0.1,0-0.2,0.1-0.4,0.1c-0.1,0-0.3,0-0.5,0
		c-0.3,0-0.6,0-0.9-0.1s-0.4-0.3-0.4-0.6l0-6.9c0-1.2,0-2.3-0.1-3.2c-0.1-0.9-0.3-1.7-0.6-2.2c-0.3-0.6-0.7-1-1.3-1.3
		c-0.5-0.3-1.3-0.4-2.2-0.4c-0.9,0-1.7,0-2.3,0.1c-0.6,0-1.2,0.1-1.6,0.2c-0.4,0.1-0.7,0.2-1,0.3c-0.2,0.1-0.4,0.2-0.5,0.3
		c-0.1,0.1-0.2,0.3-0.2,0.4c0,0.1,0,0.3,0,0.4V129.5z"/>
	<path id="XMLID_109_" class="st6" d="M561.6,130.2c-1.1,0-2.1-0.1-2.9-0.3c-0.8-0.2-1.5-0.5-2-0.9c-0.6-0.4-1-0.8-1.3-1.3
		c-0.3-0.5-0.6-1.1-0.8-1.7c-0.2-0.6-0.3-1.3-0.4-2c-0.1-0.7-0.1-1.4-0.1-2.1v-0.1c0-0.7,0-1.4,0.1-2.1c0.1-0.7,0.2-1.4,0.4-2
		c0.2-0.6,0.4-1.2,0.8-1.7c0.3-0.5,0.8-1,1.3-1.3c0.6-0.4,1.2-0.7,2-0.9c0.8-0.2,1.8-0.3,2.9-0.3h0.1c1.1,0,2.1,0.1,2.9,0.3
		c0.8,0.2,1.5,0.5,2,0.9c0.5,0.4,1,0.8,1.3,1.3c0.3,0.5,0.6,1.1,0.8,1.7c0.2,0.6,0.3,1.3,0.4,2s0.1,1.4,0.1,2.1v0.1
		c0,0.7,0,1.4-0.1,2.1s-0.2,1.4-0.4,2c-0.2,0.6-0.4,1.2-0.8,1.7c-0.3,0.5-0.8,1-1.3,1.3c-0.5,0.4-1.2,0.7-2,0.9
		C563.8,130.1,562.8,130.2,561.6,130.2L561.6,130.2z M561.8,128.2c1,0,1.9-0.1,2.5-0.4c0.6-0.3,1.1-0.7,1.5-1.2s0.6-1.2,0.7-1.9
		c0.1-0.8,0.2-1.6,0.2-2.6v-0.5c0-1-0.1-1.8-0.2-2.6c-0.1-0.8-0.3-1.4-0.7-1.9s-0.8-0.9-1.5-1.2c-0.6-0.3-1.5-0.4-2.5-0.4h-0.3
		c-1,0-1.9,0.1-2.5,0.4c-0.6,0.3-1.1,0.7-1.5,1.2c-0.3,0.5-0.6,1.2-0.7,1.9c-0.1,0.8-0.2,1.6-0.2,2.6v0.5c0,1,0.1,1.8,0.2,2.6
		c0.1,0.8,0.3,1.4,0.7,1.9c0.3,0.5,0.8,0.9,1.5,1.2c0.6,0.3,1.5,0.4,2.5,0.4H561.8z"/>
	<path id="XMLID_107_" class="st6" d="M583.8,114.6c0.1,0,0.1,0,0.2,0c0.1,0,0.1,0,0.2,0c0.2,0,0.5,0.1,0.8,0.1
		c0.3,0.1,0.5,0.2,0.7,0.3c0.2,0.1,0.4,0.3,0.6,0.5c0.2,0.2,0.3,0.5,0.3,0.8l2.2,11.3c0,0.2,0.1,0.3,0.3,0.4
		c0.1,0.1,0.3,0.1,0.3,0.1c0.1,0,0.3,0,0.4-0.1c0.1-0.1,0.2-0.2,0.3-0.4l3.3-13.7c0-0.1,0.1-0.2,0.1-0.3c0.1-0.1,0.2-0.1,0.3-0.1
		c0.1,0,0.2-0.1,0.3-0.1c0.1,0,0.2,0,0.3,0c0.2,0,0.4,0,0.5,0.1s0.3,0.1,0.4,0.2c0.1,0.1,0.2,0.2,0.3,0.4c0.1,0.1,0.1,0.3,0,0.5
		l-3.2,13.6c-0.1,0.5-0.3,0.9-0.5,1.2c-0.2,0.3-0.5,0.5-0.8,0.6c-0.3,0.1-0.6,0.2-0.9,0.2s-0.5,0-0.7,0h-0.3c-0.3,0-0.5,0-0.8-0.1
		c-0.3,0-0.6-0.1-0.8-0.3c-0.3-0.1-0.5-0.3-0.7-0.6c-0.2-0.3-0.3-0.6-0.4-1l-2.3-11.2c0-0.2-0.1-0.3-0.3-0.3s-0.2-0.1-0.3-0.1h0h0
		c0,0-0.1,0-0.1,0c-0.1,0-0.1,0-0.2,0.1c-0.1,0-0.1,0.1-0.2,0.1c-0.1,0-0.1,0.1-0.1,0.2l-2.3,11.2c-0.1,0.4-0.2,0.8-0.4,1
		c-0.2,0.3-0.4,0.5-0.7,0.6c-0.3,0.1-0.5,0.2-0.8,0.3c-0.3,0-0.6,0.1-0.8,0.1h-0.3c-0.2,0-0.4,0-0.7,0s-0.6-0.1-0.9-0.2
		c-0.3-0.1-0.5-0.3-0.8-0.6c-0.2-0.3-0.4-0.7-0.5-1.2l-3.2-13.6c0-0.2,0-0.3,0-0.5c0.1-0.1,0.1-0.3,0.3-0.4c0.1-0.1,0.3-0.2,0.4-0.2
		s0.3-0.1,0.5-0.1c0.1,0,0.2,0,0.3,0c0.1,0,0.2,0,0.3,0.1c0.1,0,0.2,0.1,0.3,0.1c0.1,0.1,0.1,0.1,0.1,0.3l3.3,13.7
		c0,0.2,0.1,0.3,0.3,0.4c0.1,0.1,0.3,0.1,0.4,0.1c0.1,0,0.2,0,0.3-0.1c0.1-0.1,0.2-0.2,0.3-0.4l2.2-11.3c0.1-0.3,0.2-0.6,0.3-0.8
		c0.2-0.2,0.4-0.4,0.6-0.5c0.2-0.1,0.5-0.2,0.7-0.3c0.3-0.1,0.5-0.1,0.8-0.1c0.1,0,0.1,0,0.2,0C583.6,114.6,583.7,114.6,583.8,114.6
		L583.8,114.6L583.8,114.6z"/>
</g>
</svg>
