<?xml version="1.0" encoding="utf-8"?>
<!-- Generator: Adobe Illustrator 20.0.0, SVG Export Plug-In . SVG Version: 6.00 Build 0)  -->
<svg version="1.1" id="Camada_1" xmlns="http://www.w3.org/2000/svg" xmlns:xlink="http://www.w3.org/1999/xlink" x="0px" y="0px"
	 viewBox="0 0 1017.1 509.9" style="enable-background:new 0 0 1017.1 509.9;" xml:space="preserve">
<style type="text/css">
	.st0{fill:#00CCCC;}
	.st1{fill:#FF6347;}
	.st2{fill:#FFFFFF;}
</style>
<g>
	<g>
		<path class="st0" d="M1470.6,858.8c-7-4.2-14.3-8-21.8-11.2c-6.3-2.8-13.4-5.4-21.2-7.9c-7.8-2.5-15.5-3.7-23-3.7
			c-6.1,0-10.9,0.9-14.6,2.8c-3.6,1.9-5.4,5-5.4,9.5c0,3.3,1.1,6,3.2,8.1c2.1,2.1,5.1,4,9.1,5.8c4,1.8,8.8,3.5,14.6,5.1
			c5.7,1.6,12.2,3.6,19.5,6c11.5,3.5,21.8,7.4,31.1,11.6c9.2,4.2,17.1,9.2,23.7,14.9c6.6,5.7,11.6,12.7,15.1,20.9
			c3.5,8.2,5.3,18.1,5.3,29.8c0,15-2.8,27.6-8.3,37.7c-5.5,10.2-12.8,18.3-21.8,24.4c-9,6.1-19.2,10.5-30.5,13.2
			c-11.4,2.7-22.8,4-34.2,4c-9.1,0-18.5-0.7-28.1-2.1c-9.6-1.4-19.1-3.4-28.6-6c-9.5-2.6-18.6-5.6-27.4-9.1
			c-8.8-3.5-16.9-7.5-24.4-11.9l29.5-60c8.2,5.2,16.7,9.7,25.6,13.7c7.5,3.5,16,6.7,25.5,9.5c9.5,2.8,19.1,4.2,29,4.2
			c7.5,0,12.7-1,15.6-3c2.9-2,4.4-4.6,4.4-7.9c0-3.5-1.5-6.5-4.4-9c-2.9-2.5-7-4.6-12.1-6.5c-5.2-1.9-11.1-3.7-17.7-5.6
			c-6.7-1.9-13.8-4.1-21.2-6.7c-11-3.7-20.5-7.8-28.4-12.1c-8-4.3-14.5-9.2-19.7-14.7c-5.2-5.5-9-11.8-11.4-18.8
			c-2.5-7-3.7-15.1-3.7-24.2c0-13.8,2.5-26,7.5-36.5c5-10.5,11.9-19.3,20.5-26.3c8.7-7,18.5-12.3,29.7-16
			c11.1-3.6,22.9-5.4,35.3-5.4c9.1,0,18,0.9,26.7,2.6c8.7,1.8,17,4,25.1,6.7c8.1,2.7,15.6,5.6,22.6,8.8c7,3.2,13.3,6.1,19,9
			L1470.6,858.8z"/>
		<path class="st0" d="M1536.3,1026.6V777.3h68.5v249.3H1536.3z"/>
		<path class="st0" d="M1868.1,777.3v249.3h-68.5V929h-83.6v97.6h-68.5V777.3h68.5v92h83.6v-92H1868.1z"/>
		<path class="st0" d="M1961.5,777.3h62.5l86.4,249.3h-69.5l-15.1-48.8h-66.4l-14.7,48.8h-69.9L1961.5,777.3z M2014.9,932.2
			l-22.1-77.2l-23.2,77.2H2014.9z"/>
		<path class="st0" d="M2329.2,962.7c0,11.2-2.3,20.9-7,29c-4.7,8.1-11.1,14.7-19.3,19.8c-8.2,5.2-17.7,9-28.6,11.4
			s-22.4,3.7-34.6,3.7h-122.5V777.3h144.7c8.7,0,16.5,1.9,23.5,5.6c7,3.7,13,8.6,17.9,14.6c4.9,6,8.7,12.8,11.4,20.4
			c2.7,7.6,4,15.4,4,23.4c0,11.7-3,22.9-9,33.5c-6,10.7-14.9,18.7-26.9,24.1c14.3,4.2,25.6,11.5,33.9,21.9
			C2325,931.2,2329.2,945.2,2329.2,962.7z M2185.5,835.6v38.3h46.7c4.7,0,9-1.3,12.8-3.9c3.9-2.6,5.8-7.7,5.8-15.4
			c0-6.8-1.6-11.6-4.9-14.6c-3.3-2.9-7.1-4.4-11.6-4.4H2185.5z M2259.6,948.7c0-6.1-1.6-11.2-4.9-15.3c-3.3-4.1-7.5-6.1-12.6-6.1
			h-56.5V969h54.1c5.6,0,10.4-1.8,14.2-5.3C2257.7,960.3,2259.6,955.2,2259.6,948.7z"/>
	</g>
	<g>
		<polygon class="st1" points="1614.8,588.6 1330.8,703.8 1330.8,739.5 1614.8,624.4 1662.8,643.8 1706.9,626 		"/>
		<g>
			<polygon class="st1" points="1817.8,588.6 1533.8,703.8 1533.8,739.5 1817.8,624.4 2101.8,739.5 2101.8,703.8 			"/>
		</g>
		<polygon class="st1" points="2021.1,588.6 1929.2,626 1973.3,643.8 2021,624.4 2304.8,739.5 2304.8,703.8 		"/>
	</g>
	<g>
		<path d="M1369.4,1062.3c-1.5-2.3-3.8-3.4-6.7-3.4c-0.9,0-1.8,0.1-2.7,0.4c-0.9,0.2-1.7,0.6-2.4,1.1c-0.7,0.5-1.3,1.2-1.7,2
			c-0.4,0.8-0.6,1.7-0.6,2.8c0,1.6,0.4,2.8,1.3,3.7c0.9,0.9,2,1.6,3.3,2.1c1.3,0.6,2.7,1.1,4.3,1.5c1.6,0.4,3,1,4.3,1.8
			c1.3,0.7,2.4,1.7,3.3,2.9c0.9,1.2,1.3,2.9,1.3,5c0,1.6-0.3,3-1,4.3c-0.7,1.3-1.6,2.3-2.7,3.2c-1.1,0.9-2.3,1.5-3.7,2
			c-1.4,0.5-2.7,0.7-4.1,0.7c-2.1,0-4.2-0.4-6.1-1.2c-1.9-0.8-3.6-2.1-4.9-4l3.2-2.3c0.8,1.3,1.8,2.3,3.1,3.1
			c1.3,0.8,2.9,1.2,4.8,1.2c0.9,0,1.8-0.1,2.6-0.4s1.7-0.7,2.4-1.2c0.7-0.5,1.3-1.2,1.7-2s0.7-1.7,0.7-2.7c0-1.2-0.3-2.2-0.8-3
			c-0.5-0.8-1.2-1.5-2-2c-0.8-0.5-1.8-1-2.9-1.4c-1.1-0.4-2.2-0.7-3.3-1.1c-1.1-0.4-2.2-0.8-3.3-1.2c-1.1-0.5-2-1-2.9-1.7
			s-1.5-1.6-2-2.7c-0.5-1.1-0.8-2.4-0.8-4c0-1.7,0.3-3.1,1-4.4c0.6-1.2,1.5-2.3,2.6-3.1c1.1-0.8,2.3-1.4,3.6-1.8
			c1.3-0.4,2.7-0.6,4.1-0.6c2,0,3.8,0.3,5.4,0.9c1.6,0.6,3.1,1.7,4.5,3.3L1369.4,1062.3z"/>
		<path d="M1385.8,1091.4h-3.5v-34.9h3.5V1091.4z"/>
		<path d="M1413.7,1062.3c-1.5-2.3-3.8-3.4-6.7-3.4c-0.9,0-1.8,0.1-2.7,0.4c-0.9,0.2-1.7,0.6-2.4,1.1c-0.7,0.5-1.3,1.2-1.7,2
			c-0.4,0.8-0.6,1.7-0.6,2.8c0,1.6,0.4,2.8,1.3,3.7c0.9,0.9,2,1.6,3.3,2.1c1.3,0.6,2.7,1.1,4.3,1.5s3,1,4.3,1.8
			c1.3,0.7,2.4,1.7,3.3,2.9c0.9,1.2,1.3,2.9,1.3,5c0,1.6-0.3,3-1,4.3c-0.7,1.3-1.6,2.3-2.7,3.2c-1.1,0.9-2.3,1.5-3.7,2
			c-1.4,0.5-2.7,0.7-4.1,0.7c-2.1,0-4.2-0.4-6.1-1.2c-1.9-0.8-3.6-2.1-4.9-4l3.2-2.3c0.8,1.3,1.8,2.3,3.1,3.1
			c1.3,0.8,2.9,1.2,4.8,1.2c0.9,0,1.8-0.1,2.6-0.4c0.9-0.3,1.7-0.7,2.4-1.2c0.7-0.5,1.3-1.2,1.7-2c0.5-0.8,0.7-1.7,0.7-2.7
			c0-1.2-0.3-2.2-0.8-3c-0.5-0.8-1.2-1.5-2-2s-1.8-1-2.9-1.4c-1.1-0.4-2.2-0.7-3.3-1.1c-1.1-0.4-2.2-0.8-3.3-1.2
			c-1.1-0.5-2-1-2.9-1.7c-0.8-0.7-1.5-1.6-2-2.7c-0.5-1.1-0.8-2.4-0.8-4c0-1.7,0.3-3.1,1-4.4c0.6-1.2,1.5-2.3,2.6-3.1
			c1.1-0.8,2.3-1.4,3.6-1.8c1.3-0.4,2.7-0.6,4.1-0.6c2,0,3.8,0.3,5.4,0.9c1.6,0.6,3.1,1.7,4.5,3.3L1413.7,1062.3z"/>
		<path d="M1437.7,1091.4h-3.5v-31.6h-11.7v-3.2h26.9v3.2h-11.7V1091.4z"/>
		<path d="M1460.3,1088.2h18.7v3.2h-22.2v-34.9h21.6v3.2h-18.1v11.9h16.9v3.2h-16.9V1088.2z"/>
		<path d="M1505.1,1084.9l11.8-28.4h5.4v34.9h-3.5v-30.1h-0.1l-12.6,30.1h-1.9l-12.6-30.1h-0.1v30.1h-3.5v-34.9h5.4L1505.1,1084.9z"
			/>
		<path d="M1533.1,1091.4h-4.1l15.2-34.9h3.4l15.2,34.9h-4.1l-3.8-9.2H1537L1533.1,1091.4z M1538.3,1079h15.1l-7.5-18.3L1538.3,1079
			z"/>
		<path d="M1588.6,1091.4h-3.5v-34.9h3.5V1091.4z"/>
		<path d="M1625.3,1086.1L1625.3,1086.1l0.1-29.5h3.5v34.9h-4.4l-20.8-29.8h-0.1v29.8h-3.5v-34.9h4.4L1625.3,1086.1z"/>
		<path d="M1651.5,1091.4h-3.5v-31.6h-11.7v-3.2h26.9v3.2h-11.7V1091.4z"/>
		<path d="M1674.1,1088.2h18.7v3.2h-22.2v-34.9h21.6v3.2h-18.1v11.9h16.9v3.2h-16.9V1088.2z"/>
		<path d="M1727.5,1063c-1.2-1.2-2.6-2.2-4.2-3c-1.6-0.7-3.5-1.1-5.7-1.1c-2.2,0-4.2,0.4-6,1.2s-3.3,1.9-4.5,3.3
			c-1.2,1.4-2.2,3-2.8,4.8c-0.7,1.8-1,3.7-1,5.7c0,2,0.3,3.9,1,5.7c0.7,1.8,1.6,3.4,2.8,4.8c1.2,1.4,2.7,2.5,4.5,3.3s3.8,1.2,6,1.2
			c1.8,0,3.5-0.2,5.2-0.7c1.7-0.4,3.1-1,4.5-1.8v-11.7h-8.3v-3.2h11.9v17.1c-2,1.1-4.1,2-6.5,2.6c-2.3,0.6-4.6,0.9-6.7,0.9
			c-2.6,0-5-0.5-7.2-1.4c-2.2-0.9-4.1-2.2-5.8-3.8c-1.6-1.6-2.9-3.6-3.8-5.8c-0.9-2.2-1.4-4.7-1.4-7.3c0-2.7,0.5-5.1,1.4-7.3
			c0.9-2.2,2.2-4.2,3.8-5.8c1.6-1.6,3.5-2.9,5.8-3.8c2.2-0.9,4.6-1.4,7.2-1.4c2.8,0,5.2,0.4,7.2,1.2c2,0.8,3.8,1.9,5.4,3.5
			L1727.5,1063z"/>
		<path d="M1745.5,1091.4h-3.5v-34.9h10.7c3.5,0,6.3,0.8,8.4,2.3c2.1,1.5,3.1,3.9,3.1,7c0,2.4-0.8,4.5-2.3,6.1
			c-1.5,1.7-3.7,2.6-6.6,2.9l10,16.5h-4.3l-9.5-16.2h-5.9V1091.4z M1745.5,1072h6.3c1.6,0,2.9-0.2,4-0.5c1.1-0.3,2-0.8,2.6-1.3
			c0.7-0.5,1.1-1.2,1.4-1.9s0.4-1.5,0.4-2.4c0-0.8-0.1-1.6-0.4-2.3c-0.3-0.7-0.8-1.4-1.4-1.9c-0.7-0.6-1.5-1-2.6-1.3
			c-1.1-0.3-2.4-0.5-4-0.5h-6.3V1072z"/>
		<path d="M1772.6,1091.4h-4.1l15.2-34.9h3.4l15.2,34.9h-4.1l-3.8-9.2h-17.8L1772.6,1091.4z M1777.7,1079h15.1l-7.5-18.3
			L1777.7,1079z"/>
		<path d="M1808.4,1056.6h11.6c2.2,0,4.3,0.4,6.5,1.1c2.2,0.7,4.2,1.8,5.9,3.3c1.8,1.5,3.2,3.3,4.3,5.5c1.1,2.2,1.6,4.7,1.6,7.6
			c0,2.9-0.5,5.5-1.6,7.6s-2.5,4-4.3,5.4c-1.8,1.5-3.7,2.6-5.9,3.3c-2.2,0.7-4.4,1.1-6.5,1.1h-11.6V1056.6z M1811.9,1088.2h6.9
			c2.7,0,5-0.4,6.9-1.2c2-0.8,3.6-1.9,4.9-3.2c1.3-1.3,2.3-2.8,2.9-4.5c0.6-1.7,0.9-3.4,0.9-5.2c0-1.8-0.3-3.6-0.9-5.2
			c-0.6-1.7-1.6-3.2-2.9-4.5s-2.9-2.4-4.9-3.2c-2-0.8-4.3-1.2-6.9-1.2h-6.9V1088.2z"/>
		<path d="M1881.3,1074c0,2.7-0.5,5.1-1.4,7.3c-0.9,2.2-2.2,4.2-3.8,5.8c-1.6,1.6-3.5,2.9-5.8,3.8c-2.2,0.9-4.6,1.4-7.2,1.4
			c-2.6,0-5-0.5-7.2-1.4c-2.2-0.9-4.1-2.2-5.8-3.8c-1.6-1.6-2.9-3.6-3.8-5.8c-0.9-2.2-1.4-4.7-1.4-7.3c0-2.7,0.5-5.1,1.4-7.3
			c0.9-2.2,2.2-4.2,3.8-5.8c1.6-1.6,3.5-2.9,5.8-3.8c2.2-0.9,4.6-1.4,7.2-1.4c2.6,0,5,0.5,7.2,1.4c2.2,0.9,4.1,2.2,5.8,3.8
			c1.6,1.6,2.9,3.6,3.8,5.8C1880.8,1068.9,1881.3,1071.3,1881.3,1074z M1877.5,1074c0-2-0.3-3.9-1-5.7c-0.7-1.8-1.6-3.4-2.8-4.8
			c-1.2-1.4-2.7-2.5-4.5-3.3c-1.8-0.8-3.8-1.2-6-1.2c-2.2,0-4.2,0.4-6,1.2s-3.3,1.9-4.5,3.3c-1.2,1.4-2.2,3-2.8,4.8
			c-0.7,1.8-1,3.7-1,5.7c0,2,0.3,3.9,1,5.7c0.7,1.8,1.6,3.4,2.8,4.8c1.2,1.4,2.7,2.5,4.5,3.3s3.8,1.2,6,1.2c2.2,0,4.2-0.4,6-1.2
			c1.8-0.8,3.3-1.9,4.5-3.3c1.2-1.4,2.2-3,2.8-4.8C1877.1,1077.9,1877.5,1076,1877.5,1074z"/>
		<path d="M1905.5,1056.6h11.6c2.2,0,4.3,0.4,6.5,1.1c2.2,0.7,4.2,1.8,5.9,3.3c1.8,1.5,3.2,3.3,4.3,5.5c1.1,2.2,1.6,4.7,1.6,7.6
			c0,2.9-0.5,5.5-1.6,7.6c-1.1,2.2-2.5,4-4.3,5.4c-1.8,1.5-3.7,2.6-5.9,3.3c-2.2,0.7-4.4,1.1-6.5,1.1h-11.6V1056.6z M1909.1,1088.2
			h6.9c2.7,0,5-0.4,6.9-1.2c2-0.8,3.6-1.9,4.9-3.2c1.3-1.3,2.3-2.8,2.9-4.5c0.6-1.7,0.9-3.4,0.9-5.2c0-1.8-0.3-3.6-0.9-5.2
			c-0.6-1.7-1.6-3.2-2.9-4.5s-2.9-2.4-4.9-3.2c-2-0.8-4.3-1.2-6.9-1.2h-6.9V1088.2z"/>
		<path d="M1948,1088.2h18.7v3.2h-22.2v-34.9h21.6v3.2H1948v11.9h16.9v3.2H1948V1088.2z"/>
		<path d="M1991.3,1056.6h3.5v15.1h19v-15.1h3.5v34.9h-3.5v-16.5h-19v16.5h-3.5V1056.6z"/>
		<path d="M2028.2,1091.4h-4.1l15.2-34.9h3.4l15.2,34.9h-4.1l-3.8-9.2H2032L2028.2,1091.4z M2033.4,1079h15.1l-7.5-18.3L2033.4,1079
			z"/>
		<path d="M2064.5,1056.6h10.4c1.4,0,2.8,0.1,4.2,0.4c1.3,0.3,2.5,0.8,3.6,1.5c1.1,0.7,1.9,1.6,2.5,2.7s0.9,2.5,0.9,4.1
			c0,1.9-0.5,3.5-1.6,4.9c-1.1,1.4-2.6,2.3-4.6,2.7v0.1c2.5,0.2,4.4,1.1,5.8,2.6c1.4,1.5,2.1,3.6,2.1,6.1c0,0.6-0.1,1.4-0.4,2.5
			c-0.3,1.1-0.9,2.2-1.7,3.2c-0.9,1.1-2.2,2-3.8,2.8c-1.7,0.8-3.9,1.2-6.7,1.2h-10.6V1056.6z M2068.1,1071.8h7.1
			c0.9,0,1.7-0.1,2.5-0.3c0.8-0.2,1.6-0.6,2.3-1.1c0.7-0.5,1.2-1.1,1.6-1.9c0.4-0.8,0.6-1.7,0.6-2.8c0-0.4-0.1-0.9-0.2-1.5
			c-0.1-0.7-0.5-1.3-1-2c-0.5-0.7-1.3-1.2-2.2-1.7c-1-0.5-2.3-0.7-4-0.7h-6.8V1071.8z M2068.1,1088.2h6.8c1.3,0,2.5-0.1,3.6-0.4
			c1.1-0.3,2.1-0.7,2.9-1.2c0.8-0.5,1.5-1.2,1.9-2c0.5-0.8,0.7-1.8,0.7-3c0-2.3-0.7-4-2.2-5.1c-1.5-1.1-3.6-1.7-6.5-1.7h-7.2V1088.2
			z"/>
		<path d="M2101,1091.4h-3.5v-34.9h3.5V1091.4z"/>
		<path d="M2123.6,1091.4h-3.5v-31.6h-11.7v-3.2h26.9v3.2h-11.7V1091.4z"/>
		<path d="M2138.8,1091.4h-4.1l15.2-34.9h3.4l15.2,34.9h-4.1l-3.8-9.2h-17.8L2138.8,1091.4z M2143.9,1079h15.1l-7.5-18.3
			L2143.9,1079z"/>
		<path d="M2188.2,1094.4L2188.2,1094.4c0.4,0,0.6-0.1,0.9-0.2c0.3-0.1,0.6-0.1,1-0.1c1,0,1.9,0.3,2.6,1c0.8,0.6,1.2,1.6,1.2,2.7
			c0,0.8-0.2,1.4-0.5,2c-0.3,0.6-0.8,1-1.3,1.4s-1.1,0.6-1.8,0.8c-0.7,0.2-1.3,0.2-2,0.2c-1.7,0-3.3-0.4-4.8-1.2l0.8-1.8
			c1.1,0.6,2.3,0.9,3.6,0.9c0.7,0,1.4-0.2,2.1-0.5c0.7-0.3,1-0.9,1-1.7c0-0.1,0-0.3-0.1-0.5c-0.1-0.2-0.2-0.5-0.3-0.7
			c-0.2-0.2-0.4-0.4-0.7-0.5c-0.3-0.1-0.7-0.2-1.2-0.2c-0.5,0-0.9,0.1-1.2,0.1c-0.4,0.1-0.7,0.2-1,0.4l-0.9-0.8l2.6-3.5
			c-1.5-0.2-2.9-0.6-4.3-1.1c-2.2-0.9-4.1-2.2-5.7-3.8c-1.6-1.6-2.9-3.6-3.8-5.8c-0.9-2.2-1.4-4.7-1.4-7.3c0-2.7,0.5-5.1,1.4-7.3
			c0.9-2.2,2.2-4.2,3.8-5.8c1.6-1.6,3.5-2.9,5.8-3.8c2.2-0.9,4.6-1.4,7.2-1.4c2.2,0,4.3,0.4,6.5,1.3c2.2,0.9,4,2.3,5.6,4.2l-3.1,2.3
			c-0.4-0.6-0.9-1.1-1.5-1.7c-0.6-0.6-1.3-1-2.1-1.5c-0.8-0.4-1.7-0.8-2.6-1c-0.9-0.3-1.8-0.4-2.8-0.4c-2.2,0-4.2,0.4-6,1.2
			c-1.8,0.8-3.3,1.9-4.5,3.3c-1.2,1.4-2.2,3-2.8,4.8c-0.7,1.8-1,3.7-1,5.7c0,2,0.3,3.9,1,5.7c0.7,1.8,1.6,3.4,2.8,4.8
			c1.2,1.4,2.7,2.5,4.5,3.3c1.8,0.8,3.8,1.2,6,1.2c0.9,0,1.8-0.1,2.7-0.2c0.9-0.2,1.8-0.4,2.7-0.8s1.7-0.9,2.5-1.6
			c0.8-0.7,1.5-1.5,2.1-2.5l2.9,2.1c-0.6,0.9-1.3,1.7-2.2,2.5c-0.9,0.8-1.9,1.5-3,2c-1.1,0.6-2.3,1-3.6,1.4
			c-1.3,0.3-2.7,0.5-4.1,0.5c-0.4,0-0.7,0-1.1,0L2188.2,1094.4z"/>
		<path d="M2211.1,1091.4h-4.1l15.2-34.9h3.4l15.2,34.9h-4.1l-3.8-9.2H2215L2211.1,1091.4z M2215.9,1054.4c0.1-0.6,0.3-1.2,0.5-1.9
			c0.2-0.6,0.5-1.2,0.9-1.6c0.4-0.5,0.8-0.9,1.3-1.2c0.5-0.3,1.1-0.4,1.9-0.4c0.6,0,1.2,0.1,1.8,0.3c0.6,0.2,1.2,0.5,1.8,0.8
			c0.6,0.3,1.2,0.5,1.7,0.8c0.6,0.2,1.1,0.4,1.6,0.4c0.8,0,1.3-0.3,1.6-0.8c0.3-0.5,0.6-1.1,0.8-1.7h2.1c-0.1,0.7-0.3,1.3-0.5,1.9
			c-0.2,0.6-0.5,1.1-0.9,1.6c-0.4,0.5-0.8,0.9-1.3,1.2c-0.5,0.3-1.1,0.4-1.9,0.4c-0.6,0-1.2-0.1-1.8-0.4c-0.6-0.2-1.2-0.5-1.8-0.8
			c-0.6-0.3-1.1-0.6-1.7-0.8c-0.6-0.2-1.1-0.3-1.6-0.3c-0.8,0-1.3,0.3-1.6,0.8c-0.3,0.5-0.6,1.1-0.8,1.7H2215.9z M2216.3,1079h15.1
			l-7.5-18.3L2216.3,1079z"/>
		<path d="M2281.4,1074c0,2.7-0.5,5.1-1.4,7.3c-0.9,2.2-2.2,4.2-3.8,5.8s-3.5,2.9-5.8,3.8c-2.2,0.9-4.6,1.4-7.2,1.4
			c-2.6,0-5-0.5-7.2-1.4c-2.2-0.9-4.1-2.2-5.8-3.8s-2.9-3.6-3.8-5.8c-0.9-2.2-1.4-4.7-1.4-7.3c0-2.7,0.5-5.1,1.4-7.3
			c0.9-2.2,2.2-4.2,3.8-5.8s3.5-2.9,5.8-3.8c2.2-0.9,4.6-1.4,7.2-1.4c2.6,0,5,0.5,7.2,1.4c2.2,0.9,4.1,2.2,5.8,3.8s2.9,3.6,3.8,5.8
			C2281,1068.9,2281.4,1071.3,2281.4,1074z M2277.6,1074c0-2-0.3-3.9-1-5.7c-0.7-1.8-1.6-3.4-2.8-4.8c-1.2-1.4-2.7-2.5-4.5-3.3
			c-1.8-0.8-3.8-1.2-6-1.2c-2.2,0-4.2,0.4-6,1.2c-1.8,0.8-3.3,1.9-4.5,3.3c-1.2,1.4-2.2,3-2.8,4.8c-0.7,1.8-1,3.7-1,5.7
			c0,2,0.3,3.9,1,5.7c0.7,1.8,1.6,3.4,2.8,4.8c1.2,1.4,2.7,2.5,4.5,3.3c1.8,0.8,3.8,1.2,6,1.2c2.2,0,4.2-0.4,6-1.2
			c1.8-0.8,3.3-1.9,4.5-3.3c1.2-1.4,2.2-3,2.8-4.8C2277.2,1077.9,2277.6,1076,2277.6,1074z"/>
	</g>
</g>
<g>
	<g>
		<path d="M199.4,1849.4c-7.5-4.5-15.4-8.5-23.4-12.1c-6.8-3-14.4-5.8-22.8-8.5c-8.4-2.6-16.7-4-24.7-4c-6.5,0-11.8,1-15.7,3
			c-3.9,2-5.8,5.4-5.8,10.2c0,3.5,1.1,6.4,3.4,8.7c2.3,2.3,5.5,4.3,9.8,6.2c4.3,1.9,9.5,3.7,15.7,5.5c6.2,1.8,13.1,3.9,20.9,6.4
			c12.3,3.8,23.5,7.9,33.4,12.5c9.9,4.5,18.4,9.9,25.5,16c7,6.2,12.5,13.7,16.2,22.5c3.8,8.8,5.7,19.5,5.7,32.1
			c0,16.1-3,29.6-8.9,40.6c-5.9,10.9-13.7,19.7-23.4,26.2c-9.7,6.5-20.6,11.3-32.8,14.2c-12.2,2.9-24.5,4.3-36.8,4.3
			c-9.8,0-19.9-0.8-30.2-2.3c-10.3-1.5-20.6-3.6-30.8-6.4c-10.2-2.8-20-6-29.4-9.8c-9.4-3.8-18.2-8-26.2-12.8l31.7-64.5
			c8.8,5.5,18,10.4,27.6,14.7c8,3.8,17.2,7.2,27.4,10.2c10.2,3,20.6,4.5,31.1,4.5c8,0,13.6-1.1,16.8-3.2c3.1-2.1,4.7-5,4.7-8.5
			c0-3.8-1.6-7-4.7-9.6c-3.1-2.6-7.5-5-13-7c-5.5-2-11.9-4-19.1-6c-7.2-2-14.8-4.4-22.8-7.2c-11.8-4-22-8.4-30.6-13
			c-8.6-4.7-15.6-9.9-21.1-15.9c-5.5-5.9-9.6-12.6-12.3-20.2c-2.6-7.5-4-16.2-4-26c0-14.8,2.7-27.9,8.1-39.3
			c5.4-11.3,12.8-20.8,22.1-28.3c9.3-7.5,19.9-13.3,31.9-17.2c11.9-3.9,24.6-5.8,37.9-5.8c9.8,0,19.4,0.9,28.7,2.8
			c9.3,1.9,18.3,4.3,27,7.2c8.7,2.9,16.8,6,24.3,9.4c7.5,3.4,14.3,6.6,20.4,9.6L199.4,1849.4z"/>
		<path d="M270,2029.8v-268h73.6v268H270z"/>
		<path d="M626.6,1761.8v268h-73.6v-104.9h-89.8v104.9h-73.6v-268h73.6v98.9h89.8v-98.9H626.6z"/>
		<path d="M727,1761.8h67.2l92.8,268h-74.7l-16.2-52.5h-71.3l-15.9,52.5h-75.1L727,1761.8z M784.4,1928.2l-23.8-83l-24.9,83H784.4z"
			/>
		<path d="M1122.2,1961.1c0,12.1-2.5,22.5-7.5,31.1c-5,8.7-12,15.8-20.8,21.3c-8.8,5.5-19.1,9.6-30.8,12.3c-11.7,2.6-24.1,4-37.2,4
			H894.2v-268h155.5c9.3,0,17.7,2,25.3,6c7.5,4,14,9.2,19.2,15.7c5.3,6.4,9.4,13.7,12.3,21.9c2.9,8.2,4.3,16.5,4.3,25.1
			c0,12.6-3.2,24.6-9.6,36c-6.4,11.5-16,20.1-28.9,25.9c15.3,4.5,27.5,12.4,36.4,23.6C1117.7,1927.2,1122.2,1942.2,1122.2,1961.1z
			 M967.8,1824.4v41.1h50.2c5,0,9.6-1.4,13.8-4.2c4.2-2.8,6.2-8.3,6.2-16.6c0-7.3-1.8-12.5-5.3-15.7c-3.5-3.1-7.7-4.7-12.5-4.7
			H967.8z M1047.5,1946c0-6.5-1.8-12-5.3-16.4c-3.5-4.4-8.1-6.6-13.6-6.6h-60.8v44.9h58.1c6,0,11.1-1.9,15.3-5.7
			C1045.4,1958.4,1047.5,1953,1047.5,1946z"/>
	</g>
	<g>
		<polygon points="354.7,1559 49.8,1682.7 49.8,1721.1 354.7,1597.4 406.1,1618.3 453.6,1599.1 		"/>
		<g>
			<polygon points="572.8,1559 267.8,1682.7 267.8,1721.1 572.8,1597.4 877.8,1721.1 877.8,1682.7 			"/>
		</g>
		<polygon points="791.4,1559 692.5,1599.1 739.8,1618.3 791.5,1597.4 1096.8,1721.1 1096.8,1682.7 		"/>
	</g>
</g>
<g>
	<g>
		<path class="st0" d="M166.3,267.7c-7-4.2-14.2-7.9-21.6-11.1c-6.3-2.8-13.3-5.4-21.1-7.8c-7.8-2.4-15.4-3.7-22.8-3.7
			c-6,0-10.8,0.9-14.4,2.8c-3.6,1.9-5.4,5-5.4,9.4c0,3.3,1,5.9,3.1,8c2.1,2.1,5.1,4,9,5.7c3.9,1.7,8.8,3.4,14.4,5
			c5.7,1.6,12.1,3.6,19.3,5.9c11.4,3.5,21.6,7.3,30.8,11.5c9.2,4.2,17,9.1,23.5,14.8c6.5,5.7,11.5,12.6,15,20.7
			c3.5,8.1,5.2,18,5.2,29.6c0,14.8-2.7,27.3-8.2,37.4c-5.5,10.1-12.6,18.2-21.6,24.2c-8.9,6-19,10.4-30.3,13
			c-11.3,2.7-22.6,4-33.9,4c-9,0-18.3-0.7-27.8-2.1c-9.5-1.4-19-3.4-28.4-5.9c-9.4-2.6-18.4-5.6-27.1-9c-8.7-3.5-16.8-7.4-24.2-11.8
			l29.2-59.5c8.1,5.1,16.6,9.6,25.4,13.6c7.4,3.5,15.8,6.6,25.2,9.4c9.4,2.8,19,4.2,28.7,4.2c7.4,0,12.6-1,15.5-3
			c2.9-2,4.3-4.6,4.3-7.8c0-3.5-1.5-6.4-4.3-8.9c-2.9-2.4-6.9-4.6-12-6.4c-5.1-1.9-11-3.7-17.6-5.6c-6.6-1.9-13.6-4.1-21.1-6.6
			c-10.9-3.7-20.3-7.7-28.2-12c-7.9-4.3-14.4-9.2-19.5-14.6c-5.1-5.4-8.9-11.7-11.3-18.6c-2.4-7-3.7-15-3.7-24
			c0-13.7,2.5-25.7,7.5-36.2c5-10.4,11.8-19.1,20.4-26.1c8.6-7,18.4-12.2,29.4-15.8c11-3.6,22.7-5.4,35-5.4c9,0,17.9,0.9,26.4,2.6
			c8.6,1.7,16.9,3.9,24.9,6.6c8,2.7,15.5,5.6,22.4,8.7c7,3.1,13.2,6.1,18.8,8.9L166.3,267.7z"/>
		<path class="st0" d="M231.4,434V187h67.9V434H231.4z"/>
		<path class="st0" d="M560.2,187V434h-67.9v-96.7h-82.8V434h-67.9V187h67.9v91.2h82.8V187H560.2z"/>
		<path class="st0" d="M652.8,187h61.9L800.3,434h-68.9l-15-48.4h-65.8L636.1,434h-69.2L652.8,187z M705.7,340.4l-21.9-76.6
			l-23,76.6H705.7z"/>
		<path class="st0" d="M1017.1,370.7c0,11.1-2.3,20.7-7,28.7c-4.6,8-11,14.6-19.1,19.7c-8.1,5.1-17.6,8.9-28.4,11.3
			c-10.8,2.4-22.2,3.7-34.3,3.7H806.9V187h143.4c8.6,0,16.4,1.9,23.3,5.6c7,3.7,12.9,8.5,17.7,14.4c4.9,5.9,8.6,12.6,11.3,20.2
			c2.7,7.5,4,15.3,4,23.1c0,11.6-3,22.7-8.9,33.2c-5.9,10.6-14.8,18.5-26.6,23.8c14.1,4.2,25.3,11.4,33.6,21.7
			C1013,339.4,1017.1,353.3,1017.1,370.7z M874.8,244.7v37.9h46.3c4.6,0,8.9-1.3,12.7-3.8c3.8-2.5,5.7-7.7,5.7-15.3
			c0-6.7-1.6-11.5-4.9-14.4c-3.3-2.9-7.1-4.3-11.5-4.3H874.8z M948.2,356.8c0-6-1.6-11.1-4.9-15.1c-3.3-4.1-7.4-6.1-12.5-6.1h-56
			V377h53.6c5.6,0,10.3-1.7,14.1-5.2C946.3,368.3,948.2,363.3,948.2,356.8z"/>
	</g>
	<g>
		<polygon class="st1" points="309.7,0 28.8,114.1 28.8,149.5 309.7,35.4 357,54.7 400.8,37 		"/>
		<g>
			<polygon class="st1" points="510.3,0 228.8,114.1 228.8,149.5 510.3,35.4 791.8,149.5 791.8,114.1 			"/>
		</g>
		<polygon class="st1" points="712.2,0 620.9,37 664.5,54.7 712.2,35.4 993.8,149.5 993.8,114.1 		"/>
	</g>
	<g>
		<path class="st2" d="M75.3,472.1c-0.6-0.8-1.5-1.4-2.5-1.7c-1.1-0.4-2.1-0.6-3-0.6c-0.6,0-1.1,0.1-1.7,0.2
			c-0.6,0.1-1.1,0.3-1.7,0.6c-0.5,0.3-0.9,0.6-1.3,1.1s-0.5,1-0.5,1.7c0,1,0.4,1.8,1.2,2.4c0.8,0.6,1.8,1,3,1.4
			c1.2,0.4,2.5,0.8,3.8,1.2c1.4,0.4,2.6,0.9,3.8,1.7c1.2,0.7,2.2,1.7,3,2.9c0.8,1.2,1.2,2.8,1.2,4.8c0,1.9-0.4,3.6-1.1,5
			c-0.7,1.4-1.7,2.6-2.9,3.6c-1.2,0.9-2.6,1.6-4.2,2.1c-1.6,0.5-3.3,0.7-5.1,0.7c-2.2,0-4.3-0.3-6.2-1c-1.9-0.7-3.7-1.8-5.4-3.3
			l5.4-6c0.8,1,1.8,1.8,3,2.4c1.2,0.6,2.4,0.9,3.7,0.9c0.6,0,1.2-0.1,1.9-0.2c0.6-0.1,1.2-0.4,1.7-0.7c0.5-0.3,0.9-0.7,1.2-1.1
			c0.3-0.5,0.5-1,0.5-1.6c0-1-0.4-1.9-1.2-2.5c-0.8-0.6-1.8-1.1-3-1.5c-1.2-0.4-2.5-0.8-3.9-1.3c-1.4-0.4-2.7-1-3.9-1.7
			c-1.2-0.7-2.2-1.7-3-2.8c-0.8-1.2-1.2-2.7-1.2-4.6c0-1.9,0.4-3.5,1.1-4.9c0.7-1.4,1.7-2.6,2.9-3.5c1.2-0.9,2.6-1.7,4.2-2.1
			c1.6-0.5,3.2-0.7,4.9-0.7c2,0,3.8,0.3,5.7,0.8c1.8,0.6,3.5,1.5,4.9,2.8L75.3,472.1z"/>
		<path class="st2" d="M86.1,463.7h7.6v34.5h-7.6V463.7z"/>
		<path class="st2" d="M117.7,472.1c-0.6-0.8-1.5-1.4-2.5-1.7c-1.1-0.4-2.1-0.6-3-0.6c-0.6,0-1.1,0.1-1.7,0.2
			c-0.6,0.1-1.1,0.3-1.7,0.6c-0.5,0.3-0.9,0.6-1.3,1.1c-0.3,0.5-0.5,1-0.5,1.7c0,1,0.4,1.8,1.2,2.4c0.8,0.6,1.8,1,3,1.4
			c1.2,0.4,2.5,0.8,3.8,1.2c1.4,0.4,2.6,0.9,3.8,1.7c1.2,0.7,2.2,1.7,3,2.9c0.8,1.2,1.2,2.8,1.2,4.8c0,1.9-0.4,3.6-1.1,5
			c-0.7,1.4-1.7,2.6-2.9,3.6c-1.2,0.9-2.6,1.6-4.2,2.1c-1.6,0.5-3.3,0.7-5.1,0.7c-2.2,0-4.3-0.3-6.2-1c-1.9-0.7-3.7-1.8-5.4-3.3
			l5.4-6c0.8,1,1.8,1.8,3,2.4c1.2,0.6,2.4,0.9,3.7,0.9c0.6,0,1.2-0.1,1.9-0.2c0.6-0.1,1.2-0.4,1.7-0.7c0.5-0.3,0.9-0.7,1.2-1.1
			c0.3-0.5,0.5-1,0.5-1.6c0-1-0.4-1.9-1.2-2.5c-0.8-0.6-1.8-1.1-3-1.5c-1.2-0.4-2.5-0.8-3.9-1.3c-1.4-0.4-2.7-1-3.9-1.7
			c-1.2-0.7-2.2-1.7-3-2.8c-0.8-1.2-1.2-2.7-1.2-4.6c0-1.9,0.4-3.5,1.1-4.9c0.7-1.4,1.7-2.6,2.9-3.5c1.2-0.9,2.6-1.7,4.2-2.1
			c1.6-0.5,3.2-0.7,4.9-0.7c2,0,3.8,0.3,5.7,0.8c1.8,0.6,3.5,1.5,4.9,2.8L117.7,472.1z"/>
		<path class="st2" d="M135.3,470.4h-9.9v-6.7h27.3v6.7h-9.9v27.8h-7.6V470.4z"/>
		<path class="st2" d="M156.9,463.7h23.5v7h-15.9v6.4h15v7h-15v7h16.7v7h-24.3V463.7z"/>
		<path class="st2" d="M187.4,463.7h11.5l8,22.5h0.1l8-22.5h11.5v34.5h-7.6v-26.5h-0.1l-9.1,26.5h-5.8l-8.7-26.5H195v26.5h-7.6
			V463.7z"/>
		<path class="st2" d="M244.8,463.7h6.3l15,34.5h-8.6l-3-7.3h-13.4l-2.9,7.3h-8.4L244.8,463.7z M247.7,473.7l-4.2,10.7h8.4
			L247.7,473.7z"/>
		<path class="st2" d="M283.9,463.7h7.6v34.5h-7.6V463.7z"/>
		<path class="st2" d="M298.4,463.7h10.3l14.7,24h0.1v-24h7.6v34.5h-10l-15.1-24.6h-0.1v24.6h-7.6V463.7z"/>
		<path class="st2" d="M344.9,470.4H335v-6.7h27.3v6.7h-9.9v27.8h-7.6V470.4z"/>
		<path class="st2" d="M366.5,463.7H390v7h-15.9v6.4h15v7h-15v7h16.7v7h-24.3V463.7z"/>
		<path class="st2" d="M428.2,495.8c-2.2,1.2-4.6,2-7,2.5c-2.4,0.5-4.9,0.8-7.5,0.8c-2.7,0-5.2-0.4-7.5-1.3
			c-2.3-0.8-4.2-2.1-5.9-3.6s-3-3.5-3.9-5.7c-0.9-2.2-1.4-4.7-1.4-7.5c0-2.8,0.5-5.3,1.4-7.5c0.9-2.2,2.2-4.2,3.9-5.7
			s3.6-2.8,5.9-3.6c2.3-0.8,4.8-1.3,7.5-1.3c2.8,0,5.3,0.3,7.6,1c2.3,0.7,4.4,1.8,6.1,3.4l-5.4,5.9c-1-1.1-2.2-1.9-3.5-2.4
			c-1.3-0.6-2.9-0.8-4.9-0.8c-1.6,0-3.1,0.3-4.4,0.8c-1.3,0.6-2.4,1.3-3.4,2.3c-0.9,1-1.7,2.2-2.2,3.5c-0.5,1.4-0.8,2.8-0.8,4.4
			c0,1.6,0.3,3.1,0.8,4.5c0.5,1.3,1.2,2.5,2.2,3.5c0.9,1,2.1,1.8,3.4,2.3c1.3,0.6,2.8,0.8,4.4,0.8c1.7,0,3.1-0.2,4.3-0.6
			c1.2-0.4,2.2-0.8,2.9-1.1v-5.6h-6.2v-7h13.5V495.8z"/>
		<path class="st2" d="M434.9,463.7h13.4c1.8,0,3.4,0.2,5,0.5c1.6,0.3,3,0.9,4.1,1.7c1.2,0.8,2.1,1.9,2.8,3.2c0.7,1.3,1,3,1,5
			c0,2.4-0.6,4.5-1.9,6.2c-1.3,1.7-3.1,2.8-5.6,3.2l8.8,14.6h-9.1l-7.2-13.8h-3.8v13.8h-7.6V463.7z M442.5,478h4.5
			c0.7,0,1.4,0,2.2-0.1c0.8,0,1.5-0.2,2.1-0.4c0.6-0.2,1.1-0.6,1.5-1.1c0.4-0.5,0.6-1.3,0.6-2.2c0-0.9-0.2-1.6-0.5-2.1
			c-0.4-0.5-0.8-0.9-1.4-1.2c-0.6-0.3-1.2-0.5-1.9-0.6c-0.7-0.1-1.4-0.1-2.1-0.1h-5V478z"/>
		<path class="st2" d="M477.9,463.7h6.3l15,34.5h-8.6l-3-7.3h-13.4l-2.9,7.3h-8.4L477.9,463.7z M480.8,473.7l-4.2,10.7h8.4
			L480.8,473.7z"/>
		<path class="st2" d="M502.6,463.7h11.4c2.8,0,5.4,0.3,7.9,0.9c2.5,0.6,4.7,1.6,6.5,3c1.9,1.4,3.3,3.2,4.4,5.4
			c1.1,2.2,1.6,4.9,1.6,8c0,2.8-0.5,5.3-1.6,7.4c-1.1,2.1-2.5,3.9-4.3,5.4c-1.8,1.4-3.9,2.5-6.2,3.3c-2.3,0.7-4.8,1.1-7.4,1.1h-12.4
			V463.7z M510.3,491.2h4c1.8,0,3.4-0.2,4.9-0.5c1.5-0.4,2.8-1,3.9-1.8c1.1-0.8,2-1.9,2.6-3.3c0.6-1.3,1-3,1-5c0-1.7-0.3-3.2-1-4.4
			c-0.6-1.3-1.5-2.3-2.6-3.1c-1.1-0.8-2.3-1.4-3.8-1.8c-1.4-0.4-3-0.6-4.6-0.6h-4.5V491.2z"/>
		<path class="st2" d="M537.8,481c0-2.8,0.5-5.3,1.4-7.5c0.9-2.2,2.2-4.2,3.9-5.7c1.7-1.6,3.6-2.8,5.9-3.6c2.3-0.8,4.8-1.3,7.5-1.3
			c2.7,0,5.2,0.4,7.5,1.3c2.3,0.8,4.2,2.1,5.9,3.6c1.7,1.6,3,3.5,3.9,5.7c0.9,2.2,1.4,4.7,1.4,7.5c0,2.8-0.5,5.3-1.4,7.5
			c-0.9,2.2-2.2,4.2-3.9,5.7c-1.7,1.6-3.6,2.8-5.9,3.6c-2.3,0.8-4.8,1.3-7.5,1.3c-2.7,0-5.2-0.4-7.5-1.3c-2.3-0.8-4.2-2.1-5.9-3.6
			c-1.7-1.6-3-3.5-3.9-5.7C538.3,486.2,537.8,483.7,537.8,481z M545.7,481c0,1.6,0.3,3.1,0.8,4.5c0.5,1.3,1.2,2.5,2.2,3.5
			c0.9,1,2.1,1.8,3.4,2.3c1.3,0.6,2.8,0.8,4.4,0.8c1.6,0,3.1-0.3,4.4-0.8c1.3-0.6,2.4-1.3,3.4-2.3c0.9-1,1.7-2.2,2.2-3.5
			c0.5-1.3,0.8-2.8,0.8-4.5c0-1.6-0.3-3.1-0.8-4.4c-0.5-1.4-1.2-2.5-2.2-3.5c-0.9-1-2.1-1.8-3.4-2.3c-1.3-0.6-2.8-0.8-4.4-0.8
			c-1.6,0-3.1,0.3-4.4,0.8c-1.3,0.6-2.4,1.3-3.4,2.3c-0.9,1-1.7,2.2-2.2,3.5C546,477.9,545.7,479.4,545.7,481z"/>
		<path class="st2" d="M594.7,463.7h11.4c2.8,0,5.4,0.3,7.9,0.9c2.5,0.6,4.7,1.6,6.5,3c1.9,1.4,3.3,3.2,4.4,5.4
			c1.1,2.2,1.6,4.9,1.6,8c0,2.8-0.5,5.3-1.6,7.4c-1.1,2.1-2.5,3.9-4.3,5.4c-1.8,1.4-3.9,2.5-6.2,3.3c-2.3,0.7-4.8,1.1-7.4,1.1h-12.4
			V463.7z M602.3,491.2h4c1.8,0,3.4-0.2,4.9-0.5c1.5-0.4,2.8-1,3.9-1.8c1.1-0.8,2-1.9,2.6-3.3c0.6-1.3,1-3,1-5c0-1.7-0.3-3.2-1-4.4
			c-0.6-1.3-1.5-2.3-2.6-3.1c-1.1-0.8-2.3-1.4-3.8-1.8c-1.4-0.4-3-0.6-4.6-0.6h-4.5V491.2z"/>
		<path class="st2" d="M632,463.7h23.5v7h-15.9v6.4h15v7h-15v7h16.7v7H632V463.7z"/>
		<path class="st2" d="M676.9,463.7h7.6v12.9h14.8v-12.9h7.6v34.5h-7.6v-14.9h-14.8v14.9h-7.6V463.7z"/>
		<path class="st2" d="M725.3,463.7h6.3l15,34.5H738l-3-7.3h-13.4l-2.9,7.3h-8.4L725.3,463.7z M728.2,473.7l-4.2,10.7h8.4
			L728.2,473.7z"/>
		<path class="st2" d="M750.1,463.7h12.9c1.5,0,3,0.1,4.5,0.3c1.5,0.2,2.9,0.6,4.1,1.3c1.2,0.6,2.2,1.5,2.9,2.7
			c0.7,1.1,1.1,2.7,1.1,4.5c0,2-0.5,3.6-1.6,4.9c-1.1,1.3-2.5,2.2-4.3,2.8v0.1c1.1,0.2,2.2,0.5,3.1,1c0.9,0.5,1.7,1.1,2.4,1.8
			c0.7,0.7,1.2,1.6,1.5,2.6c0.4,1,0.5,2,0.5,3.1c0,1.8-0.4,3.3-1.2,4.6c-0.8,1.2-1.8,2.2-3,3c-1.2,0.7-2.6,1.3-4.2,1.6
			c-1.5,0.3-3.1,0.5-4.6,0.5h-14.1V463.7z M757.7,477.5h5.5c0.6,0,1.2-0.1,1.7-0.2c0.6-0.1,1.1-0.3,1.5-0.6c0.5-0.3,0.8-0.7,1.1-1.2
			c0.3-0.5,0.4-1.1,0.4-1.8c0-0.7-0.2-1.3-0.5-1.8c-0.3-0.5-0.7-0.8-1.2-1.1c-0.5-0.3-1-0.4-1.7-0.6c-0.6-0.1-1.2-0.2-1.8-0.2h-5.2
			V477.5z M757.7,491.8h6.8c0.6,0,1.2-0.1,1.8-0.2c0.6-0.1,1.1-0.4,1.6-0.7s0.9-0.7,1.2-1.3c0.3-0.5,0.5-1.2,0.5-1.9
			c0-0.8-0.2-1.5-0.6-2c-0.4-0.5-0.9-0.9-1.5-1.1c-0.6-0.3-1.3-0.4-2-0.5c-0.7-0.1-1.4-0.1-2-0.1h-5.8V491.8z"/>
		<path class="st2" d="M781.6,463.7h7.6v34.5h-7.6V463.7z"/>
		<path class="st2" d="M802.8,470.4h-9.9v-6.7h27.3v6.7h-9.9v27.8h-7.6V470.4z"/>
		<path class="st2" d="M831,463.7h6.3l15,34.5h-8.6l-3-7.3h-13.4l-2.9,7.3h-8.4L831,463.7z M833.9,473.7l-4.2,10.7h8.4L833.9,473.7z
			"/>
		<path class="st2" d="M878.4,472.7c-0.7-0.9-1.7-1.6-2.8-2.1c-1.1-0.5-2.3-0.7-3.8-0.7c-1.4,0-2.8,0.3-4,0.8
			c-1.2,0.6-2.3,1.3-3.2,2.3c-0.9,1-1.6,2.2-2.1,3.5c-0.5,1.4-0.8,2.8-0.8,4.4c0,1.6,0.3,3.1,0.8,4.5c0.5,1.3,1.2,2.5,2.1,3.5
			c0.9,1,1.9,1.8,3.1,2.3c1.2,0.6,2.5,0.8,3.8,0.8c1.6,0,2.9-0.3,4.1-1c1.2-0.7,2.2-1.6,3-2.7l6.3,4.7c-1.5,2-3.3,3.6-5.6,4.5
			c-2.2,1-4.6,1.5-6.9,1.5c-0.2,0-0.3,0-0.5,0c-0.1,0-0.3,0-0.5,0l-1.4,2.1c0.7,0,1.4,0,2.2,0.1c0.7,0.1,1.4,0.3,2,0.5
			c0.6,0.3,1.1,0.7,1.4,1.2c0.4,0.5,0.6,1.3,0.6,2.2c0,0.9-0.2,1.6-0.7,2.2c-0.5,0.6-1.1,1.1-1.8,1.5c-0.7,0.4-1.4,0.6-2.2,0.8
			c-0.8,0.2-1.5,0.2-2.1,0.2c-1,0-2-0.1-3.1-0.4s-2.1-0.6-3-1l1.2-2.3c0.4,0.2,0.9,0.3,1.5,0.5c0.6,0.2,1.4,0.3,2.2,0.3
			c0.4,0,0.8,0,1.1-0.1c0.4,0,0.7-0.1,1-0.2c0.3-0.1,0.6-0.3,0.8-0.5c0.2-0.2,0.3-0.5,0.3-0.8c0-0.6-0.3-1-0.9-1.3
			c-0.6-0.3-1.1-0.4-1.6-0.4c-0.6,0-1.1,0.1-1.8,0.4l-1.6-1.4l2.6-4c-2.2-0.4-4.2-1.1-6-2.1c-1.8-1-3.3-2.3-4.6-3.8
			c-1.3-1.5-2.3-3.3-3-5.3c-0.7-2-1.1-4.2-1.1-6.6c0-2.8,0.5-5.3,1.4-7.5c0.9-2.2,2.2-4.2,3.9-5.7c1.7-1.6,3.6-2.8,5.9-3.6
			c2.3-0.8,4.8-1.3,7.5-1.3c1,0,2,0.1,3,0.3c1.1,0.2,2.1,0.5,3.1,0.9c1,0.4,2,0.9,3,1.6c0.9,0.7,1.8,1.4,2.5,2.4L878.4,472.7z"/>
		<path class="st2" d="M900.6,463.7h6.3l15,34.5h-8.6l-3-7.3h-13.4l-2.9,7.3h-8.4L900.6,463.7z M894.2,460.9
			c0.1-0.8,0.4-1.6,0.7-2.4c0.3-0.8,0.7-1.5,1.2-2.2c0.5-0.6,1.1-1.1,1.8-1.5c0.7-0.4,1.5-0.6,2.4-0.6c0.8,0,1.5,0.1,2.2,0.3
			c0.7,0.2,1.3,0.4,2,0.7c0.5,0.2,0.9,0.3,1.3,0.5c0.4,0.2,0.9,0.2,1.4,0.2c0.6,0,1-0.2,1.3-0.5c0.3-0.3,0.6-0.8,0.8-1.2h3.8
			c-0.2,0.9-0.4,1.8-0.7,2.6c-0.3,0.8-0.7,1.5-1.2,2.1c-0.5,0.6-1.1,1.1-1.9,1.4c-0.7,0.4-1.6,0.5-2.6,0.5c-0.7,0-1.4-0.1-2-0.3
			c-0.6-0.2-1.2-0.4-1.8-0.7c-0.6-0.3-1.1-0.5-1.6-0.7c-0.5-0.2-1-0.3-1.5-0.3c-0.6,0-1,0.2-1.3,0.7c-0.3,0.5-0.6,0.9-0.7,1.4H894.2
			z M903.5,473.7l-4.2,10.7h8.4L903.5,473.7z"/>
		<path class="st2" d="M923.5,481c0-2.8,0.5-5.3,1.4-7.5c0.9-2.2,2.2-4.2,3.9-5.7c1.7-1.6,3.6-2.8,5.9-3.6c2.3-0.8,4.8-1.3,7.5-1.3
			c2.7,0,5.2,0.4,7.5,1.3c2.3,0.8,4.2,2.1,5.9,3.6c1.7,1.6,3,3.5,3.9,5.7c0.9,2.2,1.4,4.7,1.4,7.5c0,2.8-0.5,5.3-1.4,7.5
			c-0.9,2.2-2.2,4.2-3.9,5.7c-1.7,1.6-3.6,2.8-5.9,3.6c-2.3,0.8-4.8,1.3-7.5,1.3c-2.7,0-5.2-0.4-7.5-1.3c-2.3-0.8-4.2-2.1-5.9-3.6
			c-1.7-1.6-3-3.5-3.9-5.7C924,486.2,923.5,483.7,923.5,481z M931.4,481c0,1.6,0.3,3.1,0.8,4.5c0.5,1.3,1.2,2.5,2.2,3.5
			c0.9,1,2.1,1.8,3.4,2.3c1.3,0.6,2.8,0.8,4.4,0.8c1.6,0,3.1-0.3,4.4-0.8c1.3-0.6,2.4-1.3,3.4-2.3c0.9-1,1.7-2.2,2.2-3.5
			c0.5-1.3,0.8-2.8,0.8-4.5c0-1.6-0.3-3.1-0.8-4.4s-1.2-2.5-2.2-3.5c-0.9-1-2.1-1.8-3.4-2.3c-1.3-0.6-2.8-0.8-4.4-0.8
			c-1.6,0-3.1,0.3-4.4,0.8c-1.3,0.6-2.4,1.3-3.4,2.3c-0.9,1-1.7,2.2-2.2,3.5C931.6,477.9,931.4,479.4,931.4,481z"/>
	</g>
</g>
</svg>
