<?xml version="1.0" encoding="utf-8"?>
<!-- Generator: Adobe Illustrator 19.0.0, SVG Export Plug-In . SVG Version: 6.00 Build 0)  -->
<svg version="1.1" id="Camada_1" xmlns="http://www.w3.org/2000/svg" xmlns:xlink="http://www.w3.org/1999/xlink" x="0px" y="0px"
	 viewBox="-447 763.8 1103.2 474.2" style="enable-background:new -447 763.8 1103.2 474.2;" xml:space="preserve">
<style type="text/css">
	.st0{fill:#00CCCC;}
	.st1{fill:#FF6347;}
	.st2{fill:#FFFFFF;}
</style>
<g>
	<g>
		<path class="st0" d="M1005.3,63.2c-7-4.2-14.3-8-21.8-11.2c-6.3-2.8-13.4-5.4-21.2-7.9c-7.8-2.5-15.5-3.7-23-3.7
			c-6.1,0-10.9,0.9-14.6,2.8c-3.6,1.9-5.4,5-5.4,9.5c0,3.3,1.1,6,3.2,8.1s5.1,4,9.1,5.8s8.8,3.5,14.6,5.1c5.7,1.6,12.2,3.6,19.5,6
			c11.5,3.5,21.8,7.4,31.1,11.6c9.2,4.2,17.1,9.2,23.7,14.9s11.6,12.7,15.1,20.9s5.3,18.1,5.3,29.8c0,15-2.8,27.6-8.3,37.7
			c-5.5,10.2-12.8,18.3-21.8,24.4c-9,6.1-19.2,10.5-30.5,13.2c-11.4,2.7-22.8,4-34.2,4c-9.1,0-18.5-0.7-28.1-2.1
			c-9.6-1.4-19.1-3.4-28.6-6s-18.6-5.6-27.4-9.1s-16.9-7.5-24.4-11.9l29.5-60c8.2,5.2,16.7,9.7,25.6,13.7c7.5,3.5,16,6.7,25.5,9.5
			s19.1,4.2,29,4.2c7.5,0,12.7-1,15.6-3s4.4-4.6,4.4-7.9c0-3.5-1.5-6.5-4.4-9s-7-4.6-12.1-6.5c-5.2-1.9-11.1-3.7-17.7-5.6
			c-6.7-1.9-13.8-4.1-21.2-6.7c-11-3.7-20.5-7.8-28.4-12.1c-8-4.3-14.5-9.2-19.7-14.7s-9-11.8-11.4-18.8c-2.5-7-3.7-15.1-3.7-24.2
			c0-13.8,2.5-26,7.5-36.5S868,8.2,876.6,1.2c8.7-7,18.5-12.3,29.7-16c11.1-3.6,22.9-5.4,35.3-5.4c9.1,0,18,0.9,26.7,2.6
			c8.7,1.8,17,4,25.1,6.7s15.6,5.6,22.6,8.8s13.3,6.1,19,9L1005.3,63.2z"/>
		<path class="st0" d="M1070.9,231V-18.3h68.5V231H1070.9z"/>
		<path class="st0" d="M1402.7-18.3V231h-68.5v-97.6h-83.6V231h-68.5V-18.3h68.5v92h83.6v-92H1402.7z"/>
		<path class="st0" d="M1496.1-18.3h62.5L1645,231h-69.5l-15.1-48.8H1494l-14.7,48.8h-69.9L1496.1-18.3z M1549.5,136.5l-22.1-77.2
			l-23.2,77.2H1549.5z"/>
		<path class="st0" d="M1863.8,167.1c0,11.2-2.3,20.9-7,29s-11.1,14.7-19.3,19.8c-8.2,5.2-17.7,9-28.6,11.4
			c-10.9,2.5-22.4,3.7-34.6,3.7h-122.5V-18.3h144.7c8.7,0,16.5,1.9,23.5,5.6c7,3.7,13,8.6,17.9,14.6s8.7,12.8,11.4,20.4
			c2.7,7.6,4,15.4,4,23.4c0,11.7-3,22.9-9,33.5c-6,10.7-14.9,18.7-26.9,24.1c14.3,4.2,25.6,11.5,33.9,21.9
			C1859.6,135.5,1863.8,149.5,1863.8,167.1z M1720.2,40v38.3h46.7c4.7,0,9-1.3,12.8-3.9c3.9-2.6,5.8-7.7,5.8-15.4
			c0-6.8-1.6-11.6-4.9-14.6c-3.3-2.9-7.1-4.4-11.6-4.4L1720.2,40L1720.2,40z M1794.3,153c0-6.1-1.6-11.2-4.9-15.3
			c-3.3-4.1-7.5-6.1-12.6-6.1h-56.5v41.8h54.1c5.6,0,10.4-1.8,14.2-5.3C1792.3,164.6,1794.3,159.6,1794.3,153z"/>
	</g>
	<g>
		<polygon class="st1" points="1149.6,-207 865.8,-91.9 865.8,-56.1 1149.6,-171.3 1197.5,-151.8 1241.6,-169.7 		"/>
		<g>
			<polygon class="st1" points="1352.8,-207 1068.8,-91.9 1068.8,-56.1 1352.8,-171.3 1636.8,-56.1 1636.8,-91.9 			"/>
		</g>
		<polygon class="st1" points="1555.9,-207 1463.9,-169.7 1508,-151.8 1555.9,-171.3 1839.8,-56.1 1839.8,-91.9 		"/>
	</g>
	<g>
		<path d="M904,266.7c-1.5-2.3-3.8-3.4-6.7-3.4c-0.9,0-1.8,0.1-2.7,0.4c-0.9,0.2-1.7,0.6-2.4,1.1c-0.7,0.5-1.3,1.2-1.7,2
			c-0.4,0.8-0.6,1.7-0.6,2.8c0,1.6,0.4,2.8,1.3,3.7c0.9,0.9,2,1.6,3.3,2.1c1.3,0.6,2.7,1.1,4.3,1.5c1.6,0.4,3,1,4.3,1.8
			c1.3,0.7,2.4,1.7,3.3,2.9c0.9,1.2,1.3,2.9,1.3,5c0,1.6-0.3,3-1,4.3s-1.6,2.3-2.7,3.2c-1.1,0.9-2.3,1.5-3.7,2
			c-1.4,0.5-2.7,0.7-4.1,0.7c-2.1,0-4.2-0.4-6.1-1.2c-1.9-0.8-3.6-2.1-4.9-4l3.2-2.3c0.8,1.3,1.8,2.3,3.1,3.1
			c1.3,0.8,2.9,1.2,4.8,1.2c0.9,0,1.8-0.1,2.6-0.4c0.9-0.3,1.7-0.7,2.4-1.2c0.7-0.5,1.3-1.2,1.7-2c0.5-0.8,0.7-1.7,0.7-2.7
			c0-1.2-0.3-2.2-0.8-3s-1.2-1.5-2-2s-1.8-1-2.9-1.4s-2.2-0.7-3.3-1.1c-1.1-0.4-2.2-0.8-3.3-1.2c-1.1-0.5-2-1-2.9-1.7
			c-0.8-0.7-1.5-1.6-2-2.7s-0.8-2.4-0.8-4c0-1.7,0.3-3.1,1-4.4c0.6-1.2,1.5-2.3,2.6-3.1c1.1-0.8,2.3-1.4,3.6-1.8
			c1.3-0.4,2.7-0.6,4.1-0.6c2,0,3.8,0.3,5.4,0.9s3.1,1.7,4.5,3.3L904,266.7z"/>
		<path d="M920.4,295.8h-3.5v-34.9h3.5V295.8z"/>
		<path d="M948.3,266.7c-1.5-2.3-3.8-3.4-6.7-3.4c-0.9,0-1.8,0.1-2.7,0.4c-0.9,0.2-1.7,0.6-2.4,1.1c-0.7,0.5-1.3,1.2-1.7,2
			c-0.4,0.8-0.6,1.7-0.6,2.8c0,1.6,0.4,2.8,1.3,3.7c0.9,0.9,2,1.6,3.3,2.1c1.3,0.6,2.7,1.1,4.3,1.5c1.6,0.4,3,1,4.3,1.8
			c1.3,0.7,2.4,1.7,3.3,2.9c0.9,1.2,1.3,2.9,1.3,5c0,1.6-0.3,3-1,4.3s-1.6,2.3-2.7,3.2c-1.1,0.9-2.3,1.5-3.7,2
			c-1.4,0.5-2.7,0.7-4.1,0.7c-2.1,0-4.2-0.4-6.1-1.2c-1.9-0.8-3.6-2.1-4.9-4l3.2-2.3c0.8,1.3,1.8,2.3,3.1,3.1
			c1.3,0.8,2.9,1.2,4.8,1.2c0.9,0,1.8-0.1,2.6-0.4c0.9-0.3,1.7-0.7,2.4-1.2c0.7-0.5,1.3-1.2,1.7-2c0.5-0.8,0.7-1.7,0.7-2.7
			c0-1.2-0.3-2.2-0.8-3s-1.2-1.5-2-2s-1.8-1-2.9-1.4s-2.2-0.7-3.3-1.1c-1.1-0.4-2.2-0.8-3.3-1.2c-1.1-0.5-2-1-2.9-1.7
			c-0.8-0.7-1.5-1.6-2-2.7s-0.8-2.4-0.8-4c0-1.7,0.3-3.1,1-4.4c0.6-1.2,1.5-2.3,2.6-3.1c1.1-0.8,2.3-1.4,3.6-1.8
			c1.3-0.4,2.7-0.6,4.1-0.6c2,0,3.8,0.3,5.4,0.9s3.1,1.7,4.5,3.3L948.3,266.7z"/>
		<path d="M972.3,295.8h-3.5v-31.6h-11.7V261H984v3.2h-11.7L972.3,295.8L972.3,295.8z"/>
		<path d="M994.9,292.5h18.7v3.2h-22.2v-34.9h21.6v3.2h-18.1v11.9h16.9v3.2h-16.9V292.5z"/>
		<path d="M1039.7,289.3l11.8-28.4h5.4v34.9h-3.5v-30.1h-0.1l-12.6,30.1h-1.9l-12.6-30.1h-0.1v30.1h-3.5v-34.9h5.4L1039.7,289.3z"/>
		<path d="M1067.7,295.8h-4.1l15.2-34.9h3.4l15.2,34.9h-4.1l-3.8-9.2h-17.8L1067.7,295.8z M1072.9,283.4h15.1l-7.5-18.3
			L1072.9,283.4z"/>
		<path d="M1123.3,295.8h-3.5v-34.9h3.5V295.8z"/>
		<path d="M1159.9,290.5L1159.9,290.5l0.1-29.5h3.5v34.9h-4.4l-20.8-29.8h-0.1v29.8h-3.5V261h4.4L1159.9,290.5z"/>
		<path d="M1186.1,295.8h-3.5v-31.6h-11.7V261h26.9v3.2h-11.7L1186.1,295.8L1186.1,295.8z"/>
		<path d="M1208.7,292.5h18.7v3.2h-22.2v-34.9h21.6v3.2h-18.1v11.9h16.9v3.2h-16.9V292.5z"/>
		<path d="M1262.1,267.3c-1.2-1.2-2.6-2.2-4.2-3c-1.6-0.7-3.5-1.1-5.7-1.1s-4.2,0.4-6,1.2c-1.8,0.8-3.3,1.9-4.5,3.3s-2.2,3-2.8,4.8
			c-0.7,1.8-1,3.7-1,5.7s0.3,3.9,1,5.7c0.7,1.8,1.6,3.4,2.8,4.8c1.2,1.4,2.7,2.5,4.5,3.3s3.8,1.2,6,1.2c1.8,0,3.5-0.2,5.2-0.7
			c1.7-0.4,3.1-1,4.5-1.8V279h-8.3v-3.2h11.9v17.1c-2,1.1-4.1,2-6.5,2.6c-2.3,0.6-4.6,0.9-6.7,0.9c-2.6,0-5-0.5-7.2-1.4
			s-4.1-2.2-5.8-3.8c-1.6-1.6-2.9-3.6-3.8-5.8c-0.9-2.2-1.4-4.7-1.4-7.3s0.5-5.1,1.4-7.3c0.9-2.2,2.2-4.2,3.8-5.8
			c1.6-1.6,3.5-2.9,5.8-3.8c2.2-0.9,4.6-1.4,7.2-1.4c2.8,0,5.2,0.4,7.2,1.2c2,0.8,3.8,1.9,5.4,3.5L1262.1,267.3z"/>
		<path d="M1280.2,295.8h-3.5v-34.9h10.7c3.5,0,6.3,0.8,8.4,2.3s3.1,3.9,3.1,7c0,2.4-0.8,4.5-2.3,6.1c-1.5,1.7-3.7,2.6-6.6,2.9
			l10,16.5h-4.3l-9.5-16.2h-5.9L1280.2,295.8L1280.2,295.8z M1280.2,276.3h6.3c1.6,0,2.9-0.2,4-0.5s2-0.8,2.6-1.3
			c0.7-0.5,1.1-1.2,1.4-1.9s0.4-1.5,0.4-2.4c0-0.8-0.1-1.6-0.4-2.3c-0.3-0.7-0.8-1.4-1.4-1.9c-0.7-0.6-1.5-1-2.6-1.3s-2.4-0.5-4-0.5
			h-6.3V276.3z"/>
		<path d="M1307.2,295.8h-4.1l15.2-34.9h3.4l15.2,34.9h-4.1l-3.8-9.2h-18L1307.2,295.8z M1312.4,283.4h15.1l-7.5-18.3L1312.4,283.4z
			"/>
		<path d="M1343,260.9h11.6c2.2,0,4.3,0.4,6.5,1.1s4.2,1.8,5.9,3.3c1.8,1.5,3.2,3.3,4.3,5.5c1.1,2.2,1.6,4.7,1.6,7.6
			s-0.5,5.5-1.6,7.6c-1.1,2.2-2.5,4-4.3,5.4c-1.8,1.5-3.7,2.6-5.9,3.3c-2.2,0.7-4.4,1.1-6.5,1.1H1343V260.9z M1346.6,292.5h6.9
			c2.7,0,5-0.4,6.9-1.2c2-0.8,3.6-1.9,4.9-3.2c1.3-1.3,2.3-2.8,2.9-4.5s0.9-3.4,0.9-5.2c0-1.8-0.3-3.6-0.9-5.2
			c-0.6-1.7-1.6-3.2-2.9-4.5s-2.9-2.4-4.9-3.2c-2-0.8-4.3-1.2-6.9-1.2h-6.9V292.5z"/>
		<path d="M1415.9,278.4c0,2.7-0.5,5.1-1.4,7.3c-0.9,2.2-2.2,4.2-3.8,5.8c-1.6,1.6-3.5,2.9-5.8,3.8c-2.2,0.9-4.6,1.4-7.2,1.4
			s-5-0.5-7.2-1.4s-4.1-2.2-5.8-3.8c-1.6-1.6-2.9-3.6-3.8-5.8c-0.9-2.2-1.4-4.7-1.4-7.3s0.5-5.1,1.4-7.3c0.9-2.2,2.2-4.2,3.8-5.8
			c1.6-1.6,3.5-2.9,5.8-3.8c2.2-0.9,4.6-1.4,7.2-1.4s5,0.5,7.2,1.4s4.1,2.2,5.8,3.8c1.6,1.6,2.9,3.6,3.8,5.8
			C1415.5,273.3,1415.9,275.7,1415.9,278.4z M1412.1,278.4c0-2-0.3-3.9-1-5.7c-0.7-1.8-1.6-3.4-2.8-4.8c-1.2-1.4-2.7-2.5-4.5-3.3
			s-3.8-1.2-6-1.2s-4.2,0.4-6,1.2c-1.8,0.8-3.3,1.9-4.5,3.3s-2.2,3-2.8,4.8c-0.7,1.8-1,3.7-1,5.7s0.3,3.9,1,5.7
			c0.7,1.8,1.6,3.4,2.8,4.8c1.2,1.4,2.7,2.5,4.5,3.3s3.8,1.2,6,1.2s4.2-0.4,6-1.2c1.8-0.8,3.3-1.9,4.5-3.3s2.2-3,2.8-4.8
			C1411.8,282.3,1412.1,280.4,1412.1,278.4z"/>
		<path d="M1440.1,260.9h11.6c2.2,0,4.3,0.4,6.5,1.1s4.2,1.8,5.9,3.3c1.8,1.5,3.2,3.3,4.3,5.5c1.1,2.2,1.6,4.7,1.6,7.6
			s-0.5,5.5-1.6,7.6c-1.1,2.2-2.5,4-4.3,5.4c-1.8,1.5-3.7,2.6-5.9,3.3c-2.2,0.7-4.4,1.1-6.5,1.1h-11.6V260.9z M1443.7,292.5h6.9
			c2.7,0,5-0.4,6.9-1.2c2-0.8,3.6-1.9,4.9-3.2c1.3-1.3,2.3-2.8,2.9-4.5s0.9-3.4,0.9-5.2c0-1.8-0.3-3.6-0.9-5.2
			c-0.6-1.7-1.6-3.2-2.9-4.5s-2.9-2.4-4.9-3.2c-2-0.8-4.3-1.2-6.9-1.2h-6.9V292.5z"/>
		<path d="M1482.6,292.5h18.7v3.2h-22.2v-34.9h21.6v3.2h-18.1v11.9h16.9v3.2h-16.9V292.5z"/>
		<path d="M1525.9,260.9h3.5V276h19v-15.1h3.5v34.9h-3.5v-16.5h-19v16.5h-3.5V260.9z"/>
		<path d="M1562.8,295.8h-4.1l15.2-34.9h3.4l15.2,34.9h-4.1l-3.8-9.2h-17.8L1562.8,295.8z M1568,283.4h15.1l-7.5-18.3L1568,283.4z"
			/>
		<path d="M1599.2,260.9h10.4c1.4,0,2.8,0.1,4.2,0.4c1.3,0.3,2.5,0.8,3.6,1.5s1.9,1.6,2.5,2.7s0.9,2.5,0.9,4.1
			c0,1.9-0.5,3.5-1.6,4.9s-2.6,2.3-4.6,2.7v0.1c2.5,0.2,4.4,1.1,5.8,2.6c1.4,1.5,2.1,3.6,2.1,6.1c0,0.6-0.1,1.4-0.4,2.5
			c-0.3,1.1-0.9,2.2-1.7,3.2c-0.9,1.1-2.2,2-3.8,2.8c-1.7,0.8-3.9,1.2-6.7,1.2h-10.6L1599.2,260.9L1599.2,260.9z M1602.7,276.2h7.1
			c0.9,0,1.7-0.1,2.5-0.3c0.8-0.2,1.6-0.6,2.3-1.1s1.2-1.1,1.6-1.9c0.4-0.8,0.6-1.7,0.6-2.8c0-0.4-0.1-0.9-0.2-1.5
			c-0.1-0.7-0.5-1.3-1-2s-1.3-1.2-2.2-1.7c-1-0.5-2.3-0.7-4-0.7h-6.8L1602.7,276.2L1602.7,276.2z M1602.7,292.5h6.8
			c1.3,0,2.5-0.1,3.6-0.4s2.1-0.7,2.9-1.2c0.8-0.5,1.5-1.2,1.9-2c0.5-0.8,0.7-1.8,0.7-3c0-2.3-0.7-4-2.2-5.1s-3.6-1.7-6.5-1.7h-7.2
			V292.5z"/>
		<path d="M1635.7,295.8h-3.5v-34.9h3.5V295.8z"/>
		<path d="M1658.3,295.8h-3.5v-31.6h-11.7V261h26.9v3.2h-11.7V295.8z"/>
		<path d="M1673.4,295.8h-4.1l15.2-34.9h3.4l15.1,34.9h-4.1l-3.8-9.2h-17.8L1673.4,295.8z M1678.6,283.4h15.1l-7.5-18.3
			L1678.6,283.4z"/>
		<path d="M1722.9,298.7L1722.9,298.7c0.4,0,0.6-0.1,0.9-0.2c0.3-0.1,0.6-0.1,1-0.1c1,0,1.9,0.3,2.6,1c0.8,0.6,1.2,1.6,1.2,2.7
			c0,0.8-0.2,1.4-0.5,2s-0.8,1-1.3,1.4s-1.1,0.6-1.8,0.8c-0.7,0.2-1.3,0.2-2,0.2c-1.7,0-3.3-0.4-4.8-1.2l0.8-1.8
			c1.1,0.6,2.3,0.9,3.6,0.9c0.7,0,1.4-0.2,2.1-0.5c0.7-0.3,1-0.9,1-1.7c0-0.1,0-0.3-0.1-0.5s-0.2-0.5-0.3-0.7
			c-0.2-0.2-0.4-0.4-0.7-0.5s-0.7-0.2-1.2-0.2s-0.9,0-1.2,0.1c-0.4,0.1-0.7,0.2-1,0.4l-0.9-0.8l2.6-3.5c-1.5-0.2-2.9-0.6-4.3-1.1
			c-2.2-0.9-4.1-2.2-5.7-3.8c-1.6-1.6-2.9-3.6-3.8-5.8c-0.9-2.2-1.4-4.7-1.4-7.3s0.5-5.1,1.4-7.3c0.9-2.2,2.2-4.2,3.8-5.8
			c1.6-1.6,3.5-2.9,5.8-3.8c2.2-0.9,4.6-1.4,7.2-1.4c2.2,0,4.3,0.4,6.5,1.3s4,2.3,5.6,4.2l-3.1,2.3c-0.4-0.6-0.9-1.1-1.5-1.7
			s-1.3-1-2.1-1.5c-0.8-0.4-1.7-0.8-2.6-1c-0.9-0.3-1.8-0.4-2.8-0.4c-2.2,0-4.2,0.4-6,1.2c-1.8,0.8-3.3,1.9-4.5,3.3s-2.2,3-2.8,4.8
			c-0.7,1.8-1,3.7-1,5.7s0.3,3.9,1,5.7c0.7,1.8,1.6,3.4,2.8,4.8s2.7,2.5,4.5,3.3s3.8,1.2,6,1.2c0.9,0,1.8-0.1,2.7-0.2
			c0.9-0.2,1.8-0.4,2.7-0.8s1.7-0.9,2.5-1.6s1.5-1.5,2.1-2.5l2.9,2.1c-0.6,0.9-1.3,1.7-2.2,2.5s-1.9,1.5-3,2c-1.1,0.6-2.3,1-3.6,1.4
			c-1.3,0.3-2.7,0.5-4.1,0.5c-0.4,0-0.7,0-1.1,0L1722.9,298.7z"/>
		<path d="M1745.7,295.8h-4.1l15.2-34.9h3.4l15.2,34.9h-4.1l-3.8-9.2h-17.8L1745.7,295.8z M1750.5,258.8c0.1-0.6,0.3-1.2,0.5-1.9
			c0.2-0.6,0.5-1.2,0.9-1.6c0.4-0.5,0.8-0.9,1.3-1.2c0.5-0.3,1.1-0.4,1.9-0.4c0.6,0,1.2,0.1,1.8,0.3c0.6,0.2,1.2,0.5,1.8,0.8
			s1.2,0.5,1.7,0.8c0.6,0.2,1.1,0.4,1.6,0.4c0.8,0,1.3-0.3,1.6-0.8s0.6-1.1,0.8-1.7h2.1c-0.1,0.7-0.3,1.3-0.5,1.9s-0.5,1.1-0.9,1.6
			s-0.8,0.9-1.3,1.2c-0.5,0.3-1.1,0.4-1.9,0.4c-0.6,0-1.2-0.1-1.8-0.4c-0.6-0.2-1.2-0.5-1.8-0.8s-1.1-0.6-1.7-0.8
			c-0.6-0.2-1.1-0.3-1.6-0.3c-0.8,0-1.3,0.3-1.6,0.8s-0.6,1.1-0.8,1.7H1750.5z M1750.9,283.4h15.1l-7.5-18.3L1750.9,283.4z"/>
		<path d="M1816,278.4c0,2.7-0.5,5.1-1.4,7.3c-0.9,2.2-2.2,4.2-3.8,5.8s-3.5,2.9-5.8,3.8c-2.2,0.9-4.6,1.4-7.2,1.4
			c-2.6,0-5-0.5-7.2-1.4s-4.1-2.2-5.8-3.8s-2.9-3.6-3.8-5.8c-0.9-2.2-1.4-4.7-1.4-7.3s0.5-5.1,1.4-7.3c0.9-2.2,2.2-4.2,3.8-5.8
			s3.5-2.9,5.8-3.8c2.2-0.9,4.6-1.4,7.2-1.4c2.6,0,5,0.5,7.2,1.4s4.1,2.2,5.8,3.8s2.9,3.6,3.8,5.8
			C1815.6,273.3,1816,275.7,1816,278.4z M1812.2,278.4c0-2-0.3-3.9-1-5.7c-0.7-1.8-1.6-3.4-2.8-4.8s-2.7-2.5-4.5-3.3s-3.8-1.2-6-1.2
			s-4.2,0.4-6,1.2c-1.8,0.8-3.3,1.9-4.5,3.3s-2.2,3-2.8,4.8c-0.7,1.8-1,3.7-1,5.7s0.3,3.9,1,5.7c0.7,1.8,1.6,3.4,2.8,4.8
			s2.7,2.5,4.5,3.3s3.8,1.2,6,1.2s4.2-0.4,6-1.2c1.8-0.8,3.3-1.9,4.5-3.3s2.2-3,2.8-4.8C1811.9,282.3,1812.2,280.4,1812.2,278.4z"/>
	</g>
</g>
<g>
	<g>
		<path class="st2" d="M-266.6,1054.2c-7.5-4.5-15.4-8.5-23.4-12.1c-6.8-3-14.4-5.8-22.8-8.5c-8.4-2.6-16.7-4-24.7-4
			c-6.5,0-11.8,1-15.7,3c-3.9,2-5.8,5.4-5.8,10.2c0,3.5,1.1,6.4,3.4,8.7c2.3,2.3,5.5,4.3,9.8,6.2c4.3,1.9,9.5,3.7,15.7,5.5
			c6.2,1.8,13.1,3.9,20.9,6.4c12.3,3.8,23.5,7.9,33.4,12.5c9.9,4.5,18.4,9.9,25.5,16c7,6.2,12.5,13.7,16.2,22.5
			c3.8,8.8,5.7,19.5,5.7,32.1c0,16.1-3,29.6-8.9,40.6c-5.9,10.9-13.7,19.7-23.4,26.2c-9.7,6.5-20.6,11.3-32.8,14.2
			c-12.2,2.9-24.5,4.3-36.8,4.3c-9.8,0-19.9-0.8-30.2-2.3c-10.3-1.5-20.6-3.6-30.8-6.4s-20-6-29.4-9.8c-9.4-3.8-18.2-8-26.2-12.8
			l31.7-64.5c8.8,5.5,18,10.4,27.6,14.7c8,3.8,17.2,7.2,27.4,10.2s20.6,4.5,31.1,4.5c8,0,13.6-1.1,16.8-3.2c3.1-2.1,4.7-5,4.7-8.5
			c0-3.8-1.6-7-4.7-9.6c-3.1-2.6-7.5-5-13-7s-11.9-4-19.1-6c-7.2-2-14.8-4.4-22.8-7.2c-11.8-4-22-8.4-30.6-13
			c-8.6-4.7-15.6-9.9-21.1-15.9c-5.5-5.9-9.6-12.6-12.3-20.2c-2.6-7.5-4-16.2-4-26c0-14.8,2.7-27.9,8.1-39.3
			c5.4-11.3,12.8-20.8,22.1-28.3c9.3-7.5,19.9-13.3,31.9-17.2c11.9-3.9,24.6-5.8,37.9-5.8c9.8,0,19.4,0.9,28.7,2.8
			c9.3,1.9,18.3,4.3,27,7.2c8.7,2.9,16.8,6,24.3,9.4c7.5,3.4,14.3,6.6,20.4,9.6L-266.6,1054.2z"/>
		<path class="st2" d="M-196,1234.6v-268h73.6v268H-196z"/>
		<path class="st2" d="M160.6,966.6v268H87v-105H-2.8v104.9h-73.6v-268h73.6v98.9H87v-98.9L160.6,966.6L160.6,966.6z"/>
		<path class="st2" d="M261,966.6h67.2l92.8,268h-74.7l-16.2-52.5h-71.3l-15.9,52.5h-75.1L261,966.6z M318.4,1133l-23.8-83l-24.9,83
			H318.4z"/>
		<path class="st2" d="M656.2,1165.9c0,12.1-2.5,22.5-7.5,31.1c-5,8.7-12,15.8-20.8,21.3s-19.1,9.6-30.8,12.3
			c-11.7,2.6-24.1,4-37.2,4H428.2v-268h155.5c9.3,0,17.7,2,25.3,6c7.5,4,14,9.2,19.2,15.7c5.3,6.4,9.4,13.7,12.3,21.9
			c2.9,8.2,4.3,16.5,4.3,25.1c0,12.6-3.2,24.6-9.6,36c-6.4,11.5-16,20.1-28.9,25.9c15.3,4.5,27.5,12.4,36.4,23.6
			C651.7,1132,656.2,1147,656.2,1165.9z M501.8,1029.2v41.1H552c5,0,9.6-1.4,13.8-4.2c4.2-2.8,6.2-8.3,6.2-16.6
			c0-7.3-1.8-12.5-5.3-15.7c-3.5-3.1-7.7-4.7-12.5-4.7L501.8,1029.2L501.8,1029.2z M581.5,1150.8c0-6.5-1.8-12-5.3-16.4
			c-3.5-4.4-8.1-6.6-13.6-6.6h-60.8v44.9h58.1c6,0,11.1-1.9,15.3-5.7S581.5,1157.8,581.5,1150.8z"/>
	</g>
	<g>
		<polygon class="st2" points="-111.3,763.8 -416.2,887.5 -416.2,925.9 -111.3,802.2 -59.9,823.1 -12.4,803.9 		"/>
		<g>
			<polygon class="st2" points="106.8,763.8 -198.2,887.5 -198.2,925.9 106.8,802.2 411.8,925.9 411.8,887.5 			"/>
		</g>
		<polygon class="st2" points="325.4,763.8 226.5,803.9 273.8,823.1 325.5,802.2 630.8,925.9 630.8,887.5 		"/>
	</g>
</g>
</svg>
